%TF.GenerationSoftware,KiCad,Pcbnew,6.0.7-1.fc35*%
%TF.CreationDate,2022-12-16T23:42:52+01:00*%
%TF.ProjectId,outer,6f757465-722e-46b6-9963-61645f706362,rev?*%
%TF.SameCoordinates,Original*%
%TF.FileFunction,Legend,Top*%
%TF.FilePolarity,Positive*%
%FSLAX46Y46*%
G04 Gerber Fmt 4.6, Leading zero omitted, Abs format (unit mm)*
G04 Created by KiCad (PCBNEW 6.0.7-1.fc35) date 2022-12-16 23:42:52*
%MOMM*%
%LPD*%
G01*
G04 APERTURE LIST*
%ADD10C,0.120000*%
%ADD11C,0.100000*%
%ADD12C,0.125000*%
%ADD13C,0.180000*%
G04 APERTURE END LIST*
D10*
X199630000Y-78140000D02*
X200000000Y-79000000D01*
X200000000Y-79000000D02*
X200370000Y-78140000D01*
D11*
X179102609Y-102127584D02*
X178534228Y-102186521D01*
D12*
X180605069Y-91921547D02*
X179814034Y-91591461D01*
X215624137Y-83547556D02*
X215580221Y-83456711D01*
X215570030Y-83399485D01*
X215583372Y-83318651D01*
X215606905Y-83295044D01*
X215687696Y-83281449D01*
X215744953Y-83291460D01*
X215835936Y-83335091D01*
X215970834Y-83469566D01*
X216014750Y-83560411D01*
X216024942Y-83617637D01*
X216011600Y-83698470D01*
X215988067Y-83722077D01*
X215907276Y-83735673D01*
X215850018Y-83725661D01*
X215759036Y-83682031D01*
X215624137Y-83547556D01*
X215533155Y-83503925D01*
X215475897Y-83493914D01*
X215395106Y-83507509D01*
X215300973Y-83601938D01*
X215287632Y-83682771D01*
X215297823Y-83739997D01*
X215341739Y-83830842D01*
X215476638Y-83965318D01*
X215567620Y-84008948D01*
X215624878Y-84018960D01*
X215705669Y-84005364D01*
X215799801Y-83910935D01*
X215813143Y-83830102D01*
X215802952Y-83772876D01*
X215759036Y-83682031D01*
X216544152Y-84041086D02*
X216611602Y-84108323D01*
X216655518Y-84199168D01*
X216665709Y-84256394D01*
X216652367Y-84337228D01*
X216591959Y-84465275D01*
X216474293Y-84583311D01*
X216346436Y-84644121D01*
X216265645Y-84657717D01*
X216208387Y-84647706D01*
X216117405Y-84604075D01*
X216049956Y-84536837D01*
X216006040Y-84445993D01*
X215995848Y-84388767D01*
X216009190Y-84307933D01*
X216069598Y-84179886D01*
X216187264Y-84061850D01*
X216315121Y-84001039D01*
X216395912Y-83987444D01*
X216453170Y-83997455D01*
X216544152Y-84041086D01*
D11*
X216680293Y-87240845D02*
X217134305Y-86893853D01*
X201467967Y-120946487D02*
X201508026Y-121516510D01*
X182166413Y-111093267D02*
X181682025Y-111396417D01*
D12*
X199885404Y-121006701D02*
X199883160Y-121863840D01*
D11*
X181181387Y-109340011D02*
X180669773Y-109594535D01*
X220848124Y-97488846D02*
X221415171Y-97418216D01*
D12*
X184273024Y-86082439D02*
X183631161Y-85514367D01*
X218055146Y-110758467D02*
X218791244Y-111197617D01*
X179646576Y-94777398D02*
X178816437Y-94563946D01*
D11*
X186531387Y-83891284D02*
X186165228Y-83452585D01*
D12*
X179030534Y-101270973D02*
X178175017Y-101323748D01*
D11*
X184836687Y-114532310D02*
X184424528Y-114928109D01*
D12*
X181906317Y-89319062D02*
X181167558Y-88884403D01*
D11*
X213773685Y-115852913D02*
X214148802Y-116283979D01*
X214344896Y-115340858D02*
X214735993Y-115757479D01*
X179033725Y-98708748D02*
X178463315Y-98674660D01*
D12*
X189995018Y-81514260D02*
X189585893Y-80761059D01*
X177028562Y-98637690D02*
X177089723Y-98021671D01*
X177322152Y-98379720D01*
X177336266Y-98237562D01*
X177378846Y-98146083D01*
X177416721Y-98101990D01*
X177487766Y-98061190D01*
X177653617Y-98077657D01*
X177715253Y-98131630D01*
X177743718Y-98182309D01*
X177767479Y-98280374D01*
X177739251Y-98564691D01*
X177696671Y-98656170D01*
X177658796Y-98700262D01*
X177179112Y-97121336D02*
X177132065Y-97595196D01*
X177459063Y-97675515D01*
X177430597Y-97624836D01*
X177406837Y-97526771D01*
X177430360Y-97289840D01*
X177472940Y-97198361D01*
X177510815Y-97154269D01*
X177581860Y-97113469D01*
X177747711Y-97129936D01*
X177809347Y-97183908D01*
X177837812Y-97234588D01*
X177861573Y-97332653D01*
X177838050Y-97569583D01*
X177795470Y-97661062D01*
X177757595Y-97705155D01*
D11*
X181546068Y-89980205D02*
X181044125Y-89707104D01*
X220427937Y-95133596D02*
X220983901Y-95001557D01*
D12*
X187051406Y-83450577D02*
X186521576Y-82776800D01*
D11*
X183408233Y-112877242D02*
X182956899Y-113227711D01*
D12*
X187979658Y-82756690D02*
X187489370Y-82053617D01*
X185133582Y-85143117D02*
X184527068Y-84537449D01*
X182629724Y-88175254D02*
X181921134Y-87692973D01*
D11*
X179191596Y-97131022D02*
X178625057Y-97056436D01*
X210679685Y-118079676D02*
X210971166Y-118571173D01*
X210719732Y-81940351D02*
X211011128Y-81448803D01*
D12*
X216534656Y-114915794D02*
X216920045Y-114493887D01*
X216727350Y-114704840D02*
X217244187Y-115176942D01*
X217234584Y-115039181D01*
X217249593Y-114923901D01*
X217289214Y-114831102D01*
X216301129Y-115863389D02*
X215956572Y-115548655D01*
X216658598Y-115867443D02*
X216450008Y-115354433D01*
X216032503Y-115811499D01*
D11*
X220296366Y-94591131D02*
X220848427Y-94443619D01*
X219754424Y-92886821D02*
X220291834Y-92692600D01*
X182245477Y-88768217D02*
X181762790Y-88462367D01*
X183851741Y-86570839D02*
X183412211Y-86205676D01*
D12*
X219942439Y-106611896D02*
X220756185Y-106881175D01*
X204538365Y-79480342D02*
X204723155Y-78643355D01*
D11*
X200955852Y-79023967D02*
X200981575Y-78453117D01*
X201861897Y-79083026D02*
X201912992Y-78513887D01*
X183013968Y-87645136D02*
X182552207Y-87308525D01*
X184718803Y-85595463D02*
X184302796Y-85203712D01*
X189477517Y-81821962D02*
X189191121Y-81327485D01*
D12*
X182776595Y-112030206D02*
X182073694Y-112520740D01*
D11*
X219606373Y-107507933D02*
X220140240Y-107711690D01*
D12*
X183421946Y-87099656D02*
X182745680Y-86573008D01*
D11*
X180925668Y-91241030D02*
X180406271Y-91002793D01*
X206226801Y-79940149D02*
X206396253Y-79394423D01*
X190964857Y-81043881D02*
X190719661Y-80527733D01*
X198059030Y-79082942D02*
X198006247Y-78513956D01*
D12*
X186072624Y-84272860D02*
X185504216Y-83631295D01*
D11*
X180364132Y-92560732D02*
X179829346Y-92359400D01*
X220138781Y-94059682D02*
X220686451Y-93896623D01*
X219298709Y-91726125D02*
X219823812Y-91500740D01*
X219251628Y-108365031D02*
X219775940Y-108592247D01*
X220985874Y-100689963D02*
X221557011Y-100708211D01*
X210039168Y-118444272D02*
X210313407Y-118945594D01*
D12*
X217096728Y-87794496D02*
X217793585Y-87295412D01*
X222339907Y-101574353D02*
X222386471Y-101004825D01*
X222363189Y-101289589D02*
X223060861Y-101346629D01*
X222968954Y-101243559D01*
X222910270Y-101143205D01*
X222884808Y-101045568D01*
X222262301Y-102523567D02*
X222308865Y-101954038D01*
X222285583Y-102238802D02*
X222983255Y-102295843D01*
X222891348Y-102192773D01*
X222832664Y-102092419D01*
X222807202Y-101994781D01*
D11*
X220995771Y-99675978D02*
X221567096Y-99665108D01*
X217074326Y-112237225D02*
X217539187Y-112569542D01*
X211350256Y-117675495D02*
X211658881Y-118156412D01*
X202828270Y-79191503D02*
X202904142Y-78625133D01*
D12*
X215481926Y-114202053D02*
X216114787Y-114780137D01*
D11*
X197063848Y-79201211D02*
X196984123Y-78635372D01*
D12*
X221199205Y-106789684D02*
X221378724Y-106247186D01*
X221288965Y-106518435D02*
X221953524Y-106738346D01*
X221888507Y-106616513D01*
X221855135Y-106505153D01*
X221853409Y-106404265D01*
X221680794Y-107350315D02*
X221697480Y-107405995D01*
X221699206Y-107506884D01*
X221624406Y-107732924D01*
X221562840Y-107812869D01*
X221516235Y-107847605D01*
X221437984Y-107871869D01*
X221374692Y-107850925D01*
X221294715Y-107774301D01*
X221094486Y-107106140D01*
X220900007Y-107693846D01*
X191714731Y-119306273D02*
X191378855Y-120094867D01*
X188877808Y-79926797D02*
X188459363Y-80154089D01*
X188576622Y-80469729D01*
X188602556Y-80417709D01*
X188670335Y-80342959D01*
X188879557Y-80229314D01*
X188979157Y-80213147D01*
X189036912Y-80219709D01*
X189110577Y-80255562D01*
X189190129Y-80402017D01*
X189180105Y-80483329D01*
X189154171Y-80535349D01*
X189086393Y-80610098D01*
X188877170Y-80723744D01*
X188777571Y-80739911D01*
X188719816Y-80733349D01*
X189463630Y-79608589D02*
X189547319Y-79563131D01*
X189646918Y-79546964D01*
X189704673Y-79553526D01*
X189778338Y-79589379D01*
X189883825Y-79683814D01*
X189963377Y-79830270D01*
X189985174Y-79970163D01*
X189975150Y-80051475D01*
X189949216Y-80103495D01*
X189881437Y-80178245D01*
X189797749Y-80223703D01*
X189698149Y-80239870D01*
X189640394Y-80233308D01*
X189566729Y-80197455D01*
X189461243Y-80103020D01*
X189381691Y-79956564D01*
X189359894Y-79816670D01*
X189369917Y-79735359D01*
X189395852Y-79683339D01*
X189463630Y-79608589D01*
D11*
X209280650Y-81161704D02*
X209534013Y-80649514D01*
X186501598Y-116098890D02*
X186135055Y-116537271D01*
X185595343Y-84718916D02*
X185203810Y-84302704D01*
D12*
X209468038Y-118758909D02*
X209853423Y-119524528D01*
D11*
X220453781Y-104739247D02*
X221010542Y-104867888D01*
X217567046Y-111507862D02*
X218045143Y-111820839D01*
X180393294Y-107527067D02*
X179860031Y-107732398D01*
D12*
X180751540Y-108440216D02*
X179966921Y-108785277D01*
D11*
X198453072Y-120936562D02*
X198411122Y-121506449D01*
D12*
X219135641Y-111124180D02*
X219428408Y-110633448D01*
X219282025Y-110878814D02*
X219883172Y-111237454D01*
X219846088Y-111104431D01*
X219837631Y-110988486D01*
X219857799Y-110889620D01*
X219566007Y-111769081D02*
X219248843Y-112300707D01*
X219190615Y-111877822D01*
X219117423Y-112000505D01*
X219040003Y-112065215D01*
X218986980Y-112089032D01*
X218905330Y-112095770D01*
X218762200Y-112010379D01*
X218729345Y-111935329D01*
X218725116Y-111877356D01*
X218745285Y-111778490D01*
X218891669Y-111533124D01*
X218969089Y-111468413D01*
X219022112Y-111444597D01*
D11*
X213212213Y-83674245D02*
X213571825Y-83230162D01*
D12*
X183831970Y-84296179D02*
X184162184Y-84625932D01*
X183475035Y-84276225D02*
X183660594Y-84798008D01*
X184098021Y-84359970D01*
X184373476Y-83423702D02*
X184036994Y-83760655D01*
X184239212Y-84029888D01*
X184249274Y-83972639D01*
X184292984Y-83881695D01*
X184461225Y-83713218D01*
X184552108Y-83669382D01*
X184609343Y-83659240D01*
X184690165Y-83672652D01*
X184808098Y-83790421D01*
X184821623Y-83871224D01*
X184811562Y-83928473D01*
X184767852Y-84019417D01*
X184599611Y-84187894D01*
X184508727Y-84231730D01*
X184451493Y-84241872D01*
D11*
X208252724Y-119308414D02*
X208465952Y-119838569D01*
X187497032Y-83122575D02*
X187156973Y-82663347D01*
X215350445Y-85674663D02*
X215767817Y-85284366D01*
D12*
X219952207Y-93407399D02*
X220766375Y-93139400D01*
D11*
X217823209Y-88896127D02*
X218308283Y-88594077D01*
X207024727Y-80206130D02*
X207216132Y-79667711D01*
D12*
X179089122Y-97916576D02*
X178236172Y-97831891D01*
D11*
X195575504Y-120532616D02*
X195456405Y-121091495D01*
D12*
X212030814Y-82777019D02*
X212520242Y-82073347D01*
X220686022Y-96303482D02*
X221529618Y-96151695D01*
D11*
X194039104Y-79861390D02*
X193877096Y-79313408D01*
D12*
X185671874Y-115375555D02*
X185086648Y-116001817D01*
X195011404Y-79598076D02*
X194808850Y-78765210D01*
D11*
X213182597Y-116345443D02*
X213541511Y-116790091D01*
X219055021Y-91162524D02*
X219573164Y-90921570D01*
X211920903Y-117291736D02*
X212246533Y-117761306D01*
X210019987Y-81536173D02*
X210292737Y-81034039D01*
D12*
X197389170Y-122711727D02*
X197337297Y-122737955D01*
X197238289Y-122757416D01*
X197002610Y-122723580D01*
X196913075Y-122677050D01*
X196870677Y-122637288D01*
X196833015Y-122564531D01*
X196842489Y-122498541D01*
X196903836Y-122406323D01*
X197526309Y-122091589D01*
X196913544Y-122003615D01*
X196201302Y-122608538D02*
X196107030Y-122595003D01*
X196017496Y-122548474D01*
X195975097Y-122508712D01*
X195937436Y-122435955D01*
X195909248Y-122297207D01*
X195932933Y-122132232D01*
X195999017Y-122007019D01*
X196055627Y-121947796D01*
X196107499Y-121921569D01*
X196206508Y-121902108D01*
X196300779Y-121915642D01*
X196390314Y-121962172D01*
X196432713Y-122001934D01*
X196470374Y-122074691D01*
X196498562Y-122213438D01*
X196474877Y-122378413D01*
X196408793Y-122503626D01*
X196352183Y-122562849D01*
X196300311Y-122589077D01*
X196201302Y-122608538D01*
D11*
X220946506Y-98492306D02*
X221516494Y-98451749D01*
X203714938Y-79329424D02*
X203815050Y-78766834D01*
D12*
X214867173Y-85143873D02*
X215472312Y-84536830D01*
X179314079Y-96292915D02*
X178470298Y-96142159D01*
X178422410Y-108029211D02*
X178226598Y-107441948D01*
X178585010Y-107673817D01*
X178539823Y-107538295D01*
X178541320Y-107437403D01*
X178557879Y-107381685D01*
X178606060Y-107315424D01*
X178764169Y-107262705D01*
X178842476Y-107286792D01*
X178889160Y-107321422D01*
X178950907Y-107401227D01*
X179041281Y-107672271D01*
X179039784Y-107773163D01*
X179023225Y-107828881D01*
X178030786Y-106854686D02*
X178000661Y-106764337D01*
X178002158Y-106663446D01*
X178018718Y-106607728D01*
X178066899Y-106541466D01*
X178178324Y-106454117D01*
X178336433Y-106401399D01*
X178477983Y-106404398D01*
X178556289Y-106428485D01*
X178602973Y-106463115D01*
X178664720Y-106542919D01*
X178694845Y-106633268D01*
X178693348Y-106734159D01*
X178676789Y-106789877D01*
X178628607Y-106856139D01*
X178517182Y-106943488D01*
X178359073Y-106996206D01*
X178217523Y-106993207D01*
X178139217Y-106969120D01*
X178092533Y-106934490D01*
X178030786Y-106854686D01*
X180047223Y-106590881D02*
X179234090Y-106862005D01*
D11*
X205150851Y-120363415D02*
X205276575Y-120920841D01*
X218473539Y-110000518D02*
X218976195Y-110272303D01*
D12*
X208627952Y-80830537D02*
X208977130Y-80047742D01*
D11*
X214906297Y-114799245D02*
X215313029Y-115200617D01*
X216571901Y-112897068D02*
X217022990Y-113247852D01*
X217448592Y-88314475D02*
X217923878Y-87997247D01*
D12*
X178991336Y-99559297D02*
X178134360Y-99542393D01*
D11*
X179368708Y-103911054D02*
X178807420Y-104018227D01*
D12*
X197046995Y-120803356D02*
X196925185Y-121651799D01*
D11*
X214315617Y-84619816D02*
X214705403Y-84201968D01*
X190560675Y-118768955D02*
X190304902Y-119279945D01*
X205389186Y-79703718D02*
X205536119Y-79151503D01*
X218877353Y-109192571D02*
X219391256Y-109442441D01*
D12*
X179538143Y-89998583D02*
X179955633Y-90207100D01*
X179193190Y-90092435D02*
X179534115Y-90528852D01*
X179810720Y-89975038D01*
X179648556Y-89255308D02*
X179691111Y-89170106D01*
X179763486Y-89099798D01*
X179814584Y-89072091D01*
X179895503Y-89059278D01*
X180036063Y-89076253D01*
X180185167Y-89150723D01*
X180283173Y-89252901D01*
X180321537Y-89325290D01*
X180330080Y-89382785D01*
X180317347Y-89482881D01*
X180274792Y-89568084D01*
X180202417Y-89638392D01*
X180151319Y-89666099D01*
X180070400Y-89678912D01*
X179929840Y-89661936D01*
X179780736Y-89587466D01*
X179682730Y-89485288D01*
X179644366Y-89412899D01*
X179635822Y-89355404D01*
X179648556Y-89255308D01*
X179548767Y-104851475D02*
X178714644Y-105048792D01*
D11*
X198974421Y-79033954D02*
X198948200Y-78463127D01*
X211359794Y-82334207D02*
X211669258Y-81853829D01*
D12*
X194218360Y-120196382D02*
X193984977Y-121021141D01*
X212567537Y-116842561D02*
X213081105Y-117528813D01*
X181641440Y-110239865D02*
X180893367Y-110658291D01*
D11*
X219547663Y-92325390D02*
X220079184Y-92115589D01*
X215803382Y-86166851D02*
X216233596Y-85790757D01*
D12*
X218768728Y-90551601D02*
X219534676Y-90166871D01*
D11*
X212561033Y-83171131D02*
X212904609Y-82714528D01*
X188432962Y-117527589D02*
X188118485Y-118004699D01*
X220197410Y-105735059D02*
X220747573Y-105889496D01*
D12*
X188967442Y-82131269D02*
X188517547Y-81401688D01*
D11*
X220818417Y-102778868D02*
X221384931Y-102853652D01*
X179497083Y-95506898D02*
X178938750Y-95385264D01*
D12*
X181211750Y-90600644D02*
X180444931Y-90217654D01*
X208746853Y-78740137D02*
X209355694Y-79011720D01*
X208679134Y-79476414D01*
X209877557Y-79244505D02*
X209964535Y-79283303D01*
X210037933Y-79352542D01*
X210067842Y-79402383D01*
X210084173Y-79482666D01*
X210073345Y-79623833D01*
X210005449Y-79776043D01*
X209907644Y-79878412D01*
X209836997Y-79919898D01*
X209779929Y-79930941D01*
X209679373Y-79922585D01*
X209592395Y-79883788D01*
X209518997Y-79814548D01*
X209489088Y-79764707D01*
X209472757Y-79684425D01*
X209483585Y-79543258D01*
X209551481Y-79391047D01*
X209649286Y-79288678D01*
X209719933Y-79247193D01*
X209777001Y-79236149D01*
X209877557Y-79244505D01*
X179206443Y-103001620D02*
X178358364Y-103125946D01*
D11*
X220660770Y-103783853D02*
X221223006Y-103885937D01*
D12*
X221994607Y-95868611D02*
X221893416Y-95306213D01*
X221944011Y-95587412D02*
X222632948Y-95463452D01*
X222517664Y-95387428D01*
X222435185Y-95305501D01*
X222385514Y-95217671D01*
X222793168Y-96353915D02*
X222810033Y-96447648D01*
X222794092Y-96547284D01*
X222769718Y-96600053D01*
X222712538Y-96658725D01*
X222589744Y-96729203D01*
X222425711Y-96758717D01*
X222286053Y-96735462D01*
X222212007Y-96700401D01*
X222170768Y-96659437D01*
X222121096Y-96571607D01*
X222104231Y-96477874D01*
X222120172Y-96378239D01*
X222144546Y-96325469D01*
X222201727Y-96266797D01*
X222324520Y-96196320D01*
X222488553Y-96166805D01*
X222628211Y-96190061D01*
X222702257Y-96225121D01*
X222743496Y-96266085D01*
X222793168Y-96353915D01*
D11*
X213813727Y-84177122D02*
X214188768Y-83745990D01*
X193004393Y-80196441D02*
X192814587Y-79657457D01*
D12*
X206716170Y-119906350D02*
X206970206Y-120724983D01*
X184760468Y-117291570D02*
X184702917Y-117283412D01*
X184610574Y-117242741D01*
X184436612Y-117080178D01*
X184389786Y-116990799D01*
X184377753Y-116933931D01*
X184388478Y-116852710D01*
X184433995Y-116804000D01*
X184537064Y-116763449D01*
X185227678Y-116861344D01*
X184775377Y-116438681D01*
X183636388Y-116332389D02*
X183984312Y-116657515D01*
X184246692Y-116446481D01*
X184189141Y-116438323D01*
X184096797Y-116397653D01*
X183922836Y-116235090D01*
X183876010Y-116145710D01*
X183863976Y-116088843D01*
X183874701Y-116007621D01*
X183988495Y-115885848D01*
X184068805Y-115869651D01*
X184126357Y-115877809D01*
X184218700Y-115918480D01*
X184392662Y-116081042D01*
X184439488Y-116170422D01*
X184451521Y-116227289D01*
D11*
X220574543Y-95749947D02*
X221133957Y-95633385D01*
X216029808Y-113567309D02*
X216466520Y-113935837D01*
X179792336Y-105734162D02*
X179242633Y-105890230D01*
X216256688Y-86708935D02*
X216699072Y-86347234D01*
X179851312Y-94059367D02*
X179303471Y-93896881D01*
D12*
X184056815Y-113691896D02*
X183408060Y-114252084D01*
D11*
X196058837Y-79378729D02*
X195951860Y-78817403D01*
D12*
X189465856Y-118181813D02*
X189037026Y-118923971D01*
D11*
X191999612Y-80570634D02*
X191782134Y-80042208D01*
D12*
X203641946Y-120693509D02*
X203765680Y-121541674D01*
D13*
X199657142Y-76852380D02*
X199428571Y-76852380D01*
X199314285Y-76900000D01*
X199257142Y-76947619D01*
X199142857Y-77090476D01*
X199085714Y-77280952D01*
X199085714Y-77661904D01*
X199142857Y-77757142D01*
X199200000Y-77804761D01*
X199314285Y-77852380D01*
X199542857Y-77852380D01*
X199657142Y-77804761D01*
X199714285Y-77757142D01*
X199771428Y-77661904D01*
X199771428Y-77423809D01*
X199714285Y-77328571D01*
X199657142Y-77280952D01*
X199542857Y-77233333D01*
X199314285Y-77233333D01*
X199200000Y-77280952D01*
X199142857Y-77328571D01*
X199085714Y-77423809D01*
X200514285Y-76852380D02*
X200628571Y-76852380D01*
X200742857Y-76900000D01*
X200800000Y-76947619D01*
X200857142Y-77042857D01*
X200914285Y-77233333D01*
X200914285Y-77471428D01*
X200857142Y-77661904D01*
X200800000Y-77757142D01*
X200742857Y-77804761D01*
X200628571Y-77852380D01*
X200514285Y-77852380D01*
X200400000Y-77804761D01*
X200342857Y-77757142D01*
X200285714Y-77661904D01*
X200228571Y-77471428D01*
X200228571Y-77233333D01*
X200285714Y-77042857D01*
X200342857Y-76947619D01*
X200400000Y-76900000D01*
X200514285Y-76852380D01*
D12*
X187431605Y-116841921D02*
X186919595Y-117529336D01*
D11*
X179004219Y-100413527D02*
X178432911Y-100425295D01*
X207823029Y-80511707D02*
X208035702Y-79981329D01*
X192954807Y-119783704D02*
X192764248Y-120322423D01*
D12*
X213382765Y-117652341D02*
X213840266Y-117309962D01*
X213611515Y-117481152D02*
X214030930Y-118041591D01*
X214047263Y-117904465D01*
X214083569Y-117794026D01*
X214139847Y-117710276D01*
X213077802Y-118754880D02*
X213459053Y-118469564D01*
X213297457Y-118174157D01*
X213279304Y-118229376D01*
X213223026Y-118313127D01*
X213032401Y-118455785D01*
X212936179Y-118486161D01*
X212878081Y-118488005D01*
X212800012Y-118463161D01*
X212700152Y-118329723D01*
X212698332Y-118247817D01*
X212716485Y-118192597D01*
X212772763Y-118108847D01*
X212963389Y-117966189D01*
X213059611Y-117935813D01*
X213117708Y-117933969D01*
D11*
X218158150Y-89427712D02*
X218652422Y-89140962D01*
D12*
X220950156Y-101691371D02*
X221804417Y-101761604D01*
D11*
X218473408Y-90009240D02*
X218976301Y-89737894D01*
X188482412Y-82422772D02*
X188168935Y-81945004D01*
D12*
X180086831Y-93300288D02*
X179274410Y-93027036D01*
X219607790Y-89336398D02*
X219693285Y-89506609D01*
X219765820Y-89576752D01*
X219816981Y-89604343D01*
X219949089Y-89644564D01*
X220089611Y-89627270D01*
X220327906Y-89507576D01*
X220366106Y-89435100D01*
X220374519Y-89377585D01*
X220361558Y-89277518D01*
X220276062Y-89107308D01*
X220203528Y-89037164D01*
X220152367Y-89009573D01*
X220071419Y-88996944D01*
X219922485Y-89071752D01*
X219884285Y-89144228D01*
X219875872Y-89201743D01*
X219888833Y-89301810D01*
X219974328Y-89472021D01*
X220046863Y-89542164D01*
X220098024Y-89569755D01*
X220178971Y-89582384D01*
X220724913Y-90000914D02*
X220767661Y-90086019D01*
X220780622Y-90186087D01*
X220772209Y-90243601D01*
X220734009Y-90316077D01*
X220636235Y-90418477D01*
X220487301Y-90493285D01*
X220346780Y-90510579D01*
X220265832Y-90497950D01*
X220214671Y-90470359D01*
X220142137Y-90400215D01*
X220099389Y-90315110D01*
X220086428Y-90215043D01*
X220094841Y-90157528D01*
X220133041Y-90085052D01*
X220230815Y-89982653D01*
X220379749Y-89907844D01*
X220520270Y-89890550D01*
X220601218Y-89903179D01*
X220652379Y-89930770D01*
X220724913Y-90000914D01*
X210177759Y-119751505D02*
X210688172Y-119494582D01*
X210432965Y-119623043D02*
X210747696Y-120248299D01*
X210787803Y-120116156D01*
X210842898Y-120013788D01*
X210912979Y-119941193D01*
X209726870Y-120762145D02*
X209897008Y-120676504D01*
X209967090Y-120603909D01*
X209994637Y-120552725D01*
X210034744Y-120420582D01*
X210017330Y-120280076D01*
X209897432Y-120041883D01*
X209824924Y-120003745D01*
X209767402Y-119995381D01*
X209667346Y-120008428D01*
X209497209Y-120094069D01*
X209427127Y-120166663D01*
X209399580Y-120217848D01*
X209387020Y-120298806D01*
X209461956Y-120447676D01*
X209534464Y-120485814D01*
X209591986Y-120494178D01*
X209692042Y-120481132D01*
X209862179Y-120395491D01*
X209932261Y-120322896D01*
X209959808Y-120271712D01*
X209972368Y-120190753D01*
M02*
