%TF.GenerationSoftware,KiCad,Pcbnew,6.0.7-1.fc35*%
%TF.CreationDate,2022-12-16T23:42:52+01:00*%
%TF.ProjectId,outer,6f757465-722e-46b6-9963-61645f706362,rev?*%
%TF.SameCoordinates,Original*%
%TF.FileFunction,Profile,NP*%
%FSLAX46Y46*%
G04 Gerber Fmt 4.6, Leading zero omitted, Abs format (unit mm)*
G04 Created by KiCad (PCBNEW 6.0.7-1.fc35) date 2022-12-16 23:42:52*
%MOMM*%
%LPD*%
G01*
G04 APERTURE LIST*
%TA.AperFunction,Profile*%
%ADD10C,0.050000*%
%TD*%
G04 APERTURE END LIST*
D10*
X223548557Y-95340041D02*
G75*
G03*
X222723632Y-92261363I-23548657J-4659959D01*
G01*
X196324767Y-123722196D02*
G75*
G03*
X195340040Y-123548562I-492367J86796D01*
G01*
X223722196Y-103675233D02*
G75*
G03*
X223548562Y-104659960I-86796J-492367D01*
G01*
X184190076Y-81936328D02*
G75*
G03*
X181936328Y-84190076I15810124J-18063872D01*
G01*
X224000000Y-99500000D02*
G75*
G03*
X224000000Y-100500000I0J-500000D01*
G01*
X195339959Y-76451452D02*
G75*
G03*
X196324848Y-76277790I492441J86852D01*
G01*
X176451452Y-104660041D02*
G75*
G03*
X176277790Y-103675152I-86852J492441D01*
G01*
X181293509Y-84956155D02*
G75*
G03*
X181936327Y-84190075I321391J383055D01*
G01*
X187566979Y-79465395D02*
G75*
G03*
X188433013Y-78965390I433021J249995D01*
G01*
X177618388Y-108678330D02*
G75*
G03*
X178965391Y-111566987I22381612J8678330D01*
G01*
X218063704Y-84190111D02*
G75*
G03*
X218706461Y-84956119I321396J-382989D01*
G01*
X176277804Y-96324767D02*
G75*
G03*
X176451438Y-95340040I86796J492367D01*
G01*
X215809924Y-118063672D02*
G75*
G03*
X218063672Y-115809924I-15810124J18063872D01*
G01*
X224000001Y-99500000D02*
G75*
G03*
X223722209Y-96324848I-23999801J-500000D01*
G01*
X220534613Y-87566985D02*
G75*
G03*
X218706460Y-84956120I-20534413J-12432915D01*
G01*
X208678330Y-122381612D02*
G75*
G03*
X211566987Y-121034609I-8678330J22381612D01*
G01*
X218706460Y-115043879D02*
G75*
G03*
X220534609Y-112433012I-18706160J15043679D01*
G01*
X191321670Y-77618388D02*
G75*
G03*
X188433013Y-78965391I8678330J-22381612D01*
G01*
X177276365Y-92261362D02*
G75*
G03*
X176451439Y-95340040I22723735J-7738638D01*
G01*
X176000000Y-100500000D02*
G75*
G03*
X176000000Y-99500000I0J500000D01*
G01*
X187566985Y-79465387D02*
G75*
G03*
X184956120Y-81293540I12432915J-20534413D01*
G01*
X181936328Y-115809924D02*
G75*
G03*
X184190076Y-118063672I18063872J15810124D01*
G01*
X215809889Y-118063704D02*
G75*
G03*
X215043881Y-118706461I-382989J-321396D01*
G01*
X221034605Y-111566996D02*
G75*
G03*
X220534610Y-112433013I-250005J-433004D01*
G01*
X220534605Y-87566979D02*
G75*
G03*
X221034610Y-88433013I249995J-433021D01*
G01*
X222723617Y-107738682D02*
G75*
G03*
X222381613Y-108678329I-171017J-469818D01*
G01*
X204659959Y-123548557D02*
G75*
G03*
X207738637Y-122723632I-4659959J23548657D01*
G01*
X218706491Y-115043845D02*
G75*
G03*
X218063673Y-115809925I-321391J-383055D01*
G01*
X179465395Y-112433021D02*
G75*
G03*
X178965390Y-111566987I-249995J433021D01*
G01*
X211566996Y-78965395D02*
G75*
G03*
X212433013Y-79465390I433004J-250005D01*
G01*
X188433004Y-121034605D02*
G75*
G03*
X187566987Y-120534610I-433004J250005D01*
G01*
X199500000Y-75999999D02*
G75*
G03*
X196324848Y-76277791I500000J-23999801D01*
G01*
X203675233Y-76277804D02*
G75*
G03*
X204659960Y-76451438I492367J-86796D01*
G01*
X222381597Y-91321626D02*
G75*
G03*
X222723633Y-92261363I171003J-469874D01*
G01*
X207738682Y-77276383D02*
G75*
G03*
X208678329Y-77618387I469818J-171017D01*
G01*
X215043845Y-81293509D02*
G75*
G03*
X215809925Y-81936327I383055J-321391D01*
G01*
X195340041Y-76451443D02*
G75*
G03*
X192261363Y-77276368I4659959J-23548657D01*
G01*
X181936296Y-115809889D02*
G75*
G03*
X181293539Y-115043881I-321396J382989D01*
G01*
X184190111Y-81936296D02*
G75*
G03*
X184956119Y-81293539I382989J321396D01*
G01*
X177618403Y-108678374D02*
G75*
G03*
X177276367Y-107738637I-171003J469874D01*
G01*
X200500000Y-124000000D02*
G75*
G03*
X199500000Y-124000000I-500000J0D01*
G01*
X212433015Y-120534613D02*
G75*
G03*
X215043880Y-118706460I-12432915J20534413D01*
G01*
X192261318Y-122723617D02*
G75*
G03*
X191321671Y-122381613I-469818J171017D01*
G01*
X184956155Y-118706491D02*
G75*
G03*
X184190075Y-118063673I-383055J321391D01*
G01*
X184956121Y-118706460D02*
G75*
G03*
X187566988Y-120534609I15043679J18706160D01*
G01*
X192261362Y-122723635D02*
G75*
G03*
X195340040Y-123548561I7738638J22723735D01*
G01*
X221034603Y-111566984D02*
G75*
G03*
X222381612Y-108678329I-21034503J11566984D01*
G01*
X212433021Y-120534605D02*
G75*
G03*
X211566987Y-121034610I-433021J-249995D01*
G01*
X177276383Y-92261318D02*
G75*
G03*
X177618387Y-91321671I171017J469818D01*
G01*
X203675152Y-76277793D02*
G75*
G03*
X200500000Y-76000001I-3675152J-23722007D01*
G01*
X196324848Y-123722207D02*
G75*
G03*
X199500000Y-123999999I3675152J23722007D01*
G01*
X199500000Y-76000000D02*
G75*
G03*
X200500000Y-76000000I500000J0D01*
G01*
X200500000Y-124000001D02*
G75*
G03*
X203675152Y-123722209I-500000J23999801D01*
G01*
X188433016Y-121034603D02*
G75*
G03*
X191321671Y-122381612I11566984J21034503D01*
G01*
X181293540Y-84956121D02*
G75*
G03*
X179465391Y-87566988I18706160J-15043679D01*
G01*
X215043879Y-81293540D02*
G75*
G03*
X212433012Y-79465391I-15043679J-18706160D01*
G01*
X222381612Y-91321670D02*
G75*
G03*
X221034609Y-88433013I-22381612J-8678330D01*
G01*
X204660041Y-123548548D02*
G75*
G03*
X203675152Y-123722210I-492441J-86852D01*
G01*
X220500000Y-100000000D02*
G75*
G03*
X220500000Y-100000000I-20500000J0D01*
G01*
X178965395Y-88433004D02*
G75*
G03*
X179465390Y-87566987I250005J433004D01*
G01*
X218063672Y-84190076D02*
G75*
G03*
X215809924Y-81936328I-18063872J-15810124D01*
G01*
X176277793Y-96324848D02*
G75*
G03*
X176000001Y-99500000I23722007J-3675152D01*
G01*
X178965397Y-88433016D02*
G75*
G03*
X177618388Y-91321671I21034503J-11566984D01*
G01*
X179465387Y-112433015D02*
G75*
G03*
X181293540Y-115043880I20534413J12432915D01*
G01*
X208678374Y-122381597D02*
G75*
G03*
X207738637Y-122723633I-469874J-171003D01*
G01*
X223548548Y-95339959D02*
G75*
G03*
X223722210Y-96324848I86852J-492441D01*
G01*
X222723635Y-107738638D02*
G75*
G03*
X223548561Y-104659960I-22723735J7738638D01*
G01*
X175999999Y-100500000D02*
G75*
G03*
X176277791Y-103675152I23999801J500000D01*
G01*
X191321626Y-77618403D02*
G75*
G03*
X192261363Y-77276367I469874J171003D01*
G01*
X207738638Y-77276365D02*
G75*
G03*
X204659960Y-76451439I-7738638J-22723735D01*
G01*
X211566984Y-78965397D02*
G75*
G03*
X208678329Y-77618388I-11566984J-21034503D01*
G01*
X176451443Y-104659959D02*
G75*
G03*
X177276368Y-107738637I23548657J4659959D01*
G01*
X223722207Y-103675152D02*
G75*
G03*
X223999999Y-100500000I-23722007J3675152D01*
G01*
M02*
