%TF.GenerationSoftware,KiCad,Pcbnew,6.0.7-1.fc35*%
%TF.CreationDate,2022-12-05T16:38:58+01:00*%
%TF.ProjectId,Ring,52696e67-2e6b-4696-9361-645f70636258,rev?*%
%TF.SameCoordinates,Original*%
%TF.FileFunction,Paste,Top*%
%TF.FilePolarity,Positive*%
%FSLAX46Y46*%
G04 Gerber Fmt 4.6, Leading zero omitted, Abs format (unit mm)*
G04 Created by KiCad (PCBNEW 6.0.7-1.fc35) date 2022-12-05 16:38:58*
%MOMM*%
%LPD*%
G01*
G04 APERTURE LIST*
%ADD10C,0.250000*%
%ADD11C,0.200000*%
G04 APERTURE END LIST*
D10*
X142580788Y-79615011D02*
X142451339Y-80070799D01*
X142125000Y-110714438D02*
X142009212Y-110254989D01*
X135525562Y-86085000D02*
X135985011Y-85969212D01*
X151470000Y-77410000D02*
X151130000Y-77740000D01*
X133450000Y-94770000D02*
X133780000Y-95110000D01*
X169170000Y-95100000D02*
X168840000Y-94760000D01*
X151140000Y-113130000D02*
X151480000Y-112800000D01*
X133440000Y-95440000D02*
X133780000Y-95110000D01*
X150810000Y-112790000D02*
X151150000Y-112460000D01*
X133110000Y-95100000D02*
X133450000Y-94770000D01*
X141995551Y-79941350D02*
X142451339Y-80070799D01*
X142125000Y-79485562D02*
X141995551Y-79941350D01*
X142584449Y-110598650D02*
X142468661Y-110139201D01*
X133110000Y-95100000D02*
X133440000Y-95440000D01*
X166754438Y-86085000D02*
X166624989Y-86540788D01*
X142009212Y-110254989D02*
X142468661Y-110139201D01*
X160155000Y-79485562D02*
X159695551Y-79601350D01*
X166754438Y-104115000D02*
X166294989Y-104230788D01*
X160155000Y-79485562D02*
X160270788Y-79945011D01*
X159699212Y-110584989D02*
X159828661Y-110129201D01*
X135655011Y-103659212D02*
X136110799Y-103788661D01*
X160155000Y-110714438D02*
X159699212Y-110584989D01*
X166624989Y-86540788D02*
X166169201Y-86411339D01*
X166754438Y-86085000D02*
X166298650Y-85955551D01*
X166754438Y-104115000D02*
X166638650Y-103655551D01*
X151480000Y-112800000D02*
X151150000Y-112460000D01*
X168830000Y-95430000D02*
X168500000Y-95090000D01*
X151140000Y-77070000D02*
X150800000Y-77400000D01*
X142125000Y-79485562D02*
X142580788Y-79615011D01*
X159695551Y-79601350D02*
X159811339Y-80060799D01*
X135641350Y-86544449D02*
X136100799Y-86428661D01*
X151140000Y-77070000D02*
X151470000Y-77410000D01*
X160155000Y-110714438D02*
X160284449Y-110258650D01*
X169170000Y-95100000D02*
X168830000Y-95430000D01*
X166638650Y-103655551D02*
X166179201Y-103771339D01*
X135525562Y-104115000D02*
X135655011Y-103659212D01*
X150800000Y-77400000D02*
X151130000Y-77740000D01*
X135981350Y-104244449D02*
X136110799Y-103788661D01*
X160284449Y-110258650D02*
X159828661Y-110129201D01*
X135525562Y-104115000D02*
X135981350Y-104244449D01*
X166298650Y-85955551D02*
X166169201Y-86411339D01*
X135985011Y-85969212D02*
X136100799Y-86428661D01*
X142125000Y-110714438D02*
X142584449Y-110598650D01*
X166294989Y-104230788D02*
X166179201Y-103771339D01*
X168840000Y-94760000D02*
X168500000Y-95090000D01*
X160270788Y-79945011D02*
X159811339Y-80060799D01*
X135525562Y-86085000D02*
X135641350Y-86544449D01*
X151140000Y-113130000D02*
X150810000Y-112790000D01*
D11*
X137097526Y-102982505D02*
X136954669Y-102925363D01*
X136883241Y-102868220D01*
X136811812Y-102753934D01*
X136811812Y-102696791D01*
X136883241Y-102582505D01*
X136954669Y-102525363D01*
X137097526Y-102468220D01*
X137383241Y-102468220D01*
X137526098Y-102525363D01*
X137597526Y-102582505D01*
X137668955Y-102696791D01*
X137668955Y-102753934D01*
X137597526Y-102868220D01*
X137526098Y-102925363D01*
X137383241Y-102982505D01*
X137097526Y-102982505D01*
X136954669Y-103039648D01*
X136883241Y-103096791D01*
X136811812Y-103211077D01*
X136811812Y-103439648D01*
X136883241Y-103553934D01*
X136954669Y-103611077D01*
X137097526Y-103668220D01*
X137383241Y-103668220D01*
X137526098Y-103611077D01*
X137597526Y-103553934D01*
X137668955Y-103439648D01*
X137668955Y-103211077D01*
X137597526Y-103096791D01*
X137526098Y-103039648D01*
X137383241Y-102982505D01*
X166247244Y-95099640D02*
X167961530Y-95099640D01*
X164611044Y-86531779D02*
X164682473Y-86474637D01*
X164825330Y-86417494D01*
X165182473Y-86417494D01*
X165325330Y-86474637D01*
X165396758Y-86531779D01*
X165468187Y-86646065D01*
X165468187Y-86760351D01*
X165396758Y-86931779D01*
X164539616Y-87617494D01*
X165468187Y-87617494D01*
X158693310Y-82016562D02*
X159550453Y-80531947D01*
X136954309Y-87618118D02*
X136097166Y-87618118D01*
X136525738Y-87618118D02*
X136525738Y-86418118D01*
X136382881Y-86589546D01*
X136240024Y-86703832D01*
X136097166Y-86760975D01*
X137882881Y-86418118D02*
X138025738Y-86418118D01*
X138168595Y-86475261D01*
X138240024Y-86532403D01*
X138311452Y-86646689D01*
X138382881Y-86875261D01*
X138382881Y-87160975D01*
X138311452Y-87389546D01*
X138240024Y-87503832D01*
X138168595Y-87560975D01*
X138025738Y-87618118D01*
X137882881Y-87618118D01*
X137740024Y-87560975D01*
X137668595Y-87503832D01*
X137597166Y-87389546D01*
X137525738Y-87160975D01*
X137525738Y-86875261D01*
X137597166Y-86646689D01*
X137668595Y-86532403D01*
X137740024Y-86475261D01*
X137882881Y-86418118D01*
X136032755Y-95100360D02*
X134318469Y-95100360D01*
X150853925Y-79592755D02*
X149996782Y-79592755D01*
X150425354Y-79592755D02*
X150425354Y-78392755D01*
X150282497Y-78564183D01*
X150139640Y-78678469D01*
X149996782Y-78735612D01*
X151425354Y-78507040D02*
X151496782Y-78449898D01*
X151639640Y-78392755D01*
X151996782Y-78392755D01*
X152139640Y-78449898D01*
X152211068Y-78507040D01*
X152282497Y-78621326D01*
X152282497Y-78735612D01*
X152211068Y-78907040D01*
X151353925Y-79592755D01*
X152282497Y-79592755D01*
X143586065Y-82016922D02*
X142728922Y-80532307D01*
X165325690Y-102867596D02*
X165325690Y-103667596D01*
X164968547Y-102410453D02*
X164611404Y-103267596D01*
X165539976Y-103267596D01*
X143586689Y-108183437D02*
X142729546Y-109668052D01*
X151426074Y-110492959D02*
X151140360Y-110492959D01*
X150997502Y-110550102D01*
X150926074Y-110607244D01*
X150783217Y-110778673D01*
X150711788Y-111007244D01*
X150711788Y-111464387D01*
X150783217Y-111578673D01*
X150854645Y-111635816D01*
X150997502Y-111692959D01*
X151283217Y-111692959D01*
X151426074Y-111635816D01*
X151497502Y-111578673D01*
X151568931Y-111464387D01*
X151568931Y-111178673D01*
X151497502Y-111064387D01*
X151426074Y-111007244D01*
X151283217Y-110950102D01*
X150997502Y-110950102D01*
X150854645Y-111007244D01*
X150783217Y-111064387D01*
X150711788Y-111178673D01*
X158693934Y-108183077D02*
X159551077Y-109667692D01*
M02*
