%TF.GenerationSoftware,KiCad,Pcbnew,6.0.7-1.fc35*%
%TF.CreationDate,2022-12-05T21:33:06+01:00*%
%TF.ProjectId,Base,42617365-2e6b-4696-9361-645f70636258,rev?*%
%TF.SameCoordinates,Original*%
%TF.FileFunction,Legend,Bot*%
%TF.FilePolarity,Positive*%
%FSLAX46Y46*%
G04 Gerber Fmt 4.6, Leading zero omitted, Abs format (unit mm)*
G04 Created by KiCad (PCBNEW 6.0.7-1.fc35) date 2022-12-05 21:33:06*
%MOMM*%
%LPD*%
G01*
G04 APERTURE LIST*
%ADD10C,0.120000*%
%ADD11C,0.200000*%
%ADD12C,0.100000*%
%ADD13C,0.500000*%
%ADD14C,0.300000*%
%ADD15C,0.150000*%
G04 APERTURE END LIST*
D10*
X142261752Y-96150000D02*
X133161752Y-94250000D01*
X146061752Y-96150000D02*
X144161752Y-105250000D01*
X146361752Y-91200000D02*
X150711752Y-87700000D01*
X135947001Y-95394650D02*
G75*
G03*
X137861752Y-99625000I8214699J1169650D01*
G01*
X146361752Y-97350000D02*
X146461752Y-96550000D01*
X150711752Y-100800000D02*
X146361752Y-97350000D01*
X150481835Y-99670782D02*
G75*
G03*
X152411752Y-95375000I-6320135J5420782D01*
G01*
X162761752Y-99610000D02*
X165161752Y-99610000D01*
X152376502Y-93055350D02*
G75*
G03*
X150461752Y-88825000I-8214702J-1169650D01*
G01*
D11*
X126811752Y-101510000D02*
G75*
G03*
X126811752Y-101510000I-1200000J0D01*
G01*
D10*
X142992101Y-86010238D02*
G75*
G03*
X138761752Y-87925000I1169699J-8214762D01*
G01*
X138740993Y-100570055D02*
G75*
G03*
X143036752Y-102500000I5420807J6320055D01*
G01*
X151180567Y-92801259D02*
G75*
G03*
X149786752Y-89800000I-6993867J-1423741D01*
G01*
X137192936Y-95648741D02*
G75*
G03*
X138586752Y-98650000I6993864J1423741D01*
G01*
X150711752Y-87700000D02*
X147261752Y-92050000D01*
X137841670Y-88829218D02*
G75*
G03*
X135911752Y-93125000I6320130J-5420782D01*
G01*
D11*
X158691752Y-75820000D02*
G75*
G03*
X158691752Y-75820000I-1200000J0D01*
G01*
D10*
X142261752Y-96150000D02*
X144161752Y-94250000D01*
X157491752Y-74620000D02*
X157491752Y-77020000D01*
X144161752Y-83250000D02*
X146061752Y-92350000D01*
D12*
G36*
X141861752Y-96550000D02*
G01*
X141961752Y-97300000D01*
X137611752Y-100800000D01*
X141061752Y-96450000D01*
X141861752Y-96550000D01*
G37*
X141861752Y-96550000D02*
X141961752Y-97300000D01*
X137611752Y-100800000D01*
X141061752Y-96450000D01*
X141861752Y-96550000D01*
D10*
X145610499Y-101218846D02*
G75*
G03*
X148611752Y-99825000I-1423799J6993846D01*
G01*
X148585463Y-88626640D02*
G75*
G03*
X145486752Y-87225000I-4398663J-5598360D01*
G01*
X163961752Y-98410000D02*
X163961752Y-100810000D01*
X142763005Y-87231156D02*
G75*
G03*
X139761752Y-88625000I1423795J-6993844D01*
G01*
X139788039Y-99823362D02*
G75*
G03*
X142886752Y-101225000I4398661J5598362D01*
G01*
X141111752Y-92050000D02*
X141861752Y-91950000D01*
X137611752Y-87700000D02*
X141961752Y-91150000D01*
X124411752Y-101510000D02*
X126811752Y-101510000D01*
X129651752Y-75820000D02*
X132051752Y-75820000D01*
X147211752Y-96450000D02*
X150711752Y-100800000D01*
X141961752Y-97300000D02*
X137611752Y-100800000D01*
X133161752Y-94250000D02*
X142261752Y-92350000D01*
X146061752Y-96150000D02*
X144161752Y-94250000D01*
D11*
X132051752Y-75820000D02*
G75*
G03*
X132051752Y-75820000I-1200000J0D01*
G01*
D10*
X141961752Y-97300000D02*
X141861752Y-96550000D01*
X141961752Y-91150000D02*
X141861752Y-91950000D01*
X141061752Y-96450000D02*
X141861752Y-96550000D01*
X142261752Y-92350000D02*
X144161752Y-83250000D01*
X141111752Y-92050000D02*
X137611752Y-87700000D01*
X144161752Y-105250000D02*
X142261752Y-96150000D01*
X149785088Y-98623693D02*
G75*
G03*
X151186752Y-95525000I-5598288J4398693D01*
G01*
X145331397Y-102439714D02*
G75*
G03*
X149561752Y-100525000I-1169597J8214714D01*
G01*
X142261752Y-96150000D02*
X144161752Y-94250000D01*
D11*
X165161752Y-99610000D02*
G75*
G03*
X165161752Y-99610000I-1200000J0D01*
G01*
D10*
X146061752Y-96150000D02*
X144161752Y-94250000D01*
D12*
G36*
X150711752Y-100800000D02*
G01*
X146361752Y-97350000D01*
X146461752Y-96550000D01*
X147211752Y-96450000D01*
X150711752Y-100800000D01*
G37*
X150711752Y-100800000D02*
X146361752Y-97350000D01*
X146461752Y-96550000D01*
X147211752Y-96450000D01*
X150711752Y-100800000D01*
D10*
X137611752Y-100800000D02*
X141061752Y-96450000D01*
X146061752Y-92350000D02*
X144161752Y-94250000D01*
X156291752Y-75820000D02*
X158691752Y-75820000D01*
X147211752Y-96450000D02*
X146461752Y-96550000D01*
X138588416Y-89826308D02*
G75*
G03*
X137186752Y-92925000I5598284J-4398692D01*
G01*
D12*
G36*
X142261752Y-96150000D02*
G01*
X133161752Y-94250000D01*
X144161752Y-94250000D01*
X142261752Y-96150000D01*
G37*
X142261752Y-96150000D02*
X133161752Y-94250000D01*
X144161752Y-94250000D01*
X142261752Y-96150000D01*
D10*
X125611752Y-100310000D02*
X125611752Y-102710000D01*
D12*
G36*
X155161752Y-94250000D02*
G01*
X144161752Y-94250000D01*
X146061752Y-92350000D01*
X155161752Y-94250000D01*
G37*
X155161752Y-94250000D02*
X144161752Y-94250000D01*
X146061752Y-92350000D01*
X155161752Y-94250000D01*
D10*
X142261752Y-92350000D02*
X144161752Y-94250000D01*
D12*
G36*
X146061752Y-96150000D02*
G01*
X144161752Y-105250000D01*
X144161752Y-94250000D01*
X146061752Y-96150000D01*
G37*
X146061752Y-96150000D02*
X144161752Y-105250000D01*
X144161752Y-94250000D01*
X146061752Y-96150000D01*
D10*
X142261752Y-92350000D02*
X144161752Y-94250000D01*
D13*
X165420000Y-94240000D02*
G75*
G03*
X165420000Y-94240000I-21248248J0D01*
G01*
D10*
X146061752Y-92350000D02*
X144161752Y-94250000D01*
X149582509Y-87929947D02*
G75*
G03*
X145286752Y-86000000I-5420809J-6320053D01*
G01*
D12*
G36*
X147261752Y-92050000D02*
G01*
X146461752Y-91950000D01*
X146361752Y-91200000D01*
X150711752Y-87700000D01*
X147261752Y-92050000D01*
G37*
X147261752Y-92050000D02*
X146461752Y-91950000D01*
X146361752Y-91200000D01*
X150711752Y-87700000D01*
X147261752Y-92050000D01*
D10*
X155161752Y-94250000D02*
X146061752Y-96150000D01*
D12*
G36*
X141961752Y-91150000D02*
G01*
X141861752Y-91950000D01*
X141111752Y-92050000D01*
X137611752Y-87700000D01*
X141961752Y-91150000D01*
G37*
X141961752Y-91150000D02*
X141861752Y-91950000D01*
X141111752Y-92050000D01*
X137611752Y-87700000D01*
X141961752Y-91150000D01*
D10*
X130851752Y-74620000D02*
X130851752Y-77020000D01*
D12*
G36*
X144161752Y-94250000D02*
G01*
X142261752Y-92350000D01*
X144161752Y-83250000D01*
X144161752Y-94250000D01*
G37*
X144161752Y-94250000D02*
X142261752Y-92350000D01*
X144161752Y-83250000D01*
X144161752Y-94250000D01*
D10*
X147261752Y-92050000D02*
X146461752Y-91950000D01*
X146061752Y-92350000D02*
X155161752Y-94250000D01*
X146361752Y-91200000D02*
X146461752Y-91950000D01*
D14*
X131707466Y-94081428D02*
X130874132Y-94081428D01*
X130516990Y-95390952D02*
X131707466Y-95390952D01*
X131707466Y-92890952D01*
X130516990Y-92890952D01*
D15*
X136939290Y-102811167D02*
X136787767Y-102760660D01*
X136585736Y-102558629D01*
X136535229Y-102407106D01*
X136585736Y-102255583D01*
X136636244Y-102205076D01*
X136787767Y-102154568D01*
X136939290Y-102205076D01*
X137090813Y-102356599D01*
X137242335Y-102407106D01*
X137393858Y-102356599D01*
X137444366Y-102306091D01*
X137494874Y-102154568D01*
X137444366Y-102003045D01*
X137292843Y-101851522D01*
X137141320Y-101801015D01*
X135626091Y-101497969D02*
X135676599Y-101649492D01*
X135878629Y-101851522D01*
X136030152Y-101902030D01*
X136181675Y-101851522D01*
X136585736Y-101447461D01*
X136636244Y-101295938D01*
X136585736Y-101144416D01*
X136383706Y-100942385D01*
X136232183Y-100891877D01*
X136080660Y-100942385D01*
X135979645Y-101043400D01*
X136383706Y-101649492D01*
X152646904Y-87355583D02*
X151939797Y-88062690D01*
X152545889Y-87456599D02*
X152545889Y-87355583D01*
X152495381Y-87204061D01*
X152343858Y-87052538D01*
X152192335Y-87002030D01*
X152040813Y-87052538D01*
X151485229Y-87608122D01*
X151788274Y-86496954D02*
X150879137Y-87002030D01*
X151182183Y-86294923D01*
X150475076Y-86597969D01*
X150980152Y-85688832D01*
D14*
X144886037Y-108251904D02*
X144528894Y-108370952D01*
X143933656Y-108370952D01*
X143695561Y-108251904D01*
X143576513Y-108132857D01*
X143457466Y-107894761D01*
X143457466Y-107656666D01*
X143576513Y-107418571D01*
X143695561Y-107299523D01*
X143933656Y-107180476D01*
X144409847Y-107061428D01*
X144647942Y-106942380D01*
X144766990Y-106823333D01*
X144886037Y-106585238D01*
X144886037Y-106347142D01*
X144766990Y-106109047D01*
X144647942Y-105990000D01*
X144409847Y-105870952D01*
X143814609Y-105870952D01*
X143457466Y-105990000D01*
D11*
X153893333Y-77262380D02*
X154026666Y-77214761D01*
X154093333Y-77119523D01*
X154093333Y-76262380D01*
X153360000Y-77262380D02*
X153360000Y-76595714D01*
X153360000Y-76262380D02*
X153426666Y-76310000D01*
X153360000Y-76357619D01*
X153293333Y-76310000D01*
X153360000Y-76262380D01*
X153360000Y-76357619D01*
X152693333Y-77262380D02*
X152693333Y-76262380D01*
X152693333Y-76643333D02*
X152560000Y-76595714D01*
X152293333Y-76595714D01*
X152160000Y-76643333D01*
X152093333Y-76690952D01*
X152026666Y-76786190D01*
X152026666Y-77071904D01*
X152093333Y-77167142D01*
X152160000Y-77214761D01*
X152293333Y-77262380D01*
X152560000Y-77262380D01*
X152693333Y-77214761D01*
X151426666Y-77262380D02*
X151426666Y-76595714D01*
X151426666Y-76786190D02*
X151360000Y-76690952D01*
X151293333Y-76643333D01*
X151160000Y-76595714D01*
X151026666Y-76595714D01*
X149960000Y-77262380D02*
X149960000Y-76738571D01*
X150026666Y-76643333D01*
X150160000Y-76595714D01*
X150426666Y-76595714D01*
X150560000Y-76643333D01*
X149960000Y-77214761D02*
X150093333Y-77262380D01*
X150426666Y-77262380D01*
X150560000Y-77214761D01*
X150626666Y-77119523D01*
X150626666Y-77024285D01*
X150560000Y-76929047D01*
X150426666Y-76881428D01*
X150093333Y-76881428D01*
X149960000Y-76833809D01*
X148226666Y-76595714D02*
X148226666Y-77262380D01*
X148226666Y-76690952D02*
X148160000Y-76643333D01*
X148026666Y-76595714D01*
X147826666Y-76595714D01*
X147693333Y-76643333D01*
X147626666Y-76738571D01*
X147626666Y-77262380D01*
X146360000Y-77262380D02*
X146360000Y-76738571D01*
X146426666Y-76643333D01*
X146560000Y-76595714D01*
X146826666Y-76595714D01*
X146960000Y-76643333D01*
X146360000Y-77214761D02*
X146493333Y-77262380D01*
X146826666Y-77262380D01*
X146960000Y-77214761D01*
X147026666Y-77119523D01*
X147026666Y-77024285D01*
X146960000Y-76929047D01*
X146826666Y-76881428D01*
X146493333Y-76881428D01*
X146360000Y-76833809D01*
X145826666Y-76595714D02*
X145493333Y-77262380D01*
X145160000Y-76595714D01*
X144626666Y-77262380D02*
X144626666Y-76595714D01*
X144626666Y-76262380D02*
X144693333Y-76310000D01*
X144626666Y-76357619D01*
X144560000Y-76310000D01*
X144626666Y-76262380D01*
X144626666Y-76357619D01*
X143360000Y-76595714D02*
X143360000Y-77405238D01*
X143426666Y-77500476D01*
X143493333Y-77548095D01*
X143626666Y-77595714D01*
X143826666Y-77595714D01*
X143960000Y-77548095D01*
X143360000Y-77214761D02*
X143493333Y-77262380D01*
X143760000Y-77262380D01*
X143893333Y-77214761D01*
X143960000Y-77167142D01*
X144026666Y-77071904D01*
X144026666Y-76786190D01*
X143960000Y-76690952D01*
X143893333Y-76643333D01*
X143760000Y-76595714D01*
X143493333Y-76595714D01*
X143360000Y-76643333D01*
X142093333Y-77262380D02*
X142093333Y-76738571D01*
X142160000Y-76643333D01*
X142293333Y-76595714D01*
X142560000Y-76595714D01*
X142693333Y-76643333D01*
X142093333Y-77214761D02*
X142226666Y-77262380D01*
X142560000Y-77262380D01*
X142693333Y-77214761D01*
X142760000Y-77119523D01*
X142760000Y-77024285D01*
X142693333Y-76929047D01*
X142560000Y-76881428D01*
X142226666Y-76881428D01*
X142093333Y-76833809D01*
X141626666Y-76595714D02*
X141093333Y-76595714D01*
X141426666Y-76262380D02*
X141426666Y-77119523D01*
X141360000Y-77214761D01*
X141226666Y-77262380D01*
X141093333Y-77262380D01*
X140426666Y-77262380D02*
X140560000Y-77214761D01*
X140626666Y-77167142D01*
X140693333Y-77071904D01*
X140693333Y-76786190D01*
X140626666Y-76690952D01*
X140560000Y-76643333D01*
X140426666Y-76595714D01*
X140226666Y-76595714D01*
X140093333Y-76643333D01*
X140026666Y-76690952D01*
X139960000Y-76786190D01*
X139960000Y-77071904D01*
X140026666Y-77167142D01*
X140093333Y-77214761D01*
X140226666Y-77262380D01*
X140426666Y-77262380D01*
X139360000Y-77262380D02*
X139360000Y-76595714D01*
X139360000Y-76786190D02*
X139293333Y-76690952D01*
X139226666Y-76643333D01*
X139093333Y-76595714D01*
X138960000Y-76595714D01*
X137426666Y-77262380D02*
X137426666Y-76262380D01*
X136960000Y-76976666D01*
X136493333Y-76262380D01*
X136493333Y-77262380D01*
X135826666Y-77262380D02*
X135826666Y-76262380D01*
X135693333Y-76881428D02*
X135293333Y-77262380D01*
X135293333Y-76595714D02*
X135826666Y-76976666D01*
X134493333Y-76690952D02*
X134626666Y-76643333D01*
X134693333Y-76595714D01*
X134760000Y-76500476D01*
X134760000Y-76452857D01*
X134693333Y-76357619D01*
X134626666Y-76310000D01*
X134493333Y-76262380D01*
X134226666Y-76262380D01*
X134093333Y-76310000D01*
X134026666Y-76357619D01*
X133960000Y-76452857D01*
X133960000Y-76500476D01*
X134026666Y-76595714D01*
X134093333Y-76643333D01*
X134226666Y-76690952D01*
X134493333Y-76690952D01*
X134626666Y-76738571D01*
X134693333Y-76786190D01*
X134760000Y-76881428D01*
X134760000Y-77071904D01*
X134693333Y-77167142D01*
X134626666Y-77214761D01*
X134493333Y-77262380D01*
X134226666Y-77262380D01*
X134093333Y-77214761D01*
X134026666Y-77167142D01*
X133960000Y-77071904D01*
X133960000Y-76881428D01*
X134026666Y-76786190D01*
X134093333Y-76738571D01*
X134226666Y-76690952D01*
D15*
X152823935Y-101371446D02*
X152773427Y-101522969D01*
X152571396Y-101725000D01*
X152419874Y-101775507D01*
X152268351Y-101724999D01*
X152217843Y-101674492D01*
X152167335Y-101522969D01*
X152217843Y-101371446D01*
X152369366Y-101219923D01*
X152419874Y-101068400D01*
X152369366Y-100916877D01*
X152318858Y-100866370D01*
X152167335Y-100815862D01*
X152015813Y-100866370D01*
X151864290Y-101017893D01*
X151813782Y-101169416D01*
X151359213Y-101522969D02*
X151864290Y-102432106D01*
X151157183Y-102129061D01*
X151460229Y-102836167D01*
X150551091Y-102331091D01*
D14*
X144876037Y-82380952D02*
X144876037Y-79880952D01*
X143447466Y-82380952D01*
X143447466Y-79880952D01*
X158223180Y-92870952D02*
X157627942Y-95370952D01*
X157151752Y-93585238D01*
X156675561Y-95370952D01*
X156080323Y-92870952D01*
D15*
X137166320Y-85865862D02*
X137873427Y-86572969D01*
X137267335Y-85966877D02*
X137166320Y-85966877D01*
X137014797Y-86017385D01*
X136863274Y-86168908D01*
X136812767Y-86320431D01*
X136863274Y-86471954D01*
X137418858Y-87027538D01*
X136459213Y-87886167D02*
X136610736Y-87835660D01*
X136812767Y-87633629D01*
X136863274Y-87482106D01*
X136812767Y-87330583D01*
X136408706Y-86926522D01*
X136257183Y-86876015D01*
X136105660Y-86926522D01*
X135903629Y-87128553D01*
X135853122Y-87280076D01*
X135903629Y-87431599D01*
X136004645Y-87532614D01*
X136610736Y-87128553D01*
%TO.C,G\u002A\u002A\u002A*%
G36*
X147363555Y-110561160D02*
G01*
X147378603Y-110588814D01*
X147393160Y-110609816D01*
X147404091Y-110626674D01*
X147413826Y-110653402D01*
X147420964Y-110676324D01*
X147434397Y-110702810D01*
X147435007Y-110703748D01*
X147444433Y-110721961D01*
X147445519Y-110732295D01*
X147445120Y-110732946D01*
X147449241Y-110743354D01*
X147462963Y-110759644D01*
X147476932Y-110778682D01*
X147485359Y-110810532D01*
X147488326Y-110830786D01*
X147499392Y-110839024D01*
X147507178Y-110841953D01*
X147513425Y-110856341D01*
X147516692Y-110870117D01*
X147526811Y-110895726D01*
X147540925Y-110925834D01*
X147556094Y-110954224D01*
X147569378Y-110974677D01*
X147570077Y-110975664D01*
X147577003Y-110992195D01*
X147583520Y-111016777D01*
X147593381Y-111048173D01*
X147607989Y-111078691D01*
X147609756Y-111081675D01*
X147621066Y-111104918D01*
X147625690Y-111122129D01*
X147626965Y-111128825D01*
X147638412Y-111141277D01*
X147642667Y-111144638D01*
X147652892Y-111162236D01*
X147661796Y-111188500D01*
X147665371Y-111201286D01*
X147674096Y-111224720D01*
X147681818Y-111236626D01*
X147687432Y-111244314D01*
X147691178Y-111263377D01*
X147692942Y-111277406D01*
X147700443Y-111293607D01*
X147704950Y-111306087D01*
X147701133Y-111332774D01*
X147700474Y-111335170D01*
X147697274Y-111356166D01*
X147700106Y-111367341D01*
X147705908Y-111374388D01*
X147711996Y-111395080D01*
X147712879Y-111418773D01*
X147707521Y-111435906D01*
X147703782Y-111446478D01*
X147716719Y-111453111D01*
X147727602Y-111456950D01*
X147730831Y-111465199D01*
X147722993Y-111483043D01*
X147714263Y-111504584D01*
X147709912Y-111526648D01*
X147709762Y-111529151D01*
X147703576Y-111550881D01*
X147691144Y-111575990D01*
X147688575Y-111580344D01*
X147677121Y-111604075D01*
X147672468Y-111621523D01*
X147672215Y-111623970D01*
X147662740Y-111642078D01*
X147643308Y-111664346D01*
X147619049Y-111686087D01*
X147595091Y-111702609D01*
X147576564Y-111709222D01*
X147562217Y-111711020D01*
X147541492Y-111719129D01*
X147537480Y-111721194D01*
X147513980Y-111725453D01*
X147479419Y-111725856D01*
X147439271Y-111722935D01*
X147399014Y-111717222D01*
X147364122Y-111709251D01*
X147340074Y-111699553D01*
X147336156Y-111697202D01*
X147312838Y-111685696D01*
X147295808Y-111681013D01*
X147289133Y-111679840D01*
X147276890Y-111669318D01*
X147274818Y-111666065D01*
X147259862Y-111653119D01*
X147236760Y-111638913D01*
X147219650Y-111627979D01*
X147192370Y-111606410D01*
X147162272Y-111579517D01*
X147132826Y-111550723D01*
X147107499Y-111523452D01*
X147089759Y-111501130D01*
X147083075Y-111487179D01*
X147080138Y-111478809D01*
X147065609Y-111468874D01*
X147063010Y-111467899D01*
X147048377Y-111453398D01*
X147036152Y-111427973D01*
X147022582Y-111400607D01*
X146989086Y-111368428D01*
X146979367Y-111361502D01*
X146961412Y-111345162D01*
X146954529Y-111333023D01*
X146954593Y-111312773D01*
X146949674Y-111287195D01*
X146938066Y-111278729D01*
X146928913Y-111274151D01*
X146924033Y-111255340D01*
X146927190Y-111238926D01*
X146940405Y-111232080D01*
X146944947Y-111232209D01*
X146970441Y-111235991D01*
X146990651Y-111243306D01*
X146998876Y-111251885D01*
X147000818Y-111259703D01*
X147010953Y-111278988D01*
X147025813Y-111300540D01*
X147040896Y-111318095D01*
X147051701Y-111325390D01*
X147056188Y-111326908D01*
X147071871Y-111338674D01*
X147091176Y-111358250D01*
X147100068Y-111367582D01*
X147120774Y-111384351D01*
X147136715Y-111390994D01*
X147138380Y-111391104D01*
X147154293Y-111401941D01*
X147169959Y-111428974D01*
X147172569Y-111434540D01*
X147191747Y-111463018D01*
X147214206Y-111482768D01*
X147216827Y-111484289D01*
X147234708Y-111496708D01*
X147242059Y-111505598D01*
X147247118Y-111510058D01*
X147264005Y-111512615D01*
X147278964Y-111516107D01*
X147295873Y-111534522D01*
X147297359Y-111537350D01*
X147314376Y-111556118D01*
X147338722Y-111572026D01*
X147344324Y-111574823D01*
X147365080Y-111587952D01*
X147375426Y-111599133D01*
X147379393Y-111603265D01*
X147399352Y-111609268D01*
X147432706Y-111612196D01*
X147449246Y-111612466D01*
X147476235Y-111610368D01*
X147495779Y-111602623D01*
X147515565Y-111586881D01*
X147521875Y-111580817D01*
X147539736Y-111559923D01*
X147548762Y-111543331D01*
X147551057Y-111523206D01*
X147551432Y-111491743D01*
X147549824Y-111457702D01*
X147546591Y-111428172D01*
X147542088Y-111410242D01*
X147540750Y-111407283D01*
X147534217Y-111385988D01*
X147528415Y-111358250D01*
X147526306Y-111346167D01*
X147517765Y-111306344D01*
X147508298Y-111272903D01*
X147499173Y-111249879D01*
X147491658Y-111241307D01*
X147487619Y-111234774D01*
X147489397Y-111217135D01*
X147491384Y-111201515D01*
X147486495Y-111198506D01*
X147485610Y-111198899D01*
X147477753Y-111192901D01*
X147471001Y-111174341D01*
X147462480Y-111147607D01*
X147448495Y-111118355D01*
X147441844Y-111108212D01*
X147430976Y-111098823D01*
X147420733Y-111103542D01*
X147411871Y-111109853D01*
X147411258Y-111100976D01*
X147411111Y-111084899D01*
X147406535Y-111062536D01*
X147399373Y-111043521D01*
X147391882Y-111035488D01*
X147386038Y-111030785D01*
X147378863Y-111014438D01*
X147377060Y-111008329D01*
X147371563Y-110999740D01*
X147363882Y-111007421D01*
X147358187Y-111014913D01*
X147354703Y-111015105D01*
X147357492Y-111004798D01*
X147366077Y-110988169D01*
X147370172Y-110980791D01*
X147371241Y-110967199D01*
X147357892Y-110953213D01*
X147342821Y-110935193D01*
X147331413Y-110909242D01*
X147321973Y-110881188D01*
X147306730Y-110863869D01*
X147286300Y-110863236D01*
X147277541Y-110865441D01*
X147271143Y-110861600D01*
X147273864Y-110844344D01*
X147275693Y-110827489D01*
X147265783Y-110805220D01*
X147256552Y-110789929D01*
X147251473Y-110765383D01*
X147247364Y-110741408D01*
X147235427Y-110725128D01*
X147218867Y-110723323D01*
X147217297Y-110723720D01*
X147208089Y-110715890D01*
X147201311Y-110690632D01*
X147199852Y-110682847D01*
X147192911Y-110660648D01*
X147185007Y-110650030D01*
X147184100Y-110649614D01*
X147176206Y-110637275D01*
X147170960Y-110614943D01*
X147170860Y-110614091D01*
X147165629Y-110586523D01*
X147158473Y-110577165D01*
X147149077Y-110585595D01*
X147147904Y-110587377D01*
X147141133Y-110590262D01*
X147134944Y-110575969D01*
X147132180Y-110567081D01*
X147126829Y-110553683D01*
X147139208Y-110553683D01*
X147143886Y-110558361D01*
X147148563Y-110553683D01*
X147143886Y-110549005D01*
X147139208Y-110553683D01*
X147126829Y-110553683D01*
X147119270Y-110534756D01*
X147102799Y-110501673D01*
X147086024Y-110473968D01*
X147072203Y-110457778D01*
X147072150Y-110457739D01*
X147059129Y-110440577D01*
X147049845Y-110415817D01*
X147047902Y-110409204D01*
X147033593Y-110382225D01*
X147012653Y-110357357D01*
X147007817Y-110352711D01*
X146983205Y-110324715D01*
X146963693Y-110296409D01*
X146960927Y-110291747D01*
X146944485Y-110271946D01*
X146929453Y-110265052D01*
X146928023Y-110265085D01*
X146910308Y-110258542D01*
X146890292Y-110243106D01*
X146886537Y-110239471D01*
X146865273Y-110225601D01*
X146843263Y-110225720D01*
X146838888Y-110226728D01*
X146822332Y-110226047D01*
X146814576Y-110212583D01*
X146809723Y-110201316D01*
X146799767Y-110193499D01*
X146791273Y-110190872D01*
X146775131Y-110179515D01*
X146752897Y-110159672D01*
X146726698Y-110139268D01*
X146706555Y-110126923D01*
X146696123Y-110125153D01*
X146692896Y-110125894D01*
X146690147Y-110115537D01*
X146690040Y-110113429D01*
X146682226Y-110102963D01*
X146659742Y-110099647D01*
X146640997Y-110098821D01*
X146636631Y-110095203D01*
X146646352Y-110086451D01*
X146664235Y-110078661D01*
X146692122Y-110081800D01*
X146692783Y-110081988D01*
X146715135Y-110086149D01*
X146729133Y-110084945D01*
X146732369Y-110083846D01*
X146734817Y-110091063D01*
X146734961Y-110096374D01*
X146744923Y-110106898D01*
X146753234Y-110106084D01*
X146751309Y-110091696D01*
X146749013Y-110078528D01*
X146754042Y-110072288D01*
X146765306Y-110078893D01*
X146779321Y-110097606D01*
X146781399Y-110101110D01*
X146788920Y-110111546D01*
X146789492Y-110107544D01*
X146789805Y-110096143D01*
X146804536Y-110088833D01*
X146816863Y-110084661D01*
X146828684Y-110072726D01*
X146829011Y-110064888D01*
X146818022Y-110065301D01*
X146809670Y-110067117D01*
X146798088Y-110063094D01*
X146797515Y-110058377D01*
X146807144Y-110049763D01*
X146808044Y-110049400D01*
X146819140Y-110039964D01*
X146819854Y-110030179D01*
X146809429Y-110027440D01*
X146802178Y-110024545D01*
X146797735Y-110009502D01*
X146796326Y-110001797D01*
X146785520Y-109979409D01*
X146767548Y-109955053D01*
X146757532Y-109943291D01*
X146743408Y-109924646D01*
X146738251Y-109914520D01*
X146738691Y-109910664D01*
X146734826Y-109891086D01*
X146718213Y-109884769D01*
X146703623Y-109880892D01*
X146700671Y-109870451D01*
X146713891Y-109859950D01*
X146714079Y-109859877D01*
X146719154Y-109853663D01*
X146711805Y-109841894D01*
X146690503Y-109822093D01*
X146676437Y-109809091D01*
X146659382Y-109789670D01*
X146652725Y-109776453D01*
X146651104Y-109770264D01*
X146638692Y-109763149D01*
X146632230Y-109762045D01*
X146624659Y-109753385D01*
X146624430Y-109751786D01*
X146616551Y-109737398D01*
X146600934Y-109718302D01*
X146599199Y-109716401D01*
X146584743Y-109694454D01*
X146581447Y-109676227D01*
X146581966Y-109674028D01*
X146580521Y-109663841D01*
X146566462Y-109665572D01*
X146557580Y-109667824D01*
X146550419Y-109664083D01*
X146552014Y-109646682D01*
X146551485Y-109624847D01*
X146536379Y-109608315D01*
X146516489Y-109588808D01*
X146496089Y-109556776D01*
X146480918Y-109521043D01*
X146474972Y-109489355D01*
X146475759Y-109476270D01*
X146486708Y-109447989D01*
X146511321Y-109431625D01*
X146550587Y-109426353D01*
X146574993Y-109427503D01*
X146596737Y-109433907D01*
X146612381Y-109448151D01*
X146627672Y-109462268D01*
X146641126Y-109466082D01*
X146647332Y-109466467D01*
X146652725Y-109477924D01*
X146653960Y-109488029D01*
X146667133Y-109519122D01*
X146693082Y-109556108D01*
X146729764Y-109595860D01*
X146751650Y-109618315D01*
X146768069Y-109637681D01*
X146774346Y-109648653D01*
X146775984Y-109653761D01*
X146788379Y-109663622D01*
X146794873Y-109667558D01*
X146802412Y-109681647D01*
X146802434Y-109682208D01*
X146809618Y-109697017D01*
X146825801Y-109714623D01*
X146825977Y-109714776D01*
X146842377Y-109735686D01*
X146849190Y-109757408D01*
X146851894Y-109772597D01*
X146861202Y-109784467D01*
X146867049Y-109789075D01*
X146880677Y-109806957D01*
X146895604Y-109832610D01*
X146903986Y-109847462D01*
X146918721Y-109866597D01*
X146929743Y-109871635D01*
X146939415Y-109875051D01*
X146947256Y-109893372D01*
X146957508Y-109916863D01*
X146975949Y-109939554D01*
X146976420Y-109939967D01*
X146992297Y-109958005D01*
X146998876Y-109973584D01*
X146999909Y-109980093D01*
X147007958Y-109987679D01*
X147014279Y-109992672D01*
X147026490Y-110010672D01*
X147040500Y-110037272D01*
X147058686Y-110069781D01*
X147080711Y-110099396D01*
X147102146Y-110120174D01*
X147119423Y-110128011D01*
X147125304Y-110129983D01*
X147138635Y-110141353D01*
X147145599Y-110147093D01*
X147170427Y-110159032D01*
X147206270Y-110171011D01*
X147248187Y-110181489D01*
X147291234Y-110188925D01*
X147306006Y-110191328D01*
X147327303Y-110197236D01*
X147335672Y-110203427D01*
X147337251Y-110207462D01*
X147349705Y-110212210D01*
X147356203Y-110210879D01*
X147363882Y-110200515D01*
X147364805Y-110195181D01*
X147370898Y-110198489D01*
X147371194Y-110198871D01*
X147385175Y-110204988D01*
X147408177Y-110206675D01*
X147425141Y-110205757D01*
X147443422Y-110203871D01*
X147447877Y-110200833D01*
X147441662Y-110195601D01*
X147432801Y-110184616D01*
X147424401Y-110163498D01*
X147422004Y-110147478D01*
X147428638Y-110137261D01*
X147449387Y-110129854D01*
X147452445Y-110129050D01*
X147478136Y-110126253D01*
X147496037Y-110134564D01*
X147509319Y-110142764D01*
X147533854Y-110150176D01*
X147549634Y-110152961D01*
X147566771Y-110159032D01*
X147573416Y-110161390D01*
X147592102Y-110159784D01*
X147601016Y-110158447D01*
X147606980Y-110168068D01*
X147610786Y-110175221D01*
X147629357Y-110185549D01*
X147659569Y-110193864D01*
X147697150Y-110198714D01*
X147719548Y-110204198D01*
X147743859Y-110216293D01*
X147766069Y-110231961D01*
X147782533Y-110248188D01*
X147789609Y-110261960D01*
X147783651Y-110270262D01*
X147781333Y-110272233D01*
X147776077Y-110287751D01*
X147773721Y-110312748D01*
X147773106Y-110328083D01*
X147769523Y-110342679D01*
X147759888Y-110352299D01*
X147741045Y-110358480D01*
X147709838Y-110362760D01*
X147663112Y-110366678D01*
X147662123Y-110366754D01*
X147625959Y-110369875D01*
X147581026Y-110374201D01*
X147536814Y-110378819D01*
X147527989Y-110379730D01*
X147491979Y-110382280D01*
X147463452Y-110382512D01*
X147447937Y-110380333D01*
X147442103Y-110378161D01*
X147419225Y-110372459D01*
X147389866Y-110367257D01*
X147383458Y-110366358D01*
X147358238Y-110364475D01*
X147343785Y-110368574D01*
X147333821Y-110380094D01*
X147327693Y-110388797D01*
X147316682Y-110398452D01*
X147312027Y-110395350D01*
X147317499Y-110379603D01*
X147323298Y-110362720D01*
X147316658Y-110349198D01*
X147307919Y-110343450D01*
X147300979Y-110350202D01*
X147297209Y-110355669D01*
X147281566Y-110361897D01*
X147272197Y-110363899D01*
X147277343Y-110372798D01*
X147282861Y-110382834D01*
X147273626Y-110394387D01*
X147272133Y-110395510D01*
X147265557Y-110404037D01*
X147269243Y-110415624D01*
X147284573Y-110435456D01*
X147290006Y-110441538D01*
X147309090Y-110457329D01*
X147323302Y-110460785D01*
X147329102Y-110459697D01*
X147332986Y-110466860D01*
X147330351Y-110488336D01*
X147328418Y-110512623D01*
X147334782Y-110520939D01*
X147337577Y-110521849D01*
X147348925Y-110534078D01*
X147359856Y-110553683D01*
X147361160Y-110556022D01*
X147363555Y-110561160D01*
G37*
G36*
X145667287Y-109813044D02*
G01*
X145668750Y-109815858D01*
X145661050Y-109819281D01*
X145656097Y-109818606D01*
X145654813Y-109813044D01*
X145656184Y-109811925D01*
X145667287Y-109813044D01*
G37*
G36*
X140448596Y-110988711D02*
G01*
X140447292Y-111001580D01*
X140443878Y-111000405D01*
X140442642Y-110996170D01*
X140443878Y-110977016D01*
X140447126Y-110975429D01*
X140448596Y-110988711D01*
G37*
G36*
X138862205Y-111481786D02*
G01*
X138869005Y-111494456D01*
X138868738Y-111496545D01*
X138859650Y-111503259D01*
X138855179Y-111501474D01*
X138850295Y-111488674D01*
X138851641Y-111481992D01*
X138859650Y-111479871D01*
X138862205Y-111481786D01*
G37*
G36*
X138728289Y-111323454D02*
G01*
X138742060Y-111326227D01*
X138756080Y-111334391D01*
X138751793Y-111346045D01*
X138748605Y-111348339D01*
X138731346Y-111350562D01*
X138712735Y-111345007D01*
X138702687Y-111334087D01*
X138702251Y-111329311D01*
X138708382Y-111322581D01*
X138728289Y-111323454D01*
G37*
G36*
X150890737Y-109374898D02*
G01*
X150886059Y-109379576D01*
X150881381Y-109374898D01*
X150886059Y-109370221D01*
X150890737Y-109374898D01*
G37*
G36*
X145679760Y-109786537D02*
G01*
X145675083Y-109791215D01*
X145670405Y-109786537D01*
X145675083Y-109781860D01*
X145679760Y-109786537D01*
G37*
G36*
X135450348Y-111302499D02*
G01*
X135427851Y-111313030D01*
X135397681Y-111324922D01*
X135369349Y-111334782D01*
X135348457Y-111339886D01*
X135335336Y-111338728D01*
X135324889Y-111331790D01*
X135318628Y-111327556D01*
X135294782Y-111318044D01*
X135264825Y-111311242D01*
X135249996Y-111308589D01*
X135228739Y-111302561D01*
X135220387Y-111296671D01*
X135217510Y-111293168D01*
X135204015Y-111294433D01*
X135193771Y-111296546D01*
X135195710Y-111292762D01*
X135239097Y-111292762D01*
X135243775Y-111297440D01*
X135248453Y-111292762D01*
X135243775Y-111288084D01*
X135239097Y-111292762D01*
X135195710Y-111292762D01*
X135197332Y-111289596D01*
X135198124Y-111288885D01*
X135213646Y-111283107D01*
X135241711Y-111277831D01*
X135276853Y-111274120D01*
X135292544Y-111272952D01*
X135348513Y-111266870D01*
X135390151Y-111257906D01*
X135420973Y-111244664D01*
X135444494Y-111225750D01*
X135464227Y-111199769D01*
X135473651Y-111184540D01*
X135484152Y-111163889D01*
X135489332Y-111143562D01*
X135490476Y-111117234D01*
X135488872Y-111078578D01*
X135484720Y-111026174D01*
X135477256Y-110974035D01*
X135467533Y-110934822D01*
X135456114Y-110911409D01*
X135448224Y-110896694D01*
X135441239Y-110872853D01*
X135435179Y-110851408D01*
X135423392Y-110826366D01*
X135421832Y-110823853D01*
X135409834Y-110799689D01*
X135398758Y-110770970D01*
X135397301Y-110766699D01*
X135385404Y-110743875D01*
X135371612Y-110738226D01*
X135365556Y-110738194D01*
X135357232Y-110729294D01*
X135353121Y-110705437D01*
X135352799Y-110702595D01*
X135345724Y-110679509D01*
X135332698Y-110655264D01*
X135317079Y-110634439D01*
X135302222Y-110621612D01*
X135291483Y-110621359D01*
X135289238Y-110622654D01*
X135285875Y-110615674D01*
X135285228Y-110612071D01*
X135277017Y-110594413D01*
X135263063Y-110571958D01*
X135248074Y-110551844D01*
X135236759Y-110541209D01*
X135232912Y-110536546D01*
X135229742Y-110520159D01*
X135227240Y-110509971D01*
X135215709Y-110502228D01*
X135209284Y-110501448D01*
X135201559Y-110495211D01*
X135197814Y-110488197D01*
X135184223Y-110470744D01*
X135164137Y-110448028D01*
X135148264Y-110429801D01*
X135132809Y-110408850D01*
X135126832Y-110395989D01*
X135121411Y-110386272D01*
X135104972Y-110366125D01*
X135080157Y-110338957D01*
X135049650Y-110307833D01*
X135038603Y-110296907D01*
X134998200Y-110256694D01*
X134969089Y-110227090D01*
X134949509Y-110206146D01*
X134937702Y-110191917D01*
X134931908Y-110182453D01*
X134930368Y-110175808D01*
X134929875Y-110172653D01*
X134919993Y-110165432D01*
X134906485Y-110160394D01*
X134887578Y-110144176D01*
X134871749Y-110123213D01*
X134865042Y-110104232D01*
X134867007Y-110095544D01*
X134878917Y-110073819D01*
X134898069Y-110049945D01*
X134917588Y-110031336D01*
X134942985Y-110016527D01*
X134975251Y-110009679D01*
X135019245Y-110004600D01*
X135072035Y-110069089D01*
X135079748Y-110078333D01*
X135108797Y-110110626D01*
X135136761Y-110138418D01*
X135158509Y-110156522D01*
X135167423Y-110162843D01*
X135185171Y-110177400D01*
X135192256Y-110186482D01*
X135196208Y-110195149D01*
X135208692Y-110210785D01*
X135224562Y-110229188D01*
X135242747Y-110252884D01*
X135243400Y-110253789D01*
X135259146Y-110270706D01*
X135272521Y-110277698D01*
X135279814Y-110280220D01*
X135290221Y-110294070D01*
X135293021Y-110299435D01*
X135308286Y-110317137D01*
X135330612Y-110336223D01*
X135332510Y-110337630D01*
X135377757Y-110371692D01*
X135409600Y-110397007D01*
X135430002Y-110415334D01*
X135440929Y-110428434D01*
X135444345Y-110438065D01*
X135450503Y-110449598D01*
X135468306Y-110459293D01*
X135483704Y-110466824D01*
X135491694Y-110479894D01*
X135495190Y-110489356D01*
X135510405Y-110499517D01*
X135521357Y-110503590D01*
X135529116Y-110510752D01*
X135535428Y-110518542D01*
X135553132Y-110534039D01*
X135578232Y-110553582D01*
X135601903Y-110571760D01*
X135630754Y-110595359D01*
X135651495Y-110613976D01*
X135654007Y-110616428D01*
X135679462Y-110639273D01*
X135706650Y-110661270D01*
X135706697Y-110661306D01*
X135729353Y-110679824D01*
X135758914Y-110705855D01*
X135788993Y-110733775D01*
X135793626Y-110738178D01*
X135818589Y-110760869D01*
X135837997Y-110776848D01*
X135847977Y-110782891D01*
X135851955Y-110784035D01*
X135863108Y-110794810D01*
X135864456Y-110796720D01*
X135880969Y-110812418D01*
X135908365Y-110832663D01*
X135941803Y-110853825D01*
X135960192Y-110867674D01*
X135980575Y-110887134D01*
X135988370Y-110894630D01*
X136014309Y-110914665D01*
X136043913Y-110933143D01*
X136058479Y-110941365D01*
X136081834Y-110955829D01*
X136095120Y-110965859D01*
X136109226Y-110977570D01*
X136132243Y-110993350D01*
X136157855Y-111009133D01*
X136180133Y-111021275D01*
X136193151Y-111026132D01*
X136196765Y-111027022D01*
X136202707Y-111038038D01*
X136203319Y-111040665D01*
X136214484Y-111053529D01*
X136235255Y-111067472D01*
X136240558Y-111070515D01*
X136261859Y-111086829D01*
X136273307Y-111102343D01*
X136279256Y-111111895D01*
X136296340Y-111119687D01*
X136306426Y-111121156D01*
X136319958Y-111129540D01*
X136327738Y-111136095D01*
X136348816Y-111148336D01*
X136377279Y-111162051D01*
X136397504Y-111171551D01*
X136435674Y-111191644D01*
X136467634Y-111210900D01*
X136478118Y-111217498D01*
X136512110Y-111234836D01*
X136548646Y-111248921D01*
X136583834Y-111258801D01*
X136613784Y-111263523D01*
X136634607Y-111262136D01*
X136642412Y-111253686D01*
X136639491Y-111240479D01*
X136626912Y-111212859D01*
X136606675Y-111178602D01*
X136581265Y-111142235D01*
X136572900Y-111130960D01*
X136555080Y-111105562D01*
X136543317Y-111086906D01*
X136529839Y-111071119D01*
X136507714Y-111055777D01*
X136488437Y-111041676D01*
X136474071Y-111021603D01*
X136466727Y-111006683D01*
X136455912Y-110993764D01*
X136450673Y-110987980D01*
X136439007Y-110968421D01*
X136426059Y-110941268D01*
X136418131Y-110924696D01*
X136404400Y-110903979D01*
X136393394Y-110897363D01*
X136382021Y-110893543D01*
X136381543Y-110893151D01*
X136623702Y-110893151D01*
X136624197Y-110902448D01*
X136629799Y-110919596D01*
X136639044Y-110922270D01*
X136648663Y-110908464D01*
X136648905Y-110896206D01*
X136639014Y-110878393D01*
X136629072Y-110869873D01*
X136624571Y-110873534D01*
X136623702Y-110893151D01*
X136381543Y-110893151D01*
X136363948Y-110878721D01*
X136345137Y-110857868D01*
X136330350Y-110836351D01*
X136324350Y-110819540D01*
X136321863Y-110812284D01*
X136308194Y-110794449D01*
X136286579Y-110774398D01*
X136276431Y-110765633D01*
X136247532Y-110735590D01*
X136224346Y-110705005D01*
X136216991Y-110693791D01*
X136196924Y-110666733D01*
X136179375Y-110647237D01*
X136170519Y-110639055D01*
X136147505Y-110617432D01*
X136122326Y-110593459D01*
X136121339Y-110592513D01*
X136084876Y-110556777D01*
X136060734Y-110529984D01*
X136047393Y-110508607D01*
X136043335Y-110489116D01*
X136047039Y-110467982D01*
X136056988Y-110441674D01*
X136062196Y-110430546D01*
X136078106Y-110412281D01*
X136104288Y-110403414D01*
X136155334Y-110400158D01*
X136200397Y-110412403D01*
X136237916Y-110441093D01*
X136248178Y-110451740D01*
X136265940Y-110467828D01*
X136276531Y-110474162D01*
X136282820Y-110476438D01*
X136296261Y-110488195D01*
X136306276Y-110496060D01*
X136328068Y-110502228D01*
X136332278Y-110502735D01*
X136352594Y-110512569D01*
X136373466Y-110530991D01*
X136379589Y-110537497D01*
X136396863Y-110551161D01*
X136408508Y-110553694D01*
X136410233Y-110553296D01*
X136424665Y-110558524D01*
X136448210Y-110572745D01*
X136476716Y-110593533D01*
X136481567Y-110597301D01*
X136512782Y-110619685D01*
X136540802Y-110636975D01*
X136560068Y-110645693D01*
X136564376Y-110647003D01*
X136586598Y-110657064D01*
X136614884Y-110672998D01*
X136644727Y-110691852D01*
X136671622Y-110710674D01*
X136691063Y-110726513D01*
X136698545Y-110736416D01*
X136701784Y-110741566D01*
X136716665Y-110745469D01*
X136718098Y-110745570D01*
X136735959Y-110751920D01*
X136762961Y-110766196D01*
X136793847Y-110785660D01*
X136794967Y-110786421D01*
X136828882Y-110808170D01*
X136861410Y-110826973D01*
X136885654Y-110838835D01*
X136886831Y-110839310D01*
X136915984Y-110854778D01*
X136940723Y-110873487D01*
X136941747Y-110874469D01*
X136960409Y-110889113D01*
X136974660Y-110895156D01*
X136978517Y-110896206D01*
X136982664Y-110897335D01*
X136997919Y-110909189D01*
X136998430Y-110909772D01*
X137016024Y-110919291D01*
X137041164Y-110923223D01*
X137064177Y-110926363D01*
X137072762Y-110935675D01*
X137080229Y-110947933D01*
X137098490Y-110960213D01*
X137114757Y-110968040D01*
X137144679Y-110982782D01*
X137177495Y-110999216D01*
X137203686Y-111011616D01*
X137229710Y-111022102D01*
X137245322Y-111026132D01*
X137252252Y-111027218D01*
X137259871Y-111035064D01*
X137260199Y-111036382D01*
X137271163Y-111043897D01*
X137292844Y-111050181D01*
X137295276Y-111050677D01*
X137320784Y-111060221D01*
X137337971Y-111073719D01*
X137354836Y-111086456D01*
X137379597Y-111093317D01*
X137380207Y-111093366D01*
X137402029Y-111098611D01*
X137413782Y-111107846D01*
X137421415Y-111114821D01*
X137441544Y-111115949D01*
X137458017Y-111116063D01*
X137475643Y-111125083D01*
X137482994Y-111131804D01*
X137499580Y-111138397D01*
X137506895Y-111141590D01*
X137512468Y-111156343D01*
X137513145Y-111166743D01*
X137517921Y-111188501D01*
X137518676Y-111193044D01*
X137510021Y-111206626D01*
X137484419Y-111222587D01*
X137483128Y-111223243D01*
X137460680Y-111233103D01*
X137438851Y-111238012D01*
X137411261Y-111238728D01*
X137371532Y-111236012D01*
X137365458Y-111235447D01*
X137329081Y-111230508D01*
X137301453Y-111224143D01*
X137287548Y-111217449D01*
X137280937Y-111212392D01*
X137259096Y-111202358D01*
X137230040Y-111193174D01*
X137212691Y-111187909D01*
X137187213Y-111176795D01*
X137173165Y-111165926D01*
X137164373Y-111157753D01*
X137142321Y-111154935D01*
X137126423Y-111154479D01*
X137108613Y-111139358D01*
X137097910Y-111126888D01*
X137083544Y-111119687D01*
X137077841Y-111117980D01*
X137075786Y-111106589D01*
X137076628Y-111103530D01*
X137071249Y-111095780D01*
X137050213Y-111093491D01*
X137026804Y-111089603D01*
X136993003Y-111068830D01*
X136987967Y-111064391D01*
X136968934Y-111051382D01*
X136956036Y-111048143D01*
X136945832Y-111047808D01*
X136927912Y-111039125D01*
X136914472Y-111031408D01*
X136895471Y-111026132D01*
X136884013Y-111022182D01*
X136869114Y-111007421D01*
X136857794Y-110996124D01*
X136836458Y-110988653D01*
X136814532Y-110984727D01*
X136788691Y-110974620D01*
X136765413Y-110964822D01*
X136746334Y-110960644D01*
X136732789Y-110957832D01*
X136711740Y-110947312D01*
X136694428Y-110938444D01*
X136680503Y-110940439D01*
X136677490Y-110955191D01*
X136687182Y-110980294D01*
X136690318Y-110985836D01*
X136714244Y-111026863D01*
X136731145Y-111052925D01*
X136742171Y-111065643D01*
X136748474Y-111066639D01*
X136752769Y-111069331D01*
X136754678Y-111085383D01*
X136757117Y-111102279D01*
X136763855Y-111110331D01*
X136771879Y-111117453D01*
X136779178Y-111136059D01*
X136785677Y-111156021D01*
X136795437Y-111174567D01*
X136804272Y-111188474D01*
X136816217Y-111218557D01*
X136822367Y-111249474D01*
X136820597Y-111272915D01*
X136817052Y-111282502D01*
X136811934Y-111300914D01*
X136810810Y-111319397D01*
X136810593Y-111322433D01*
X136799939Y-111343586D01*
X136776620Y-111364492D01*
X136745322Y-111380760D01*
X136742857Y-111381675D01*
X136715445Y-111392170D01*
X136693867Y-111400905D01*
X136678248Y-111406387D01*
X136651768Y-111412720D01*
X136613397Y-111417029D01*
X136575155Y-111416543D01*
X136549610Y-111410107D01*
X136548720Y-111409650D01*
X136527202Y-111402578D01*
X136499683Y-111397749D01*
X136499535Y-111397733D01*
X136469112Y-111390701D01*
X136442513Y-111378635D01*
X136421509Y-111367895D01*
X136401579Y-111362928D01*
X136387128Y-111358670D01*
X136368817Y-111344473D01*
X136352444Y-111331264D01*
X136326978Y-111320520D01*
X136306022Y-111314589D01*
X136282228Y-111304571D01*
X136269364Y-111297398D01*
X136244806Y-111283747D01*
X136227758Y-111273798D01*
X136192186Y-111251233D01*
X136154083Y-111225445D01*
X136119657Y-111200690D01*
X136095120Y-111181219D01*
X136091836Y-111178439D01*
X136068558Y-111164031D01*
X136049942Y-111160818D01*
X136039115Y-111161408D01*
X136037785Y-111152190D01*
X136037483Y-111146834D01*
X136028092Y-111131023D01*
X136011575Y-111112841D01*
X135993348Y-111097853D01*
X135978825Y-111091620D01*
X135978312Y-111091577D01*
X135966278Y-111084983D01*
X135948532Y-111070571D01*
X135937854Y-111061137D01*
X135912093Y-111039461D01*
X135884016Y-111016777D01*
X135868354Y-111004065D01*
X135840282Y-110979821D01*
X135819017Y-110959695D01*
X135818104Y-110958760D01*
X135792470Y-110936761D01*
X135764002Y-110917595D01*
X135745259Y-110906989D01*
X135719709Y-110892101D01*
X135706115Y-110883044D01*
X135701539Y-110877719D01*
X135703048Y-110874029D01*
X135703261Y-110873803D01*
X135701102Y-110866071D01*
X135688134Y-110857967D01*
X135671611Y-110852796D01*
X135658787Y-110853863D01*
X135656365Y-110859401D01*
X135654092Y-110880362D01*
X135653418Y-110912435D01*
X135654224Y-110951086D01*
X135656388Y-110991780D01*
X135659790Y-111029982D01*
X135664309Y-111061160D01*
X135664040Y-111074743D01*
X135654761Y-111092163D01*
X135653376Y-111093494D01*
X135644855Y-111111548D01*
X135641366Y-111137204D01*
X135638456Y-111160784D01*
X135627190Y-111181743D01*
X135603944Y-111206338D01*
X135589021Y-111220983D01*
X135572828Y-111238842D01*
X135566538Y-111248759D01*
X135566163Y-111250695D01*
X135555321Y-111262073D01*
X135534363Y-111274310D01*
X135509880Y-111284088D01*
X135488464Y-111288084D01*
X135471929Y-111289996D01*
X135466412Y-111292762D01*
X135459790Y-111296082D01*
X135450348Y-111302499D01*
G37*
G36*
X151223803Y-111166894D02*
G01*
X151232210Y-111175819D01*
X151233672Y-111179443D01*
X151228084Y-111185175D01*
X151225369Y-111184815D01*
X151218177Y-111175819D01*
X151218284Y-111173702D01*
X151222302Y-111166464D01*
X151223803Y-111166894D01*
G37*
G36*
X141445484Y-109445449D02*
G01*
X141450895Y-109453987D01*
X141444868Y-109466893D01*
X141439301Y-109471291D01*
X141429180Y-109471531D01*
X141429011Y-109459097D01*
X141432523Y-109452509D01*
X141442750Y-109445064D01*
X141445484Y-109445449D01*
G37*
G36*
X138232836Y-109880092D02*
G01*
X138228158Y-109884769D01*
X138223481Y-109880092D01*
X138228158Y-109875414D01*
X138232836Y-109880092D01*
G37*
G36*
X152817956Y-110399318D02*
G01*
X152822467Y-110407270D01*
X152827168Y-110420920D01*
X152826540Y-110423327D01*
X152817956Y-110422707D01*
X152813511Y-110418021D01*
X152808743Y-110401105D01*
X152808775Y-110398978D01*
X152810690Y-110390551D01*
X152817956Y-110399318D01*
G37*
G36*
X138316234Y-111164231D02*
G01*
X138321568Y-111197708D01*
X138330177Y-111223621D01*
X138332140Y-111227665D01*
X138339527Y-111250741D01*
X138334923Y-111265688D01*
X138330674Y-111272973D01*
X138330604Y-111287333D01*
X138332355Y-111291205D01*
X138328316Y-111306395D01*
X138309397Y-111320692D01*
X138278608Y-111332377D01*
X138238955Y-111339730D01*
X138213828Y-111343203D01*
X138185401Y-111350430D01*
X138172989Y-111359112D01*
X138163321Y-111367273D01*
X138139638Y-111366273D01*
X138129467Y-111364549D01*
X138114984Y-111365862D01*
X138111215Y-111376344D01*
X138109852Y-111384031D01*
X138102713Y-111386843D01*
X138095478Y-111387873D01*
X138080691Y-111399360D01*
X138064368Y-111417539D01*
X138051163Y-111437047D01*
X138045727Y-111452522D01*
X138044444Y-111458375D01*
X138033196Y-111465838D01*
X138022048Y-111471864D01*
X138010092Y-111489042D01*
X138000105Y-111503525D01*
X137986090Y-111507093D01*
X137984635Y-111506620D01*
X137973746Y-111511269D01*
X137965942Y-111533004D01*
X137963819Y-111541604D01*
X137953879Y-111570696D01*
X137940617Y-111600455D01*
X137926449Y-111626314D01*
X137913792Y-111643706D01*
X137905063Y-111648063D01*
X137903745Y-111647885D01*
X137899630Y-111658369D01*
X137896979Y-111684835D01*
X137896040Y-111725158D01*
X137896045Y-111729972D01*
X137896829Y-111770047D01*
X137899466Y-111796044D01*
X137904698Y-111812156D01*
X137913266Y-111822579D01*
X137925254Y-111833943D01*
X137943813Y-111855063D01*
X137972366Y-111881991D01*
X138019618Y-111906460D01*
X138038218Y-111917934D01*
X138050653Y-111934391D01*
X138055844Y-111944615D01*
X138067407Y-111952638D01*
X138071481Y-111953321D01*
X138090575Y-111959867D01*
X138115893Y-111971031D01*
X138125875Y-111975691D01*
X138149481Y-111985407D01*
X138163864Y-111989424D01*
X138170900Y-111991520D01*
X138185560Y-112003174D01*
X138199984Y-112013705D01*
X138223481Y-112022486D01*
X138244311Y-112029893D01*
X138261316Y-112041695D01*
X138268384Y-112048314D01*
X138278781Y-112051066D01*
X138283796Y-112050246D01*
X138298771Y-112055704D01*
X138299660Y-112056271D01*
X138306657Y-112062804D01*
X138295985Y-112064442D01*
X138287328Y-112066130D01*
X138279613Y-112075173D01*
X138279748Y-112076353D01*
X138290536Y-112081933D01*
X138318357Y-112080563D01*
X138319820Y-112080377D01*
X138362892Y-112081355D01*
X138414251Y-112092553D01*
X138441278Y-112100342D01*
X138477079Y-112109785D01*
X138504144Y-112115942D01*
X138515718Y-112118359D01*
X138551572Y-112128015D01*
X138586496Y-112139980D01*
X138614712Y-112152131D01*
X138630442Y-112162346D01*
X138634614Y-112165995D01*
X138656128Y-112176753D01*
X138685046Y-112185746D01*
X138713303Y-112190811D01*
X138732832Y-112189789D01*
X138739248Y-112185674D01*
X138744835Y-112172507D01*
X138740735Y-112160017D01*
X138728118Y-112156469D01*
X138728059Y-112156482D01*
X138719862Y-112156160D01*
X138724193Y-112150341D01*
X138737054Y-112142261D01*
X138754447Y-112135157D01*
X138770081Y-112133336D01*
X138781178Y-112143467D01*
X138784853Y-112148805D01*
X138802386Y-112162640D01*
X138827909Y-112176330D01*
X138840875Y-112182788D01*
X138861084Y-112196856D01*
X138869005Y-112208853D01*
X138874718Y-112222232D01*
X138890905Y-112237545D01*
X138902730Y-112247017D01*
X138909085Y-112261986D01*
X138907094Y-112286877D01*
X138905852Y-112293674D01*
X138897810Y-112315315D01*
X138884802Y-112321942D01*
X138875685Y-112323633D01*
X138860262Y-112334902D01*
X138851594Y-112341977D01*
X138828483Y-112341802D01*
X138811206Y-112340216D01*
X138798861Y-112345214D01*
X138794922Y-112349241D01*
X138779812Y-112354160D01*
X138764034Y-112352575D01*
X138756740Y-112344618D01*
X138753105Y-112339680D01*
X138738066Y-112340559D01*
X138730030Y-112342141D01*
X138709570Y-112340855D01*
X138679112Y-112333391D01*
X138635120Y-112319008D01*
X138628351Y-112316722D01*
X138616409Y-112313169D01*
X138613444Y-112312117D01*
X138600037Y-112304792D01*
X138594356Y-112302186D01*
X138579651Y-112302738D01*
X138578298Y-112303353D01*
X138562597Y-112303603D01*
X138538811Y-112299216D01*
X138513589Y-112292035D01*
X138493580Y-112283899D01*
X138485433Y-112276650D01*
X138485422Y-112276412D01*
X138477037Y-112272188D01*
X138457729Y-112273607D01*
X138436587Y-112274869D01*
X138424433Y-112270098D01*
X138418940Y-112265374D01*
X138401461Y-112261049D01*
X138391611Y-112259380D01*
X138380516Y-112250350D01*
X138372906Y-112243146D01*
X138354009Y-112238075D01*
X138335853Y-112235819D01*
X138307679Y-112229736D01*
X138303834Y-112228624D01*
X138277145Y-112220924D01*
X138246869Y-112212201D01*
X138242090Y-112210749D01*
X138210291Y-112198239D01*
X138183666Y-112183787D01*
X138182869Y-112183249D01*
X138160239Y-112172145D01*
X138141566Y-112169421D01*
X138136507Y-112169448D01*
X138114319Y-112163213D01*
X138082137Y-112149489D01*
X138044026Y-112130273D01*
X138004055Y-112107562D01*
X137966289Y-112083353D01*
X137950387Y-112072932D01*
X137928055Y-112060200D01*
X137914856Y-112055230D01*
X137901507Y-112050664D01*
X137879037Y-112035120D01*
X137854609Y-112013001D01*
X137833279Y-111988976D01*
X137820100Y-111967712D01*
X137805999Y-111942141D01*
X137787183Y-111919576D01*
X137770227Y-111900634D01*
X137758065Y-111874272D01*
X137752139Y-111838394D01*
X137751244Y-111788600D01*
X137753284Y-111743212D01*
X137758919Y-111698584D01*
X137767808Y-111671453D01*
X137779841Y-111662302D01*
X137787245Y-111659323D01*
X137793131Y-111644853D01*
X137797771Y-111626997D01*
X137810415Y-111605092D01*
X137823186Y-111584129D01*
X137834410Y-111555346D01*
X137839276Y-111543046D01*
X137855668Y-111517101D01*
X137877857Y-111491175D01*
X137892571Y-111475366D01*
X137906438Y-111457044D01*
X137909908Y-111446860D01*
X137909411Y-111440615D01*
X137917756Y-111426748D01*
X137923936Y-111418437D01*
X137926886Y-111404009D01*
X137927470Y-111396202D01*
X137937828Y-111381897D01*
X137945570Y-111373420D01*
X137952173Y-111357105D01*
X137953038Y-111351708D01*
X137961528Y-111344217D01*
X137966508Y-111341738D01*
X137971181Y-111327845D01*
X137974153Y-111314287D01*
X137985215Y-111293313D01*
X137996523Y-111273224D01*
X137997066Y-111256926D01*
X137984917Y-111250663D01*
X137978373Y-111249033D01*
X137970884Y-111236630D01*
X137964934Y-111226692D01*
X137942524Y-111222596D01*
X137921555Y-111219020D01*
X137908872Y-111208806D01*
X137902015Y-111199824D01*
X137883152Y-111180853D01*
X137855633Y-111155645D01*
X137822628Y-111127203D01*
X137793909Y-111102796D01*
X137765988Y-111078263D01*
X137746403Y-111060103D01*
X137738210Y-111051074D01*
X137729223Y-111039516D01*
X137712483Y-111023404D01*
X137712445Y-111023371D01*
X137696748Y-111006089D01*
X137690221Y-110991701D01*
X137689448Y-110986801D01*
X137680865Y-110979355D01*
X137676562Y-110977772D01*
X137671510Y-110965322D01*
X137668037Y-110957138D01*
X137652799Y-110951289D01*
X137639887Y-110947641D01*
X137634088Y-110930976D01*
X137633896Y-110927270D01*
X137625443Y-110903778D01*
X137608686Y-110884464D01*
X137589448Y-110876445D01*
X137581457Y-110873375D01*
X137580664Y-110857744D01*
X137582122Y-110846006D01*
X137578171Y-110834479D01*
X137576385Y-110832985D01*
X137569071Y-110816149D01*
X137564731Y-110788424D01*
X137563646Y-110756177D01*
X137565144Y-110737612D01*
X137671618Y-110737612D01*
X137672849Y-110767079D01*
X137677359Y-110796341D01*
X137684825Y-110818924D01*
X137693554Y-110832159D01*
X137714603Y-110856770D01*
X137740159Y-110881608D01*
X137764359Y-110902962D01*
X137798742Y-110933851D01*
X137824713Y-110958248D01*
X137846045Y-110979748D01*
X137866509Y-111001941D01*
X137876673Y-111012446D01*
X137896948Y-111028226D01*
X137910947Y-111031769D01*
X137917666Y-111031002D01*
X137925276Y-111040459D01*
X137925852Y-111046017D01*
X137928784Y-111063554D01*
X137928952Y-111064236D01*
X137932293Y-111082265D01*
X137935437Y-111087207D01*
X137950091Y-111091620D01*
X137966204Y-111095291D01*
X137988118Y-111106608D01*
X138004371Y-111115349D01*
X138015168Y-111115943D01*
X138022310Y-111115629D01*
X138036796Y-111124748D01*
X138042557Y-111129765D01*
X138052306Y-111134228D01*
X138058198Y-111125061D01*
X138059668Y-111117835D01*
X138060290Y-111094136D01*
X138058078Y-111064072D01*
X138055758Y-111048170D01*
X138048022Y-111022862D01*
X138036082Y-111012007D01*
X138029076Y-111006479D01*
X138019912Y-110988571D01*
X138014142Y-110965698D01*
X138013350Y-110945130D01*
X138019119Y-110934137D01*
X138022307Y-110931744D01*
X138027016Y-110917765D01*
X138027943Y-110912032D01*
X138036372Y-110904512D01*
X138039463Y-110905127D01*
X138045727Y-110915426D01*
X138046221Y-110919193D01*
X138051918Y-110920151D01*
X138054097Y-110908969D01*
X138049317Y-110886124D01*
X138038870Y-110857986D01*
X138024916Y-110830252D01*
X138009615Y-110808618D01*
X138006528Y-110805380D01*
X137986662Y-110789397D01*
X137970134Y-110782891D01*
X137961640Y-110781088D01*
X137948790Y-110768858D01*
X137944770Y-110762379D01*
X137929910Y-110754825D01*
X137926089Y-110753997D01*
X137909729Y-110743373D01*
X137890799Y-110724420D01*
X137865183Y-110694014D01*
X137775907Y-110696910D01*
X137753420Y-110697780D01*
X137717470Y-110699820D01*
X137691179Y-110702171D01*
X137679071Y-110704479D01*
X137673995Y-110714416D01*
X137671618Y-110737612D01*
X137565144Y-110737612D01*
X137566099Y-110725778D01*
X137572372Y-110703594D01*
X137580328Y-110690105D01*
X137599783Y-110663913D01*
X137621950Y-110639519D01*
X137642467Y-110621515D01*
X137656975Y-110614493D01*
X137657152Y-110614491D01*
X137672617Y-110608907D01*
X137692774Y-110595782D01*
X137705098Y-110587749D01*
X137720775Y-110582244D01*
X137743367Y-110579000D01*
X137776803Y-110577461D01*
X137825011Y-110577072D01*
X137831013Y-110577075D01*
X137876847Y-110577501D01*
X137908131Y-110579033D01*
X137928615Y-110582223D01*
X137942046Y-110587622D01*
X137952173Y-110595782D01*
X137969324Y-110608126D01*
X137990108Y-110614493D01*
X138017615Y-110620067D01*
X138052132Y-110634473D01*
X138086550Y-110654203D01*
X138113783Y-110675745D01*
X138130391Y-110695496D01*
X138153842Y-110729588D01*
X138178394Y-110770094D01*
X138200991Y-110811649D01*
X138218578Y-110848888D01*
X138228098Y-110876445D01*
X138229208Y-110881420D01*
X138242092Y-110921244D01*
X138258797Y-110950037D01*
X138277172Y-110963961D01*
X138277260Y-110963985D01*
X138298016Y-110969098D01*
X138324711Y-110974867D01*
X138330471Y-110976137D01*
X138348433Y-110983801D01*
X138350439Y-110995042D01*
X138347860Y-111004012D01*
X138345101Y-111026897D01*
X138342813Y-111037083D01*
X138332237Y-111044843D01*
X138326585Y-111047872D01*
X138319352Y-111065008D01*
X138315180Y-111093220D01*
X138315152Y-111094136D01*
X138314123Y-111127848D01*
X138316234Y-111164231D01*
G37*
G36*
X141984364Y-109777011D02*
G01*
X141980496Y-109789734D01*
X141964653Y-109813250D01*
X141940035Y-109839834D01*
X141935656Y-109843555D01*
X141910389Y-109865023D01*
X141901845Y-109871496D01*
X141883555Y-109888009D01*
X141873523Y-109905406D01*
X141869297Y-109929620D01*
X141868424Y-109966588D01*
X141869050Y-109987078D01*
X141873977Y-110013066D01*
X141884810Y-110027655D01*
X141894483Y-110037121D01*
X141903437Y-110054819D01*
X141906091Y-110064226D01*
X141917271Y-110083977D01*
X141921555Y-110091606D01*
X141929118Y-110115623D01*
X141934583Y-110146124D01*
X141936801Y-110161477D01*
X141945163Y-110189604D01*
X141958469Y-110204016D01*
X141970610Y-110215166D01*
X141971109Y-110235831D01*
X141970904Y-110260943D01*
X141981311Y-110294367D01*
X142000488Y-110325522D01*
X142010432Y-110345137D01*
X142016896Y-110371442D01*
X142017084Y-110372845D01*
X142023215Y-110395846D01*
X142032146Y-110409294D01*
X142037043Y-110416450D01*
X142043511Y-110438323D01*
X142047795Y-110468189D01*
X142048042Y-110471017D01*
X142055701Y-110512050D01*
X142069686Y-110535988D01*
X142080736Y-110551494D01*
X142087274Y-110576543D01*
X142087714Y-110582658D01*
X142094316Y-110609335D01*
X142106322Y-110638243D01*
X142110214Y-110646539D01*
X142120062Y-110677193D01*
X142122694Y-110703355D01*
X142122621Y-110704143D01*
X142124006Y-110725019D01*
X142134051Y-110731421D01*
X142135485Y-110731555D01*
X142147279Y-110742132D01*
X142156751Y-110766519D01*
X142158564Y-110773273D01*
X142166196Y-110793472D01*
X142173123Y-110801602D01*
X142177508Y-110804850D01*
X142180829Y-110819761D01*
X142182325Y-110830506D01*
X142190184Y-110843701D01*
X142196008Y-110852177D01*
X142199539Y-110871768D01*
X142201587Y-110886906D01*
X142208895Y-110899834D01*
X142209345Y-110900148D01*
X142215650Y-110913501D01*
X142218250Y-110936249D01*
X142218256Y-110937608D01*
X142220182Y-110960258D01*
X142224511Y-110973142D01*
X142225497Y-110974492D01*
X142230412Y-110990012D01*
X142234158Y-111014462D01*
X142234337Y-111016130D01*
X142242368Y-111047694D01*
X142256181Y-111075163D01*
X142270548Y-111100995D01*
X142280780Y-111131295D01*
X142288257Y-111157738D01*
X142298582Y-111180497D01*
X142300385Y-111183638D01*
X142309774Y-111207491D01*
X142317010Y-111236630D01*
X142318400Y-111243957D01*
X142324618Y-111268743D01*
X142330655Y-111283407D01*
X142330733Y-111283511D01*
X142336908Y-111297440D01*
X142337554Y-111298897D01*
X142344070Y-111322521D01*
X142352462Y-111346719D01*
X142363861Y-111363427D01*
X142370561Y-111371142D01*
X142377293Y-111390638D01*
X142382918Y-111403782D01*
X142399870Y-111416988D01*
X142415655Y-111427829D01*
X142428271Y-111445626D01*
X142435810Y-111457638D01*
X142454810Y-111469613D01*
X142467374Y-111475220D01*
X142489430Y-111490016D01*
X142511882Y-111508744D01*
X142529320Y-111526769D01*
X142536335Y-111539458D01*
X142538894Y-111544813D01*
X142552707Y-111553367D01*
X142575268Y-111563108D01*
X142603520Y-111579232D01*
X142627832Y-111596511D01*
X142641580Y-111610674D01*
X142647128Y-111617618D01*
X142662468Y-111624880D01*
X142671147Y-111628425D01*
X142681344Y-111643591D01*
X142687287Y-111654514D01*
X142700356Y-111662302D01*
X142710297Y-111666124D01*
X142712820Y-111668981D01*
X142723444Y-111681013D01*
X142731604Y-111692398D01*
X142743408Y-111699723D01*
X142755122Y-111705957D01*
X142775267Y-111723818D01*
X142800039Y-111749931D01*
X142825988Y-111780904D01*
X142835944Y-111796822D01*
X142838347Y-111814991D01*
X142833146Y-111842392D01*
X142830956Y-111850440D01*
X142820163Y-111880450D01*
X142808413Y-111902910D01*
X142803761Y-111908829D01*
X142793542Y-111916743D01*
X142777709Y-111921269D01*
X142751899Y-111923358D01*
X142711749Y-111923960D01*
X142703918Y-111923965D01*
X142662128Y-111922742D01*
X142637783Y-111919243D01*
X142629889Y-111913339D01*
X142629430Y-111909576D01*
X142624023Y-111908290D01*
X142622515Y-111909099D01*
X142607965Y-111907920D01*
X142585459Y-111900494D01*
X142583379Y-111899647D01*
X142553134Y-111890568D01*
X142525526Y-111886832D01*
X142512817Y-111885297D01*
X142483500Y-111876834D01*
X142452136Y-111863444D01*
X142433160Y-111854242D01*
X142409345Y-111844027D01*
X142395906Y-111840055D01*
X142394372Y-111839854D01*
X142379815Y-111832129D01*
X142360608Y-111816666D01*
X142357778Y-111814132D01*
X142336457Y-111799324D01*
X142318917Y-111793278D01*
X142310176Y-111791841D01*
X142302449Y-111783922D01*
X142299242Y-111778614D01*
X142284407Y-111774567D01*
X142271301Y-111771833D01*
X142251422Y-111759625D01*
X142239889Y-111751520D01*
X142224449Y-111749300D01*
X142209367Y-111747453D01*
X142189607Y-111736384D01*
X142171333Y-111723995D01*
X142159111Y-111718642D01*
X142151211Y-111715310D01*
X142136140Y-111703148D01*
X142125271Y-111694918D01*
X142117317Y-111698470D01*
X142112516Y-111706280D01*
X142102098Y-111707608D01*
X142096630Y-111695046D01*
X142095145Y-111688526D01*
X142083742Y-111681013D01*
X142075024Y-111678805D01*
X142059090Y-111666837D01*
X142050475Y-111659186D01*
X142027987Y-111644100D01*
X141999473Y-111628078D01*
X141996747Y-111626676D01*
X142365973Y-111626676D01*
X142366056Y-111635654D01*
X142380028Y-111646084D01*
X142400615Y-111656137D01*
X142428748Y-111664288D01*
X142451901Y-111669294D01*
X142473186Y-111676013D01*
X142484427Y-111678381D01*
X142489558Y-111668981D01*
X142488285Y-111662488D01*
X142476407Y-111649902D01*
X142476382Y-111649892D01*
X142465255Y-111637886D01*
X142456953Y-111616157D01*
X142456710Y-111615079D01*
X142449786Y-111595535D01*
X142442037Y-111587458D01*
X142438082Y-111585881D01*
X142433425Y-111573425D01*
X142429952Y-111565242D01*
X142414714Y-111559392D01*
X142403393Y-111562048D01*
X142400969Y-111566736D01*
X142396004Y-111576339D01*
X142391294Y-111592708D01*
X142377689Y-111612944D01*
X142365973Y-111626676D01*
X141996747Y-111626676D01*
X141980040Y-111618082D01*
X141949369Y-111602261D01*
X141926877Y-111590605D01*
X141907397Y-111578435D01*
X141890649Y-111563876D01*
X141883110Y-111556460D01*
X141870330Y-111550037D01*
X141867136Y-111549270D01*
X141851087Y-111540653D01*
X141829376Y-111525538D01*
X141820122Y-111518795D01*
X141803742Y-111508947D01*
X141797256Y-111508457D01*
X141797227Y-111508821D01*
X141790701Y-111507864D01*
X141776206Y-111496733D01*
X141767934Y-111489487D01*
X141737001Y-111465983D01*
X141705455Y-111446364D01*
X141678193Y-111433443D01*
X141660113Y-111430033D01*
X141656255Y-111430157D01*
X141637108Y-111422254D01*
X141615022Y-111404023D01*
X141609072Y-111398257D01*
X141583853Y-111379302D01*
X141560649Y-111368575D01*
X141543696Y-111361865D01*
X141539496Y-111354358D01*
X141540497Y-111351959D01*
X141535591Y-111339763D01*
X141519281Y-111328672D01*
X141497205Y-111322883D01*
X141483690Y-111318484D01*
X141471909Y-111304435D01*
X141466952Y-111295107D01*
X141451773Y-111292550D01*
X141441801Y-111291091D01*
X141422136Y-111280314D01*
X141400654Y-111263821D01*
X141383361Y-111246371D01*
X141376261Y-111232721D01*
X141375843Y-111231552D01*
X141364892Y-111223785D01*
X141343731Y-111214592D01*
X141329442Y-111207868D01*
X141300450Y-111188988D01*
X141272498Y-111165644D01*
X141256668Y-111151337D01*
X141233253Y-111135815D01*
X141216152Y-111134058D01*
X141204445Y-111135385D01*
X141198508Y-111125477D01*
X141198485Y-111124741D01*
X141191538Y-111107800D01*
X141176211Y-111087587D01*
X141158311Y-111070654D01*
X141143642Y-111063554D01*
X141138740Y-111061960D01*
X141133020Y-111049521D01*
X141132114Y-111043135D01*
X141125530Y-111037827D01*
X141122369Y-111038393D01*
X141102381Y-111034585D01*
X141077871Y-111023533D01*
X141056386Y-111009216D01*
X141045469Y-110995612D01*
X141040396Y-110985631D01*
X141028974Y-110981293D01*
X141017267Y-110979742D01*
X141000290Y-110968246D01*
X140985565Y-110957650D01*
X140964622Y-110951289D01*
X140953711Y-110948684D01*
X140945911Y-110937256D01*
X140944081Y-110930469D01*
X140931326Y-110923223D01*
X140924598Y-110922084D01*
X140921750Y-110915117D01*
X140920283Y-110905289D01*
X140908269Y-110890279D01*
X140897119Y-110880703D01*
X140890821Y-110879857D01*
X140889779Y-110893154D01*
X140888077Y-110905448D01*
X140880423Y-110918545D01*
X140876556Y-110919903D01*
X140871068Y-110912860D01*
X140870656Y-110908681D01*
X140866170Y-110906291D01*
X140865267Y-110907335D01*
X140864417Y-110920323D01*
X140873219Y-110932759D01*
X140885739Y-110935717D01*
X140887198Y-110935326D01*
X140902344Y-110940344D01*
X140920047Y-110956584D01*
X140928626Y-110966763D01*
X140951597Y-110992713D01*
X140976317Y-111019444D01*
X140989575Y-111034649D01*
X141005277Y-111057214D01*
X141008574Y-111065720D01*
X141011399Y-111073009D01*
X141013354Y-111082187D01*
X141013428Y-111082265D01*
X141025433Y-111095003D01*
X141031940Y-111098872D01*
X141038363Y-111110331D01*
X141039509Y-111112376D01*
X141040033Y-111115328D01*
X141048897Y-111131834D01*
X141065237Y-111152431D01*
X141087131Y-111182171D01*
X141108223Y-111235661D01*
X141113300Y-111295809D01*
X141112831Y-111310088D01*
X141113588Y-111335409D01*
X141116313Y-111349390D01*
X141117856Y-111356388D01*
X141117232Y-111378616D01*
X141113587Y-111408521D01*
X141107980Y-111439613D01*
X141101469Y-111465404D01*
X141095112Y-111479403D01*
X141090977Y-111485427D01*
X141086243Y-111504500D01*
X141083124Y-111514618D01*
X141068396Y-111526374D01*
X141057966Y-111531599D01*
X141045248Y-111545855D01*
X141037317Y-111556441D01*
X141018656Y-111568865D01*
X141003175Y-111575994D01*
X140983333Y-111586352D01*
X140970152Y-111593266D01*
X140941854Y-111605485D01*
X140899134Y-111621879D01*
X140891759Y-111623953D01*
X140862796Y-111627435D01*
X140823532Y-111628396D01*
X140778801Y-111627137D01*
X140733435Y-111623957D01*
X140692268Y-111619158D01*
X140660132Y-111613038D01*
X140641860Y-111605899D01*
X140630795Y-111600625D01*
X140609116Y-111595388D01*
X140605695Y-111594717D01*
X140582210Y-111584414D01*
X140558243Y-111567077D01*
X140551443Y-111561517D01*
X140521248Y-111543714D01*
X140488202Y-111531302D01*
X140476023Y-111527944D01*
X140449268Y-111518520D01*
X140432558Y-111509725D01*
X140424796Y-111504265D01*
X140409045Y-111497809D01*
X140398196Y-111496685D01*
X140381203Y-111493994D01*
X140377534Y-111489700D01*
X140383359Y-111481349D01*
X140389202Y-111470442D01*
X140382773Y-111460093D01*
X140359638Y-111456482D01*
X140345724Y-111453804D01*
X140337808Y-111441435D01*
X140337846Y-111439908D01*
X140343391Y-111430728D01*
X140361197Y-111432258D01*
X140376894Y-111433894D01*
X140384585Y-111428594D01*
X140379397Y-111422080D01*
X140357974Y-111417831D01*
X140321653Y-111418666D01*
X140313491Y-111418292D01*
X140288018Y-111408755D01*
X140262468Y-111390589D01*
X140242781Y-111368647D01*
X140234899Y-111347784D01*
X140232700Y-111333477D01*
X140225543Y-111325506D01*
X140219345Y-111319508D01*
X140216188Y-111301753D01*
X140216188Y-111278000D01*
X140236909Y-111297305D01*
X140254901Y-111309505D01*
X140269653Y-111311996D01*
X140274957Y-111310819D01*
X140281676Y-111315701D01*
X140281681Y-111315863D01*
X140290097Y-111323479D01*
X140309730Y-111330181D01*
X140332122Y-111338638D01*
X140349633Y-111351974D01*
X140359322Y-111362453D01*
X140380050Y-111378429D01*
X140391122Y-111387147D01*
X140396600Y-111398520D01*
X140399146Y-111403137D01*
X140412972Y-111402977D01*
X140425663Y-111402402D01*
X140431363Y-111413523D01*
X140435196Y-111422627D01*
X140451222Y-111435435D01*
X140472545Y-111443873D01*
X140491251Y-111443925D01*
X140492282Y-111443649D01*
X140507906Y-111446436D01*
X140529595Y-111456516D01*
X140533155Y-111458527D01*
X140562993Y-111472644D01*
X140595083Y-111484633D01*
X140602870Y-111487181D01*
X140628041Y-111496909D01*
X140643722Y-111505228D01*
X140646223Y-111506727D01*
X140665373Y-111511055D01*
X140691906Y-111511445D01*
X140698274Y-111511137D01*
X140724462Y-111512883D01*
X140741499Y-111518617D01*
X140758198Y-111525116D01*
X140788550Y-111529067D01*
X140824942Y-111529476D01*
X140860858Y-111526304D01*
X140889779Y-111519513D01*
X140913135Y-111510567D01*
X140940301Y-111497472D01*
X140955652Y-111483077D01*
X140962983Y-111463090D01*
X140966087Y-111433219D01*
X140966996Y-111411834D01*
X140966652Y-111390058D01*
X140964622Y-111381626D01*
X140963177Y-111379523D01*
X140960859Y-111364159D01*
X140959945Y-111338785D01*
X140956402Y-111304697D01*
X140944934Y-111284955D01*
X140934804Y-111274398D01*
X140923161Y-111252674D01*
X140913583Y-111232908D01*
X140895811Y-111211834D01*
X140874938Y-111195969D01*
X140854848Y-111187504D01*
X140839428Y-111188633D01*
X140832561Y-111201547D01*
X140832243Y-111205972D01*
X140830676Y-111212397D01*
X140827061Y-111200841D01*
X140823942Y-111191078D01*
X140817824Y-111189344D01*
X140804071Y-111200574D01*
X140802396Y-111201991D01*
X140779440Y-111214853D01*
X140746395Y-111227274D01*
X140710851Y-111236779D01*
X140680396Y-111240894D01*
X140666812Y-111237943D01*
X140640329Y-111227999D01*
X140606182Y-111213015D01*
X140568519Y-111195047D01*
X140531490Y-111176151D01*
X140499242Y-111158385D01*
X140475925Y-111143805D01*
X140465688Y-111134467D01*
X140454111Y-111123576D01*
X140432641Y-111115290D01*
X140410351Y-111107386D01*
X140407572Y-111105465D01*
X140760802Y-111105465D01*
X140761921Y-111116568D01*
X140764735Y-111118032D01*
X140768158Y-111110331D01*
X140767483Y-111105378D01*
X140761921Y-111104094D01*
X140760802Y-111105465D01*
X140407572Y-111105465D01*
X140393442Y-111095697D01*
X140385859Y-111088917D01*
X140368081Y-111082265D01*
X140721381Y-111082265D01*
X140721762Y-111084829D01*
X140731289Y-111091620D01*
X140734672Y-111090886D01*
X140735414Y-111082265D01*
X140733494Y-111079465D01*
X140725507Y-111072909D01*
X140724573Y-111073153D01*
X140721381Y-111082265D01*
X140368081Y-111082265D01*
X140365599Y-111081960D01*
X140348608Y-111073333D01*
X140328728Y-111056537D01*
X140302722Y-111032379D01*
X140274888Y-111010463D01*
X140250528Y-110994735D01*
X140234524Y-110988711D01*
X140221632Y-110984349D01*
X140199342Y-110971901D01*
X140173281Y-110954819D01*
X140148447Y-110936588D01*
X140129844Y-110920692D01*
X140122472Y-110910619D01*
X140116518Y-110897515D01*
X140100689Y-110879639D01*
X140081674Y-110864267D01*
X140066214Y-110857734D01*
X140064478Y-110857644D01*
X140047626Y-110847764D01*
X140034707Y-110825737D01*
X140029377Y-110797539D01*
X140032866Y-110771934D01*
X140037371Y-110760026D01*
X140166817Y-110760026D01*
X140178299Y-110773068D01*
X140194185Y-110791075D01*
X140212253Y-110815456D01*
X140212792Y-110816260D01*
X140233301Y-110836986D01*
X140259655Y-110853026D01*
X140281958Y-110866462D01*
X140291031Y-110884322D01*
X140292834Y-110894173D01*
X140308339Y-110908799D01*
X140338573Y-110913867D01*
X140348720Y-110915093D01*
X140356771Y-110920884D01*
X140358669Y-110924171D01*
X140372124Y-110935874D01*
X140394193Y-110950831D01*
X140400333Y-110954755D01*
X140423928Y-110975220D01*
X140431363Y-110995269D01*
X140432951Y-111008943D01*
X140441524Y-111016160D01*
X140457075Y-111006033D01*
X140466126Y-111001124D01*
X140486198Y-111000380D01*
X140519790Y-111005726D01*
X140541697Y-111009484D01*
X140568883Y-111012172D01*
X140584815Y-111011155D01*
X140591262Y-111009976D01*
X140604044Y-111016139D01*
X140604697Y-111017002D01*
X140618980Y-111023478D01*
X140642412Y-111026132D01*
X140646235Y-111026198D01*
X140666390Y-111029262D01*
X140674604Y-111035488D01*
X140676187Y-111039791D01*
X140688637Y-111044843D01*
X140695109Y-111046018D01*
X140702670Y-111055200D01*
X140705149Y-111059916D01*
X140717889Y-111059716D01*
X140726713Y-111058075D01*
X140744477Y-111063311D01*
X140754861Y-111069591D01*
X140761475Y-111065720D01*
X140759109Y-111049879D01*
X140747547Y-111024751D01*
X140741703Y-111015262D01*
X140725839Y-110996148D01*
X140712642Y-110988403D01*
X140703562Y-110985096D01*
X140683665Y-110971376D01*
X140660571Y-110950684D01*
X140645290Y-110936959D01*
X140615106Y-110915652D01*
X140588066Y-110902734D01*
X140581023Y-110900469D01*
X140561022Y-110891947D01*
X140552983Y-110884897D01*
X140551400Y-110878547D01*
X140537963Y-110860304D01*
X140515033Y-110840046D01*
X140487741Y-110821948D01*
X140461216Y-110810188D01*
X140450774Y-110806641D01*
X140425933Y-110794179D01*
X140411631Y-110780983D01*
X140404379Y-110771587D01*
X140394118Y-110768748D01*
X140391187Y-110769897D01*
X140380255Y-110764741D01*
X140375233Y-110760904D01*
X140359544Y-110761431D01*
X140349086Y-110762192D01*
X140332814Y-110751296D01*
X140321507Y-110741860D01*
X140295754Y-110739981D01*
X140291979Y-110740605D01*
X140273784Y-110739312D01*
X140265561Y-110726319D01*
X140260340Y-110713666D01*
X140250380Y-110709246D01*
X140240572Y-110722859D01*
X140235951Y-110729900D01*
X140223199Y-110733498D01*
X140207771Y-110734264D01*
X140185941Y-110742234D01*
X140168883Y-110751916D01*
X140166817Y-110760026D01*
X140037371Y-110760026D01*
X140047685Y-110732759D01*
X140070387Y-110695844D01*
X140096880Y-110668979D01*
X140108934Y-110661330D01*
X140140419Y-110647922D01*
X140181606Y-110638426D01*
X140235454Y-110632273D01*
X140304924Y-110628893D01*
X140314246Y-110628660D01*
X140362704Y-110628772D01*
X140393620Y-110631671D01*
X140407834Y-110637426D01*
X140410042Y-110639308D01*
X140427430Y-110648138D01*
X140456451Y-110659379D01*
X140492173Y-110671064D01*
X140503068Y-110674446D01*
X140537534Y-110686617D01*
X140563943Y-110698141D01*
X140577291Y-110706911D01*
X140584378Y-110713080D01*
X140597695Y-110714002D01*
X140602064Y-110712381D01*
X140614093Y-110717888D01*
X140617644Y-110721582D01*
X140632392Y-110723418D01*
X140639396Y-110723316D01*
X140640026Y-110735605D01*
X140639640Y-110737262D01*
X140643060Y-110750610D01*
X140662135Y-110758965D01*
X140665513Y-110759954D01*
X140690336Y-110773035D01*
X140713837Y-110792917D01*
X140718586Y-110797820D01*
X140738386Y-110813847D01*
X140753891Y-110820313D01*
X140761206Y-110821758D01*
X140773777Y-110833424D01*
X140776409Y-110838286D01*
X140790656Y-110848980D01*
X140807475Y-110851292D01*
X140818453Y-110843351D01*
X140819021Y-110835419D01*
X140810258Y-110820313D01*
X140804232Y-110813022D01*
X140802057Y-110798595D01*
X140815247Y-110798595D01*
X140817570Y-110807362D01*
X140828942Y-110823627D01*
X140835635Y-110833452D01*
X140836545Y-110854701D01*
X140834457Y-110860582D01*
X140834692Y-110866724D01*
X140845928Y-110858928D01*
X140849832Y-110855827D01*
X140859521Y-110850935D01*
X140861713Y-110859396D01*
X140860494Y-110866624D01*
X140850486Y-110883930D01*
X140845290Y-110889917D01*
X140844358Y-110895156D01*
X140851402Y-110891016D01*
X140865166Y-110877798D01*
X140868953Y-110872807D01*
X140875130Y-110853774D01*
X140871832Y-110836928D01*
X140859872Y-110829668D01*
X140848649Y-110823819D01*
X140833118Y-110808618D01*
X140832332Y-110807688D01*
X140820363Y-110796847D01*
X140815247Y-110798595D01*
X140802057Y-110798595D01*
X140801916Y-110797657D01*
X140802236Y-110794789D01*
X140794736Y-110780252D01*
X140777163Y-110763258D01*
X140772963Y-110760022D01*
X140750842Y-110742390D01*
X140735301Y-110729124D01*
X140726557Y-110724013D01*
X140706660Y-110723639D01*
X140700786Y-110725491D01*
X140693828Y-110722296D01*
X140695258Y-110705185D01*
X140696271Y-110689476D01*
X140691963Y-110685494D01*
X140687888Y-110685967D01*
X140683959Y-110675856D01*
X140682198Y-110668802D01*
X140669926Y-110661270D01*
X140663471Y-110660215D01*
X140655893Y-110651915D01*
X140652384Y-110646477D01*
X140637182Y-110642560D01*
X140626269Y-110640361D01*
X140618339Y-110630865D01*
X140618274Y-110629990D01*
X140612321Y-110617416D01*
X140596132Y-110595859D01*
X140568870Y-110564346D01*
X140529699Y-110521907D01*
X140477783Y-110467569D01*
X140459495Y-110448226D01*
X140435353Y-110421150D01*
X140418798Y-110400563D01*
X140412652Y-110389834D01*
X140411907Y-110386265D01*
X140403296Y-110385285D01*
X140397098Y-110383627D01*
X140393941Y-110368707D01*
X140390038Y-110352622D01*
X140370552Y-110333830D01*
X140355887Y-110322188D01*
X140347164Y-110299505D01*
X140344388Y-110285717D01*
X140333933Y-110277698D01*
X140326169Y-110273858D01*
X140310419Y-110257718D01*
X140292939Y-110233259D01*
X140281779Y-110216086D01*
X140262267Y-110188606D01*
X140246683Y-110169583D01*
X140244925Y-110167658D01*
X140229357Y-110144180D01*
X140216786Y-110115789D01*
X140214411Y-110109092D01*
X140204894Y-110089227D01*
X140196751Y-110081234D01*
X140192788Y-110079656D01*
X140188121Y-110067200D01*
X140189177Y-110060745D01*
X140197477Y-110053167D01*
X140202539Y-110052239D01*
X140206977Y-110043261D01*
X140200655Y-110029498D01*
X140185519Y-110016856D01*
X140185120Y-110016639D01*
X140166724Y-109999752D01*
X140152163Y-109975515D01*
X140140581Y-109948965D01*
X140129509Y-109926869D01*
X140126813Y-109919583D01*
X140121923Y-109894440D01*
X140117760Y-109858586D01*
X140115572Y-109825638D01*
X140259697Y-109825638D01*
X140262304Y-109853516D01*
X140269093Y-109867263D01*
X140269793Y-109867887D01*
X140279723Y-109884487D01*
X140287147Y-109909098D01*
X140287880Y-109912783D01*
X140293644Y-109932758D01*
X140299284Y-109940902D01*
X140303550Y-109944455D01*
X140314677Y-109960588D01*
X140328648Y-109985340D01*
X140336330Y-109998733D01*
X140361422Y-110034350D01*
X140388481Y-110064862D01*
X140403033Y-110079467D01*
X140415657Y-110094227D01*
X140417436Y-110099944D01*
X140416780Y-110105075D01*
X140426485Y-110118435D01*
X140439832Y-110129578D01*
X140451217Y-110131982D01*
X140454588Y-110131323D01*
X140454148Y-110140242D01*
X140455402Y-110149504D01*
X140467054Y-110169696D01*
X140487558Y-110194521D01*
X140503602Y-110212819D01*
X140525848Y-110241970D01*
X140540574Y-110266003D01*
X140542549Y-110269946D01*
X140555053Y-110288780D01*
X140565744Y-110296479D01*
X140572938Y-110299648D01*
X140590430Y-110313222D01*
X140612111Y-110333284D01*
X140633341Y-110355215D01*
X140649482Y-110374398D01*
X140655893Y-110386215D01*
X140657888Y-110390206D01*
X140671554Y-110402811D01*
X140693907Y-110418159D01*
X140722437Y-110440684D01*
X140737176Y-110467145D01*
X140743048Y-110484842D01*
X140750617Y-110492873D01*
X140753617Y-110493686D01*
X140758919Y-110504567D01*
X140759930Y-110508018D01*
X140771709Y-110521956D01*
X140792436Y-110537904D01*
X140799159Y-110542535D01*
X140816835Y-110559161D01*
X140821009Y-110572129D01*
X140821983Y-110581106D01*
X140836608Y-110590031D01*
X140849277Y-110595945D01*
X140872001Y-110611669D01*
X140897550Y-110632732D01*
X140921402Y-110655095D01*
X140939030Y-110674722D01*
X140945911Y-110687575D01*
X140946985Y-110692075D01*
X140958379Y-110698692D01*
X140964754Y-110701130D01*
X140981420Y-110714669D01*
X141000919Y-110736114D01*
X141012382Y-110749369D01*
X141030842Y-110766736D01*
X141043439Y-110773536D01*
X141051401Y-110775449D01*
X141067071Y-110787013D01*
X141075218Y-110793385D01*
X141092163Y-110795153D01*
X141101960Y-110795189D01*
X141111281Y-110809742D01*
X141117572Y-110821556D01*
X141134111Y-110829668D01*
X141144004Y-110832091D01*
X141151731Y-110843622D01*
X141155378Y-110853774D01*
X141155698Y-110854666D01*
X141170442Y-110869261D01*
X141182047Y-110878687D01*
X141189153Y-110890983D01*
X141189606Y-110892825D01*
X141200668Y-110903127D01*
X141221897Y-110913867D01*
X141227439Y-110916152D01*
X141246813Y-110926329D01*
X141254641Y-110934324D01*
X141256535Y-110938025D01*
X141269550Y-110941933D01*
X141278831Y-110945132D01*
X141289182Y-110959997D01*
X141294275Y-110969739D01*
X141306172Y-110973353D01*
X141315146Y-110974606D01*
X141324755Y-110988549D01*
X141331056Y-111000138D01*
X141341927Y-111004833D01*
X141345218Y-111004752D01*
X141360822Y-111012424D01*
X141380397Y-111028828D01*
X141385756Y-111033851D01*
X141415333Y-111055826D01*
X141447230Y-111073253D01*
X141458597Y-111078407D01*
X141479852Y-111089901D01*
X141489827Y-111098197D01*
X141491297Y-111100539D01*
X141505173Y-111113512D01*
X141528953Y-111131359D01*
X141557761Y-111150582D01*
X141586719Y-111167684D01*
X141597427Y-111173775D01*
X141627886Y-111192415D01*
X141665909Y-111216759D01*
X141706803Y-111243694D01*
X141745874Y-111270109D01*
X141778428Y-111292891D01*
X141799771Y-111308930D01*
X141802392Y-111311032D01*
X141822939Y-111324674D01*
X141838011Y-111330334D01*
X141848030Y-111333227D01*
X141865104Y-111345241D01*
X141883698Y-111358986D01*
X141908724Y-111371953D01*
X141910751Y-111372824D01*
X141929771Y-111384766D01*
X141937587Y-111396807D01*
X141940768Y-111404121D01*
X141955505Y-111409705D01*
X141959544Y-111410253D01*
X141978915Y-111419899D01*
X141999913Y-111437771D01*
X142005295Y-111443077D01*
X142027714Y-111459303D01*
X142047154Y-111465838D01*
X142061631Y-111469648D01*
X142078059Y-111484811D01*
X142086233Y-111495732D01*
X142095922Y-111499019D01*
X142097362Y-111498567D01*
X142110404Y-111503451D01*
X142128679Y-111517468D01*
X142131776Y-111520261D01*
X142151191Y-111534770D01*
X142165196Y-111540681D01*
X142178668Y-111544708D01*
X142198580Y-111556031D01*
X142201714Y-111558060D01*
X142225281Y-111567770D01*
X142252458Y-111573000D01*
X142276248Y-111572930D01*
X142289659Y-111566736D01*
X142289595Y-111557585D01*
X142279977Y-111541694D01*
X142270811Y-111529250D01*
X142265027Y-111514217D01*
X142263054Y-111508809D01*
X142249980Y-111503259D01*
X142249071Y-111503246D01*
X142239365Y-111497964D01*
X142240663Y-111480428D01*
X142241737Y-111462882D01*
X142229367Y-111445345D01*
X142218751Y-111435628D01*
X142206234Y-111416722D01*
X142200755Y-111408021D01*
X142185622Y-111400350D01*
X142183292Y-111400239D01*
X142175201Y-111393819D01*
X142176729Y-111374622D01*
X142178435Y-111366159D01*
X142178593Y-111356713D01*
X142172373Y-111362928D01*
X142166564Y-111367454D01*
X142163275Y-111358248D01*
X142162261Y-111332523D01*
X142161697Y-111317820D01*
X142158341Y-111296475D01*
X142155856Y-111292574D01*
X142323159Y-111292574D01*
X142324279Y-111303677D01*
X142327093Y-111305140D01*
X142330516Y-111297440D01*
X142329840Y-111292487D01*
X142324279Y-111291203D01*
X142323159Y-111292574D01*
X142155856Y-111292574D01*
X142152996Y-111288084D01*
X142148117Y-111280399D01*
X142149164Y-111261635D01*
X142149434Y-111239357D01*
X142134932Y-111203164D01*
X142131949Y-111198037D01*
X142120167Y-111172060D01*
X142115376Y-111151237D01*
X142112968Y-111138223D01*
X142101192Y-111119591D01*
X142092640Y-111108835D01*
X142097561Y-111095176D01*
X142102089Y-111086086D01*
X142101519Y-111066012D01*
X142097515Y-111054399D01*
X142089234Y-111021699D01*
X142083755Y-110988711D01*
X142079927Y-110974641D01*
X142069968Y-110952826D01*
X142063116Y-110936719D01*
X142063068Y-110925599D01*
X142062026Y-110918901D01*
X142049793Y-110907159D01*
X142048991Y-110906584D01*
X142035309Y-110888044D01*
X142031142Y-110857204D01*
X142030920Y-110847291D01*
X142026930Y-110826582D01*
X142017109Y-110820313D01*
X142008166Y-110816020D01*
X142003075Y-110798070D01*
X142000231Y-110782323D01*
X141989042Y-110764180D01*
X141979176Y-110747329D01*
X141975009Y-110722723D01*
X141971221Y-110697210D01*
X141961273Y-110674753D01*
X141952743Y-110658297D01*
X141947240Y-110632006D01*
X141943287Y-110614389D01*
X141927794Y-110594585D01*
X141914811Y-110579967D01*
X141906595Y-110548810D01*
X141905901Y-110542426D01*
X141897555Y-110511000D01*
X141883535Y-110480265D01*
X141878018Y-110470259D01*
X141868924Y-110448708D01*
X141867749Y-110436211D01*
X141868986Y-110430818D01*
X141865526Y-110409022D01*
X141854834Y-110375935D01*
X141838118Y-110335019D01*
X141816587Y-110289736D01*
X141802514Y-110260236D01*
X141791942Y-110234404D01*
X141787900Y-110219331D01*
X141782552Y-110202722D01*
X141769496Y-110181980D01*
X141768519Y-110180722D01*
X141757787Y-110163434D01*
X141756262Y-110153412D01*
X141756993Y-110151716D01*
X141754846Y-110137234D01*
X141746600Y-110114737D01*
X141746163Y-110113749D01*
X141731617Y-110080872D01*
X141717376Y-110048660D01*
X141714919Y-110043041D01*
X141706295Y-110022240D01*
X141702632Y-110011498D01*
X141700886Y-110005234D01*
X141694198Y-109985400D01*
X141684279Y-109957666D01*
X141677382Y-109937461D01*
X141669392Y-109909288D01*
X141666280Y-109891023D01*
X141662867Y-109872806D01*
X141657332Y-109858976D01*
X141838411Y-109858976D01*
X141838503Y-109866059D01*
X141842318Y-109863644D01*
X141853388Y-109852025D01*
X141858633Y-109843555D01*
X141855535Y-109837992D01*
X141850465Y-109839631D01*
X141840650Y-109852025D01*
X141838411Y-109858976D01*
X141657332Y-109858976D01*
X141653255Y-109848791D01*
X141649527Y-109841319D01*
X141636893Y-109813156D01*
X141624229Y-109781860D01*
X141619376Y-109769331D01*
X141613780Y-109755647D01*
X141817915Y-109755647D01*
X141820538Y-109781229D01*
X141821123Y-109784512D01*
X141829361Y-109810292D01*
X141840808Y-109819281D01*
X141849498Y-109815608D01*
X141848502Y-109799914D01*
X141847730Y-109783966D01*
X141861905Y-109775434D01*
X141868470Y-109773314D01*
X141880527Y-109764192D01*
X141876892Y-109756550D01*
X141858535Y-109755994D01*
X141843209Y-109756447D01*
X141830248Y-109746390D01*
X141823874Y-109735643D01*
X141819322Y-109739395D01*
X141817915Y-109755647D01*
X141613780Y-109755647D01*
X141608158Y-109741898D01*
X141599831Y-109723515D01*
X141598975Y-109721049D01*
X141815967Y-109721049D01*
X141820644Y-109725727D01*
X141825322Y-109721049D01*
X141820644Y-109716372D01*
X141815967Y-109721049D01*
X141598975Y-109721049D01*
X141595015Y-109709636D01*
X141840770Y-109709636D01*
X141841169Y-109713037D01*
X141845834Y-109716793D01*
X141846238Y-109721049D01*
X141847184Y-109731009D01*
X141845692Y-109737546D01*
X141850049Y-109743699D01*
X141855781Y-109742913D01*
X141874871Y-109734680D01*
X141881769Y-109722639D01*
X141875659Y-109711946D01*
X141855727Y-109707755D01*
X141855358Y-109707766D01*
X141840770Y-109709636D01*
X141595015Y-109709636D01*
X141594765Y-109708915D01*
X141591436Y-109683755D01*
X141591434Y-109683165D01*
X141587041Y-109665256D01*
X141571800Y-109660239D01*
X141571377Y-109660236D01*
X141548928Y-109656221D01*
X141522684Y-109646880D01*
X141502157Y-109641281D01*
X141467444Y-109635633D01*
X141423140Y-109630415D01*
X141373809Y-109626093D01*
X141324014Y-109623131D01*
X141278318Y-109621994D01*
X141267316Y-109620524D01*
X141254451Y-109613154D01*
X141242076Y-109609155D01*
X141216802Y-109613581D01*
X141204430Y-109616827D01*
X141167580Y-109622297D01*
X141140605Y-109619571D01*
X141127068Y-109608838D01*
X141123212Y-109602534D01*
X141113176Y-109600129D01*
X141110899Y-109602076D01*
X141110031Y-109614108D01*
X141110715Y-109618570D01*
X141100828Y-109622817D01*
X141093888Y-109621966D01*
X141086242Y-109615801D01*
X141082404Y-109612983D01*
X141064577Y-109609391D01*
X141037126Y-109607425D01*
X140968949Y-109605657D01*
X140905163Y-109604382D01*
X140856530Y-109603986D01*
X140821144Y-109604500D01*
X140797100Y-109605956D01*
X140782491Y-109608386D01*
X140775411Y-109611823D01*
X140761879Y-109617191D01*
X140739565Y-109616631D01*
X140735747Y-109616044D01*
X140707940Y-109616889D01*
X140677780Y-109623614D01*
X140653411Y-109629445D01*
X140615869Y-109634633D01*
X140576372Y-109637156D01*
X140541462Y-109638596D01*
X140512893Y-109641039D01*
X140496851Y-109643955D01*
X140473781Y-109650999D01*
X140436669Y-109658232D01*
X140404265Y-109660748D01*
X140388293Y-109662492D01*
X140369592Y-109670391D01*
X140362303Y-109674689D01*
X140348220Y-109674925D01*
X140344693Y-109673564D01*
X140333225Y-109678797D01*
X140327996Y-109683574D01*
X140310640Y-109688305D01*
X140294197Y-109691695D01*
X140277072Y-109708451D01*
X140266099Y-109740490D01*
X140260580Y-109789220D01*
X140259697Y-109825638D01*
X140115572Y-109825638D01*
X140115012Y-109817213D01*
X140111123Y-109726268D01*
X140156639Y-109683879D01*
X140179180Y-109661995D01*
X140195915Y-109643973D01*
X140202399Y-109634493D01*
X140204680Y-109626105D01*
X140217486Y-109606141D01*
X140236661Y-109587067D01*
X140245201Y-109583156D01*
X140270554Y-109576766D01*
X140306617Y-109570628D01*
X140348595Y-109565660D01*
X140373926Y-109562952D01*
X140412433Y-109557309D01*
X140439571Y-109551208D01*
X140451682Y-109545371D01*
X140457885Y-109541016D01*
X140478969Y-109535182D01*
X140508146Y-109532008D01*
X140524421Y-109531252D01*
X140576921Y-109527993D01*
X140623174Y-109523926D01*
X140660066Y-109519411D01*
X140684484Y-109514810D01*
X140693315Y-109510486D01*
X140697926Y-109505954D01*
X140714364Y-109503270D01*
X140719694Y-109503256D01*
X140744077Y-109502962D01*
X140779278Y-109502368D01*
X140819613Y-109501566D01*
X140856692Y-109501026D01*
X140910853Y-109500711D01*
X140969720Y-109500747D01*
X141025769Y-109501150D01*
X141033500Y-109501234D01*
X141079009Y-109501570D01*
X141117265Y-109501595D01*
X141144450Y-109501320D01*
X141156745Y-109500756D01*
X141158017Y-109500529D01*
X141170442Y-109500559D01*
X141171275Y-109500749D01*
X141185869Y-109502235D01*
X141214730Y-109504317D01*
X141254122Y-109506771D01*
X141300308Y-109509375D01*
X141349549Y-109511906D01*
X141398109Y-109514140D01*
X141417131Y-109514801D01*
X141449923Y-109514469D01*
X141468604Y-109511182D01*
X141476292Y-109504560D01*
X141479462Y-109499327D01*
X141494205Y-109491841D01*
X141498174Y-109491517D01*
X141506512Y-109483637D01*
X141501442Y-109467561D01*
X141483687Y-109446421D01*
X141481761Y-109444566D01*
X141466655Y-109427570D01*
X141460460Y-109416016D01*
X141454362Y-109410449D01*
X141436507Y-109407642D01*
X141435196Y-109407639D01*
X141420306Y-109405497D01*
X141414820Y-109395710D01*
X141415457Y-109372853D01*
X141415640Y-109370662D01*
X141417639Y-109354200D01*
X141422624Y-109342475D01*
X141434062Y-109332273D01*
X141455420Y-109320377D01*
X141490165Y-109303573D01*
X141497977Y-109301423D01*
X141522545Y-109299839D01*
X141553089Y-109301689D01*
X141573907Y-109304896D01*
X141596162Y-109312619D01*
X141605875Y-109324720D01*
X141610471Y-109334474D01*
X141620116Y-109342154D01*
X141624112Y-109344158D01*
X141636655Y-109357955D01*
X141652448Y-109380276D01*
X141668040Y-109405687D01*
X141679979Y-109428751D01*
X141684813Y-109444033D01*
X141687843Y-109453618D01*
X141701134Y-109468839D01*
X141710478Y-109479485D01*
X141717506Y-109501542D01*
X141723815Y-109516101D01*
X141746613Y-109530477D01*
X141786686Y-109542600D01*
X141844714Y-109552745D01*
X141860660Y-109555401D01*
X141884412Y-109561468D01*
X141896030Y-109567561D01*
X141904072Y-109572822D01*
X141923327Y-109576040D01*
X141937879Y-109578002D01*
X141948502Y-109584821D01*
X141956121Y-109591306D01*
X141975009Y-109596945D01*
X142007934Y-109606821D01*
X142031937Y-109626875D01*
X142040497Y-109654388D01*
X142040460Y-109657669D01*
X142036410Y-109691768D01*
X142027547Y-109722639D01*
X142027126Y-109724105D01*
X142014690Y-109749041D01*
X142001184Y-109760933D01*
X141994190Y-109764192D01*
X141992123Y-109765155D01*
X141984364Y-109777011D01*
G37*
G36*
X140178326Y-111260157D02*
G01*
X140194405Y-111265088D01*
X140195856Y-111273636D01*
X140181105Y-111281075D01*
X140178906Y-111281543D01*
X140158058Y-111280917D01*
X140150700Y-111268821D01*
X140156504Y-111263033D01*
X140174088Y-111260018D01*
X140178326Y-111260157D01*
G37*
G36*
X150644377Y-111319269D02*
G01*
X150645840Y-111322083D01*
X150638140Y-111325506D01*
X150633187Y-111324831D01*
X150631903Y-111319269D01*
X150633274Y-111318150D01*
X150644377Y-111319269D01*
G37*
G36*
X139636151Y-111236630D02*
G01*
X139631473Y-111241307D01*
X139626795Y-111236630D01*
X139631473Y-111231952D01*
X139636151Y-111236630D01*
G37*
G36*
X138681897Y-111292762D02*
G01*
X138677219Y-111297440D01*
X138672541Y-111292762D01*
X138677219Y-111288084D01*
X138681897Y-111292762D01*
G37*
G36*
X150050525Y-110737169D02*
G01*
X150058103Y-110745469D01*
X150056520Y-110749773D01*
X150044070Y-110754825D01*
X150037614Y-110753769D01*
X150030037Y-110745469D01*
X150031620Y-110741166D01*
X150044070Y-110736114D01*
X150050525Y-110737169D01*
G37*
G36*
X151230093Y-109694882D02*
G01*
X151236888Y-109707568D01*
X151236394Y-109712815D01*
X151231512Y-109715021D01*
X151223962Y-109701853D01*
X151222323Y-109694555D01*
X151227639Y-109693049D01*
X151230093Y-109694882D01*
G37*
G36*
X137967263Y-109603088D02*
G01*
X137995508Y-109606520D01*
X138011160Y-109612574D01*
X138013982Y-109614622D01*
X138033034Y-109620468D01*
X138059760Y-109622817D01*
X138067814Y-109622991D01*
X138092637Y-109625812D01*
X138107005Y-109630988D01*
X138116546Y-109637026D01*
X138140238Y-109649120D01*
X138173067Y-109664584D01*
X138210695Y-109681511D01*
X138248787Y-109697996D01*
X138283006Y-109712131D01*
X138309016Y-109722010D01*
X138322481Y-109725727D01*
X138328302Y-109727075D01*
X138335746Y-109738926D01*
X138338341Y-109744734D01*
X138353551Y-109758308D01*
X138377845Y-109772504D01*
X138392564Y-109780189D01*
X138412237Y-109792899D01*
X138419945Y-109801699D01*
X138422527Y-109807382D01*
X138436317Y-109816510D01*
X138447096Y-109822746D01*
X138469108Y-109841219D01*
X138494377Y-109866471D01*
X138518534Y-109893763D01*
X138537212Y-109918361D01*
X138546045Y-109935526D01*
X138551012Y-109959931D01*
X138560280Y-110009703D01*
X138565974Y-110049803D01*
X138568842Y-110086241D01*
X138569632Y-110125028D01*
X138569528Y-110147557D01*
X138568107Y-110176132D01*
X138563580Y-110194893D01*
X138554163Y-110209529D01*
X138538072Y-110225732D01*
X138529593Y-110234174D01*
X138510898Y-110256292D01*
X138500753Y-110273614D01*
X138500085Y-110275486D01*
X138488706Y-110295385D01*
X138471124Y-110317458D01*
X138466610Y-110322249D01*
X138447690Y-110338934D01*
X138434359Y-110341612D01*
X138422425Y-110331491D01*
X138417896Y-110318247D01*
X138415994Y-110291952D01*
X138417494Y-110261439D01*
X138421958Y-110234312D01*
X138428948Y-110218175D01*
X138437571Y-110204900D01*
X138434960Y-110190082D01*
X138417606Y-110183486D01*
X138415488Y-110183407D01*
X138404364Y-110181386D01*
X138410875Y-110176469D01*
X138414172Y-110174370D01*
X138423262Y-110156788D01*
X138426249Y-110128530D01*
X138423475Y-110095071D01*
X138415283Y-110061888D01*
X138402013Y-110034456D01*
X138393829Y-110023391D01*
X138370205Y-109995674D01*
X138342076Y-109966356D01*
X138313568Y-109939426D01*
X138288807Y-109918872D01*
X138271921Y-109908686D01*
X138260123Y-109901027D01*
X138246785Y-109882516D01*
X138235168Y-109867468D01*
X138211786Y-109862392D01*
X138194110Y-109860792D01*
X138186059Y-109855063D01*
X138185792Y-109853134D01*
X138176605Y-109838130D01*
X138158218Y-109818615D01*
X138135954Y-109799289D01*
X138115131Y-109784851D01*
X138101071Y-109780000D01*
X138092505Y-109779436D01*
X138080115Y-109768736D01*
X138078715Y-109766316D01*
X138063519Y-109756015D01*
X138039202Y-109748744D01*
X138024114Y-109745886D01*
X137984959Y-109736882D01*
X137943323Y-109725723D01*
X137906151Y-109714337D01*
X137880389Y-109704654D01*
X137861966Y-109700121D01*
X137835468Y-109701443D01*
X137816146Y-109702822D01*
X137788820Y-109690266D01*
X137766765Y-109672917D01*
X137796320Y-109649398D01*
X137799894Y-109646594D01*
X137825925Y-109627842D01*
X137848725Y-109613700D01*
X137866251Y-109608124D01*
X137896707Y-109603932D01*
X137932354Y-109602239D01*
X137967263Y-109603088D01*
G37*
G36*
X138691252Y-111274051D02*
G01*
X138686574Y-111278729D01*
X138681897Y-111274051D01*
X138686574Y-111269374D01*
X138691252Y-111274051D01*
G37*
G36*
X139187824Y-111544402D02*
G01*
X139176703Y-111555703D01*
X139174660Y-111557634D01*
X139150887Y-111577623D01*
X139129215Y-111592397D01*
X139112519Y-111597954D01*
X139081869Y-111602968D01*
X139046398Y-111605252D01*
X139025246Y-111604825D01*
X138979330Y-111598216D01*
X138942082Y-111584957D01*
X138916010Y-111566576D01*
X138903623Y-111544603D01*
X138906468Y-111526648D01*
X139046759Y-111526648D01*
X139051436Y-111531326D01*
X139056114Y-111526648D01*
X139051436Y-111521970D01*
X139046759Y-111526648D01*
X138906468Y-111526648D01*
X138907431Y-111520567D01*
X138910343Y-111509200D01*
X138899917Y-111499173D01*
X138894363Y-111496850D01*
X138889407Y-111490441D01*
X138899008Y-111478603D01*
X138908222Y-111470802D01*
X138919856Y-111469820D01*
X138938090Y-111480023D01*
X138938577Y-111480343D01*
X138955532Y-111493633D01*
X138962560Y-111503321D01*
X138968577Y-111510528D01*
X138987861Y-111516557D01*
X139014573Y-111518906D01*
X139042641Y-111516570D01*
X139047069Y-111515673D01*
X139068404Y-111507094D01*
X139074825Y-111492900D01*
X139074192Y-111486544D01*
X139068809Y-111462432D01*
X139059522Y-111429755D01*
X139048261Y-111394681D01*
X139036960Y-111363375D01*
X139027549Y-111342005D01*
X139023226Y-111331735D01*
X139018692Y-111307474D01*
X139017323Y-111296635D01*
X139010322Y-111284016D01*
X139008811Y-111282597D01*
X138999306Y-111268192D01*
X138985122Y-111242452D01*
X138968723Y-111209772D01*
X138966641Y-111205471D01*
X138947138Y-111167178D01*
X138927471Y-111131443D01*
X138911604Y-111105499D01*
X138905344Y-111095729D01*
X138892732Y-111071647D01*
X138887716Y-111054753D01*
X138887681Y-111054023D01*
X138882059Y-111037853D01*
X138868701Y-111011969D01*
X138850295Y-110981617D01*
X138848599Y-110978993D01*
X138830535Y-110948973D01*
X138817734Y-110924017D01*
X138812873Y-110909298D01*
X138811288Y-110901912D01*
X138798840Y-110889184D01*
X138792276Y-110885572D01*
X138784806Y-110874452D01*
X138784789Y-110874078D01*
X138777503Y-110861988D01*
X138760988Y-110846369D01*
X138758241Y-110844066D01*
X138736751Y-110817834D01*
X138715390Y-110779245D01*
X138697182Y-110733635D01*
X138689233Y-110721453D01*
X138670442Y-110707929D01*
X138654981Y-110700730D01*
X138635120Y-110690034D01*
X138626354Y-110685242D01*
X138603744Y-110675900D01*
X138594571Y-110670574D01*
X138591493Y-110657198D01*
X138590593Y-110642313D01*
X138574421Y-110627756D01*
X138544715Y-110618106D01*
X138523206Y-110610801D01*
X138498863Y-110595190D01*
X138481362Y-110583256D01*
X138460364Y-110577072D01*
X138440118Y-110571701D01*
X138417392Y-110558361D01*
X138417379Y-110558351D01*
X138396210Y-110545143D01*
X138378708Y-110539650D01*
X138371501Y-110539158D01*
X138363812Y-110535737D01*
X138362863Y-110531194D01*
X138357596Y-110515626D01*
X138355672Y-110509636D01*
X138358599Y-110502998D01*
X138375169Y-110505398D01*
X138389085Y-110506942D01*
X138419053Y-110505904D01*
X138453040Y-110501371D01*
X138453678Y-110501254D01*
X138489744Y-110496958D01*
X138521885Y-110499660D01*
X138556480Y-110510660D01*
X138599910Y-110531255D01*
X138610009Y-110535469D01*
X138630442Y-110539650D01*
X138631509Y-110539682D01*
X138651361Y-110545101D01*
X138674804Y-110556342D01*
X138691252Y-110568398D01*
X138694900Y-110571516D01*
X138709963Y-110580092D01*
X138726094Y-110588980D01*
X138753589Y-110608048D01*
X138781816Y-110630747D01*
X138805250Y-110652550D01*
X138818366Y-110668928D01*
X138820414Y-110672453D01*
X138837245Y-110691759D01*
X138860466Y-110710595D01*
X138883088Y-110730528D01*
X138895460Y-110758565D01*
X138898834Y-110770450D01*
X138914593Y-110797819D01*
X138939899Y-110828265D01*
X138962411Y-110853911D01*
X138977012Y-110878332D01*
X138981271Y-110901008D01*
X138984713Y-110922797D01*
X138995444Y-110936015D01*
X139006188Y-110943997D01*
X139018671Y-110962743D01*
X139021432Y-110968810D01*
X139037647Y-110998716D01*
X139060807Y-111036321D01*
X139087471Y-111075964D01*
X139090631Y-111080876D01*
X139103857Y-111108928D01*
X139113740Y-111140547D01*
X139125297Y-111171955D01*
X139151101Y-111206511D01*
X139153733Y-111208979D01*
X139170991Y-111230456D01*
X139174014Y-111246864D01*
X139173721Y-111247740D01*
X139174619Y-111266148D01*
X139183184Y-111289577D01*
X139185983Y-111295833D01*
X139193079Y-111323802D01*
X139197725Y-111365931D01*
X139200200Y-111424448D01*
X139200943Y-111461686D01*
X139200951Y-111495908D01*
X139199240Y-111518463D01*
X139196958Y-111526648D01*
X139195101Y-111533308D01*
X139187824Y-111544402D01*
G37*
G36*
X147410516Y-110394641D02*
G01*
X147405838Y-110399318D01*
X147401160Y-110394641D01*
X147405838Y-110389963D01*
X147410516Y-110394641D01*
G37*
G36*
X138791043Y-111394113D02*
G01*
X138792507Y-111396927D01*
X138784806Y-111400350D01*
X138779854Y-111399674D01*
X138778570Y-111394113D01*
X138779941Y-111392993D01*
X138791043Y-111394113D01*
G37*
G36*
X146916399Y-111201332D02*
G01*
X146924033Y-111212947D01*
X146921055Y-111219463D01*
X146907224Y-111221805D01*
X146887951Y-111214267D01*
X146880948Y-111207813D01*
X146886060Y-111199548D01*
X146899815Y-111196316D01*
X146916399Y-111201332D01*
G37*
G36*
X138824464Y-111438043D02*
G01*
X138831584Y-111447127D01*
X138831312Y-111449363D01*
X138822228Y-111456482D01*
X138819992Y-111456210D01*
X138812873Y-111447127D01*
X138813145Y-111444891D01*
X138822228Y-111437771D01*
X138824464Y-111438043D01*
G37*
G36*
X152056112Y-110114938D02*
G01*
X152078792Y-110132630D01*
X152114733Y-110157537D01*
X152101185Y-110189963D01*
X152099171Y-110195046D01*
X152092866Y-110217585D01*
X152093175Y-110231350D01*
X152090802Y-110239759D01*
X152075743Y-110249044D01*
X152059910Y-110257080D01*
X152049452Y-110267273D01*
X152048883Y-110268177D01*
X152034803Y-110271300D01*
X152002662Y-110270084D01*
X151952578Y-110264534D01*
X151934671Y-110262329D01*
X151892550Y-110258495D01*
X151862695Y-110257940D01*
X151848162Y-110260775D01*
X151842512Y-110263855D01*
X151831357Y-110259633D01*
X151824873Y-110255356D01*
X151806616Y-110261517D01*
X151802408Y-110263985D01*
X151788463Y-110267577D01*
X151778595Y-110256785D01*
X151769330Y-110247255D01*
X151748709Y-110240160D01*
X151732321Y-110239753D01*
X151704659Y-110238806D01*
X151686867Y-110238586D01*
X151651846Y-110239517D01*
X151610027Y-110241644D01*
X151565660Y-110244639D01*
X151522992Y-110248172D01*
X151486274Y-110251915D01*
X151459752Y-110255538D01*
X151447676Y-110258712D01*
X151444784Y-110260850D01*
X151424360Y-110271499D01*
X151395885Y-110282767D01*
X151365633Y-110292572D01*
X151339880Y-110298830D01*
X151324900Y-110299460D01*
X151315331Y-110300488D01*
X151313998Y-110316430D01*
X151313157Y-110330386D01*
X151305285Y-110336359D01*
X151297283Y-110339032D01*
X151288030Y-110353524D01*
X151287662Y-110354651D01*
X151278105Y-110367733D01*
X151259394Y-110367189D01*
X151241936Y-110366070D01*
X151236888Y-110376124D01*
X151236012Y-110382035D01*
X151228739Y-110403513D01*
X151216501Y-110430096D01*
X151204660Y-110454217D01*
X151196261Y-110477049D01*
X151191902Y-110501300D01*
X151190600Y-110532723D01*
X151191371Y-110577072D01*
X151191372Y-110577099D01*
X151192400Y-110617241D01*
X151193203Y-110655041D01*
X151193608Y-110682320D01*
X151193711Y-110688151D01*
X151197263Y-110709657D01*
X151209429Y-110718747D01*
X151235083Y-110719827D01*
X151243039Y-110725602D01*
X151241529Y-110745633D01*
X151240229Y-110756872D01*
X151244407Y-110782485D01*
X151255988Y-110802731D01*
X151271882Y-110810957D01*
X151279214Y-110812813D01*
X151283095Y-110822871D01*
X151273801Y-110834660D01*
X151269502Y-110842218D01*
X151276999Y-110860940D01*
X151286542Y-110879167D01*
X151296328Y-110906580D01*
X151305027Y-110925732D01*
X151321197Y-110941992D01*
X151332380Y-110950683D01*
X151339797Y-110965322D01*
X151343137Y-110974899D01*
X151357524Y-110988184D01*
X151372736Y-111002930D01*
X151385147Y-111026058D01*
X151385218Y-111026261D01*
X151396446Y-111047818D01*
X151409519Y-111060001D01*
X151416432Y-111064245D01*
X151423996Y-111078588D01*
X151424429Y-111082625D01*
X151434764Y-111092110D01*
X151460018Y-111092103D01*
X151465251Y-111092426D01*
X151466693Y-111100009D01*
X151465859Y-111106051D01*
X151474042Y-111121758D01*
X151490811Y-111138437D01*
X151511249Y-111150513D01*
X151519721Y-111156644D01*
X151526906Y-111174510D01*
X151526967Y-111176013D01*
X151536834Y-111192430D01*
X151564328Y-111207472D01*
X151574042Y-111211683D01*
X151593863Y-111222946D01*
X151601749Y-111231876D01*
X151602563Y-111235351D01*
X151613444Y-111241687D01*
X151617719Y-111242779D01*
X151635165Y-111252648D01*
X151657064Y-111269366D01*
X151666601Y-111277029D01*
X151685673Y-111289220D01*
X151696825Y-111291822D01*
X151700807Y-111291400D01*
X151704659Y-111301565D01*
X151706266Y-111308596D01*
X151717547Y-111316151D01*
X151726153Y-111318295D01*
X151742081Y-111330184D01*
X151750466Y-111337500D01*
X151769393Y-111344217D01*
X151772069Y-111344545D01*
X151789201Y-111353822D01*
X151808008Y-111371887D01*
X151811900Y-111376397D01*
X151829524Y-111393024D01*
X151842652Y-111399953D01*
X151855405Y-111405110D01*
X151873057Y-111419060D01*
X151890957Y-111431264D01*
X151915156Y-111437771D01*
X151930652Y-111440665D01*
X151939091Y-111449466D01*
X151940772Y-111452642D01*
X151955061Y-111464463D01*
X151980739Y-111480568D01*
X152013935Y-111498423D01*
X152029490Y-111506368D01*
X152059592Y-111522689D01*
X152080439Y-111535351D01*
X152088232Y-111542118D01*
X152088266Y-111542441D01*
X152097236Y-111548741D01*
X152117264Y-111554926D01*
X152135722Y-111560541D01*
X152167252Y-111572948D01*
X152200938Y-111588414D01*
X152228432Y-111601181D01*
X152254696Y-111611547D01*
X152270432Y-111615525D01*
X152277872Y-111617108D01*
X152290668Y-111629558D01*
X152295599Y-111636599D01*
X152312458Y-111643591D01*
X152317531Y-111644306D01*
X152338495Y-111652524D01*
X152363327Y-111666979D01*
X152372667Y-111673059D01*
X152394904Y-111685495D01*
X152409071Y-111690509D01*
X152410456Y-111690562D01*
X152431860Y-111695088D01*
X152459737Y-111704644D01*
X152485870Y-111716073D01*
X152502043Y-111726219D01*
X152508118Y-111731088D01*
X152524413Y-111737145D01*
X152527062Y-111737571D01*
X152543479Y-111745806D01*
X152564474Y-111761225D01*
X152569407Y-111765110D01*
X152593624Y-111778758D01*
X152614308Y-111783198D01*
X152622042Y-111783002D01*
X152649246Y-111787844D01*
X152675248Y-111798383D01*
X152691301Y-111811412D01*
X152695055Y-111815483D01*
X152711445Y-111821344D01*
X152723828Y-111824268D01*
X152748602Y-111833727D01*
X152778720Y-111847460D01*
X152804882Y-111859112D01*
X152831067Y-111868172D01*
X152846882Y-111870448D01*
X152857089Y-111871130D01*
X152873755Y-111881753D01*
X152884667Y-111890132D01*
X152906908Y-111896188D01*
X152928959Y-111900069D01*
X152954879Y-111910163D01*
X152978208Y-111919970D01*
X152997496Y-111924196D01*
X153005715Y-111925235D01*
X153018372Y-111932436D01*
X153021613Y-111934939D01*
X153039473Y-111943193D01*
X153068856Y-111954274D01*
X153105462Y-111966498D01*
X153117620Y-111970358D01*
X153161713Y-111984688D01*
X153203132Y-111998586D01*
X153234272Y-112009514D01*
X153251080Y-112015396D01*
X153282412Y-112025114D01*
X153305558Y-112030743D01*
X153324409Y-112035225D01*
X153347657Y-112044017D01*
X153360658Y-112049867D01*
X153394459Y-112061496D01*
X153433991Y-112072276D01*
X153471538Y-112080208D01*
X153499386Y-112083296D01*
X153500996Y-112083310D01*
X153520806Y-112086215D01*
X153528969Y-112092652D01*
X153530477Y-112095185D01*
X153544747Y-112100068D01*
X153569197Y-112102007D01*
X153579047Y-112102256D01*
X153604054Y-112105272D01*
X153618313Y-112110613D01*
X153631372Y-112113590D01*
X153655267Y-112106695D01*
X153683333Y-112094171D01*
X153657054Y-112093411D01*
X153640090Y-112090397D01*
X153636034Y-112084140D01*
X153638333Y-112068294D01*
X153626689Y-112051783D01*
X153603677Y-112041167D01*
X153582987Y-112033789D01*
X153565891Y-112021885D01*
X153558623Y-112014929D01*
X153544195Y-112008245D01*
X153537960Y-112007432D01*
X153519108Y-111997390D01*
X153502592Y-111979361D01*
X153490452Y-111957722D01*
X153484729Y-111936848D01*
X153487461Y-111921115D01*
X153500687Y-111914898D01*
X153511749Y-111916966D01*
X153537918Y-111924775D01*
X153573571Y-111937042D01*
X153614318Y-111952320D01*
X153647064Y-111964814D01*
X153682664Y-111977716D01*
X153709091Y-111986499D01*
X153722248Y-111989742D01*
X153733452Y-111992008D01*
X153758467Y-112000626D01*
X153789726Y-112013516D01*
X153821282Y-112028357D01*
X153821907Y-112028666D01*
X153842973Y-112035570D01*
X153870155Y-112040789D01*
X153870692Y-112040859D01*
X153899138Y-112046870D01*
X153922158Y-112055370D01*
X153936591Y-112061701D01*
X153962162Y-112068703D01*
X153990846Y-112074576D01*
X154016685Y-112087219D01*
X154028570Y-112106375D01*
X154029558Y-112121335D01*
X154021387Y-112151349D01*
X154004081Y-112179444D01*
X153981691Y-112197727D01*
X153966815Y-112206122D01*
X153959318Y-112214272D01*
X153959318Y-112214336D01*
X153951627Y-112222558D01*
X153934494Y-112231786D01*
X153916293Y-112238284D01*
X153905402Y-112238318D01*
X153905115Y-112238090D01*
X153894689Y-112240638D01*
X153877283Y-112252000D01*
X153867304Y-112259837D01*
X153853457Y-112268429D01*
X153842117Y-112266997D01*
X153824756Y-112256226D01*
X153814322Y-112250181D01*
X153797013Y-112247047D01*
X153774044Y-112254271D01*
X153773645Y-112254438D01*
X153737311Y-112262031D01*
X153686086Y-112260561D01*
X153657822Y-112258699D01*
X153626814Y-112258994D01*
X153606876Y-112262008D01*
X153593913Y-112264687D01*
X153576465Y-112257238D01*
X153574168Y-112255017D01*
X153554354Y-112248854D01*
X153518616Y-112249676D01*
X153506121Y-112250658D01*
X153477128Y-112249698D01*
X153463458Y-112242302D01*
X153456952Y-112237488D01*
X153435529Y-112230678D01*
X153406131Y-112226336D01*
X153386616Y-112224116D01*
X153362395Y-112219062D01*
X153350619Y-112213308D01*
X153346001Y-112209590D01*
X153330625Y-112209815D01*
X153322116Y-112210717D01*
X153310369Y-112200132D01*
X153303368Y-112191071D01*
X153285086Y-112191087D01*
X153272853Y-112192727D01*
X153254635Y-112183571D01*
X153246040Y-112175615D01*
X153224917Y-112164801D01*
X153214278Y-112161517D01*
X153188102Y-112152470D01*
X153157201Y-112141065D01*
X153136838Y-112134209D01*
X153108771Y-112127666D01*
X153090429Y-112127058D01*
X153079425Y-112127906D01*
X153066378Y-112121533D01*
X153060926Y-112116419D01*
X153043300Y-112111362D01*
X153041351Y-112111227D01*
X153022513Y-112103633D01*
X153001271Y-112087974D01*
X152976176Y-112071450D01*
X152949697Y-112064585D01*
X152938841Y-112063635D01*
X152909570Y-112057180D01*
X152877675Y-112046636D01*
X152864789Y-112041742D01*
X152824887Y-112027911D01*
X152788154Y-112016706D01*
X152783657Y-112015432D01*
X152752728Y-112002355D01*
X152739512Y-111986339D01*
X152737893Y-111980735D01*
X152731604Y-111973235D01*
X152718914Y-111981058D01*
X152711764Y-111986369D01*
X152700989Y-111987248D01*
X152689233Y-111973241D01*
X152675846Y-111959567D01*
X152657738Y-111952320D01*
X152653488Y-111951938D01*
X152631429Y-111945493D01*
X152605224Y-111933609D01*
X152598220Y-111930057D01*
X152570982Y-111919250D01*
X152549656Y-111914898D01*
X152535672Y-111911953D01*
X152516773Y-111898526D01*
X152500217Y-111886986D01*
X152469682Y-111881462D01*
X152466392Y-111881331D01*
X152438376Y-111875853D01*
X152417491Y-111865089D01*
X152403625Y-111855310D01*
X152386242Y-111849410D01*
X152372882Y-111845979D01*
X152347802Y-111835841D01*
X152317440Y-111821344D01*
X152289455Y-111808072D01*
X152262401Y-111797379D01*
X152245562Y-111793278D01*
X152236318Y-111791763D01*
X152228563Y-111783922D01*
X152223500Y-111777961D01*
X152206625Y-111774567D01*
X152188273Y-111769992D01*
X152167412Y-111755479D01*
X152154560Y-111745265D01*
X152129983Y-111729835D01*
X152099692Y-111712807D01*
X152069077Y-111697068D01*
X152043526Y-111685508D01*
X152028430Y-111681013D01*
X152018144Y-111677787D01*
X151994755Y-111667432D01*
X151963120Y-111652079D01*
X151927555Y-111633939D01*
X151892381Y-111615220D01*
X151861917Y-111598132D01*
X151840480Y-111584882D01*
X151834473Y-111580979D01*
X151801968Y-111565401D01*
X151772947Y-111559392D01*
X151766315Y-111559265D01*
X151749470Y-111555715D01*
X151747690Y-111546305D01*
X151748233Y-111544750D01*
X151746394Y-111530526D01*
X151733802Y-111525649D01*
X151716761Y-111532859D01*
X151703946Y-111540385D01*
X151697680Y-111533665D01*
X151694701Y-111528706D01*
X151679939Y-111521970D01*
X151673860Y-111520896D01*
X151671309Y-111513595D01*
X151671421Y-111507836D01*
X151660346Y-111499027D01*
X151650855Y-111497263D01*
X151640909Y-111502724D01*
X151633228Y-111511171D01*
X151618906Y-111510530D01*
X151607722Y-111498582D01*
X151607351Y-111489081D01*
X151620754Y-111484548D01*
X151631339Y-111483020D01*
X151639171Y-111476194D01*
X151632212Y-111466550D01*
X151616348Y-111459948D01*
X151601856Y-111461094D01*
X151598801Y-111461345D01*
X151584382Y-111454050D01*
X151564800Y-111438213D01*
X151557450Y-111431834D01*
X151536608Y-111418553D01*
X151521750Y-111415861D01*
X151512564Y-111415863D01*
X151508195Y-111401644D01*
X151505549Y-111389065D01*
X151494162Y-111387611D01*
X151486644Y-111388727D01*
X151479869Y-111380301D01*
X151477923Y-111372338D01*
X151465229Y-111353527D01*
X151445657Y-111335184D01*
X151425032Y-111322291D01*
X151409181Y-111319834D01*
X151399772Y-111321394D01*
X151380711Y-111315167D01*
X151377734Y-111312453D01*
X151369323Y-111300184D01*
X151368832Y-111291577D01*
X151377219Y-111292762D01*
X151382973Y-111292217D01*
X151386574Y-111279281D01*
X151383831Y-111267301D01*
X151369444Y-111260018D01*
X151354573Y-111253853D01*
X151339830Y-111236691D01*
X151327066Y-111218792D01*
X151305505Y-111199054D01*
X151290823Y-111185967D01*
X151283665Y-111171478D01*
X151278978Y-111157003D01*
X151267017Y-111150627D01*
X151255061Y-111157978D01*
X151250162Y-111163324D01*
X151240006Y-111163345D01*
X151237997Y-111158996D01*
X151244654Y-111148735D01*
X151248765Y-111145532D01*
X151251638Y-111134629D01*
X151244573Y-111114161D01*
X151239880Y-111104226D01*
X151222974Y-111080599D01*
X151204144Y-111073350D01*
X151201973Y-111076347D01*
X151211160Y-111085933D01*
X151223821Y-111097120D01*
X151224873Y-111106381D01*
X151208699Y-111113074D01*
X151201004Y-111114172D01*
X151184662Y-111106252D01*
X151176882Y-111082862D01*
X151178163Y-111045111D01*
X151178486Y-111042675D01*
X151180581Y-111018843D01*
X151177777Y-111009198D01*
X151169084Y-111009898D01*
X151161033Y-111010134D01*
X151151063Y-111000688D01*
X151148292Y-110986388D01*
X151156021Y-110975838D01*
X151161585Y-110972029D01*
X151156288Y-110963695D01*
X151148708Y-110954823D01*
X151139286Y-110934917D01*
X151132647Y-110921699D01*
X151121452Y-110913867D01*
X151117748Y-110911265D01*
X151108696Y-110895149D01*
X151098156Y-110868663D01*
X151087862Y-110836888D01*
X151079551Y-110804905D01*
X151074960Y-110777796D01*
X151070053Y-110759417D01*
X151058298Y-110735696D01*
X151047302Y-110713896D01*
X151038074Y-110684659D01*
X151037537Y-110680210D01*
X151037393Y-110655990D01*
X151039184Y-110619549D01*
X151042475Y-110575657D01*
X151046836Y-110529084D01*
X151051833Y-110484600D01*
X151057033Y-110446974D01*
X151062003Y-110420975D01*
X151063954Y-110414366D01*
X151074967Y-110388083D01*
X151090986Y-110357995D01*
X151109350Y-110328216D01*
X151127399Y-110302863D01*
X151142473Y-110286051D01*
X151151911Y-110281895D01*
X151152739Y-110282232D01*
X151164480Y-110277721D01*
X151181026Y-110263376D01*
X151183801Y-110260358D01*
X151194892Y-110246082D01*
X151195701Y-110240276D01*
X151194859Y-110239906D01*
X151199805Y-110232542D01*
X151215120Y-110218711D01*
X151223521Y-110212404D01*
X151252917Y-110196356D01*
X151293558Y-110181831D01*
X151349153Y-110167408D01*
X151351647Y-110166787D01*
X151375751Y-110156085D01*
X151390125Y-110141591D01*
X151395977Y-110132817D01*
X151407745Y-110126906D01*
X151429253Y-110124281D01*
X151464968Y-110123886D01*
X151467048Y-110123902D01*
X151500849Y-110123557D01*
X151526938Y-110122248D01*
X151539818Y-110120243D01*
X151541621Y-110119693D01*
X151558491Y-110118151D01*
X151587639Y-110117473D01*
X151624017Y-110117808D01*
X151633065Y-110118000D01*
X151668832Y-110117959D01*
X151691524Y-110115585D01*
X151705809Y-110109992D01*
X151716353Y-110100295D01*
X151720241Y-110095267D01*
X151742081Y-110095267D01*
X151746759Y-110099944D01*
X151751436Y-110095267D01*
X151746759Y-110090589D01*
X151742081Y-110095267D01*
X151720241Y-110095267D01*
X151728866Y-110084113D01*
X151731312Y-110074428D01*
X151721031Y-110071878D01*
X151716874Y-110070645D01*
X151701505Y-110059027D01*
X151683211Y-110039134D01*
X151675724Y-110030376D01*
X151657197Y-110013211D01*
X151643450Y-110006390D01*
X151637368Y-110005427D01*
X151629816Y-109997275D01*
X151629512Y-109995835D01*
X151619400Y-109985114D01*
X151599411Y-109972670D01*
X151590720Y-109968071D01*
X151557634Y-109945956D01*
X151524453Y-109914662D01*
X151493339Y-109881286D01*
X151468417Y-109853133D01*
X151455066Y-109836011D01*
X151439475Y-109820830D01*
X151414475Y-109806608D01*
X151391379Y-109800571D01*
X151384819Y-109799609D01*
X151377219Y-109792177D01*
X151375899Y-109786537D01*
X151364107Y-109768485D01*
X151344921Y-109748532D01*
X151324270Y-109732379D01*
X151308088Y-109725727D01*
X151298500Y-109724451D01*
X151296303Y-109719326D01*
X151296934Y-109718222D01*
X151292766Y-109706860D01*
X151279453Y-109689615D01*
X151261615Y-109671318D01*
X151243870Y-109656797D01*
X151230839Y-109650884D01*
X151225358Y-109649829D01*
X151211625Y-109638992D01*
X151197949Y-109625608D01*
X151178258Y-109615393D01*
X151159778Y-109611450D01*
X151149368Y-109616283D01*
X151148755Y-109617506D01*
X151145701Y-109614356D01*
X151144072Y-109597090D01*
X151143995Y-109594829D01*
X151140984Y-109574878D01*
X151135344Y-109566685D01*
X151133411Y-109566313D01*
X151117887Y-109556906D01*
X151092136Y-109536123D01*
X151058349Y-109505697D01*
X151047918Y-109497668D01*
X151033623Y-109491841D01*
X151028449Y-109490267D01*
X151018390Y-109477966D01*
X151013631Y-109471425D01*
X150998120Y-109469826D01*
X150987099Y-109470169D01*
X150977964Y-109455635D01*
X150972161Y-109443585D01*
X150959811Y-109435709D01*
X150954340Y-109434647D01*
X150945790Y-109424014D01*
X150945503Y-109421002D01*
X150943451Y-109402335D01*
X150939002Y-109392395D01*
X150925819Y-109375939D01*
X150915432Y-109363542D01*
X150909447Y-109350842D01*
X150907869Y-109346851D01*
X150895414Y-109342154D01*
X150887783Y-109339428D01*
X150881381Y-109325315D01*
X150881373Y-109324427D01*
X150875595Y-109303285D01*
X150862361Y-109292882D01*
X150846519Y-109297135D01*
X150833070Y-109302130D01*
X150817762Y-109291705D01*
X150810171Y-109283594D01*
X150807177Y-109274518D01*
X150818232Y-109266316D01*
X150830853Y-109256646D01*
X150832096Y-109245012D01*
X150814952Y-109236288D01*
X150804030Y-109230896D01*
X150801422Y-109221242D01*
X150802023Y-109219734D01*
X150798017Y-109205831D01*
X150783983Y-109187773D01*
X150782222Y-109185962D01*
X150768287Y-109166076D01*
X150765769Y-109150273D01*
X150766712Y-109142101D01*
X150756084Y-109136335D01*
X150748625Y-109134545D01*
X150741050Y-109122836D01*
X150740689Y-109119639D01*
X150734023Y-109100560D01*
X150721603Y-109076378D01*
X150719181Y-109072042D01*
X150706901Y-109041429D01*
X150701616Y-109012694D01*
X150701599Y-109011195D01*
X150704798Y-108980147D01*
X150713257Y-108951084D01*
X150724809Y-108929568D01*
X150737287Y-108921160D01*
X150743573Y-108919378D01*
X150750405Y-108906678D01*
X150750448Y-108905684D01*
X150758731Y-108888571D01*
X150776956Y-108869237D01*
X150798756Y-108853358D01*
X150817767Y-108846612D01*
X150826635Y-108844582D01*
X150841799Y-108831798D01*
X150844292Y-108828650D01*
X150863658Y-108818840D01*
X150895635Y-108812803D01*
X150909938Y-108810788D01*
X150939027Y-108803068D01*
X150958231Y-108793046D01*
X150964360Y-108787911D01*
X150978877Y-108782725D01*
X150997951Y-108789984D01*
X150998781Y-108790419D01*
X151019142Y-108796597D01*
X151049413Y-108798101D01*
X151093753Y-108795154D01*
X151124155Y-108792828D01*
X151170307Y-108790767D01*
X151220547Y-108789745D01*
X151271076Y-108789719D01*
X151318098Y-108790643D01*
X151357817Y-108792476D01*
X151386434Y-108795172D01*
X151400154Y-108798688D01*
X151400350Y-108798834D01*
X151415709Y-108803752D01*
X151447074Y-108809039D01*
X151491835Y-108814382D01*
X151547381Y-108819468D01*
X151611105Y-108823984D01*
X151641171Y-108826271D01*
X151671678Y-108829547D01*
X151690626Y-108832739D01*
X151701118Y-108834906D01*
X151728276Y-108838874D01*
X151760792Y-108842410D01*
X151777401Y-108844133D01*
X151822175Y-108850093D01*
X151863702Y-108857079D01*
X151898453Y-108863491D01*
X151943134Y-108871226D01*
X151986823Y-108878376D01*
X152058489Y-108889667D01*
X152089732Y-108855495D01*
X152100064Y-108844869D01*
X152127891Y-108824973D01*
X152160737Y-108815999D01*
X152171567Y-108814846D01*
X152192275Y-108814854D01*
X152200497Y-108818510D01*
X152204100Y-108824262D01*
X152219208Y-108832283D01*
X152230127Y-108838285D01*
X152237919Y-108851625D01*
X152238930Y-108857505D01*
X152247826Y-108865027D01*
X152251465Y-108866028D01*
X152251399Y-108875278D01*
X152250786Y-108878959D01*
X152257982Y-108893971D01*
X152274813Y-108912699D01*
X152283084Y-108920501D01*
X152295993Y-108934376D01*
X152298161Y-108939871D01*
X152296639Y-108942573D01*
X152303407Y-108953904D01*
X152318463Y-108963379D01*
X152342303Y-108967937D01*
X152362228Y-108970779D01*
X152399471Y-108987544D01*
X152436567Y-109017053D01*
X152449953Y-109027261D01*
X152467127Y-109033425D01*
X152471497Y-109034408D01*
X152479716Y-109045695D01*
X152480354Y-109062360D01*
X152472282Y-109075230D01*
X152467096Y-109086534D01*
X152466811Y-109107640D01*
X152464881Y-109131432D01*
X152447722Y-109155698D01*
X152438115Y-109165834D01*
X152430129Y-109180875D01*
X152427084Y-109202436D01*
X152427466Y-109236563D01*
X152428616Y-109259712D01*
X152431444Y-109282074D01*
X152436582Y-109291717D01*
X152445181Y-109292268D01*
X152453638Y-109292510D01*
X152461257Y-109303291D01*
X152466804Y-109329231D01*
X152468876Y-109340926D01*
X152474742Y-109361908D01*
X152480581Y-109370221D01*
X152485011Y-109373534D01*
X152495948Y-109389653D01*
X152508948Y-109414659D01*
X152527609Y-109453527D01*
X152548856Y-109493527D01*
X152565664Y-109518938D01*
X152579095Y-109531528D01*
X152589133Y-109545266D01*
X152593425Y-109569746D01*
X152594554Y-109583538D01*
X152603587Y-109611885D01*
X152618769Y-109633150D01*
X152636607Y-109641528D01*
X152642858Y-109642928D01*
X152644351Y-109651740D01*
X152643802Y-109654233D01*
X152647503Y-109671083D01*
X152658034Y-109698288D01*
X152673717Y-109731304D01*
X152675077Y-109733943D01*
X152693260Y-109767520D01*
X152706463Y-109786981D01*
X152717085Y-109795163D01*
X152727527Y-109794901D01*
X152734022Y-109793142D01*
X152742014Y-109795720D01*
X152740012Y-109811650D01*
X152739612Y-109815518D01*
X152743744Y-109837462D01*
X152754736Y-109869238D01*
X152770429Y-109906047D01*
X152788668Y-109943093D01*
X152807292Y-109975578D01*
X152824146Y-109998706D01*
X152824934Y-109999620D01*
X152835617Y-110021033D01*
X152841152Y-110048499D01*
X152842525Y-110057605D01*
X152850408Y-110084739D01*
X152862965Y-110117861D01*
X152877643Y-110151006D01*
X152891891Y-110178207D01*
X152903159Y-110193499D01*
X152906253Y-110198946D01*
X152913236Y-110218583D01*
X152921111Y-110246557D01*
X152922673Y-110252422D01*
X152936339Y-110287036D01*
X152953041Y-110305460D01*
X152964598Y-110316880D01*
X152980640Y-110340308D01*
X152998306Y-110370896D01*
X153015258Y-110404056D01*
X153029159Y-110435202D01*
X153037673Y-110459748D01*
X153038462Y-110473105D01*
X153039181Y-110481536D01*
X153051841Y-110492873D01*
X153063032Y-110501148D01*
X153066472Y-110510618D01*
X153067408Y-110518190D01*
X153074827Y-110538372D01*
X153086911Y-110565612D01*
X153101210Y-110594730D01*
X153115276Y-110620547D01*
X153126657Y-110637882D01*
X153132186Y-110648952D01*
X153137705Y-110670626D01*
X153142723Y-110685598D01*
X153151942Y-110691906D01*
X153152904Y-110691837D01*
X153161982Y-110700112D01*
X153169284Y-110719973D01*
X153174465Y-110734726D01*
X153190071Y-110763414D01*
X153210816Y-110792246D01*
X153225434Y-110810837D01*
X153242606Y-110835721D01*
X153251698Y-110853057D01*
X153253306Y-110857117D01*
X153265979Y-110877781D01*
X153284645Y-110900534D01*
X153286482Y-110902593D01*
X153301279Y-110923620D01*
X153319144Y-110954190D01*
X153337509Y-110989200D01*
X153353807Y-111023554D01*
X153365468Y-111052149D01*
X153369926Y-111069888D01*
X153374041Y-111077371D01*
X153388637Y-111089449D01*
X153400161Y-111099357D01*
X153407348Y-111113827D01*
X153407360Y-111114302D01*
X153413238Y-111130429D01*
X153426606Y-111151001D01*
X153440181Y-111171028D01*
X153458361Y-111201724D01*
X153476774Y-111235844D01*
X153477077Y-111236433D01*
X153494718Y-111268776D01*
X153511370Y-111295898D01*
X153523464Y-111311983D01*
X153535445Y-111329689D01*
X153544791Y-111355504D01*
X153552364Y-111376251D01*
X153563389Y-111388254D01*
X153576230Y-111399015D01*
X153589721Y-111418948D01*
X153597778Y-111432782D01*
X153615958Y-111460204D01*
X153637151Y-111489370D01*
X153645491Y-111500531D01*
X153661151Y-111525232D01*
X153667190Y-111545117D01*
X153666018Y-111566639D01*
X153659152Y-111588521D01*
X153634976Y-111617270D01*
X153595667Y-111636110D01*
X153589829Y-111637207D01*
X153562799Y-111633439D01*
X153533284Y-111620082D01*
X153508310Y-111601035D01*
X153494901Y-111580195D01*
X153488181Y-111565793D01*
X153471389Y-111549262D01*
X153470032Y-111548421D01*
X153456678Y-111533343D01*
X153440272Y-111506992D01*
X153423452Y-111474766D01*
X153408857Y-111442066D01*
X153399126Y-111414291D01*
X153396898Y-111396840D01*
X153395531Y-111389183D01*
X153385772Y-111373451D01*
X153378039Y-111362961D01*
X153366964Y-111341878D01*
X153361689Y-111333195D01*
X153346831Y-111325506D01*
X153338687Y-111322307D01*
X153332504Y-111307571D01*
X153332456Y-111305833D01*
X153328154Y-111284754D01*
X153318739Y-111258161D01*
X153306836Y-111231914D01*
X153295068Y-111211869D01*
X153286060Y-111203885D01*
X153285938Y-111203883D01*
X153279178Y-111195524D01*
X153276372Y-111175819D01*
X153272945Y-111154774D01*
X153261338Y-111147753D01*
X153252803Y-111145433D01*
X153252021Y-111132854D01*
X153252639Y-111122416D01*
X153238989Y-111113052D01*
X153228104Y-111107125D01*
X153220239Y-111091675D01*
X153218395Y-111081873D01*
X153206685Y-111063951D01*
X153205612Y-111062992D01*
X153193387Y-111045470D01*
X153182547Y-111020634D01*
X153181676Y-111018133D01*
X153168829Y-110993981D01*
X153153276Y-110978566D01*
X153142838Y-110969876D01*
X153139902Y-110954719D01*
X153140068Y-110954246D01*
X153136850Y-110938288D01*
X153121917Y-110919281D01*
X153120226Y-110917688D01*
X153104910Y-110900457D01*
X153098619Y-110888068D01*
X153096753Y-110882664D01*
X153083993Y-110872835D01*
X153077189Y-110868543D01*
X153075026Y-110858065D01*
X153074832Y-110845509D01*
X153065901Y-110826343D01*
X153056401Y-110808641D01*
X153053463Y-110795674D01*
X153051685Y-110785202D01*
X153042428Y-110766853D01*
X153028448Y-110752663D01*
X153007700Y-110751495D01*
X152991462Y-110752365D01*
X152986353Y-110741806D01*
X152987660Y-110734394D01*
X152996360Y-110726758D01*
X153002735Y-110721927D01*
X153003348Y-110707637D01*
X152997702Y-110691615D01*
X152987390Y-110681839D01*
X152981013Y-110680951D01*
X152980926Y-110688123D01*
X152982689Y-110692863D01*
X152976549Y-110698692D01*
X152971710Y-110696701D01*
X152970986Y-110684763D01*
X152971526Y-110679833D01*
X152966911Y-110659476D01*
X152956227Y-110631847D01*
X152942260Y-110602953D01*
X152927796Y-110578801D01*
X152915621Y-110565399D01*
X152909937Y-110558702D01*
X152908429Y-110541066D01*
X152908254Y-110528029D01*
X152898203Y-110508969D01*
X152889469Y-110498278D01*
X152883444Y-110484185D01*
X152880037Y-110478403D01*
X152864967Y-110474162D01*
X152858100Y-110473672D01*
X152850207Y-110466878D01*
X152851740Y-110447910D01*
X152852823Y-110429577D01*
X152842151Y-110409343D01*
X152834040Y-110400004D01*
X152827311Y-110381093D01*
X152827244Y-110379829D01*
X152819686Y-110362283D01*
X152803424Y-110342717D01*
X152789514Y-110328407D01*
X152786039Y-110318272D01*
X152794343Y-110309449D01*
X152796317Y-110307982D01*
X152803984Y-110299281D01*
X152795724Y-110293469D01*
X152784697Y-110282129D01*
X152776253Y-110260794D01*
X152765614Y-110235645D01*
X152747305Y-110211754D01*
X152746491Y-110210979D01*
X152730862Y-110191087D01*
X152724401Y-110173157D01*
X152722875Y-110163836D01*
X152715046Y-110156077D01*
X152711129Y-110154886D01*
X152705690Y-110143189D01*
X152703591Y-110134665D01*
X152691760Y-110118741D01*
X152684733Y-110110931D01*
X152682463Y-110099683D01*
X152683396Y-110096545D01*
X152676122Y-110088529D01*
X152674051Y-110087236D01*
X152666698Y-110072765D01*
X152662300Y-110048720D01*
X152657852Y-110029230D01*
X152646180Y-110000288D01*
X152630186Y-109969318D01*
X152612664Y-109941179D01*
X152596407Y-109920732D01*
X152584208Y-109912836D01*
X152583747Y-109912800D01*
X152579412Y-109903882D01*
X152581090Y-109883295D01*
X152583880Y-109864808D01*
X152579964Y-109857276D01*
X152565851Y-109859285D01*
X152557923Y-109861054D01*
X152548186Y-109858460D01*
X152548968Y-109842510D01*
X152549557Y-109828283D01*
X152544324Y-109822082D01*
X152543039Y-109822023D01*
X152536332Y-109812287D01*
X152531631Y-109791215D01*
X152529421Y-109774166D01*
X152524056Y-109750015D01*
X152516437Y-109739976D01*
X152504903Y-109740919D01*
X152496472Y-109742077D01*
X152490516Y-109732185D01*
X152491551Y-109725526D01*
X152500461Y-109714616D01*
X152502097Y-109713123D01*
X152499218Y-109701572D01*
X152486440Y-109683431D01*
X152482751Y-109678930D01*
X152468315Y-109656169D01*
X152462461Y-109637734D01*
X152462044Y-109633852D01*
X152454039Y-109613036D01*
X152439061Y-109589242D01*
X152434726Y-109583240D01*
X152421145Y-109559135D01*
X152415672Y-109540141D01*
X152415671Y-109539985D01*
X152411097Y-109522678D01*
X152399347Y-109495325D01*
X152382928Y-109463775D01*
X152382248Y-109462568D01*
X152366069Y-109432027D01*
X152354564Y-109406885D01*
X152350184Y-109392479D01*
X152344202Y-109381301D01*
X152326795Y-109370221D01*
X152317565Y-109365929D01*
X152306297Y-109352737D01*
X152303407Y-109328353D01*
X152303320Y-109323856D01*
X152300218Y-109303606D01*
X152294051Y-109295377D01*
X152288634Y-109291917D01*
X152284696Y-109276773D01*
X152283080Y-109265544D01*
X152272393Y-109244546D01*
X152256181Y-109229967D01*
X152239742Y-109227601D01*
X152232497Y-109228843D01*
X152228796Y-109221129D01*
X152231106Y-109199136D01*
X152233224Y-109180764D01*
X152229987Y-109166373D01*
X152217696Y-109159244D01*
X152206491Y-109152805D01*
X152203186Y-109136418D01*
X152202222Y-109123564D01*
X152185330Y-109109454D01*
X152170642Y-109100370D01*
X152163075Y-109089758D01*
X152162222Y-109086197D01*
X152151293Y-109080202D01*
X152141509Y-109076184D01*
X152127825Y-109061491D01*
X152114885Y-109049167D01*
X152085346Y-109042781D01*
X152084725Y-109042778D01*
X152060022Y-109039408D01*
X152043326Y-109031554D01*
X152033949Y-109025289D01*
X152021198Y-109031228D01*
X152011379Y-109036838D01*
X151999968Y-109028003D01*
X151990835Y-109019685D01*
X151965449Y-109013233D01*
X151934582Y-109019767D01*
X151931854Y-109020876D01*
X151921032Y-109022431D01*
X151922594Y-109011661D01*
X151924105Y-109003295D01*
X151916355Y-108997133D01*
X151893813Y-108994937D01*
X151877258Y-108994306D01*
X151834815Y-108990590D01*
X151796932Y-108982648D01*
X151752977Y-108968484D01*
X151695312Y-108954096D01*
X151624515Y-108949083D01*
X151616567Y-108949022D01*
X151580687Y-108947585D01*
X151552434Y-108944648D01*
X151537347Y-108940740D01*
X151521501Y-108937189D01*
X151498100Y-108940083D01*
X151479563Y-108943187D01*
X151468222Y-108936894D01*
X151463517Y-108932453D01*
X151442557Y-108926188D01*
X151408012Y-108921485D01*
X151363060Y-108918303D01*
X151310882Y-108916601D01*
X151254657Y-108916339D01*
X151197565Y-108917477D01*
X151142786Y-108919973D01*
X151093499Y-108923787D01*
X151052885Y-108928879D01*
X151024121Y-108935208D01*
X151010390Y-108942734D01*
X151005331Y-108949020D01*
X151003145Y-108942791D01*
X151000910Y-108937984D01*
X150987141Y-108933253D01*
X150967450Y-108934680D01*
X150949618Y-108942331D01*
X150943812Y-108945460D01*
X150929214Y-108945201D01*
X150925687Y-108943840D01*
X150914219Y-108949074D01*
X150912733Y-108952849D01*
X150918580Y-108958582D01*
X150922722Y-108964126D01*
X150918255Y-108978526D01*
X150907457Y-108995917D01*
X150893213Y-109010403D01*
X150886260Y-109021475D01*
X150885859Y-109043001D01*
X150893817Y-109064790D01*
X150908310Y-109078609D01*
X150915909Y-109083650D01*
X150923481Y-109098913D01*
X150928073Y-109108289D01*
X150944530Y-109115936D01*
X150957617Y-109120496D01*
X150965580Y-109131307D01*
X150967186Y-109137657D01*
X150979613Y-109149073D01*
X150986094Y-109153080D01*
X150993646Y-109167816D01*
X150995078Y-109172973D01*
X151006769Y-109190015D01*
X151026390Y-109209923D01*
X151036340Y-109218993D01*
X151052797Y-109235964D01*
X151059430Y-109245975D01*
X151059712Y-109247857D01*
X151068784Y-109263514D01*
X151085963Y-109282312D01*
X151104963Y-109298102D01*
X151119496Y-109304733D01*
X151127657Y-109307829D01*
X151133978Y-109322429D01*
X151137732Y-109334109D01*
X151155027Y-109345417D01*
X151157404Y-109346195D01*
X151175184Y-109356486D01*
X151199387Y-109374618D01*
X151225707Y-109396814D01*
X151249838Y-109419298D01*
X151267474Y-109438293D01*
X151274309Y-109450024D01*
X151277794Y-109457532D01*
X151292343Y-109473383D01*
X151312815Y-109490755D01*
X151333280Y-109504764D01*
X151347806Y-109510530D01*
X151361945Y-109517181D01*
X151378455Y-109533388D01*
X151395793Y-109550604D01*
X151415021Y-109562128D01*
X151425152Y-109567618D01*
X151427955Y-109577204D01*
X151427533Y-109578175D01*
X151433249Y-109587559D01*
X151451208Y-109597292D01*
X151453205Y-109598069D01*
X151472286Y-109608338D01*
X151480129Y-109617955D01*
X151480733Y-109620396D01*
X151490879Y-109633971D01*
X151509576Y-109650986D01*
X151521012Y-109660282D01*
X151549165Y-109684261D01*
X151577352Y-109709355D01*
X151593555Y-109722997D01*
X151616379Y-109738431D01*
X151632104Y-109744438D01*
X151640834Y-109746255D01*
X151648527Y-109756235D01*
X151649142Y-109759099D01*
X151659414Y-109773840D01*
X151678331Y-109791318D01*
X151680411Y-109792959D01*
X151707558Y-109816428D01*
X151731869Y-109840331D01*
X151735529Y-109844187D01*
X151752933Y-109859750D01*
X151764711Y-109866059D01*
X151776249Y-109869300D01*
X151797632Y-109882047D01*
X151820079Y-109900032D01*
X151837797Y-109918457D01*
X151844991Y-109932525D01*
X151846981Y-109941705D01*
X151856814Y-109945133D01*
X151859507Y-109944846D01*
X151872289Y-109953370D01*
X151886353Y-109973493D01*
X151890194Y-109980280D01*
X151903203Y-109998910D01*
X151912686Y-110006390D01*
X151919491Y-110009697D01*
X151936612Y-110023290D01*
X151958351Y-110043812D01*
X151974477Y-110058565D01*
X151997405Y-110074887D01*
X152014044Y-110081234D01*
X152025329Y-110083507D01*
X152037769Y-110094478D01*
X152038251Y-110095267D01*
X152040702Y-110099275D01*
X152056112Y-110114938D01*
G37*
G36*
X145320589Y-110614182D02*
G01*
X145362707Y-110616226D01*
X145396688Y-110619565D01*
X145415098Y-110622907D01*
X145441463Y-110630678D01*
X145456305Y-110639177D01*
X145463153Y-110645222D01*
X145482103Y-110651944D01*
X145483134Y-110652003D01*
X145500102Y-110656914D01*
X145527548Y-110668169D01*
X145560053Y-110683567D01*
X145562043Y-110684566D01*
X145596272Y-110700910D01*
X145626708Y-110714054D01*
X145646973Y-110721234D01*
X145662104Y-110727738D01*
X145665870Y-110735882D01*
X145665969Y-110738193D01*
X145676376Y-110745903D01*
X145696413Y-110754369D01*
X145719879Y-110761241D01*
X145740571Y-110764171D01*
X145743998Y-110765147D01*
X145759522Y-110775093D01*
X145779824Y-110792290D01*
X145787883Y-110799558D01*
X145806858Y-110814405D01*
X145818595Y-110820313D01*
X145822731Y-110821730D01*
X145838414Y-110832614D01*
X145858863Y-110850718D01*
X145866796Y-110857948D01*
X145893884Y-110878250D01*
X145918324Y-110891307D01*
X145918567Y-110891395D01*
X145939243Y-110903763D01*
X145949821Y-110919140D01*
X145953420Y-110929281D01*
X145967573Y-110947262D01*
X145974009Y-110954297D01*
X145978413Y-110972307D01*
X145976757Y-111003321D01*
X145974426Y-111018863D01*
X145968271Y-111041816D01*
X145961344Y-111052333D01*
X145955793Y-111056988D01*
X145951068Y-111073342D01*
X145947577Y-111083941D01*
X145933389Y-111105025D01*
X145912005Y-111128461D01*
X145887474Y-111149912D01*
X145868070Y-111160422D01*
X145851195Y-111160538D01*
X145846125Y-111159395D01*
X145832738Y-111160835D01*
X145829447Y-111175357D01*
X145827365Y-111187109D01*
X145819469Y-111189468D01*
X145811600Y-111188728D01*
X145798387Y-111198487D01*
X145793936Y-111202724D01*
X145772078Y-111212606D01*
X145740538Y-111219024D01*
X145724365Y-111221486D01*
X145698654Y-111228240D01*
X145684438Y-111236012D01*
X145683541Y-111236985D01*
X145667028Y-111244483D01*
X145642339Y-111247443D01*
X145627971Y-111247397D01*
X145570990Y-111247967D01*
X145513338Y-111249568D01*
X145458891Y-111252001D01*
X145411527Y-111255065D01*
X145375120Y-111258563D01*
X145353548Y-111262294D01*
X145328781Y-111266910D01*
X145315924Y-111261678D01*
X145307463Y-111257122D01*
X145284706Y-111252438D01*
X145253887Y-111249873D01*
X145228935Y-111248271D01*
X145199312Y-111244323D01*
X145180986Y-111239301D01*
X145171185Y-111235881D01*
X145152722Y-111240026D01*
X145148377Y-111242420D01*
X145127587Y-111247106D01*
X145099526Y-111248588D01*
X145090508Y-111248537D01*
X145057888Y-111249957D01*
X145032146Y-111253233D01*
X145029628Y-111253736D01*
X145005632Y-111257326D01*
X144970737Y-111261424D01*
X144931575Y-111265239D01*
X144920644Y-111266245D01*
X144887934Y-111269969D01*
X144865079Y-111273684D01*
X144856482Y-111276715D01*
X144856960Y-111278347D01*
X144864755Y-111291364D01*
X144879076Y-111311262D01*
X144890832Y-111324283D01*
X144911005Y-111338644D01*
X144940705Y-111352187D01*
X144984324Y-111367250D01*
X145002465Y-111373124D01*
X145038397Y-111385295D01*
X145066205Y-111395433D01*
X145081013Y-111401796D01*
X145097877Y-111410154D01*
X145121275Y-111420129D01*
X145143179Y-111428432D01*
X145155856Y-111431950D01*
X145156487Y-111432082D01*
X145169149Y-111436852D01*
X145194989Y-111447458D01*
X145230656Y-111462504D01*
X145272799Y-111480597D01*
X145323198Y-111501630D01*
X145360868Y-111515373D01*
X145384897Y-111521257D01*
X145396759Y-111519747D01*
X145405081Y-111515789D01*
X145408453Y-111525796D01*
X145410933Y-111534752D01*
X145424825Y-111546512D01*
X145448571Y-111555260D01*
X145484521Y-111570003D01*
X145526316Y-111588072D01*
X145568325Y-111607030D01*
X145604917Y-111624442D01*
X145653664Y-111646308D01*
X145703259Y-111661468D01*
X145747449Y-111665356D01*
X145790728Y-111658802D01*
X145809839Y-111654507D01*
X145830697Y-111651996D01*
X145838803Y-111654317D01*
X145843868Y-111659404D01*
X145860760Y-111662302D01*
X145881388Y-111667285D01*
X145904291Y-111681013D01*
X145922099Y-111694091D01*
X145935391Y-111699723D01*
X145944696Y-111702857D01*
X145961283Y-111714534D01*
X145962412Y-111715532D01*
X145982869Y-111730501D01*
X146008314Y-111745791D01*
X146033893Y-111761556D01*
X146048153Y-111779024D01*
X146046751Y-111799813D01*
X146030937Y-111828496D01*
X146021939Y-111840760D01*
X146002126Y-111861208D01*
X145985261Y-111871077D01*
X145975121Y-111872466D01*
X145939301Y-111872504D01*
X145897556Y-111867842D01*
X145858512Y-111859284D01*
X145857726Y-111859057D01*
X145831807Y-111853571D01*
X145795213Y-111848102D01*
X145755602Y-111843804D01*
X145716361Y-111838534D01*
X145674447Y-111829278D01*
X145642339Y-111818326D01*
X145627861Y-111812061D01*
X145603802Y-111803470D01*
X145589675Y-111800963D01*
X145582432Y-111798423D01*
X145574179Y-111784073D01*
X145573151Y-111780778D01*
X145563955Y-111767894D01*
X145553648Y-111766003D01*
X145548641Y-111776906D01*
X145547764Y-111781954D01*
X145541625Y-111779245D01*
X145526240Y-111765679D01*
X145499765Y-111752177D01*
X145474620Y-111746501D01*
X145463739Y-111744986D01*
X145450552Y-111737145D01*
X145446923Y-111733293D01*
X145430776Y-111727790D01*
X145417718Y-111725667D01*
X145392095Y-111716458D01*
X145364621Y-111702986D01*
X145341849Y-111688588D01*
X145330330Y-111676604D01*
X145323360Y-111668256D01*
X145304942Y-111662302D01*
X145303412Y-111662249D01*
X145281625Y-111656045D01*
X145257452Y-111642655D01*
X145229895Y-111629215D01*
X145196398Y-111623009D01*
X145174511Y-111619943D01*
X145140706Y-111610121D01*
X145105602Y-111595886D01*
X145075596Y-111582624D01*
X145048859Y-111572594D01*
X145032898Y-111568755D01*
X145025022Y-111567088D01*
X145012142Y-111554714D01*
X145006856Y-111547431D01*
X144989718Y-111540681D01*
X144976716Y-111539239D01*
X144949533Y-111534017D01*
X144916919Y-111526293D01*
X144896177Y-111520255D01*
X144859608Y-111503510D01*
X144830737Y-111478976D01*
X144820163Y-111468426D01*
X144802172Y-111454674D01*
X144790976Y-111451816D01*
X144786166Y-111452690D01*
X144781639Y-111443001D01*
X144779822Y-111435939D01*
X144767200Y-111428416D01*
X144766005Y-111428285D01*
X144751125Y-111420539D01*
X144728215Y-111403203D01*
X144701712Y-111379587D01*
X144696049Y-111374117D01*
X144669212Y-111345495D01*
X144654895Y-111323412D01*
X144650663Y-111304279D01*
X144655974Y-111271806D01*
X144674766Y-111237282D01*
X144703658Y-111214109D01*
X144727536Y-111202516D01*
X144756589Y-111187783D01*
X144769004Y-111183121D01*
X144802503Y-111175752D01*
X144850341Y-111168812D01*
X144909824Y-111162610D01*
X144978257Y-111157458D01*
X145052946Y-111153664D01*
X145056675Y-111153513D01*
X145104214Y-111150912D01*
X145153088Y-111147251D01*
X145193278Y-111143271D01*
X145224153Y-111140002D01*
X145269342Y-111136505D01*
X145312065Y-111134493D01*
X145348284Y-111134070D01*
X145373964Y-111135338D01*
X145385065Y-111138399D01*
X145394086Y-111141107D01*
X145418074Y-111142657D01*
X145452626Y-111142805D01*
X145493484Y-111141723D01*
X145536387Y-111139578D01*
X145577076Y-111136541D01*
X145611292Y-111132781D01*
X145634774Y-111128467D01*
X145645462Y-111125607D01*
X145670699Y-111119195D01*
X145685833Y-111115855D01*
X145692189Y-111113951D01*
X145709222Y-111104050D01*
X145720454Y-111096978D01*
X145742910Y-111087457D01*
X145755702Y-111080193D01*
X145763959Y-111062924D01*
X145766492Y-111052593D01*
X145777992Y-111044843D01*
X145784448Y-111043788D01*
X145792026Y-111035488D01*
X145791754Y-111033252D01*
X145782670Y-111026132D01*
X145778366Y-111024549D01*
X145773315Y-111012099D01*
X145771579Y-111005424D01*
X145758988Y-110998066D01*
X145750789Y-110995838D01*
X145738653Y-110982409D01*
X145732460Y-110970337D01*
X145717897Y-110950335D01*
X145707544Y-110938591D01*
X145691086Y-110919215D01*
X145681745Y-110911379D01*
X145660226Y-110904512D01*
X145659679Y-110904497D01*
X145642206Y-110899019D01*
X145615389Y-110885559D01*
X145584801Y-110866898D01*
X145582011Y-110865056D01*
X145553143Y-110847283D01*
X145530021Y-110835216D01*
X145517429Y-110831377D01*
X145516761Y-110831474D01*
X145500848Y-110828316D01*
X145478619Y-110818849D01*
X145452202Y-110807084D01*
X145424825Y-110798059D01*
X145407111Y-110790958D01*
X145399097Y-110781567D01*
X145397007Y-110776240D01*
X145386250Y-110781907D01*
X145373855Y-110787651D01*
X145353520Y-110784211D01*
X145339304Y-110768135D01*
X145335332Y-110762070D01*
X145319318Y-110754825D01*
X145312396Y-110756216D01*
X145310221Y-110764180D01*
X145309887Y-110771685D01*
X145297967Y-110773170D01*
X145279610Y-110768617D01*
X145260378Y-110758643D01*
X145259230Y-110757842D01*
X145244356Y-110749609D01*
X145232702Y-110752451D01*
X145216644Y-110767998D01*
X145212190Y-110772447D01*
X145182688Y-110789298D01*
X145150993Y-110790426D01*
X145122537Y-110775402D01*
X145107747Y-110763528D01*
X145089137Y-110752732D01*
X145080218Y-110745891D01*
X145071087Y-110725106D01*
X145068209Y-110697666D01*
X145071308Y-110669732D01*
X145080106Y-110647464D01*
X145094328Y-110637025D01*
X145104366Y-110634207D01*
X145118116Y-110624364D01*
X145126026Y-110620993D01*
X145149652Y-110617587D01*
X145184867Y-110615134D01*
X145227724Y-110613704D01*
X145274280Y-110613364D01*
X145320589Y-110614182D01*
G37*
G36*
X139587936Y-111230202D02*
G01*
X139599551Y-111230559D01*
X139603200Y-111232159D01*
X139598729Y-111236630D01*
X139603407Y-111241307D01*
X139608085Y-111236630D01*
X139603939Y-111232484D01*
X139619947Y-111239506D01*
X139621041Y-111240398D01*
X139635989Y-111247017D01*
X139653703Y-111239860D01*
X139656936Y-111237967D01*
X139673977Y-111233168D01*
X139681248Y-111239407D01*
X139674709Y-111253972D01*
X139674121Y-111254689D01*
X139669851Y-111265597D01*
X139682282Y-111271915D01*
X139693874Y-111272710D01*
X139705156Y-111266042D01*
X139709367Y-111260933D01*
X139718470Y-111268036D01*
X139726385Y-111274413D01*
X139747248Y-111274422D01*
X139759849Y-111272384D01*
X139767127Y-111278651D01*
X139767701Y-111282147D01*
X139775383Y-111284086D01*
X139775799Y-111283866D01*
X139788655Y-111286157D01*
X139807264Y-111297567D01*
X139807387Y-111297664D01*
X139827739Y-111310724D01*
X139843578Y-111316151D01*
X139853496Y-111317850D01*
X139877438Y-111324646D01*
X139907458Y-111334862D01*
X139929760Y-111342498D01*
X139957430Y-111350477D01*
X139974728Y-111353572D01*
X139992448Y-111359896D01*
X140013789Y-111377051D01*
X140031221Y-111398670D01*
X140038434Y-111418340D01*
X140036530Y-111428603D01*
X140024700Y-111446879D01*
X140017661Y-111454679D01*
X140013006Y-111469074D01*
X140011444Y-111474759D01*
X139998674Y-111478571D01*
X139989953Y-111479166D01*
X139982302Y-111485588D01*
X139976494Y-111491663D01*
X139960317Y-111493716D01*
X139942044Y-111490823D01*
X139930105Y-111483347D01*
X139924551Y-111478664D01*
X139915541Y-111487155D01*
X139909879Y-111492756D01*
X139893671Y-111496799D01*
X139877427Y-111493458D01*
X139870037Y-111483457D01*
X139864825Y-111478157D01*
X139847794Y-111475193D01*
X139832159Y-111472577D01*
X139814979Y-111462455D01*
X139809792Y-111458384D01*
X139788606Y-111449886D01*
X139760039Y-111443863D01*
X139736579Y-111440699D01*
X139706368Y-111435979D01*
X139688059Y-111431489D01*
X139677351Y-111426010D01*
X139669940Y-111418322D01*
X139669505Y-111417796D01*
X139652821Y-111407990D01*
X139628132Y-111402517D01*
X139600498Y-111396787D01*
X139576934Y-111386145D01*
X139561053Y-111377441D01*
X139541660Y-111372283D01*
X139531675Y-111370116D01*
X139514361Y-111358046D01*
X139498971Y-111348831D01*
X139472281Y-111345846D01*
X139468001Y-111345987D01*
X139440790Y-111340393D01*
X139419941Y-111326251D01*
X139411620Y-111307464D01*
X139409154Y-111302040D01*
X139395248Y-111296445D01*
X139382775Y-111295636D01*
X139359623Y-111293303D01*
X139349180Y-111289940D01*
X139347052Y-111284453D01*
X139341904Y-111272893D01*
X139326992Y-111266743D01*
X139311363Y-111271054D01*
X139303334Y-111276118D01*
X139299355Y-111270519D01*
X139295839Y-111264409D01*
X139280644Y-111260018D01*
X139269785Y-111258621D01*
X139261934Y-111252542D01*
X139261476Y-111251134D01*
X139250362Y-111242676D01*
X139229044Y-111233173D01*
X139223005Y-111230826D01*
X139205538Y-111221316D01*
X139203359Y-111217731D01*
X139544595Y-111217731D01*
X139545715Y-111228833D01*
X139548529Y-111230297D01*
X139551952Y-111222596D01*
X139551277Y-111217644D01*
X139545715Y-111216359D01*
X139544595Y-111217731D01*
X139203359Y-111217731D01*
X139200875Y-111213643D01*
X139201281Y-111207687D01*
X139192266Y-111194944D01*
X139181734Y-111180411D01*
X139173008Y-111156886D01*
X139164203Y-111136842D01*
X139149863Y-111124426D01*
X139127743Y-111113105D01*
X139118408Y-111093899D01*
X139126123Y-111067154D01*
X139126301Y-111066811D01*
X139136139Y-111044493D01*
X139140255Y-111028461D01*
X139140993Y-111024441D01*
X139151912Y-111006798D01*
X139171873Y-110985681D01*
X139195691Y-110965608D01*
X139218179Y-110951097D01*
X139234150Y-110946666D01*
X139245116Y-110947102D01*
X139257611Y-110941358D01*
X139264827Y-110936120D01*
X139283535Y-110932370D01*
X139304212Y-110927129D01*
X139327422Y-110913867D01*
X139349402Y-110901189D01*
X139371860Y-110895364D01*
X139384978Y-110893061D01*
X139392910Y-110885249D01*
X139393421Y-110882189D01*
X139401414Y-110880597D01*
X139402854Y-110881348D01*
X139422350Y-110882551D01*
X139450845Y-110876251D01*
X139482237Y-110864651D01*
X139510423Y-110849958D01*
X139529303Y-110834377D01*
X139537409Y-110823374D01*
X139545516Y-110802917D01*
X139536995Y-110787941D01*
X139510821Y-110775160D01*
X139509666Y-110774728D01*
X139481965Y-110758594D01*
X139458455Y-110736188D01*
X139454649Y-110731486D01*
X139439038Y-110717064D01*
X139428094Y-110714108D01*
X139427142Y-110714593D01*
X139423137Y-110709084D01*
X139425791Y-110688168D01*
X139426478Y-110685146D01*
X139433551Y-110663852D01*
X139440992Y-110653419D01*
X139448601Y-110648838D01*
X139463962Y-110635659D01*
X139475271Y-110627881D01*
X139497978Y-110618916D01*
X139523069Y-110613160D01*
X139544009Y-110611981D01*
X139554263Y-110616747D01*
X139555193Y-110618187D01*
X139568690Y-110623550D01*
X139592024Y-110625720D01*
X139593618Y-110625726D01*
X139618636Y-110629089D01*
X139626795Y-110638817D01*
X139627661Y-110644401D01*
X139635814Y-110651915D01*
X139639350Y-110653355D01*
X139652427Y-110665791D01*
X139668558Y-110686831D01*
X139674819Y-110696541D01*
X139685695Y-110719736D01*
X139690930Y-110746905D01*
X139692283Y-110785356D01*
X139692034Y-110807082D01*
X139689945Y-110833738D01*
X139684901Y-110848306D01*
X139675911Y-110855001D01*
X139673650Y-110855920D01*
X139653944Y-110866823D01*
X139630590Y-110882773D01*
X139626120Y-110886005D01*
X139603592Y-110899173D01*
X139586704Y-110904512D01*
X139579414Y-110905526D01*
X139565832Y-110914115D01*
X139563573Y-110916905D01*
X139548908Y-110922362D01*
X139536672Y-110921393D01*
X139513275Y-110925206D01*
X139505175Y-110938035D01*
X139503609Y-110945073D01*
X139494065Y-110949145D01*
X139482098Y-110951240D01*
X139465134Y-110963263D01*
X139451357Y-110973145D01*
X139427680Y-110975951D01*
X139425805Y-110975552D01*
X139403191Y-110976946D01*
X139377029Y-110985536D01*
X139359834Y-110992871D01*
X139343767Y-110994890D01*
X139330242Y-110987467D01*
X139328947Y-110986422D01*
X139319391Y-110980139D01*
X139321753Y-110986781D01*
X139323364Y-110990080D01*
X139321899Y-111006302D01*
X139308457Y-111017788D01*
X139288594Y-111019120D01*
X139278197Y-111016944D01*
X139273942Y-111020731D01*
X139281104Y-111036458D01*
X139290613Y-111053168D01*
X139310395Y-111082192D01*
X139328725Y-111102613D01*
X139342213Y-111110331D01*
X139348386Y-111112177D01*
X139359099Y-111124957D01*
X139363203Y-111131833D01*
X139372773Y-111134601D01*
X139373658Y-111134226D01*
X139385815Y-111138475D01*
X139402536Y-111152719D01*
X139403526Y-111153756D01*
X139423292Y-111169373D01*
X139440787Y-111175819D01*
X139452513Y-111178804D01*
X139469561Y-111192191D01*
X139472263Y-111195205D01*
X139493869Y-111205374D01*
X139523666Y-111207037D01*
X139554291Y-111199555D01*
X139555499Y-111199051D01*
X139567486Y-111198435D01*
X139570663Y-111212828D01*
X139572989Y-111222596D01*
X139574063Y-111227105D01*
X139587936Y-111230202D01*
G37*
G36*
X137994066Y-110953074D02*
G01*
X137998950Y-110965874D01*
X137997604Y-110972557D01*
X137989595Y-110974677D01*
X137987040Y-110972763D01*
X137980239Y-110960092D01*
X137980507Y-110958003D01*
X137989595Y-110951289D01*
X137994066Y-110953074D01*
G37*
G36*
X153806513Y-112254812D02*
G01*
X153807977Y-112257626D01*
X153800276Y-112261049D01*
X153795323Y-112260374D01*
X153794039Y-112254812D01*
X153795410Y-112253693D01*
X153806513Y-112254812D01*
G37*
G36*
X142152762Y-111358250D02*
G01*
X142148085Y-111362928D01*
X142143407Y-111358250D01*
X142148085Y-111353572D01*
X142152762Y-111358250D01*
G37*
G36*
X151358508Y-109791215D02*
G01*
X151357833Y-109796168D01*
X151352271Y-109797452D01*
X151351152Y-109796081D01*
X151352271Y-109784978D01*
X151355085Y-109783515D01*
X151358508Y-109791215D01*
G37*
G36*
X150170368Y-110759502D02*
G01*
X150165690Y-110764180D01*
X150161013Y-110759502D01*
X150165690Y-110754825D01*
X150170368Y-110759502D01*
G37*
G36*
X151448030Y-111886832D02*
G01*
X151437935Y-111929642D01*
X151420404Y-111970628D01*
X151398141Y-112004669D01*
X151373676Y-112027915D01*
X151349543Y-112036519D01*
X151336451Y-112039405D01*
X151323966Y-112054583D01*
X151319145Y-112064439D01*
X151308470Y-112068858D01*
X151308291Y-112068799D01*
X151293646Y-112067921D01*
X151266365Y-112069112D01*
X151232210Y-112072127D01*
X151196948Y-112075334D01*
X151164452Y-112077194D01*
X151143333Y-112077147D01*
X151126792Y-112075451D01*
X151080208Y-112068547D01*
X151031234Y-112058815D01*
X150983345Y-112047221D01*
X150940020Y-112034736D01*
X150904734Y-112022327D01*
X150880967Y-112010964D01*
X150872194Y-112001614D01*
X150864994Y-111992060D01*
X150846298Y-111984146D01*
X150839004Y-111981888D01*
X150812960Y-111969198D01*
X150786036Y-111951224D01*
X150775353Y-111943274D01*
X150753871Y-111929644D01*
X150740223Y-111924254D01*
X150733423Y-111922107D01*
X150714372Y-111910944D01*
X150690558Y-111893443D01*
X150671392Y-111878832D01*
X150635898Y-111853837D01*
X150600718Y-111830957D01*
X150576429Y-111815028D01*
X150546711Y-111793072D01*
X150525875Y-111774800D01*
X150517927Y-111767060D01*
X150491657Y-111744907D01*
X150462725Y-111723749D01*
X150448392Y-111713624D01*
X150430113Y-111698483D01*
X150422965Y-111689096D01*
X150422880Y-111687858D01*
X150415948Y-111682120D01*
X150414024Y-111682394D01*
X150397452Y-111680727D01*
X150381691Y-111668887D01*
X150362155Y-111643591D01*
X150353063Y-111631390D01*
X150336346Y-111613290D01*
X150324630Y-111606169D01*
X150323878Y-111606109D01*
X150314322Y-111596769D01*
X150307074Y-111576349D01*
X150304562Y-111565476D01*
X150298520Y-111553953D01*
X150290001Y-111557638D01*
X150281374Y-111565041D01*
X150269186Y-111566495D01*
X150261212Y-111550037D01*
X150256433Y-111539136D01*
X150246087Y-111531326D01*
X150239703Y-111533136D01*
X150236448Y-111543254D01*
X150245212Y-111554714D01*
X150249546Y-111557824D01*
X150253447Y-111567440D01*
X150242942Y-111579452D01*
X150216511Y-111596046D01*
X150208977Y-111600486D01*
X150187968Y-111617173D01*
X150183473Y-111630513D01*
X150183658Y-111638714D01*
X150170705Y-111643591D01*
X150160241Y-111646222D01*
X150147709Y-111660003D01*
X150145893Y-111663192D01*
X150130866Y-111676795D01*
X150105098Y-111694469D01*
X150073309Y-111713493D01*
X150040219Y-111731148D01*
X150010547Y-111744713D01*
X149989013Y-111751468D01*
X149984184Y-111752383D01*
X149959775Y-111758979D01*
X149931053Y-111768623D01*
X149922841Y-111771452D01*
X149901151Y-111776518D01*
X149875036Y-111778487D01*
X149839794Y-111777533D01*
X149790721Y-111773832D01*
X149758346Y-111770660D01*
X149715094Y-111765358D01*
X149679524Y-111759788D01*
X149657126Y-111754735D01*
X149627011Y-111746408D01*
X149596316Y-111740112D01*
X149570823Y-111733400D01*
X149544445Y-111721215D01*
X149531855Y-111713496D01*
X149525270Y-111712241D01*
X149527780Y-111721948D01*
X149530202Y-111732824D01*
X149523925Y-111736178D01*
X149507820Y-111726509D01*
X149483368Y-111704401D01*
X149472076Y-111693908D01*
X149450064Y-111677396D01*
X149433940Y-111670272D01*
X149425173Y-111669468D01*
X149403223Y-111666979D01*
X149397408Y-111666195D01*
X149378380Y-111663687D01*
X149371161Y-111660604D01*
X149352158Y-111648108D01*
X149328379Y-111629558D01*
X149312356Y-111617206D01*
X149288746Y-111602535D01*
X149272507Y-111596814D01*
X149262275Y-111594820D01*
X149244280Y-111582901D01*
X149235040Y-111575339D01*
X149221690Y-111576382D01*
X149203989Y-111590563D01*
X149179322Y-111619350D01*
X149175765Y-111623943D01*
X149158457Y-111652717D01*
X149155790Y-111673189D01*
X149156652Y-111684961D01*
X149144255Y-111696725D01*
X149134526Y-111701509D01*
X149120687Y-111713727D01*
X149119034Y-111715545D01*
X149102735Y-111720932D01*
X149076765Y-111721507D01*
X149068969Y-111721099D01*
X149045796Y-111722632D01*
X149033647Y-111727848D01*
X149031011Y-111730613D01*
X149013121Y-111735208D01*
X148985806Y-111733377D01*
X148954857Y-111726316D01*
X148926063Y-111715223D01*
X148905213Y-111701294D01*
X148898841Y-111696517D01*
X148878539Y-111690368D01*
X148868949Y-111687328D01*
X148858156Y-111672650D01*
X148847275Y-111658561D01*
X148821982Y-111648037D01*
X148794064Y-111637489D01*
X148770273Y-111621317D01*
X148747181Y-111599668D01*
X148725482Y-111583182D01*
X148710763Y-111578103D01*
X148707439Y-111577542D01*
X148705716Y-111569600D01*
X148704755Y-111564070D01*
X148972873Y-111564070D01*
X148977551Y-111568747D01*
X148982228Y-111564070D01*
X148977551Y-111559392D01*
X148972873Y-111564070D01*
X148704755Y-111564070D01*
X148704626Y-111563325D01*
X148693697Y-111548740D01*
X148676602Y-111532048D01*
X148658706Y-111518318D01*
X148645373Y-111512615D01*
X148640337Y-111509564D01*
X148623830Y-111495712D01*
X148598891Y-111473107D01*
X148568290Y-111444431D01*
X148534797Y-111412369D01*
X148501182Y-111379602D01*
X148470215Y-111348816D01*
X148444666Y-111322692D01*
X148427305Y-111303916D01*
X148420902Y-111295169D01*
X148418641Y-111291532D01*
X148405658Y-111276216D01*
X148383083Y-111251446D01*
X148353142Y-111219642D01*
X148318056Y-111183224D01*
X148274875Y-111138771D01*
X148238594Y-111101079D01*
X148212449Y-111073331D01*
X148194862Y-111053766D01*
X148184253Y-111040621D01*
X148179046Y-111032137D01*
X148177661Y-111026551D01*
X148175731Y-111022610D01*
X148163181Y-111008158D01*
X148142545Y-110987768D01*
X148118043Y-110965259D01*
X148093893Y-110944452D01*
X148074315Y-110929167D01*
X148063528Y-110923223D01*
X148060098Y-110921653D01*
X148056040Y-110909189D01*
X148054938Y-110902727D01*
X148046290Y-110895156D01*
X148041090Y-110894256D01*
X148025240Y-110885655D01*
X148017377Y-110879001D01*
X147985926Y-110850948D01*
X147968107Y-110831810D01*
X147962486Y-110820091D01*
X147959968Y-110811607D01*
X147948453Y-110795588D01*
X147939797Y-110788148D01*
X147934420Y-110787230D01*
X147930147Y-110788542D01*
X147915709Y-110782891D01*
X147904399Y-110774241D01*
X147896998Y-110760191D01*
X147896617Y-110758629D01*
X147887506Y-110744872D01*
X147868089Y-110721512D01*
X147840811Y-110691383D01*
X147808121Y-110657318D01*
X147799448Y-110648488D01*
X147767911Y-110615873D01*
X147742271Y-110588559D01*
X147724973Y-110569189D01*
X147718460Y-110560407D01*
X147716928Y-110539923D01*
X147716164Y-110512107D01*
X147716325Y-110484718D01*
X147717367Y-110463844D01*
X147719245Y-110455576D01*
X147738815Y-110459107D01*
X147757968Y-110468527D01*
X147766022Y-110479931D01*
X147767375Y-110485607D01*
X147779291Y-110492873D01*
X147779397Y-110492874D01*
X147792949Y-110498778D01*
X147815469Y-110513965D01*
X147842138Y-110535191D01*
X147843047Y-110535964D01*
X147869436Y-110556218D01*
X147891512Y-110569359D01*
X147904578Y-110572575D01*
X147913118Y-110572885D01*
X147922262Y-110586078D01*
X147928598Y-110597810D01*
X147946555Y-110610698D01*
X147965451Y-110621468D01*
X147985306Y-110640012D01*
X148003378Y-110660236D01*
X148025635Y-110682607D01*
X148040450Y-110698667D01*
X148046685Y-110710181D01*
X148046750Y-110710943D01*
X148055761Y-110724637D01*
X148079203Y-110747422D01*
X148115972Y-110778213D01*
X148116429Y-110778580D01*
X148132780Y-110794927D01*
X148139807Y-110808181D01*
X148142435Y-110813078D01*
X148157832Y-110825152D01*
X148182339Y-110838060D01*
X148195519Y-110844571D01*
X148216387Y-110858935D01*
X148224438Y-110871242D01*
X148226122Y-110878260D01*
X148237942Y-110885801D01*
X148239272Y-110885922D01*
X148253286Y-110894935D01*
X148268026Y-110913867D01*
X148277602Y-110927870D01*
X148297209Y-110941762D01*
X148325009Y-110942632D01*
X148332981Y-110947781D01*
X148336703Y-110966349D01*
X148337389Y-110973723D01*
X148348818Y-110998336D01*
X148375682Y-111027569D01*
X148392531Y-111042514D01*
X148411598Y-111057679D01*
X148421930Y-111063554D01*
X148422814Y-111063718D01*
X148432804Y-111072838D01*
X148445779Y-111091620D01*
X148447491Y-111094428D01*
X148461509Y-111112357D01*
X148472975Y-111119687D01*
X148474902Y-111120032D01*
X148488502Y-111129461D01*
X148505101Y-111147753D01*
X148508499Y-111151997D01*
X148525720Y-111168949D01*
X148539244Y-111175819D01*
X148544627Y-111177060D01*
X148551878Y-111188761D01*
X148555385Y-111197199D01*
X148570589Y-111206596D01*
X148581446Y-111212221D01*
X148589300Y-111226398D01*
X148590247Y-111233647D01*
X148596753Y-111241307D01*
X148602850Y-111243049D01*
X148616486Y-111251310D01*
X148639114Y-111268048D01*
X148673350Y-111295101D01*
X148676515Y-111297596D01*
X148695568Y-111310832D01*
X148707593Y-111316312D01*
X148715588Y-111319837D01*
X148732297Y-111335310D01*
X148750742Y-111358413D01*
X148766428Y-111383978D01*
X148779625Y-111402134D01*
X148792947Y-111409705D01*
X148795423Y-111410048D01*
X148811768Y-111418910D01*
X148831127Y-111436014D01*
X148831859Y-111436785D01*
X148858109Y-111460250D01*
X148886347Y-111480137D01*
X148890143Y-111482464D01*
X148910830Y-111499044D01*
X148922060Y-111514639D01*
X148927485Y-111523533D01*
X148948463Y-111532502D01*
X148984968Y-111532847D01*
X148994933Y-111534386D01*
X148999001Y-111546788D01*
X149000752Y-111557027D01*
X149016767Y-111563856D01*
X149019638Y-111564070D01*
X149021007Y-111564172D01*
X149031303Y-111562987D01*
X149031861Y-111554283D01*
X149023783Y-111533257D01*
X149022945Y-111531203D01*
X149013983Y-111501951D01*
X149010295Y-111476029D01*
X149009707Y-111467496D01*
X148999790Y-111432925D01*
X148980478Y-111395982D01*
X148955496Y-111364262D01*
X148941833Y-111345205D01*
X148939567Y-111328275D01*
X148940928Y-111319510D01*
X148934566Y-111301051D01*
X148930058Y-111292979D01*
X148929315Y-111274478D01*
X148929837Y-111272292D01*
X148924755Y-111255362D01*
X148908645Y-111234599D01*
X148903335Y-111228674D01*
X148884389Y-111198053D01*
X148870942Y-111161910D01*
X148866417Y-111145180D01*
X148858171Y-111119837D01*
X148851640Y-111105778D01*
X148850922Y-111104781D01*
X148843802Y-111088171D01*
X148837104Y-111063554D01*
X148836690Y-111061661D01*
X148828778Y-111035100D01*
X148819652Y-111015736D01*
X148814542Y-110999806D01*
X148812378Y-110969719D01*
X148813681Y-110932764D01*
X148817970Y-110894987D01*
X148824762Y-110862432D01*
X148833577Y-110841142D01*
X148835565Y-110838560D01*
X148859897Y-110821434D01*
X148901096Y-110808870D01*
X148934328Y-110803360D01*
X148956090Y-110804320D01*
X148962818Y-110813253D01*
X148955725Y-110830641D01*
X148951903Y-110839012D01*
X148947079Y-110867733D01*
X148947702Y-110903593D01*
X148953008Y-110940168D01*
X148962235Y-110971033D01*
X148974620Y-110989766D01*
X148986086Y-111002461D01*
X148987445Y-111015905D01*
X148986843Y-111029763D01*
X148995455Y-111049603D01*
X149005287Y-111069129D01*
X149010295Y-111090146D01*
X149012750Y-111101963D01*
X149025302Y-111120495D01*
X149034928Y-111130412D01*
X149049093Y-111152046D01*
X149059830Y-111173787D01*
X149077883Y-111204802D01*
X149093410Y-111225255D01*
X149100760Y-111241275D01*
X149103849Y-111265421D01*
X149108175Y-111289842D01*
X149118857Y-111307604D01*
X149132171Y-111322686D01*
X149147402Y-111356803D01*
X149151934Y-111395672D01*
X149154166Y-111418540D01*
X149162308Y-111437900D01*
X149167420Y-111443468D01*
X149184773Y-111458177D01*
X149203808Y-111470722D01*
X149219160Y-111477844D01*
X149225469Y-111476285D01*
X149229884Y-111471009D01*
X149243835Y-111472619D01*
X149261023Y-111480986D01*
X149274872Y-111493782D01*
X149282392Y-111501267D01*
X149304524Y-111516268D01*
X149333057Y-111531067D01*
X149349362Y-111538850D01*
X149382812Y-111557051D01*
X149409085Y-111574049D01*
X149415164Y-111578436D01*
X149433406Y-111589260D01*
X149443084Y-111591256D01*
X149443608Y-111590931D01*
X149456801Y-111590655D01*
X149483234Y-111593593D01*
X149518486Y-111598967D01*
X149558133Y-111605999D01*
X149597753Y-111613912D01*
X149632924Y-111621928D01*
X149659223Y-111629268D01*
X149678231Y-111633699D01*
X149711821Y-111638102D01*
X149752541Y-111641231D01*
X149796099Y-111642995D01*
X149838203Y-111643304D01*
X149874561Y-111642067D01*
X149900881Y-111639195D01*
X149912870Y-111634598D01*
X149918791Y-111629439D01*
X149936670Y-111624880D01*
X149951671Y-111620946D01*
X149971201Y-111607438D01*
X149985465Y-111594816D01*
X150009713Y-111578654D01*
X150023315Y-111568241D01*
X150025590Y-111551943D01*
X150023377Y-111544324D01*
X150026095Y-111542976D01*
X150032895Y-111545185D01*
X150047603Y-111541050D01*
X150060348Y-111531900D01*
X150062984Y-111522300D01*
X150061940Y-111518728D01*
X150069356Y-111510423D01*
X150076929Y-111502802D01*
X150082245Y-111483896D01*
X150084439Y-111467437D01*
X150090526Y-111445097D01*
X150093300Y-111426931D01*
X150088476Y-111403800D01*
X150077697Y-111385237D01*
X150063795Y-111378313D01*
X150053701Y-111376183D01*
X150053468Y-111362792D01*
X150053731Y-111361856D01*
X150051137Y-111347776D01*
X150036212Y-111328384D01*
X150007204Y-111301352D01*
X149986058Y-111282522D01*
X149969025Y-111264607D01*
X149963307Y-111252549D01*
X149966779Y-111243297D01*
X149969756Y-111239240D01*
X149970881Y-111227334D01*
X149957229Y-111213008D01*
X149942957Y-111199976D01*
X149936482Y-111190862D01*
X149934895Y-111187473D01*
X149923966Y-111173234D01*
X149906077Y-111153178D01*
X149873155Y-111117370D01*
X149873113Y-111117321D01*
X150161360Y-111117321D01*
X150165057Y-111140159D01*
X150175343Y-111161235D01*
X150183800Y-111174998D01*
X150189079Y-111191500D01*
X150191282Y-111199909D01*
X150201093Y-111221374D01*
X150216099Y-111248183D01*
X150226326Y-111265884D01*
X150241186Y-111294819D01*
X150249902Y-111316151D01*
X150258345Y-111330615D01*
X150277898Y-111354459D01*
X150304565Y-111383100D01*
X150334556Y-111412799D01*
X150364083Y-111439814D01*
X150389358Y-111460407D01*
X150406593Y-111470836D01*
X150415331Y-111476563D01*
X150422965Y-111494015D01*
X150429065Y-111507665D01*
X150446433Y-111528688D01*
X150471194Y-111551856D01*
X150495498Y-111572574D01*
X150521922Y-111596014D01*
X150540094Y-111613186D01*
X150540393Y-111613490D01*
X150557263Y-111628207D01*
X150569047Y-111634418D01*
X150569535Y-111634488D01*
X150581019Y-111641679D01*
X150601393Y-111658351D01*
X150626586Y-111681195D01*
X150628989Y-111683458D01*
X150654184Y-111705879D01*
X150674481Y-111721760D01*
X150685682Y-111727790D01*
X150688480Y-111728327D01*
X150704632Y-111736430D01*
X150726185Y-111751178D01*
X150732954Y-111756172D01*
X150753507Y-111769301D01*
X150766484Y-111774567D01*
X150772395Y-111776792D01*
X150789764Y-111788649D01*
X150811868Y-111807311D01*
X150815897Y-111810909D01*
X150846703Y-111832353D01*
X150872853Y-111840055D01*
X150891085Y-111843662D01*
X150903475Y-111854088D01*
X150909223Y-111861660D01*
X150926719Y-111868121D01*
X150937590Y-111870138D01*
X150956225Y-111882154D01*
X150964789Y-111889381D01*
X150985730Y-111896188D01*
X150996224Y-111898421D01*
X151008974Y-111910221D01*
X151016670Y-111918763D01*
X151035601Y-111924254D01*
X151050080Y-111926673D01*
X151067313Y-111936869D01*
X151072579Y-111940666D01*
X151092509Y-111946003D01*
X151127340Y-111949453D01*
X151178952Y-111951258D01*
X151223759Y-111951710D01*
X151254778Y-111950826D01*
X151274726Y-111948040D01*
X151287455Y-111942808D01*
X151296815Y-111934584D01*
X151302470Y-111927477D01*
X151316366Y-111903024D01*
X151327196Y-111875223D01*
X151332752Y-111850524D01*
X151330821Y-111835377D01*
X151329300Y-111832893D01*
X151322786Y-111814673D01*
X151316791Y-111788600D01*
X151315410Y-111781603D01*
X151308305Y-111755938D01*
X151300733Y-111739894D01*
X151297189Y-111733653D01*
X151297698Y-111718434D01*
X151299554Y-111712738D01*
X151295045Y-111696975D01*
X151293085Y-111694085D01*
X151283856Y-111674920D01*
X151274189Y-111648748D01*
X151268880Y-111634314D01*
X151253531Y-111600168D01*
X151235679Y-111566697D01*
X151225690Y-111548721D01*
X151211282Y-111518731D01*
X151203069Y-111496052D01*
X151193318Y-111472025D01*
X151176719Y-111447127D01*
X151170012Y-111439088D01*
X151150323Y-111412482D01*
X151125389Y-111374857D01*
X151093377Y-111323496D01*
X151093324Y-111323410D01*
X151082390Y-111302478D01*
X151077845Y-111287745D01*
X151075642Y-111279862D01*
X151064495Y-111264042D01*
X151061528Y-111261154D01*
X151052167Y-111256097D01*
X151047320Y-111267050D01*
X151046091Y-111270369D01*
X151041595Y-111267258D01*
X151036193Y-111248072D01*
X151028458Y-111228547D01*
X151011510Y-111201131D01*
X150989373Y-111172122D01*
X150965741Y-111145935D01*
X150944310Y-111126984D01*
X150928772Y-111119687D01*
X150919510Y-111113660D01*
X150909447Y-111096298D01*
X150900943Y-111080660D01*
X150890639Y-111072909D01*
X150885500Y-111076195D01*
X150890407Y-111091005D01*
X150897494Y-111105640D01*
X150898550Y-111116857D01*
X150888309Y-111119687D01*
X150884879Y-111120127D01*
X150870336Y-111130783D01*
X150863780Y-111143641D01*
X150861065Y-111148966D01*
X150862182Y-111165673D01*
X150863777Y-111170311D01*
X150862732Y-111190346D01*
X150855995Y-111215346D01*
X150846087Y-111237449D01*
X150835528Y-111248795D01*
X150832152Y-111250618D01*
X150830461Y-111260883D01*
X150830399Y-111267027D01*
X150818825Y-111275774D01*
X150809075Y-111280086D01*
X150797182Y-111288371D01*
X150789649Y-111292068D01*
X150768371Y-111296381D01*
X150739036Y-111299801D01*
X150706964Y-111301992D01*
X150677471Y-111302617D01*
X150655875Y-111301342D01*
X150647495Y-111297830D01*
X150646572Y-111295676D01*
X150633620Y-111290255D01*
X150610255Y-111288084D01*
X150590317Y-111285875D01*
X150547775Y-111273427D01*
X150494248Y-111250663D01*
X150475812Y-111242036D01*
X150442703Y-111227255D01*
X150417714Y-111217049D01*
X150405190Y-111213241D01*
X150402158Y-111212861D01*
X150394899Y-111204720D01*
X150392515Y-111200711D01*
X150377714Y-111189478D01*
X150353861Y-111176333D01*
X150342561Y-111170581D01*
X150313071Y-111153357D01*
X150291034Y-111137569D01*
X150274282Y-111126719D01*
X150248121Y-111123972D01*
X150247702Y-111124077D01*
X150232795Y-111125129D01*
X150231990Y-111116269D01*
X150232396Y-111115040D01*
X150227751Y-111104857D01*
X150206013Y-111098556D01*
X150204082Y-111098273D01*
X150181308Y-111096431D01*
X150168029Y-111097964D01*
X150165169Y-111100648D01*
X150161360Y-111117321D01*
X149873113Y-111117321D01*
X149845024Y-111084158D01*
X149829623Y-111061658D01*
X149826300Y-111048882D01*
X149834400Y-111044843D01*
X149836416Y-111044577D01*
X149842928Y-111035488D01*
X149839704Y-111030172D01*
X149824848Y-111026132D01*
X149812845Y-111022384D01*
X149800871Y-111005083D01*
X149797540Y-110993863D01*
X149791851Y-110977611D01*
X149782877Y-110955101D01*
X149768526Y-110920884D01*
X149765560Y-110913524D01*
X149750478Y-110857397D01*
X149744970Y-110796883D01*
X149748403Y-110749550D01*
X149912729Y-110749550D01*
X149915693Y-110754825D01*
X149920579Y-110756083D01*
X149927127Y-110767857D01*
X149930450Y-110777802D01*
X149949381Y-110788550D01*
X149984025Y-110792246D01*
X150002995Y-110795116D01*
X150011326Y-110806280D01*
X150014799Y-110814463D01*
X150030037Y-110820313D01*
X150040912Y-110818558D01*
X150048748Y-110810957D01*
X150049019Y-110808721D01*
X150058103Y-110801602D01*
X150060311Y-110801839D01*
X150067458Y-110809991D01*
X150073214Y-110820197D01*
X150089796Y-110839483D01*
X150113535Y-110863952D01*
X150140727Y-110890058D01*
X150167672Y-110914254D01*
X150190668Y-110932994D01*
X150206014Y-110942733D01*
X150218865Y-110950751D01*
X150220941Y-110962072D01*
X150218832Y-110966593D01*
X150223181Y-110967374D01*
X150230349Y-110967926D01*
X150248914Y-110977242D01*
X150272720Y-110993994D01*
X150289019Y-111006524D01*
X150312582Y-111021975D01*
X150325484Y-111025167D01*
X150329411Y-111016777D01*
X150330108Y-111013539D01*
X150340637Y-111007421D01*
X150347146Y-111009378D01*
X150340637Y-111018648D01*
X150335213Y-111024877D01*
X150329411Y-111036297D01*
X150329411Y-111036309D01*
X150337791Y-111042482D01*
X150358929Y-111048766D01*
X150386942Y-111053805D01*
X150415948Y-111056243D01*
X150433596Y-111059589D01*
X150441676Y-111067491D01*
X150442409Y-111070493D01*
X150452582Y-111085310D01*
X150470907Y-111103749D01*
X150485032Y-111115224D01*
X150501066Y-111122885D01*
X150513007Y-111118719D01*
X150520265Y-111113300D01*
X150526519Y-111114606D01*
X150529383Y-111131381D01*
X150532785Y-111136006D01*
X150550171Y-111144146D01*
X150577330Y-111150588D01*
X150591934Y-111153101D01*
X150624947Y-111159800D01*
X150649834Y-111166148D01*
X150667331Y-111170168D01*
X150674320Y-111164108D01*
X150675562Y-111143641D01*
X150674214Y-111129662D01*
X150666728Y-111111519D01*
X150650177Y-111090262D01*
X150621768Y-111061630D01*
X150619052Y-111059023D01*
X150589729Y-111029900D01*
X150563282Y-111002087D01*
X150545142Y-110981279D01*
X150540196Y-110975344D01*
X150524635Y-110960691D01*
X150514575Y-110957168D01*
X150506053Y-110955031D01*
X150487392Y-110943103D01*
X150463585Y-110923875D01*
X150442887Y-110906609D01*
X150422023Y-110891416D01*
X150409953Y-110885421D01*
X150405763Y-110884209D01*
X150388886Y-110874165D01*
X150367186Y-110857354D01*
X150358052Y-110850062D01*
X150334959Y-110835470D01*
X150317776Y-110829668D01*
X150308167Y-110827621D01*
X150295372Y-110815635D01*
X150291521Y-110809124D01*
X150278216Y-110801602D01*
X150278029Y-110801600D01*
X150262732Y-110796008D01*
X150242659Y-110782891D01*
X150230161Y-110774159D01*
X150212590Y-110765637D01*
X150201957Y-110764842D01*
X150202713Y-110772889D01*
X150203991Y-110776754D01*
X150197826Y-110787945D01*
X150191368Y-110787603D01*
X150190657Y-110772219D01*
X150191319Y-110762543D01*
X150185355Y-110751835D01*
X150165690Y-110747710D01*
X150162689Y-110747416D01*
X150133557Y-110742454D01*
X150100703Y-110734320D01*
X150071526Y-110725055D01*
X150053425Y-110716705D01*
X150053090Y-110716473D01*
X150033856Y-110711710D01*
X150004241Y-110712363D01*
X149971208Y-110717384D01*
X149941718Y-110725728D01*
X149922735Y-110736348D01*
X149912729Y-110749550D01*
X149748403Y-110749550D01*
X149749189Y-110738710D01*
X149756289Y-110713980D01*
X149910071Y-110713980D01*
X149917771Y-110717403D01*
X149922724Y-110716728D01*
X149924008Y-110711166D01*
X149922637Y-110710046D01*
X149911535Y-110711166D01*
X149910071Y-110713980D01*
X149756289Y-110713980D01*
X149763287Y-110689604D01*
X149768372Y-110679453D01*
X149782118Y-110659744D01*
X149793985Y-110651915D01*
X149802005Y-110648842D01*
X149802796Y-110633204D01*
X149801929Y-110621898D01*
X149808118Y-110614493D01*
X149821447Y-110608719D01*
X149839481Y-110594627D01*
X149858632Y-110583269D01*
X149894310Y-110572858D01*
X149938922Y-110566596D01*
X149987261Y-110565162D01*
X150034119Y-110569234D01*
X150050843Y-110571461D01*
X150079193Y-110573270D01*
X150097278Y-110571795D01*
X150108295Y-110570495D01*
X150130022Y-110575535D01*
X150161782Y-110590333D01*
X150221823Y-110609737D01*
X150227789Y-110611329D01*
X150253530Y-110620610D01*
X150288119Y-110635146D01*
X150325791Y-110652564D01*
X150341913Y-110660277D01*
X150374375Y-110675169D01*
X150398767Y-110685482D01*
X150410748Y-110689337D01*
X150420153Y-110695439D01*
X150431299Y-110711166D01*
X150432059Y-110712238D01*
X150445217Y-110727318D01*
X150472581Y-110745305D01*
X150505128Y-110758838D01*
X150535419Y-110764180D01*
X150547802Y-110767565D01*
X150553941Y-110783892D01*
X150556392Y-110796316D01*
X150567370Y-110798451D01*
X150573975Y-110796801D01*
X150583742Y-110799789D01*
X150596983Y-110814222D01*
X150621020Y-110829415D01*
X150647776Y-110840817D01*
X150669369Y-110844330D01*
X150686000Y-110845188D01*
X150698632Y-110856733D01*
X150700945Y-110861235D01*
X150709314Y-110866456D01*
X150726274Y-110869299D01*
X150755188Y-110870191D01*
X150799418Y-110869561D01*
X150895414Y-110867299D01*
X150934750Y-110903848D01*
X150951964Y-110918793D01*
X150975022Y-110935713D01*
X150990882Y-110943600D01*
X151001726Y-110949908D01*
X151010672Y-110967777D01*
X151010708Y-110968026D01*
X151022161Y-110989553D01*
X151044402Y-111005020D01*
X151069604Y-111008958D01*
X151070345Y-111008854D01*
X151080589Y-111012298D01*
X151080477Y-111029021D01*
X151079843Y-111040973D01*
X151087824Y-111055620D01*
X151109768Y-111071185D01*
X151134394Y-111090668D01*
X151143333Y-111110568D01*
X151145115Y-111121557D01*
X151151625Y-111125022D01*
X151158309Y-111126661D01*
X151165658Y-111140842D01*
X151167434Y-111146866D01*
X151172922Y-111155455D01*
X151180611Y-111147753D01*
X151186549Y-111140964D01*
X151191212Y-111145672D01*
X151190700Y-111168212D01*
X151192100Y-111176255D01*
X151203064Y-111190237D01*
X151218646Y-111198814D01*
X151231480Y-111196819D01*
X151233286Y-111196766D01*
X151235650Y-111208057D01*
X151235495Y-111230972D01*
X151235127Y-111240092D01*
X151238035Y-111267526D01*
X151248882Y-111283073D01*
X151257148Y-111291265D01*
X151258557Y-111300718D01*
X151258475Y-111300803D01*
X151258202Y-111312745D01*
X151265814Y-111332282D01*
X151277804Y-111352311D01*
X151290666Y-111365732D01*
X151295320Y-111369829D01*
X151302376Y-111386781D01*
X151303884Y-111392951D01*
X151316080Y-111400350D01*
X151316410Y-111400353D01*
X151332182Y-111408984D01*
X151344305Y-111429975D01*
X151349153Y-111457102D01*
X151350002Y-111465047D01*
X151358108Y-111488800D01*
X151371719Y-111513473D01*
X151387029Y-111532842D01*
X151400236Y-111540681D01*
X151400971Y-111540725D01*
X151412604Y-111549610D01*
X151423634Y-111568503D01*
X151430467Y-111589532D01*
X151429508Y-111604819D01*
X151427958Y-111616430D01*
X151432601Y-111636940D01*
X151436451Y-111652073D01*
X151431802Y-111669465D01*
X151427385Y-111677685D01*
X151432485Y-111698104D01*
X151435692Y-111706501D01*
X151440724Y-111732919D01*
X151442707Y-111764596D01*
X151443127Y-111779560D01*
X151446664Y-111803289D01*
X151453153Y-111811989D01*
X151459051Y-111817656D01*
X151457414Y-111837716D01*
X151454657Y-111850524D01*
X151452843Y-111858955D01*
X151448030Y-111886832D01*
G37*
G36*
X150993646Y-108953904D02*
G01*
X150988969Y-108958582D01*
X150984291Y-108953904D01*
X150988969Y-108949226D01*
X150993646Y-108953904D01*
G37*
G36*
X138812873Y-112134751D02*
G01*
X138808195Y-112139429D01*
X138803517Y-112134751D01*
X138808195Y-112130073D01*
X138812873Y-112134751D01*
G37*
G36*
X144660018Y-108840348D02*
G01*
X144707109Y-108842275D01*
X144746752Y-108844086D01*
X144773986Y-108845858D01*
X144792176Y-108848007D01*
X144804686Y-108850949D01*
X144814880Y-108855098D01*
X144826122Y-108860870D01*
X144847493Y-108870182D01*
X144864416Y-108874325D01*
X144871447Y-108875990D01*
X144893463Y-108884232D01*
X144925280Y-108897808D01*
X144962648Y-108914960D01*
X144985407Y-108925695D01*
X145023346Y-108943373D01*
X145054675Y-108957707D01*
X145074259Y-108966334D01*
X145093625Y-108977650D01*
X145105665Y-108991245D01*
X145116070Y-109000796D01*
X145137853Y-109005359D01*
X145139183Y-109005365D01*
X145157418Y-109008544D01*
X145159668Y-109018275D01*
X145159232Y-109020024D01*
X145165755Y-109034223D01*
X145186305Y-109050717D01*
X145189860Y-109052963D01*
X145215281Y-109071323D01*
X145234624Y-109088725D01*
X145251785Y-109102086D01*
X145277759Y-109113008D01*
X145298490Y-109121874D01*
X145317895Y-109139266D01*
X145321978Y-109144936D01*
X145340192Y-109166915D01*
X145362228Y-109190573D01*
X145364649Y-109193083D01*
X145386649Y-109223470D01*
X145398304Y-109254128D01*
X145399149Y-109258672D01*
X145405327Y-109278277D01*
X145412290Y-109285589D01*
X145418132Y-109287259D01*
X145429237Y-109299413D01*
X145435375Y-109306835D01*
X145446450Y-109309055D01*
X145450951Y-109308349D01*
X145455230Y-109318214D01*
X145458504Y-109326702D01*
X145473941Y-109332799D01*
X145484832Y-109335361D01*
X145492652Y-109347257D01*
X145492738Y-109348588D01*
X145500205Y-109365428D01*
X145516040Y-109385104D01*
X145518515Y-109387629D01*
X145533364Y-109405374D01*
X145539429Y-109417423D01*
X145540290Y-109420759D01*
X145551254Y-109426353D01*
X145561134Y-109432680D01*
X145576278Y-109450224D01*
X145592095Y-109473141D01*
X145604547Y-109495537D01*
X145609595Y-109511517D01*
X145612721Y-109519604D01*
X145625967Y-109533387D01*
X145636540Y-109547067D01*
X145642339Y-109570349D01*
X145645681Y-109588252D01*
X145655452Y-109600370D01*
X145661264Y-109605023D01*
X145671566Y-109626647D01*
X145679746Y-109662218D01*
X145684946Y-109708594D01*
X145685204Y-109713528D01*
X145681280Y-109741733D01*
X145664801Y-109764019D01*
X145664636Y-109764175D01*
X145648760Y-109784725D01*
X145641925Y-109804540D01*
X145640433Y-109812430D01*
X145634481Y-109808499D01*
X145622739Y-109788386D01*
X145618625Y-109779898D01*
X145610088Y-109754466D01*
X145609229Y-109736236D01*
X145606431Y-109718199D01*
X145586315Y-109694554D01*
X145580901Y-109689470D01*
X145564672Y-109670223D01*
X145558140Y-109655489D01*
X145557370Y-109649132D01*
X145551123Y-109641349D01*
X145550578Y-109641306D01*
X145536981Y-109634071D01*
X145517272Y-109617972D01*
X145496697Y-109598060D01*
X145480505Y-109579390D01*
X145473941Y-109567015D01*
X145472843Y-109561148D01*
X145463188Y-109543448D01*
X145448727Y-109527096D01*
X145435789Y-109519908D01*
X145433808Y-109519388D01*
X145420415Y-109510531D01*
X145401613Y-109494180D01*
X145398418Y-109491149D01*
X145375504Y-109470034D01*
X145356455Y-109453362D01*
X145354092Y-109451326D01*
X145335105Y-109432273D01*
X145315001Y-109408923D01*
X145310005Y-109402799D01*
X145294718Y-109386227D01*
X145285532Y-109379576D01*
X145282108Y-109378095D01*
X145267801Y-109367166D01*
X145248007Y-109349094D01*
X145242465Y-109343756D01*
X145212515Y-109315949D01*
X145183259Y-109290040D01*
X145173760Y-109281499D01*
X145154317Y-109261100D01*
X145143792Y-109245679D01*
X145136924Y-109236707D01*
X145118528Y-109229889D01*
X145104004Y-109225075D01*
X145088666Y-109206501D01*
X145078140Y-109190766D01*
X145065184Y-109183112D01*
X145058638Y-109181510D01*
X145046974Y-109169079D01*
X145043410Y-109162503D01*
X145032721Y-109155046D01*
X145032677Y-109155045D01*
X145020847Y-109150042D01*
X144998549Y-109137079D01*
X144970573Y-109118940D01*
X144942167Y-109100617D01*
X144915050Y-109084884D01*
X144897107Y-109076484D01*
X144884164Y-109070075D01*
X144871673Y-109056458D01*
X144863473Y-109047903D01*
X144844193Y-109042781D01*
X144826515Y-109038704D01*
X144805507Y-109024600D01*
X144786391Y-109010453D01*
X144759989Y-109000035D01*
X144733125Y-108990524D01*
X144705502Y-108974857D01*
X144683742Y-108963295D01*
X144664053Y-108962212D01*
X144646982Y-108962363D01*
X144624969Y-108953254D01*
X144609724Y-108945265D01*
X144589992Y-108942959D01*
X144561334Y-108948364D01*
X144549725Y-108951248D01*
X144527523Y-108956500D01*
X144516975Y-108958582D01*
X144508427Y-108953860D01*
X144493353Y-108941290D01*
X144479185Y-108927219D01*
X144472910Y-108918071D01*
X144476967Y-108911722D01*
X144491395Y-108895579D01*
X144512670Y-108874234D01*
X144552431Y-108835969D01*
X144660018Y-108840348D01*
G37*
G36*
X151283665Y-111302118D02*
G01*
X151278987Y-111306795D01*
X151274309Y-111302118D01*
X151278987Y-111297440D01*
X151283665Y-111302118D01*
G37*
%TD*%
M02*
