M48
; DRILL file {KiCad 6.0.7-1.fc35} date Fri 04 Nov 2022 19:38:44 CET
; FORMAT={-:-/ absolute / inch / decimal}
; #@! TF.CreationDate,2022-11-04T19:38:44+01:00
; #@! TF.GenerationSoftware,Kicad,Pcbnew,6.0.7-1.fc35
; #@! TF.FileFunction,Plated,1,2,PTH
FMAT,2
INCH
; #@! TA.AperFunction,Plated,PTH,ViaDrill
T1C0.0157
; #@! TA.AperFunction,Plated,PTH,ComponentDrill
T2C0.0315
; #@! TA.AperFunction,Plated,PTH,ComponentDrill
T3C0.0394
%
G90
G05
T1
X4.9961Y-3.6811
X5.012Y-3.622
X5.0224Y-3.7771
X5.0667Y-3.8959
X5.0709Y-3.5748
X5.0728Y-3.4488
X5.0756Y-3.7
X5.0768Y-3.6417
X5.1165Y-3.8362
X5.1245Y-3.3322
X5.1299Y-3.5827
X5.1339Y-3.4055
X5.1755Y-4.3283
X5.1755Y-4.3775
X5.1952Y-3.5886
X5.1964Y-3.4646
X5.1969Y-3.5236
X5.2008Y-3.2559
X5.2008Y-3.3504
X5.2272Y-3.6215
X5.228Y-4.4402
X5.2441Y-3.8583
X5.2531Y-3.4419
X5.2598Y-3.5241
X5.2685Y-3.9444
X5.2685Y-3.9936
X5.2878Y-4.2819
X5.2917Y-4.2283
X5.3031Y-3.9055
X5.3079Y-3.846
X5.3083Y-4.3646
X5.3091Y-4.4374
X5.3124Y-4.3182
X5.3222Y-3.1339
X5.3359Y-3.5394
X5.3461Y-3.3154
X5.3472Y-4.5921
X5.3539Y-4.4909
X5.3547Y-3.276
X5.3646Y-3.3893
X5.3646Y-4.1795
X5.3811Y-3.3339
X5.3819Y-3.1181
X5.3866Y-3.8165
X5.3898Y-3.6614
X5.4063Y-3.8854
X5.4161Y-3.7869
X5.426Y-4.4562
X5.4291Y-3.4724
X5.4346Y-4.6075
X5.4511Y-3.297
X5.4555Y-4.2299
X5.4806Y-3.0488
X5.485Y-4.0763
X5.4882Y-3.2717
X5.4961Y-3.4685
X5.52Y-3.6787
X5.5244Y-4.5251
X5.5315Y-3.2953
X5.5441Y-4.3578
X5.5539Y-4.4956
X5.6425Y-4.4661
X5.6425Y-4.5055
X5.6917Y-4.5202
X5.7508Y-4.4562
X5.8Y-4.1314
X5.8Y-4.5153
X5.8394Y-4.1118
X5.8787Y-4.1413
X5.928Y-4.1511
X5.928Y-4.4562
X5.9864Y-4.1505
X6.0657Y-4.1068
X6.1007Y-4.4464
X6.115Y-4.156
X6.1445Y-4.0625
X6.1445Y-4.2102
X6.174Y-4.161
X6.174Y-4.2495
X6.1839Y-4.3184
X6.2173Y-3.868
X6.2385Y-4.3381
X6.2528Y-3.5704
X6.2552Y-3.4346
X6.2616Y-3.8657
X6.2626Y-4.4661
X6.2778Y-4.407
X6.2823Y-3.974
X6.2823Y-4.0822
X6.2975Y-4.2692
X6.302Y-3.1669
X6.302Y-3.4031
X6.3271Y-4.1511
X6.3413Y-4.4464
X6.3719Y-3.718
X6.3763Y-4.2988
X6.3876Y-3.8952
X6.4058Y-4.1511
X6.4201Y-3.5675
X6.4299Y-4.0724
X6.4594Y-3.7771
X6.4988Y-3.7279
X6.4988Y-3.8952
X6.5579Y-4.1019
T2
X5.485Y-3.531
X5.485Y-3.6098
T3
X6.4299Y-3.3618
X6.4311Y-4.2279
X6.4799Y-3.4484
X6.4811Y-4.1413
X6.5598Y-3.7476
X6.5598Y-3.8476
T0
M30
