%TF.GenerationSoftware,KiCad,Pcbnew,6.0.7-1.fc35*%
%TF.CreationDate,2022-11-04T19:38:46+01:00*%
%TF.ProjectId,sense_slim,73656e73-655f-4736-9c69-6d2e6b696361,rev?*%
%TF.SameCoordinates,Original*%
%TF.FileFunction,Soldermask,Bot*%
%TF.FilePolarity,Negative*%
%FSLAX46Y46*%
G04 Gerber Fmt 4.6, Leading zero omitted, Abs format (unit mm)*
G04 Created by KiCad (PCBNEW 6.0.7-1.fc35) date 2022-11-04 19:38:46*
%MOMM*%
%LPD*%
G01*
G04 APERTURE LIST*
G04 Aperture macros list*
%AMRoundRect*
0 Rectangle with rounded corners*
0 $1 Rounding radius*
0 $2 $3 $4 $5 $6 $7 $8 $9 X,Y pos of 4 corners*
0 Add a 4 corners polygon primitive as box body*
4,1,4,$2,$3,$4,$5,$6,$7,$8,$9,$2,$3,0*
0 Add four circle primitives for the rounded corners*
1,1,$1+$1,$2,$3*
1,1,$1+$1,$4,$5*
1,1,$1+$1,$6,$7*
1,1,$1+$1,$8,$9*
0 Add four rect primitives between the rounded corners*
20,1,$1+$1,$2,$3,$4,$5,0*
20,1,$1+$1,$4,$5,$6,$7,0*
20,1,$1+$1,$6,$7,$8,$9,0*
20,1,$1+$1,$8,$9,$2,$3,0*%
%AMHorizOval*
0 Thick line with rounded ends*
0 $1 width*
0 $2 $3 position (X,Y) of the first rounded end (center of the circle)*
0 $4 $5 position (X,Y) of the second rounded end (center of the circle)*
0 Add line between two ends*
20,1,$1,$2,$3,$4,$5,0*
0 Add two circle primitives to create the rounded ends*
1,1,$1,$2,$3*
1,1,$1,$4,$5*%
%AMRotRect*
0 Rectangle, with rotation*
0 The origin of the aperture is its center*
0 $1 length*
0 $2 width*
0 $3 Rotation angle, in degrees counterclockwise*
0 Add horizontal line*
21,1,$1,$2,0,0,$3*%
G04 Aperture macros list end*
%ADD10RoundRect,0.218750X0.256250X-0.218750X0.256250X0.218750X-0.256250X0.218750X-0.256250X-0.218750X0*%
%ADD11RoundRect,0.225000X0.225000X0.250000X-0.225000X0.250000X-0.225000X-0.250000X0.225000X-0.250000X0*%
%ADD12RoundRect,0.218750X-0.256250X0.218750X-0.256250X-0.218750X0.256250X-0.218750X0.256250X0.218750X0*%
%ADD13RoundRect,0.200000X0.275000X-0.200000X0.275000X0.200000X-0.275000X0.200000X-0.275000X-0.200000X0*%
%ADD14R,1.700000X1.700000*%
%ADD15O,1.700000X1.700000*%
%ADD16RoundRect,0.200000X0.200000X0.275000X-0.200000X0.275000X-0.200000X-0.275000X0.200000X-0.275000X0*%
%ADD17RoundRect,0.200000X-0.275000X0.200000X-0.275000X-0.200000X0.275000X-0.200000X0.275000X0.200000X0*%
%ADD18RoundRect,0.150000X0.587500X0.150000X-0.587500X0.150000X-0.587500X-0.150000X0.587500X-0.150000X0*%
%ADD19RoundRect,0.218750X0.218750X0.256250X-0.218750X0.256250X-0.218750X-0.256250X0.218750X-0.256250X0*%
%ADD20RoundRect,0.125000X-0.125000X0.625000X-0.125000X-0.625000X0.125000X-0.625000X0.125000X0.625000X0*%
%ADD21RoundRect,0.125000X-0.625000X0.125000X-0.625000X-0.125000X0.625000X-0.125000X0.625000X0.125000X0*%
%ADD22R,1.800000X4.000000*%
%ADD23R,0.300000X3.000000*%
%ADD24RoundRect,0.200000X-0.200000X-0.275000X0.200000X-0.275000X0.200000X0.275000X-0.200000X0.275000X0*%
%ADD25RotRect,1.700000X1.700000X150.000000*%
%ADD26HorizOval,1.700000X0.000000X0.000000X0.000000X0.000000X0*%
%ADD27RoundRect,0.225000X-0.225000X-0.250000X0.225000X-0.250000X0.225000X0.250000X-0.225000X0.250000X0*%
%ADD28R,0.375000X0.350000*%
%ADD29R,0.350000X0.375000*%
%ADD30R,1.380000X0.450000*%
%ADD31R,1.300000X1.650000*%
%ADD32R,1.550000X1.425000*%
%ADD33R,1.900000X1.800000*%
%ADD34R,1.900000X1.000000*%
%ADD35R,0.900000X0.800000*%
%ADD36RoundRect,0.249999X1.075001X-0.425001X1.075001X0.425001X-1.075001X0.425001X-1.075001X-0.425001X0*%
%ADD37RotRect,1.700000X1.700000X210.000000*%
%ADD38HorizOval,1.700000X0.000000X0.000000X0.000000X0.000000X0*%
%ADD39RoundRect,0.150000X-0.587500X-0.150000X0.587500X-0.150000X0.587500X0.150000X-0.587500X0.150000X0*%
%ADD40R,1.350000X1.350000*%
%ADD41O,1.350000X1.350000*%
G04 APERTURE END LIST*
D10*
%TO.C,C7*%
X134390000Y-115737500D03*
X134390000Y-114162500D03*
%TD*%
%TO.C,R1*%
X132820002Y-115725955D03*
X132820002Y-114150955D03*
%TD*%
D11*
%TO.C,C26*%
X131975000Y-88000000D03*
X130425000Y-88000000D03*
%TD*%
%TO.C,C23*%
X166595002Y-90688455D03*
X165045002Y-90688455D03*
%TD*%
D12*
%TO.C,C17*%
X132707112Y-81150955D03*
X132707112Y-82725955D03*
%TD*%
D13*
%TO.C,R13*%
X158570002Y-85763455D03*
X158570002Y-84113455D03*
%TD*%
D14*
%TO.C,J6*%
X166620002Y-95188455D03*
D15*
X166620002Y-97728455D03*
%TD*%
D12*
%TO.C,C18*%
X134207112Y-81150955D03*
X134207112Y-82725955D03*
%TD*%
D16*
%TO.C,R18*%
X163895002Y-97438455D03*
X162245002Y-97438455D03*
%TD*%
D17*
%TO.C,R20*%
X163070002Y-90613455D03*
X163070002Y-92263455D03*
%TD*%
D11*
%TO.C,C22*%
X162095002Y-81438455D03*
X160545002Y-81438455D03*
%TD*%
D17*
%TO.C,R19*%
X160070002Y-84113455D03*
X160070002Y-85763455D03*
%TD*%
D18*
%TO.C,Q4*%
X162787500Y-100400000D03*
X162787500Y-102300000D03*
X160912500Y-101350000D03*
%TD*%
D19*
%TO.C,R2*%
X131987500Y-89500000D03*
X130412500Y-89500000D03*
%TD*%
D20*
%TO.C,U2*%
X132770002Y-94513455D03*
X133570002Y-94513455D03*
X134370002Y-94513455D03*
X135170002Y-94513455D03*
X135970002Y-94513455D03*
X136770002Y-94513455D03*
X137570002Y-94513455D03*
X138370002Y-94513455D03*
D21*
X139745002Y-95888455D03*
X139745002Y-96688455D03*
X139745002Y-97488455D03*
X139745002Y-98288455D03*
X139745002Y-99088455D03*
X139745002Y-99888455D03*
X139745002Y-100688455D03*
X139745002Y-101488455D03*
D20*
X138370002Y-102863455D03*
X137570002Y-102863455D03*
X136770002Y-102863455D03*
X135970002Y-102863455D03*
X135170002Y-102863455D03*
X134370002Y-102863455D03*
X133570002Y-102863455D03*
X132770002Y-102863455D03*
D21*
X131395002Y-101488455D03*
X131395002Y-100688455D03*
X131395002Y-99888455D03*
X131395002Y-99088455D03*
X131395002Y-98288455D03*
X131395002Y-97488455D03*
X131395002Y-96688455D03*
X131395002Y-95888455D03*
%TD*%
D10*
%TO.C,R7*%
X131957112Y-92725955D03*
X131957112Y-91150955D03*
%TD*%
D22*
%TO.C,J1*%
X139160002Y-110198455D03*
X154460002Y-110198455D03*
D23*
X152560002Y-108398455D03*
X152060002Y-108398455D03*
X151560002Y-108398455D03*
X151060002Y-108398455D03*
X150560002Y-108398455D03*
X150060002Y-108398455D03*
X149560002Y-108398455D03*
X149060002Y-108398455D03*
X148560002Y-108398455D03*
X148060002Y-108398455D03*
X147560002Y-108398455D03*
X147060002Y-108398455D03*
X146560002Y-108398455D03*
X146060002Y-108398455D03*
X145560002Y-108398455D03*
X145060002Y-108398455D03*
X144560002Y-108398455D03*
X144060002Y-108398455D03*
X143560002Y-108398455D03*
X143060002Y-108398455D03*
X142560002Y-108398455D03*
X142060002Y-108398455D03*
X141560002Y-108398455D03*
X141060002Y-108398455D03*
%TD*%
D18*
%TO.C,Q3*%
X161257502Y-90738455D03*
X161257502Y-92638455D03*
X159382502Y-91688455D03*
%TD*%
D12*
%TO.C,R9*%
X135707112Y-81150955D03*
X135707112Y-82725955D03*
%TD*%
D24*
%TO.C,R21*%
X162245002Y-98900000D03*
X163895002Y-98900000D03*
%TD*%
D25*
%TO.C,J7*%
X164620002Y-105188455D03*
D26*
X163350002Y-107388160D03*
%TD*%
D27*
%TO.C,C24*%
X160295002Y-94438455D03*
X161845002Y-94438455D03*
%TD*%
D28*
%TO.C,U5*%
X135162500Y-84750000D03*
X135162500Y-85250000D03*
X135162500Y-85750000D03*
X135162500Y-86250000D03*
D29*
X134650000Y-86262500D03*
X134150000Y-86262500D03*
D28*
X133637500Y-86250000D03*
X133637500Y-85750000D03*
X133637500Y-85250000D03*
X133637500Y-84750000D03*
D29*
X134150000Y-84737500D03*
X134650000Y-84737500D03*
%TD*%
D30*
%TO.C,J2*%
X128780002Y-97768455D03*
X128780002Y-97118455D03*
X128780002Y-96468455D03*
X128780002Y-95818455D03*
X128780002Y-95168455D03*
D31*
X126120002Y-99843455D03*
D32*
X128695002Y-93980955D03*
D31*
X126120002Y-93093455D03*
D33*
X126120002Y-97618455D03*
D32*
X128695002Y-98955955D03*
D34*
X126120002Y-94918455D03*
%TD*%
D35*
%TO.C,Q1*%
X160070002Y-105488455D03*
X160070002Y-107388455D03*
X158070002Y-106438455D03*
%TD*%
D36*
%TO.C,BT1*%
X139207112Y-81938455D03*
X139207112Y-77438455D03*
%TD*%
D12*
%TO.C,C20*%
X136707112Y-77650955D03*
X136707112Y-79225955D03*
%TD*%
D37*
%TO.C,J5*%
X163320002Y-85388455D03*
D38*
X164590002Y-87588160D03*
%TD*%
D17*
%TO.C,R8*%
X158570002Y-81113455D03*
X158570002Y-82763455D03*
%TD*%
D12*
%TO.C,C21*%
X133600000Y-89512500D03*
X133600000Y-91087500D03*
%TD*%
D16*
%TO.C,R12*%
X161895002Y-95938455D03*
X160245002Y-95938455D03*
%TD*%
D39*
%TO.C,Q2*%
X158882502Y-89138455D03*
X158882502Y-87238455D03*
X160757502Y-88188455D03*
%TD*%
D19*
%TO.C,C1*%
X131987500Y-86500000D03*
X130412500Y-86500000D03*
%TD*%
D17*
%TO.C,R14*%
X163820002Y-93863455D03*
X163820002Y-95513455D03*
%TD*%
D40*
%TO.C,Y1*%
X139320002Y-89688455D03*
D41*
X139320002Y-91688455D03*
%TD*%
D24*
%TO.C,R10*%
X164745002Y-92188455D03*
X166395002Y-92188455D03*
%TD*%
M02*
