%TF.GenerationSoftware,KiCad,Pcbnew,6.0.7-1.fc35*%
%TF.CreationDate,2022-11-04T19:38:46+01:00*%
%TF.ProjectId,sense_slim,73656e73-655f-4736-9c69-6d2e6b696361,rev?*%
%TF.SameCoordinates,Original*%
%TF.FileFunction,Copper,L2,Bot*%
%TF.FilePolarity,Positive*%
%FSLAX46Y46*%
G04 Gerber Fmt 4.6, Leading zero omitted, Abs format (unit mm)*
G04 Created by KiCad (PCBNEW 6.0.7-1.fc35) date 2022-11-04 19:38:46*
%MOMM*%
%LPD*%
G01*
G04 APERTURE LIST*
G04 Aperture macros list*
%AMRoundRect*
0 Rectangle with rounded corners*
0 $1 Rounding radius*
0 $2 $3 $4 $5 $6 $7 $8 $9 X,Y pos of 4 corners*
0 Add a 4 corners polygon primitive as box body*
4,1,4,$2,$3,$4,$5,$6,$7,$8,$9,$2,$3,0*
0 Add four circle primitives for the rounded corners*
1,1,$1+$1,$2,$3*
1,1,$1+$1,$4,$5*
1,1,$1+$1,$6,$7*
1,1,$1+$1,$8,$9*
0 Add four rect primitives between the rounded corners*
20,1,$1+$1,$2,$3,$4,$5,0*
20,1,$1+$1,$4,$5,$6,$7,0*
20,1,$1+$1,$6,$7,$8,$9,0*
20,1,$1+$1,$8,$9,$2,$3,0*%
%AMHorizOval*
0 Thick line with rounded ends*
0 $1 width*
0 $2 $3 position (X,Y) of the first rounded end (center of the circle)*
0 $4 $5 position (X,Y) of the second rounded end (center of the circle)*
0 Add line between two ends*
20,1,$1,$2,$3,$4,$5,0*
0 Add two circle primitives to create the rounded ends*
1,1,$1,$2,$3*
1,1,$1,$4,$5*%
%AMRotRect*
0 Rectangle, with rotation*
0 The origin of the aperture is its center*
0 $1 length*
0 $2 width*
0 $3 Rotation angle, in degrees counterclockwise*
0 Add horizontal line*
21,1,$1,$2,0,0,$3*%
G04 Aperture macros list end*
%TA.AperFunction,SMDPad,CuDef*%
%ADD10RoundRect,0.218750X0.256250X-0.218750X0.256250X0.218750X-0.256250X0.218750X-0.256250X-0.218750X0*%
%TD*%
%TA.AperFunction,SMDPad,CuDef*%
%ADD11RoundRect,0.225000X0.225000X0.250000X-0.225000X0.250000X-0.225000X-0.250000X0.225000X-0.250000X0*%
%TD*%
%TA.AperFunction,SMDPad,CuDef*%
%ADD12RoundRect,0.218750X-0.256250X0.218750X-0.256250X-0.218750X0.256250X-0.218750X0.256250X0.218750X0*%
%TD*%
%TA.AperFunction,SMDPad,CuDef*%
%ADD13RoundRect,0.200000X0.275000X-0.200000X0.275000X0.200000X-0.275000X0.200000X-0.275000X-0.200000X0*%
%TD*%
%TA.AperFunction,ComponentPad*%
%ADD14R,1.700000X1.700000*%
%TD*%
%TA.AperFunction,ComponentPad*%
%ADD15O,1.700000X1.700000*%
%TD*%
%TA.AperFunction,SMDPad,CuDef*%
%ADD16RoundRect,0.200000X0.200000X0.275000X-0.200000X0.275000X-0.200000X-0.275000X0.200000X-0.275000X0*%
%TD*%
%TA.AperFunction,SMDPad,CuDef*%
%ADD17RoundRect,0.200000X-0.275000X0.200000X-0.275000X-0.200000X0.275000X-0.200000X0.275000X0.200000X0*%
%TD*%
%TA.AperFunction,SMDPad,CuDef*%
%ADD18RoundRect,0.150000X0.587500X0.150000X-0.587500X0.150000X-0.587500X-0.150000X0.587500X-0.150000X0*%
%TD*%
%TA.AperFunction,SMDPad,CuDef*%
%ADD19RoundRect,0.218750X0.218750X0.256250X-0.218750X0.256250X-0.218750X-0.256250X0.218750X-0.256250X0*%
%TD*%
%TA.AperFunction,SMDPad,CuDef*%
%ADD20RoundRect,0.125000X-0.125000X0.625000X-0.125000X-0.625000X0.125000X-0.625000X0.125000X0.625000X0*%
%TD*%
%TA.AperFunction,SMDPad,CuDef*%
%ADD21RoundRect,0.125000X-0.625000X0.125000X-0.625000X-0.125000X0.625000X-0.125000X0.625000X0.125000X0*%
%TD*%
%TA.AperFunction,SMDPad,CuDef*%
%ADD22R,1.800000X4.000000*%
%TD*%
%TA.AperFunction,SMDPad,CuDef*%
%ADD23R,0.300000X3.000000*%
%TD*%
%TA.AperFunction,SMDPad,CuDef*%
%ADD24RoundRect,0.200000X-0.200000X-0.275000X0.200000X-0.275000X0.200000X0.275000X-0.200000X0.275000X0*%
%TD*%
%TA.AperFunction,ComponentPad*%
%ADD25RotRect,1.700000X1.700000X150.000000*%
%TD*%
%TA.AperFunction,ComponentPad*%
%ADD26HorizOval,1.700000X0.000000X0.000000X0.000000X0.000000X0*%
%TD*%
%TA.AperFunction,SMDPad,CuDef*%
%ADD27RoundRect,0.225000X-0.225000X-0.250000X0.225000X-0.250000X0.225000X0.250000X-0.225000X0.250000X0*%
%TD*%
%TA.AperFunction,SMDPad,CuDef*%
%ADD28R,0.375000X0.350000*%
%TD*%
%TA.AperFunction,SMDPad,CuDef*%
%ADD29R,0.350000X0.375000*%
%TD*%
%TA.AperFunction,SMDPad,CuDef*%
%ADD30R,1.380000X0.450000*%
%TD*%
%TA.AperFunction,SMDPad,CuDef*%
%ADD31R,1.300000X1.650000*%
%TD*%
%TA.AperFunction,SMDPad,CuDef*%
%ADD32R,1.550000X1.425000*%
%TD*%
%TA.AperFunction,SMDPad,CuDef*%
%ADD33R,1.900000X1.800000*%
%TD*%
%TA.AperFunction,SMDPad,CuDef*%
%ADD34R,1.900000X1.000000*%
%TD*%
%TA.AperFunction,SMDPad,CuDef*%
%ADD35R,0.900000X0.800000*%
%TD*%
%TA.AperFunction,SMDPad,CuDef*%
%ADD36RoundRect,0.249999X1.075001X-0.425001X1.075001X0.425001X-1.075001X0.425001X-1.075001X-0.425001X0*%
%TD*%
%TA.AperFunction,ComponentPad*%
%ADD37RotRect,1.700000X1.700000X210.000000*%
%TD*%
%TA.AperFunction,ComponentPad*%
%ADD38HorizOval,1.700000X0.000000X0.000000X0.000000X0.000000X0*%
%TD*%
%TA.AperFunction,SMDPad,CuDef*%
%ADD39RoundRect,0.150000X-0.587500X-0.150000X0.587500X-0.150000X0.587500X0.150000X-0.587500X0.150000X0*%
%TD*%
%TA.AperFunction,ComponentPad*%
%ADD40R,1.350000X1.350000*%
%TD*%
%TA.AperFunction,ComponentPad*%
%ADD41O,1.350000X1.350000*%
%TD*%
%TA.AperFunction,ViaPad*%
%ADD42C,0.800000*%
%TD*%
%TA.AperFunction,Conductor*%
%ADD43C,0.250000*%
%TD*%
G04 APERTURE END LIST*
D10*
%TO.P,C7,1*%
%TO.N,Net-(C7-Pad1)*%
X134390000Y-115737500D03*
%TO.P,C7,2*%
%TO.N,GND*%
X134390000Y-114162500D03*
%TD*%
%TO.P,R1,1*%
%TO.N,/SWDRST*%
X132820002Y-115725955D03*
%TO.P,R1,2*%
%TO.N,+3V3*%
X132820002Y-114150955D03*
%TD*%
D11*
%TO.P,C26,1*%
%TO.N,+3V3*%
X131975000Y-88000000D03*
%TO.P,C26,2*%
%TO.N,GND*%
X130425000Y-88000000D03*
%TD*%
%TO.P,C23,1*%
%TO.N,Net-(C23-Pad1)*%
X166595002Y-90688455D03*
%TO.P,C23,2*%
%TO.N,GND*%
X165045002Y-90688455D03*
%TD*%
D12*
%TO.P,C17,1*%
%TO.N,/VIN*%
X132707112Y-81150955D03*
%TO.P,C17,2*%
%TO.N,GND*%
X132707112Y-82725955D03*
%TD*%
D13*
%TO.P,R13,1*%
%TO.N,+3V3*%
X158570002Y-85763455D03*
%TO.P,R13,2*%
%TO.N,Net-(J5-Pad2)*%
X158570002Y-84113455D03*
%TD*%
D14*
%TO.P,J6,1,Pin_1*%
%TO.N,Net-(C23-Pad1)*%
X166620002Y-95188455D03*
D15*
%TO.P,J6,2,Pin_2*%
%TO.N,Net-(J6-Pad2)*%
X166620002Y-97728455D03*
%TD*%
D12*
%TO.P,C18,1*%
%TO.N,+3V3*%
X134207112Y-81150955D03*
%TO.P,C18,2*%
%TO.N,GND*%
X134207112Y-82725955D03*
%TD*%
D16*
%TO.P,R18,1*%
%TO.N,+3V3*%
X163895002Y-97438455D03*
%TO.P,R18,2*%
%TO.N,Net-(J7-Pad2)*%
X162245002Y-97438455D03*
%TD*%
D17*
%TO.P,R20,1*%
%TO.N,/SET*%
X163070002Y-90613455D03*
%TO.P,R20,2*%
%TO.N,+3V3*%
X163070002Y-92263455D03*
%TD*%
D11*
%TO.P,C22,1*%
%TO.N,Net-(C22-Pad1)*%
X162095002Y-81438455D03*
%TO.P,C22,2*%
%TO.N,GND*%
X160545002Y-81438455D03*
%TD*%
D17*
%TO.P,R19,1*%
%TO.N,/START*%
X160070002Y-84113455D03*
%TO.P,R19,2*%
%TO.N,+3V3*%
X160070002Y-85763455D03*
%TD*%
D18*
%TO.P,Q4,1,B*%
%TO.N,Net-(Q4-Pad1)*%
X162787500Y-100400000D03*
%TO.P,Q4,2,E*%
%TO.N,GND*%
X162787500Y-102300000D03*
%TO.P,Q4,3,C*%
%TO.N,/RESET*%
X160912500Y-101350000D03*
%TD*%
D19*
%TO.P,R2,1*%
%TO.N,+3V3*%
X131987500Y-89500000D03*
%TO.P,R2,2*%
%TO.N,/SCL*%
X130412500Y-89500000D03*
%TD*%
D20*
%TO.P,U2,1,PB9*%
%TO.N,unconnected-(U2-Pad1)*%
X132770002Y-94513455D03*
%TO.P,U2,2,OSC32_IN/PC14*%
%TO.N,Net-(C3-Pad1)*%
X133570002Y-94513455D03*
%TO.P,U2,3,OSC32_OUT/PC15*%
%TO.N,Net-(C4-Pad1)*%
X134370002Y-94513455D03*
%TO.P,U2,4,VDD/VDDA*%
%TO.N,+3V3*%
X135170002Y-94513455D03*
%TO.P,U2,5,VSS/VSSA*%
%TO.N,GND*%
X135970002Y-94513455D03*
%TO.P,U2,6,~{RST}/PF2*%
%TO.N,/SWDRST*%
X136770002Y-94513455D03*
%TO.P,U2,7,PA0*%
%TO.N,/VOLTIMETER*%
X137570002Y-94513455D03*
%TO.P,U2,8,PA1*%
%TO.N,/BATT*%
X138370002Y-94513455D03*
D21*
%TO.P,U2,9,PA2*%
%TO.N,/START*%
X139745002Y-95888455D03*
%TO.P,U2,10,PA3*%
%TO.N,/SET*%
X139745002Y-96688455D03*
%TO.P,U2,11,PA4*%
%TO.N,/RESET*%
X139745002Y-97488455D03*
%TO.P,U2,12,PA5*%
%TO.N,/OHMOMETER*%
X139745002Y-98288455D03*
%TO.P,U2,13,PA6*%
%TO.N,unconnected-(U2-Pad13)*%
X139745002Y-99088455D03*
%TO.P,U2,14,PA7*%
%TO.N,/MOSI*%
X139745002Y-99888455D03*
%TO.P,U2,15,PB0*%
%TO.N,unconnected-(U2-Pad15)*%
X139745002Y-100688455D03*
%TO.P,U2,16,PB1*%
%TO.N,unconnected-(U2-Pad16)*%
X139745002Y-101488455D03*
D20*
%TO.P,U2,17,PB2*%
%TO.N,unconnected-(U2-Pad17)*%
X138370002Y-102863455D03*
%TO.P,U2,18,PA8*%
%TO.N,/CS*%
X137570002Y-102863455D03*
%TO.P,U2,19,PA9*%
%TO.N,/DC*%
X136770002Y-102863455D03*
%TO.P,U2,20,PC6*%
%TO.N,unconnected-(U2-Pad20)*%
X135970002Y-102863455D03*
%TO.P,U2,21,PA10*%
%TO.N,/RST*%
X135170002Y-102863455D03*
%TO.P,U2,22,PA11_[PA9]*%
%TO.N,unconnected-(U2-Pad22)*%
X134370002Y-102863455D03*
%TO.P,U2,23,PA12_[PA10]*%
%TO.N,/BUSY*%
X133570002Y-102863455D03*
%TO.P,U2,24,PA13*%
%TO.N,/SWDIO*%
X132770002Y-102863455D03*
D21*
%TO.P,U2,25,PA14/BOOT0*%
%TO.N,/SWDCLK*%
X131395002Y-101488455D03*
%TO.P,U2,26,PA15*%
%TO.N,unconnected-(U2-Pad26)*%
X131395002Y-100688455D03*
%TO.P,U2,27,PB3*%
%TO.N,/SCK*%
X131395002Y-99888455D03*
%TO.P,U2,28,PB4*%
%TO.N,unconnected-(U2-Pad28)*%
X131395002Y-99088455D03*
%TO.P,U2,29,PB5*%
%TO.N,unconnected-(U2-Pad29)*%
X131395002Y-98288455D03*
%TO.P,U2,30,PB6*%
%TO.N,Net-(D4-Pad2)*%
X131395002Y-97488455D03*
%TO.P,U2,31,PB7*%
%TO.N,/SDA*%
X131395002Y-96688455D03*
%TO.P,U2,32,PB8*%
%TO.N,/SCL*%
X131395002Y-95888455D03*
%TD*%
D10*
%TO.P,R7,1*%
%TO.N,/BATT*%
X131957112Y-92725955D03*
%TO.P,R7,2*%
%TO.N,GND*%
X131957112Y-91150955D03*
%TD*%
D22*
%TO.P,J1,*%
%TO.N,*%
X139160002Y-110198455D03*
X154460002Y-110198455D03*
D23*
%TO.P,J1,1,Pin_1*%
%TO.N,Net-(C16-Pad1)*%
X152560002Y-108398455D03*
%TO.P,J1,2,Pin_2*%
%TO.N,/PREVGL*%
X152060002Y-108398455D03*
%TO.P,J1,3,Pin_3*%
%TO.N,Net-(C14-Pad1)*%
X151560002Y-108398455D03*
%TO.P,J1,4,Pin_4*%
%TO.N,/PREVGH*%
X151060002Y-108398455D03*
%TO.P,J1,5,Pin_5*%
%TO.N,Net-(C12-Pad1)*%
X150560002Y-108398455D03*
%TO.P,J1,6,Pin_6*%
%TO.N,Net-(C11-Pad1)*%
X150060002Y-108398455D03*
%TO.P,J1,7,Pin_7*%
%TO.N,Net-(C10-Pad1)*%
X149560002Y-108398455D03*
%TO.P,J1,8,Pin_8*%
%TO.N,GND*%
X149060002Y-108398455D03*
%TO.P,J1,9,Pin_9*%
%TO.N,+3V3*%
X148560002Y-108398455D03*
%TO.P,J1,10,Pin_10*%
X148060002Y-108398455D03*
%TO.P,J1,11,Pin_11*%
%TO.N,/MOSI*%
X147560002Y-108398455D03*
%TO.P,J1,12,Pin_12*%
%TO.N,/SCK*%
X147060002Y-108398455D03*
%TO.P,J1,13,Pin_13*%
%TO.N,/CS*%
X146560002Y-108398455D03*
%TO.P,J1,14,Pin_14*%
%TO.N,/DC*%
X146060002Y-108398455D03*
%TO.P,J1,15,Pin_15*%
%TO.N,/RST*%
X145560002Y-108398455D03*
%TO.P,J1,16,Pin_16*%
%TO.N,/BUSY*%
X145060002Y-108398455D03*
%TO.P,J1,17,Pin_17*%
%TO.N,GND*%
X144560002Y-108398455D03*
%TO.P,J1,18,Pin_18*%
%TO.N,unconnected-(J1-Pad18)*%
X144060002Y-108398455D03*
%TO.P,J1,19,Pin_19*%
%TO.N,unconnected-(J1-Pad19)*%
X143560002Y-108398455D03*
%TO.P,J1,20,Pin_20*%
%TO.N,Net-(C8-Pad1)*%
X143060002Y-108398455D03*
%TO.P,J1,21,Pin_21*%
%TO.N,Net-(C7-Pad1)*%
X142560002Y-108398455D03*
%TO.P,J1,22,Pin_22*%
%TO.N,/RESE*%
X142060002Y-108398455D03*
%TO.P,J1,23,Pin_23*%
%TO.N,/GDR*%
X141560002Y-108398455D03*
%TO.P,J1,24,Pin_24*%
%TO.N,unconnected-(J1-Pad24)*%
X141060002Y-108398455D03*
%TD*%
D18*
%TO.P,Q3,1,B*%
%TO.N,Net-(Q3-Pad1)*%
X161257502Y-90738455D03*
%TO.P,Q3,2,E*%
%TO.N,GND*%
X161257502Y-92638455D03*
%TO.P,Q3,3,C*%
%TO.N,/SET*%
X159382502Y-91688455D03*
%TD*%
D12*
%TO.P,R9,1*%
%TO.N,Net-(D5-Pad1)*%
X135707112Y-81150955D03*
%TO.P,R9,2*%
%TO.N,Net-(R9-Pad2)*%
X135707112Y-82725955D03*
%TD*%
D24*
%TO.P,R21,1*%
%TO.N,/RESET*%
X162245002Y-98900000D03*
%TO.P,R21,2*%
%TO.N,+3V3*%
X163895002Y-98900000D03*
%TD*%
D25*
%TO.P,J7,1,Pin_1*%
%TO.N,Net-(C24-Pad1)*%
X164620002Y-105188455D03*
D26*
%TO.P,J7,2,Pin_2*%
%TO.N,Net-(J7-Pad2)*%
X163350002Y-107388160D03*
%TD*%
D27*
%TO.P,C24,1*%
%TO.N,Net-(C24-Pad1)*%
X160295002Y-94438455D03*
%TO.P,C24,2*%
%TO.N,GND*%
X161845002Y-94438455D03*
%TD*%
D28*
%TO.P,U5,1,SCL/SPC*%
%TO.N,/SCL*%
X135162500Y-84750000D03*
%TO.P,U5,2,Res*%
%TO.N,GND*%
X135162500Y-85250000D03*
%TO.P,U5,3,GND*%
X135162500Y-85750000D03*
%TO.P,U5,4,C1*%
%TO.N,Net-(C25-Pad1)*%
X135162500Y-86250000D03*
D29*
%TO.P,U5,5,Vdd*%
%TO.N,+3V3*%
X134650000Y-86262500D03*
%TO.P,U5,6,Vdd_IO*%
X134150000Y-86262500D03*
D28*
%TO.P,U5,7,INT*%
%TO.N,unconnected-(U5-Pad7)*%
X133637500Y-86250000D03*
%TO.P,U5,8,DRDY*%
%TO.N,unconnected-(U5-Pad8)*%
X133637500Y-85750000D03*
%TO.P,U5,9,SDO0/SA1*%
%TO.N,GND*%
X133637500Y-85250000D03*
%TO.P,U5,10,CS*%
%TO.N,+3V3*%
X133637500Y-84750000D03*
D29*
%TO.P,U5,11,SDA/SDI/SDO*%
%TO.N,/SDA*%
X134150000Y-84737500D03*
%TO.P,U5,12,Res*%
%TO.N,GND*%
X134650000Y-84737500D03*
%TD*%
D30*
%TO.P,J2,1,VBUS*%
%TO.N,Net-(C19-Pad1)*%
X128780002Y-97768455D03*
%TO.P,J2,2,D-*%
%TO.N,unconnected-(J2-Pad2)*%
X128780002Y-97118455D03*
%TO.P,J2,3,D+*%
%TO.N,unconnected-(J2-Pad3)*%
X128780002Y-96468455D03*
%TO.P,J2,4,ID*%
%TO.N,unconnected-(J2-Pad4)*%
X128780002Y-95818455D03*
%TO.P,J2,5,GND*%
%TO.N,GND*%
X128780002Y-95168455D03*
D31*
%TO.P,J2,6,Shield*%
X126120002Y-99843455D03*
D32*
X128695002Y-93980955D03*
D31*
X126120002Y-93093455D03*
D33*
X126120002Y-97618455D03*
D32*
X128695002Y-98955955D03*
D34*
X126120002Y-94918455D03*
%TD*%
D35*
%TO.P,Q1,1,G*%
%TO.N,/GDR*%
X160070002Y-105488455D03*
%TO.P,Q1,2,S*%
%TO.N,/RESE*%
X160070002Y-107388455D03*
%TO.P,Q1,3,D*%
%TO.N,Net-(C6-Pad2)*%
X158070002Y-106438455D03*
%TD*%
D36*
%TO.P,BT1,1,+*%
%TO.N,/VIN*%
X139207112Y-81938455D03*
%TO.P,BT1,2,-*%
%TO.N,GND*%
X139207112Y-77438455D03*
%TD*%
D12*
%TO.P,C20,1*%
%TO.N,/VIN*%
X136707112Y-77650955D03*
%TO.P,C20,2*%
%TO.N,GND*%
X136707112Y-79225955D03*
%TD*%
D37*
%TO.P,J5,1,Pin_1*%
%TO.N,Net-(C22-Pad1)*%
X163320002Y-85388455D03*
D38*
%TO.P,J5,2,Pin_2*%
%TO.N,Net-(J5-Pad2)*%
X164590002Y-87588160D03*
%TD*%
D17*
%TO.P,R8,1*%
%TO.N,Net-(Q2-Pad1)*%
X158570002Y-81113455D03*
%TO.P,R8,2*%
%TO.N,Net-(C22-Pad1)*%
X158570002Y-82763455D03*
%TD*%
D12*
%TO.P,C21,1*%
%TO.N,/BATT*%
X133600000Y-89512500D03*
%TO.P,C21,2*%
%TO.N,GND*%
X133600000Y-91087500D03*
%TD*%
D16*
%TO.P,R12,1*%
%TO.N,Net-(Q4-Pad1)*%
X161895002Y-95938455D03*
%TO.P,R12,2*%
%TO.N,Net-(C24-Pad1)*%
X160245002Y-95938455D03*
%TD*%
D39*
%TO.P,Q2,1,B*%
%TO.N,Net-(Q2-Pad1)*%
X158882502Y-89138455D03*
%TO.P,Q2,2,E*%
%TO.N,GND*%
X158882502Y-87238455D03*
%TO.P,Q2,3,C*%
%TO.N,/START*%
X160757502Y-88188455D03*
%TD*%
D19*
%TO.P,C1,1*%
%TO.N,+3V3*%
X131987500Y-86500000D03*
%TO.P,C1,2*%
%TO.N,GND*%
X130412500Y-86500000D03*
%TD*%
D17*
%TO.P,R14,1*%
%TO.N,+3V3*%
X163820002Y-93863455D03*
%TO.P,R14,2*%
%TO.N,Net-(J6-Pad2)*%
X163820002Y-95513455D03*
%TD*%
D40*
%TO.P,Y1,1,1*%
%TO.N,Net-(C3-Pad1)*%
X139320002Y-89688455D03*
D41*
%TO.P,Y1,2,2*%
%TO.N,Net-(C4-Pad1)*%
X139320002Y-91688455D03*
%TD*%
D24*
%TO.P,R10,1*%
%TO.N,Net-(Q3-Pad1)*%
X164745002Y-92188455D03*
%TO.P,R10,2*%
%TO.N,Net-(C23-Pad1)*%
X166395002Y-92188455D03*
%TD*%
D42*
%TO.N,Net-(R9-Pad2)*%
X136010000Y-83210000D03*
%TO.N,GND*%
X134830000Y-110860000D03*
X138040000Y-117030000D03*
X135820000Y-116640000D03*
%TO.N,/SWDRST*%
X136260000Y-106160000D03*
X134410000Y-107400000D03*
%TO.N,/SWDCLK*%
X134934500Y-109683411D03*
%TO.N,/SWDIO*%
X134310000Y-108760000D03*
%TO.N,+3V3*%
X132790000Y-112780000D03*
%TO.N,/SWDRST*%
X134850000Y-112710000D03*
%TO.N,Net-(C8-Pad1)*%
X135990000Y-114070000D03*
%TO.N,/VIN*%
X139400000Y-83100000D03*
X137900000Y-88200000D03*
%TO.N,GND*%
X126900000Y-93500000D03*
X154957112Y-112938455D03*
X133200000Y-98000000D03*
X131457112Y-111188455D03*
X150570002Y-113188455D03*
X135532502Y-89900000D03*
X146070002Y-113188455D03*
X132100000Y-82700000D03*
X158457112Y-110188455D03*
X128695002Y-98955955D03*
X143320002Y-113438455D03*
X132100000Y-85100000D03*
X138457112Y-83742888D03*
X130400000Y-86500000D03*
X131457112Y-109938455D03*
X136900000Y-93000000D03*
X139600000Y-88100000D03*
X128919502Y-93980955D03*
X136700000Y-79200000D03*
X141070002Y-114188455D03*
X128850000Y-87600000D03*
X163320002Y-103438455D03*
X131957112Y-91150955D03*
X139207112Y-77438455D03*
X158882502Y-87238455D03*
X161845002Y-94438455D03*
X159457112Y-111938455D03*
X134700000Y-99200000D03*
X160070002Y-80438455D03*
%TO.N,+3V3*%
X161957112Y-109188455D03*
X162707112Y-105438455D03*
X165070002Y-98938455D03*
X134820002Y-97688455D03*
X165070002Y-94688455D03*
X132000000Y-89500000D03*
X131987500Y-88000000D03*
X135182612Y-79600000D03*
X133429792Y-87423443D03*
X140500000Y-83700000D03*
X160070002Y-86438455D03*
X147320002Y-104938455D03*
%TO.N,/BATT*%
X133600000Y-89512500D03*
X140207112Y-93438455D03*
X132771184Y-91987016D03*
%TO.N,Net-(C10-Pad1)*%
X148320002Y-104438455D03*
%TO.N,Net-(C11-Pad1)*%
X149320002Y-105188455D03*
%TO.N,Net-(C16-Pad1)*%
X156820002Y-107938455D03*
%TO.N,Net-(C19-Pad1)*%
X127570002Y-95938455D03*
%TO.N,/PREVGH*%
X152053413Y-105421866D03*
%TO.N,/PREVGL*%
X156070002Y-106938455D03*
%TO.N,/SWDRST*%
X133820002Y-101438455D03*
%TO.N,/START*%
X156820002Y-105688455D03*
X166570002Y-104188455D03*
X159957112Y-108438455D03*
X159570002Y-103688455D03*
X137570002Y-96188455D03*
X156070002Y-103188455D03*
%TO.N,/SET*%
X159045502Y-98188455D03*
X158820002Y-90688455D03*
X136820002Y-96938455D03*
X154070002Y-104313955D03*
X163070002Y-90613455D03*
%TO.N,/RESET*%
X159070002Y-113438455D03*
X138570002Y-107438455D03*
X162245002Y-98938455D03*
X137320002Y-98688455D03*
X161070002Y-112938455D03*
X159570002Y-100938455D03*
X147320002Y-114688455D03*
X144570002Y-114813955D03*
%TO.N,/GDR*%
X160707112Y-105438455D03*
X143320002Y-114438455D03*
X140820002Y-110688455D03*
X140320002Y-114938455D03*
%TO.N,/RESE*%
X137820002Y-113188455D03*
%TO.N,/SCL*%
X136680000Y-84680000D03*
%TO.N,/SDA*%
X130161897Y-84637397D03*
X135790000Y-84210000D03*
X130300000Y-91000000D03*
%TO.N,/SCK*%
X133820002Y-100188455D03*
X139320002Y-103537955D03*
%TO.N,Net-(C6-Pad2)*%
X157070002Y-109688455D03*
X157920002Y-98248455D03*
%TO.N,Net-(C12-Pad1)*%
X150570002Y-105438455D03*
%TO.N,Net-(C14-Pad1)*%
X155320002Y-105562955D03*
%TO.N,Net-(C25-Pad1)*%
X136259679Y-86087955D03*
%TO.N,Net-(D4-Pad1)*%
X128800000Y-90800000D03*
X128950000Y-92500000D03*
%TO.N,Net-(D4-Pad2)*%
X129960267Y-97439070D03*
%TO.N,Net-(D5-Pad1)*%
X127304810Y-91997564D03*
%TO.N,Net-(J6-Pad2)*%
X164070002Y-95938455D03*
%TD*%
D43*
%TO.N,Net-(R9-Pad2)*%
X136010000Y-83210000D02*
X136010000Y-83028843D01*
X136010000Y-83028843D02*
X135707112Y-82725955D01*
%TO.N,/SCL*%
X135470000Y-84750000D02*
X135720000Y-85000000D01*
X135720000Y-85000000D02*
X136360000Y-85000000D01*
X136360000Y-85000000D02*
X136680000Y-84680000D01*
X135162500Y-84750000D02*
X135470000Y-84750000D01*
%TO.N,GND*%
X133960000Y-113270000D02*
X133960000Y-111350000D01*
X134390000Y-113700000D02*
X133960000Y-113270000D01*
X133960000Y-111350000D02*
X134450000Y-110860000D01*
X134450000Y-110860000D02*
X134830000Y-110860000D01*
%TO.N,/SWDRST*%
X135020000Y-107400000D02*
X136260000Y-106160000D01*
X134410000Y-107400000D02*
X135020000Y-107400000D01*
%TO.N,/SWDCLK*%
X131395002Y-101488455D02*
X131395002Y-104500565D01*
X131395002Y-104500565D02*
X129957112Y-105938455D01*
X129957112Y-106835565D02*
X132920001Y-109798455D01*
X129957112Y-105938455D02*
X129957112Y-106835565D01*
X134819456Y-109798455D02*
X134934500Y-109683411D01*
X132920001Y-109798455D02*
X134819456Y-109798455D01*
%TO.N,Net-(C7-Pad1)*%
X134390000Y-115737500D02*
X135770957Y-115737500D01*
X142560002Y-106798455D02*
X142560002Y-108398455D01*
X135770957Y-115737500D02*
X136820002Y-114688455D01*
X136820002Y-107938455D02*
X138320002Y-106438455D01*
X136820002Y-114688455D02*
X136820002Y-107938455D01*
X138320002Y-106438455D02*
X142200002Y-106438455D01*
X142200002Y-106438455D02*
X142560002Y-106798455D01*
%TO.N,GND*%
X134390000Y-114162500D02*
X134390000Y-113700000D01*
%TO.N,/SWDIO*%
X133820002Y-108270002D02*
X134310000Y-108760000D01*
X133820002Y-108158455D02*
X133820002Y-108270002D01*
%TO.N,+3V3*%
X132820002Y-112810002D02*
X132790000Y-112780000D01*
X132820002Y-114150955D02*
X132820002Y-112810002D01*
%TO.N,/SWDRST*%
X135090000Y-112950000D02*
X134850000Y-112710000D01*
X135090000Y-114603884D02*
X135090000Y-112950000D01*
X134618884Y-115075000D02*
X135090000Y-114603884D01*
X133470957Y-115075000D02*
X134618884Y-115075000D01*
X132820002Y-115725955D02*
X133470957Y-115075000D01*
%TO.N,Net-(C8-Pad1)*%
X135990000Y-114070000D02*
X136070002Y-113989998D01*
X136070002Y-107938455D02*
X138070002Y-105938455D01*
X138070002Y-105938455D02*
X142200002Y-105938455D01*
X136070002Y-113989998D02*
X136070002Y-107938455D01*
X142200002Y-105938455D02*
X143060002Y-106798455D01*
X143060002Y-106798455D02*
X143060002Y-108398455D01*
%TO.N,/VIN*%
X132707112Y-81150955D02*
X133519612Y-81963455D01*
X139800000Y-84400000D02*
X139400000Y-84000000D01*
X139207112Y-80150955D02*
X139207112Y-81938455D01*
X138900000Y-87200000D02*
X140100000Y-87200000D01*
X136707112Y-77650955D02*
X139207112Y-80150955D01*
X140195002Y-84400000D02*
X139800000Y-84400000D01*
X140495002Y-84700000D02*
X140195002Y-84400000D01*
X137900000Y-88200000D02*
X138900000Y-87200000D01*
X133519612Y-81963455D02*
X138263455Y-81963455D01*
X139400000Y-83100000D02*
X139400000Y-82131343D01*
X138263455Y-81963455D02*
X139400000Y-83100000D01*
X140100000Y-87200000D02*
X140495002Y-86804998D01*
X140495002Y-86804998D02*
X140495002Y-84700000D01*
X139400000Y-84000000D02*
X139400000Y-83100000D01*
X139400000Y-82131343D02*
X139207112Y-81938455D01*
%TO.N,GND*%
X128029810Y-91329810D02*
X128029810Y-90220190D01*
X165045002Y-90688455D02*
X164345002Y-89988455D01*
X134400000Y-99200000D02*
X133200000Y-98000000D01*
X158207112Y-112938455D02*
X158457112Y-112688455D01*
X128029810Y-93091263D02*
X128029810Y-91329810D01*
X136400000Y-93000000D02*
X136900000Y-93000000D01*
X126120002Y-93093455D02*
X126120002Y-94918455D01*
X141820002Y-113438455D02*
X141070002Y-114188455D01*
X139025305Y-88100000D02*
X137225305Y-89900000D01*
X130425000Y-86512500D02*
X130412500Y-86500000D01*
X128350000Y-89900000D02*
X128850000Y-89400000D01*
X134650000Y-84737500D02*
X134650000Y-85250000D01*
X135970002Y-93429998D02*
X136400000Y-93000000D01*
X130425000Y-88000000D02*
X130425000Y-86512500D01*
X161257502Y-92295625D02*
X161257502Y-92638455D01*
X161289672Y-89988455D02*
X158882502Y-87581285D01*
X160545002Y-80913455D02*
X160070002Y-80438455D01*
X134207112Y-82725955D02*
X132707112Y-82725955D01*
X128919502Y-93980955D02*
X128029810Y-93091263D01*
X131957112Y-91150955D02*
X133536545Y-91150955D01*
X144560002Y-108398455D02*
X144560002Y-111678455D01*
X128029810Y-90220190D02*
X128350000Y-89900000D01*
X128695002Y-93980955D02*
X128695002Y-93700565D01*
X128850000Y-89400000D02*
X128850000Y-87600000D01*
X135970002Y-94513455D02*
X135970002Y-93429998D01*
X127007502Y-93980955D02*
X126120002Y-93093455D01*
X126120002Y-99843455D02*
X126120002Y-97618455D01*
X126120002Y-99843455D02*
X127807502Y-99843455D01*
X139600000Y-88100000D02*
X139025305Y-88100000D01*
X161257502Y-92638455D02*
X161257502Y-93850955D01*
X158457112Y-112688455D02*
X158457112Y-110188455D01*
X136707112Y-79225955D02*
X136707112Y-79207112D01*
X126120002Y-93093455D02*
X126493455Y-93093455D01*
X150570002Y-113188455D02*
X146070002Y-113188455D01*
X159870002Y-90908125D02*
X161257502Y-92295625D01*
X154957112Y-112938455D02*
X158207112Y-112938455D01*
X163320002Y-102700955D02*
X163007502Y-102388455D01*
X135162500Y-85250000D02*
X135162500Y-85750000D01*
X161257502Y-93850955D02*
X161845002Y-94438455D01*
X137225305Y-89900000D02*
X135532502Y-89900000D01*
X136707112Y-79207112D02*
X136700000Y-79200000D01*
X132250000Y-85250000D02*
X133637500Y-85250000D01*
X133637500Y-85250000D02*
X134650000Y-85250000D01*
X164345002Y-89988455D02*
X161289672Y-89988455D01*
X143320002Y-113438455D02*
X141820002Y-113438455D01*
X132100000Y-82700000D02*
X132681157Y-82700000D01*
X134345002Y-91087500D02*
X135532502Y-89900000D01*
X149060002Y-111678455D02*
X150570002Y-113188455D01*
X126120002Y-94918455D02*
X126120002Y-97618455D01*
X132681157Y-82700000D02*
X132707112Y-82725955D01*
X133600000Y-91087500D02*
X134345002Y-91087500D01*
X128780002Y-95168455D02*
X128780002Y-94065955D01*
X126493455Y-93093455D02*
X126900000Y-93500000D01*
X128695002Y-93980955D02*
X127007502Y-93980955D01*
X163320002Y-103688455D02*
X163320002Y-102700955D01*
X160739672Y-89988455D02*
X159870002Y-90858125D01*
X161289672Y-89988455D02*
X160739672Y-89988455D01*
X158882502Y-87581285D02*
X158882502Y-87238455D01*
X128780002Y-94065955D02*
X128695002Y-93980955D01*
X160545002Y-81438455D02*
X160545002Y-80913455D01*
X127807502Y-99843455D02*
X128695002Y-98955955D01*
X134700000Y-99200000D02*
X134400000Y-99200000D01*
X134650000Y-85250000D02*
X135162500Y-85250000D01*
X149060002Y-108398455D02*
X149060002Y-111678455D01*
X159870002Y-90858125D02*
X159870002Y-90908125D01*
X132100000Y-85100000D02*
X132250000Y-85250000D01*
X144560002Y-111678455D02*
X146070002Y-113188455D01*
X133536545Y-91150955D02*
X133600000Y-91087500D01*
%TO.N,+3V3*%
X163895002Y-98938455D02*
X165070002Y-98938455D01*
X134969456Y-80388611D02*
X134207112Y-81150955D01*
X160070002Y-85763455D02*
X160070002Y-86438455D01*
X148560002Y-106178455D02*
X148560002Y-106198455D01*
X133100455Y-84212955D02*
X131300000Y-84212955D01*
X134969456Y-79813156D02*
X135182612Y-79600000D01*
X139811545Y-92688455D02*
X140945002Y-91554998D01*
X135814976Y-92188455D02*
X138525001Y-92188455D01*
X135170002Y-94513455D02*
X135170002Y-92833429D01*
X140945002Y-84145002D02*
X140500000Y-83700000D01*
X161957112Y-106688455D02*
X161957112Y-109188455D01*
X131975000Y-88000000D02*
X132900000Y-88000000D01*
X134969456Y-80148916D02*
X134969456Y-80388611D01*
X163820002Y-93863455D02*
X163820002Y-93013455D01*
X131000000Y-84500000D02*
X131155088Y-84344912D01*
X163820002Y-93013455D02*
X163070002Y-92263455D01*
X165070002Y-96263455D02*
X163895002Y-97438455D01*
X131987500Y-87987500D02*
X131975000Y-88000000D01*
X133637500Y-84750000D02*
X133100455Y-84212955D01*
X148060002Y-108398455D02*
X148560002Y-108398455D01*
X134969456Y-80148916D02*
X134969456Y-79813156D01*
X133750000Y-87150000D02*
X134150000Y-86750000D01*
X134650000Y-86262500D02*
X134150000Y-86262500D01*
X163820002Y-93863455D02*
X164245002Y-93863455D01*
X131200000Y-87225000D02*
X131200000Y-85500000D01*
X135170002Y-92833429D02*
X135814976Y-92188455D01*
X164245002Y-93863455D02*
X165070002Y-94688455D01*
X131987500Y-88012500D02*
X131975000Y-88000000D01*
X163895002Y-97438455D02*
X163895002Y-98938455D01*
X162707112Y-105438455D02*
X162707112Y-105938455D01*
X139025001Y-92688455D02*
X139811545Y-92688455D01*
X162707112Y-105938455D02*
X161957112Y-106688455D01*
X131200000Y-85500000D02*
X131000000Y-85300000D01*
X131987500Y-86500000D02*
X131987500Y-87987500D01*
X134150000Y-86750000D02*
X134150000Y-86262500D01*
X131987500Y-89500000D02*
X131987500Y-88012500D01*
X138525001Y-92188455D02*
X139025001Y-92688455D01*
X135170002Y-97338455D02*
X135170002Y-94513455D01*
X147320002Y-104938455D02*
X148560002Y-106178455D01*
X132900000Y-88000000D02*
X133750000Y-87150000D01*
X134820002Y-97688455D02*
X135170002Y-97338455D01*
X165070002Y-94688455D02*
X165070002Y-96263455D01*
X160070002Y-85763455D02*
X158570002Y-85763455D01*
X148560002Y-108398455D02*
X148560002Y-106198455D01*
X131000000Y-85300000D02*
X131000000Y-84500000D01*
X140945002Y-91554998D02*
X140945002Y-84145002D01*
X131975000Y-88000000D02*
X131200000Y-87225000D01*
%TO.N,/BATT*%
X138370002Y-94513455D02*
X139132112Y-94513455D01*
X139132112Y-94513455D02*
X140207112Y-93438455D01*
X132032245Y-92725955D02*
X132771184Y-91987016D01*
%TO.N,Net-(C10-Pad1)*%
X149560002Y-108398455D02*
X149560002Y-106428455D01*
X149560002Y-106428455D02*
X148320002Y-105188455D01*
X148320002Y-105188455D02*
X148320002Y-104438455D01*
%TO.N,Net-(C11-Pad1)*%
X150060002Y-105928455D02*
X150060002Y-108398455D01*
X149320002Y-105188455D02*
X150060002Y-105928455D01*
%TO.N,Net-(C16-Pad1)*%
X153020002Y-107938455D02*
X156820002Y-107938455D01*
X152560002Y-108398455D02*
X153020002Y-107938455D01*
%TO.N,Net-(C19-Pad1)*%
X127650002Y-97768455D02*
X128780002Y-97768455D01*
X127570002Y-95938455D02*
X127570002Y-97688455D01*
X127570002Y-97688455D02*
X127650002Y-97768455D01*
%TO.N,Net-(C22-Pad1)*%
X163320002Y-82663455D02*
X163320002Y-85388455D01*
X162095002Y-81438455D02*
X160770002Y-82763455D01*
X160770002Y-82763455D02*
X158570002Y-82763455D01*
X162095002Y-81438455D02*
X163320002Y-82663455D01*
%TO.N,Net-(C23-Pad1)*%
X166395002Y-92188455D02*
X166620002Y-92413455D01*
X166620002Y-92413455D02*
X166620002Y-95188455D01*
X166595002Y-90688455D02*
X166595002Y-91988455D01*
X166595002Y-91988455D02*
X166395002Y-92188455D01*
%TO.N,Net-(C24-Pad1)*%
X163620002Y-104188455D02*
X162638506Y-104188455D01*
X160295002Y-94438455D02*
X160295002Y-95888455D01*
X162638506Y-104188455D02*
X161825000Y-103374949D01*
X161540773Y-100409227D02*
X160245002Y-99113456D01*
X162100000Y-100980330D02*
X161540773Y-100421103D01*
X161825000Y-101994670D02*
X162100000Y-101719670D01*
X160245002Y-99113456D02*
X160245002Y-95938455D01*
X164620002Y-105188455D02*
X163620002Y-104188455D01*
X161540773Y-100421103D02*
X161540773Y-100409227D01*
X162100000Y-101719670D02*
X162100000Y-100980330D01*
X161825000Y-103374949D02*
X161825000Y-101994670D01*
X160295002Y-95888455D02*
X160245002Y-95938455D01*
%TO.N,/PREVGH*%
X151060002Y-106415277D02*
X151060002Y-108398455D01*
X152053413Y-105421866D02*
X151060002Y-106415277D01*
%TO.N,/PREVGL*%
X153670002Y-106938455D02*
X152795002Y-106063455D01*
X152060002Y-106798455D02*
X152795002Y-106063455D01*
X156070002Y-106938455D02*
X153670002Y-106938455D01*
X152060002Y-108398455D02*
X152060002Y-106798455D01*
%TO.N,/SWDIO*%
X133300002Y-107638455D02*
X133820002Y-108158455D01*
X132770002Y-107288455D02*
X132770002Y-102863455D01*
X133120002Y-107638455D02*
X132770002Y-107288455D01*
X133120002Y-107638455D02*
X133300002Y-107638455D01*
%TO.N,/SWDRST*%
X136770002Y-94958430D02*
X135820002Y-95908430D01*
X135820002Y-95908430D02*
X135820002Y-99438455D01*
X135820002Y-99438455D02*
X133820002Y-101438455D01*
X136770002Y-94513455D02*
X136770002Y-94958430D01*
%TO.N,/START*%
X161332112Y-106063455D02*
X161332112Y-105063455D01*
X163070002Y-88188455D02*
X164320002Y-89438455D01*
X160320002Y-104438455D02*
X159570002Y-103688455D01*
X164320002Y-89438455D02*
X164570002Y-89688455D01*
X165070002Y-101326221D02*
X165070002Y-102688455D01*
X160207112Y-108438455D02*
X160745002Y-107900565D01*
X166820002Y-89688455D02*
X167570002Y-90438455D01*
X160745002Y-107900565D02*
X160745002Y-106650565D01*
X159957112Y-108438455D02*
X160207112Y-108438455D01*
X160070002Y-84113455D02*
X161070002Y-85113455D01*
X156820002Y-105688455D02*
X156820002Y-103938455D01*
X164570002Y-89688455D02*
X166820002Y-89688455D01*
X167820002Y-98576221D02*
X165457768Y-100938455D01*
X167820002Y-91688455D02*
X167820002Y-98576221D01*
X137570002Y-96188455D02*
X139445002Y-96188455D01*
X167570002Y-91438455D02*
X167820002Y-91688455D01*
X156820002Y-103938455D02*
X156070002Y-103188455D01*
X160707112Y-104438455D02*
X160320002Y-104438455D01*
X161070002Y-85113455D02*
X161070002Y-87875955D01*
X162820002Y-88188455D02*
X163070002Y-88188455D01*
X139445002Y-96188455D02*
X139745002Y-95888455D01*
X161332112Y-105063455D02*
X160707112Y-104438455D01*
X160757502Y-88188455D02*
X162820002Y-88188455D01*
X165457768Y-100938455D02*
X165070002Y-101326221D01*
X160745002Y-106650565D02*
X161332112Y-106063455D01*
X161070002Y-87875955D02*
X160757502Y-88188455D01*
X165070002Y-102688455D02*
X166570002Y-104188455D01*
X167570002Y-90438455D02*
X167570002Y-91438455D01*
%TO.N,Net-(Q2-Pad1)*%
X158570002Y-81113455D02*
X157820002Y-81863455D01*
X157820002Y-88075955D02*
X158882502Y-89138455D01*
X157820002Y-81863455D02*
X157820002Y-88075955D01*
%TO.N,/SET*%
X156820002Y-108688455D02*
X157320002Y-108688455D01*
X156070002Y-105822339D02*
X156070002Y-104938455D01*
X156820002Y-106438455D02*
X156686118Y-106438455D01*
X156070002Y-104938455D02*
X155570002Y-104438455D01*
X156070002Y-109438455D02*
X156820002Y-108688455D01*
X157570002Y-108438455D02*
X157570002Y-107188455D01*
X136820002Y-96938455D02*
X139495002Y-96938455D01*
X159382502Y-91688455D02*
X159382502Y-91250955D01*
X156320002Y-110438455D02*
X156070002Y-110188455D01*
X157570002Y-107188455D02*
X156820002Y-106438455D01*
X157320002Y-108688455D02*
X157570002Y-108438455D01*
X155570002Y-104438455D02*
X154194502Y-104438455D01*
X157320002Y-110438455D02*
X156320002Y-110438455D01*
X139495002Y-96938455D02*
X139745002Y-96688455D01*
X159045502Y-98188455D02*
X159045502Y-98962955D01*
X159382502Y-91250955D02*
X158820002Y-90688455D01*
X158820002Y-108938455D02*
X157320002Y-110438455D01*
X156686118Y-106438455D02*
X156070002Y-105822339D01*
X159045502Y-98962955D02*
X158820002Y-99188455D01*
X154194502Y-104438455D02*
X154070002Y-104313955D01*
X158820002Y-99188455D02*
X158820002Y-108938455D01*
X156070002Y-110188455D02*
X156070002Y-109438455D01*
%TO.N,Net-(Q3-Pad1)*%
X161907502Y-91388455D02*
X163945002Y-91388455D01*
X161257502Y-90738455D02*
X161907502Y-91388455D01*
X163945002Y-91388455D02*
X164745002Y-92188455D01*
%TO.N,/RESET*%
X137195002Y-108813455D02*
X138570002Y-107438455D01*
X159570002Y-100938455D02*
X160632502Y-100938455D01*
X144570002Y-114813955D02*
X143820502Y-115563455D01*
X161320002Y-103554571D02*
X161320002Y-102438455D01*
X149320002Y-114938455D02*
X147570002Y-114938455D01*
X137195002Y-113563455D02*
X137195002Y-108813455D01*
X161070002Y-109075565D02*
X161207112Y-108938455D01*
X161320002Y-102438455D02*
X161132502Y-102250955D01*
X161707112Y-106188455D02*
X161707112Y-103941681D01*
X161707112Y-103941681D02*
X161320002Y-103554571D01*
X147570002Y-114938455D02*
X147320002Y-114688455D01*
X139195002Y-115563455D02*
X137195002Y-113563455D01*
X143820502Y-115563455D02*
X139195002Y-115563455D01*
X161095002Y-108826345D02*
X161095002Y-106800565D01*
X161070002Y-112938455D02*
X161070002Y-109075565D01*
X160632502Y-100938455D02*
X161132502Y-101438455D01*
X161207112Y-108938455D02*
X161095002Y-108826345D01*
X138520002Y-97488455D02*
X139745002Y-97488455D01*
X137320002Y-98688455D02*
X138520002Y-97488455D01*
X161095002Y-106800565D02*
X161707112Y-106188455D01*
X161132502Y-102250955D02*
X161132502Y-101438455D01*
X159070002Y-113438455D02*
X157570002Y-114938455D01*
X157570002Y-114938455D02*
X149320002Y-114938455D01*
%TO.N,/GDR*%
X140820002Y-110688455D02*
X141560002Y-109948455D01*
X142570002Y-115188455D02*
X140570002Y-115188455D01*
X160657112Y-105488455D02*
X160707112Y-105438455D01*
X141560002Y-109948455D02*
X141560002Y-108398455D01*
X143320002Y-114438455D02*
X142570002Y-115188455D01*
X160070002Y-105488455D02*
X160657112Y-105488455D01*
X140570002Y-115188455D02*
X140320002Y-114938455D01*
%TO.N,/RESE*%
X160070002Y-107388455D02*
X159757112Y-107388455D01*
X142060002Y-110648455D02*
X139520002Y-113188455D01*
X159707112Y-115688455D02*
X154320002Y-115688455D01*
X160457112Y-110688455D02*
X160445002Y-110700565D01*
X145070002Y-114188455D02*
X144320002Y-114188455D01*
X159207112Y-107938455D02*
X159207112Y-109438455D01*
X142060002Y-110428455D02*
X142060002Y-110648455D01*
X154070002Y-115438455D02*
X146320002Y-115438455D01*
X144320002Y-114188455D02*
X144070002Y-113938455D01*
X142060002Y-108398455D02*
X142060002Y-110428455D01*
X139520002Y-113188455D02*
X137820002Y-113188455D01*
X160445002Y-110700565D02*
X160445002Y-114950565D01*
X144070002Y-112438455D02*
X142060002Y-110428455D01*
X159757112Y-107388455D02*
X159207112Y-107938455D01*
X154320002Y-115688455D02*
X154070002Y-115438455D01*
X146320002Y-115438455D02*
X145070002Y-114188455D01*
X144070002Y-113938455D02*
X144070002Y-112438455D01*
X160445002Y-114950565D02*
X159707112Y-115688455D01*
X159207112Y-109438455D02*
X160457112Y-110688455D01*
%TO.N,/SCL*%
X130395002Y-92804998D02*
X130395002Y-93695002D01*
X134300000Y-88000000D02*
X135200000Y-87100000D01*
X130150000Y-92559996D02*
X130395002Y-92804998D01*
X137100000Y-86272939D02*
X137100000Y-85900000D01*
X130600000Y-89500000D02*
X131400000Y-90300000D01*
X132800000Y-89956479D02*
X132800000Y-89068521D01*
X130412500Y-89500000D02*
X130412500Y-89912500D01*
X131295002Y-95295002D02*
X131295002Y-94388150D01*
X136272939Y-87100000D02*
X137100000Y-86272939D01*
X131400000Y-90300000D02*
X132456479Y-90300000D01*
X132800000Y-89068521D02*
X133868521Y-88000000D01*
X137500000Y-85500000D02*
X136600000Y-84600000D01*
X130741180Y-93834328D02*
X130534328Y-93834328D01*
X130150000Y-92336396D02*
X130150000Y-92559996D01*
X135200000Y-87100000D02*
X136272939Y-87100000D01*
X137100000Y-85900000D02*
X137500000Y-85500000D01*
X131395002Y-95395002D02*
X131295002Y-95295002D01*
X130784328Y-91700000D02*
X130784328Y-91702068D01*
X132456479Y-90300000D02*
X132800000Y-89956479D01*
X131134328Y-90634328D02*
X131134328Y-91350000D01*
X131295002Y-94388150D02*
X130741180Y-93834328D01*
X133868521Y-88000000D02*
X134300000Y-88000000D01*
X130395002Y-93695002D02*
X130534328Y-93834328D01*
X131395002Y-95395002D02*
X131395002Y-95888455D01*
X130784328Y-91702068D02*
X130150000Y-92336396D01*
X130412500Y-89912500D02*
X131134328Y-90634328D01*
X131134328Y-91350000D02*
X130784328Y-91700000D01*
X130412500Y-89500000D02*
X130600000Y-89500000D01*
%TO.N,/SDA*%
X134150000Y-84737500D02*
X134150000Y-84300000D01*
X130334328Y-91515672D02*
X130334328Y-91034328D01*
X129795002Y-95745002D02*
X129795002Y-92943455D01*
X130705546Y-83705546D02*
X130161897Y-84249194D01*
X131395002Y-96688455D02*
X130457112Y-96688455D01*
X129675000Y-92823453D02*
X129675000Y-92200000D01*
X130334328Y-91515672D02*
X129650000Y-92200000D01*
X129945002Y-95895002D02*
X129795002Y-95745002D01*
X135694912Y-83894912D02*
X135801327Y-83894912D01*
X130334328Y-91034328D02*
X130300000Y-91000000D01*
X130161897Y-84249194D02*
X130161897Y-84637397D01*
X134300000Y-84150000D02*
X134400000Y-84150000D01*
X134400000Y-84150000D02*
X134655088Y-83894912D01*
X129795002Y-92943455D02*
X129675000Y-92823453D01*
X130457112Y-96688455D02*
X129945002Y-96176345D01*
X134150000Y-84300000D02*
X134300000Y-84150000D01*
X130705546Y-83705546D02*
X130922637Y-83488455D01*
X129945002Y-96176345D02*
X129945002Y-95895002D01*
X134655088Y-83894912D02*
X135801327Y-83894912D01*
X130922637Y-83488455D02*
X135288455Y-83488455D01*
X135288455Y-83488455D02*
X135694912Y-83894912D01*
%TO.N,/SCK*%
X144720002Y-103838455D02*
X139620502Y-103838455D01*
X139620502Y-103838455D02*
X139320002Y-103537955D01*
X147060002Y-108398455D02*
X147060002Y-106178455D01*
X131695002Y-100188455D02*
X131395002Y-99888455D01*
X133820002Y-100188455D02*
X131695002Y-100188455D01*
X147060002Y-106178455D02*
X144720002Y-103838455D01*
%TO.N,/RST*%
X145560002Y-108398455D02*
X145560002Y-106178455D01*
X144320002Y-104938455D02*
X136320002Y-104938455D01*
X145560002Y-106178455D02*
X144320002Y-104938455D01*
X136320002Y-104938455D02*
X135170002Y-103788455D01*
X135170002Y-103788455D02*
X135170002Y-102863455D01*
%TO.N,/MOSI*%
X138620002Y-99888455D02*
X139745002Y-99888455D01*
X147560002Y-108398455D02*
X147560002Y-106178455D01*
X140450027Y-103438455D02*
X138239977Y-101228406D01*
X138239977Y-101228406D02*
X138239977Y-100268480D01*
X144820002Y-103438455D02*
X140450027Y-103438455D01*
X147560002Y-106178455D02*
X144820002Y-103438455D01*
X138239977Y-100268480D02*
X138620002Y-99888455D01*
%TO.N,/DC*%
X137670002Y-104538455D02*
X136770002Y-103638455D01*
X144420002Y-104538455D02*
X137670002Y-104538455D01*
X136770002Y-103638455D02*
X136770002Y-102863455D01*
X146060002Y-106178455D02*
X144420002Y-104538455D01*
X146060002Y-108398455D02*
X146060002Y-106178455D01*
%TO.N,/CS*%
X137570002Y-103688455D02*
X137570002Y-102863455D01*
X138070002Y-104188455D02*
X137570002Y-103688455D01*
X144570002Y-104188455D02*
X138070002Y-104188455D01*
X146560002Y-106178455D02*
X144570002Y-104188455D01*
X146560002Y-108398455D02*
X146560002Y-106178455D01*
%TO.N,/BUSY*%
X134920002Y-105288455D02*
X133570002Y-103938455D01*
X145060002Y-106173429D02*
X144175028Y-105288455D01*
X144175028Y-105288455D02*
X134920002Y-105288455D01*
X133570002Y-103938455D02*
X133570002Y-102863455D01*
X145060002Y-108398455D02*
X145060002Y-106173429D01*
%TO.N,Net-(C3-Pad1)*%
X135039546Y-91100000D02*
X137908457Y-91100000D01*
X134109548Y-92029998D02*
X133920002Y-92029998D01*
X133570002Y-94513455D02*
X133570002Y-92379998D01*
X137908457Y-91100000D02*
X139320002Y-89688455D01*
X134109548Y-92029998D02*
X135039546Y-91100000D01*
X133920002Y-92029998D02*
X133570002Y-92379998D01*
%TO.N,Net-(C4-Pad1)*%
X134100000Y-93300000D02*
X134100000Y-92900000D01*
X138094853Y-91550000D02*
X138233308Y-91688455D01*
X134370002Y-93570002D02*
X134100000Y-93300000D01*
X134175942Y-92824058D02*
X134100000Y-92900000D01*
X138233308Y-91688455D02*
X139320002Y-91688455D01*
X134370002Y-94513455D02*
X134370002Y-93570002D01*
X135225942Y-91550000D02*
X138094853Y-91550000D01*
X134175942Y-92600000D02*
X134175942Y-92824058D01*
X134175942Y-92600000D02*
X135225942Y-91550000D01*
%TO.N,Net-(C6-Pad2)*%
X158070002Y-106438455D02*
X158070002Y-98398455D01*
X158070002Y-106438455D02*
X158070002Y-108688455D01*
X158070002Y-108688455D02*
X157070002Y-109688455D01*
X158070002Y-98398455D02*
X157920002Y-98248455D01*
%TO.N,Net-(C12-Pad1)*%
X150570002Y-105438455D02*
X150560002Y-105448455D01*
X150560002Y-105448455D02*
X150560002Y-108398455D01*
%TO.N,Net-(C14-Pad1)*%
X152920002Y-105438455D02*
X151560002Y-106798455D01*
X151560002Y-106798455D02*
X151560002Y-108398455D01*
X155195502Y-105438455D02*
X155320002Y-105562955D01*
X152920002Y-105438455D02*
X155195502Y-105438455D01*
%TO.N,Net-(C25-Pad1)*%
X136259679Y-86087955D02*
X136097634Y-86250000D01*
X136097634Y-86250000D02*
X135162500Y-86250000D01*
%TO.N,Net-(D4-Pad1)*%
X128950000Y-90950000D02*
X128800000Y-90800000D01*
X128950000Y-92500000D02*
X128950000Y-90950000D01*
%TO.N,Net-(D4-Pad2)*%
X129960267Y-97439070D02*
X131345617Y-97439070D01*
X131345617Y-97439070D02*
X131395002Y-97488455D01*
%TO.N,Net-(D5-Pad1)*%
X135050000Y-78700000D02*
X135450000Y-78700000D01*
X132376084Y-79423916D02*
X133923916Y-79423916D01*
X128500000Y-85274695D02*
X131400000Y-82374695D01*
X135907112Y-80950955D02*
X135707112Y-81150955D01*
X127304810Y-86795190D02*
X128500000Y-85600000D01*
X134326084Y-79423916D02*
X134850000Y-78900000D01*
X135600000Y-78700000D02*
X135700000Y-78700000D01*
X131400000Y-82374695D02*
X131400000Y-80400000D01*
X127304810Y-91997564D02*
X127304810Y-86795190D01*
X133923916Y-79423916D02*
X134326084Y-79423916D01*
X134850000Y-78900000D02*
X135050000Y-78700000D01*
X135450000Y-78700000D02*
X135600000Y-78700000D01*
X135700000Y-78700000D02*
X135907112Y-78907112D01*
X131400000Y-80400000D02*
X132376084Y-79423916D01*
X135907112Y-78907112D02*
X135907112Y-80950955D01*
X128500000Y-85600000D02*
X128500000Y-85274695D01*
%TO.N,Net-(J5-Pad2)*%
X159495002Y-83188455D02*
X158570002Y-84113455D01*
X164590002Y-87588160D02*
X163387921Y-87588160D01*
X161570002Y-85770241D02*
X161570002Y-84188455D01*
X163387921Y-87588160D02*
X161570002Y-85770241D01*
X160570002Y-83188455D02*
X159495002Y-83188455D01*
X161570002Y-84188455D02*
X160570002Y-83188455D01*
%TO.N,Net-(J6-Pad2)*%
X163820002Y-95688455D02*
X164070002Y-95938455D01*
X163820002Y-95513455D02*
X163820002Y-95688455D01*
%TO.N,Net-(J7-Pad2)*%
X164320002Y-103098011D02*
X164320002Y-100439496D01*
X164320002Y-100439496D02*
X162870002Y-98989496D01*
X166006124Y-104784133D02*
X164320002Y-103098011D01*
X162870002Y-98989496D02*
X162870002Y-98063455D01*
X162870002Y-98063455D02*
X162245002Y-97438455D01*
X164552083Y-107388160D02*
X166006124Y-105934119D01*
X166006124Y-105934119D02*
X166006124Y-104784133D01*
X163350002Y-107388160D02*
X164552083Y-107388160D01*
%TO.N,Net-(Q4-Pad1)*%
X161070002Y-98938455D02*
X162620002Y-100488455D01*
X161895002Y-95938455D02*
X161070002Y-96763455D01*
X161070002Y-96763455D02*
X161070002Y-98938455D01*
%TD*%
%TA.AperFunction,Conductor*%
%TO.N,GND*%
G36*
X126601403Y-89594538D02*
G01*
X126653497Y-89642775D01*
X126671310Y-89707363D01*
X126671310Y-91295040D01*
X126651308Y-91363161D01*
X126638952Y-91379343D01*
X126565770Y-91460620D01*
X126470283Y-91626008D01*
X126468243Y-91632288D01*
X126468242Y-91632289D01*
X126450779Y-91686034D01*
X126410705Y-91744639D01*
X126380776Y-91760431D01*
X126375673Y-91766320D01*
X126374002Y-91774003D01*
X126374002Y-95908339D01*
X126378477Y-95923578D01*
X126379867Y-95924783D01*
X126387550Y-95926454D01*
X126541785Y-95926454D01*
X126609906Y-95946456D01*
X126656399Y-96000112D01*
X126667095Y-96039281D01*
X126670459Y-96071282D01*
X126657688Y-96141121D01*
X126609187Y-96192968D01*
X126545149Y-96210455D01*
X126392117Y-96210455D01*
X126376878Y-96214930D01*
X126375673Y-96216320D01*
X126374002Y-96224003D01*
X126374002Y-101158339D01*
X126378477Y-101173578D01*
X126379867Y-101174783D01*
X126387550Y-101176454D01*
X126814671Y-101176454D01*
X126821492Y-101176084D01*
X126872354Y-101170560D01*
X126887606Y-101166934D01*
X127008056Y-101121779D01*
X127023651Y-101113241D01*
X127125726Y-101036740D01*
X127138287Y-101024179D01*
X127214788Y-100922104D01*
X127223326Y-100906509D01*
X127268480Y-100786061D01*
X127272107Y-100770806D01*
X127277633Y-100719941D01*
X127278002Y-100713127D01*
X127278002Y-100037179D01*
X127298004Y-99969058D01*
X127351660Y-99922565D01*
X127421934Y-99912461D01*
X127486514Y-99941955D01*
X127504829Y-99961615D01*
X127551718Y-100024180D01*
X127564278Y-100036740D01*
X127666353Y-100113241D01*
X127681948Y-100121779D01*
X127802396Y-100166933D01*
X127817651Y-100170560D01*
X127868516Y-100176086D01*
X127875330Y-100176455D01*
X128422887Y-100176455D01*
X128438126Y-100171980D01*
X128439331Y-100170590D01*
X128441002Y-100162907D01*
X128441002Y-98827955D01*
X128461004Y-98759834D01*
X128514660Y-98713341D01*
X128567002Y-98701955D01*
X128823002Y-98701955D01*
X128891123Y-98721957D01*
X128937616Y-98775613D01*
X128949002Y-98827955D01*
X128949002Y-100158339D01*
X128953477Y-100173578D01*
X128954867Y-100174783D01*
X128962550Y-100176454D01*
X129514671Y-100176454D01*
X129521492Y-100176084D01*
X129572354Y-100170560D01*
X129587606Y-100166934D01*
X129708056Y-100121779D01*
X129723651Y-100113241D01*
X129825726Y-100036740D01*
X129838287Y-100024179D01*
X129909677Y-99928923D01*
X129966536Y-99886408D01*
X130037354Y-99881382D01*
X130099648Y-99915442D01*
X130133638Y-99977773D01*
X130136503Y-100004486D01*
X130136503Y-100077433D01*
X130136697Y-100079898D01*
X130138114Y-100097907D01*
X130139328Y-100113344D01*
X130141122Y-100119518D01*
X130141123Y-100119525D01*
X130179990Y-100253302D01*
X130179990Y-100323608D01*
X130139328Y-100463566D01*
X130138823Y-100469985D01*
X130136695Y-100497017D01*
X130136694Y-100497030D01*
X130136502Y-100499476D01*
X130136503Y-100877433D01*
X130139328Y-100913344D01*
X130141122Y-100919518D01*
X130141123Y-100919525D01*
X130179990Y-101053302D01*
X130179990Y-101123608D01*
X130141125Y-101257380D01*
X130139328Y-101263566D01*
X130138823Y-101269985D01*
X130136695Y-101297017D01*
X130136694Y-101297030D01*
X130136502Y-101299476D01*
X130136503Y-101677433D01*
X130139328Y-101713344D01*
X130183984Y-101867048D01*
X130188018Y-101873869D01*
X130261426Y-101997998D01*
X130261429Y-101998002D01*
X130265460Y-102004818D01*
X130378639Y-102117997D01*
X130385455Y-102122028D01*
X130385459Y-102122031D01*
X130483405Y-102179955D01*
X130516409Y-102199473D01*
X130524019Y-102201684D01*
X130670113Y-102244129D01*
X130669307Y-102246903D01*
X130721530Y-102273164D01*
X130757645Y-102334289D01*
X130761502Y-102365225D01*
X130761502Y-104185971D01*
X130741500Y-104254092D01*
X130724597Y-104275066D01*
X130142227Y-104857435D01*
X129564859Y-105434803D01*
X129556573Y-105442343D01*
X129550094Y-105446455D01*
X129544669Y-105452232D01*
X129503469Y-105496106D01*
X129500714Y-105498948D01*
X129480977Y-105518685D01*
X129478497Y-105521882D01*
X129470794Y-105530902D01*
X129440526Y-105563134D01*
X129436707Y-105570080D01*
X129436705Y-105570083D01*
X129430764Y-105580889D01*
X129419913Y-105597408D01*
X129407498Y-105613414D01*
X129404353Y-105620683D01*
X129404350Y-105620687D01*
X129389938Y-105653992D01*
X129384721Y-105664642D01*
X129363417Y-105703395D01*
X129361446Y-105711070D01*
X129361446Y-105711071D01*
X129358379Y-105723017D01*
X129351975Y-105741721D01*
X129343931Y-105760310D01*
X129342692Y-105768133D01*
X129342689Y-105768143D01*
X129337013Y-105803979D01*
X129334607Y-105815599D01*
X129328030Y-105841216D01*
X129323612Y-105858425D01*
X129323612Y-105878679D01*
X129322061Y-105898389D01*
X129318892Y-105918398D01*
X129319638Y-105926290D01*
X129323053Y-105962416D01*
X129323612Y-105974274D01*
X129323612Y-106756798D01*
X129323085Y-106767981D01*
X129321410Y-106775474D01*
X129321659Y-106783400D01*
X129321659Y-106783401D01*
X129323550Y-106843564D01*
X129323612Y-106847522D01*
X129323612Y-106875421D01*
X129324109Y-106879354D01*
X129324116Y-106879411D01*
X129325048Y-106891245D01*
X129326438Y-106935454D01*
X129328650Y-106943068D01*
X129328651Y-106943073D01*
X129332089Y-106954906D01*
X129336100Y-106974269D01*
X129338638Y-106994362D01*
X129341555Y-107001729D01*
X129341556Y-107001734D01*
X129354914Y-107035473D01*
X129358758Y-107046700D01*
X129371094Y-107089158D01*
X129375131Y-107095984D01*
X129381405Y-107106593D01*
X129390100Y-107124341D01*
X129397560Y-107143182D01*
X129402222Y-107149598D01*
X129402222Y-107149599D01*
X129423548Y-107178952D01*
X129430064Y-107188872D01*
X129447594Y-107218513D01*
X129452570Y-107226927D01*
X129466891Y-107241248D01*
X129479731Y-107256281D01*
X129491640Y-107272672D01*
X129525157Y-107300400D01*
X129525717Y-107300863D01*
X129534496Y-107308853D01*
X132416344Y-110190702D01*
X132423888Y-110198992D01*
X132428001Y-110205473D01*
X132433778Y-110210898D01*
X132477668Y-110252113D01*
X132480510Y-110254868D01*
X132500232Y-110274590D01*
X132503356Y-110277013D01*
X132503360Y-110277017D01*
X132503425Y-110277067D01*
X132512446Y-110284772D01*
X132544680Y-110315041D01*
X132551628Y-110318860D01*
X132551630Y-110318862D01*
X132562433Y-110324801D01*
X132578960Y-110335657D01*
X132588699Y-110343212D01*
X132588701Y-110343213D01*
X132594961Y-110348069D01*
X132635541Y-110365629D01*
X132646189Y-110370846D01*
X132656083Y-110376285D01*
X132684941Y-110392150D01*
X132692617Y-110394121D01*
X132692620Y-110394122D01*
X132704563Y-110397188D01*
X132723267Y-110403592D01*
X132731781Y-110407276D01*
X132741856Y-110411636D01*
X132749679Y-110412875D01*
X132749689Y-110412878D01*
X132785525Y-110418554D01*
X132797145Y-110420960D01*
X132832290Y-110429983D01*
X132839971Y-110431955D01*
X132860225Y-110431955D01*
X132879935Y-110433506D01*
X132899944Y-110436675D01*
X132907836Y-110435929D01*
X132943962Y-110432514D01*
X132955820Y-110431955D01*
X134378210Y-110431955D01*
X134452271Y-110456019D01*
X134477748Y-110474529D01*
X134483776Y-110477213D01*
X134483778Y-110477214D01*
X134609748Y-110533299D01*
X134652212Y-110552205D01*
X134745612Y-110572058D01*
X134832556Y-110590539D01*
X134832561Y-110590539D01*
X134839013Y-110591911D01*
X135029987Y-110591911D01*
X135036439Y-110590539D01*
X135036444Y-110590539D01*
X135123387Y-110572058D01*
X135216788Y-110552205D01*
X135222815Y-110549522D01*
X135222823Y-110549519D01*
X135259252Y-110533299D01*
X135329619Y-110523864D01*
X135393917Y-110553970D01*
X135431730Y-110614058D01*
X135436502Y-110648405D01*
X135436502Y-111782627D01*
X135416500Y-111850748D01*
X135362844Y-111897241D01*
X135292570Y-111907345D01*
X135259254Y-111897734D01*
X135138323Y-111843892D01*
X135138315Y-111843889D01*
X135132288Y-111841206D01*
X135038887Y-111821353D01*
X134951944Y-111802872D01*
X134951939Y-111802872D01*
X134945487Y-111801500D01*
X134754513Y-111801500D01*
X134748061Y-111802872D01*
X134748056Y-111802872D01*
X134661113Y-111821353D01*
X134567712Y-111841206D01*
X134561682Y-111843891D01*
X134561681Y-111843891D01*
X134399278Y-111916197D01*
X134399276Y-111916198D01*
X134393248Y-111918882D01*
X134238747Y-112031134D01*
X134234326Y-112036044D01*
X134234325Y-112036045D01*
X134142335Y-112138211D01*
X134110960Y-112173056D01*
X134015473Y-112338444D01*
X133956458Y-112520072D01*
X133955768Y-112526633D01*
X133955768Y-112526635D01*
X133941631Y-112661140D01*
X133914618Y-112726797D01*
X133892473Y-112742250D01*
X133915693Y-112755953D01*
X133947623Y-112819364D01*
X133948988Y-112828852D01*
X133956458Y-112899928D01*
X134008851Y-113061176D01*
X134015473Y-113081556D01*
X134013492Y-113082200D01*
X134021620Y-113142855D01*
X133991508Y-113207150D01*
X133936956Y-113243251D01*
X133830313Y-113278830D01*
X133817137Y-113285002D01*
X133814174Y-113286836D01*
X133811868Y-113287471D01*
X133810514Y-113288105D01*
X133810405Y-113287873D01*
X133745722Y-113305675D01*
X133677952Y-113284515D01*
X133632380Y-113230075D01*
X133623475Y-113159639D01*
X133628036Y-113140757D01*
X133681502Y-112976206D01*
X133683542Y-112969928D01*
X133690132Y-112907229D01*
X133698369Y-112828860D01*
X133725382Y-112763203D01*
X133747527Y-112747750D01*
X133724307Y-112734047D01*
X133692377Y-112670636D01*
X133691011Y-112661139D01*
X133689969Y-112651218D01*
X133683542Y-112590072D01*
X133624527Y-112408444D01*
X133617694Y-112396608D01*
X133554710Y-112287518D01*
X133529040Y-112243056D01*
X133422223Y-112124423D01*
X133405675Y-112106045D01*
X133405674Y-112106044D01*
X133401253Y-112101134D01*
X133246752Y-111988882D01*
X133240724Y-111986198D01*
X133240722Y-111986197D01*
X133078319Y-111913891D01*
X133078318Y-111913891D01*
X133072288Y-111911206D01*
X132978888Y-111891353D01*
X132891944Y-111872872D01*
X132891939Y-111872872D01*
X132885487Y-111871500D01*
X132694513Y-111871500D01*
X132688061Y-111872872D01*
X132688056Y-111872872D01*
X132601112Y-111891353D01*
X132507712Y-111911206D01*
X132501682Y-111913891D01*
X132501681Y-111913891D01*
X132339278Y-111986197D01*
X132339276Y-111986198D01*
X132333248Y-111988882D01*
X132178747Y-112101134D01*
X132174326Y-112106044D01*
X132174325Y-112106045D01*
X132157778Y-112124423D01*
X132050960Y-112243056D01*
X132025290Y-112287518D01*
X131962307Y-112396608D01*
X131955473Y-112408444D01*
X131896458Y-112590072D01*
X131895768Y-112596633D01*
X131895768Y-112596635D01*
X131884212Y-112706586D01*
X131876496Y-112780000D01*
X131877186Y-112786565D01*
X131889761Y-112906206D01*
X131896458Y-112969928D01*
X131955473Y-113151556D01*
X131958776Y-113157278D01*
X131958777Y-113157279D01*
X132039068Y-113296347D01*
X132055806Y-113365342D01*
X132032586Y-113432434D01*
X132019123Y-113448364D01*
X131997844Y-113469681D01*
X131989138Y-113478402D01*
X131900153Y-113622763D01*
X131897848Y-113629711D01*
X131897848Y-113629712D01*
X131853253Y-113764162D01*
X131846764Y-113783724D01*
X131836502Y-113883883D01*
X131836502Y-114418027D01*
X131836839Y-114421273D01*
X131836839Y-114421277D01*
X131838937Y-114441500D01*
X131847024Y-114519437D01*
X131900694Y-114680304D01*
X131989931Y-114824510D01*
X132014807Y-114849342D01*
X132048886Y-114911623D01*
X132043884Y-114982443D01*
X132014962Y-115027533D01*
X131989138Y-115053402D01*
X131985298Y-115059632D01*
X131985297Y-115059633D01*
X131965982Y-115090969D01*
X131900153Y-115197763D01*
X131846764Y-115358724D01*
X131836502Y-115458883D01*
X131836502Y-115993027D01*
X131836839Y-115996273D01*
X131836839Y-115996277D01*
X131839139Y-116018439D01*
X131847024Y-116094437D01*
X131900694Y-116255304D01*
X131989931Y-116399510D01*
X132109949Y-116519319D01*
X132116179Y-116523159D01*
X132116180Y-116523160D01*
X132133636Y-116533920D01*
X132254310Y-116608304D01*
X132261258Y-116610609D01*
X132261259Y-116610609D01*
X132408740Y-116659527D01*
X132408742Y-116659527D01*
X132415271Y-116661693D01*
X132515430Y-116671955D01*
X133124574Y-116671955D01*
X133127820Y-116671618D01*
X133127824Y-116671618D01*
X133161605Y-116668113D01*
X133225984Y-116661433D01*
X133386851Y-116607763D01*
X133531057Y-116518526D01*
X133532746Y-116521256D01*
X133585300Y-116500006D01*
X133655060Y-116513201D01*
X133675198Y-116526123D01*
X133679947Y-116530864D01*
X133824308Y-116619849D01*
X133831256Y-116622154D01*
X133831257Y-116622154D01*
X133978738Y-116671072D01*
X133978740Y-116671072D01*
X133985269Y-116673238D01*
X134085428Y-116683500D01*
X134694572Y-116683500D01*
X134697818Y-116683163D01*
X134697822Y-116683163D01*
X134731603Y-116679658D01*
X134795982Y-116672978D01*
X134956849Y-116619308D01*
X135101055Y-116530071D01*
X135220864Y-116410053D01*
X135222696Y-116411882D01*
X135270723Y-116377840D01*
X135311673Y-116371000D01*
X135692190Y-116371000D01*
X135703373Y-116371527D01*
X135710866Y-116373202D01*
X135718792Y-116372953D01*
X135718793Y-116372953D01*
X135778943Y-116371062D01*
X135782902Y-116371000D01*
X135810813Y-116371000D01*
X135814748Y-116370503D01*
X135814813Y-116370495D01*
X135826650Y-116369562D01*
X135858908Y-116368548D01*
X135862927Y-116368422D01*
X135870846Y-116368173D01*
X135890300Y-116362521D01*
X135909657Y-116358513D01*
X135921887Y-116356968D01*
X135921888Y-116356968D01*
X135929754Y-116355974D01*
X135937125Y-116353055D01*
X135937127Y-116353055D01*
X135970869Y-116339696D01*
X135982099Y-116335851D01*
X136016940Y-116325729D01*
X136016941Y-116325729D01*
X136024550Y-116323518D01*
X136031369Y-116319485D01*
X136031374Y-116319483D01*
X136041985Y-116313207D01*
X136059733Y-116304512D01*
X136078574Y-116297052D01*
X136087385Y-116290651D01*
X136114344Y-116271064D01*
X136124264Y-116264548D01*
X136155492Y-116246080D01*
X136155495Y-116246078D01*
X136162319Y-116242042D01*
X136176640Y-116227721D01*
X136191674Y-116214880D01*
X136201651Y-116207631D01*
X136208064Y-116202972D01*
X136236255Y-116168895D01*
X136244245Y-116160116D01*
X137212249Y-115192112D01*
X137220539Y-115184568D01*
X137227020Y-115180455D01*
X137273661Y-115130787D01*
X137276415Y-115127946D01*
X137296137Y-115108224D01*
X137298614Y-115105031D01*
X137306319Y-115096010D01*
X137331161Y-115069555D01*
X137336588Y-115063776D01*
X137340409Y-115056826D01*
X137346348Y-115046023D01*
X137357204Y-115029496D01*
X137364759Y-115019757D01*
X137364760Y-115019755D01*
X137369616Y-115013495D01*
X137387176Y-114972915D01*
X137392393Y-114962267D01*
X137409876Y-114930466D01*
X137409877Y-114930464D01*
X137413697Y-114923515D01*
X137413893Y-114922754D01*
X137455609Y-114869284D01*
X137522611Y-114845806D01*
X137591671Y-114862278D01*
X137618186Y-114882544D01*
X138691350Y-115955708D01*
X138698890Y-115963994D01*
X138703002Y-115970473D01*
X138708779Y-115975898D01*
X138752653Y-116017098D01*
X138755495Y-116019853D01*
X138775232Y-116039590D01*
X138778429Y-116042070D01*
X138787449Y-116049773D01*
X138819681Y-116080041D01*
X138826627Y-116083860D01*
X138826630Y-116083862D01*
X138837436Y-116089803D01*
X138853955Y-116100654D01*
X138869961Y-116113069D01*
X138877230Y-116116214D01*
X138877234Y-116116217D01*
X138910539Y-116130629D01*
X138921189Y-116135846D01*
X138959942Y-116157150D01*
X138967617Y-116159121D01*
X138967618Y-116159121D01*
X138979564Y-116162188D01*
X138998268Y-116168592D01*
X139005363Y-116171662D01*
X139016857Y-116176636D01*
X139024680Y-116177875D01*
X139024690Y-116177878D01*
X139060526Y-116183554D01*
X139072146Y-116185960D01*
X139107291Y-116194983D01*
X139114972Y-116196955D01*
X139135226Y-116196955D01*
X139154936Y-116198506D01*
X139174945Y-116201675D01*
X139182837Y-116200929D01*
X139218963Y-116197514D01*
X139230821Y-116196955D01*
X139475502Y-116196955D01*
X139543623Y-116216957D01*
X139590116Y-116270613D01*
X139601502Y-116322955D01*
X139601502Y-117079832D01*
X139601500Y-117080603D01*
X139601178Y-117133226D01*
X139580759Y-117201223D01*
X139526820Y-117247387D01*
X139475180Y-117258455D01*
X131732171Y-117258455D01*
X131664050Y-117238453D01*
X131617557Y-117184797D01*
X131608890Y-117158492D01*
X131326182Y-115819913D01*
X131323463Y-115793876D01*
X131323463Y-113476851D01*
X131323961Y-113465657D01*
X131324602Y-113458466D01*
X131326660Y-113449726D01*
X131323642Y-113393133D01*
X131323463Y-113386424D01*
X131323463Y-113367570D01*
X131322371Y-113359948D01*
X131321277Y-113348790D01*
X131320960Y-113342833D01*
X131320959Y-113342827D01*
X131320700Y-113337966D01*
X131316944Y-113320146D01*
X131315508Y-113312022D01*
X131312083Y-113288105D01*
X131308043Y-113259896D01*
X131304328Y-113251726D01*
X131301808Y-113243106D01*
X131302125Y-113243013D01*
X131298104Y-113230766D01*
X131263564Y-113066899D01*
X131038963Y-112001348D01*
X130821302Y-110968723D01*
X130819498Y-110951349D01*
X130818591Y-110944983D01*
X130818598Y-110936012D01*
X130816087Y-110927400D01*
X130816086Y-110927394D01*
X130804816Y-110888745D01*
X130802487Y-110879458D01*
X130800966Y-110872242D01*
X130800964Y-110872235D01*
X130800039Y-110867847D01*
X130794918Y-110853818D01*
X130792331Y-110845929D01*
X130777824Y-110796178D01*
X130772993Y-110788611D01*
X130769647Y-110781238D01*
X130765819Y-110774099D01*
X130762742Y-110765669D01*
X130757425Y-110758445D01*
X130757422Y-110758439D01*
X130732035Y-110723945D01*
X130727314Y-110717064D01*
X130704273Y-110680976D01*
X130704272Y-110680975D01*
X130699441Y-110673408D01*
X130692680Y-110667502D01*
X130687399Y-110661363D01*
X130681723Y-110655587D01*
X130676403Y-110648359D01*
X130669268Y-110642914D01*
X130662974Y-110636510D01*
X130663125Y-110636361D01*
X130653201Y-110626918D01*
X130652933Y-110626600D01*
X130413545Y-110343212D01*
X130103778Y-109976507D01*
X130100410Y-109972344D01*
X129544515Y-109254493D01*
X129541327Y-109250191D01*
X129364072Y-109000018D01*
X129166193Y-108720737D01*
X129156534Y-108704697D01*
X129137484Y-108666975D01*
X127987520Y-106389955D01*
X127549802Y-105523239D01*
X127536948Y-105453416D01*
X127563883Y-105387727D01*
X127622056Y-105347029D01*
X127692998Y-105344242D01*
X127703811Y-105347482D01*
X127806570Y-105383367D01*
X128056052Y-105430733D01*
X128176534Y-105435466D01*
X128305127Y-105440519D01*
X128305132Y-105440519D01*
X128309795Y-105440702D01*
X128408776Y-105429862D01*
X128557571Y-105413567D01*
X128557577Y-105413566D01*
X128562224Y-105413057D01*
X128671682Y-105384239D01*
X128803275Y-105349593D01*
X128807795Y-105348403D01*
X128925813Y-105297699D01*
X129036809Y-105250012D01*
X129036812Y-105250010D01*
X129041112Y-105248163D01*
X129045092Y-105245700D01*
X129045096Y-105245698D01*
X129253066Y-105117002D01*
X129253068Y-105117000D01*
X129257049Y-105114537D01*
X129450864Y-104950461D01*
X129618297Y-104759539D01*
X129628054Y-104744371D01*
X129725747Y-104592489D01*
X129755671Y-104545967D01*
X129859969Y-104314435D01*
X129928898Y-104070030D01*
X129949609Y-103907229D01*
X129960547Y-103821253D01*
X129960547Y-103821247D01*
X129960945Y-103818122D01*
X129961414Y-103800235D01*
X129963210Y-103731615D01*
X129963293Y-103728455D01*
X129961504Y-103704380D01*
X129944820Y-103479866D01*
X129944819Y-103479862D01*
X129944474Y-103475214D01*
X129938282Y-103447846D01*
X129897077Y-103265751D01*
X129888430Y-103227537D01*
X129879425Y-103204380D01*
X129798086Y-102995217D01*
X129798085Y-102995215D01*
X129796393Y-102990864D01*
X129775868Y-102954953D01*
X129672704Y-102774452D01*
X129672702Y-102774450D01*
X129670385Y-102770395D01*
X129513173Y-102570972D01*
X129349628Y-102417125D01*
X129331612Y-102400177D01*
X129331610Y-102400175D01*
X129328211Y-102396978D01*
X129237845Y-102334289D01*
X129123395Y-102254892D01*
X129123392Y-102254890D01*
X129119563Y-102252234D01*
X129115386Y-102250174D01*
X129115379Y-102250170D01*
X128895998Y-102141983D01*
X128895994Y-102141982D01*
X128891812Y-102139919D01*
X128649962Y-102062502D01*
X128645357Y-102061752D01*
X128403937Y-102022435D01*
X128403936Y-102022435D01*
X128399325Y-102021684D01*
X128272367Y-102020022D01*
X128150085Y-102018421D01*
X128150082Y-102018421D01*
X128145408Y-102018360D01*
X127893789Y-102052604D01*
X127649995Y-102123663D01*
X127645742Y-102125623D01*
X127645741Y-102125624D01*
X127622553Y-102136314D01*
X127419382Y-102229977D01*
X127415473Y-102232540D01*
X127210930Y-102366644D01*
X127210925Y-102366648D01*
X127207017Y-102369210D01*
X127153333Y-102417125D01*
X127047738Y-102511372D01*
X127017564Y-102538303D01*
X126855185Y-102733542D01*
X126723449Y-102950637D01*
X126721640Y-102954951D01*
X126721639Y-102954953D01*
X126631975Y-103168778D01*
X126587186Y-103223864D01*
X126519726Y-103245990D01*
X126451012Y-103228132D01*
X126402861Y-103175960D01*
X126396132Y-103159559D01*
X126272262Y-102784421D01*
X126265544Y-102764074D01*
X126263977Y-102758969D01*
X126242070Y-102681744D01*
X126016177Y-101885470D01*
X126014829Y-101880298D01*
X126009859Y-101859438D01*
X125862103Y-101239359D01*
X125861551Y-101183370D01*
X125866002Y-101162910D01*
X125866002Y-96228571D01*
X125861527Y-96213332D01*
X125860137Y-96212127D01*
X125852454Y-96210456D01*
X125453577Y-96210456D01*
X125385456Y-96190454D01*
X125338963Y-96136798D01*
X125327605Y-96081803D01*
X125328279Y-96049802D01*
X125349711Y-95982117D01*
X125404334Y-95936765D01*
X125454251Y-95926455D01*
X125847887Y-95926455D01*
X125863126Y-95921980D01*
X125864331Y-95920590D01*
X125866002Y-95912907D01*
X125866002Y-91778573D01*
X125860039Y-91758265D01*
X125858357Y-91693601D01*
X125860158Y-91686034D01*
X126012991Y-91043677D01*
X126014340Y-91038501D01*
X126065040Y-90859552D01*
X126147095Y-90569927D01*
X126261824Y-90164981D01*
X126263392Y-90159861D01*
X126380572Y-89804572D01*
X126425650Y-89667897D01*
X126465983Y-89609469D01*
X126531501Y-89582122D01*
X126601403Y-89594538D01*
G37*
%TD.AperFunction*%
%TA.AperFunction,Conductor*%
G36*
X142214034Y-111494493D02*
G01*
X142259097Y-111523454D01*
X143399597Y-112663954D01*
X143433623Y-112726266D01*
X143436502Y-112753049D01*
X143436502Y-113403955D01*
X143416500Y-113472076D01*
X143362844Y-113518569D01*
X143310502Y-113529955D01*
X143224515Y-113529955D01*
X143218063Y-113531327D01*
X143218058Y-113531327D01*
X143131114Y-113549808D01*
X143037714Y-113569661D01*
X143031684Y-113572346D01*
X143031683Y-113572346D01*
X142869280Y-113644652D01*
X142869278Y-113644653D01*
X142863250Y-113647337D01*
X142857909Y-113651217D01*
X142857908Y-113651218D01*
X142849490Y-113657334D01*
X142708749Y-113759589D01*
X142704328Y-113764499D01*
X142704327Y-113764500D01*
X142629966Y-113847087D01*
X142580962Y-113901511D01*
X142577661Y-113907229D01*
X142506013Y-114031327D01*
X142485475Y-114066899D01*
X142426460Y-114248527D01*
X142425770Y-114255088D01*
X142425770Y-114255090D01*
X142409095Y-114413747D01*
X142382082Y-114479404D01*
X142372880Y-114489672D01*
X142344502Y-114518050D01*
X142282190Y-114552076D01*
X142255407Y-114554955D01*
X141220379Y-114554955D01*
X141152258Y-114534953D01*
X141111260Y-114491955D01*
X141082130Y-114441500D01*
X141059042Y-114401511D01*
X140988514Y-114323181D01*
X140935677Y-114264500D01*
X140935676Y-114264499D01*
X140931255Y-114259589D01*
X140776754Y-114147337D01*
X140770726Y-114144653D01*
X140770724Y-114144652D01*
X140608321Y-114072346D01*
X140608320Y-114072346D01*
X140602290Y-114069661D01*
X140508890Y-114049808D01*
X140421946Y-114031327D01*
X140421941Y-114031327D01*
X140415489Y-114029955D01*
X140224515Y-114029955D01*
X140218063Y-114031327D01*
X140218058Y-114031327D01*
X140131115Y-114049808D01*
X140037714Y-114069661D01*
X140031684Y-114072346D01*
X140031683Y-114072346D01*
X139869280Y-114144652D01*
X139869278Y-114144653D01*
X139863250Y-114147337D01*
X139708749Y-114259589D01*
X139704328Y-114264499D01*
X139704327Y-114264500D01*
X139651491Y-114323181D01*
X139580962Y-114401511D01*
X139485475Y-114566899D01*
X139483434Y-114573181D01*
X139453094Y-114666557D01*
X139413020Y-114725162D01*
X139347623Y-114752799D01*
X139277667Y-114740692D01*
X139244169Y-114716718D01*
X138564500Y-114037048D01*
X138530476Y-113974738D01*
X138535541Y-113903922D01*
X138578088Y-113847087D01*
X138644608Y-113822276D01*
X138653597Y-113821955D01*
X139441235Y-113821955D01*
X139452418Y-113822482D01*
X139459911Y-113824157D01*
X139467837Y-113823908D01*
X139467838Y-113823908D01*
X139527988Y-113822017D01*
X139531947Y-113821955D01*
X139559858Y-113821955D01*
X139563793Y-113821458D01*
X139563858Y-113821450D01*
X139575695Y-113820517D01*
X139607953Y-113819503D01*
X139611972Y-113819377D01*
X139619891Y-113819128D01*
X139639345Y-113813476D01*
X139658702Y-113809468D01*
X139670932Y-113807923D01*
X139670933Y-113807923D01*
X139678799Y-113806929D01*
X139686170Y-113804010D01*
X139686172Y-113804010D01*
X139719914Y-113790651D01*
X139731144Y-113786806D01*
X139765985Y-113776684D01*
X139765986Y-113776684D01*
X139773595Y-113774473D01*
X139780414Y-113770440D01*
X139780419Y-113770438D01*
X139791030Y-113764162D01*
X139808778Y-113755467D01*
X139827619Y-113748007D01*
X139847627Y-113733471D01*
X139863389Y-113722019D01*
X139873309Y-113715503D01*
X139904537Y-113697035D01*
X139904540Y-113697033D01*
X139911364Y-113692997D01*
X139925685Y-113678676D01*
X139940719Y-113665835D01*
X139950696Y-113658586D01*
X139957109Y-113653927D01*
X139985300Y-113619850D01*
X139993290Y-113611071D01*
X142080907Y-111523454D01*
X142143219Y-111489428D01*
X142214034Y-111494493D01*
G37*
%TD.AperFunction*%
%TA.AperFunction,Conductor*%
G36*
X158807589Y-109950938D02*
G01*
X158852650Y-109979897D01*
X159774599Y-110901847D01*
X159808623Y-110964157D01*
X159811502Y-110990940D01*
X159811502Y-112606930D01*
X159791500Y-112675051D01*
X159737844Y-112721544D01*
X159667570Y-112731648D01*
X159611441Y-112708866D01*
X159532096Y-112651218D01*
X159532095Y-112651217D01*
X159526754Y-112647337D01*
X159520726Y-112644653D01*
X159520724Y-112644652D01*
X159358321Y-112572346D01*
X159358320Y-112572346D01*
X159352290Y-112569661D01*
X159258889Y-112549808D01*
X159171946Y-112531327D01*
X159171941Y-112531327D01*
X159165489Y-112529955D01*
X158974515Y-112529955D01*
X158968063Y-112531327D01*
X158968058Y-112531327D01*
X158881115Y-112549808D01*
X158787714Y-112569661D01*
X158781684Y-112572346D01*
X158781683Y-112572346D01*
X158619280Y-112644652D01*
X158619278Y-112644653D01*
X158613250Y-112647337D01*
X158458749Y-112759589D01*
X158330962Y-112901511D01*
X158235475Y-113066899D01*
X158176460Y-113248527D01*
X158175770Y-113255088D01*
X158175770Y-113255090D01*
X158159095Y-113413747D01*
X158132082Y-113479404D01*
X158122880Y-113489672D01*
X157344502Y-114268050D01*
X157282190Y-114302076D01*
X157255407Y-114304955D01*
X148220379Y-114304955D01*
X148152258Y-114284953D01*
X148111260Y-114241955D01*
X148068587Y-114168044D01*
X148059042Y-114151511D01*
X147931255Y-114009589D01*
X147790369Y-113907229D01*
X147782096Y-113901218D01*
X147782095Y-113901217D01*
X147776754Y-113897337D01*
X147770726Y-113894653D01*
X147770724Y-113894652D01*
X147608321Y-113822346D01*
X147608320Y-113822346D01*
X147602290Y-113819661D01*
X147508890Y-113799808D01*
X147421946Y-113781327D01*
X147421941Y-113781327D01*
X147415489Y-113779955D01*
X147224515Y-113779955D01*
X147218063Y-113781327D01*
X147218058Y-113781327D01*
X147131115Y-113799808D01*
X147037714Y-113819661D01*
X147031684Y-113822346D01*
X147031683Y-113822346D01*
X146869280Y-113894652D01*
X146869278Y-113894653D01*
X146863250Y-113897337D01*
X146857909Y-113901217D01*
X146857908Y-113901218D01*
X146849635Y-113907229D01*
X146708749Y-114009589D01*
X146580962Y-114151511D01*
X146535893Y-114229573D01*
X146492597Y-114304564D01*
X146485475Y-114316899D01*
X146483434Y-114323181D01*
X146453094Y-114416556D01*
X146413020Y-114475161D01*
X146347623Y-114502798D01*
X146277666Y-114490691D01*
X146244165Y-114466714D01*
X145988632Y-114211180D01*
X145573649Y-113796197D01*
X145566115Y-113787918D01*
X145562002Y-113781437D01*
X145512350Y-113734811D01*
X145509509Y-113732057D01*
X145489772Y-113712320D01*
X145486575Y-113709840D01*
X145477553Y-113702135D01*
X145451102Y-113677296D01*
X145445323Y-113671869D01*
X145438377Y-113668050D01*
X145438374Y-113668048D01*
X145427568Y-113662107D01*
X145411049Y-113651256D01*
X145405996Y-113647337D01*
X145395043Y-113638841D01*
X145387774Y-113635696D01*
X145387770Y-113635693D01*
X145354465Y-113621281D01*
X145343815Y-113616064D01*
X145305062Y-113594760D01*
X145285439Y-113589722D01*
X145266736Y-113583318D01*
X145255422Y-113578422D01*
X145255421Y-113578422D01*
X145248147Y-113575274D01*
X145240324Y-113574035D01*
X145240314Y-113574032D01*
X145204478Y-113568356D01*
X145192858Y-113565950D01*
X145157713Y-113556927D01*
X145157712Y-113556927D01*
X145150032Y-113554955D01*
X145129778Y-113554955D01*
X145110067Y-113553404D01*
X145097888Y-113551475D01*
X145090059Y-113550235D01*
X145082167Y-113550981D01*
X145046041Y-113554396D01*
X145034183Y-113554955D01*
X144829502Y-113554955D01*
X144761381Y-113534953D01*
X144714888Y-113481297D01*
X144703502Y-113428955D01*
X144703502Y-112517222D01*
X144704029Y-112506039D01*
X144705704Y-112498546D01*
X144703762Y-112436752D01*
X144703564Y-112430469D01*
X144703502Y-112426510D01*
X144703502Y-112398599D01*
X144702997Y-112394599D01*
X144702064Y-112382756D01*
X144700924Y-112346484D01*
X144700675Y-112338565D01*
X144695024Y-112319113D01*
X144691016Y-112299761D01*
X144689469Y-112287518D01*
X144688476Y-112279658D01*
X144679202Y-112256234D01*
X144672202Y-112238552D01*
X144668357Y-112227325D01*
X144667723Y-112225142D01*
X144656020Y-112184862D01*
X144651986Y-112178040D01*
X144651983Y-112178034D01*
X144645708Y-112167423D01*
X144637012Y-112149673D01*
X144632474Y-112138211D01*
X144632471Y-112138206D01*
X144629554Y-112130838D01*
X144603575Y-112095080D01*
X144597059Y-112085162D01*
X144578577Y-112053912D01*
X144574544Y-112047092D01*
X144560220Y-112032768D01*
X144547378Y-112017733D01*
X144544049Y-112013151D01*
X144535474Y-112001348D01*
X144501408Y-111973166D01*
X144492629Y-111965177D01*
X143149502Y-110622050D01*
X143115476Y-110559738D01*
X143120541Y-110488923D01*
X143163088Y-110432087D01*
X143229608Y-110407276D01*
X143238597Y-110406955D01*
X143258136Y-110406955D01*
X143261531Y-110406586D01*
X143261535Y-110406586D01*
X143289095Y-110403592D01*
X143296396Y-110402799D01*
X143323608Y-110402799D01*
X143330909Y-110403592D01*
X143358469Y-110406586D01*
X143358473Y-110406586D01*
X143361868Y-110406955D01*
X143758136Y-110406955D01*
X143761531Y-110406586D01*
X143761535Y-110406586D01*
X143789095Y-110403592D01*
X143796396Y-110402799D01*
X143823608Y-110402799D01*
X143830909Y-110403592D01*
X143858469Y-110406586D01*
X143858473Y-110406586D01*
X143861868Y-110406955D01*
X144258136Y-110406955D01*
X144298722Y-110402546D01*
X144325935Y-110402546D01*
X144358519Y-110406086D01*
X144365330Y-110406455D01*
X144391887Y-110406455D01*
X144407126Y-110401980D01*
X144429391Y-110376285D01*
X144429920Y-110376743D01*
X144436684Y-110364355D01*
X144456842Y-110349247D01*
X144456708Y-110349069D01*
X144458043Y-110348069D01*
X144484438Y-110328287D01*
X144550945Y-110303440D01*
X144620327Y-110318494D01*
X144635566Y-110328287D01*
X144663296Y-110349069D01*
X144663080Y-110349358D01*
X144709141Y-110395520D01*
X144711355Y-110400873D01*
X144715867Y-110404783D01*
X144723550Y-110406454D01*
X144754672Y-110406454D01*
X144761490Y-110406085D01*
X144794069Y-110402546D01*
X144821282Y-110402546D01*
X144861868Y-110406955D01*
X145258136Y-110406955D01*
X145261531Y-110406586D01*
X145261535Y-110406586D01*
X145289095Y-110403592D01*
X145296396Y-110402799D01*
X145323608Y-110402799D01*
X145330909Y-110403592D01*
X145358469Y-110406586D01*
X145358473Y-110406586D01*
X145361868Y-110406955D01*
X145758136Y-110406955D01*
X145761531Y-110406586D01*
X145761535Y-110406586D01*
X145789095Y-110403592D01*
X145796396Y-110402799D01*
X145823608Y-110402799D01*
X145830909Y-110403592D01*
X145858469Y-110406586D01*
X145858473Y-110406586D01*
X145861868Y-110406955D01*
X146258136Y-110406955D01*
X146261531Y-110406586D01*
X146261535Y-110406586D01*
X146289095Y-110403592D01*
X146296396Y-110402799D01*
X146323608Y-110402799D01*
X146330909Y-110403592D01*
X146358469Y-110406586D01*
X146358473Y-110406586D01*
X146361868Y-110406955D01*
X146758136Y-110406955D01*
X146761531Y-110406586D01*
X146761535Y-110406586D01*
X146789095Y-110403592D01*
X146796396Y-110402799D01*
X146823608Y-110402799D01*
X146830909Y-110403592D01*
X146858469Y-110406586D01*
X146858473Y-110406586D01*
X146861868Y-110406955D01*
X147258136Y-110406955D01*
X147261531Y-110406586D01*
X147261535Y-110406586D01*
X147289095Y-110403592D01*
X147296396Y-110402799D01*
X147323608Y-110402799D01*
X147330909Y-110403592D01*
X147358469Y-110406586D01*
X147358473Y-110406586D01*
X147361868Y-110406955D01*
X147758136Y-110406955D01*
X147761531Y-110406586D01*
X147761535Y-110406586D01*
X147789095Y-110403592D01*
X147796396Y-110402799D01*
X147823608Y-110402799D01*
X147830909Y-110403592D01*
X147858469Y-110406586D01*
X147858473Y-110406586D01*
X147861868Y-110406955D01*
X148258136Y-110406955D01*
X148261531Y-110406586D01*
X148261535Y-110406586D01*
X148289095Y-110403592D01*
X148296396Y-110402799D01*
X148323608Y-110402799D01*
X148330909Y-110403592D01*
X148358469Y-110406586D01*
X148358473Y-110406586D01*
X148361868Y-110406955D01*
X148758136Y-110406955D01*
X148798722Y-110402546D01*
X148825935Y-110402546D01*
X148858519Y-110406086D01*
X148865330Y-110406455D01*
X148891887Y-110406455D01*
X148907126Y-110401980D01*
X148929391Y-110376285D01*
X148929920Y-110376743D01*
X148936684Y-110364355D01*
X148956842Y-110349247D01*
X148956708Y-110349069D01*
X148958043Y-110348069D01*
X148984438Y-110328287D01*
X149050945Y-110303440D01*
X149120327Y-110318494D01*
X149135566Y-110328287D01*
X149163296Y-110349069D01*
X149163080Y-110349358D01*
X149209141Y-110395520D01*
X149211355Y-110400873D01*
X149215867Y-110404783D01*
X149223550Y-110406454D01*
X149254672Y-110406454D01*
X149261490Y-110406085D01*
X149294069Y-110402546D01*
X149321282Y-110402546D01*
X149361868Y-110406955D01*
X149758136Y-110406955D01*
X149761531Y-110406586D01*
X149761535Y-110406586D01*
X149789095Y-110403592D01*
X149796396Y-110402799D01*
X149823608Y-110402799D01*
X149830909Y-110403592D01*
X149858469Y-110406586D01*
X149858473Y-110406586D01*
X149861868Y-110406955D01*
X150258136Y-110406955D01*
X150261531Y-110406586D01*
X150261535Y-110406586D01*
X150289095Y-110403592D01*
X150296396Y-110402799D01*
X150323608Y-110402799D01*
X150330909Y-110403592D01*
X150358469Y-110406586D01*
X150358473Y-110406586D01*
X150361868Y-110406955D01*
X150758136Y-110406955D01*
X150761531Y-110406586D01*
X150761535Y-110406586D01*
X150789095Y-110403592D01*
X150796396Y-110402799D01*
X150823608Y-110402799D01*
X150830909Y-110403592D01*
X150858469Y-110406586D01*
X150858473Y-110406586D01*
X150861868Y-110406955D01*
X151258136Y-110406955D01*
X151261531Y-110406586D01*
X151261535Y-110406586D01*
X151289095Y-110403592D01*
X151296396Y-110402799D01*
X151323608Y-110402799D01*
X151330909Y-110403592D01*
X151358469Y-110406586D01*
X151358473Y-110406586D01*
X151361868Y-110406955D01*
X151758136Y-110406955D01*
X151761531Y-110406586D01*
X151761535Y-110406586D01*
X151789095Y-110403592D01*
X151796396Y-110402799D01*
X151823608Y-110402799D01*
X151830909Y-110403592D01*
X151858469Y-110406586D01*
X151858473Y-110406586D01*
X151861868Y-110406955D01*
X152258136Y-110406955D01*
X152261531Y-110406586D01*
X152261535Y-110406586D01*
X152289095Y-110403592D01*
X152296396Y-110402799D01*
X152323608Y-110402799D01*
X152330909Y-110403592D01*
X152358469Y-110406586D01*
X152358473Y-110406586D01*
X152361868Y-110406955D01*
X152758136Y-110406955D01*
X152820318Y-110400200D01*
X152881273Y-110377349D01*
X152952079Y-110372166D01*
X153014448Y-110406086D01*
X153048577Y-110468342D01*
X153051502Y-110495331D01*
X153051502Y-112246589D01*
X153058257Y-112308771D01*
X153109387Y-112445160D01*
X153196741Y-112561716D01*
X153313297Y-112649070D01*
X153449686Y-112700200D01*
X153511868Y-112706955D01*
X155408136Y-112706955D01*
X155470318Y-112700200D01*
X155606707Y-112649070D01*
X155723263Y-112561716D01*
X155810617Y-112445160D01*
X155861747Y-112308771D01*
X155868502Y-112246589D01*
X155868502Y-111126216D01*
X155888504Y-111058095D01*
X155942160Y-111011602D01*
X156012434Y-111001498D01*
X156055200Y-111015800D01*
X156084942Y-111032150D01*
X156092619Y-111034121D01*
X156092624Y-111034123D01*
X156104560Y-111037187D01*
X156123268Y-111043592D01*
X156141857Y-111051636D01*
X156149682Y-111052875D01*
X156149684Y-111052876D01*
X156185521Y-111058552D01*
X156197142Y-111060959D01*
X156228961Y-111069128D01*
X156239972Y-111071955D01*
X156260233Y-111071955D01*
X156279942Y-111073506D01*
X156299945Y-111076674D01*
X156307837Y-111075928D01*
X156313064Y-111075434D01*
X156343956Y-111072514D01*
X156355813Y-111071955D01*
X157241235Y-111071955D01*
X157252418Y-111072482D01*
X157259911Y-111074157D01*
X157267837Y-111073908D01*
X157267838Y-111073908D01*
X157327988Y-111072017D01*
X157331947Y-111071955D01*
X157359858Y-111071955D01*
X157363793Y-111071458D01*
X157363858Y-111071450D01*
X157375695Y-111070517D01*
X157407953Y-111069503D01*
X157411972Y-111069377D01*
X157419891Y-111069128D01*
X157439345Y-111063476D01*
X157458702Y-111059468D01*
X157470932Y-111057923D01*
X157470933Y-111057923D01*
X157478799Y-111056929D01*
X157486170Y-111054010D01*
X157486172Y-111054010D01*
X157519914Y-111040651D01*
X157531144Y-111036806D01*
X157565985Y-111026684D01*
X157565986Y-111026684D01*
X157573595Y-111024473D01*
X157580414Y-111020440D01*
X157580419Y-111020438D01*
X157591030Y-111014162D01*
X157608778Y-111005467D01*
X157627619Y-110998007D01*
X157663389Y-110972019D01*
X157673309Y-110965503D01*
X157704537Y-110947035D01*
X157704540Y-110947033D01*
X157711364Y-110942997D01*
X157725685Y-110928676D01*
X157740719Y-110915835D01*
X157750696Y-110908586D01*
X157757109Y-110903927D01*
X157785300Y-110869850D01*
X157793290Y-110861071D01*
X158674462Y-109979899D01*
X158736774Y-109945873D01*
X158807589Y-109950938D01*
G37*
%TD.AperFunction*%
%TA.AperFunction,Conductor*%
G36*
X163258801Y-101228502D02*
G01*
X163305294Y-101282158D01*
X163316680Y-101334454D01*
X163316690Y-101365958D01*
X163296713Y-101434084D01*
X163243073Y-101480595D01*
X163190691Y-101492000D01*
X163059615Y-101492000D01*
X163044376Y-101496475D01*
X163043171Y-101497865D01*
X163041500Y-101505548D01*
X163041500Y-103089884D01*
X163045975Y-103105123D01*
X163047365Y-103106328D01*
X163055048Y-103107999D01*
X163191332Y-103107999D01*
X163259453Y-103128001D01*
X163305946Y-103181657D01*
X163317332Y-103233955D01*
X163317359Y-103311176D01*
X163317400Y-103428126D01*
X163317400Y-103428911D01*
X163297422Y-103497039D01*
X163243782Y-103543550D01*
X163191400Y-103554955D01*
X162953101Y-103554955D01*
X162884980Y-103534953D01*
X162864006Y-103518050D01*
X162565518Y-103219562D01*
X162531492Y-103157250D01*
X162531492Y-103103686D01*
X162533500Y-103094455D01*
X162533500Y-102234265D01*
X162553502Y-102166144D01*
X162570405Y-102145170D01*
X162576135Y-102139440D01*
X162578615Y-102136243D01*
X162586320Y-102127221D01*
X162601217Y-102111357D01*
X162616586Y-102094991D01*
X162620405Y-102088045D01*
X162620407Y-102088042D01*
X162626348Y-102077236D01*
X162637199Y-102060717D01*
X162642477Y-102053912D01*
X162649614Y-102044711D01*
X162652759Y-102037442D01*
X162652762Y-102037438D01*
X162667174Y-102004133D01*
X162672391Y-101993483D01*
X162693695Y-101954730D01*
X162698733Y-101935107D01*
X162705137Y-101916404D01*
X162710033Y-101905090D01*
X162710033Y-101905089D01*
X162713181Y-101897815D01*
X162714420Y-101889992D01*
X162714423Y-101889982D01*
X162720099Y-101854146D01*
X162722505Y-101842526D01*
X162731528Y-101807381D01*
X162731528Y-101807380D01*
X162733500Y-101799700D01*
X162733500Y-101779446D01*
X162735051Y-101759735D01*
X162736980Y-101747556D01*
X162738220Y-101739727D01*
X162734059Y-101695708D01*
X162733500Y-101683851D01*
X162733500Y-101334500D01*
X162753502Y-101266379D01*
X162807158Y-101219886D01*
X162859500Y-101208500D01*
X163190680Y-101208500D01*
X163258801Y-101228502D01*
G37*
%TD.AperFunction*%
%TA.AperFunction,Conductor*%
G36*
X133338927Y-95767332D02*
G01*
X133338929Y-95767332D01*
X133345113Y-95769129D01*
X133357312Y-95770089D01*
X133378564Y-95771762D01*
X133378577Y-95771763D01*
X133381023Y-95771955D01*
X133569887Y-95771955D01*
X133758980Y-95771954D01*
X133766768Y-95771341D01*
X133788476Y-95769634D01*
X133788479Y-95769633D01*
X133794891Y-95769129D01*
X133801065Y-95767335D01*
X133801072Y-95767334D01*
X133934849Y-95728467D01*
X134005155Y-95728467D01*
X134138927Y-95767332D01*
X134138929Y-95767332D01*
X134145113Y-95769129D01*
X134157312Y-95770089D01*
X134178564Y-95771762D01*
X134178577Y-95771763D01*
X134181023Y-95771955D01*
X134187857Y-95771955D01*
X134410502Y-95771954D01*
X134478622Y-95791956D01*
X134525115Y-95845611D01*
X134536502Y-95897954D01*
X134536502Y-96738375D01*
X134516500Y-96806496D01*
X134461751Y-96853482D01*
X134363250Y-96897337D01*
X134208749Y-97009589D01*
X134080962Y-97151511D01*
X134026963Y-97245039D01*
X133995534Y-97299477D01*
X133985475Y-97316899D01*
X133926460Y-97498527D01*
X133906498Y-97688455D01*
X133907188Y-97695020D01*
X133925269Y-97867048D01*
X133926460Y-97878383D01*
X133985475Y-98060011D01*
X133988778Y-98065733D01*
X133988779Y-98065734D01*
X134008261Y-98099477D01*
X134080962Y-98225399D01*
X134085380Y-98230306D01*
X134085381Y-98230307D01*
X134188435Y-98344760D01*
X134208749Y-98367321D01*
X134262915Y-98406675D01*
X134314385Y-98444070D01*
X134363250Y-98479573D01*
X134369278Y-98482257D01*
X134369280Y-98482258D01*
X134479739Y-98531437D01*
X134537714Y-98557249D01*
X134631115Y-98577102D01*
X134718058Y-98595583D01*
X134718063Y-98595583D01*
X134724515Y-98596955D01*
X134915489Y-98596955D01*
X134921941Y-98595583D01*
X134921946Y-98595583D01*
X135034305Y-98571700D01*
X135105096Y-98577102D01*
X135161729Y-98619919D01*
X135186222Y-98686557D01*
X135186502Y-98694947D01*
X135186502Y-99123861D01*
X135166500Y-99191982D01*
X135149597Y-99212956D01*
X134724946Y-99637607D01*
X134662634Y-99671633D01*
X134591819Y-99666568D01*
X134542215Y-99632823D01*
X134520555Y-99608767D01*
X134431255Y-99509589D01*
X134304565Y-99417543D01*
X134282096Y-99401218D01*
X134282095Y-99401217D01*
X134276754Y-99397337D01*
X134270726Y-99394653D01*
X134270724Y-99394652D01*
X134108321Y-99322346D01*
X134108320Y-99322346D01*
X134102290Y-99319661D01*
X134008890Y-99299808D01*
X133921946Y-99281327D01*
X133921941Y-99281327D01*
X133915489Y-99279955D01*
X133724515Y-99279955D01*
X133718063Y-99281327D01*
X133718058Y-99281327D01*
X133631114Y-99299808D01*
X133537714Y-99319661D01*
X133531684Y-99322346D01*
X133531683Y-99322346D01*
X133369280Y-99394652D01*
X133369278Y-99394653D01*
X133363250Y-99397337D01*
X133357909Y-99401217D01*
X133357908Y-99401218D01*
X133268219Y-99466381D01*
X133208749Y-99509589D01*
X133204334Y-99514492D01*
X133199422Y-99518915D01*
X133198297Y-99517666D01*
X133144988Y-99550506D01*
X133111802Y-99554955D01*
X132748298Y-99554955D01*
X132680177Y-99534953D01*
X132633684Y-99481297D01*
X132623580Y-99411023D01*
X132627301Y-99393802D01*
X132648879Y-99319530D01*
X132648879Y-99319528D01*
X132650676Y-99313344D01*
X132653304Y-99279955D01*
X132653309Y-99279893D01*
X132653310Y-99279880D01*
X132653502Y-99277434D01*
X132653501Y-98899477D01*
X132652888Y-98891689D01*
X132651181Y-98869981D01*
X132651180Y-98869978D01*
X132650676Y-98863566D01*
X132648882Y-98857392D01*
X132648881Y-98857385D01*
X132610014Y-98723608D01*
X132610014Y-98653302D01*
X132648879Y-98519530D01*
X132648879Y-98519528D01*
X132650676Y-98513344D01*
X132652104Y-98495200D01*
X132653309Y-98479893D01*
X132653310Y-98479880D01*
X132653502Y-98477434D01*
X132653501Y-98099477D01*
X132652888Y-98091689D01*
X132651181Y-98069981D01*
X132651180Y-98069978D01*
X132650676Y-98063566D01*
X132648882Y-98057392D01*
X132648881Y-98057385D01*
X132610014Y-97923608D01*
X132610014Y-97853302D01*
X132648879Y-97719530D01*
X132648879Y-97719528D01*
X132650676Y-97713344D01*
X132652635Y-97688455D01*
X132653309Y-97679893D01*
X132653310Y-97679880D01*
X132653502Y-97677434D01*
X132653501Y-97299477D01*
X132650676Y-97263566D01*
X132648882Y-97257392D01*
X132648881Y-97257385D01*
X132610014Y-97123608D01*
X132610014Y-97053302D01*
X132648879Y-96919530D01*
X132648879Y-96919528D01*
X132650676Y-96913344D01*
X132652147Y-96894653D01*
X132653309Y-96879893D01*
X132653310Y-96879880D01*
X132653502Y-96877434D01*
X132653501Y-96499477D01*
X132650676Y-96463566D01*
X132648882Y-96457392D01*
X132648881Y-96457385D01*
X132610014Y-96323608D01*
X132610014Y-96253302D01*
X132648879Y-96119530D01*
X132648879Y-96119528D01*
X132650676Y-96113344D01*
X132651672Y-96100693D01*
X132653309Y-96079893D01*
X132653310Y-96079880D01*
X132653502Y-96077434D01*
X132653501Y-95897955D01*
X132673503Y-95829835D01*
X132727158Y-95783342D01*
X132779500Y-95771955D01*
X132953097Y-95771954D01*
X132958980Y-95771954D01*
X132966768Y-95771341D01*
X132988476Y-95769634D01*
X132988479Y-95769633D01*
X132994891Y-95769129D01*
X133001065Y-95767335D01*
X133001072Y-95767334D01*
X133134849Y-95728467D01*
X133205155Y-95728467D01*
X133338927Y-95767332D01*
G37*
%TD.AperFunction*%
%TA.AperFunction,Conductor*%
G36*
X157787014Y-89712181D02*
G01*
X157793597Y-89718310D01*
X157888195Y-89812908D01*
X157895019Y-89816944D01*
X157895022Y-89816946D01*
X157963075Y-89857192D01*
X158031401Y-89897600D01*
X158059018Y-89905623D01*
X158118852Y-89943834D01*
X158148530Y-90008330D01*
X158138628Y-90078633D01*
X158117504Y-90110927D01*
X158080962Y-90151511D01*
X157985475Y-90316899D01*
X157926460Y-90498527D01*
X157925770Y-90505088D01*
X157925770Y-90505090D01*
X157918956Y-90569927D01*
X157906498Y-90688455D01*
X157907188Y-90695020D01*
X157924248Y-90857334D01*
X157926460Y-90878383D01*
X157985475Y-91060011D01*
X158080962Y-91225399D01*
X158085377Y-91230302D01*
X158124205Y-91273425D01*
X158154922Y-91337433D01*
X158151565Y-91392887D01*
X158146151Y-91411524D01*
X158139440Y-91434624D01*
X158138936Y-91441029D01*
X158138935Y-91441034D01*
X158137394Y-91460620D01*
X158136502Y-91471953D01*
X158136502Y-91904957D01*
X158136695Y-91907405D01*
X158136695Y-91907413D01*
X158138856Y-91934862D01*
X158139440Y-91942286D01*
X158185857Y-92102056D01*
X158189894Y-92108882D01*
X158266511Y-92238435D01*
X158266513Y-92238438D01*
X158270549Y-92245262D01*
X158388195Y-92362908D01*
X158395019Y-92366944D01*
X158395022Y-92366946D01*
X158458450Y-92404457D01*
X158531401Y-92447600D01*
X158539012Y-92449811D01*
X158539014Y-92449812D01*
X158591233Y-92464983D01*
X158691171Y-92494017D01*
X158697576Y-92494521D01*
X158697581Y-92494522D01*
X158726044Y-92496762D01*
X158726052Y-92496762D01*
X158728500Y-92496955D01*
X160036504Y-92496955D01*
X160038952Y-92496762D01*
X160038960Y-92496762D01*
X160067423Y-92494522D01*
X160067428Y-92494521D01*
X160073833Y-92494017D01*
X160173771Y-92464983D01*
X160225990Y-92449812D01*
X160225992Y-92449811D01*
X160233603Y-92447600D01*
X160310705Y-92402002D01*
X160374844Y-92384455D01*
X161385502Y-92384455D01*
X161453623Y-92404457D01*
X161500116Y-92458113D01*
X161511502Y-92510455D01*
X161511502Y-92766455D01*
X161491500Y-92834576D01*
X161437844Y-92881069D01*
X161385502Y-92892455D01*
X160033124Y-92892455D01*
X160019593Y-92896428D01*
X160018458Y-92904326D01*
X160059109Y-93044245D01*
X160065354Y-93058676D01*
X160141913Y-93188133D01*
X160151553Y-93200559D01*
X160190854Y-93239860D01*
X160224880Y-93302172D01*
X160219815Y-93372987D01*
X160177268Y-93429823D01*
X160110748Y-93454634D01*
X160101759Y-93454955D01*
X160021270Y-93454955D01*
X160018024Y-93455292D01*
X160018020Y-93455292D01*
X159983919Y-93458830D01*
X159918983Y-93465568D01*
X159912442Y-93467750D01*
X159912443Y-93467750D01*
X159763678Y-93517382D01*
X159763676Y-93517383D01*
X159756734Y-93519699D01*
X159611289Y-93609703D01*
X159490450Y-93730753D01*
X159486610Y-93736983D01*
X159486609Y-93736984D01*
X159432678Y-93824477D01*
X159400700Y-93876354D01*
X159346853Y-94038698D01*
X159336502Y-94139723D01*
X159336502Y-94737187D01*
X159347115Y-94839474D01*
X159349297Y-94846014D01*
X159396009Y-94986025D01*
X159401246Y-95001723D01*
X159469908Y-95112679D01*
X159488744Y-95181129D01*
X159470538Y-95244251D01*
X159394530Y-95369756D01*
X159392259Y-95377003D01*
X159392258Y-95377005D01*
X159371485Y-95443291D01*
X159343249Y-95533393D01*
X159336502Y-95606820D01*
X159336502Y-95609718D01*
X159336503Y-95939315D01*
X159336503Y-96270089D01*
X159336766Y-96272947D01*
X159336766Y-96272956D01*
X159337736Y-96283512D01*
X159343249Y-96343517D01*
X159345248Y-96349895D01*
X159345248Y-96349896D01*
X159391352Y-96497012D01*
X159394530Y-96507154D01*
X159483363Y-96653836D01*
X159574597Y-96745070D01*
X159608623Y-96807382D01*
X159611502Y-96834165D01*
X159611502Y-97251954D01*
X159591500Y-97320075D01*
X159537844Y-97366568D01*
X159467570Y-97376672D01*
X159434254Y-97367061D01*
X159333825Y-97322347D01*
X159333817Y-97322344D01*
X159327790Y-97319661D01*
X159232832Y-97299477D01*
X159147446Y-97281327D01*
X159147441Y-97281327D01*
X159140989Y-97279955D01*
X158950015Y-97279955D01*
X158943563Y-97281327D01*
X158943558Y-97281327D01*
X158858172Y-97299477D01*
X158763214Y-97319661D01*
X158757184Y-97322346D01*
X158757183Y-97322346D01*
X158594780Y-97394652D01*
X158594778Y-97394653D01*
X158588750Y-97397337D01*
X158583409Y-97401217D01*
X158583408Y-97401218D01*
X158514451Y-97451318D01*
X158447583Y-97475177D01*
X158378824Y-97458841D01*
X158376754Y-97457337D01*
X158370726Y-97454653D01*
X158370724Y-97454652D01*
X158208321Y-97382346D01*
X158208320Y-97382346D01*
X158202290Y-97379661D01*
X158108889Y-97359808D01*
X158021946Y-97341327D01*
X158021941Y-97341327D01*
X158015489Y-97339955D01*
X157824515Y-97339955D01*
X157818063Y-97341327D01*
X157818058Y-97341327D01*
X157730699Y-97359896D01*
X157659908Y-97354494D01*
X157603275Y-97311677D01*
X157578782Y-97245039D01*
X157578502Y-97236649D01*
X157578502Y-89807405D01*
X157598504Y-89739284D01*
X157652160Y-89692791D01*
X157722434Y-89682687D01*
X157787014Y-89712181D01*
G37*
%TD.AperFunction*%
%TA.AperFunction,Conductor*%
G36*
X128891123Y-93746957D02*
G01*
X128937616Y-93800613D01*
X128949002Y-93852955D01*
X128949002Y-94377340D01*
X128953476Y-94392579D01*
X128961514Y-94399543D01*
X128999898Y-94459269D01*
X129005002Y-94494768D01*
X129005002Y-94958955D01*
X128985000Y-95027076D01*
X128931344Y-95073569D01*
X128879002Y-95084955D01*
X128563630Y-95084955D01*
X128495509Y-95064953D01*
X128449016Y-95011297D01*
X128438912Y-94941023D01*
X128440510Y-94932170D01*
X128441002Y-94929908D01*
X128441002Y-93852955D01*
X128461004Y-93784834D01*
X128514660Y-93738341D01*
X128567002Y-93726955D01*
X128823002Y-93726955D01*
X128891123Y-93746957D01*
G37*
%TD.AperFunction*%
%TA.AperFunction,Conductor*%
G36*
X138278527Y-92841957D02*
G01*
X138299501Y-92858860D01*
X138480501Y-93039860D01*
X138514527Y-93102172D01*
X138509462Y-93172987D01*
X138466915Y-93229823D01*
X138400395Y-93254634D01*
X138391407Y-93254955D01*
X138186523Y-93254956D01*
X138181024Y-93254956D01*
X138173236Y-93255569D01*
X138151528Y-93257276D01*
X138151525Y-93257277D01*
X138145113Y-93257781D01*
X138138939Y-93259575D01*
X138138932Y-93259576D01*
X138005155Y-93298443D01*
X137934849Y-93298443D01*
X137801077Y-93259578D01*
X137801075Y-93259578D01*
X137794891Y-93257781D01*
X137782240Y-93256785D01*
X137761440Y-93255148D01*
X137761427Y-93255147D01*
X137758981Y-93254955D01*
X137570117Y-93254955D01*
X137381024Y-93254956D01*
X137373236Y-93255569D01*
X137351528Y-93257276D01*
X137351525Y-93257277D01*
X137345113Y-93257781D01*
X137338939Y-93259575D01*
X137338932Y-93259576D01*
X137205155Y-93298443D01*
X137134849Y-93298443D01*
X137001077Y-93259578D01*
X137001075Y-93259578D01*
X136994891Y-93257781D01*
X136982240Y-93256785D01*
X136961440Y-93255148D01*
X136961427Y-93255147D01*
X136958981Y-93254955D01*
X136770117Y-93254955D01*
X136581024Y-93254956D01*
X136573236Y-93255569D01*
X136551528Y-93257276D01*
X136551525Y-93257277D01*
X136545113Y-93257781D01*
X136538939Y-93259575D01*
X136538932Y-93259576D01*
X136404259Y-93298703D01*
X136333953Y-93298703D01*
X136237397Y-93270651D01*
X136223297Y-93270691D01*
X136220002Y-93277961D01*
X136220002Y-93365360D01*
X136200000Y-93433481D01*
X136183097Y-93454455D01*
X136140460Y-93497092D01*
X136136427Y-93503912D01*
X136136426Y-93503913D01*
X136078456Y-93601936D01*
X136026563Y-93650389D01*
X135956713Y-93663094D01*
X135891081Y-93636019D01*
X135861548Y-93601936D01*
X135821048Y-93533454D01*
X135803502Y-93469315D01*
X135803502Y-93148024D01*
X135823504Y-93079903D01*
X135840407Y-93058928D01*
X136040477Y-92858859D01*
X136102789Y-92824834D01*
X136129572Y-92821955D01*
X138210406Y-92821955D01*
X138278527Y-92841957D01*
G37*
%TD.AperFunction*%
%TA.AperFunction,Conductor*%
G36*
X132379125Y-90953502D02*
G01*
X132425618Y-91007158D01*
X132435722Y-91077432D01*
X132406228Y-91142012D01*
X132362252Y-91174607D01*
X132320465Y-91193211D01*
X132320458Y-91193215D01*
X132314432Y-91195898D01*
X132309091Y-91199778D01*
X132309090Y-91199779D01*
X132267079Y-91230302D01*
X132159931Y-91308150D01*
X132155518Y-91313051D01*
X132155516Y-91313053D01*
X132110304Y-91363266D01*
X132049858Y-91400505D01*
X132016668Y-91404955D01*
X131893828Y-91404955D01*
X131825707Y-91384953D01*
X131779214Y-91331297D01*
X131767828Y-91278955D01*
X131767828Y-91059500D01*
X131787830Y-90991379D01*
X131841486Y-90944886D01*
X131893828Y-90933500D01*
X132311004Y-90933500D01*
X132379125Y-90953502D01*
G37*
%TD.AperFunction*%
%TA.AperFunction,Conductor*%
G36*
X133796121Y-90853502D02*
G01*
X133842614Y-90907158D01*
X133854000Y-90959500D01*
X133854000Y-91215500D01*
X133833998Y-91283621D01*
X133780342Y-91330114D01*
X133728000Y-91341500D01*
X133466811Y-91341500D01*
X133398690Y-91321498D01*
X133385139Y-91311151D01*
X133382437Y-91308150D01*
X133275289Y-91230302D01*
X133233278Y-91199779D01*
X133233277Y-91199778D01*
X133227936Y-91195898D01*
X133221908Y-91193214D01*
X133221906Y-91193213D01*
X133059503Y-91120907D01*
X133059502Y-91120907D01*
X133053472Y-91118222D01*
X132886576Y-91082747D01*
X132824103Y-91049018D01*
X132789781Y-90986869D01*
X132794509Y-90916030D01*
X132836785Y-90858992D01*
X132903186Y-90833865D01*
X132912773Y-90833500D01*
X133728000Y-90833500D01*
X133796121Y-90853502D01*
G37*
%TD.AperFunction*%
%TA.AperFunction,Conductor*%
G36*
X162823528Y-88841957D02*
G01*
X162844503Y-88858860D01*
X163275666Y-89290024D01*
X163309691Y-89352336D01*
X163312570Y-89379075D01*
X163312639Y-89578911D01*
X163292660Y-89647039D01*
X163239021Y-89693551D01*
X163186639Y-89704955D01*
X162974515Y-89704955D01*
X162974513Y-89704956D01*
X162738368Y-89704956D01*
X162735510Y-89705219D01*
X162735501Y-89705219D01*
X162699998Y-89708481D01*
X162664940Y-89711702D01*
X162658562Y-89713701D01*
X162658561Y-89713701D01*
X162508552Y-89760711D01*
X162508550Y-89760712D01*
X162501303Y-89762983D01*
X162354621Y-89851816D01*
X162251122Y-89955315D01*
X162188810Y-89989341D01*
X162113090Y-89981964D01*
X162108603Y-89979310D01*
X162100992Y-89977099D01*
X162100990Y-89977098D01*
X162048771Y-89961927D01*
X161948833Y-89932893D01*
X161942428Y-89932389D01*
X161942423Y-89932388D01*
X161913960Y-89930148D01*
X161913952Y-89930148D01*
X161911504Y-89929955D01*
X160603500Y-89929955D01*
X160601052Y-89930148D01*
X160601044Y-89930148D01*
X160572581Y-89932388D01*
X160572576Y-89932389D01*
X160566171Y-89932893D01*
X160466233Y-89961927D01*
X160414014Y-89977098D01*
X160414012Y-89977099D01*
X160406401Y-89979310D01*
X160399574Y-89983347D01*
X160399575Y-89983347D01*
X160270022Y-90059964D01*
X160270019Y-90059966D01*
X160263195Y-90064002D01*
X160145549Y-90181648D01*
X160141513Y-90188472D01*
X160141511Y-90188475D01*
X160128026Y-90211277D01*
X160060857Y-90324854D01*
X160014440Y-90484624D01*
X160013936Y-90491029D01*
X160013935Y-90491034D01*
X160011695Y-90519497D01*
X160011502Y-90521953D01*
X160011502Y-90679861D01*
X159991500Y-90747982D01*
X159937844Y-90794475D01*
X159867570Y-90804579D01*
X159802990Y-90775085D01*
X159796407Y-90768956D01*
X159767124Y-90739673D01*
X159733098Y-90677361D01*
X159730909Y-90663748D01*
X159714234Y-90505090D01*
X159714234Y-90505088D01*
X159713544Y-90498527D01*
X159654529Y-90316899D01*
X159559042Y-90151511D01*
X159548421Y-90139715D01*
X159517704Y-90075707D01*
X159526469Y-90005254D01*
X159571933Y-89950723D01*
X159606905Y-89934409D01*
X159725990Y-89899812D01*
X159725992Y-89899811D01*
X159733603Y-89897600D01*
X159801929Y-89857192D01*
X159869982Y-89816946D01*
X159869985Y-89816944D01*
X159876809Y-89812908D01*
X159994455Y-89695262D01*
X159998491Y-89688438D01*
X159998493Y-89688435D01*
X160075110Y-89558882D01*
X160079147Y-89552056D01*
X160125564Y-89392286D01*
X160128502Y-89354957D01*
X160128502Y-89122955D01*
X160148504Y-89054834D01*
X160202160Y-89008341D01*
X160254502Y-88996955D01*
X161411504Y-88996955D01*
X161413952Y-88996762D01*
X161413960Y-88996762D01*
X161442423Y-88994522D01*
X161442428Y-88994521D01*
X161448833Y-88994017D01*
X161548771Y-88964983D01*
X161600990Y-88949812D01*
X161600992Y-88949811D01*
X161608603Y-88947600D01*
X161652688Y-88921528D01*
X161744982Y-88866946D01*
X161744985Y-88866944D01*
X161751809Y-88862908D01*
X161757417Y-88857300D01*
X161763677Y-88852444D01*
X161764846Y-88853951D01*
X161818169Y-88824834D01*
X161844952Y-88821955D01*
X162755407Y-88821955D01*
X162823528Y-88841957D01*
G37*
%TD.AperFunction*%
%TA.AperFunction,Conductor*%
G36*
X137387717Y-82616957D02*
G01*
X137434210Y-82670613D01*
X137437255Y-82678343D01*
X137438246Y-82680458D01*
X137440562Y-82687401D01*
X137444411Y-82693621D01*
X137444412Y-82693623D01*
X137466276Y-82728955D01*
X137533633Y-82837804D01*
X137658809Y-82962761D01*
X137809373Y-83055570D01*
X137870832Y-83075955D01*
X137970722Y-83109087D01*
X137970724Y-83109087D01*
X137977250Y-83111252D01*
X137984086Y-83111952D01*
X137984089Y-83111953D01*
X138027142Y-83116364D01*
X138081711Y-83121955D01*
X138375352Y-83121955D01*
X138443473Y-83141957D01*
X138489966Y-83195613D01*
X138500662Y-83234784D01*
X138506458Y-83289928D01*
X138565473Y-83471556D01*
X138660960Y-83636944D01*
X138734137Y-83718215D01*
X138764853Y-83782221D01*
X138766500Y-83802524D01*
X138766500Y-83921233D01*
X138765973Y-83932416D01*
X138764298Y-83939909D01*
X138764547Y-83947835D01*
X138764547Y-83947836D01*
X138766438Y-84007986D01*
X138766500Y-84011945D01*
X138766500Y-84039856D01*
X138766997Y-84043790D01*
X138766997Y-84043791D01*
X138767005Y-84043856D01*
X138767938Y-84055693D01*
X138769327Y-84099889D01*
X138773078Y-84112799D01*
X138774978Y-84119339D01*
X138778987Y-84138700D01*
X138779734Y-84144609D01*
X138781526Y-84158797D01*
X138784445Y-84166168D01*
X138784445Y-84166170D01*
X138797804Y-84199912D01*
X138801649Y-84211142D01*
X138813982Y-84253593D01*
X138818015Y-84260412D01*
X138818017Y-84260417D01*
X138824293Y-84271028D01*
X138832988Y-84288776D01*
X138840448Y-84307617D01*
X138845110Y-84314033D01*
X138845110Y-84314034D01*
X138866436Y-84343387D01*
X138872952Y-84353307D01*
X138895458Y-84391362D01*
X138909779Y-84405683D01*
X138922619Y-84420716D01*
X138934528Y-84437107D01*
X138940634Y-84442158D01*
X138968605Y-84465298D01*
X138977384Y-84473288D01*
X139296343Y-84792247D01*
X139303887Y-84800537D01*
X139308000Y-84807018D01*
X139313777Y-84812443D01*
X139357667Y-84853658D01*
X139360509Y-84856413D01*
X139380230Y-84876134D01*
X139383425Y-84878612D01*
X139392447Y-84886318D01*
X139424679Y-84916586D01*
X139431628Y-84920406D01*
X139442432Y-84926346D01*
X139458956Y-84937199D01*
X139474959Y-84949613D01*
X139515543Y-84967176D01*
X139526173Y-84972383D01*
X139564940Y-84993695D01*
X139572617Y-84995666D01*
X139572622Y-84995668D01*
X139584558Y-84998732D01*
X139603266Y-85005137D01*
X139621855Y-85013181D01*
X139629680Y-85014420D01*
X139629682Y-85014421D01*
X139665519Y-85020097D01*
X139677140Y-85022504D01*
X139712289Y-85031528D01*
X139719970Y-85033500D01*
X139735502Y-85033500D01*
X139803623Y-85053502D01*
X139850116Y-85107158D01*
X139861502Y-85159500D01*
X139861502Y-86440500D01*
X139841500Y-86508621D01*
X139787844Y-86555114D01*
X139735502Y-86566500D01*
X138978768Y-86566500D01*
X138967585Y-86565973D01*
X138960092Y-86564298D01*
X138952166Y-86564547D01*
X138952165Y-86564547D01*
X138892002Y-86566438D01*
X138888044Y-86566500D01*
X138860144Y-86566500D01*
X138856154Y-86567004D01*
X138844320Y-86567936D01*
X138800111Y-86569326D01*
X138792495Y-86571539D01*
X138792493Y-86571539D01*
X138780652Y-86574979D01*
X138761293Y-86578988D01*
X138759983Y-86579154D01*
X138741203Y-86581526D01*
X138733837Y-86584442D01*
X138733831Y-86584444D01*
X138700098Y-86597800D01*
X138688868Y-86601645D01*
X138679936Y-86604240D01*
X138646407Y-86613981D01*
X138639584Y-86618016D01*
X138628966Y-86624295D01*
X138611213Y-86632992D01*
X138603568Y-86636019D01*
X138592383Y-86640448D01*
X138585968Y-86645109D01*
X138556612Y-86666437D01*
X138546695Y-86672951D01*
X138508638Y-86695458D01*
X138494317Y-86709779D01*
X138479284Y-86722619D01*
X138462893Y-86734528D01*
X138457843Y-86740632D01*
X138457838Y-86740637D01*
X138434707Y-86768598D01*
X138426717Y-86777379D01*
X137949499Y-87254596D01*
X137887187Y-87288621D01*
X137860404Y-87291500D01*
X137804513Y-87291500D01*
X137798061Y-87292872D01*
X137798056Y-87292872D01*
X137730420Y-87307249D01*
X137617712Y-87331206D01*
X137611682Y-87333891D01*
X137611681Y-87333891D01*
X137449278Y-87406197D01*
X137449276Y-87406198D01*
X137443248Y-87408882D01*
X137437907Y-87412762D01*
X137437906Y-87412763D01*
X137415131Y-87429310D01*
X137288747Y-87521134D01*
X137284326Y-87526044D01*
X137284325Y-87526045D01*
X137228397Y-87588160D01*
X137160960Y-87663056D01*
X137119018Y-87735702D01*
X137069046Y-87822256D01*
X137065473Y-87828444D01*
X137006458Y-88010072D01*
X137005768Y-88016633D01*
X137005768Y-88016635D01*
X136994063Y-88128000D01*
X136986496Y-88200000D01*
X136987186Y-88206565D01*
X136997212Y-88301953D01*
X137006458Y-88389928D01*
X137065473Y-88571556D01*
X137160960Y-88736944D01*
X137165378Y-88741851D01*
X137165379Y-88741852D01*
X137274378Y-88862908D01*
X137288747Y-88878866D01*
X137443248Y-88991118D01*
X137449276Y-88993802D01*
X137449278Y-88993803D01*
X137586357Y-89054834D01*
X137617712Y-89068794D01*
X137711113Y-89088647D01*
X137798056Y-89107128D01*
X137798061Y-89107128D01*
X137804513Y-89108500D01*
X137995487Y-89108500D01*
X137998586Y-89107841D01*
X138067171Y-89120385D01*
X138119017Y-89168887D01*
X138136502Y-89232922D01*
X138136502Y-89923860D01*
X138116500Y-89991981D01*
X138099597Y-90012955D01*
X137682957Y-90429595D01*
X137620645Y-90463621D01*
X137593862Y-90466500D01*
X135118314Y-90466500D01*
X135107131Y-90465973D01*
X135099638Y-90464298D01*
X135091712Y-90464547D01*
X135091711Y-90464547D01*
X135031548Y-90466438D01*
X135027590Y-90466500D01*
X134999690Y-90466500D01*
X134995700Y-90467004D01*
X134983866Y-90467936D01*
X134939657Y-90469326D01*
X134932043Y-90471538D01*
X134932038Y-90471539D01*
X134920205Y-90474977D01*
X134900842Y-90478988D01*
X134880749Y-90481526D01*
X134873382Y-90484443D01*
X134873377Y-90484444D01*
X134839638Y-90497802D01*
X134828411Y-90501646D01*
X134785953Y-90513982D01*
X134779127Y-90518019D01*
X134768518Y-90524293D01*
X134750770Y-90532988D01*
X134731929Y-90540448D01*
X134725513Y-90545110D01*
X134725512Y-90545110D01*
X134696159Y-90566436D01*
X134686242Y-90572950D01*
X134676608Y-90578648D01*
X134607792Y-90596110D01*
X134540460Y-90573596D01*
X134505320Y-90536500D01*
X134433525Y-90420480D01*
X134424494Y-90409085D01*
X134404842Y-90389467D01*
X134370763Y-90327184D01*
X134375766Y-90256364D01*
X134404686Y-90211277D01*
X134425692Y-90190234D01*
X134430864Y-90185053D01*
X134451540Y-90151511D01*
X134471113Y-90119756D01*
X134519849Y-90040692D01*
X134529113Y-90012763D01*
X134571072Y-89886262D01*
X134571072Y-89886260D01*
X134573238Y-89879731D01*
X134583500Y-89779572D01*
X134583500Y-89245428D01*
X134582203Y-89232922D01*
X134573689Y-89150874D01*
X134572978Y-89144018D01*
X134519308Y-88983151D01*
X134430071Y-88838945D01*
X134424894Y-88833777D01*
X134424890Y-88833772D01*
X134415956Y-88824854D01*
X134381875Y-88762572D01*
X134386877Y-88691752D01*
X134429374Y-88634879D01*
X134459549Y-88620371D01*
X134458798Y-88618474D01*
X134499912Y-88602196D01*
X134511142Y-88598351D01*
X134545983Y-88588229D01*
X134545984Y-88588229D01*
X134553593Y-88586018D01*
X134560412Y-88581985D01*
X134560417Y-88581983D01*
X134571028Y-88575707D01*
X134588776Y-88567012D01*
X134607617Y-88559552D01*
X134643387Y-88533564D01*
X134653307Y-88527048D01*
X134684535Y-88508580D01*
X134684538Y-88508578D01*
X134691362Y-88504542D01*
X134705683Y-88490221D01*
X134720717Y-88477380D01*
X134730694Y-88470131D01*
X134737107Y-88465472D01*
X134765298Y-88431395D01*
X134773288Y-88422616D01*
X135425499Y-87770405D01*
X135487811Y-87736379D01*
X135514594Y-87733500D01*
X136194172Y-87733500D01*
X136205355Y-87734027D01*
X136212848Y-87735702D01*
X136220774Y-87735453D01*
X136220775Y-87735453D01*
X136280925Y-87733562D01*
X136284884Y-87733500D01*
X136312795Y-87733500D01*
X136316730Y-87733003D01*
X136316795Y-87732995D01*
X136328632Y-87732062D01*
X136360890Y-87731048D01*
X136364909Y-87730922D01*
X136372828Y-87730673D01*
X136392282Y-87725021D01*
X136411639Y-87721013D01*
X136423869Y-87719468D01*
X136423870Y-87719468D01*
X136431736Y-87718474D01*
X136439107Y-87715555D01*
X136439109Y-87715555D01*
X136472851Y-87702196D01*
X136484081Y-87698351D01*
X136518922Y-87688229D01*
X136518923Y-87688229D01*
X136526532Y-87686018D01*
X136533351Y-87681985D01*
X136533356Y-87681983D01*
X136543967Y-87675707D01*
X136561715Y-87667012D01*
X136580556Y-87659552D01*
X136587166Y-87654750D01*
X136616326Y-87633564D01*
X136626246Y-87627048D01*
X136657474Y-87608580D01*
X136657477Y-87608578D01*
X136664301Y-87604542D01*
X136678622Y-87590221D01*
X136693656Y-87577380D01*
X136703633Y-87570131D01*
X136710046Y-87565472D01*
X136715097Y-87559367D01*
X136715102Y-87559362D01*
X136738238Y-87531396D01*
X136746226Y-87522618D01*
X137492253Y-86776591D01*
X137500539Y-86769051D01*
X137507018Y-86764939D01*
X137553644Y-86715287D01*
X137556398Y-86712446D01*
X137576135Y-86692709D01*
X137578615Y-86689512D01*
X137586320Y-86680490D01*
X137600671Y-86665208D01*
X137616586Y-86648260D01*
X137620405Y-86641314D01*
X137620407Y-86641311D01*
X137626348Y-86630505D01*
X137637199Y-86613986D01*
X137644758Y-86604240D01*
X137649614Y-86597980D01*
X137652759Y-86590711D01*
X137652762Y-86590707D01*
X137667174Y-86557402D01*
X137672391Y-86546752D01*
X137693695Y-86507999D01*
X137698733Y-86488376D01*
X137705137Y-86469673D01*
X137710033Y-86458359D01*
X137710033Y-86458358D01*
X137713181Y-86451084D01*
X137714420Y-86443261D01*
X137714423Y-86443251D01*
X137720099Y-86407415D01*
X137722505Y-86395795D01*
X137731528Y-86360650D01*
X137731528Y-86360649D01*
X137733500Y-86352969D01*
X137733500Y-86332715D01*
X137735051Y-86313004D01*
X137736980Y-86300825D01*
X137738220Y-86292996D01*
X137734059Y-86248977D01*
X137733500Y-86237120D01*
X137733500Y-86214594D01*
X137753502Y-86146473D01*
X137770405Y-86125499D01*
X137897182Y-85998722D01*
X137915453Y-85983606D01*
X137915710Y-85983431D01*
X137922271Y-85978972D01*
X137935457Y-85964016D01*
X137959418Y-85936837D01*
X137964837Y-85931067D01*
X137976134Y-85919770D01*
X137978559Y-85916644D01*
X137978564Y-85916638D01*
X137985926Y-85907146D01*
X137990975Y-85901043D01*
X138022876Y-85864859D01*
X138022879Y-85864855D01*
X138028120Y-85858910D01*
X138031865Y-85851561D01*
X138044565Y-85831549D01*
X138044757Y-85831302D01*
X138044758Y-85831301D01*
X138049613Y-85825041D01*
X138071911Y-85773513D01*
X138075281Y-85766352D01*
X138097185Y-85723362D01*
X138097186Y-85723360D01*
X138100785Y-85716296D01*
X138102583Y-85708251D01*
X138109909Y-85685706D01*
X138110032Y-85685421D01*
X138113181Y-85678145D01*
X138121141Y-85627886D01*
X138121967Y-85622674D01*
X138123450Y-85614901D01*
X138124061Y-85612169D01*
X138135702Y-85560091D01*
X138135443Y-85551850D01*
X138136932Y-85528182D01*
X138136979Y-85527885D01*
X138138219Y-85520057D01*
X138136908Y-85506191D01*
X138132935Y-85464153D01*
X138132438Y-85456255D01*
X138130922Y-85408030D01*
X138130922Y-85408029D01*
X138130673Y-85400110D01*
X138128373Y-85392193D01*
X138123934Y-85368919D01*
X138123904Y-85368605D01*
X138123903Y-85368601D01*
X138123157Y-85360708D01*
X138104128Y-85307852D01*
X138101688Y-85300342D01*
X138088229Y-85254016D01*
X138088228Y-85254014D01*
X138086018Y-85246407D01*
X138081982Y-85239581D01*
X138081826Y-85239318D01*
X138071731Y-85217864D01*
X138071627Y-85217576D01*
X138071626Y-85217573D01*
X138068939Y-85210111D01*
X138037371Y-85163661D01*
X138033129Y-85156976D01*
X138008579Y-85115463D01*
X138008578Y-85115462D01*
X138004542Y-85108637D01*
X137998717Y-85102812D01*
X137983602Y-85084542D01*
X137983429Y-85084287D01*
X137983426Y-85084283D01*
X137978972Y-85077730D01*
X137973030Y-85072491D01*
X137973027Y-85072488D01*
X137936853Y-85040597D01*
X137931083Y-85035178D01*
X137627122Y-84731217D01*
X137593096Y-84668905D01*
X137590907Y-84655292D01*
X137574232Y-84496635D01*
X137574232Y-84496633D01*
X137573542Y-84490072D01*
X137514527Y-84308444D01*
X137419040Y-84143056D01*
X137411814Y-84135030D01*
X137295675Y-84006045D01*
X137295674Y-84006044D01*
X137291253Y-84001134D01*
X137176032Y-83917421D01*
X137142094Y-83892763D01*
X137142093Y-83892762D01*
X137136752Y-83888882D01*
X137130724Y-83886198D01*
X137130722Y-83886197D01*
X136968319Y-83813891D01*
X136968318Y-83813891D01*
X136962288Y-83811206D01*
X136908936Y-83799866D01*
X136846464Y-83766138D01*
X136812142Y-83703988D01*
X136816870Y-83633149D01*
X136826011Y-83613627D01*
X136844527Y-83581556D01*
X136903542Y-83399928D01*
X136914444Y-83296206D01*
X136922814Y-83216565D01*
X136923504Y-83210000D01*
X136918780Y-83165051D01*
X136904232Y-83026635D01*
X136904232Y-83026633D01*
X136903542Y-83020072D01*
X136844527Y-82838444D01*
X136814221Y-82785953D01*
X136797484Y-82716961D01*
X136820704Y-82649869D01*
X136876511Y-82605981D01*
X136923341Y-82596955D01*
X137319596Y-82596955D01*
X137387717Y-82616957D01*
G37*
%TD.AperFunction*%
%TA.AperFunction,Conductor*%
G36*
X129496874Y-85277891D02*
G01*
X129540658Y-85307674D01*
X129541320Y-85306938D01*
X129546222Y-85311351D01*
X129550644Y-85316263D01*
X129626167Y-85371134D01*
X129679955Y-85410213D01*
X129705145Y-85428515D01*
X129711172Y-85431198D01*
X129711180Y-85431203D01*
X129734611Y-85441635D01*
X129788706Y-85487615D01*
X129809355Y-85555543D01*
X129790002Y-85623851D01*
X129749661Y-85663887D01*
X129745484Y-85666472D01*
X129734085Y-85675506D01*
X129624702Y-85785080D01*
X129615690Y-85796491D01*
X129534447Y-85928291D01*
X129528303Y-85941468D01*
X129479421Y-86088843D01*
X129476555Y-86102210D01*
X129467328Y-86192270D01*
X129467000Y-86198685D01*
X129467000Y-86227885D01*
X129471475Y-86243124D01*
X129472865Y-86244329D01*
X129480548Y-86246000D01*
X130440500Y-86246000D01*
X130508621Y-86266002D01*
X130555114Y-86319658D01*
X130566500Y-86372000D01*
X130566500Y-87146233D01*
X130565973Y-87157416D01*
X130564298Y-87164909D01*
X130564547Y-87172835D01*
X130564547Y-87172836D01*
X130566438Y-87232986D01*
X130566500Y-87236945D01*
X130566500Y-87264856D01*
X130566997Y-87268790D01*
X130566997Y-87268791D01*
X130567005Y-87268856D01*
X130567938Y-87280693D01*
X130569327Y-87324889D01*
X130574978Y-87344339D01*
X130578987Y-87363700D01*
X130581526Y-87383797D01*
X130584445Y-87391168D01*
X130584445Y-87391170D01*
X130597804Y-87424912D01*
X130601649Y-87436142D01*
X130613982Y-87478593D01*
X130618015Y-87485412D01*
X130618017Y-87485417D01*
X130624293Y-87496028D01*
X130632988Y-87513776D01*
X130640448Y-87532617D01*
X130645111Y-87539035D01*
X130645113Y-87539039D01*
X130654937Y-87552561D01*
X130679000Y-87626620D01*
X130679000Y-88128000D01*
X130658998Y-88196121D01*
X130605342Y-88242614D01*
X130553000Y-88254000D01*
X129485115Y-88254000D01*
X129469876Y-88258475D01*
X129468671Y-88259865D01*
X129467000Y-88267548D01*
X129467000Y-88295438D01*
X129467337Y-88301953D01*
X129476894Y-88394057D01*
X129479788Y-88407456D01*
X129529381Y-88556107D01*
X129535555Y-88569285D01*
X129604619Y-88680892D01*
X129623457Y-88749344D01*
X129604736Y-88813309D01*
X129530151Y-88934308D01*
X129527846Y-88941256D01*
X129527846Y-88941257D01*
X129510942Y-88992222D01*
X129476762Y-89095269D01*
X129466500Y-89195428D01*
X129466500Y-89804572D01*
X129466837Y-89807818D01*
X129466837Y-89807822D01*
X129477022Y-89905982D01*
X129474922Y-89906200D01*
X129470483Y-89966920D01*
X129427846Y-90023688D01*
X129361287Y-90048394D01*
X129291937Y-90033193D01*
X129278445Y-90024643D01*
X129256752Y-90008882D01*
X129250724Y-90006198D01*
X129250722Y-90006197D01*
X129088319Y-89933891D01*
X129088318Y-89933891D01*
X129082288Y-89931206D01*
X128964645Y-89906200D01*
X128901944Y-89892872D01*
X128901939Y-89892872D01*
X128895487Y-89891500D01*
X128704513Y-89891500D01*
X128698061Y-89892872D01*
X128698056Y-89892872D01*
X128635355Y-89906200D01*
X128517712Y-89931206D01*
X128511682Y-89933891D01*
X128511681Y-89933891D01*
X128349278Y-90006197D01*
X128349276Y-90006198D01*
X128343248Y-90008882D01*
X128337909Y-90012761D01*
X128337906Y-90012763D01*
X128311441Y-90031991D01*
X128188747Y-90121134D01*
X128184326Y-90126044D01*
X128184325Y-90126045D01*
X128157946Y-90155342D01*
X128097500Y-90192582D01*
X128026516Y-90191230D01*
X127967532Y-90151717D01*
X127939274Y-90086586D01*
X127938310Y-90071032D01*
X127938310Y-87727885D01*
X129467000Y-87727885D01*
X129471475Y-87743124D01*
X129472865Y-87744329D01*
X129480548Y-87746000D01*
X130152885Y-87746000D01*
X130168124Y-87741525D01*
X130169329Y-87740135D01*
X130171000Y-87732452D01*
X130171000Y-87541115D01*
X130163604Y-87515927D01*
X130158500Y-87480429D01*
X130158500Y-86772115D01*
X130154025Y-86756876D01*
X130152635Y-86755671D01*
X130144952Y-86754000D01*
X129485115Y-86754000D01*
X129469876Y-86758475D01*
X129468671Y-86759865D01*
X129467000Y-86767548D01*
X129467000Y-86801266D01*
X129467337Y-86807782D01*
X129476804Y-86899021D01*
X129479697Y-86912417D01*
X129528830Y-87059687D01*
X129535001Y-87072859D01*
X129604916Y-87185842D01*
X129623753Y-87254294D01*
X129605031Y-87318261D01*
X129534996Y-87431880D01*
X129528849Y-87445061D01*
X129479509Y-87593814D01*
X129476642Y-87607190D01*
X129467328Y-87698097D01*
X129467000Y-87704514D01*
X129467000Y-87727885D01*
X127938310Y-87727885D01*
X127938310Y-87109785D01*
X127958312Y-87041664D01*
X127975215Y-87020689D01*
X128420926Y-86574979D01*
X128892258Y-86103647D01*
X128900537Y-86096113D01*
X128907018Y-86092000D01*
X128953644Y-86042348D01*
X128956398Y-86039507D01*
X128976135Y-86019770D01*
X128978615Y-86016573D01*
X128986320Y-86007551D01*
X128994611Y-85998722D01*
X129016586Y-85975321D01*
X129020405Y-85968375D01*
X129020407Y-85968372D01*
X129026348Y-85957566D01*
X129037199Y-85941047D01*
X129044758Y-85931301D01*
X129049614Y-85925041D01*
X129052759Y-85917772D01*
X129052762Y-85917768D01*
X129067174Y-85884463D01*
X129072391Y-85873813D01*
X129093695Y-85835060D01*
X129096268Y-85825041D01*
X129098733Y-85815438D01*
X129105137Y-85796734D01*
X129110033Y-85785420D01*
X129110033Y-85785419D01*
X129113181Y-85778145D01*
X129114420Y-85770322D01*
X129114423Y-85770312D01*
X129120099Y-85734476D01*
X129122505Y-85722856D01*
X129131528Y-85687711D01*
X129131528Y-85687710D01*
X129133500Y-85680030D01*
X129133500Y-85659776D01*
X129135051Y-85640065D01*
X129136980Y-85627886D01*
X129138220Y-85620057D01*
X129136228Y-85598979D01*
X129149728Y-85529281D01*
X129172573Y-85498026D01*
X129363747Y-85306852D01*
X129426059Y-85272826D01*
X129496874Y-85277891D01*
G37*
%TD.AperFunction*%
%TA.AperFunction,Conductor*%
G36*
X140250261Y-87849103D02*
G01*
X140298415Y-87901272D01*
X140311502Y-87957188D01*
X140311502Y-88407207D01*
X140291500Y-88475328D01*
X140237844Y-88521821D01*
X140167570Y-88531925D01*
X140141278Y-88525191D01*
X140105318Y-88511710D01*
X140043136Y-88504955D01*
X138921390Y-88504955D01*
X138853269Y-88484953D01*
X138806776Y-88431297D01*
X138796080Y-88365785D01*
X138810907Y-88224707D01*
X138837920Y-88159050D01*
X138847122Y-88148782D01*
X139125499Y-87870405D01*
X139187811Y-87836379D01*
X139214594Y-87833500D01*
X140021233Y-87833500D01*
X140032416Y-87834027D01*
X140039909Y-87835702D01*
X140047835Y-87835453D01*
X140047836Y-87835453D01*
X140107986Y-87833562D01*
X140111945Y-87833500D01*
X140139856Y-87833500D01*
X140143791Y-87833003D01*
X140143856Y-87832995D01*
X140155695Y-87832062D01*
X140167853Y-87831680D01*
X140181545Y-87831250D01*
X140250261Y-87849103D01*
G37*
%TD.AperFunction*%
%TA.AperFunction,Conductor*%
G36*
X132853982Y-84866457D02*
G01*
X132874956Y-84883360D01*
X132906809Y-84915213D01*
X132940835Y-84977525D01*
X132942977Y-85017914D01*
X132942369Y-85023509D01*
X132942000Y-85030328D01*
X132942000Y-85056885D01*
X132946807Y-85073256D01*
X132980798Y-85122125D01*
X132999385Y-85171705D01*
X133004768Y-85178887D01*
X133009079Y-85186762D01*
X133006554Y-85188144D01*
X133026279Y-85240942D01*
X133011226Y-85310324D01*
X133007499Y-85316123D01*
X133004766Y-85321115D01*
X132999385Y-85328295D01*
X132983326Y-85371134D01*
X132982038Y-85374569D01*
X132959280Y-85412853D01*
X132943672Y-85430865D01*
X132942001Y-85438548D01*
X132942001Y-85469668D01*
X132942370Y-85476483D01*
X132943194Y-85484071D01*
X132943193Y-85511275D01*
X132942590Y-85516828D01*
X132941500Y-85526866D01*
X132941500Y-85646276D01*
X132921498Y-85714397D01*
X132867842Y-85760890D01*
X132797568Y-85770994D01*
X132732988Y-85741500D01*
X132726482Y-85735449D01*
X132665234Y-85674307D01*
X132665229Y-85674303D01*
X132660053Y-85669136D01*
X132515692Y-85580151D01*
X132508743Y-85577846D01*
X132361262Y-85528928D01*
X132361260Y-85528928D01*
X132354731Y-85526762D01*
X132254572Y-85516500D01*
X131955717Y-85516500D01*
X131887596Y-85496498D01*
X131841103Y-85442842D01*
X131831269Y-85410213D01*
X131830923Y-85408028D01*
X131830674Y-85400111D01*
X131828463Y-85392502D01*
X131828463Y-85392499D01*
X131825023Y-85380659D01*
X131821012Y-85361295D01*
X131819467Y-85349064D01*
X131818474Y-85341203D01*
X131815557Y-85333836D01*
X131815556Y-85333831D01*
X131802198Y-85300092D01*
X131798354Y-85288865D01*
X131788230Y-85254022D01*
X131786018Y-85246407D01*
X131781697Y-85239100D01*
X131775707Y-85228972D01*
X131767012Y-85211224D01*
X131759552Y-85192383D01*
X131738425Y-85163303D01*
X131733564Y-85156613D01*
X131727048Y-85146693D01*
X131708580Y-85115465D01*
X131708578Y-85115462D01*
X131704542Y-85108638D01*
X131690218Y-85094314D01*
X131677383Y-85079287D01*
X131665472Y-85062893D01*
X131665668Y-85062750D01*
X131635598Y-85003308D01*
X131633500Y-84980411D01*
X131633500Y-84972455D01*
X131653502Y-84904334D01*
X131707158Y-84857841D01*
X131759500Y-84846455D01*
X132785861Y-84846455D01*
X132853982Y-84866457D01*
G37*
%TD.AperFunction*%
%TA.AperFunction,Conductor*%
G36*
X133157929Y-82487539D02*
G01*
X133162042Y-82489800D01*
X133178571Y-82500657D01*
X133188310Y-82508212D01*
X133188312Y-82508213D01*
X133194572Y-82513069D01*
X133235152Y-82530629D01*
X133245800Y-82535846D01*
X133284552Y-82557150D01*
X133292228Y-82559121D01*
X133292231Y-82559122D01*
X133304174Y-82562188D01*
X133322879Y-82568592D01*
X133341467Y-82576636D01*
X133349290Y-82577875D01*
X133349300Y-82577878D01*
X133385136Y-82583554D01*
X133396756Y-82585960D01*
X133431901Y-82594983D01*
X133439582Y-82596955D01*
X133459836Y-82596955D01*
X133479546Y-82598506D01*
X133499555Y-82601675D01*
X133507447Y-82600929D01*
X133543573Y-82597514D01*
X133555431Y-82596955D01*
X134335112Y-82596955D01*
X134403233Y-82616957D01*
X134449726Y-82670613D01*
X134461112Y-82722955D01*
X134461112Y-82728955D01*
X134441110Y-82797076D01*
X134387454Y-82843569D01*
X134335112Y-82854955D01*
X132579112Y-82854955D01*
X132510991Y-82834953D01*
X132464498Y-82781297D01*
X132453112Y-82728955D01*
X132453112Y-82597955D01*
X132473114Y-82529834D01*
X132526770Y-82483341D01*
X132579112Y-82471955D01*
X133097231Y-82471955D01*
X133157929Y-82487539D01*
G37*
%TD.AperFunction*%
%TA.AperFunction,Conductor*%
G36*
X159537300Y-76216957D02*
G01*
X159583793Y-76270613D01*
X159593897Y-76340887D01*
X159564403Y-76405467D01*
X159521930Y-76437381D01*
X159299382Y-76539977D01*
X159295473Y-76542540D01*
X159090930Y-76676644D01*
X159090925Y-76676648D01*
X159087017Y-76679210D01*
X158897564Y-76848303D01*
X158735185Y-77043542D01*
X158603449Y-77260637D01*
X158601640Y-77264951D01*
X158601639Y-77264953D01*
X158515392Y-77470630D01*
X158505248Y-77494820D01*
X158442740Y-77740945D01*
X158417298Y-77993606D01*
X158419105Y-78031214D01*
X158429482Y-78247253D01*
X158446849Y-78334561D01*
X158461653Y-78408985D01*
X158479023Y-78496312D01*
X158480602Y-78500710D01*
X158480604Y-78500717D01*
X158552761Y-78701691D01*
X158564833Y-78735313D01*
X158685027Y-78959006D01*
X158687822Y-78962749D01*
X158687824Y-78962752D01*
X158834173Y-79158737D01*
X158834178Y-79158743D01*
X158836965Y-79162475D01*
X158840274Y-79165755D01*
X158840279Y-79165761D01*
X158997871Y-79321983D01*
X159017309Y-79341252D01*
X159021071Y-79344010D01*
X159021074Y-79344013D01*
X159126766Y-79421509D01*
X159222096Y-79491408D01*
X159226231Y-79493584D01*
X159226235Y-79493586D01*
X159344291Y-79555698D01*
X159446829Y-79609646D01*
X159686570Y-79693367D01*
X159936052Y-79740733D01*
X160051584Y-79745272D01*
X160185127Y-79750519D01*
X160185132Y-79750519D01*
X160189795Y-79750702D01*
X160288776Y-79739862D01*
X160437571Y-79723567D01*
X160437577Y-79723566D01*
X160442224Y-79723057D01*
X160551682Y-79694239D01*
X160683275Y-79659593D01*
X160687795Y-79658403D01*
X160851592Y-79588031D01*
X160916809Y-79560012D01*
X160916812Y-79560010D01*
X160921112Y-79558163D01*
X160925092Y-79555700D01*
X160925096Y-79555698D01*
X161133066Y-79427002D01*
X161133068Y-79427000D01*
X161137049Y-79424537D01*
X161235430Y-79341252D01*
X161327291Y-79263486D01*
X161327293Y-79263484D01*
X161330864Y-79260461D01*
X161498297Y-79069539D01*
X161547845Y-78992509D01*
X161633143Y-78859897D01*
X161635671Y-78855967D01*
X161739969Y-78624435D01*
X161744631Y-78607907D01*
X161777800Y-78490295D01*
X161803001Y-78400940D01*
X161840741Y-78340807D01*
X161905002Y-78310624D01*
X161975380Y-78319974D01*
X162029531Y-78365890D01*
X162047524Y-78408985D01*
X162449426Y-80302798D01*
X162444001Y-80373587D01*
X162401166Y-80430206D01*
X162334521Y-80454678D01*
X162326171Y-80454955D01*
X161821270Y-80454955D01*
X161818024Y-80455292D01*
X161818020Y-80455292D01*
X161788732Y-80458331D01*
X161718983Y-80465568D01*
X161710965Y-80468243D01*
X161563678Y-80517382D01*
X161563676Y-80517383D01*
X161556734Y-80519699D01*
X161411289Y-80609703D01*
X161406116Y-80614885D01*
X161400379Y-80619432D01*
X161398947Y-80617625D01*
X161346427Y-80646357D01*
X161275607Y-80641347D01*
X161239149Y-80617956D01*
X161238319Y-80619007D01*
X161221162Y-80605457D01*
X161088122Y-80523451D01*
X161074941Y-80517304D01*
X160926188Y-80467964D01*
X160912812Y-80465097D01*
X160821905Y-80455783D01*
X160816876Y-80455526D01*
X160801878Y-80459930D01*
X160800673Y-80461320D01*
X160799002Y-80469003D01*
X160799002Y-81566455D01*
X160779000Y-81634576D01*
X160725344Y-81681069D01*
X160673002Y-81692455D01*
X160417002Y-81692455D01*
X160348881Y-81672453D01*
X160302388Y-81618797D01*
X160291002Y-81566455D01*
X160291002Y-80473570D01*
X160286527Y-80458331D01*
X160285137Y-80457126D01*
X160277454Y-80455455D01*
X160274564Y-80455455D01*
X160268049Y-80455792D01*
X160175945Y-80465349D01*
X160162546Y-80468243D01*
X160013895Y-80517836D01*
X160000716Y-80524010D01*
X159867829Y-80606243D01*
X159856428Y-80615279D01*
X159746014Y-80725886D01*
X159738259Y-80735705D01*
X159680341Y-80776767D01*
X159609418Y-80779997D01*
X159548008Y-80744371D01*
X159519145Y-80695290D01*
X159497746Y-80627005D01*
X159497745Y-80627003D01*
X159495474Y-80619756D01*
X159406641Y-80473074D01*
X159285383Y-80351816D01*
X159138701Y-80262983D01*
X159131454Y-80260712D01*
X159131452Y-80260711D01*
X159058674Y-80237904D01*
X158975064Y-80211702D01*
X158901637Y-80204955D01*
X158898739Y-80204955D01*
X158569142Y-80204956D01*
X158238368Y-80204956D01*
X158235510Y-80205219D01*
X158235501Y-80205219D01*
X158199998Y-80208481D01*
X158164940Y-80211702D01*
X158158562Y-80213701D01*
X158158561Y-80213701D01*
X158008552Y-80260711D01*
X158008550Y-80260712D01*
X158001303Y-80262983D01*
X157854621Y-80351816D01*
X157793597Y-80412840D01*
X157731285Y-80446866D01*
X157660470Y-80441801D01*
X157603634Y-80399254D01*
X157578823Y-80332734D01*
X157578502Y-80323745D01*
X157578502Y-76322955D01*
X157598504Y-76254834D01*
X157652160Y-76208341D01*
X157704502Y-76196955D01*
X159469179Y-76196955D01*
X159537300Y-76216957D01*
G37*
%TD.AperFunction*%
%TA.AperFunction,Conductor*%
G36*
X136903233Y-78991957D02*
G01*
X136949726Y-79045613D01*
X136961112Y-79097955D01*
X136961112Y-80153340D01*
X136965587Y-80168579D01*
X136966977Y-80169784D01*
X136974660Y-80171455D01*
X137008378Y-80171455D01*
X137014894Y-80171118D01*
X137106133Y-80161651D01*
X137119529Y-80158758D01*
X137266799Y-80109625D01*
X137279978Y-80103451D01*
X137411626Y-80021985D01*
X137423027Y-80012949D01*
X137532410Y-79903375D01*
X137541422Y-79891964D01*
X137622665Y-79760164D01*
X137628807Y-79746991D01*
X137633869Y-79731731D01*
X137674301Y-79673372D01*
X137739865Y-79646136D01*
X137809747Y-79658670D01*
X137842557Y-79682305D01*
X138536707Y-80376455D01*
X138570733Y-80438767D01*
X138573612Y-80465550D01*
X138573612Y-80628956D01*
X138553610Y-80697077D01*
X138499954Y-80743570D01*
X138447612Y-80754956D01*
X138081712Y-80754956D01*
X137975945Y-80765929D01*
X137969398Y-80768113D01*
X137969399Y-80768113D01*
X137815110Y-80819588D01*
X137815108Y-80819589D01*
X137808166Y-80821905D01*
X137657763Y-80914976D01*
X137532806Y-81040152D01*
X137528966Y-81046382D01*
X137471430Y-81139723D01*
X137439997Y-81190716D01*
X137437693Y-81197663D01*
X137422449Y-81243622D01*
X137382019Y-81301982D01*
X137316454Y-81329219D01*
X137302856Y-81329955D01*
X136816612Y-81329955D01*
X136748491Y-81309953D01*
X136701998Y-81256297D01*
X136690612Y-81203955D01*
X136690612Y-80883883D01*
X136680090Y-80782473D01*
X136626420Y-80621606D01*
X136622570Y-80615385D01*
X136622567Y-80615378D01*
X136559468Y-80513411D01*
X136540612Y-80447108D01*
X136540612Y-79097955D01*
X136560614Y-79029834D01*
X136614270Y-78983341D01*
X136666612Y-78971955D01*
X136835112Y-78971955D01*
X136903233Y-78991957D01*
G37*
%TD.AperFunction*%
%TA.AperFunction,Conductor*%
G36*
X139403233Y-77204457D02*
G01*
X139449726Y-77258113D01*
X139461112Y-77310455D01*
X139461112Y-78603340D01*
X139465587Y-78618579D01*
X139466977Y-78619784D01*
X139474660Y-78621455D01*
X140329210Y-78621455D01*
X140335725Y-78621118D01*
X140422497Y-78612114D01*
X140492319Y-78624978D01*
X140544101Y-78673549D01*
X140561502Y-78737441D01*
X140561502Y-80638847D01*
X140541500Y-80706968D01*
X140487844Y-80753461D01*
X140422660Y-80764191D01*
X140341396Y-80755865D01*
X140332513Y-80754955D01*
X139966612Y-80754955D01*
X139898491Y-80734953D01*
X139851998Y-80681297D01*
X139840612Y-80628955D01*
X139840612Y-80229722D01*
X139841139Y-80218539D01*
X139842814Y-80211046D01*
X139840674Y-80142955D01*
X139840612Y-80138998D01*
X139840612Y-80111099D01*
X139840108Y-80107108D01*
X139839175Y-80095266D01*
X139838035Y-80058991D01*
X139837786Y-80051066D01*
X139835574Y-80043452D01*
X139835573Y-80043447D01*
X139832135Y-80031614D01*
X139828124Y-80012250D01*
X139826579Y-80000019D01*
X139825586Y-79992158D01*
X139822669Y-79984791D01*
X139822668Y-79984786D01*
X139809310Y-79951047D01*
X139805466Y-79939820D01*
X139795342Y-79904977D01*
X139793130Y-79897362D01*
X139782819Y-79879927D01*
X139774124Y-79862179D01*
X139766664Y-79843338D01*
X139740676Y-79807568D01*
X139734160Y-79797648D01*
X139715692Y-79766420D01*
X139715690Y-79766417D01*
X139711654Y-79759593D01*
X139697333Y-79745272D01*
X139684492Y-79730238D01*
X139679645Y-79723567D01*
X139672584Y-79713848D01*
X139638507Y-79685657D01*
X139629738Y-79677677D01*
X138788610Y-78836549D01*
X138754586Y-78774238D01*
X138759651Y-78703422D01*
X138802198Y-78646587D01*
X138868718Y-78621776D01*
X138877707Y-78621455D01*
X138934997Y-78621455D01*
X138950236Y-78616980D01*
X138951441Y-78615590D01*
X138953112Y-78607907D01*
X138953112Y-77310455D01*
X138973114Y-77242334D01*
X139026770Y-77195841D01*
X139079112Y-77184455D01*
X139335112Y-77184455D01*
X139403233Y-77204457D01*
G37*
%TD.AperFunction*%
%TD*%
M02*
