%TF.GenerationSoftware,KiCad,Pcbnew,6.0.7-1.fc35*%
%TF.CreationDate,2022-11-04T19:38:46+01:00*%
%TF.ProjectId,sense_slim,73656e73-655f-4736-9c69-6d2e6b696361,rev?*%
%TF.SameCoordinates,Original*%
%TF.FileFunction,Profile,NP*%
%FSLAX46Y46*%
G04 Gerber Fmt 4.6, Leading zero omitted, Abs format (unit mm)*
G04 Created by KiCad (PCBNEW 6.0.7-1.fc35) date 2022-11-04 19:38:46*
%MOMM*%
%LPD*%
G01*
G04 APERTURE LIST*
%TA.AperFunction,Profile*%
%ADD10C,0.050000*%
%TD*%
%TA.AperFunction,Profile*%
%ADD11C,0.200000*%
%TD*%
G04 APERTURE END LIST*
D10*
X131620002Y-75688455D02*
X130305042Y-81914084D01*
D11*
X161330002Y-78038455D02*
G75*
G03*
X161330002Y-78038455I-1200000J0D01*
G01*
D10*
X162810002Y-116958455D02*
X162810002Y-113398455D01*
X131620002Y-75688455D02*
X141070002Y-75688455D01*
X130814963Y-113404083D02*
X130310003Y-111008454D01*
X161990002Y-75688455D02*
X163310001Y-81908456D01*
D11*
X134690002Y-78038455D02*
G75*
G03*
X134690002Y-78038455I-1200000J0D01*
G01*
D10*
X162810002Y-113398455D02*
X163314962Y-111002826D01*
X131630002Y-118150455D02*
X161990002Y-118150455D01*
X161990002Y-118150455D02*
X162810002Y-116958455D01*
X167800002Y-101828455D02*
G75*
G03*
X167800002Y-101828455I-1200000J0D01*
G01*
X130814963Y-116964083D02*
X130814963Y-113404083D01*
X131630002Y-118150455D02*
X130814963Y-116964083D01*
X141070002Y-75688455D02*
X141070002Y-102688455D01*
X153510002Y-117088455D02*
X153510002Y-115838455D01*
X157070002Y-102688455D02*
X157070002Y-75688455D01*
X163314957Y-111002822D02*
G75*
G03*
X163310001Y-81908456I-16504957J14544372D01*
G01*
X141070002Y-102688455D02*
X157070002Y-102688455D01*
D11*
X129450002Y-103728455D02*
G75*
G03*
X129450002Y-103728455I-1200000J0D01*
G01*
D10*
X140110002Y-117088455D02*
X153510002Y-117088455D01*
X153510002Y-115838455D02*
X140110002Y-115838455D01*
X140110002Y-115838455D02*
X140110002Y-117088455D01*
X157070002Y-75688455D02*
X161990002Y-75688455D01*
X130305047Y-81914088D02*
G75*
G03*
X130310003Y-111008454I16504953J-14544372D01*
G01*
M02*
