%TF.GenerationSoftware,KiCad,Pcbnew,6.0.7-1.fc35*%
%TF.CreationDate,2022-11-05T20:30:00+01:00*%
%TF.ProjectId,sense_slim,73656e73-655f-4736-9c69-6d2e6b696361,rev?*%
%TF.SameCoordinates,Original*%
%TF.FileFunction,Legend,Bot*%
%TF.FilePolarity,Positive*%
%FSLAX46Y46*%
G04 Gerber Fmt 4.6, Leading zero omitted, Abs format (unit mm)*
G04 Created by KiCad (PCBNEW 6.0.7-1.fc35) date 2022-11-05 20:30:00*
%MOMM*%
%LPD*%
G01*
G04 APERTURE LIST*
%ADD10C,0.150000*%
%ADD11C,0.220000*%
%ADD12C,0.100000*%
%ADD13C,0.080000*%
%ADD14C,0.120000*%
G04 APERTURE END LIST*
D10*
X165000000Y-93100000D02*
X164900000Y-92800000D01*
X167200000Y-90700000D02*
X167500000Y-90800000D01*
X138950000Y-83900000D02*
X136650000Y-82250000D01*
X159200000Y-83500000D02*
X160100000Y-82900000D01*
X137150000Y-84000000D02*
X134300000Y-83400000D01*
X161000000Y-99700000D02*
X161400000Y-99400000D01*
X161000000Y-98700000D02*
X161600000Y-98000000D01*
X158500000Y-94400000D02*
X159600000Y-94400000D01*
D11*
X138769047Y-76328571D02*
X139530952Y-76328571D01*
D12*
X154500476Y-104924285D02*
X154195714Y-104924285D01*
X154386190Y-105190952D02*
X154386190Y-104848095D01*
X154348095Y-104810000D01*
X154271904Y-104790952D01*
X154195714Y-104790952D01*
X153814761Y-105190952D02*
X153890952Y-105171904D01*
X153929047Y-105152857D01*
X153967142Y-105114761D01*
X153967142Y-105000476D01*
X153929047Y-104962380D01*
X153890952Y-104943333D01*
X153814761Y-104924285D01*
X153700476Y-104924285D01*
X153624285Y-104943333D01*
X153586190Y-104962380D01*
X153548095Y-105000476D01*
X153548095Y-105114761D01*
X153586190Y-105152857D01*
X153624285Y-105171904D01*
X153700476Y-105190952D01*
X153814761Y-105190952D01*
X153205238Y-105190952D02*
X153205238Y-104924285D01*
X153205238Y-105000476D02*
X153167142Y-104962380D01*
X153129047Y-104943333D01*
X153052857Y-104924285D01*
X152976666Y-104924285D01*
X151986190Y-105190952D02*
X152062380Y-105171904D01*
X152100476Y-105133809D01*
X152100476Y-104790952D01*
X151681428Y-105190952D02*
X151681428Y-104924285D01*
X151681428Y-104790952D02*
X151719523Y-104810000D01*
X151681428Y-104829047D01*
X151643333Y-104810000D01*
X151681428Y-104790952D01*
X151681428Y-104829047D01*
X151300476Y-105190952D02*
X151300476Y-104790952D01*
X151300476Y-104943333D02*
X151224285Y-104924285D01*
X151071904Y-104924285D01*
X150995714Y-104943333D01*
X150957619Y-104962380D01*
X150919523Y-105000476D01*
X150919523Y-105114761D01*
X150957619Y-105152857D01*
X150995714Y-105171904D01*
X151071904Y-105190952D01*
X151224285Y-105190952D01*
X151300476Y-105171904D01*
X150576666Y-105190952D02*
X150576666Y-104924285D01*
X150576666Y-105000476D02*
X150538571Y-104962380D01*
X150500476Y-104943333D01*
X150424285Y-104924285D01*
X150348095Y-104924285D01*
X149738571Y-105190952D02*
X149738571Y-104981428D01*
X149776666Y-104943333D01*
X149852857Y-104924285D01*
X150005238Y-104924285D01*
X150081428Y-104943333D01*
X149738571Y-105171904D02*
X149814761Y-105190952D01*
X150005238Y-105190952D01*
X150081428Y-105171904D01*
X150119523Y-105133809D01*
X150119523Y-105095714D01*
X150081428Y-105057619D01*
X150005238Y-105038571D01*
X149814761Y-105038571D01*
X149738571Y-105019523D01*
X148748095Y-105190952D02*
X148748095Y-104790952D01*
X148481428Y-105076666D01*
X148214761Y-104790952D01*
X148214761Y-105190952D01*
X147833809Y-105190952D02*
X147833809Y-104790952D01*
X147757619Y-105038571D02*
X147529047Y-105190952D01*
X147529047Y-104924285D02*
X147833809Y-105076666D01*
X147071904Y-104962380D02*
X147148095Y-104943333D01*
X147186190Y-104924285D01*
X147224285Y-104886190D01*
X147224285Y-104867142D01*
X147186190Y-104829047D01*
X147148095Y-104810000D01*
X147071904Y-104790952D01*
X146919523Y-104790952D01*
X146843333Y-104810000D01*
X146805238Y-104829047D01*
X146767142Y-104867142D01*
X146767142Y-104886190D01*
X146805238Y-104924285D01*
X146843333Y-104943333D01*
X146919523Y-104962380D01*
X147071904Y-104962380D01*
X147148095Y-104981428D01*
X147186190Y-105000476D01*
X147224285Y-105038571D01*
X147224285Y-105114761D01*
X147186190Y-105152857D01*
X147148095Y-105171904D01*
X147071904Y-105190952D01*
X146919523Y-105190952D01*
X146843333Y-105171904D01*
X146805238Y-105152857D01*
X146767142Y-105114761D01*
X146767142Y-105038571D01*
X146805238Y-105000476D01*
X146843333Y-104981428D01*
X146919523Y-104962380D01*
X145814761Y-104924285D02*
X145814761Y-105190952D01*
X145814761Y-104962380D02*
X145776666Y-104943333D01*
X145700476Y-104924285D01*
X145586190Y-104924285D01*
X145510000Y-104943333D01*
X145471904Y-104981428D01*
X145471904Y-105190952D01*
X144748095Y-105190952D02*
X144748095Y-104981428D01*
X144786190Y-104943333D01*
X144862380Y-104924285D01*
X145014761Y-104924285D01*
X145090952Y-104943333D01*
X144748095Y-105171904D02*
X144824285Y-105190952D01*
X145014761Y-105190952D01*
X145090952Y-105171904D01*
X145129047Y-105133809D01*
X145129047Y-105095714D01*
X145090952Y-105057619D01*
X145014761Y-105038571D01*
X144824285Y-105038571D01*
X144748095Y-105019523D01*
X144443333Y-104924285D02*
X144252857Y-105190952D01*
X144062380Y-104924285D01*
X143757619Y-105190952D02*
X143757619Y-104924285D01*
X143757619Y-104790952D02*
X143795714Y-104810000D01*
X143757619Y-104829047D01*
X143719523Y-104810000D01*
X143757619Y-104790952D01*
X143757619Y-104829047D01*
X143033809Y-104924285D02*
X143033809Y-105248095D01*
X143071904Y-105286190D01*
X143110000Y-105305238D01*
X143186190Y-105324285D01*
X143300476Y-105324285D01*
X143376666Y-105305238D01*
X143033809Y-105171904D02*
X143110000Y-105190952D01*
X143262380Y-105190952D01*
X143338571Y-105171904D01*
X143376666Y-105152857D01*
X143414761Y-105114761D01*
X143414761Y-105000476D01*
X143376666Y-104962380D01*
X143338571Y-104943333D01*
X143262380Y-104924285D01*
X143110000Y-104924285D01*
X143033809Y-104943333D01*
X142310000Y-105190952D02*
X142310000Y-104981428D01*
X142348095Y-104943333D01*
X142424285Y-104924285D01*
X142576666Y-104924285D01*
X142652857Y-104943333D01*
X142310000Y-105171904D02*
X142386190Y-105190952D01*
X142576666Y-105190952D01*
X142652857Y-105171904D01*
X142690952Y-105133809D01*
X142690952Y-105095714D01*
X142652857Y-105057619D01*
X142576666Y-105038571D01*
X142386190Y-105038571D01*
X142310000Y-105019523D01*
X142043333Y-104924285D02*
X141738571Y-104924285D01*
X141929047Y-104790952D02*
X141929047Y-105133809D01*
X141890952Y-105171904D01*
X141814761Y-105190952D01*
X141738571Y-105190952D01*
X141357619Y-105190952D02*
X141433809Y-105171904D01*
X141471904Y-105152857D01*
X141510000Y-105114761D01*
X141510000Y-105000476D01*
X141471904Y-104962380D01*
X141433809Y-104943333D01*
X141357619Y-104924285D01*
X141243333Y-104924285D01*
X141167142Y-104943333D01*
X141129047Y-104962380D01*
X141090952Y-105000476D01*
X141090952Y-105114761D01*
X141129047Y-105152857D01*
X141167142Y-105171904D01*
X141243333Y-105190952D01*
X141357619Y-105190952D01*
X140748095Y-105190952D02*
X140748095Y-104924285D01*
X140748095Y-105000476D02*
X140710000Y-104962380D01*
X140671904Y-104943333D01*
X140595714Y-104924285D01*
X140519523Y-104924285D01*
D11*
X140021428Y-82919047D02*
X140021428Y-83680952D01*
X140402380Y-83300000D02*
X139640476Y-83300000D01*
D10*
X153854761Y-103762857D02*
X153711904Y-103791428D01*
X153473809Y-103791428D01*
X153378571Y-103762857D01*
X153330952Y-103734285D01*
X153283333Y-103677142D01*
X153283333Y-103620000D01*
X153330952Y-103562857D01*
X153378571Y-103534285D01*
X153473809Y-103505714D01*
X153664285Y-103477142D01*
X153759523Y-103448571D01*
X153807142Y-103420000D01*
X153854761Y-103362857D01*
X153854761Y-103305714D01*
X153807142Y-103248571D01*
X153759523Y-103220000D01*
X153664285Y-103191428D01*
X153426190Y-103191428D01*
X153283333Y-103220000D01*
X152473809Y-103762857D02*
X152569047Y-103791428D01*
X152759523Y-103791428D01*
X152854761Y-103762857D01*
X152902380Y-103705714D01*
X152902380Y-103477142D01*
X152854761Y-103420000D01*
X152759523Y-103391428D01*
X152569047Y-103391428D01*
X152473809Y-103420000D01*
X152426190Y-103477142D01*
X152426190Y-103534285D01*
X152902380Y-103591428D01*
X151997619Y-103391428D02*
X151997619Y-103791428D01*
X151997619Y-103448571D02*
X151950000Y-103420000D01*
X151854761Y-103391428D01*
X151711904Y-103391428D01*
X151616666Y-103420000D01*
X151569047Y-103477142D01*
X151569047Y-103791428D01*
X151140476Y-103762857D02*
X151045238Y-103791428D01*
X150854761Y-103791428D01*
X150759523Y-103762857D01*
X150711904Y-103705714D01*
X150711904Y-103677142D01*
X150759523Y-103620000D01*
X150854761Y-103591428D01*
X150997619Y-103591428D01*
X151092857Y-103562857D01*
X151140476Y-103505714D01*
X151140476Y-103477142D01*
X151092857Y-103420000D01*
X150997619Y-103391428D01*
X150854761Y-103391428D01*
X150759523Y-103420000D01*
X149902380Y-103762857D02*
X149997619Y-103791428D01*
X150188095Y-103791428D01*
X150283333Y-103762857D01*
X150330952Y-103705714D01*
X150330952Y-103477142D01*
X150283333Y-103420000D01*
X150188095Y-103391428D01*
X149997619Y-103391428D01*
X149902380Y-103420000D01*
X149854761Y-103477142D01*
X149854761Y-103534285D01*
X150330952Y-103591428D01*
X149664285Y-103848571D02*
X148902380Y-103848571D01*
X148711904Y-103762857D02*
X148616666Y-103791428D01*
X148426190Y-103791428D01*
X148330952Y-103762857D01*
X148283333Y-103705714D01*
X148283333Y-103677142D01*
X148330952Y-103620000D01*
X148426190Y-103591428D01*
X148569047Y-103591428D01*
X148664285Y-103562857D01*
X148711904Y-103505714D01*
X148711904Y-103477142D01*
X148664285Y-103420000D01*
X148569047Y-103391428D01*
X148426190Y-103391428D01*
X148330952Y-103420000D01*
X147711904Y-103791428D02*
X147807142Y-103762857D01*
X147854761Y-103705714D01*
X147854761Y-103191428D01*
X147330952Y-103791428D02*
X147330952Y-103391428D01*
X147330952Y-103191428D02*
X147378571Y-103220000D01*
X147330952Y-103248571D01*
X147283333Y-103220000D01*
X147330952Y-103191428D01*
X147330952Y-103248571D01*
X146854761Y-103791428D02*
X146854761Y-103391428D01*
X146854761Y-103448571D02*
X146807142Y-103420000D01*
X146711904Y-103391428D01*
X146569047Y-103391428D01*
X146473809Y-103420000D01*
X146426190Y-103477142D01*
X146426190Y-103791428D01*
X146426190Y-103477142D02*
X146378571Y-103420000D01*
X146283333Y-103391428D01*
X146140476Y-103391428D01*
X146045238Y-103420000D01*
X145997619Y-103477142D01*
X145997619Y-103791428D01*
X144854761Y-103391428D02*
X144616666Y-103791428D01*
X144378571Y-103391428D01*
X143473809Y-103791428D02*
X144045238Y-103791428D01*
X143759523Y-103791428D02*
X143759523Y-103191428D01*
X143854761Y-103277142D01*
X143950000Y-103334285D01*
X144045238Y-103362857D01*
X143045238Y-103734285D02*
X142997619Y-103762857D01*
X143045238Y-103791428D01*
X143092857Y-103762857D01*
X143045238Y-103734285D01*
X143045238Y-103791428D01*
X142045238Y-103791428D02*
X142616666Y-103791428D01*
X142330952Y-103791428D02*
X142330952Y-103191428D01*
X142426190Y-103277142D01*
X142521428Y-103334285D01*
X142616666Y-103362857D01*
%TO.C,R1*%
X133372380Y-112073333D02*
X132896190Y-111740000D01*
X133372380Y-111501904D02*
X132372380Y-111501904D01*
X132372380Y-111882857D01*
X132420000Y-111978095D01*
X132467619Y-112025714D01*
X132562857Y-112073333D01*
X132705714Y-112073333D01*
X132800952Y-112025714D01*
X132848571Y-111978095D01*
X132896190Y-111882857D01*
X132896190Y-111501904D01*
X133372380Y-113025714D02*
X133372380Y-112454285D01*
X133372380Y-112740000D02*
X132372380Y-112740000D01*
X132515238Y-112644761D01*
X132610476Y-112549523D01*
X132658095Y-112454285D01*
%TO.C,C26*%
X128892857Y-88357142D02*
X128940476Y-88404761D01*
X129083333Y-88452380D01*
X129178571Y-88452380D01*
X129321428Y-88404761D01*
X129416666Y-88309523D01*
X129464285Y-88214285D01*
X129511904Y-88023809D01*
X129511904Y-87880952D01*
X129464285Y-87690476D01*
X129416666Y-87595238D01*
X129321428Y-87500000D01*
X129178571Y-87452380D01*
X129083333Y-87452380D01*
X128940476Y-87500000D01*
X128892857Y-87547619D01*
X128511904Y-87547619D02*
X128464285Y-87500000D01*
X128369047Y-87452380D01*
X128130952Y-87452380D01*
X128035714Y-87500000D01*
X127988095Y-87547619D01*
X127940476Y-87642857D01*
X127940476Y-87738095D01*
X127988095Y-87880952D01*
X128559523Y-88452380D01*
X127940476Y-88452380D01*
X127083333Y-87452380D02*
X127273809Y-87452380D01*
X127369047Y-87500000D01*
X127416666Y-87547619D01*
X127511904Y-87690476D01*
X127559523Y-87880952D01*
X127559523Y-88261904D01*
X127511904Y-88357142D01*
X127464285Y-88404761D01*
X127369047Y-88452380D01*
X127178571Y-88452380D01*
X127083333Y-88404761D01*
X127035714Y-88357142D01*
X126988095Y-88261904D01*
X126988095Y-88023809D01*
X127035714Y-87928571D01*
X127083333Y-87880952D01*
X127178571Y-87833333D01*
X127369047Y-87833333D01*
X127464285Y-87880952D01*
X127511904Y-87928571D01*
X127559523Y-88023809D01*
%TO.C,C23*%
X167957142Y-91657142D02*
X168004761Y-91609523D01*
X168052380Y-91466666D01*
X168052380Y-91371428D01*
X168004761Y-91228571D01*
X167909523Y-91133333D01*
X167814285Y-91085714D01*
X167623809Y-91038095D01*
X167480952Y-91038095D01*
X167290476Y-91085714D01*
X167195238Y-91133333D01*
X167100000Y-91228571D01*
X167052380Y-91371428D01*
X167052380Y-91466666D01*
X167100000Y-91609523D01*
X167147619Y-91657142D01*
X167147619Y-92038095D02*
X167100000Y-92085714D01*
X167052380Y-92180952D01*
X167052380Y-92419047D01*
X167100000Y-92514285D01*
X167147619Y-92561904D01*
X167242857Y-92609523D01*
X167338095Y-92609523D01*
X167480952Y-92561904D01*
X168052380Y-91990476D01*
X168052380Y-92609523D01*
X167052380Y-92942857D02*
X167052380Y-93561904D01*
X167433333Y-93228571D01*
X167433333Y-93371428D01*
X167480952Y-93466666D01*
X167528571Y-93514285D01*
X167623809Y-93561904D01*
X167861904Y-93561904D01*
X167957142Y-93514285D01*
X168004761Y-93466666D01*
X168052380Y-93371428D01*
X168052380Y-93085714D01*
X168004761Y-92990476D01*
X167957142Y-92942857D01*
%TO.C,C17*%
X131657142Y-81357142D02*
X131704761Y-81309523D01*
X131752380Y-81166666D01*
X131752380Y-81071428D01*
X131704761Y-80928571D01*
X131609523Y-80833333D01*
X131514285Y-80785714D01*
X131323809Y-80738095D01*
X131180952Y-80738095D01*
X130990476Y-80785714D01*
X130895238Y-80833333D01*
X130800000Y-80928571D01*
X130752380Y-81071428D01*
X130752380Y-81166666D01*
X130800000Y-81309523D01*
X130847619Y-81357142D01*
X131752380Y-82309523D02*
X131752380Y-81738095D01*
X131752380Y-82023809D02*
X130752380Y-82023809D01*
X130895238Y-81928571D01*
X130990476Y-81833333D01*
X131038095Y-81738095D01*
X130752380Y-82642857D02*
X130752380Y-83309523D01*
X131752380Y-82880952D01*
%TO.C,R13*%
X162442857Y-83352380D02*
X162776190Y-82876190D01*
X163014285Y-83352380D02*
X163014285Y-82352380D01*
X162633333Y-82352380D01*
X162538095Y-82400000D01*
X162490476Y-82447619D01*
X162442857Y-82542857D01*
X162442857Y-82685714D01*
X162490476Y-82780952D01*
X162538095Y-82828571D01*
X162633333Y-82876190D01*
X163014285Y-82876190D01*
X161490476Y-83352380D02*
X162061904Y-83352380D01*
X161776190Y-83352380D02*
X161776190Y-82352380D01*
X161871428Y-82495238D01*
X161966666Y-82590476D01*
X162061904Y-82638095D01*
X161157142Y-82352380D02*
X160538095Y-82352380D01*
X160871428Y-82733333D01*
X160728571Y-82733333D01*
X160633333Y-82780952D01*
X160585714Y-82828571D01*
X160538095Y-82923809D01*
X160538095Y-83161904D01*
X160585714Y-83257142D01*
X160633333Y-83304761D01*
X160728571Y-83352380D01*
X161014285Y-83352380D01*
X161109523Y-83304761D01*
X161157142Y-83257142D01*
%TO.C,J6*%
X167653335Y-99340835D02*
X167653335Y-100055121D01*
X167700954Y-100197978D01*
X167796192Y-100293216D01*
X167939049Y-100340835D01*
X168034287Y-100340835D01*
X166748573Y-99340835D02*
X166939049Y-99340835D01*
X167034287Y-99388455D01*
X167081906Y-99436074D01*
X167177144Y-99578931D01*
X167224763Y-99769407D01*
X167224763Y-100150359D01*
X167177144Y-100245597D01*
X167129525Y-100293216D01*
X167034287Y-100340835D01*
X166843811Y-100340835D01*
X166748573Y-100293216D01*
X166700954Y-100245597D01*
X166653335Y-100150359D01*
X166653335Y-99912264D01*
X166700954Y-99817026D01*
X166748573Y-99769407D01*
X166843811Y-99721788D01*
X167034287Y-99721788D01*
X167129525Y-99769407D01*
X167177144Y-99817026D01*
X167224763Y-99912264D01*
%TO.C,C18*%
X137657142Y-84957142D02*
X137704761Y-84909523D01*
X137752380Y-84766666D01*
X137752380Y-84671428D01*
X137704761Y-84528571D01*
X137609523Y-84433333D01*
X137514285Y-84385714D01*
X137323809Y-84338095D01*
X137180952Y-84338095D01*
X136990476Y-84385714D01*
X136895238Y-84433333D01*
X136800000Y-84528571D01*
X136752380Y-84671428D01*
X136752380Y-84766666D01*
X136800000Y-84909523D01*
X136847619Y-84957142D01*
X137752380Y-85909523D02*
X137752380Y-85338095D01*
X137752380Y-85623809D02*
X136752380Y-85623809D01*
X136895238Y-85528571D01*
X136990476Y-85433333D01*
X137038095Y-85338095D01*
X137180952Y-86480952D02*
X137133333Y-86385714D01*
X137085714Y-86338095D01*
X136990476Y-86290476D01*
X136942857Y-86290476D01*
X136847619Y-86338095D01*
X136800000Y-86385714D01*
X136752380Y-86480952D01*
X136752380Y-86671428D01*
X136800000Y-86766666D01*
X136847619Y-86814285D01*
X136942857Y-86861904D01*
X136990476Y-86861904D01*
X137085714Y-86814285D01*
X137133333Y-86766666D01*
X137180952Y-86671428D01*
X137180952Y-86480952D01*
X137228571Y-86385714D01*
X137276190Y-86338095D01*
X137371428Y-86290476D01*
X137561904Y-86290476D01*
X137657142Y-86338095D01*
X137704761Y-86385714D01*
X137752380Y-86480952D01*
X137752380Y-86671428D01*
X137704761Y-86766666D01*
X137657142Y-86814285D01*
X137561904Y-86861904D01*
X137371428Y-86861904D01*
X137276190Y-86814285D01*
X137228571Y-86766666D01*
X137180952Y-86671428D01*
%TO.C,R18*%
X160242857Y-99352380D02*
X160576190Y-98876190D01*
X160814285Y-99352380D02*
X160814285Y-98352380D01*
X160433333Y-98352380D01*
X160338095Y-98400000D01*
X160290476Y-98447619D01*
X160242857Y-98542857D01*
X160242857Y-98685714D01*
X160290476Y-98780952D01*
X160338095Y-98828571D01*
X160433333Y-98876190D01*
X160814285Y-98876190D01*
X159290476Y-99352380D02*
X159861904Y-99352380D01*
X159576190Y-99352380D02*
X159576190Y-98352380D01*
X159671428Y-98495238D01*
X159766666Y-98590476D01*
X159861904Y-98638095D01*
X158719047Y-98780952D02*
X158814285Y-98733333D01*
X158861904Y-98685714D01*
X158909523Y-98590476D01*
X158909523Y-98542857D01*
X158861904Y-98447619D01*
X158814285Y-98400000D01*
X158719047Y-98352380D01*
X158528571Y-98352380D01*
X158433333Y-98400000D01*
X158385714Y-98447619D01*
X158338095Y-98542857D01*
X158338095Y-98590476D01*
X158385714Y-98685714D01*
X158433333Y-98733333D01*
X158528571Y-98780952D01*
X158719047Y-98780952D01*
X158814285Y-98828571D01*
X158861904Y-98876190D01*
X158909523Y-98971428D01*
X158909523Y-99161904D01*
X158861904Y-99257142D01*
X158814285Y-99304761D01*
X158719047Y-99352380D01*
X158528571Y-99352380D01*
X158433333Y-99304761D01*
X158385714Y-99257142D01*
X158338095Y-99161904D01*
X158338095Y-98971428D01*
X158385714Y-98876190D01*
X158433333Y-98828571D01*
X158528571Y-98780952D01*
D13*
%TO.C,R20*%
X164326190Y-90678571D02*
X164088095Y-90511904D01*
X164326190Y-90392857D02*
X163826190Y-90392857D01*
X163826190Y-90583333D01*
X163850000Y-90630952D01*
X163873809Y-90654761D01*
X163921428Y-90678571D01*
X163992857Y-90678571D01*
X164040476Y-90654761D01*
X164064285Y-90630952D01*
X164088095Y-90583333D01*
X164088095Y-90392857D01*
X163873809Y-90869047D02*
X163850000Y-90892857D01*
X163826190Y-90940476D01*
X163826190Y-91059523D01*
X163850000Y-91107142D01*
X163873809Y-91130952D01*
X163921428Y-91154761D01*
X163969047Y-91154761D01*
X164040476Y-91130952D01*
X164326190Y-90845238D01*
X164326190Y-91154761D01*
X163826190Y-91464285D02*
X163826190Y-91511904D01*
X163850000Y-91559523D01*
X163873809Y-91583333D01*
X163921428Y-91607142D01*
X164016666Y-91630952D01*
X164135714Y-91630952D01*
X164230952Y-91607142D01*
X164278571Y-91583333D01*
X164302380Y-91559523D01*
X164326190Y-91511904D01*
X164326190Y-91464285D01*
X164302380Y-91416666D01*
X164278571Y-91392857D01*
X164230952Y-91369047D01*
X164135714Y-91345238D01*
X164016666Y-91345238D01*
X163921428Y-91369047D01*
X163873809Y-91392857D01*
X163850000Y-91416666D01*
X163826190Y-91464285D01*
D10*
%TO.C,C22*%
X161932857Y-80367142D02*
X161980476Y-80414761D01*
X162123333Y-80462380D01*
X162218571Y-80462380D01*
X162361428Y-80414761D01*
X162456666Y-80319523D01*
X162504285Y-80224285D01*
X162551904Y-80033809D01*
X162551904Y-79890952D01*
X162504285Y-79700476D01*
X162456666Y-79605238D01*
X162361428Y-79510000D01*
X162218571Y-79462380D01*
X162123333Y-79462380D01*
X161980476Y-79510000D01*
X161932857Y-79557619D01*
X161551904Y-79557619D02*
X161504285Y-79510000D01*
X161409047Y-79462380D01*
X161170952Y-79462380D01*
X161075714Y-79510000D01*
X161028095Y-79557619D01*
X160980476Y-79652857D01*
X160980476Y-79748095D01*
X161028095Y-79890952D01*
X161599523Y-80462380D01*
X160980476Y-80462380D01*
X160599523Y-79557619D02*
X160551904Y-79510000D01*
X160456666Y-79462380D01*
X160218571Y-79462380D01*
X160123333Y-79510000D01*
X160075714Y-79557619D01*
X160028095Y-79652857D01*
X160028095Y-79748095D01*
X160075714Y-79890952D01*
X160647142Y-80462380D01*
X160028095Y-80462380D01*
%TO.C,R19*%
X161822382Y-84495597D02*
X161346192Y-84162264D01*
X161822382Y-83924169D02*
X160822382Y-83924169D01*
X160822382Y-84305121D01*
X160870002Y-84400359D01*
X160917621Y-84447978D01*
X161012859Y-84495597D01*
X161155716Y-84495597D01*
X161250954Y-84447978D01*
X161298573Y-84400359D01*
X161346192Y-84305121D01*
X161346192Y-83924169D01*
X161822382Y-85447978D02*
X161822382Y-84876550D01*
X161822382Y-85162264D02*
X160822382Y-85162264D01*
X160965240Y-85067026D01*
X161060478Y-84971788D01*
X161108097Y-84876550D01*
X161822382Y-85924169D02*
X161822382Y-86114645D01*
X161774763Y-86209883D01*
X161727144Y-86257502D01*
X161584287Y-86352740D01*
X161393811Y-86400359D01*
X161012859Y-86400359D01*
X160917621Y-86352740D01*
X160870002Y-86305121D01*
X160822382Y-86209883D01*
X160822382Y-86019407D01*
X160870002Y-85924169D01*
X160917621Y-85876550D01*
X161012859Y-85828931D01*
X161250954Y-85828931D01*
X161346192Y-85876550D01*
X161393811Y-85924169D01*
X161441430Y-86019407D01*
X161441430Y-86209883D01*
X161393811Y-86305121D01*
X161346192Y-86352740D01*
X161250954Y-86400359D01*
%TO.C,Q4*%
X158475236Y-102259164D02*
X158570474Y-102211545D01*
X158665712Y-102116306D01*
X158808569Y-101973449D01*
X158903807Y-101925830D01*
X158999045Y-101925830D01*
X158951426Y-102163925D02*
X159046664Y-102116306D01*
X159141902Y-102021068D01*
X159189521Y-101830592D01*
X159189521Y-101497259D01*
X159141902Y-101306783D01*
X159046664Y-101211545D01*
X158951426Y-101163925D01*
X158760950Y-101163925D01*
X158665712Y-101211545D01*
X158570474Y-101306783D01*
X158522855Y-101497259D01*
X158522855Y-101830592D01*
X158570474Y-102021068D01*
X158665712Y-102116306D01*
X158760950Y-102163925D01*
X158951426Y-102163925D01*
X157665712Y-101497259D02*
X157665712Y-102163925D01*
X157903807Y-101116306D02*
X158141902Y-101830592D01*
X157522855Y-101830592D01*
%TO.C,R2*%
X128816666Y-90002380D02*
X129150000Y-89526190D01*
X129388095Y-90002380D02*
X129388095Y-89002380D01*
X129007142Y-89002380D01*
X128911904Y-89050000D01*
X128864285Y-89097619D01*
X128816666Y-89192857D01*
X128816666Y-89335714D01*
X128864285Y-89430952D01*
X128911904Y-89478571D01*
X129007142Y-89526190D01*
X129388095Y-89526190D01*
X128435714Y-89097619D02*
X128388095Y-89050000D01*
X128292857Y-89002380D01*
X128054761Y-89002380D01*
X127959523Y-89050000D01*
X127911904Y-89097619D01*
X127864285Y-89192857D01*
X127864285Y-89288095D01*
X127911904Y-89430952D01*
X128483333Y-90002380D01*
X127864285Y-90002380D01*
%TO.C,U2*%
X131961904Y-102952380D02*
X131961904Y-103761904D01*
X131914285Y-103857142D01*
X131866666Y-103904761D01*
X131771428Y-103952380D01*
X131580952Y-103952380D01*
X131485714Y-103904761D01*
X131438095Y-103857142D01*
X131390476Y-103761904D01*
X131390476Y-102952380D01*
X130961904Y-103047619D02*
X130914285Y-103000000D01*
X130819047Y-102952380D01*
X130580952Y-102952380D01*
X130485714Y-103000000D01*
X130438095Y-103047619D01*
X130390476Y-103142857D01*
X130390476Y-103238095D01*
X130438095Y-103380952D01*
X131009523Y-103952380D01*
X130390476Y-103952380D01*
%TO.C,R7*%
X131052380Y-91633333D02*
X130576190Y-91300000D01*
X131052380Y-91061904D02*
X130052380Y-91061904D01*
X130052380Y-91442857D01*
X130100000Y-91538095D01*
X130147619Y-91585714D01*
X130242857Y-91633333D01*
X130385714Y-91633333D01*
X130480952Y-91585714D01*
X130528571Y-91538095D01*
X130576190Y-91442857D01*
X130576190Y-91061904D01*
X130052380Y-91966666D02*
X130052380Y-92633333D01*
X131052380Y-92204761D01*
%TO.C,J1*%
X139773335Y-106350835D02*
X139773335Y-107065121D01*
X139820954Y-107207978D01*
X139916192Y-107303216D01*
X140059049Y-107350835D01*
X140154287Y-107350835D01*
X138773335Y-107350835D02*
X139344763Y-107350835D01*
X139059049Y-107350835D02*
X139059049Y-106350835D01*
X139154287Y-106493693D01*
X139249525Y-106588931D01*
X139344763Y-106636550D01*
%TO.C,Q3*%
X158595238Y-93447619D02*
X158690476Y-93400000D01*
X158785714Y-93304761D01*
X158928571Y-93161904D01*
X159023809Y-93114285D01*
X159119047Y-93114285D01*
X159071428Y-93352380D02*
X159166666Y-93304761D01*
X159261904Y-93209523D01*
X159309523Y-93019047D01*
X159309523Y-92685714D01*
X159261904Y-92495238D01*
X159166666Y-92400000D01*
X159071428Y-92352380D01*
X158880952Y-92352380D01*
X158785714Y-92400000D01*
X158690476Y-92495238D01*
X158642857Y-92685714D01*
X158642857Y-93019047D01*
X158690476Y-93209523D01*
X158785714Y-93304761D01*
X158880952Y-93352380D01*
X159071428Y-93352380D01*
X158309523Y-92352380D02*
X157690476Y-92352380D01*
X158023809Y-92733333D01*
X157880952Y-92733333D01*
X157785714Y-92780952D01*
X157738095Y-92828571D01*
X157690476Y-92923809D01*
X157690476Y-93161904D01*
X157738095Y-93257142D01*
X157785714Y-93304761D01*
X157880952Y-93352380D01*
X158166666Y-93352380D01*
X158261904Y-93304761D01*
X158309523Y-93257142D01*
%TO.C,R9*%
X139552380Y-84833333D02*
X139076190Y-84500000D01*
X139552380Y-84261904D02*
X138552380Y-84261904D01*
X138552380Y-84642857D01*
X138600000Y-84738095D01*
X138647619Y-84785714D01*
X138742857Y-84833333D01*
X138885714Y-84833333D01*
X138980952Y-84785714D01*
X139028571Y-84738095D01*
X139076190Y-84642857D01*
X139076190Y-84261904D01*
X139552380Y-85309523D02*
X139552380Y-85500000D01*
X139504761Y-85595238D01*
X139457142Y-85642857D01*
X139314285Y-85738095D01*
X139123809Y-85785714D01*
X138742857Y-85785714D01*
X138647619Y-85738095D01*
X138600000Y-85690476D01*
X138552380Y-85595238D01*
X138552380Y-85404761D01*
X138600000Y-85309523D01*
X138647619Y-85261904D01*
X138742857Y-85214285D01*
X138980952Y-85214285D01*
X139076190Y-85261904D01*
X139123809Y-85309523D01*
X139171428Y-85404761D01*
X139171428Y-85595238D01*
X139123809Y-85690476D01*
X139076190Y-85738095D01*
X138980952Y-85785714D01*
%TO.C,R21*%
X160142857Y-100713925D02*
X160476190Y-100237735D01*
X160714285Y-100713925D02*
X160714285Y-99713925D01*
X160333333Y-99713925D01*
X160238095Y-99761545D01*
X160190476Y-99809164D01*
X160142857Y-99904402D01*
X160142857Y-100047259D01*
X160190476Y-100142497D01*
X160238095Y-100190116D01*
X160333333Y-100237735D01*
X160714285Y-100237735D01*
X159761904Y-99809164D02*
X159714285Y-99761545D01*
X159619047Y-99713925D01*
X159380952Y-99713925D01*
X159285714Y-99761545D01*
X159238095Y-99809164D01*
X159190476Y-99904402D01*
X159190476Y-99999640D01*
X159238095Y-100142497D01*
X159809523Y-100713925D01*
X159190476Y-100713925D01*
X158238095Y-100713925D02*
X158809523Y-100713925D01*
X158523809Y-100713925D02*
X158523809Y-99713925D01*
X158619047Y-99856783D01*
X158714285Y-99952021D01*
X158809523Y-99999640D01*
%TO.C,J7*%
X160637515Y-110007585D02*
X160994658Y-109388995D01*
X161024847Y-109241468D01*
X160989987Y-109111370D01*
X160890079Y-108998702D01*
X160807600Y-108951083D01*
X160967429Y-110198061D02*
X161544780Y-110531394D01*
X161673626Y-109451083D01*
%TO.C,C24*%
X158157142Y-94457142D02*
X158204761Y-94409523D01*
X158252380Y-94266666D01*
X158252380Y-94171428D01*
X158204761Y-94028571D01*
X158109523Y-93933333D01*
X158014285Y-93885714D01*
X157823809Y-93838095D01*
X157680952Y-93838095D01*
X157490476Y-93885714D01*
X157395238Y-93933333D01*
X157300000Y-94028571D01*
X157252380Y-94171428D01*
X157252380Y-94266666D01*
X157300000Y-94409523D01*
X157347619Y-94457142D01*
X157347619Y-94838095D02*
X157300000Y-94885714D01*
X157252380Y-94980952D01*
X157252380Y-95219047D01*
X157300000Y-95314285D01*
X157347619Y-95361904D01*
X157442857Y-95409523D01*
X157538095Y-95409523D01*
X157680952Y-95361904D01*
X158252380Y-94790476D01*
X158252380Y-95409523D01*
X157585714Y-96266666D02*
X158252380Y-96266666D01*
X157204761Y-96028571D02*
X157919047Y-95790476D01*
X157919047Y-96409523D01*
%TO.C,U5*%
X132861904Y-84252380D02*
X132861904Y-85061904D01*
X132814285Y-85157142D01*
X132766666Y-85204761D01*
X132671428Y-85252380D01*
X132480952Y-85252380D01*
X132385714Y-85204761D01*
X132338095Y-85157142D01*
X132290476Y-85061904D01*
X132290476Y-84252380D01*
X131338095Y-84252380D02*
X131814285Y-84252380D01*
X131861904Y-84728571D01*
X131814285Y-84680952D01*
X131719047Y-84633333D01*
X131480952Y-84633333D01*
X131385714Y-84680952D01*
X131338095Y-84728571D01*
X131290476Y-84823809D01*
X131290476Y-85061904D01*
X131338095Y-85157142D01*
X131385714Y-85204761D01*
X131480952Y-85252380D01*
X131719047Y-85252380D01*
X131814285Y-85204761D01*
X131861904Y-85157142D01*
%TO.C,J2*%
X126752380Y-90666666D02*
X127466666Y-90666666D01*
X127609523Y-90619047D01*
X127704761Y-90523809D01*
X127752380Y-90380952D01*
X127752380Y-90285714D01*
X126847619Y-91095238D02*
X126800000Y-91142857D01*
X126752380Y-91238095D01*
X126752380Y-91476190D01*
X126800000Y-91571428D01*
X126847619Y-91619047D01*
X126942857Y-91666666D01*
X127038095Y-91666666D01*
X127180952Y-91619047D01*
X127752380Y-91047619D01*
X127752380Y-91666666D01*
%TO.C,Q1*%
X156895238Y-105447619D02*
X156990476Y-105400000D01*
X157085714Y-105304761D01*
X157228571Y-105161904D01*
X157323809Y-105114285D01*
X157419047Y-105114285D01*
X157371428Y-105352380D02*
X157466666Y-105304761D01*
X157561904Y-105209523D01*
X157609523Y-105019047D01*
X157609523Y-104685714D01*
X157561904Y-104495238D01*
X157466666Y-104400000D01*
X157371428Y-104352380D01*
X157180952Y-104352380D01*
X157085714Y-104400000D01*
X156990476Y-104495238D01*
X156942857Y-104685714D01*
X156942857Y-105019047D01*
X156990476Y-105209523D01*
X157085714Y-105304761D01*
X157180952Y-105352380D01*
X157371428Y-105352380D01*
X155990476Y-105352380D02*
X156561904Y-105352380D01*
X156276190Y-105352380D02*
X156276190Y-104352380D01*
X156371428Y-104495238D01*
X156466666Y-104590476D01*
X156561904Y-104638095D01*
%TO.C,BT1*%
X139128571Y-78914285D02*
X139176190Y-79057142D01*
X139223809Y-79104761D01*
X139319047Y-79152380D01*
X139461904Y-79152380D01*
X139557142Y-79104761D01*
X139604761Y-79057142D01*
X139652380Y-78961904D01*
X139652380Y-78580952D01*
X138652380Y-78580952D01*
X138652380Y-78914285D01*
X138700000Y-79009523D01*
X138747619Y-79057142D01*
X138842857Y-79104761D01*
X138938095Y-79104761D01*
X139033333Y-79057142D01*
X139080952Y-79009523D01*
X139128571Y-78914285D01*
X139128571Y-78580952D01*
X138652380Y-79438095D02*
X138652380Y-80009523D01*
X139652380Y-79723809D02*
X138652380Y-79723809D01*
X139652380Y-80866666D02*
X139652380Y-80295238D01*
X139652380Y-80580952D02*
X138652380Y-80580952D01*
X138795238Y-80485714D01*
X138890476Y-80390476D01*
X138938095Y-80295238D01*
%TO.C,C20*%
X135857142Y-77757142D02*
X135904761Y-77709523D01*
X135952380Y-77566666D01*
X135952380Y-77471428D01*
X135904761Y-77328571D01*
X135809523Y-77233333D01*
X135714285Y-77185714D01*
X135523809Y-77138095D01*
X135380952Y-77138095D01*
X135190476Y-77185714D01*
X135095238Y-77233333D01*
X135000000Y-77328571D01*
X134952380Y-77471428D01*
X134952380Y-77566666D01*
X135000000Y-77709523D01*
X135047619Y-77757142D01*
X135047619Y-78138095D02*
X135000000Y-78185714D01*
X134952380Y-78280952D01*
X134952380Y-78519047D01*
X135000000Y-78614285D01*
X135047619Y-78661904D01*
X135142857Y-78709523D01*
X135238095Y-78709523D01*
X135380952Y-78661904D01*
X135952380Y-78090476D01*
X135952380Y-78709523D01*
X134952380Y-79328571D02*
X134952380Y-79423809D01*
X135000000Y-79519047D01*
X135047619Y-79566666D01*
X135142857Y-79614285D01*
X135333333Y-79661904D01*
X135571428Y-79661904D01*
X135761904Y-79614285D01*
X135857142Y-79566666D01*
X135904761Y-79519047D01*
X135952380Y-79423809D01*
X135952380Y-79328571D01*
X135904761Y-79233333D01*
X135857142Y-79185714D01*
X135761904Y-79138095D01*
X135571428Y-79090476D01*
X135333333Y-79090476D01*
X135142857Y-79138095D01*
X135047619Y-79185714D01*
X135000000Y-79233333D01*
X134952380Y-79328571D01*
%TO.C,J5*%
X162818053Y-88259081D02*
X163175196Y-88877670D01*
X163287864Y-88977579D01*
X163417962Y-89012438D01*
X163565489Y-88982249D01*
X163647968Y-88934630D01*
X161993267Y-88735271D02*
X162405660Y-88497176D01*
X162684995Y-88885760D01*
X162619946Y-88868330D01*
X162513658Y-88874710D01*
X162307461Y-88993757D01*
X162248792Y-89082616D01*
X162231362Y-89147664D01*
X162237742Y-89253952D01*
X162356790Y-89460149D01*
X162445648Y-89518818D01*
X162510697Y-89536248D01*
X162616985Y-89529868D01*
X162823181Y-89410821D01*
X162881851Y-89321962D01*
X162899280Y-89256913D01*
%TO.C,R8*%
X158922382Y-79171788D02*
X158446192Y-78838455D01*
X158922382Y-78600359D02*
X157922382Y-78600359D01*
X157922382Y-78981312D01*
X157970002Y-79076550D01*
X158017621Y-79124169D01*
X158112859Y-79171788D01*
X158255716Y-79171788D01*
X158350954Y-79124169D01*
X158398573Y-79076550D01*
X158446192Y-78981312D01*
X158446192Y-78600359D01*
X158350954Y-79743216D02*
X158303335Y-79647978D01*
X158255716Y-79600359D01*
X158160478Y-79552740D01*
X158112859Y-79552740D01*
X158017621Y-79600359D01*
X157970002Y-79647978D01*
X157922382Y-79743216D01*
X157922382Y-79933693D01*
X157970002Y-80028931D01*
X158017621Y-80076550D01*
X158112859Y-80124169D01*
X158160478Y-80124169D01*
X158255716Y-80076550D01*
X158303335Y-80028931D01*
X158350954Y-79933693D01*
X158350954Y-79743216D01*
X158398573Y-79647978D01*
X158446192Y-79600359D01*
X158541430Y-79552740D01*
X158731906Y-79552740D01*
X158827144Y-79600359D01*
X158874763Y-79647978D01*
X158922382Y-79743216D01*
X158922382Y-79933693D01*
X158874763Y-80028931D01*
X158827144Y-80076550D01*
X158731906Y-80124169D01*
X158541430Y-80124169D01*
X158446192Y-80076550D01*
X158398573Y-80028931D01*
X158350954Y-79933693D01*
%TO.C,C21*%
X135507142Y-89657142D02*
X135554761Y-89609523D01*
X135602380Y-89466666D01*
X135602380Y-89371428D01*
X135554761Y-89228571D01*
X135459523Y-89133333D01*
X135364285Y-89085714D01*
X135173809Y-89038095D01*
X135030952Y-89038095D01*
X134840476Y-89085714D01*
X134745238Y-89133333D01*
X134650000Y-89228571D01*
X134602380Y-89371428D01*
X134602380Y-89466666D01*
X134650000Y-89609523D01*
X134697619Y-89657142D01*
X134697619Y-90038095D02*
X134650000Y-90085714D01*
X134602380Y-90180952D01*
X134602380Y-90419047D01*
X134650000Y-90514285D01*
X134697619Y-90561904D01*
X134792857Y-90609523D01*
X134888095Y-90609523D01*
X135030952Y-90561904D01*
X135602380Y-89990476D01*
X135602380Y-90609523D01*
X135602380Y-91561904D02*
X135602380Y-90990476D01*
X135602380Y-91276190D02*
X134602380Y-91276190D01*
X134745238Y-91180952D01*
X134840476Y-91085714D01*
X134888095Y-90990476D01*
%TO.C,R12*%
X160542857Y-97752380D02*
X160876190Y-97276190D01*
X161114285Y-97752380D02*
X161114285Y-96752380D01*
X160733333Y-96752380D01*
X160638095Y-96800000D01*
X160590476Y-96847619D01*
X160542857Y-96942857D01*
X160542857Y-97085714D01*
X160590476Y-97180952D01*
X160638095Y-97228571D01*
X160733333Y-97276190D01*
X161114285Y-97276190D01*
X159590476Y-97752380D02*
X160161904Y-97752380D01*
X159876190Y-97752380D02*
X159876190Y-96752380D01*
X159971428Y-96895238D01*
X160066666Y-96990476D01*
X160161904Y-97038095D01*
X159209523Y-96847619D02*
X159161904Y-96800000D01*
X159066666Y-96752380D01*
X158828571Y-96752380D01*
X158733333Y-96800000D01*
X158685714Y-96847619D01*
X158638095Y-96942857D01*
X158638095Y-97038095D01*
X158685714Y-97180952D01*
X159257142Y-97752380D01*
X158638095Y-97752380D01*
%TO.C,C7*%
X134917142Y-111973333D02*
X134964761Y-111925714D01*
X135012380Y-111782857D01*
X135012380Y-111687619D01*
X134964761Y-111544761D01*
X134869523Y-111449523D01*
X134774285Y-111401904D01*
X134583809Y-111354285D01*
X134440952Y-111354285D01*
X134250476Y-111401904D01*
X134155238Y-111449523D01*
X134060000Y-111544761D01*
X134012380Y-111687619D01*
X134012380Y-111782857D01*
X134060000Y-111925714D01*
X134107619Y-111973333D01*
X134012380Y-112306666D02*
X134012380Y-112973333D01*
X135012380Y-112544761D01*
%TO.C,Q2*%
X161695238Y-87747619D02*
X161790476Y-87700000D01*
X161885714Y-87604761D01*
X162028571Y-87461904D01*
X162123809Y-87414285D01*
X162219047Y-87414285D01*
X162171428Y-87652380D02*
X162266666Y-87604761D01*
X162361904Y-87509523D01*
X162409523Y-87319047D01*
X162409523Y-86985714D01*
X162361904Y-86795238D01*
X162266666Y-86700000D01*
X162171428Y-86652380D01*
X161980952Y-86652380D01*
X161885714Y-86700000D01*
X161790476Y-86795238D01*
X161742857Y-86985714D01*
X161742857Y-87319047D01*
X161790476Y-87509523D01*
X161885714Y-87604761D01*
X161980952Y-87652380D01*
X162171428Y-87652380D01*
X161361904Y-86747619D02*
X161314285Y-86700000D01*
X161219047Y-86652380D01*
X160980952Y-86652380D01*
X160885714Y-86700000D01*
X160838095Y-86747619D01*
X160790476Y-86842857D01*
X160790476Y-86938095D01*
X160838095Y-87080952D01*
X161409523Y-87652380D01*
X160790476Y-87652380D01*
%TO.C,C1*%
X128816666Y-86757142D02*
X128864285Y-86804761D01*
X129007142Y-86852380D01*
X129102380Y-86852380D01*
X129245238Y-86804761D01*
X129340476Y-86709523D01*
X129388095Y-86614285D01*
X129435714Y-86423809D01*
X129435714Y-86280952D01*
X129388095Y-86090476D01*
X129340476Y-85995238D01*
X129245238Y-85900000D01*
X129102380Y-85852380D01*
X129007142Y-85852380D01*
X128864285Y-85900000D01*
X128816666Y-85947619D01*
X127864285Y-86852380D02*
X128435714Y-86852380D01*
X128150000Y-86852380D02*
X128150000Y-85852380D01*
X128245238Y-85995238D01*
X128340476Y-86090476D01*
X128435714Y-86138095D01*
D13*
%TO.C,R14*%
X163026190Y-94378571D02*
X162788095Y-94211904D01*
X163026190Y-94092857D02*
X162526190Y-94092857D01*
X162526190Y-94283333D01*
X162550000Y-94330952D01*
X162573809Y-94354761D01*
X162621428Y-94378571D01*
X162692857Y-94378571D01*
X162740476Y-94354761D01*
X162764285Y-94330952D01*
X162788095Y-94283333D01*
X162788095Y-94092857D01*
X163026190Y-94854761D02*
X163026190Y-94569047D01*
X163026190Y-94711904D02*
X162526190Y-94711904D01*
X162597619Y-94664285D01*
X162645238Y-94616666D01*
X162669047Y-94569047D01*
X162692857Y-95283333D02*
X163026190Y-95283333D01*
X162502380Y-95164285D02*
X162859523Y-95045238D01*
X162859523Y-95354761D01*
D10*
%TO.C,Y1*%
X139796192Y-87604645D02*
X139796192Y-88080835D01*
X140129525Y-87080835D02*
X139796192Y-87604645D01*
X139462859Y-87080835D01*
X138605716Y-88080835D02*
X139177144Y-88080835D01*
X138891430Y-88080835D02*
X138891430Y-87080835D01*
X138986668Y-87223693D01*
X139081906Y-87318931D01*
X139177144Y-87366550D01*
%TO.C,R10*%
X165552380Y-93857142D02*
X165076190Y-93523809D01*
X165552380Y-93285714D02*
X164552380Y-93285714D01*
X164552380Y-93666666D01*
X164600000Y-93761904D01*
X164647619Y-93809523D01*
X164742857Y-93857142D01*
X164885714Y-93857142D01*
X164980952Y-93809523D01*
X165028571Y-93761904D01*
X165076190Y-93666666D01*
X165076190Y-93285714D01*
X165552380Y-94809523D02*
X165552380Y-94238095D01*
X165552380Y-94523809D02*
X164552380Y-94523809D01*
X164695238Y-94428571D01*
X164790476Y-94333333D01*
X164838095Y-94238095D01*
X164552380Y-95428571D02*
X164552380Y-95523809D01*
X164600000Y-95619047D01*
X164647619Y-95666666D01*
X164742857Y-95714285D01*
X164933333Y-95761904D01*
X165171428Y-95761904D01*
X165361904Y-95714285D01*
X165457142Y-95666666D01*
X165504761Y-95619047D01*
X165552380Y-95523809D01*
X165552380Y-95428571D01*
X165504761Y-95333333D01*
X165457142Y-95285714D01*
X165361904Y-95238095D01*
X165171428Y-95190476D01*
X164933333Y-95190476D01*
X164742857Y-95238095D01*
X164647619Y-95285714D01*
X164600000Y-95333333D01*
X164552380Y-95428571D01*
D14*
%TO.C,R1*%
X133330002Y-115101234D02*
X133330002Y-114775676D01*
X132310002Y-115101234D02*
X132310002Y-114775676D01*
%TO.C,C26*%
X131340580Y-88510000D02*
X131059420Y-88510000D01*
X131340580Y-87490000D02*
X131059420Y-87490000D01*
%TO.C,C23*%
X165960582Y-90178455D02*
X165679422Y-90178455D01*
X165960582Y-91198455D02*
X165679422Y-91198455D01*
%TO.C,C17*%
X132197112Y-81775676D02*
X132197112Y-82101234D01*
X133217112Y-81775676D02*
X133217112Y-82101234D01*
%TO.C,R13*%
X159092502Y-85175713D02*
X159092502Y-84701197D01*
X158047502Y-85175713D02*
X158047502Y-84701197D01*
%TO.C,J6*%
X167950002Y-95188455D02*
X167950002Y-93858455D01*
X165290002Y-96458455D02*
X165290002Y-99058455D01*
X167950002Y-93858455D02*
X166620002Y-93858455D01*
X167950002Y-96458455D02*
X165290002Y-96458455D01*
X167950002Y-96458455D02*
X167950002Y-99058455D01*
X167950002Y-99058455D02*
X165290002Y-99058455D01*
%TO.C,C18*%
X134717112Y-81775676D02*
X134717112Y-82101234D01*
X133697112Y-81775676D02*
X133697112Y-82101234D01*
%TO.C,R18*%
X163307260Y-96915955D02*
X162832744Y-96915955D01*
X163307260Y-97960955D02*
X162832744Y-97960955D01*
%TO.C,R20*%
X162547502Y-91201197D02*
X162547502Y-91675713D01*
X163592502Y-91201197D02*
X163592502Y-91675713D01*
%TO.C,C22*%
X161460582Y-80928455D02*
X161179422Y-80928455D01*
X161460582Y-81948455D02*
X161179422Y-81948455D01*
%TO.C,R19*%
X159547502Y-84701197D02*
X159547502Y-85175713D01*
X160592502Y-84701197D02*
X160592502Y-85175713D01*
%TO.C,Q4*%
X161850000Y-102910000D02*
X162500000Y-102910000D01*
X161850000Y-99790000D02*
X161200000Y-99790000D01*
X161850000Y-102910000D02*
X161200000Y-102910000D01*
X161850000Y-99790000D02*
X163525000Y-99790000D01*
%TO.C,R2*%
X131362779Y-90010000D02*
X131037221Y-90010000D01*
X131362779Y-88990000D02*
X131037221Y-88990000D01*
%TO.C,U2*%
X131960002Y-102298455D02*
X132260002Y-102298455D01*
X131960002Y-95078455D02*
X132260002Y-95078455D01*
X139180002Y-101998455D02*
X139180002Y-102298455D01*
X139180002Y-95378455D02*
X139180002Y-95078455D01*
X132260002Y-95078455D02*
X132260002Y-93763455D01*
X131960002Y-95378455D02*
X131960002Y-95078455D01*
X131960002Y-101998455D02*
X131960002Y-102298455D01*
X139180002Y-102298455D02*
X138880002Y-102298455D01*
X139180002Y-95078455D02*
X138880002Y-95078455D01*
%TO.C,R7*%
X131447112Y-92101234D02*
X131447112Y-91775676D01*
X132467112Y-92101234D02*
X132467112Y-91775676D01*
%TO.C,J1*%
X154460002Y-112398455D02*
X154460002Y-113898455D01*
X139160002Y-113898455D02*
X139160002Y-112398455D01*
X152970002Y-108098455D02*
X152970002Y-106898455D01*
X152970002Y-108098455D02*
X154460002Y-108098455D01*
X154460002Y-113898455D02*
X139160002Y-113898455D01*
X140650002Y-108098455D02*
X139160002Y-108098455D01*
%TO.C,Q3*%
X160320002Y-93248455D02*
X160970002Y-93248455D01*
X160320002Y-90128455D02*
X161995002Y-90128455D01*
X160320002Y-93248455D02*
X159670002Y-93248455D01*
X160320002Y-90128455D02*
X159670002Y-90128455D01*
%TO.C,R9*%
X136217112Y-81775676D02*
X136217112Y-82101234D01*
X135197112Y-81775676D02*
X135197112Y-82101234D01*
%TO.C,R21*%
X162832744Y-99422500D02*
X163307260Y-99422500D01*
X162832744Y-98377500D02*
X163307260Y-98377500D01*
%TO.C,J7*%
X165136816Y-106953307D02*
X162833188Y-105623307D01*
X165771816Y-105853455D02*
X166436816Y-104701641D01*
X165136816Y-106953307D02*
X163836816Y-109204973D01*
X162833188Y-105623307D02*
X161533188Y-107874973D01*
X166436816Y-104701641D02*
X165285002Y-104036641D01*
X163836816Y-109204973D02*
X161533188Y-107874973D01*
%TO.C,C24*%
X160929422Y-93928455D02*
X161210582Y-93928455D01*
X160929422Y-94948455D02*
X161210582Y-94948455D01*
%TO.C,U5*%
X133300000Y-84400000D02*
X133300000Y-84900000D01*
X135000000Y-86600000D02*
X135500000Y-86600000D01*
X133800000Y-86600000D02*
X133800000Y-86600000D01*
X135000000Y-84400000D02*
X135500000Y-84400000D01*
X133300000Y-84900000D02*
X133300000Y-84900000D01*
X135500000Y-86600000D02*
X135500000Y-86100000D01*
X135500000Y-86100000D02*
X135500000Y-86100000D01*
X133300000Y-86600000D02*
X133800000Y-86600000D01*
X133300000Y-86100000D02*
X133300000Y-86600000D01*
X133800000Y-84400000D02*
X133300000Y-84400000D01*
X135500000Y-84400000D02*
X135500000Y-84400000D01*
%TO.C,J2*%
X127260002Y-100278455D02*
X129030002Y-100278455D01*
X124980002Y-92658455D02*
X124720002Y-92658455D01*
X129030002Y-100278455D02*
X129030002Y-99898455D01*
X129030002Y-92658455D02*
X129030002Y-93038455D01*
X124720002Y-100278455D02*
X124980002Y-100278455D01*
X129030002Y-92658455D02*
X127260002Y-92658455D01*
%TO.C,Q1*%
X158310002Y-104858455D02*
X158310002Y-105788455D01*
X158310002Y-104858455D02*
X160470002Y-104858455D01*
X158310002Y-108018455D02*
X158310002Y-107088455D01*
X158310002Y-108018455D02*
X159770002Y-108018455D01*
%TO.C,BT1*%
X137847112Y-81090519D02*
X137847112Y-78286391D01*
X140567112Y-81090519D02*
X140567112Y-78286391D01*
%TO.C,C20*%
X137217112Y-78275676D02*
X137217112Y-78601234D01*
X136197112Y-78275676D02*
X136197112Y-78601234D01*
%TO.C,J5*%
X162803188Y-87153307D02*
X164103188Y-89404973D01*
X163806816Y-83571641D02*
X162655002Y-84236641D01*
X165106816Y-85823307D02*
X162803188Y-87153307D01*
X166406816Y-88074973D02*
X164103188Y-89404973D01*
X165106816Y-85823307D02*
X166406816Y-88074973D01*
X164471816Y-84723455D02*
X163806816Y-83571641D01*
%TO.C,R8*%
X158047502Y-81701197D02*
X158047502Y-82175713D01*
X159092502Y-81701197D02*
X159092502Y-82175713D01*
%TO.C,C21*%
X133090000Y-90137221D02*
X133090000Y-90462779D01*
X134110000Y-90137221D02*
X134110000Y-90462779D01*
%TO.C,R12*%
X161307260Y-96460955D02*
X160832744Y-96460955D01*
X161307260Y-95415955D02*
X160832744Y-95415955D01*
%TO.C,C7*%
X134900000Y-115112779D02*
X134900000Y-114787221D01*
X133880000Y-115112779D02*
X133880000Y-114787221D01*
%TO.C,Q2*%
X159820002Y-89748455D02*
X160470002Y-89748455D01*
X159820002Y-89748455D02*
X158145002Y-89748455D01*
X159820002Y-86628455D02*
X159170002Y-86628455D01*
X159820002Y-86628455D02*
X160470002Y-86628455D01*
%TO.C,C1*%
X131362779Y-85990000D02*
X131037221Y-85990000D01*
X131362779Y-87010000D02*
X131037221Y-87010000D01*
%TO.C,R14*%
X163297502Y-94451197D02*
X163297502Y-94925713D01*
X164342502Y-94451197D02*
X164342502Y-94925713D01*
%TO.C,Y1*%
X138260002Y-90688455D02*
X138260002Y-92748455D01*
X140380002Y-90688455D02*
X138260002Y-90688455D01*
X140380002Y-92748455D02*
X138260002Y-92748455D01*
X140380002Y-88628455D02*
X139320002Y-88628455D01*
X140380002Y-90688455D02*
X140380002Y-92748455D01*
X140380002Y-89688455D02*
X140380002Y-88628455D01*
%TO.C,R10*%
X165332744Y-91665955D02*
X165807260Y-91665955D01*
X165332744Y-92710955D02*
X165807260Y-92710955D01*
%TD*%
M02*
