%TF.GenerationSoftware,KiCad,Pcbnew,6.0.7-1.fc35*%
%TF.CreationDate,2022-11-05T20:30:00+01:00*%
%TF.ProjectId,sense_slim,73656e73-655f-4736-9c69-6d2e6b696361,rev?*%
%TF.SameCoordinates,Original*%
%TF.FileFunction,Legend,Top*%
%TF.FilePolarity,Positive*%
%FSLAX46Y46*%
G04 Gerber Fmt 4.6, Leading zero omitted, Abs format (unit mm)*
G04 Created by KiCad (PCBNEW 6.0.7-1.fc35) date 2022-11-05 20:30:00*
%MOMM*%
%LPD*%
G01*
G04 APERTURE LIST*
%ADD10C,0.150000*%
%ADD11C,0.120000*%
%ADD12C,0.100000*%
G04 APERTURE END LIST*
D10*
X152340000Y-113870000D02*
X152880000Y-114210000D01*
X131100000Y-90650000D02*
X131150000Y-90300000D01*
X130600000Y-82400000D02*
X131000000Y-82100000D01*
X149930000Y-114350000D02*
X150560000Y-113890000D01*
X128350000Y-87000000D02*
X129600000Y-86550000D01*
%TO.C,C25*%
X136807142Y-86692857D02*
X136854761Y-86740476D01*
X136902380Y-86883333D01*
X136902380Y-86978571D01*
X136854761Y-87121428D01*
X136759523Y-87216666D01*
X136664285Y-87264285D01*
X136473809Y-87311904D01*
X136330952Y-87311904D01*
X136140476Y-87264285D01*
X136045238Y-87216666D01*
X135950000Y-87121428D01*
X135902380Y-86978571D01*
X135902380Y-86883333D01*
X135950000Y-86740476D01*
X135997619Y-86692857D01*
X135997619Y-86311904D02*
X135950000Y-86264285D01*
X135902380Y-86169047D01*
X135902380Y-85930952D01*
X135950000Y-85835714D01*
X135997619Y-85788095D01*
X136092857Y-85740476D01*
X136188095Y-85740476D01*
X136330952Y-85788095D01*
X136902380Y-86359523D01*
X136902380Y-85740476D01*
X135902380Y-84835714D02*
X135902380Y-85311904D01*
X136378571Y-85359523D01*
X136330952Y-85311904D01*
X136283333Y-85216666D01*
X136283333Y-84978571D01*
X136330952Y-84883333D01*
X136378571Y-84835714D01*
X136473809Y-84788095D01*
X136711904Y-84788095D01*
X136807142Y-84835714D01*
X136854761Y-84883333D01*
X136902380Y-84978571D01*
X136902380Y-85216666D01*
X136854761Y-85311904D01*
X136807142Y-85359523D01*
%TO.C,R11*%
X131052380Y-84442857D02*
X130576190Y-84776190D01*
X131052380Y-85014285D02*
X130052380Y-85014285D01*
X130052380Y-84633333D01*
X130100000Y-84538095D01*
X130147619Y-84490476D01*
X130242857Y-84442857D01*
X130385714Y-84442857D01*
X130480952Y-84490476D01*
X130528571Y-84538095D01*
X130576190Y-84633333D01*
X130576190Y-85014285D01*
X131052380Y-83490476D02*
X131052380Y-84061904D01*
X131052380Y-83776190D02*
X130052380Y-83776190D01*
X130195238Y-83871428D01*
X130290476Y-83966666D01*
X130338095Y-84061904D01*
X131052380Y-82538095D02*
X131052380Y-83109523D01*
X131052380Y-82823809D02*
X130052380Y-82823809D01*
X130195238Y-82919047D01*
X130290476Y-83014285D01*
X130338095Y-83109523D01*
%TO.C,R3*%
X131083333Y-91802380D02*
X130750000Y-91326190D01*
X130511904Y-91802380D02*
X130511904Y-90802380D01*
X130892857Y-90802380D01*
X130988095Y-90850000D01*
X131035714Y-90897619D01*
X131083333Y-90992857D01*
X131083333Y-91135714D01*
X131035714Y-91230952D01*
X130988095Y-91278571D01*
X130892857Y-91326190D01*
X130511904Y-91326190D01*
X131416666Y-90802380D02*
X132035714Y-90802380D01*
X131702380Y-91183333D01*
X131845238Y-91183333D01*
X131940476Y-91230952D01*
X131988095Y-91278571D01*
X132035714Y-91373809D01*
X132035714Y-91611904D01*
X131988095Y-91707142D01*
X131940476Y-91754761D01*
X131845238Y-91802380D01*
X131559523Y-91802380D01*
X131464285Y-91754761D01*
X131416666Y-91707142D01*
%TO.C,C29*%
X134683084Y-97708577D02*
X134635465Y-97756196D01*
X134492608Y-97803815D01*
X134397370Y-97803815D01*
X134254513Y-97756196D01*
X134159275Y-97660958D01*
X134111656Y-97565720D01*
X134064037Y-97375244D01*
X134064037Y-97232387D01*
X134111656Y-97041911D01*
X134159275Y-96946673D01*
X134254513Y-96851435D01*
X134397370Y-96803815D01*
X134492608Y-96803815D01*
X134635465Y-96851435D01*
X134683084Y-96899054D01*
X135064037Y-96899054D02*
X135111656Y-96851435D01*
X135206894Y-96803815D01*
X135444989Y-96803815D01*
X135540227Y-96851435D01*
X135587846Y-96899054D01*
X135635465Y-96994292D01*
X135635465Y-97089530D01*
X135587846Y-97232387D01*
X135016418Y-97803815D01*
X135635465Y-97803815D01*
X136111656Y-97803815D02*
X136302132Y-97803815D01*
X136397370Y-97756196D01*
X136444989Y-97708577D01*
X136540227Y-97565720D01*
X136587846Y-97375244D01*
X136587846Y-96994292D01*
X136540227Y-96899054D01*
X136492608Y-96851435D01*
X136397370Y-96803815D01*
X136206894Y-96803815D01*
X136111656Y-96851435D01*
X136064037Y-96899054D01*
X136016418Y-96994292D01*
X136016418Y-97232387D01*
X136064037Y-97327625D01*
X136111656Y-97375244D01*
X136206894Y-97422863D01*
X136397370Y-97422863D01*
X136492608Y-97375244D01*
X136540227Y-97327625D01*
X136587846Y-97232387D01*
%TO.C,C3*%
X136133333Y-89057142D02*
X136085714Y-89104761D01*
X135942857Y-89152380D01*
X135847619Y-89152380D01*
X135704761Y-89104761D01*
X135609523Y-89009523D01*
X135561904Y-88914285D01*
X135514285Y-88723809D01*
X135514285Y-88580952D01*
X135561904Y-88390476D01*
X135609523Y-88295238D01*
X135704761Y-88200000D01*
X135847619Y-88152380D01*
X135942857Y-88152380D01*
X136085714Y-88200000D01*
X136133333Y-88247619D01*
X136466666Y-88152380D02*
X137085714Y-88152380D01*
X136752380Y-88533333D01*
X136895238Y-88533333D01*
X136990476Y-88580952D01*
X137038095Y-88628571D01*
X137085714Y-88723809D01*
X137085714Y-88961904D01*
X137038095Y-89057142D01*
X136990476Y-89104761D01*
X136895238Y-89152380D01*
X136609523Y-89152380D01*
X136514285Y-89104761D01*
X136466666Y-89057142D01*
%TO.C,U4*%
X133760983Y-84273925D02*
X133760983Y-85083449D01*
X133808602Y-85178687D01*
X133856221Y-85226306D01*
X133951459Y-85273925D01*
X134141935Y-85273925D01*
X134237173Y-85226306D01*
X134284792Y-85178687D01*
X134332411Y-85083449D01*
X134332411Y-84273925D01*
X135237173Y-84607259D02*
X135237173Y-85273925D01*
X134999078Y-84226306D02*
X134760983Y-84940592D01*
X135380030Y-84940592D01*
%TO.C,R22*%
X131202380Y-94392857D02*
X130726190Y-94726190D01*
X131202380Y-94964285D02*
X130202380Y-94964285D01*
X130202380Y-94583333D01*
X130250000Y-94488095D01*
X130297619Y-94440476D01*
X130392857Y-94392857D01*
X130535714Y-94392857D01*
X130630952Y-94440476D01*
X130678571Y-94488095D01*
X130726190Y-94583333D01*
X130726190Y-94964285D01*
X130297619Y-94011904D02*
X130250000Y-93964285D01*
X130202380Y-93869047D01*
X130202380Y-93630952D01*
X130250000Y-93535714D01*
X130297619Y-93488095D01*
X130392857Y-93440476D01*
X130488095Y-93440476D01*
X130630952Y-93488095D01*
X131202380Y-94059523D01*
X131202380Y-93440476D01*
X130297619Y-93059523D02*
X130250000Y-93011904D01*
X130202380Y-92916666D01*
X130202380Y-92678571D01*
X130250000Y-92583333D01*
X130297619Y-92535714D01*
X130392857Y-92488095D01*
X130488095Y-92488095D01*
X130630952Y-92535714D01*
X131202380Y-93107142D01*
X131202380Y-92488095D01*
%TO.C,C14*%
X149017142Y-115387142D02*
X148969523Y-115434761D01*
X148826666Y-115482380D01*
X148731428Y-115482380D01*
X148588571Y-115434761D01*
X148493333Y-115339523D01*
X148445714Y-115244285D01*
X148398095Y-115053809D01*
X148398095Y-114910952D01*
X148445714Y-114720476D01*
X148493333Y-114625238D01*
X148588571Y-114530000D01*
X148731428Y-114482380D01*
X148826666Y-114482380D01*
X148969523Y-114530000D01*
X149017142Y-114577619D01*
X149969523Y-115482380D02*
X149398095Y-115482380D01*
X149683809Y-115482380D02*
X149683809Y-114482380D01*
X149588571Y-114625238D01*
X149493333Y-114720476D01*
X149398095Y-114768095D01*
X150826666Y-114815714D02*
X150826666Y-115482380D01*
X150588571Y-114434761D02*
X150350476Y-115149047D01*
X150969523Y-115149047D01*
%TO.C,D1*%
X162301906Y-101240835D02*
X162301906Y-100240835D01*
X162540002Y-100240835D01*
X162682859Y-100288455D01*
X162778097Y-100383693D01*
X162825716Y-100478931D01*
X162873335Y-100669407D01*
X162873335Y-100812264D01*
X162825716Y-101002740D01*
X162778097Y-101097978D01*
X162682859Y-101193216D01*
X162540002Y-101240835D01*
X162301906Y-101240835D01*
X163825716Y-101240835D02*
X163254287Y-101240835D01*
X163540002Y-101240835D02*
X163540002Y-100240835D01*
X163444763Y-100383693D01*
X163349525Y-100478931D01*
X163254287Y-100526550D01*
%TO.C,R15*%
X141567142Y-106722380D02*
X141233809Y-106246190D01*
X140995714Y-106722380D02*
X140995714Y-105722380D01*
X141376666Y-105722380D01*
X141471904Y-105770000D01*
X141519523Y-105817619D01*
X141567142Y-105912857D01*
X141567142Y-106055714D01*
X141519523Y-106150952D01*
X141471904Y-106198571D01*
X141376666Y-106246190D01*
X140995714Y-106246190D01*
X142519523Y-106722380D02*
X141948095Y-106722380D01*
X142233809Y-106722380D02*
X142233809Y-105722380D01*
X142138571Y-105865238D01*
X142043333Y-105960476D01*
X141948095Y-106008095D01*
X143424285Y-105722380D02*
X142948095Y-105722380D01*
X142900476Y-106198571D01*
X142948095Y-106150952D01*
X143043333Y-106103333D01*
X143281428Y-106103333D01*
X143376666Y-106150952D01*
X143424285Y-106198571D01*
X143471904Y-106293809D01*
X143471904Y-106531904D01*
X143424285Y-106627142D01*
X143376666Y-106674761D01*
X143281428Y-106722380D01*
X143043333Y-106722380D01*
X142948095Y-106674761D01*
X142900476Y-106627142D01*
%TO.C,C15*%
X152117142Y-115397142D02*
X152069523Y-115444761D01*
X151926666Y-115492380D01*
X151831428Y-115492380D01*
X151688571Y-115444761D01*
X151593333Y-115349523D01*
X151545714Y-115254285D01*
X151498095Y-115063809D01*
X151498095Y-114920952D01*
X151545714Y-114730476D01*
X151593333Y-114635238D01*
X151688571Y-114540000D01*
X151831428Y-114492380D01*
X151926666Y-114492380D01*
X152069523Y-114540000D01*
X152117142Y-114587619D01*
X153069523Y-115492380D02*
X152498095Y-115492380D01*
X152783809Y-115492380D02*
X152783809Y-114492380D01*
X152688571Y-114635238D01*
X152593333Y-114730476D01*
X152498095Y-114778095D01*
X153974285Y-114492380D02*
X153498095Y-114492380D01*
X153450476Y-114968571D01*
X153498095Y-114920952D01*
X153593333Y-114873333D01*
X153831428Y-114873333D01*
X153926666Y-114920952D01*
X153974285Y-114968571D01*
X154021904Y-115063809D01*
X154021904Y-115301904D01*
X153974285Y-115397142D01*
X153926666Y-115444761D01*
X153831428Y-115492380D01*
X153593333Y-115492380D01*
X153498095Y-115444761D01*
X153450476Y-115397142D01*
%TO.C,C10*%
X144927144Y-110081312D02*
X144974763Y-110128931D01*
X145022382Y-110271788D01*
X145022382Y-110367026D01*
X144974763Y-110509883D01*
X144879525Y-110605121D01*
X144784287Y-110652740D01*
X144593811Y-110700359D01*
X144450954Y-110700359D01*
X144260478Y-110652740D01*
X144165240Y-110605121D01*
X144070002Y-110509883D01*
X144022382Y-110367026D01*
X144022382Y-110271788D01*
X144070002Y-110128931D01*
X144117621Y-110081312D01*
X145022382Y-109128931D02*
X145022382Y-109700359D01*
X145022382Y-109414645D02*
X144022382Y-109414645D01*
X144165240Y-109509883D01*
X144260478Y-109605121D01*
X144308097Y-109700359D01*
X144022382Y-108509883D02*
X144022382Y-108414645D01*
X144070002Y-108319407D01*
X144117621Y-108271788D01*
X144212859Y-108224169D01*
X144403335Y-108176550D01*
X144641430Y-108176550D01*
X144831906Y-108224169D01*
X144927144Y-108271788D01*
X144974763Y-108319407D01*
X145022382Y-108414645D01*
X145022382Y-108509883D01*
X144974763Y-108605121D01*
X144927144Y-108652740D01*
X144831906Y-108700359D01*
X144641430Y-108747978D01*
X144403335Y-108747978D01*
X144212859Y-108700359D01*
X144117621Y-108652740D01*
X144070002Y-108605121D01*
X144022382Y-108509883D01*
%TO.C,CP2*%
X150253333Y-106709142D02*
X150205714Y-106756761D01*
X150062857Y-106804380D01*
X149967619Y-106804380D01*
X149824761Y-106756761D01*
X149729523Y-106661523D01*
X149681904Y-106566285D01*
X149634285Y-106375809D01*
X149634285Y-106232952D01*
X149681904Y-106042476D01*
X149729523Y-105947238D01*
X149824761Y-105852000D01*
X149967619Y-105804380D01*
X150062857Y-105804380D01*
X150205714Y-105852000D01*
X150253333Y-105899619D01*
X150681904Y-106804380D02*
X150681904Y-105804380D01*
X151062857Y-105804380D01*
X151158095Y-105852000D01*
X151205714Y-105899619D01*
X151253333Y-105994857D01*
X151253333Y-106137714D01*
X151205714Y-106232952D01*
X151158095Y-106280571D01*
X151062857Y-106328190D01*
X150681904Y-106328190D01*
X151634285Y-105899619D02*
X151681904Y-105852000D01*
X151777142Y-105804380D01*
X152015238Y-105804380D01*
X152110476Y-105852000D01*
X152158095Y-105899619D01*
X152205714Y-105994857D01*
X152205714Y-106090095D01*
X152158095Y-106232952D01*
X151586666Y-106804380D01*
X152205714Y-106804380D01*
%TO.C,C19*%
X127677144Y-98865597D02*
X127629525Y-98913216D01*
X127486668Y-98960835D01*
X127391430Y-98960835D01*
X127248573Y-98913216D01*
X127153335Y-98817978D01*
X127105716Y-98722740D01*
X127058097Y-98532264D01*
X127058097Y-98389407D01*
X127105716Y-98198931D01*
X127153335Y-98103693D01*
X127248573Y-98008455D01*
X127391430Y-97960835D01*
X127486668Y-97960835D01*
X127629525Y-98008455D01*
X127677144Y-98056074D01*
X128629525Y-98960835D02*
X128058097Y-98960835D01*
X128343811Y-98960835D02*
X128343811Y-97960835D01*
X128248573Y-98103693D01*
X128153335Y-98198931D01*
X128058097Y-98246550D01*
X129105716Y-98960835D02*
X129296192Y-98960835D01*
X129391430Y-98913216D01*
X129439049Y-98865597D01*
X129534287Y-98722740D01*
X129581906Y-98532264D01*
X129581906Y-98151312D01*
X129534287Y-98056074D01*
X129486668Y-98008455D01*
X129391430Y-97960835D01*
X129200954Y-97960835D01*
X129105716Y-98008455D01*
X129058097Y-98056074D01*
X129010478Y-98151312D01*
X129010478Y-98389407D01*
X129058097Y-98484645D01*
X129105716Y-98532264D01*
X129200954Y-98579883D01*
X129391430Y-98579883D01*
X129486668Y-98532264D01*
X129534287Y-98484645D01*
X129581906Y-98389407D01*
%TO.C,C12*%
X147447142Y-110102857D02*
X147494761Y-110150476D01*
X147542380Y-110293333D01*
X147542380Y-110388571D01*
X147494761Y-110531428D01*
X147399523Y-110626666D01*
X147304285Y-110674285D01*
X147113809Y-110721904D01*
X146970952Y-110721904D01*
X146780476Y-110674285D01*
X146685238Y-110626666D01*
X146590000Y-110531428D01*
X146542380Y-110388571D01*
X146542380Y-110293333D01*
X146590000Y-110150476D01*
X146637619Y-110102857D01*
X147542380Y-109150476D02*
X147542380Y-109721904D01*
X147542380Y-109436190D02*
X146542380Y-109436190D01*
X146685238Y-109531428D01*
X146780476Y-109626666D01*
X146828095Y-109721904D01*
X146637619Y-108769523D02*
X146590000Y-108721904D01*
X146542380Y-108626666D01*
X146542380Y-108388571D01*
X146590000Y-108293333D01*
X146637619Y-108245714D01*
X146732857Y-108198095D01*
X146828095Y-108198095D01*
X146970952Y-108245714D01*
X147542380Y-108817142D01*
X147542380Y-108198095D01*
%TO.C,R6*%
X134152380Y-94566666D02*
X133676190Y-94900000D01*
X134152380Y-95138095D02*
X133152380Y-95138095D01*
X133152380Y-94757142D01*
X133200000Y-94661904D01*
X133247619Y-94614285D01*
X133342857Y-94566666D01*
X133485714Y-94566666D01*
X133580952Y-94614285D01*
X133628571Y-94661904D01*
X133676190Y-94757142D01*
X133676190Y-95138095D01*
X133152380Y-93709523D02*
X133152380Y-93900000D01*
X133200000Y-93995238D01*
X133247619Y-94042857D01*
X133390476Y-94138095D01*
X133580952Y-94185714D01*
X133961904Y-94185714D01*
X134057142Y-94138095D01*
X134104761Y-94090476D01*
X134152380Y-93995238D01*
X134152380Y-93804761D01*
X134104761Y-93709523D01*
X134057142Y-93661904D01*
X133961904Y-93614285D01*
X133723809Y-93614285D01*
X133628571Y-93661904D01*
X133580952Y-93709523D01*
X133533333Y-93804761D01*
X133533333Y-93995238D01*
X133580952Y-94090476D01*
X133628571Y-94138095D01*
X133723809Y-94185714D01*
%TO.C,C5*%
X158583333Y-117197142D02*
X158535714Y-117244761D01*
X158392857Y-117292380D01*
X158297619Y-117292380D01*
X158154761Y-117244761D01*
X158059523Y-117149523D01*
X158011904Y-117054285D01*
X157964285Y-116863809D01*
X157964285Y-116720952D01*
X158011904Y-116530476D01*
X158059523Y-116435238D01*
X158154761Y-116340000D01*
X158297619Y-116292380D01*
X158392857Y-116292380D01*
X158535714Y-116340000D01*
X158583333Y-116387619D01*
X159488095Y-116292380D02*
X159011904Y-116292380D01*
X158964285Y-116768571D01*
X159011904Y-116720952D01*
X159107142Y-116673333D01*
X159345238Y-116673333D01*
X159440476Y-116720952D01*
X159488095Y-116768571D01*
X159535714Y-116863809D01*
X159535714Y-117101904D01*
X159488095Y-117197142D01*
X159440476Y-117244761D01*
X159345238Y-117292380D01*
X159107142Y-117292380D01*
X159011904Y-117244761D01*
X158964285Y-117197142D01*
%TO.C,C11*%
X146197142Y-110072857D02*
X146244761Y-110120476D01*
X146292380Y-110263333D01*
X146292380Y-110358571D01*
X146244761Y-110501428D01*
X146149523Y-110596666D01*
X146054285Y-110644285D01*
X145863809Y-110691904D01*
X145720952Y-110691904D01*
X145530476Y-110644285D01*
X145435238Y-110596666D01*
X145340000Y-110501428D01*
X145292380Y-110358571D01*
X145292380Y-110263333D01*
X145340000Y-110120476D01*
X145387619Y-110072857D01*
X146292380Y-109120476D02*
X146292380Y-109691904D01*
X146292380Y-109406190D02*
X145292380Y-109406190D01*
X145435238Y-109501428D01*
X145530476Y-109596666D01*
X145578095Y-109691904D01*
X146292380Y-108168095D02*
X146292380Y-108739523D01*
X146292380Y-108453809D02*
X145292380Y-108453809D01*
X145435238Y-108549047D01*
X145530476Y-108644285D01*
X145578095Y-108739523D01*
%TO.C,U1*%
X138088095Y-87352380D02*
X138088095Y-88161904D01*
X138135714Y-88257142D01*
X138183333Y-88304761D01*
X138278571Y-88352380D01*
X138469047Y-88352380D01*
X138564285Y-88304761D01*
X138611904Y-88257142D01*
X138659523Y-88161904D01*
X138659523Y-87352380D01*
X139659523Y-88352380D02*
X139088095Y-88352380D01*
X139373809Y-88352380D02*
X139373809Y-87352380D01*
X139278571Y-87495238D01*
X139183333Y-87590476D01*
X139088095Y-87638095D01*
%TO.C,R4*%
X141252378Y-110033211D02*
X140776188Y-110366545D01*
X141252378Y-110604640D02*
X140252378Y-110604640D01*
X140252378Y-110223687D01*
X140299998Y-110128449D01*
X140347617Y-110080830D01*
X140442855Y-110033211D01*
X140585712Y-110033211D01*
X140680950Y-110080830D01*
X140728569Y-110128449D01*
X140776188Y-110223687D01*
X140776188Y-110604640D01*
X140585712Y-109176068D02*
X141252378Y-109176068D01*
X140204759Y-109414164D02*
X140919045Y-109652259D01*
X140919045Y-109033211D01*
%TO.C,D2*%
X162401906Y-103640835D02*
X162401906Y-102640835D01*
X162640002Y-102640835D01*
X162782859Y-102688455D01*
X162878097Y-102783693D01*
X162925716Y-102878931D01*
X162973335Y-103069407D01*
X162973335Y-103212264D01*
X162925716Y-103402740D01*
X162878097Y-103497978D01*
X162782859Y-103593216D01*
X162640002Y-103640835D01*
X162401906Y-103640835D01*
X163354287Y-102736074D02*
X163401906Y-102688455D01*
X163497144Y-102640835D01*
X163735240Y-102640835D01*
X163830478Y-102688455D01*
X163878097Y-102736074D01*
X163925716Y-102831312D01*
X163925716Y-102926550D01*
X163878097Y-103069407D01*
X163306668Y-103640835D01*
X163925716Y-103640835D01*
%TO.C,C16*%
X154127144Y-109862857D02*
X154174763Y-109910476D01*
X154222382Y-110053333D01*
X154222382Y-110148571D01*
X154174763Y-110291428D01*
X154079525Y-110386666D01*
X153984287Y-110434285D01*
X153793811Y-110481904D01*
X153650954Y-110481904D01*
X153460478Y-110434285D01*
X153365240Y-110386666D01*
X153270002Y-110291428D01*
X153222382Y-110148571D01*
X153222382Y-110053333D01*
X153270002Y-109910476D01*
X153317621Y-109862857D01*
X154222382Y-108910476D02*
X154222382Y-109481904D01*
X154222382Y-109196190D02*
X153222382Y-109196190D01*
X153365240Y-109291428D01*
X153460478Y-109386666D01*
X153508097Y-109481904D01*
X153222382Y-108053333D02*
X153222382Y-108243809D01*
X153270002Y-108339047D01*
X153317621Y-108386666D01*
X153460478Y-108481904D01*
X153650954Y-108529523D01*
X154031906Y-108529523D01*
X154127144Y-108481904D01*
X154174763Y-108434285D01*
X154222382Y-108339047D01*
X154222382Y-108148571D01*
X154174763Y-108053333D01*
X154127144Y-108005714D01*
X154031906Y-107958095D01*
X153793811Y-107958095D01*
X153698573Y-108005714D01*
X153650954Y-108053333D01*
X153603335Y-108148571D01*
X153603335Y-108339047D01*
X153650954Y-108434285D01*
X153698573Y-108481904D01*
X153793811Y-108529523D01*
%TO.C,C2*%
X133583333Y-88277142D02*
X133535714Y-88324761D01*
X133392857Y-88372380D01*
X133297619Y-88372380D01*
X133154761Y-88324761D01*
X133059523Y-88229523D01*
X133011904Y-88134285D01*
X132964285Y-87943809D01*
X132964285Y-87800952D01*
X133011904Y-87610476D01*
X133059523Y-87515238D01*
X133154761Y-87420000D01*
X133297619Y-87372380D01*
X133392857Y-87372380D01*
X133535714Y-87420000D01*
X133583333Y-87467619D01*
X133964285Y-87467619D02*
X134011904Y-87420000D01*
X134107142Y-87372380D01*
X134345238Y-87372380D01*
X134440476Y-87420000D01*
X134488095Y-87467619D01*
X134535714Y-87562857D01*
X134535714Y-87658095D01*
X134488095Y-87800952D01*
X133916666Y-88372380D01*
X134535714Y-88372380D01*
%TO.C,C13*%
X148797142Y-110082857D02*
X148844761Y-110130476D01*
X148892380Y-110273333D01*
X148892380Y-110368571D01*
X148844761Y-110511428D01*
X148749523Y-110606666D01*
X148654285Y-110654285D01*
X148463809Y-110701904D01*
X148320952Y-110701904D01*
X148130476Y-110654285D01*
X148035238Y-110606666D01*
X147940000Y-110511428D01*
X147892380Y-110368571D01*
X147892380Y-110273333D01*
X147940000Y-110130476D01*
X147987619Y-110082857D01*
X148892380Y-109130476D02*
X148892380Y-109701904D01*
X148892380Y-109416190D02*
X147892380Y-109416190D01*
X148035238Y-109511428D01*
X148130476Y-109606666D01*
X148178095Y-109701904D01*
X147892380Y-108797142D02*
X147892380Y-108178095D01*
X148273333Y-108511428D01*
X148273333Y-108368571D01*
X148320952Y-108273333D01*
X148368571Y-108225714D01*
X148463809Y-108178095D01*
X148701904Y-108178095D01*
X148797142Y-108225714D01*
X148844761Y-108273333D01*
X148892380Y-108368571D01*
X148892380Y-108654285D01*
X148844761Y-108749523D01*
X148797142Y-108797142D01*
%TO.C,D4*%
X129102380Y-93438095D02*
X128102380Y-93438095D01*
X128102380Y-93200000D01*
X128150000Y-93057142D01*
X128245238Y-92961904D01*
X128340476Y-92914285D01*
X128530952Y-92866666D01*
X128673809Y-92866666D01*
X128864285Y-92914285D01*
X128959523Y-92961904D01*
X129054761Y-93057142D01*
X129102380Y-93200000D01*
X129102380Y-93438095D01*
X128435714Y-92009523D02*
X129102380Y-92009523D01*
X128054761Y-92247619D02*
X128769047Y-92485714D01*
X128769047Y-91866666D01*
%TO.C,CP1*%
X135953333Y-99459142D02*
X135905714Y-99506761D01*
X135762857Y-99554380D01*
X135667619Y-99554380D01*
X135524761Y-99506761D01*
X135429523Y-99411523D01*
X135381904Y-99316285D01*
X135334285Y-99125809D01*
X135334285Y-98982952D01*
X135381904Y-98792476D01*
X135429523Y-98697238D01*
X135524761Y-98602000D01*
X135667619Y-98554380D01*
X135762857Y-98554380D01*
X135905714Y-98602000D01*
X135953333Y-98649619D01*
X136381904Y-99554380D02*
X136381904Y-98554380D01*
X136762857Y-98554380D01*
X136858095Y-98602000D01*
X136905714Y-98649619D01*
X136953333Y-98744857D01*
X136953333Y-98887714D01*
X136905714Y-98982952D01*
X136858095Y-99030571D01*
X136762857Y-99078190D01*
X136381904Y-99078190D01*
X137905714Y-99554380D02*
X137334285Y-99554380D01*
X137620000Y-99554380D02*
X137620000Y-98554380D01*
X137524761Y-98697238D01*
X137429523Y-98792476D01*
X137334285Y-98840095D01*
%TO.C,U3*%
X137788095Y-78952380D02*
X137788095Y-79761904D01*
X137835714Y-79857142D01*
X137883333Y-79904761D01*
X137978571Y-79952380D01*
X138169047Y-79952380D01*
X138264285Y-79904761D01*
X138311904Y-79857142D01*
X138359523Y-79761904D01*
X138359523Y-78952380D01*
X138740476Y-78952380D02*
X139359523Y-78952380D01*
X139026190Y-79333333D01*
X139169047Y-79333333D01*
X139264285Y-79380952D01*
X139311904Y-79428571D01*
X139359523Y-79523809D01*
X139359523Y-79761904D01*
X139311904Y-79857142D01*
X139264285Y-79904761D01*
X139169047Y-79952380D01*
X138883333Y-79952380D01*
X138788095Y-79904761D01*
X138740476Y-79857142D01*
%TO.C,C6*%
X158743335Y-94495597D02*
X158695716Y-94543216D01*
X158552859Y-94590835D01*
X158457621Y-94590835D01*
X158314763Y-94543216D01*
X158219525Y-94447978D01*
X158171906Y-94352740D01*
X158124287Y-94162264D01*
X158124287Y-94019407D01*
X158171906Y-93828931D01*
X158219525Y-93733693D01*
X158314763Y-93638455D01*
X158457621Y-93590835D01*
X158552859Y-93590835D01*
X158695716Y-93638455D01*
X158743335Y-93686074D01*
X159600478Y-93590835D02*
X159410002Y-93590835D01*
X159314763Y-93638455D01*
X159267144Y-93686074D01*
X159171906Y-93828931D01*
X159124287Y-94019407D01*
X159124287Y-94400359D01*
X159171906Y-94495597D01*
X159219525Y-94543216D01*
X159314763Y-94590835D01*
X159505240Y-94590835D01*
X159600478Y-94543216D01*
X159648097Y-94495597D01*
X159695716Y-94400359D01*
X159695716Y-94162264D01*
X159648097Y-94067026D01*
X159600478Y-94019407D01*
X159505240Y-93971788D01*
X159314763Y-93971788D01*
X159219525Y-94019407D01*
X159171906Y-94067026D01*
X159124287Y-94162264D01*
%TO.C,C9*%
X143467144Y-109605121D02*
X143514763Y-109652740D01*
X143562382Y-109795597D01*
X143562382Y-109890835D01*
X143514763Y-110033693D01*
X143419525Y-110128931D01*
X143324287Y-110176550D01*
X143133811Y-110224169D01*
X142990954Y-110224169D01*
X142800478Y-110176550D01*
X142705240Y-110128931D01*
X142610002Y-110033693D01*
X142562382Y-109890835D01*
X142562382Y-109795597D01*
X142610002Y-109652740D01*
X142657621Y-109605121D01*
X143562382Y-109128931D02*
X143562382Y-108938455D01*
X143514763Y-108843216D01*
X143467144Y-108795597D01*
X143324287Y-108700359D01*
X143133811Y-108652740D01*
X142752859Y-108652740D01*
X142657621Y-108700359D01*
X142610002Y-108747978D01*
X142562382Y-108843216D01*
X142562382Y-109033693D01*
X142610002Y-109128931D01*
X142657621Y-109176550D01*
X142752859Y-109224169D01*
X142990954Y-109224169D01*
X143086192Y-109176550D01*
X143133811Y-109128931D01*
X143181430Y-109033693D01*
X143181430Y-108843216D01*
X143133811Y-108747978D01*
X143086192Y-108700359D01*
X142990954Y-108652740D01*
%TO.C,C4*%
X136033333Y-93107142D02*
X135985714Y-93154761D01*
X135842857Y-93202380D01*
X135747619Y-93202380D01*
X135604761Y-93154761D01*
X135509523Y-93059523D01*
X135461904Y-92964285D01*
X135414285Y-92773809D01*
X135414285Y-92630952D01*
X135461904Y-92440476D01*
X135509523Y-92345238D01*
X135604761Y-92250000D01*
X135747619Y-92202380D01*
X135842857Y-92202380D01*
X135985714Y-92250000D01*
X136033333Y-92297619D01*
X136890476Y-92535714D02*
X136890476Y-93202380D01*
X136652380Y-92154761D02*
X136414285Y-92869047D01*
X137033333Y-92869047D01*
%TO.C,C30*%
X130927144Y-97975597D02*
X130879525Y-98023216D01*
X130736668Y-98070835D01*
X130641430Y-98070835D01*
X130498573Y-98023216D01*
X130403335Y-97927978D01*
X130355716Y-97832740D01*
X130308097Y-97642264D01*
X130308097Y-97499407D01*
X130355716Y-97308931D01*
X130403335Y-97213693D01*
X130498573Y-97118455D01*
X130641430Y-97070835D01*
X130736668Y-97070835D01*
X130879525Y-97118455D01*
X130927144Y-97166074D01*
X131260478Y-97070835D02*
X131879525Y-97070835D01*
X131546192Y-97451788D01*
X131689049Y-97451788D01*
X131784287Y-97499407D01*
X131831906Y-97547026D01*
X131879525Y-97642264D01*
X131879525Y-97880359D01*
X131831906Y-97975597D01*
X131784287Y-98023216D01*
X131689049Y-98070835D01*
X131403335Y-98070835D01*
X131308097Y-98023216D01*
X131260478Y-97975597D01*
X132498573Y-97070835D02*
X132593811Y-97070835D01*
X132689049Y-97118455D01*
X132736668Y-97166074D01*
X132784287Y-97261312D01*
X132831906Y-97451788D01*
X132831906Y-97689883D01*
X132784287Y-97880359D01*
X132736668Y-97975597D01*
X132689049Y-98023216D01*
X132593811Y-98070835D01*
X132498573Y-98070835D01*
X132403335Y-98023216D01*
X132355716Y-97975597D01*
X132308097Y-97880359D01*
X132260478Y-97689883D01*
X132260478Y-97451788D01*
X132308097Y-97261312D01*
X132355716Y-97166074D01*
X132403335Y-97118455D01*
X132498573Y-97070835D01*
%TO.C,D5*%
X127402380Y-93438095D02*
X126402380Y-93438095D01*
X126402380Y-93200000D01*
X126450000Y-93057142D01*
X126545238Y-92961904D01*
X126640476Y-92914285D01*
X126830952Y-92866666D01*
X126973809Y-92866666D01*
X127164285Y-92914285D01*
X127259523Y-92961904D01*
X127354761Y-93057142D01*
X127402380Y-93200000D01*
X127402380Y-93438095D01*
X126402380Y-91961904D02*
X126402380Y-92438095D01*
X126878571Y-92485714D01*
X126830952Y-92438095D01*
X126783333Y-92342857D01*
X126783333Y-92104761D01*
X126830952Y-92009523D01*
X126878571Y-91961904D01*
X126973809Y-91914285D01*
X127211904Y-91914285D01*
X127307142Y-91961904D01*
X127354761Y-92009523D01*
X127402380Y-92104761D01*
X127402380Y-92342857D01*
X127354761Y-92438095D01*
X127307142Y-92485714D01*
%TO.C,L1*%
X159202380Y-112855121D02*
X159202380Y-113331312D01*
X158202380Y-113331312D01*
X159202380Y-111997978D02*
X159202380Y-112569407D01*
X159202380Y-112283693D02*
X158202380Y-112283693D01*
X158345238Y-112378931D01*
X158440476Y-112474169D01*
X158488095Y-112569407D01*
%TO.C,J3*%
X137237619Y-104566666D02*
X136523333Y-104566666D01*
X136380476Y-104519047D01*
X136285238Y-104423809D01*
X136237619Y-104280952D01*
X136237619Y-104185714D01*
X137237619Y-104947619D02*
X137237619Y-105566666D01*
X136856666Y-105233333D01*
X136856666Y-105376190D01*
X136809047Y-105471428D01*
X136761428Y-105519047D01*
X136666190Y-105566666D01*
X136428095Y-105566666D01*
X136332857Y-105519047D01*
X136285238Y-105471428D01*
X136237619Y-105376190D01*
X136237619Y-105090476D01*
X136285238Y-104995238D01*
X136332857Y-104947619D01*
%TO.C,R5*%
X139432380Y-110033211D02*
X138956190Y-110366545D01*
X139432380Y-110604640D02*
X138432380Y-110604640D01*
X138432380Y-110223687D01*
X138480000Y-110128449D01*
X138527619Y-110080830D01*
X138622857Y-110033211D01*
X138765714Y-110033211D01*
X138860952Y-110080830D01*
X138908571Y-110128449D01*
X138956190Y-110223687D01*
X138956190Y-110604640D01*
X138432380Y-109128449D02*
X138432380Y-109604640D01*
X138908571Y-109652259D01*
X138860952Y-109604640D01*
X138813333Y-109509402D01*
X138813333Y-109271306D01*
X138860952Y-109176068D01*
X138908571Y-109128449D01*
X139003809Y-109080830D01*
X139241904Y-109080830D01*
X139337142Y-109128449D01*
X139384761Y-109176068D01*
X139432380Y-109271306D01*
X139432380Y-109509402D01*
X139384761Y-109604640D01*
X139337142Y-109652259D01*
%TO.C,D3*%
X162456904Y-98877380D02*
X162456904Y-97877380D01*
X162695000Y-97877380D01*
X162837857Y-97925000D01*
X162933095Y-98020238D01*
X162980714Y-98115476D01*
X163028333Y-98305952D01*
X163028333Y-98448809D01*
X162980714Y-98639285D01*
X162933095Y-98734523D01*
X162837857Y-98829761D01*
X162695000Y-98877380D01*
X162456904Y-98877380D01*
X163361666Y-97877380D02*
X163980714Y-97877380D01*
X163647380Y-98258333D01*
X163790238Y-98258333D01*
X163885476Y-98305952D01*
X163933095Y-98353571D01*
X163980714Y-98448809D01*
X163980714Y-98686904D01*
X163933095Y-98782142D01*
X163885476Y-98829761D01*
X163790238Y-98877380D01*
X163504523Y-98877380D01*
X163409285Y-98829761D01*
X163361666Y-98782142D01*
%TO.C,C8*%
X138333333Y-114937142D02*
X138285714Y-114984761D01*
X138142857Y-115032380D01*
X138047619Y-115032380D01*
X137904761Y-114984761D01*
X137809523Y-114889523D01*
X137761904Y-114794285D01*
X137714285Y-114603809D01*
X137714285Y-114460952D01*
X137761904Y-114270476D01*
X137809523Y-114175238D01*
X137904761Y-114080000D01*
X138047619Y-114032380D01*
X138142857Y-114032380D01*
X138285714Y-114080000D01*
X138333333Y-114127619D01*
X138904761Y-114460952D02*
X138809523Y-114413333D01*
X138761904Y-114365714D01*
X138714285Y-114270476D01*
X138714285Y-114222857D01*
X138761904Y-114127619D01*
X138809523Y-114080000D01*
X138904761Y-114032380D01*
X139095238Y-114032380D01*
X139190476Y-114080000D01*
X139238095Y-114127619D01*
X139285714Y-114222857D01*
X139285714Y-114270476D01*
X139238095Y-114365714D01*
X139190476Y-114413333D01*
X139095238Y-114460952D01*
X138904761Y-114460952D01*
X138809523Y-114508571D01*
X138761904Y-114556190D01*
X138714285Y-114651428D01*
X138714285Y-114841904D01*
X138761904Y-114937142D01*
X138809523Y-114984761D01*
X138904761Y-115032380D01*
X139095238Y-115032380D01*
X139190476Y-114984761D01*
X139238095Y-114937142D01*
X139285714Y-114841904D01*
X139285714Y-114651428D01*
X139238095Y-114556190D01*
X139190476Y-114508571D01*
X139095238Y-114460952D01*
%TO.C,C27*%
X127557142Y-88257142D02*
X127509523Y-88304761D01*
X127366666Y-88352380D01*
X127271428Y-88352380D01*
X127128571Y-88304761D01*
X127033333Y-88209523D01*
X126985714Y-88114285D01*
X126938095Y-87923809D01*
X126938095Y-87780952D01*
X126985714Y-87590476D01*
X127033333Y-87495238D01*
X127128571Y-87400000D01*
X127271428Y-87352380D01*
X127366666Y-87352380D01*
X127509523Y-87400000D01*
X127557142Y-87447619D01*
X127938095Y-87447619D02*
X127985714Y-87400000D01*
X128080952Y-87352380D01*
X128319047Y-87352380D01*
X128414285Y-87400000D01*
X128461904Y-87447619D01*
X128509523Y-87542857D01*
X128509523Y-87638095D01*
X128461904Y-87780952D01*
X127890476Y-88352380D01*
X128509523Y-88352380D01*
X128842857Y-87352380D02*
X129509523Y-87352380D01*
X129080952Y-88352380D01*
D11*
%TO.C,C25*%
X134483468Y-86621545D02*
X134202308Y-86621545D01*
X134483468Y-85601545D02*
X134202308Y-85601545D01*
%TO.C,R11*%
X131447112Y-81775676D02*
X131447112Y-82101234D01*
X132467112Y-81775676D02*
X132467112Y-82101234D01*
%TO.C,R3*%
X131362779Y-88990000D02*
X131037221Y-88990000D01*
X131362779Y-90010000D02*
X131037221Y-90010000D01*
%TO.C,C29*%
X134679422Y-95678455D02*
X134960582Y-95678455D01*
X134679422Y-96698455D02*
X134960582Y-96698455D01*
%TO.C,C3*%
X136482781Y-90410000D02*
X136157223Y-90410000D01*
X136482781Y-89390000D02*
X136157223Y-89390000D01*
%TO.C,U4*%
X133780000Y-83820000D02*
X136230000Y-83820000D01*
X135580000Y-80600000D02*
X133780000Y-80600000D01*
%TO.C,R22*%
X132592502Y-93451197D02*
X132592502Y-93925713D01*
X131547502Y-93451197D02*
X131547502Y-93925713D01*
%TO.C,C14*%
X151130002Y-112228176D02*
X151130002Y-112553734D01*
X150110002Y-112228176D02*
X150110002Y-112553734D01*
%TO.C,D1*%
X161830002Y-101758455D02*
X161830002Y-99758455D01*
X161830002Y-101758455D02*
X157930002Y-101758455D01*
X161830002Y-99758455D02*
X157930002Y-99758455D01*
%TO.C,R15*%
X141847258Y-108432500D02*
X141372742Y-108432500D01*
X141847258Y-107387500D02*
X141372742Y-107387500D01*
%TO.C,C15*%
X152830002Y-112275676D02*
X152830002Y-112601234D01*
X151810002Y-112275676D02*
X151810002Y-112601234D01*
%TO.C,C10*%
X145090002Y-112238176D02*
X145090002Y-112563734D01*
X144070002Y-112238176D02*
X144070002Y-112563734D01*
%TO.C,CP2*%
X149220000Y-110450000D02*
X149220000Y-107050000D01*
X149220000Y-107050000D02*
X152620000Y-107050000D01*
X152620000Y-110450000D02*
X149220000Y-110450000D01*
X152620000Y-107050000D02*
X152620000Y-110450000D01*
%TO.C,C19*%
X128157223Y-100448455D02*
X128482781Y-100448455D01*
X128157223Y-99428455D02*
X128482781Y-99428455D01*
%TO.C,C12*%
X148110002Y-112228176D02*
X148110002Y-112553734D01*
X147090002Y-112228176D02*
X147090002Y-112553734D01*
%TO.C,R6*%
X134217112Y-91775676D02*
X134217112Y-92101234D01*
X133197112Y-91775676D02*
X133197112Y-92101234D01*
%TO.C,C5*%
X155608750Y-117673455D02*
X156131254Y-117673455D01*
X155608750Y-116203455D02*
X156131254Y-116203455D01*
%TO.C,C11*%
X145580002Y-112238176D02*
X145580002Y-112563734D01*
X146600002Y-112238176D02*
X146600002Y-112563734D01*
D12*
%TO.C,U1*%
X140050000Y-84338455D02*
X140050000Y-84488455D01*
X140050000Y-87038455D02*
X139900000Y-87038455D01*
X137350000Y-84338455D02*
X137500000Y-84338455D01*
X137500000Y-87038455D02*
X137250000Y-87038455D01*
X140060000Y-87038455D02*
X140060000Y-86888455D01*
X137350000Y-84488455D02*
X137350000Y-84338455D01*
X140050000Y-84338455D02*
X139900000Y-84338455D01*
D11*
%TO.C,R4*%
X140390000Y-112287221D02*
X140390000Y-112612779D01*
X141410000Y-112287221D02*
X141410000Y-112612779D01*
%TO.C,D2*%
X157330002Y-102138455D02*
X161230002Y-102138455D01*
X157330002Y-104138455D02*
X161230002Y-104138455D01*
X157330002Y-102138455D02*
X157330002Y-104138455D01*
%TO.C,C16*%
X154330002Y-112275676D02*
X154330002Y-112601234D01*
X153310002Y-112275676D02*
X153310002Y-112601234D01*
%TO.C,C2*%
X131362779Y-88510000D02*
X131037221Y-88510000D01*
X131362779Y-87490000D02*
X131037221Y-87490000D01*
%TO.C,C13*%
X149620002Y-112228176D02*
X149620002Y-112553734D01*
X148600002Y-112228176D02*
X148600002Y-112553734D01*
%TO.C,D4*%
X128015000Y-89200000D02*
X128015000Y-91485000D01*
X129485000Y-91485000D02*
X129485000Y-89200000D01*
X128015000Y-91485000D02*
X129485000Y-91485000D01*
%TO.C,CP1*%
X138320000Y-103200000D02*
X134920000Y-103200000D01*
X134920000Y-99800000D02*
X138320000Y-99800000D01*
X134920000Y-103200000D02*
X134920000Y-99800000D01*
X138320000Y-99800000D02*
X138320000Y-103200000D01*
%TO.C,U3*%
X136847112Y-81038455D02*
X136847112Y-83488455D01*
X140067112Y-82838455D02*
X140067112Y-81038455D01*
%TO.C,C6*%
X158981254Y-95033455D02*
X158458750Y-95033455D01*
X158981254Y-96503455D02*
X158458750Y-96503455D01*
%TO.C,C9*%
X143580002Y-112238176D02*
X143580002Y-112563734D01*
X142560002Y-112238176D02*
X142560002Y-112563734D01*
%TO.C,C4*%
X136482781Y-90890000D02*
X136157223Y-90890000D01*
X136482781Y-91910000D02*
X136157223Y-91910000D01*
%TO.C,C30*%
X131710582Y-95678455D02*
X131429422Y-95678455D01*
X131710582Y-96698455D02*
X131429422Y-96698455D01*
%TO.C,D5*%
X126365000Y-89200000D02*
X126365000Y-91485000D01*
X126365000Y-91485000D02*
X127835000Y-91485000D01*
X127835000Y-91485000D02*
X127835000Y-89200000D01*
%TO.C,L1*%
X157730002Y-113290519D02*
X157730002Y-112086391D01*
X155910002Y-113290519D02*
X155910002Y-112086391D01*
%TO.C,J3*%
X137260000Y-113650000D02*
X135560000Y-113650000D01*
X135560000Y-107050000D02*
X135560000Y-105150000D01*
X137260000Y-107050000D02*
X135560000Y-107050000D01*
%TO.C,R5*%
X139660000Y-112287221D02*
X139660000Y-112612779D01*
X138640000Y-112287221D02*
X138640000Y-112612779D01*
%TO.C,D3*%
X161820002Y-99248455D02*
X161820002Y-97248455D01*
X161820002Y-97248455D02*
X157920002Y-97248455D01*
X161820002Y-99248455D02*
X157920002Y-99248455D01*
%TO.C,C8*%
X137972779Y-115360000D02*
X137647221Y-115360000D01*
X137972779Y-116380000D02*
X137647221Y-116380000D01*
%TO.C,C27*%
X131340580Y-87010000D02*
X131059420Y-87010000D01*
X131340580Y-85990000D02*
X131059420Y-85990000D01*
%TO.C,G\u002A\u002A\u002A*%
G36*
X160362664Y-89695157D02*
G01*
X160363192Y-89698385D01*
X160360666Y-89704610D01*
X160358514Y-89705401D01*
X160354364Y-89701612D01*
X160353836Y-89698385D01*
X160356362Y-89692160D01*
X160358514Y-89691368D01*
X160362664Y-89695157D01*
G37*
G36*
X159860300Y-85683695D02*
G01*
X159847832Y-85689913D01*
X159847099Y-85690123D01*
X159831663Y-85694555D01*
X159814614Y-85696580D01*
X159812973Y-85696598D01*
X159799217Y-85692318D01*
X159789190Y-85680317D01*
X159784252Y-85663854D01*
X159781432Y-85654410D01*
X159778190Y-85650601D01*
X159774780Y-85645289D01*
X159773799Y-85638013D01*
X159772190Y-85628386D01*
X159769560Y-85624365D01*
X159766513Y-85618556D01*
X159763480Y-85606680D01*
X159763069Y-85604213D01*
X159839657Y-85604213D01*
X159841752Y-85614179D01*
X159847099Y-85617234D01*
X159853119Y-85613785D01*
X159857236Y-85604240D01*
X159857629Y-85601374D01*
X159854552Y-85599196D01*
X159851284Y-85599942D01*
X159846304Y-85599469D01*
X159844176Y-85599267D01*
X159842298Y-85596934D01*
X159840597Y-85596735D01*
X159839662Y-85604029D01*
X159839657Y-85604213D01*
X159763069Y-85604213D01*
X159762152Y-85598707D01*
X159760048Y-85586672D01*
X159843965Y-85586672D01*
X159846304Y-85589011D01*
X159847028Y-85588287D01*
X159853601Y-85588287D01*
X159858974Y-85591474D01*
X159864003Y-85597954D01*
X159863776Y-85605617D01*
X159864054Y-85614796D01*
X159867875Y-85616613D01*
X159872436Y-85610585D01*
X159873496Y-85607302D01*
X159875413Y-85604117D01*
X159904775Y-85604117D01*
X159907557Y-85605666D01*
X159911792Y-85603044D01*
X159917601Y-85597509D01*
X159918809Y-85595601D01*
X159915267Y-85595555D01*
X159911792Y-85596675D01*
X159905595Y-85601582D01*
X159904775Y-85604117D01*
X159875413Y-85604117D01*
X159877762Y-85600215D01*
X159885736Y-85600601D01*
X159893583Y-85601099D01*
X159895420Y-85596754D01*
X159890925Y-85591030D01*
X159878035Y-85586911D01*
X159876394Y-85586619D01*
X159863603Y-85585307D01*
X159855477Y-85586011D01*
X159853601Y-85588287D01*
X159847028Y-85588287D01*
X159848643Y-85586672D01*
X159846304Y-85584333D01*
X159843965Y-85586672D01*
X159760048Y-85586672D01*
X159757079Y-85569693D01*
X159751018Y-85549656D01*
X159743830Y-85538257D01*
X159736550Y-85535103D01*
X159725522Y-85531589D01*
X159720199Y-85526917D01*
X159712588Y-85520271D01*
X159707796Y-85518756D01*
X159700155Y-85516339D01*
X159688623Y-85510370D01*
X159675917Y-85502574D01*
X159664757Y-85494677D01*
X159657858Y-85488406D01*
X159656856Y-85486408D01*
X159653016Y-85481585D01*
X159648139Y-85479287D01*
X159642089Y-85474431D01*
X159638227Y-85463303D01*
X159636624Y-85452894D01*
X159635699Y-85437622D01*
X159636491Y-85425338D01*
X159637566Y-85421432D01*
X159645968Y-85404060D01*
X159651916Y-85393381D01*
X159657017Y-85387662D01*
X159662879Y-85385169D01*
X159671110Y-85384170D01*
X159672206Y-85384078D01*
X159683634Y-85383760D01*
X159688528Y-85386503D01*
X159689599Y-85393948D01*
X159689600Y-85394603D01*
X159691004Y-85403531D01*
X159693787Y-85406580D01*
X159699564Y-85409677D01*
X159708062Y-85417230D01*
X159708990Y-85418193D01*
X159719560Y-85427071D01*
X159727598Y-85429606D01*
X159731538Y-85425437D01*
X159731700Y-85423452D01*
X159735443Y-85416081D01*
X159738059Y-85414496D01*
X159741370Y-85410652D01*
X159743014Y-85401311D01*
X159743180Y-85384915D01*
X159742849Y-85375404D01*
X159741732Y-85351124D01*
X159740467Y-85326504D01*
X159739165Y-85303411D01*
X159737938Y-85283715D01*
X159736897Y-85269284D01*
X159736154Y-85261987D01*
X159736059Y-85261571D01*
X159736044Y-85255358D01*
X159736157Y-85254722D01*
X159736439Y-85248575D01*
X159736577Y-85234982D01*
X159736576Y-85232938D01*
X159785844Y-85232938D01*
X159787046Y-85237956D01*
X159790198Y-85239884D01*
X159795565Y-85246652D01*
X159796928Y-85260140D01*
X159794193Y-85278565D01*
X159792570Y-85284751D01*
X159790357Y-85297388D01*
X159792356Y-85303575D01*
X159796041Y-85310008D01*
X159796776Y-85315509D01*
X159797345Y-85338357D01*
X159798826Y-85363254D01*
X159800987Y-85387920D01*
X159803596Y-85410072D01*
X159806420Y-85427428D01*
X159809219Y-85437692D01*
X159813890Y-85450814D01*
X159815897Y-85462038D01*
X159815899Y-85462250D01*
X159818407Y-85469870D01*
X159827362Y-85472067D01*
X159827657Y-85472068D01*
X159840237Y-85473732D01*
X159847537Y-85476265D01*
X159856728Y-85480429D01*
X159870445Y-85486038D01*
X159876709Y-85488464D01*
X159892357Y-85494796D01*
X159906439Y-85501113D01*
X159910175Y-85502977D01*
X159922182Y-85507783D01*
X159931291Y-85509490D01*
X159940423Y-85511046D01*
X159954510Y-85515041D01*
X159964612Y-85518489D01*
X159978479Y-85523449D01*
X159988396Y-85526793D01*
X159991528Y-85527666D01*
X159996899Y-85529497D01*
X160007300Y-85533809D01*
X160010109Y-85535038D01*
X160026215Y-85542158D01*
X160042654Y-85549431D01*
X160043148Y-85549650D01*
X160054396Y-85553773D01*
X160061637Y-85554846D01*
X160062485Y-85554481D01*
X160067496Y-85555243D01*
X160076140Y-85560609D01*
X160076769Y-85561098D01*
X160087140Y-85567626D01*
X160095445Y-85570300D01*
X160102981Y-85572321D01*
X160115897Y-85577607D01*
X160130647Y-85584643D01*
X160153289Y-85595409D01*
X160173747Y-85603767D01*
X160190290Y-85609113D01*
X160201188Y-85610843D01*
X160203885Y-85610224D01*
X160210133Y-85610812D01*
X160220909Y-85615359D01*
X160225912Y-85618117D01*
X160241279Y-85625127D01*
X160256992Y-85629300D01*
X160260184Y-85629647D01*
X160275763Y-85633755D01*
X160283072Y-85640247D01*
X160292974Y-85647993D01*
X160301782Y-85649970D01*
X160314928Y-85652721D01*
X160323156Y-85656986D01*
X160334384Y-85661960D01*
X160347141Y-85663854D01*
X160359444Y-85665938D01*
X160367869Y-85670871D01*
X160376941Y-85676465D01*
X160384814Y-85677887D01*
X160393789Y-85680433D01*
X160395936Y-85684904D01*
X160399070Y-85689815D01*
X160409425Y-85691810D01*
X160414381Y-85691921D01*
X160429801Y-85694004D01*
X160439071Y-85700845D01*
X160439359Y-85701246D01*
X160445230Y-85707363D01*
X160448579Y-85707884D01*
X160454139Y-85707908D01*
X160462192Y-85711334D01*
X160473100Y-85716313D01*
X160480135Y-85718227D01*
X160496629Y-85720967D01*
X160512979Y-85725107D01*
X160518785Y-85727109D01*
X160528822Y-85727394D01*
X160533367Y-85725130D01*
X160540197Y-85722670D01*
X160545575Y-85726946D01*
X160554891Y-85732834D01*
X160561398Y-85734038D01*
X160571809Y-85736433D01*
X160584798Y-85742324D01*
X160587361Y-85743816D01*
X160605458Y-85751067D01*
X160616597Y-85750932D01*
X160625979Y-85750408D01*
X160629821Y-85752848D01*
X160634017Y-85755520D01*
X160644689Y-85757198D01*
X160652041Y-85757480D01*
X160664903Y-85757987D01*
X160669506Y-85759632D01*
X160667243Y-85762536D01*
X160664136Y-85765646D01*
X160668859Y-85765567D01*
X160673090Y-85764714D01*
X160682689Y-85763950D01*
X160685899Y-85767996D01*
X160685954Y-85769161D01*
X160689790Y-85776727D01*
X160694140Y-85779467D01*
X160703593Y-85785725D01*
X160708452Y-85791033D01*
X160717220Y-85797218D01*
X160725993Y-85796681D01*
X160734761Y-85796032D01*
X160737402Y-85800885D01*
X160737409Y-85801340D01*
X160740184Y-85807877D01*
X160742888Y-85808863D01*
X160750404Y-85811755D01*
X160756626Y-85816338D01*
X160764572Y-85821147D01*
X160769147Y-85821179D01*
X160772244Y-85814474D01*
X160772279Y-85802579D01*
X160769664Y-85788990D01*
X160764809Y-85777207D01*
X160763795Y-85775640D01*
X160758133Y-85765684D01*
X160756120Y-85758948D01*
X160753164Y-85751945D01*
X160745910Y-85742238D01*
X160744513Y-85740689D01*
X160737505Y-85731552D01*
X160735063Y-85725031D01*
X160735289Y-85724311D01*
X160733645Y-85719466D01*
X160728185Y-85715379D01*
X160720603Y-85707165D01*
X160718698Y-85699927D01*
X160715431Y-85690207D01*
X160707318Y-85678997D01*
X160704665Y-85676306D01*
X160695729Y-85665807D01*
X160690906Y-85656122D01*
X160690632Y-85654102D01*
X160687840Y-85646734D01*
X160684183Y-85645143D01*
X160678162Y-85641235D01*
X160672191Y-85631725D01*
X160671756Y-85630712D01*
X160665272Y-85618199D01*
X160658400Y-85608902D01*
X160652393Y-85600365D01*
X160650946Y-85595355D01*
X160648116Y-85587819D01*
X160641295Y-85577546D01*
X160640244Y-85576235D01*
X160632225Y-85565564D01*
X160620834Y-85549287D01*
X160607626Y-85529751D01*
X160594159Y-85509304D01*
X160581987Y-85490293D01*
X160572667Y-85475063D01*
X160569621Y-85469709D01*
X160561070Y-85455230D01*
X160551459Y-85440826D01*
X160542535Y-85428936D01*
X160536049Y-85421998D01*
X160534878Y-85421263D01*
X160530730Y-85416276D01*
X160524983Y-85405648D01*
X160522406Y-85399965D01*
X160513692Y-85384016D01*
X160502705Y-85369228D01*
X160500193Y-85366548D01*
X160491991Y-85356761D01*
X160488155Y-85348959D01*
X160488196Y-85347313D01*
X160485848Y-85341878D01*
X160480054Y-85338727D01*
X160473082Y-85333923D01*
X160472456Y-85329436D01*
X160470649Y-85323487D01*
X160465778Y-85320941D01*
X160458345Y-85315765D01*
X160456746Y-85311125D01*
X160454792Y-85304617D01*
X160452941Y-85303670D01*
X160448944Y-85299756D01*
X160443855Y-85290069D01*
X160442713Y-85287298D01*
X160437343Y-85276684D01*
X160432192Y-85271153D01*
X160431271Y-85270926D01*
X160425123Y-85267373D01*
X160420410Y-85261571D01*
X160413112Y-85254199D01*
X160412666Y-85254039D01*
X160407590Y-85252215D01*
X160401825Y-85248352D01*
X160400613Y-85243405D01*
X160396557Y-85235136D01*
X160390650Y-85231990D01*
X160383374Y-85227330D01*
X160383356Y-85222431D01*
X160382472Y-85213959D01*
X160379286Y-85209885D01*
X160373504Y-85202050D01*
X160372547Y-85198069D01*
X160369147Y-85191771D01*
X160360464Y-85182541D01*
X160353836Y-85176809D01*
X160343114Y-85167060D01*
X160336344Y-85158727D01*
X160335125Y-85155539D01*
X160331817Y-85149842D01*
X160329567Y-85149305D01*
X160323140Y-85145865D01*
X160313327Y-85137051D01*
X160302145Y-85125125D01*
X160291614Y-85112350D01*
X160283752Y-85100988D01*
X160280795Y-85094654D01*
X160276332Y-85087341D01*
X160271844Y-85086854D01*
X160270840Y-85086531D01*
X160384203Y-85086531D01*
X160389623Y-85092516D01*
X160390088Y-85092909D01*
X160397689Y-85100674D01*
X160400613Y-85106286D01*
X160404243Y-85112266D01*
X160412666Y-85113915D01*
X160422183Y-85110826D01*
X160424678Y-85108933D01*
X160431287Y-85102051D01*
X160433357Y-85098529D01*
X160430738Y-85098995D01*
X160427744Y-85101593D01*
X160419091Y-85106597D01*
X160415477Y-85107206D01*
X160411247Y-85106110D01*
X160413693Y-85101266D01*
X160415243Y-85099314D01*
X160419141Y-85093696D01*
X160416070Y-85093578D01*
X160413130Y-85094622D01*
X160402505Y-85094167D01*
X160397593Y-85090821D01*
X160389460Y-85085135D01*
X160385077Y-85083973D01*
X160384203Y-85086531D01*
X160270840Y-85086531D01*
X160265360Y-85084767D01*
X160257047Y-85075929D01*
X160254731Y-85072568D01*
X160246757Y-85062204D01*
X160239788Y-85056315D01*
X160238063Y-85055809D01*
X160232622Y-85053158D01*
X160232216Y-85051658D01*
X160228200Y-85047874D01*
X160219352Y-85044938D01*
X160206121Y-85037568D01*
X160194859Y-85023303D01*
X160187185Y-85012127D01*
X160180882Y-85005294D01*
X160178887Y-85004296D01*
X160172978Y-85001091D01*
X160163387Y-84993020D01*
X160152421Y-84982405D01*
X160142390Y-84971565D01*
X160135603Y-84962819D01*
X160134019Y-84959222D01*
X160130169Y-84953876D01*
X160120752Y-84947624D01*
X160118781Y-84946637D01*
X160106764Y-84939274D01*
X160092189Y-84928151D01*
X160083040Y-84920129D01*
X160070627Y-84909877D01*
X160060531Y-84904051D01*
X160055900Y-84903424D01*
X160051441Y-84903644D01*
X160051770Y-84901958D01*
X160050568Y-84896266D01*
X160044997Y-84889592D01*
X160038317Y-84884740D01*
X160035751Y-84885068D01*
X160032893Y-84884178D01*
X160025513Y-84877866D01*
X160018210Y-84870590D01*
X160002954Y-84857061D01*
X159985146Y-84844515D01*
X159978449Y-84840674D01*
X159966073Y-84833688D01*
X159958007Y-84828125D01*
X159956230Y-84825992D01*
X159952158Y-84823172D01*
X159942171Y-84820290D01*
X159940328Y-84819923D01*
X159928023Y-84816211D01*
X159919723Y-84811246D01*
X159919411Y-84810896D01*
X159912537Y-84807502D01*
X159898598Y-84806198D01*
X159880389Y-84806640D01*
X159856024Y-84809399D01*
X159840005Y-84814886D01*
X159831627Y-84823448D01*
X159829932Y-84831670D01*
X159827566Y-84840348D01*
X159825178Y-84842962D01*
X159822561Y-84848696D01*
X159823242Y-84850460D01*
X159823124Y-84857501D01*
X159820975Y-84861146D01*
X159817025Y-84870496D01*
X159816153Y-84878482D01*
X159814895Y-84894684D01*
X159811279Y-84913240D01*
X159807757Y-84924775D01*
X159806299Y-84932796D01*
X159805077Y-84947081D01*
X159804357Y-84964536D01*
X159803096Y-84984284D01*
X159800502Y-85003055D01*
X159797586Y-85015240D01*
X159794224Y-85030320D01*
X159793801Y-85044223D01*
X159794095Y-85046132D01*
X159794375Y-85057289D01*
X159791691Y-85064055D01*
X159789972Y-85067595D01*
X159788757Y-85074900D01*
X159788029Y-85086922D01*
X159787772Y-85104615D01*
X159787970Y-85128931D01*
X159788608Y-85160824D01*
X159789492Y-85194913D01*
X159790475Y-85208638D01*
X159792271Y-85217552D01*
X159793680Y-85219471D01*
X159796762Y-85223294D01*
X159797188Y-85226764D01*
X159795064Y-85231707D01*
X159792833Y-85231365D01*
X159786817Y-85231799D01*
X159785844Y-85232938D01*
X159736576Y-85232938D01*
X159736564Y-85215854D01*
X159736396Y-85193100D01*
X159736354Y-85189234D01*
X159736153Y-85161210D01*
X159736135Y-85131776D01*
X159736292Y-85104696D01*
X159736562Y-85086156D01*
X159736963Y-85065989D01*
X159737260Y-85048388D01*
X159737407Y-85036197D01*
X159737414Y-85033532D01*
X159738756Y-85025313D01*
X159741022Y-85023007D01*
X159743184Y-85018592D01*
X159745485Y-85006383D01*
X159747742Y-84987937D01*
X159749776Y-84964810D01*
X159751405Y-84938560D01*
X159751783Y-84930423D01*
X159753370Y-84915834D01*
X159756287Y-84905292D01*
X159758465Y-84902191D01*
X159761383Y-84896135D01*
X159764434Y-84882566D01*
X159767255Y-84863313D01*
X159768609Y-84850647D01*
X159771093Y-84829658D01*
X159774162Y-84811627D01*
X159777357Y-84798950D01*
X159779313Y-84794680D01*
X159788850Y-84785093D01*
X159798832Y-84778690D01*
X159803026Y-84777549D01*
X159807766Y-84774307D01*
X159816777Y-84765940D01*
X159827719Y-84754669D01*
X159848913Y-84731911D01*
X159894386Y-84733856D01*
X159915072Y-84735230D01*
X159932999Y-84737311D01*
X159945571Y-84739756D01*
X159949214Y-84741104D01*
X159960262Y-84746640D01*
X159973537Y-84752431D01*
X159985655Y-84759712D01*
X159994099Y-84768910D01*
X159994207Y-84769109D01*
X160000528Y-84776677D01*
X160007410Y-84779838D01*
X160011899Y-84777619D01*
X160012363Y-84775088D01*
X160016152Y-84770938D01*
X160019379Y-84770410D01*
X160025607Y-84772744D01*
X160026396Y-84774725D01*
X160030393Y-84778797D01*
X160040325Y-84783555D01*
X160043674Y-84784743D01*
X160057869Y-84791028D01*
X160069608Y-84798812D01*
X160070571Y-84799691D01*
X160080082Y-84807483D01*
X160093822Y-84817239D01*
X160102409Y-84822819D01*
X160114638Y-84831559D01*
X160122708Y-84839434D01*
X160124628Y-84843316D01*
X160128638Y-84848544D01*
X160135532Y-84849932D01*
X160146873Y-84854293D01*
X160152694Y-84861626D01*
X160162090Y-84871369D01*
X160170133Y-84873320D01*
X160177593Y-84874899D01*
X160178422Y-84877998D01*
X160178912Y-84882303D01*
X160180696Y-84882676D01*
X160186061Y-84885749D01*
X160196354Y-84894026D01*
X160209892Y-84906097D01*
X160219564Y-84915241D01*
X160246733Y-84941199D01*
X160267952Y-84960785D01*
X160283709Y-84974416D01*
X160294487Y-84982510D01*
X160300774Y-84985487D01*
X160301212Y-84985519D01*
X160305960Y-84989484D01*
X160307059Y-84994941D01*
X160309018Y-85002542D01*
X160311737Y-85004296D01*
X160315887Y-85008085D01*
X160316414Y-85011313D01*
X160320180Y-85017449D01*
X160323707Y-85018329D01*
X160328763Y-85020294D01*
X160328526Y-85022331D01*
X160330517Y-85024485D01*
X160338372Y-85023979D01*
X160346927Y-85023264D01*
X160348525Y-85026743D01*
X160347599Y-85029680D01*
X160347786Y-85039628D01*
X160350341Y-85044000D01*
X160356974Y-85051771D01*
X160365790Y-85062831D01*
X160367408Y-85064931D01*
X160375905Y-85073718D01*
X160383174Y-85077468D01*
X160384608Y-85077308D01*
X160392290Y-85078466D01*
X160395936Y-85081479D01*
X160403489Y-85085860D01*
X160407455Y-85085576D01*
X160411425Y-85080087D01*
X160410269Y-85071678D01*
X160404922Y-85064554D01*
X160402491Y-85063238D01*
X160396989Y-85057310D01*
X160537826Y-85057310D01*
X160538468Y-85060091D01*
X160540945Y-85060429D01*
X160544795Y-85058717D01*
X160544063Y-85057310D01*
X160538512Y-85056751D01*
X160537826Y-85057310D01*
X160396989Y-85057310D01*
X160396658Y-85056953D01*
X160395936Y-85053295D01*
X160392703Y-85045543D01*
X160384689Y-85035643D01*
X160382238Y-85033268D01*
X160372297Y-85021518D01*
X160365756Y-85009106D01*
X160365262Y-85007417D01*
X160361084Y-84997880D01*
X160354410Y-84996170D01*
X160353582Y-84996363D01*
X160347437Y-84996048D01*
X160347488Y-84992546D01*
X160346570Y-84985172D01*
X160344723Y-84983396D01*
X160341970Y-84977382D01*
X160342780Y-84975197D01*
X160342319Y-84968539D01*
X160339235Y-84964995D01*
X160334850Y-84958321D01*
X160329088Y-84945117D01*
X160323002Y-84927884D01*
X160321311Y-84922436D01*
X160315469Y-84904575D01*
X160309848Y-84890065D01*
X160305433Y-84881371D01*
X160304492Y-84880267D01*
X160301615Y-84873160D01*
X160300165Y-84857702D01*
X160300109Y-84833473D01*
X160300226Y-84828812D01*
X160301553Y-84801540D01*
X160340402Y-84801540D01*
X160342612Y-84806520D01*
X160348939Y-84809130D01*
X160355435Y-84813242D01*
X160356082Y-84822339D01*
X160355770Y-84824227D01*
X160356709Y-84837103D01*
X160361427Y-84842757D01*
X160366875Y-84850893D01*
X160366495Y-84856122D01*
X160366231Y-84863966D01*
X160368150Y-84866477D01*
X160370728Y-84871943D01*
X160370153Y-84873409D01*
X160371573Y-84878539D01*
X160376271Y-84882165D01*
X160382869Y-84889316D01*
X160389100Y-84901737D01*
X160390873Y-84906958D01*
X160396753Y-84920220D01*
X160405802Y-84933866D01*
X160415931Y-84945331D01*
X160425053Y-84952050D01*
X160428228Y-84952841D01*
X160431753Y-84956861D01*
X160436014Y-84966861D01*
X160437146Y-84970383D01*
X160443605Y-84983903D01*
X160454259Y-84998995D01*
X160461121Y-85006635D01*
X160471467Y-85018182D01*
X160478327Y-85028131D01*
X160479981Y-85032671D01*
X160483853Y-85039269D01*
X160493410Y-85047201D01*
X160498155Y-85050123D01*
X160510719Y-85055904D01*
X160518639Y-85057087D01*
X160520575Y-85053780D01*
X160517435Y-85048588D01*
X160514817Y-85039706D01*
X160514929Y-85039103D01*
X160522234Y-85039103D01*
X160525512Y-85043097D01*
X160526912Y-85044057D01*
X160531222Y-85043686D01*
X160531589Y-85041994D01*
X160528194Y-85037231D01*
X160526912Y-85037040D01*
X160522356Y-85038636D01*
X160522234Y-85039103D01*
X160514929Y-85039103D01*
X160515637Y-85035294D01*
X160515737Y-85028924D01*
X160513379Y-85027685D01*
X160508788Y-85023904D01*
X160508201Y-85020668D01*
X160505675Y-85014443D01*
X160503523Y-85013652D01*
X160500410Y-85009545D01*
X160498878Y-84999467D01*
X160498845Y-84997556D01*
X160497518Y-84985840D01*
X160494280Y-84978698D01*
X160493849Y-84978372D01*
X160490767Y-84971981D01*
X160491357Y-84968757D01*
X160491865Y-84960791D01*
X160490521Y-84947198D01*
X160488642Y-84936245D01*
X160485969Y-84919449D01*
X160486341Y-84909413D01*
X160488796Y-84904887D01*
X160493859Y-84897112D01*
X160490251Y-84892825D01*
X160483414Y-84892031D01*
X160473389Y-84888314D01*
X160463157Y-84876516D01*
X160461195Y-84873446D01*
X160453716Y-84862412D01*
X160447865Y-84855684D01*
X160446221Y-84854735D01*
X160443326Y-84850710D01*
X160442713Y-84845636D01*
X160440179Y-84830519D01*
X160432866Y-84822767D01*
X160427940Y-84821865D01*
X160419010Y-84817329D01*
X160412292Y-84806177D01*
X160404272Y-84793000D01*
X160393909Y-84782746D01*
X160393507Y-84782476D01*
X160381317Y-84773442D01*
X160372313Y-84765499D01*
X160365792Y-84759758D01*
X160361737Y-84760791D01*
X160356896Y-84769320D01*
X160352911Y-84780235D01*
X160352528Y-84787949D01*
X160350729Y-84794325D01*
X160347209Y-84796636D01*
X160340402Y-84801540D01*
X160301553Y-84801540D01*
X160301916Y-84794077D01*
X160304992Y-84767153D01*
X160309740Y-84746559D01*
X160316444Y-84730817D01*
X160320269Y-84724790D01*
X160333701Y-84711543D01*
X160352159Y-84700192D01*
X160371746Y-84692783D01*
X160384549Y-84691038D01*
X160398648Y-84693703D01*
X160409661Y-84700163D01*
X160414601Y-84708589D01*
X160414646Y-84709457D01*
X160417913Y-84717187D01*
X160425599Y-84726694D01*
X160434537Y-84734609D01*
X160441089Y-84737586D01*
X160446125Y-84741272D01*
X160454073Y-84750573D01*
X160463189Y-84762990D01*
X160471730Y-84776021D01*
X160477954Y-84787166D01*
X160480135Y-84793612D01*
X160483147Y-84801614D01*
X160491011Y-84813794D01*
X160501969Y-84827711D01*
X160514048Y-84840714D01*
X160522446Y-84850654D01*
X160526759Y-84859149D01*
X160526912Y-84860390D01*
X160530238Y-84869279D01*
X160533628Y-84873071D01*
X160539472Y-84881525D01*
X160543424Y-84892670D01*
X160547567Y-84903405D01*
X160553013Y-84909194D01*
X160557682Y-84914312D01*
X160564972Y-84925971D01*
X160573855Y-84942095D01*
X160583303Y-84960609D01*
X160592287Y-84979441D01*
X160599779Y-84996514D01*
X160604751Y-85009756D01*
X160606226Y-85016548D01*
X160604169Y-85031775D01*
X160599416Y-85049547D01*
X160593206Y-85066070D01*
X160586775Y-85077548D01*
X160586066Y-85078385D01*
X160580451Y-85085262D01*
X160581318Y-85088321D01*
X160586200Y-85089880D01*
X160591978Y-85091688D01*
X160588765Y-85092471D01*
X160586553Y-85092630D01*
X160580096Y-85096064D01*
X160579531Y-85103774D01*
X160583764Y-85113819D01*
X160591696Y-85124255D01*
X160602233Y-85133141D01*
X160612116Y-85137930D01*
X160622978Y-85143752D01*
X160628257Y-85148817D01*
X160638128Y-85154551D01*
X160655172Y-85156322D01*
X160667859Y-85156779D01*
X160675541Y-85157938D01*
X160676592Y-85158661D01*
X160680808Y-85159676D01*
X160691696Y-85159848D01*
X160702389Y-85159393D01*
X160717324Y-85157841D01*
X160727318Y-85154176D01*
X160734515Y-85146500D01*
X160741063Y-85132917D01*
X160745536Y-85121239D01*
X160748931Y-85106779D01*
X160750517Y-85088821D01*
X160750313Y-85070625D01*
X160748337Y-85055449D01*
X160745088Y-85047099D01*
X160742221Y-85038581D01*
X160741348Y-85025487D01*
X160741502Y-85022303D01*
X160741307Y-85009036D01*
X160739143Y-84999461D01*
X160738393Y-84998211D01*
X160734234Y-84990370D01*
X160729370Y-84977785D01*
X160728096Y-84973891D01*
X160722101Y-84957846D01*
X160715043Y-84942927D01*
X160714037Y-84941147D01*
X160708997Y-84930303D01*
X160707604Y-84922491D01*
X160707742Y-84921975D01*
X160707716Y-84912622D01*
X160703497Y-84901961D01*
X160697093Y-84893948D01*
X160692541Y-84892031D01*
X160686980Y-84889181D01*
X160687268Y-84882836D01*
X160687348Y-84875923D01*
X160685039Y-84874650D01*
X160679353Y-84871911D01*
X160674994Y-84866375D01*
X160667006Y-84856011D01*
X160661766Y-84851166D01*
X160655098Y-84842411D01*
X160650870Y-84831215D01*
X160647519Y-84821398D01*
X160643711Y-84817190D01*
X160643630Y-84817188D01*
X160641189Y-84813828D01*
X160641777Y-84811176D01*
X160640532Y-84803800D01*
X160634432Y-84794804D01*
X160624779Y-84784444D01*
X160636656Y-84784444D01*
X160645533Y-84786022D01*
X160648532Y-84789121D01*
X160652518Y-84792700D01*
X160659671Y-84793799D01*
X160670103Y-84797740D01*
X160681074Y-84807584D01*
X160690157Y-84820359D01*
X160694925Y-84833095D01*
X160695112Y-84837176D01*
X160694695Y-84855337D01*
X160696819Y-84866048D01*
X160700076Y-84868642D01*
X160702726Y-84864797D01*
X160701908Y-84856948D01*
X160701143Y-84848045D01*
X160705733Y-84845273D01*
X160706497Y-84845254D01*
X160712681Y-84849212D01*
X160714020Y-84856169D01*
X160715826Y-84867736D01*
X160721000Y-84870951D01*
X160726454Y-84868029D01*
X160730629Y-84865117D01*
X160732776Y-84866951D01*
X160734122Y-84875448D01*
X160734684Y-84880872D01*
X160737912Y-84888748D01*
X160740642Y-84892629D01*
X160745039Y-84900984D01*
X160749751Y-84914361D01*
X160751430Y-84920451D01*
X160757636Y-84936974D01*
X160766538Y-84952071D01*
X160769318Y-84955471D01*
X160777986Y-84967455D01*
X160783138Y-84979197D01*
X160783473Y-84980908D01*
X160786092Y-84991747D01*
X160788729Y-84997280D01*
X160792298Y-85006416D01*
X160795358Y-85022484D01*
X160797758Y-85043067D01*
X160799348Y-85065750D01*
X160799977Y-85088116D01*
X160799497Y-85107748D01*
X160797756Y-85122229D01*
X160796719Y-85125917D01*
X160788522Y-85147277D01*
X160782412Y-85161426D01*
X160778955Y-85168016D01*
X160773776Y-85177937D01*
X160770212Y-85185678D01*
X160764000Y-85195008D01*
X160758707Y-85198974D01*
X160751579Y-85205333D01*
X160748966Y-85210548D01*
X160743088Y-85217912D01*
X160738029Y-85219471D01*
X160728493Y-85221838D01*
X160725481Y-85223906D01*
X160718481Y-85227084D01*
X160705586Y-85230340D01*
X160690040Y-85233143D01*
X160675087Y-85234966D01*
X160663973Y-85235278D01*
X160660474Y-85234506D01*
X160653484Y-85233144D01*
X160640823Y-85232765D01*
X160633684Y-85233000D01*
X160603610Y-85230461D01*
X160576865Y-85219915D01*
X160561995Y-85208968D01*
X160551696Y-85200798D01*
X160543443Y-85196366D01*
X160541967Y-85196104D01*
X160540945Y-85195531D01*
X160535215Y-85192320D01*
X160533281Y-85189066D01*
X160526912Y-85183064D01*
X160526873Y-85183027D01*
X160522284Y-85182049D01*
X160518639Y-85180636D01*
X160514386Y-85178988D01*
X160503104Y-85171137D01*
X160495501Y-85164508D01*
X160482136Y-85152148D01*
X160469161Y-85140663D01*
X160464071Y-85136373D01*
X160455951Y-85127522D01*
X160453442Y-85119949D01*
X160453638Y-85119219D01*
X160452159Y-85112959D01*
X160445941Y-85108558D01*
X160439447Y-85108983D01*
X160438925Y-85109435D01*
X160440120Y-85111678D01*
X160442209Y-85111884D01*
X160445731Y-85114628D01*
X160445052Y-85116561D01*
X160438503Y-85120388D01*
X160432356Y-85121239D01*
X160425708Y-85121760D01*
X160426131Y-85124909D01*
X160430919Y-85130484D01*
X160438424Y-85136491D01*
X160443338Y-85137225D01*
X160446821Y-85138649D01*
X160447391Y-85142013D01*
X160451014Y-85148390D01*
X160454407Y-85149305D01*
X160460121Y-85153205D01*
X160461424Y-85158661D01*
X160464604Y-85169132D01*
X160469902Y-85176495D01*
X160475650Y-85184983D01*
X160476426Y-85190837D01*
X160478595Y-85196548D01*
X160483585Y-85199084D01*
X160490387Y-85204543D01*
X160497546Y-85215285D01*
X160503072Y-85227540D01*
X160504976Y-85237534D01*
X160504693Y-85239115D01*
X160507347Y-85242407D01*
X160510540Y-85242860D01*
X160516759Y-85245720D01*
X160517556Y-85248171D01*
X160521106Y-85255505D01*
X160529573Y-85264455D01*
X160539679Y-85272119D01*
X160548150Y-85275592D01*
X160548518Y-85275604D01*
X160553472Y-85278572D01*
X160552808Y-85284426D01*
X160553687Y-85292976D01*
X160561448Y-85304684D01*
X160568601Y-85312599D01*
X160580273Y-85326575D01*
X160589713Y-85341071D01*
X160593075Y-85348215D01*
X160597672Y-85358796D01*
X160601555Y-85364271D01*
X160602140Y-85364480D01*
X160608965Y-85368030D01*
X160617690Y-85376677D01*
X160625936Y-85387418D01*
X160631325Y-85397250D01*
X160632054Y-85402236D01*
X160633333Y-85409826D01*
X160637997Y-85412304D01*
X160645021Y-85418195D01*
X160647221Y-85424952D01*
X160650115Y-85435990D01*
X160655661Y-85444145D01*
X160661759Y-85446598D01*
X160662958Y-85446098D01*
X160666712Y-85448198D01*
X160670067Y-85456674D01*
X160675430Y-85468276D01*
X160684908Y-85480886D01*
X160687791Y-85483861D01*
X160696906Y-85494904D01*
X160700858Y-85504477D01*
X160700796Y-85506406D01*
X160702501Y-85515446D01*
X160708961Y-85529077D01*
X160718771Y-85544850D01*
X160730523Y-85560317D01*
X160734146Y-85564453D01*
X160739711Y-85571700D01*
X160740190Y-85574963D01*
X160740008Y-85574978D01*
X160740253Y-85578221D01*
X160745177Y-85586411D01*
X160748548Y-85591038D01*
X160756106Y-85601893D01*
X160760414Y-85609918D01*
X160760798Y-85611515D01*
X160764009Y-85617905D01*
X160767717Y-85621674D01*
X160774997Y-85630048D01*
X160781082Y-85639788D01*
X160786910Y-85651034D01*
X160794820Y-85666370D01*
X160799818Y-85676086D01*
X160807829Y-85690343D01*
X160815372Y-85701587D01*
X160819198Y-85705895D01*
X160825182Y-85713862D01*
X160826286Y-85718221D01*
X160830042Y-85723922D01*
X160833302Y-85724665D01*
X160839583Y-85727399D01*
X160838919Y-85732608D01*
X160835014Y-85735008D01*
X160833238Y-85738985D01*
X160837353Y-85744420D01*
X160843434Y-85751955D01*
X160845100Y-85755905D01*
X160847777Y-85762016D01*
X160853971Y-85771153D01*
X160859506Y-85781033D01*
X160860429Y-85788574D01*
X160861539Y-85796294D01*
X160865592Y-85802061D01*
X160871696Y-85812000D01*
X160873063Y-85818553D01*
X160875086Y-85825971D01*
X160877740Y-85827574D01*
X160881700Y-85831438D01*
X160882418Y-85835808D01*
X160885441Y-85844578D01*
X160892845Y-85855239D01*
X160894112Y-85856654D01*
X160901844Y-85866257D01*
X160905706Y-85873536D01*
X160905807Y-85874303D01*
X160907793Y-85881022D01*
X160912900Y-85892930D01*
X160917501Y-85902418D01*
X160924196Y-85918100D01*
X160928428Y-85932758D01*
X160929195Y-85939113D01*
X160931063Y-85952917D01*
X160935603Y-85968039D01*
X160936026Y-85969079D01*
X160939739Y-85980332D01*
X160940329Y-85987607D01*
X160939924Y-85988361D01*
X160940567Y-85991065D01*
X160942449Y-85991294D01*
X160945401Y-85995241D01*
X160947150Y-86007414D01*
X160947762Y-86028309D01*
X160947759Y-86032224D01*
X160947458Y-86052299D01*
X160946414Y-86065204D01*
X160944151Y-86073121D01*
X160940194Y-86078230D01*
X160937234Y-86080556D01*
X160926004Y-86086431D01*
X160910999Y-86091828D01*
X160906975Y-86092923D01*
X160893275Y-86095523D01*
X160884190Y-86094322D01*
X160876231Y-86089344D01*
X160860745Y-86076369D01*
X160847688Y-86063983D01*
X160838758Y-86053911D01*
X160835641Y-86048054D01*
X160831978Y-86042152D01*
X160826286Y-86038072D01*
X160820270Y-86032760D01*
X160818841Y-86031498D01*
X160816930Y-86026528D01*
X160813036Y-86019993D01*
X160807575Y-86017022D01*
X160799992Y-86011923D01*
X160798219Y-86007584D01*
X160794588Y-85999914D01*
X160791116Y-85997140D01*
X160784035Y-85990266D01*
X160775395Y-85978110D01*
X160767333Y-85963984D01*
X160762463Y-85952703D01*
X160758186Y-85945797D01*
X160755508Y-85944517D01*
X160749164Y-85941010D01*
X160740151Y-85932291D01*
X160730787Y-85921065D01*
X160723389Y-85910037D01*
X160720586Y-85903755D01*
X160714598Y-85894255D01*
X160708592Y-85890485D01*
X160699694Y-85884177D01*
X160699371Y-85883707D01*
X160765475Y-85883707D01*
X160768400Y-85891326D01*
X160772492Y-85893062D01*
X160778720Y-85895391D01*
X160779508Y-85897368D01*
X160783547Y-85901243D01*
X160793319Y-85904705D01*
X160793858Y-85904826D01*
X160804722Y-85908977D01*
X160810725Y-85914541D01*
X160810730Y-85914553D01*
X160817023Y-85920492D01*
X160820270Y-85921129D01*
X160824970Y-85918563D01*
X160823786Y-85912943D01*
X160820426Y-85902300D01*
X160817923Y-85890724D01*
X160813848Y-85876657D01*
X160808821Y-85866364D01*
X160803606Y-85859378D01*
X160799117Y-85859336D01*
X160792251Y-85865194D01*
X160782133Y-85871997D01*
X160773949Y-85874352D01*
X160769147Y-85876834D01*
X160766803Y-85878046D01*
X160765475Y-85883707D01*
X160699371Y-85883707D01*
X160694273Y-85876285D01*
X160687670Y-85867809D01*
X160681098Y-85864996D01*
X160671350Y-85861630D01*
X160667493Y-85858280D01*
X160659139Y-85852581D01*
X160647040Y-85848385D01*
X160635228Y-85845127D01*
X160634499Y-85844804D01*
X160627535Y-85841716D01*
X160627483Y-85841677D01*
X160620151Y-85838659D01*
X160619473Y-85838489D01*
X160631381Y-85838489D01*
X160632023Y-85841270D01*
X160634499Y-85841608D01*
X160638349Y-85839896D01*
X160637618Y-85838489D01*
X160632066Y-85837929D01*
X160631381Y-85838489D01*
X160619473Y-85838489D01*
X160607758Y-85835550D01*
X160604094Y-85834855D01*
X160589525Y-85831237D01*
X160577598Y-85826542D01*
X160576028Y-85825641D01*
X160564648Y-85820478D01*
X160551427Y-85816740D01*
X160536277Y-85811624D01*
X160523361Y-85804440D01*
X160509626Y-85797534D01*
X160493844Y-85793518D01*
X160493010Y-85793429D01*
X160480785Y-85791556D01*
X160473025Y-85789098D01*
X160472350Y-85788605D01*
X160465908Y-85786441D01*
X160454583Y-85785478D01*
X160453904Y-85785475D01*
X160442530Y-85784175D01*
X160435853Y-85781022D01*
X160435696Y-85780797D01*
X160429232Y-85777143D01*
X160421663Y-85776119D01*
X160411868Y-85774354D01*
X160407630Y-85771442D01*
X160401032Y-85767512D01*
X160395660Y-85766764D01*
X160388204Y-85765104D01*
X160386580Y-85762911D01*
X160382515Y-85759448D01*
X160372416Y-85755632D01*
X160369039Y-85754725D01*
X160356845Y-85749989D01*
X160351557Y-85744092D01*
X160351490Y-85743375D01*
X160348289Y-85738353D01*
X160337851Y-85737660D01*
X160337457Y-85737697D01*
X160324376Y-85736381D01*
X160309049Y-85731457D01*
X160304901Y-85729511D01*
X160290447Y-85723508D01*
X160277108Y-85720207D01*
X160274051Y-85719987D01*
X160261526Y-85716718D01*
X160253773Y-85711193D01*
X160241804Y-85704200D01*
X160221288Y-85700371D01*
X160219874Y-85700247D01*
X160204941Y-85698105D01*
X160194004Y-85694871D01*
X160190426Y-85692423D01*
X160183702Y-85687957D01*
X160172202Y-85684892D01*
X160171500Y-85684798D01*
X160158348Y-85681566D01*
X160148540Y-85676594D01*
X160132963Y-85667005D01*
X160116251Y-85661802D01*
X160103695Y-85661904D01*
X160093362Y-85661655D01*
X160087787Y-85655584D01*
X160080581Y-85648931D01*
X160066518Y-85644750D01*
X160058841Y-85643641D01*
X160043591Y-85640909D01*
X160031582Y-85637127D01*
X160027768Y-85634985D01*
X160017892Y-85629395D01*
X160013189Y-85628068D01*
X160004340Y-85623591D01*
X159999607Y-85618755D01*
X159992312Y-85613338D01*
X159979318Y-85610875D01*
X159969073Y-85610562D01*
X159950589Y-85610998D01*
X159938482Y-85613111D01*
X159929784Y-85618127D01*
X159921527Y-85627272D01*
X159918291Y-85631544D01*
X159907557Y-85644177D01*
X159905696Y-85646367D01*
X159892404Y-85658676D01*
X159880646Y-85666598D01*
X159874285Y-85668532D01*
X159868357Y-85672411D01*
X159867875Y-85673446D01*
X159866246Y-85676942D01*
X159860300Y-85683695D01*
G37*
G36*
X160194790Y-91083105D02*
G01*
X160197133Y-91085328D01*
X160197443Y-91089620D01*
X160196239Y-91089934D01*
X160189414Y-91087583D01*
X160185438Y-91085328D01*
X160181055Y-91081695D01*
X160185268Y-91080737D01*
X160186332Y-91080721D01*
X160194790Y-91083105D01*
G37*
G36*
X159881387Y-87513891D02*
G01*
X159879048Y-87516230D01*
X159876709Y-87513891D01*
X159879048Y-87511552D01*
X159881387Y-87513891D01*
G37*
G36*
X159721545Y-85390940D02*
G01*
X159721425Y-85396000D01*
X159719226Y-85398784D01*
X159712773Y-85401797D01*
X159708504Y-85399092D01*
X159708311Y-85397725D01*
X159712034Y-85392611D01*
X159715328Y-85390855D01*
X159721545Y-85390940D01*
G37*
G36*
X160246704Y-88345138D02*
G01*
X160246249Y-88343741D01*
X160242091Y-88340559D01*
X160229947Y-88341525D01*
X160219209Y-88342843D01*
X160215628Y-88340901D01*
X160216172Y-88338001D01*
X160214444Y-88330895D01*
X160206548Y-88321353D01*
X160203507Y-88318636D01*
X160193591Y-88310971D01*
X160187798Y-88309128D01*
X160183534Y-88312416D01*
X160182973Y-88313163D01*
X160177196Y-88317780D01*
X160172178Y-88315021D01*
X160167729Y-88312448D01*
X160166728Y-88317133D01*
X160163614Y-88324954D01*
X160160880Y-88326839D01*
X160157504Y-88330309D01*
X160160378Y-88334679D01*
X160167139Y-88337999D01*
X160175581Y-88335099D01*
X160183454Y-88332363D01*
X160185005Y-88334691D01*
X160180178Y-88340196D01*
X160175826Y-88343260D01*
X160170066Y-88348242D01*
X160168017Y-88355469D01*
X160168958Y-88368079D01*
X160169408Y-88371283D01*
X160172009Y-88385962D01*
X160174860Y-88397401D01*
X160175946Y-88400318D01*
X160177035Y-88408076D01*
X160176919Y-88422339D01*
X160175644Y-88440344D01*
X160175189Y-88444757D01*
X160172880Y-88466863D01*
X160170717Y-88489329D01*
X160169156Y-88507411D01*
X160169118Y-88507906D01*
X160167159Y-88531269D01*
X160165019Y-88546872D01*
X160161929Y-88556294D01*
X160157119Y-88561111D01*
X160149821Y-88562903D01*
X160142153Y-88563210D01*
X160129655Y-88564388D01*
X160121896Y-88567016D01*
X160120910Y-88568175D01*
X160116759Y-88571154D01*
X160109873Y-88567616D01*
X160101760Y-88559384D01*
X160093926Y-88548279D01*
X160087878Y-88536124D01*
X160085136Y-88524925D01*
X160082711Y-88506134D01*
X160078554Y-88491028D01*
X160073390Y-88481743D01*
X160069813Y-88479840D01*
X160065003Y-88476858D01*
X160065671Y-88472401D01*
X160066474Y-88463058D01*
X160065295Y-88459735D01*
X160062260Y-88451167D01*
X160060867Y-88443277D01*
X160057161Y-88431009D01*
X160053061Y-88424368D01*
X160048906Y-88415418D01*
X160050304Y-88402572D01*
X160050706Y-88401043D01*
X160054410Y-88390669D01*
X160059518Y-88387352D01*
X160067528Y-88388550D01*
X160078087Y-88392750D01*
X160083580Y-88397181D01*
X160086196Y-88400288D01*
X160087715Y-88398061D01*
X160088658Y-88388920D01*
X160089117Y-88380438D01*
X160088273Y-88368937D01*
X160085215Y-88361947D01*
X160085024Y-88361799D01*
X160083370Y-88358752D01*
X160086037Y-88358291D01*
X160091219Y-88354451D01*
X160091884Y-88351202D01*
X160089510Y-88344975D01*
X160087493Y-88344186D01*
X160084397Y-88340001D01*
X160081443Y-88329353D01*
X160080242Y-88321967D01*
X160076524Y-88300443D01*
X160071285Y-88279485D01*
X160065295Y-88261563D01*
X160059326Y-88249149D01*
X160058620Y-88248293D01*
X160260282Y-88248293D01*
X160262621Y-88250631D01*
X160264960Y-88248293D01*
X160262621Y-88245954D01*
X160260282Y-88248293D01*
X160058620Y-88248293D01*
X160056456Y-88245667D01*
X160050771Y-88239002D01*
X160049785Y-88236061D01*
X160045866Y-88227423D01*
X160035477Y-88216705D01*
X160020670Y-88205693D01*
X160004415Y-88196600D01*
X159991115Y-88189595D01*
X159982115Y-88183489D01*
X159979619Y-88180329D01*
X159975826Y-88176304D01*
X159972571Y-88175788D01*
X159964782Y-88172498D01*
X159955763Y-88164560D01*
X159955556Y-88164324D01*
X159944211Y-88155104D01*
X159932465Y-88149978D01*
X159923305Y-88146057D01*
X159921597Y-88141221D01*
X159919078Y-88135710D01*
X159909510Y-88128343D01*
X159902084Y-88124152D01*
X159889258Y-88116688D01*
X159880317Y-88109874D01*
X159878013Y-88106951D01*
X159872078Y-88102297D01*
X159864483Y-88100945D01*
X159853622Y-88097538D01*
X159843167Y-88089338D01*
X159843091Y-88089250D01*
X159834288Y-88081159D01*
X159826883Y-88077567D01*
X159826603Y-88077556D01*
X159819558Y-88073786D01*
X159817590Y-88070539D01*
X159812660Y-88064342D01*
X159810106Y-88063523D01*
X159804620Y-88060384D01*
X159794937Y-88052175D01*
X159783709Y-88041232D01*
X159763833Y-88022891D01*
X159745340Y-88009916D01*
X159729794Y-88003330D01*
X159724741Y-88002712D01*
X159719013Y-88000016D01*
X159718820Y-87996913D01*
X159716913Y-87990186D01*
X159709855Y-87982540D01*
X159702733Y-87974718D01*
X159699531Y-87963846D01*
X159698956Y-87951643D01*
X159701592Y-87932010D01*
X159709774Y-87919704D01*
X159723914Y-87914229D01*
X159730457Y-87913836D01*
X159746301Y-87916809D01*
X159764167Y-87924394D01*
X159780183Y-87934594D01*
X159789937Y-87944539D01*
X159798203Y-87952092D01*
X159809120Y-87952357D01*
X159817821Y-87951559D01*
X159819691Y-87955140D01*
X159818565Y-87959581D01*
X159817700Y-87966610D01*
X159822793Y-87967333D01*
X159823893Y-87967073D01*
X159833006Y-87968721D01*
X159843980Y-87975949D01*
X159844930Y-87976817D01*
X159854478Y-87984625D01*
X159861672Y-87988565D01*
X159862472Y-87988679D01*
X159866802Y-87992465D01*
X159867354Y-87995696D01*
X159870911Y-88001902D01*
X159874006Y-88002712D01*
X159880614Y-88006041D01*
X159890325Y-88014568D01*
X159896826Y-88021601D01*
X159906726Y-88032252D01*
X159912611Y-88035927D01*
X159915718Y-88033389D01*
X159915754Y-88033295D01*
X159921005Y-88026685D01*
X159926225Y-88028161D01*
X159928164Y-88035456D01*
X159931322Y-88043763D01*
X159941111Y-88045695D01*
X159943039Y-88045475D01*
X159948102Y-88048054D01*
X159957425Y-88055116D01*
X159963306Y-88060124D01*
X159975484Y-88069110D01*
X159986678Y-88074513D01*
X159990530Y-88075217D01*
X159998052Y-88077439D01*
X159999499Y-88081064D01*
X160000869Y-88086277D01*
X160005761Y-88085920D01*
X160010479Y-88080372D01*
X160010661Y-88079922D01*
X160014968Y-88075107D01*
X160017326Y-88075394D01*
X160019338Y-88081185D01*
X160018430Y-88085361D01*
X160018223Y-88090855D01*
X160022142Y-88090692D01*
X160028110Y-88084781D01*
X160030196Y-88078618D01*
X160033851Y-88071252D01*
X160039551Y-88071096D01*
X160041552Y-88070810D01*
X160036334Y-88067049D01*
X160034582Y-88066010D01*
X160025226Y-88059003D01*
X160021923Y-88053371D01*
X160025043Y-88050856D01*
X160031627Y-88052004D01*
X160038821Y-88052967D01*
X160039228Y-88048811D01*
X160033966Y-88043830D01*
X160031311Y-88043758D01*
X160027702Y-88042534D01*
X160028252Y-88040916D01*
X160028854Y-88033917D01*
X160026773Y-88022741D01*
X160026679Y-88022411D01*
X160025110Y-88008467D01*
X160029005Y-87999526D01*
X160033381Y-87994665D01*
X160035190Y-87996848D01*
X160035603Y-88006221D01*
X160037261Y-88017463D01*
X160042494Y-88021370D01*
X160043548Y-88021423D01*
X160048726Y-88022798D01*
X160048356Y-88024411D01*
X160049241Y-88029627D01*
X160055413Y-88039699D01*
X160065615Y-88052798D01*
X160075537Y-88063915D01*
X160081215Y-88071986D01*
X160082529Y-88076233D01*
X160086437Y-88081211D01*
X160092071Y-88083638D01*
X160098803Y-88087516D01*
X160099143Y-88095794D01*
X160098639Y-88097981D01*
X160098580Y-88108986D01*
X160105515Y-88119618D01*
X160107332Y-88121496D01*
X160115050Y-88131504D01*
X160118322Y-88140361D01*
X160118305Y-88141076D01*
X160121752Y-88148592D01*
X160131653Y-88156813D01*
X160133984Y-88158196D01*
X160148137Y-88167952D01*
X160162135Y-88180258D01*
X160164458Y-88182676D01*
X160176892Y-88193146D01*
X160190381Y-88200301D01*
X160193688Y-88201272D01*
X160206068Y-88205914D01*
X160214649Y-88212425D01*
X160214668Y-88212451D01*
X160222763Y-88219362D01*
X160236616Y-88227749D01*
X160253157Y-88235985D01*
X160269320Y-88242440D01*
X160273764Y-88243822D01*
X160280910Y-88246916D01*
X160279468Y-88250302D01*
X160278577Y-88250888D01*
X160274362Y-88255586D01*
X160279041Y-88259164D01*
X160292825Y-88261780D01*
X160293251Y-88261830D01*
X160304417Y-88264453D01*
X160310586Y-88268400D01*
X160310794Y-88268853D01*
X160316103Y-88272805D01*
X160327203Y-88276276D01*
X160331095Y-88277005D01*
X160343724Y-88280394D01*
X160347639Y-88284998D01*
X160347441Y-88285783D01*
X160348343Y-88294063D01*
X160356483Y-88300032D01*
X160368471Y-88302086D01*
X160380744Y-88304626D01*
X160388389Y-88309241D01*
X160399524Y-88314196D01*
X160407951Y-88313282D01*
X160416579Y-88311921D01*
X160418500Y-88315120D01*
X160417397Y-88319500D01*
X160417714Y-88329715D01*
X160426373Y-88337336D01*
X160440400Y-88342056D01*
X160453376Y-88347760D01*
X160462386Y-88355296D01*
X160469379Y-88361970D01*
X160476175Y-88361436D01*
X160479864Y-88359388D01*
X160488178Y-88355096D01*
X160493332Y-88353701D01*
X160493236Y-88355443D01*
X160489490Y-88358291D01*
X160485649Y-88362131D01*
X160489944Y-88364880D01*
X160492998Y-88365781D01*
X160501172Y-88369369D01*
X160503523Y-88372291D01*
X160507540Y-88376036D01*
X160517047Y-88379617D01*
X160528229Y-88381905D01*
X160536267Y-88381979D01*
X160540706Y-88382285D01*
X160537550Y-88386716D01*
X160535191Y-88391838D01*
X160539885Y-88397272D01*
X160544957Y-88400597D01*
X160559583Y-88407590D01*
X160572950Y-88411850D01*
X160582230Y-88415226D01*
X160585229Y-88419155D01*
X160585032Y-88419597D01*
X160586537Y-88422042D01*
X160594347Y-88421048D01*
X160603166Y-88420159D01*
X160606433Y-88422179D01*
X160610719Y-88425936D01*
X160622231Y-88430499D01*
X160638951Y-88435232D01*
X160658863Y-88439503D01*
X160664904Y-88440557D01*
X160678773Y-88443458D01*
X160689421Y-88446725D01*
X160690900Y-88447394D01*
X160699865Y-88449645D01*
X160714630Y-88451262D01*
X160731651Y-88452066D01*
X160747382Y-88451878D01*
X160757445Y-88450731D01*
X160765741Y-88446218D01*
X160776188Y-88437287D01*
X160779220Y-88434132D01*
X160787091Y-88424239D01*
X160790963Y-88414467D01*
X160792012Y-88400973D01*
X160791877Y-88392703D01*
X160790413Y-88376026D01*
X160787412Y-88366046D01*
X160785346Y-88364063D01*
X160779755Y-88358890D01*
X160773191Y-88348512D01*
X160771792Y-88345711D01*
X160763838Y-88333538D01*
X160754454Y-88325029D01*
X160753040Y-88324286D01*
X160743833Y-88315832D01*
X160742087Y-88308352D01*
X160740808Y-88299909D01*
X160738578Y-88297379D01*
X160734133Y-88293704D01*
X160727924Y-88284763D01*
X160727163Y-88283453D01*
X160717288Y-88272223D01*
X160703049Y-88262634D01*
X160700266Y-88261329D01*
X160686750Y-88253496D01*
X160681331Y-88245540D01*
X160681276Y-88244707D01*
X160677955Y-88236737D01*
X160669570Y-88226384D01*
X160664904Y-88221938D01*
X160655116Y-88212285D01*
X160649233Y-88204444D01*
X160648474Y-88202200D01*
X160644827Y-88196798D01*
X160636049Y-88189256D01*
X160625273Y-88181826D01*
X160615631Y-88176759D01*
X160611722Y-88175788D01*
X160607432Y-88171675D01*
X160603775Y-88161570D01*
X160601884Y-88148823D01*
X160601819Y-88146552D01*
X160605242Y-88139945D01*
X160613449Y-88138366D01*
X160622855Y-88140806D01*
X160625144Y-88145383D01*
X160629377Y-88151187D01*
X160642166Y-88153646D01*
X160652291Y-88153614D01*
X160658360Y-88157056D01*
X160666530Y-88166033D01*
X160669993Y-88170893D01*
X160686083Y-88187641D01*
X160699766Y-88194426D01*
X160712478Y-88200538D01*
X160719729Y-88207855D01*
X160720216Y-88209154D01*
X160725184Y-88216419D01*
X160729369Y-88217887D01*
X160736344Y-88221229D01*
X160747505Y-88230099D01*
X160761141Y-88242763D01*
X160775538Y-88257486D01*
X160788984Y-88272535D01*
X160799769Y-88286175D01*
X160805236Y-88294730D01*
X160812339Y-88306281D01*
X160818812Y-88313759D01*
X160820438Y-88314795D01*
X160825699Y-88320916D01*
X160826286Y-88324254D01*
X160828627Y-88332769D01*
X160834380Y-88344428D01*
X160835556Y-88346387D01*
X160840405Y-88358411D01*
X160844390Y-88375857D01*
X160847247Y-88395985D01*
X160848707Y-88416059D01*
X160848506Y-88433340D01*
X160846376Y-88445090D01*
X160845344Y-88447096D01*
X160841289Y-88457458D01*
X160840390Y-88464632D01*
X160837084Y-88473895D01*
X160828823Y-88485874D01*
X160817952Y-88498004D01*
X160806818Y-88507720D01*
X160797764Y-88512457D01*
X160796541Y-88512584D01*
X160787817Y-88514910D01*
X160775951Y-88520637D01*
X160773774Y-88521922D01*
X160761220Y-88528138D01*
X160750355Y-88531231D01*
X160749103Y-88531306D01*
X160738071Y-88533481D01*
X160727301Y-88537846D01*
X160718379Y-88541765D01*
X160714254Y-88540151D01*
X160712335Y-88534709D01*
X160709018Y-88528241D01*
X160703732Y-88530110D01*
X160695166Y-88532789D01*
X160683319Y-88532348D01*
X160672973Y-88529304D01*
X160669450Y-88526403D01*
X160663862Y-88524987D01*
X160653364Y-88526587D01*
X160652166Y-88526916D01*
X160638823Y-88528825D01*
X160632583Y-88526571D01*
X160624482Y-88522821D01*
X160617468Y-88521939D01*
X160607936Y-88520066D01*
X160604092Y-88517259D01*
X160598139Y-88513398D01*
X160586422Y-88509035D01*
X160580029Y-88507248D01*
X160566897Y-88502796D01*
X160558098Y-88497683D01*
X160556418Y-88495556D01*
X160550192Y-88489832D01*
X160546844Y-88489195D01*
X160538238Y-88486883D01*
X160526617Y-88481228D01*
X160525125Y-88480344D01*
X160509866Y-88473040D01*
X160494168Y-88468110D01*
X160481877Y-88464851D01*
X160473611Y-88461388D01*
X160473118Y-88461039D01*
X160462891Y-88454397D01*
X160448696Y-88446812D01*
X160433642Y-88439755D01*
X160420838Y-88434696D01*
X160413950Y-88433062D01*
X160406756Y-88429939D01*
X160405291Y-88426046D01*
X160401172Y-88420513D01*
X160391045Y-88419029D01*
X160375120Y-88414816D01*
X160365601Y-88407831D01*
X160357456Y-88400970D01*
X160352252Y-88398910D01*
X160351927Y-88399109D01*
X160346760Y-88398566D01*
X160337653Y-88393853D01*
X160337184Y-88393548D01*
X160323941Y-88386832D01*
X160312480Y-88383263D01*
X160299116Y-88378395D01*
X160290687Y-88372930D01*
X160280186Y-88365651D01*
X160266359Y-88358127D01*
X160263790Y-88356930D01*
X160262621Y-88356278D01*
X160252818Y-88350812D01*
X160246704Y-88345138D01*
G37*
G36*
X160027533Y-90689014D02*
G01*
X160026396Y-90683372D01*
X160023223Y-90675052D01*
X160015062Y-90663588D01*
X160007685Y-90655525D01*
X159997424Y-90644656D01*
X159990628Y-90636095D01*
X159988974Y-90632693D01*
X159985234Y-90627951D01*
X159975919Y-90621447D01*
X159972526Y-90619526D01*
X159962464Y-90612494D01*
X159958202Y-90606103D01*
X159958346Y-90604757D01*
X159956632Y-90599840D01*
X159952042Y-90598845D01*
X159945008Y-90595248D01*
X159935795Y-90586389D01*
X159926803Y-90575166D01*
X159920429Y-90564474D01*
X159918809Y-90558705D01*
X159915654Y-90552816D01*
X159912894Y-90549729D01*
X160031074Y-90549729D01*
X160033413Y-90552068D01*
X160035751Y-90549729D01*
X160033413Y-90547390D01*
X160031074Y-90549729D01*
X159912894Y-90549729D01*
X159907873Y-90544114D01*
X159905945Y-90542284D01*
X159893993Y-90530129D01*
X159882259Y-90516555D01*
X159881438Y-90515515D01*
X159872699Y-90506057D01*
X159865329Y-90500921D01*
X159863897Y-90500613D01*
X159858907Y-90496767D01*
X159857998Y-90492402D01*
X159854995Y-90484539D01*
X159847278Y-90473127D01*
X159840457Y-90465026D01*
X159827910Y-90450932D01*
X159815920Y-90436856D01*
X159811272Y-90431138D01*
X159802765Y-90421789D01*
X159795977Y-90416716D01*
X159794757Y-90416414D01*
X159789948Y-90412493D01*
X159784814Y-90402952D01*
X159784425Y-90401954D01*
X159779559Y-90392974D01*
X159774867Y-90390116D01*
X159774381Y-90390327D01*
X159769588Y-90388926D01*
X159766843Y-90383860D01*
X159761081Y-90374246D01*
X159752473Y-90365577D01*
X159744370Y-90357322D01*
X159741044Y-90350253D01*
X159738161Y-90342990D01*
X159731157Y-90332757D01*
X159722471Y-90322521D01*
X159714545Y-90315247D01*
X159710791Y-90313504D01*
X159704926Y-90310087D01*
X159695428Y-90301269D01*
X159684186Y-90289203D01*
X159673088Y-90276043D01*
X159664022Y-90263942D01*
X159658877Y-90255052D01*
X159658488Y-90253863D01*
X159652834Y-90245216D01*
X159646994Y-90243339D01*
X159639694Y-90240178D01*
X159638146Y-90236098D01*
X159634830Y-90228831D01*
X159626935Y-90219331D01*
X159617536Y-90210742D01*
X159609708Y-90206206D01*
X159608767Y-90206065D01*
X159603761Y-90202748D01*
X159595276Y-90194520D01*
X159590741Y-90189545D01*
X159580787Y-90179734D01*
X159572266Y-90173889D01*
X159569687Y-90173173D01*
X159562319Y-90169397D01*
X159560316Y-90166156D01*
X159554608Y-90159943D01*
X159551433Y-90159140D01*
X159546027Y-90155158D01*
X159543747Y-90148615D01*
X159539924Y-90140386D01*
X159535236Y-90138090D01*
X159527604Y-90134304D01*
X159525084Y-90130505D01*
X159518174Y-90123258D01*
X159507280Y-90119279D01*
X159496517Y-90119480D01*
X159490981Y-90122956D01*
X159483738Y-90130078D01*
X159475042Y-90135477D01*
X159467842Y-90137711D01*
X159465070Y-90135640D01*
X159462204Y-90132716D01*
X159460316Y-90133459D01*
X159457699Y-90139193D01*
X159458380Y-90140957D01*
X159458509Y-90148256D01*
X159456945Y-90151159D01*
X159453119Y-90160075D01*
X159452406Y-90169920D01*
X159454771Y-90176805D01*
X159457175Y-90177922D01*
X159460289Y-90179015D01*
X159457146Y-90181545D01*
X159453383Y-90188410D01*
X159450219Y-90202792D01*
X159447673Y-90223099D01*
X159445766Y-90247743D01*
X159444518Y-90275132D01*
X159443949Y-90303678D01*
X159444080Y-90331791D01*
X159444931Y-90357880D01*
X159446522Y-90380356D01*
X159448873Y-90397628D01*
X159452006Y-90408108D01*
X159454226Y-90410461D01*
X159457373Y-90416131D01*
X159455821Y-90425400D01*
X159454374Y-90437100D01*
X159456149Y-90445023D01*
X159458103Y-90452567D01*
X159459572Y-90466693D01*
X159460290Y-90484633D01*
X159460321Y-90488607D01*
X159462827Y-90524006D01*
X159470021Y-90552838D01*
X159477103Y-90574816D01*
X159481074Y-90593757D01*
X159482932Y-90614979D01*
X159483248Y-90623256D01*
X159484346Y-90634527D01*
X159487427Y-90638402D01*
X159491610Y-90637647D01*
X159496995Y-90636866D01*
X159496217Y-90642277D01*
X159495663Y-90643641D01*
X159492396Y-90659074D01*
X159495622Y-90671767D01*
X159499781Y-90676334D01*
X159504198Y-90682039D01*
X159501393Y-90686949D01*
X159498424Y-90693324D01*
X159501556Y-90698013D01*
X159505483Y-90706361D01*
X159507168Y-90718712D01*
X159507170Y-90719023D01*
X159510363Y-90733792D01*
X159516525Y-90740262D01*
X159523871Y-90747104D01*
X159525880Y-90751996D01*
X159528878Y-90757461D01*
X159530658Y-90757887D01*
X159535964Y-90761671D01*
X159540506Y-90769015D01*
X159547561Y-90777461D01*
X159553988Y-90777943D01*
X159562182Y-90779595D01*
X159565401Y-90785198D01*
X159568966Y-90791343D01*
X159576161Y-90792962D01*
X159585347Y-90791903D01*
X159596344Y-90790748D01*
X159600201Y-90792598D01*
X159599580Y-90796221D01*
X159600763Y-90804440D01*
X159608052Y-90812546D01*
X159618551Y-90817890D01*
X159624166Y-90818698D01*
X159631738Y-90820667D01*
X159633468Y-90823375D01*
X159637582Y-90826459D01*
X159647707Y-90828010D01*
X159649956Y-90828053D01*
X159662148Y-90829498D01*
X159668744Y-90835132D01*
X159670890Y-90839747D01*
X159676430Y-90848451D01*
X159682019Y-90851442D01*
X159689222Y-90853632D01*
X159701793Y-90859384D01*
X159717063Y-90867474D01*
X159717667Y-90867814D01*
X159733442Y-90876023D01*
X159747118Y-90881898D01*
X159755772Y-90884185D01*
X159755850Y-90884186D01*
X159765347Y-90886922D01*
X159777399Y-90893713D01*
X159780400Y-90895880D01*
X159792297Y-90903369D01*
X159802705Y-90907372D01*
X159804646Y-90907580D01*
X159813864Y-90910507D01*
X159825244Y-90917725D01*
X159827495Y-90919570D01*
X159836565Y-90925959D01*
X159842341Y-90927398D01*
X159843087Y-90926580D01*
X159848542Y-90922125D01*
X159851872Y-90921608D01*
X159856818Y-90924586D01*
X159856239Y-90928801D01*
X159855767Y-90934568D01*
X159860787Y-90938378D01*
X159872862Y-90941060D01*
X159881387Y-90942165D01*
X159891923Y-90944516D01*
X159896791Y-90947869D01*
X159896820Y-90948512D01*
X159899921Y-90951128D01*
X159907034Y-90950834D01*
X159915009Y-90950443D01*
X159916306Y-90955311D01*
X159915422Y-90959275D01*
X159914417Y-90966332D01*
X159918183Y-90968290D01*
X159927427Y-90966895D01*
X159937720Y-90966056D01*
X159942179Y-90968223D01*
X159942197Y-90968454D01*
X159946145Y-90974553D01*
X159956369Y-90982682D01*
X159970438Y-90991443D01*
X159985923Y-90999440D01*
X160000394Y-91005276D01*
X160010139Y-91007500D01*
X160022162Y-91009699D01*
X160029397Y-91013375D01*
X160030044Y-91014411D01*
X160034052Y-91018048D01*
X160035621Y-91017581D01*
X160041245Y-91018716D01*
X160045150Y-91022230D01*
X160053112Y-91028145D01*
X160057374Y-91029195D01*
X160063222Y-91031914D01*
X160063818Y-91033873D01*
X160067697Y-91037787D01*
X160072358Y-91038550D01*
X160081323Y-91041781D01*
X160091269Y-91049595D01*
X160091656Y-91050002D01*
X160103602Y-91059157D01*
X160116176Y-91064476D01*
X160126844Y-91068698D01*
X160132514Y-91074212D01*
X160135420Y-91078342D01*
X160139770Y-91074508D01*
X160140504Y-91073521D01*
X160144915Y-91069369D01*
X160149983Y-91071107D01*
X160157138Y-91078062D01*
X160166921Y-91086193D01*
X160175694Y-91089972D01*
X160176326Y-91090005D01*
X160185781Y-91093370D01*
X160190451Y-91097425D01*
X160200568Y-91102761D01*
X160209734Y-91102220D01*
X160219218Y-91101453D01*
X160222615Y-91105400D01*
X160222860Y-91108833D01*
X160224981Y-91116368D01*
X160227872Y-91118072D01*
X160234918Y-91121084D01*
X160240264Y-91125451D01*
X160249794Y-91130477D01*
X160256312Y-91130564D01*
X160265130Y-91131318D01*
X160268479Y-91134160D01*
X160275180Y-91140248D01*
X160287256Y-91147480D01*
X160301703Y-91154463D01*
X160315517Y-91159805D01*
X160325696Y-91162113D01*
X160328161Y-91161843D01*
X160334130Y-91162205D01*
X160335125Y-91164624D01*
X160332211Y-91167694D01*
X160329841Y-91166813D01*
X160326255Y-91166856D01*
X160326699Y-91170045D01*
X160331587Y-91175201D01*
X160339598Y-91178024D01*
X160346743Y-91177717D01*
X160349158Y-91174530D01*
X160352976Y-91170180D01*
X160356682Y-91169526D01*
X160361962Y-91172081D01*
X160361527Y-91180200D01*
X160362111Y-91190574D01*
X160369206Y-91197564D01*
X160378380Y-91202192D01*
X160383616Y-91203081D01*
X160390100Y-91204550D01*
X160398951Y-91209300D01*
X160408534Y-91213766D01*
X160414812Y-91213863D01*
X160420051Y-91214944D01*
X160422197Y-91218346D01*
X160427111Y-91224726D01*
X160429813Y-91225659D01*
X160436008Y-91228805D01*
X160444623Y-91236463D01*
X160445420Y-91237308D01*
X160454923Y-91244775D01*
X160462902Y-91246384D01*
X160463139Y-91246301D01*
X160470717Y-91247769D01*
X160475062Y-91252988D01*
X160482770Y-91260764D01*
X160494846Y-91267188D01*
X160496096Y-91267623D01*
X160508514Y-91273043D01*
X160517275Y-91279156D01*
X160517755Y-91279692D01*
X160526716Y-91285547D01*
X160531617Y-91286469D01*
X160539342Y-91290402D01*
X160542305Y-91295844D01*
X160546987Y-91302669D01*
X160552206Y-91302360D01*
X160558496Y-91302751D01*
X160559656Y-91307019D01*
X160563166Y-91312822D01*
X160573689Y-91314536D01*
X160583541Y-91315939D01*
X160587721Y-91319319D01*
X160587722Y-91319380D01*
X160591714Y-91323884D01*
X160601736Y-91329768D01*
X160614860Y-91335719D01*
X160628156Y-91340427D01*
X160638696Y-91342578D01*
X160639565Y-91342602D01*
X160646933Y-91345693D01*
X160648532Y-91349765D01*
X160652377Y-91357194D01*
X160656718Y-91359832D01*
X160667260Y-91365369D01*
X160672505Y-91369236D01*
X160680371Y-91374115D01*
X160684199Y-91374799D01*
X160692925Y-91375913D01*
X160706812Y-91380778D01*
X160723162Y-91388076D01*
X160739275Y-91396486D01*
X160752451Y-91404689D01*
X160759990Y-91411366D01*
X160760410Y-91412044D01*
X160768676Y-91420440D01*
X160775877Y-91423800D01*
X160786297Y-91430505D01*
X160795820Y-91442992D01*
X160802499Y-91457749D01*
X160804383Y-91471264D01*
X160803834Y-91474183D01*
X160794414Y-91493838D01*
X160780040Y-91505926D01*
X160769099Y-91509359D01*
X160758338Y-91509945D01*
X160748395Y-91506925D01*
X160736045Y-91499095D01*
X160730464Y-91494925D01*
X160715881Y-91484329D01*
X160702170Y-91475239D01*
X160695253Y-91471210D01*
X160685287Y-91464465D01*
X160679906Y-91458044D01*
X160673905Y-91452532D01*
X160663531Y-91448745D01*
X160650624Y-91444072D01*
X160641771Y-91438082D01*
X160633728Y-91432035D01*
X160620167Y-91423709D01*
X160603996Y-91414888D01*
X160603701Y-91414737D01*
X160586641Y-91405530D01*
X160571293Y-91396440D01*
X160561280Y-91389653D01*
X160550994Y-91382969D01*
X160542930Y-91380030D01*
X160542693Y-91380024D01*
X160535458Y-91376430D01*
X160530504Y-91370668D01*
X160524465Y-91363370D01*
X160520723Y-91361313D01*
X160511854Y-91359084D01*
X160497556Y-91353253D01*
X160480379Y-91345104D01*
X160462874Y-91335922D01*
X160447589Y-91326989D01*
X160437076Y-91319591D01*
X160436046Y-91318672D01*
X160424670Y-91309339D01*
X160414338Y-91303003D01*
X160412308Y-91302199D01*
X160403640Y-91297653D01*
X160391198Y-91289067D01*
X160381902Y-91281758D01*
X160367486Y-91271385D01*
X160353142Y-91263582D01*
X160345766Y-91260992D01*
X160335835Y-91257341D01*
X160331698Y-91252802D01*
X160331732Y-91252321D01*
X160328578Y-91247711D01*
X160321092Y-91245202D01*
X160310255Y-91242443D01*
X160304720Y-91239678D01*
X160296053Y-91233988D01*
X160283144Y-91226955D01*
X160268585Y-91219805D01*
X160254965Y-91213763D01*
X160244874Y-91210054D01*
X160241088Y-91209586D01*
X160236353Y-91207866D01*
X160232216Y-91202270D01*
X160226547Y-91195940D01*
X160222332Y-91195581D01*
X160215653Y-91195186D01*
X160203380Y-91190929D01*
X160187807Y-91183979D01*
X160171227Y-91175503D01*
X160155933Y-91166670D01*
X160144219Y-91158649D01*
X160138509Y-91152870D01*
X160129297Y-91144519D01*
X160111990Y-91137686D01*
X160109058Y-91136905D01*
X160095071Y-91132968D01*
X160085252Y-91129476D01*
X160082529Y-91127929D01*
X160074883Y-91122295D01*
X160061282Y-91115171D01*
X160044710Y-91107832D01*
X160028149Y-91101554D01*
X160014582Y-91097612D01*
X160010029Y-91096926D01*
X159996296Y-91094158D01*
X159985589Y-91088817D01*
X159985132Y-91088423D01*
X159973568Y-91079996D01*
X159957326Y-91070684D01*
X159938803Y-91061564D01*
X159920398Y-91053718D01*
X159904510Y-91048222D01*
X159893538Y-91046156D01*
X159891604Y-91046356D01*
X159883639Y-91047357D01*
X159882350Y-91043361D01*
X159883230Y-91040113D01*
X159883361Y-91034892D01*
X159879270Y-91029581D01*
X159869539Y-91022980D01*
X159852751Y-91013888D01*
X159851431Y-91013208D01*
X159834923Y-91005367D01*
X159821321Y-91000101D01*
X159812896Y-90998251D01*
X159811649Y-90998525D01*
X159807243Y-90997779D01*
X159806543Y-90994653D01*
X159802354Y-90985734D01*
X159791722Y-90978143D01*
X159777548Y-90973627D01*
X159770652Y-90973062D01*
X159758412Y-90970916D01*
X159751543Y-90965897D01*
X159745248Y-90959182D01*
X159732543Y-90950778D01*
X159712543Y-90940154D01*
X159693109Y-90930824D01*
X159680606Y-90924324D01*
X159672546Y-90918855D01*
X159670890Y-90916640D01*
X159666733Y-90913721D01*
X159656242Y-90910788D01*
X159650395Y-90909752D01*
X159637425Y-90906978D01*
X159632034Y-90903169D01*
X159631913Y-90898940D01*
X159631638Y-90894641D01*
X159626816Y-90892072D01*
X159615635Y-90890658D01*
X159604061Y-90890083D01*
X159586997Y-90889892D01*
X159576217Y-90891414D01*
X159568696Y-90895407D01*
X159563628Y-90900211D01*
X159551495Y-90908790D01*
X159539599Y-90909755D01*
X159529046Y-90909898D01*
X159523394Y-90912491D01*
X159516959Y-90916527D01*
X159508627Y-90916208D01*
X159502983Y-90912098D01*
X159502492Y-90909913D01*
X159499410Y-90901326D01*
X159494306Y-90894633D01*
X159479551Y-90876085D01*
X159471169Y-90857464D01*
X159469748Y-90847501D01*
X159467469Y-90835581D01*
X159462731Y-90828053D01*
X159457066Y-90824669D01*
X159455715Y-90825430D01*
X159452967Y-90824346D01*
X159446030Y-90817892D01*
X159442129Y-90813756D01*
X159432765Y-90805341D01*
X159425259Y-90801743D01*
X159423418Y-90802049D01*
X159418793Y-90802082D01*
X159418293Y-90800263D01*
X159414532Y-90795815D01*
X159411592Y-90795309D01*
X159404922Y-90791413D01*
X159401921Y-90785954D01*
X159397910Y-90778400D01*
X159395034Y-90776598D01*
X159393206Y-90772487D01*
X159393202Y-90762133D01*
X159393779Y-90756718D01*
X159398266Y-90740295D01*
X159408214Y-90726382D01*
X159413527Y-90721216D01*
X159430613Y-90705594D01*
X159424967Y-90669761D01*
X159421392Y-90647917D01*
X159417525Y-90625576D01*
X159414319Y-90608201D01*
X159410826Y-90587437D01*
X159407846Y-90565050D01*
X159406984Y-90556746D01*
X159405216Y-90540488D01*
X159403232Y-90526909D01*
X159402149Y-90521663D01*
X159400553Y-90512189D01*
X159398915Y-90496935D01*
X159397771Y-90481902D01*
X159395513Y-90450040D01*
X159392970Y-90422267D01*
X159390299Y-90399887D01*
X159387655Y-90384204D01*
X159385196Y-90376525D01*
X159385123Y-90376427D01*
X159383365Y-90369567D01*
X159382017Y-90355258D01*
X159381101Y-90335399D01*
X159380639Y-90311888D01*
X159380652Y-90286623D01*
X159381163Y-90261503D01*
X159382193Y-90238427D01*
X159383356Y-90223226D01*
X159384830Y-90201056D01*
X159384078Y-90185921D01*
X159380989Y-90175740D01*
X159380771Y-90175325D01*
X159377142Y-90165788D01*
X159379735Y-90158530D01*
X159382302Y-90155465D01*
X159387313Y-90145863D01*
X159391173Y-90131319D01*
X159392181Y-90124167D01*
X159395199Y-90108179D01*
X159400104Y-90098496D01*
X159401678Y-90097249D01*
X159408070Y-90089667D01*
X159409085Y-90085233D01*
X159412458Y-90075728D01*
X159420398Y-90064828D01*
X159430065Y-90055715D01*
X159438621Y-90051574D01*
X159439118Y-90051552D01*
X159445468Y-90048136D01*
X159446359Y-90044993D01*
X159450563Y-90038754D01*
X159461321Y-90032978D01*
X159475853Y-90028749D01*
X159491377Y-90027149D01*
X159492126Y-90027158D01*
X159506494Y-90029800D01*
X159521800Y-90035940D01*
X159523968Y-90037151D01*
X159536059Y-90043361D01*
X159545599Y-90046694D01*
X159547197Y-90046875D01*
X159553052Y-90050662D01*
X159553947Y-90054392D01*
X159556830Y-90059706D01*
X159560916Y-90059234D01*
X159568817Y-90060493D01*
X159578760Y-90067461D01*
X159579666Y-90068341D01*
X159588695Y-90075358D01*
X159595646Y-90077361D01*
X159596400Y-90077061D01*
X159601227Y-90078365D01*
X159603923Y-90083826D01*
X159608285Y-90092398D01*
X159614102Y-90091776D01*
X159618937Y-90085466D01*
X159623038Y-90079938D01*
X159627576Y-90081435D01*
X159631632Y-90085231D01*
X159636844Y-90092885D01*
X159634347Y-90099609D01*
X159632220Y-90107530D01*
X159637422Y-90114147D01*
X159647993Y-90117036D01*
X159648437Y-90117040D01*
X159655493Y-90120241D01*
X159656856Y-90124057D01*
X159659205Y-90130284D01*
X159661200Y-90131073D01*
X159667550Y-90134066D01*
X159673749Y-90139259D01*
X159681977Y-90145851D01*
X159686947Y-90148075D01*
X159696280Y-90149101D01*
X159697786Y-90149245D01*
X159703103Y-90153520D01*
X159703634Y-90156255D01*
X159707572Y-90162430D01*
X159713597Y-90165332D01*
X159720864Y-90169899D01*
X159720692Y-90175410D01*
X159721492Y-90183165D01*
X159724762Y-90185545D01*
X159730913Y-90190574D01*
X159731700Y-90193161D01*
X159734613Y-90200309D01*
X159738628Y-90205524D01*
X159753841Y-90222418D01*
X159764232Y-90235293D01*
X159768936Y-90243055D01*
X159769122Y-90244022D01*
X159773218Y-90246842D01*
X159783194Y-90248347D01*
X159784324Y-90248386D01*
X159792957Y-90249200D01*
X159794532Y-90250727D01*
X159793921Y-90251034D01*
X159791504Y-90256239D01*
X159793476Y-90265479D01*
X159798583Y-90275324D01*
X159805275Y-90282162D01*
X159810694Y-90289029D01*
X159811221Y-90291769D01*
X159814178Y-90298285D01*
X159821438Y-90307157D01*
X159830587Y-90316076D01*
X159839209Y-90322733D01*
X159844890Y-90324817D01*
X159845442Y-90324501D01*
X159848005Y-90325600D01*
X159848643Y-90330394D01*
X159851969Y-90338485D01*
X159860045Y-90348810D01*
X159870022Y-90358403D01*
X159879048Y-90364299D01*
X159881868Y-90364959D01*
X159885584Y-90368759D01*
X159886065Y-90372039D01*
X159889083Y-90383587D01*
X159896194Y-90396087D01*
X159903785Y-90403883D01*
X159912346Y-90410558D01*
X159926422Y-90423019D01*
X159943110Y-90438576D01*
X159958757Y-90455167D01*
X159969815Y-90471710D01*
X159972114Y-90476055D01*
X159978336Y-90486050D01*
X159983697Y-90491106D01*
X159984417Y-90491258D01*
X159988493Y-90495034D01*
X159988974Y-90498075D01*
X159992385Y-90504948D01*
X160000967Y-90514212D01*
X160005346Y-90517955D01*
X160015293Y-90527102D01*
X160021102Y-90534787D01*
X160021718Y-90536865D01*
X160022993Y-90542006D01*
X160027836Y-90540783D01*
X160035927Y-90534526D01*
X160040775Y-90529254D01*
X160043572Y-90522112D01*
X160044759Y-90510766D01*
X160044779Y-90492882D01*
X160044683Y-90488358D01*
X160044516Y-90470169D01*
X160044855Y-90455595D01*
X160045626Y-90447160D01*
X160045901Y-90446259D01*
X160046903Y-90439819D01*
X160047558Y-90426774D01*
X160047730Y-90409874D01*
X160047722Y-90408834D01*
X160047920Y-90390976D01*
X160049232Y-90380222D01*
X160052188Y-90374338D01*
X160056575Y-90371412D01*
X160063822Y-90364225D01*
X160069173Y-90352173D01*
X160069483Y-90350926D01*
X160076695Y-90323129D01*
X160083957Y-90302808D01*
X160091981Y-90288110D01*
X160095135Y-90283910D01*
X160102050Y-90276252D01*
X160105732Y-90273779D01*
X160105917Y-90274200D01*
X160108820Y-90273796D01*
X160115958Y-90268250D01*
X160117467Y-90266863D01*
X160124640Y-90258590D01*
X160126895Y-90252719D01*
X160126727Y-90252305D01*
X160128805Y-90247586D01*
X160137211Y-90240049D01*
X160149887Y-90231025D01*
X160164777Y-90221843D01*
X160179821Y-90213833D01*
X160192962Y-90208327D01*
X160196267Y-90207351D01*
X160209266Y-90204866D01*
X160228079Y-90202266D01*
X160250321Y-90199768D01*
X160273608Y-90197587D01*
X160295554Y-90195942D01*
X160313774Y-90195046D01*
X160325884Y-90195118D01*
X160328109Y-90195387D01*
X160342727Y-90200001D01*
X160353627Y-90205499D01*
X160365488Y-90211376D01*
X160374677Y-90213830D01*
X160388232Y-90216125D01*
X160404223Y-90220281D01*
X160420111Y-90225428D01*
X160433354Y-90230698D01*
X160441412Y-90235224D01*
X160442713Y-90237076D01*
X160446629Y-90242673D01*
X160453238Y-90245993D01*
X160463191Y-90250704D01*
X160467627Y-90254494D01*
X160471794Y-90257142D01*
X160473698Y-90254360D01*
X160478973Y-90250496D01*
X160486123Y-90251881D01*
X160490846Y-90256866D01*
X160490728Y-90260892D01*
X160490378Y-90265238D01*
X160495201Y-90266640D01*
X160507117Y-90265593D01*
X160508335Y-90265431D01*
X160527210Y-90264791D01*
X160538905Y-90268681D01*
X160542865Y-90276852D01*
X160542316Y-90280699D01*
X160538970Y-90288786D01*
X160534339Y-90288260D01*
X160528746Y-90281930D01*
X160523953Y-90277336D01*
X160522454Y-90278422D01*
X160526079Y-90287837D01*
X160537892Y-90296290D01*
X160542860Y-90298636D01*
X160553094Y-90302169D01*
X160558545Y-90300732D01*
X160560147Y-90298677D01*
X160565277Y-90295348D01*
X160567452Y-90296353D01*
X160567441Y-90301431D01*
X160564768Y-90303880D01*
X160561093Y-90309858D01*
X160564281Y-90315839D01*
X160571518Y-90318182D01*
X160578763Y-90321761D01*
X160585306Y-90329102D01*
X160595175Y-90339883D01*
X160604125Y-90346265D01*
X160612706Y-90353636D01*
X160615788Y-90361072D01*
X160619430Y-90368265D01*
X160625420Y-90369637D01*
X160631888Y-90367836D01*
X160632160Y-90364959D01*
X160631568Y-90360766D01*
X160635871Y-90361011D01*
X160642006Y-90365217D01*
X160643363Y-90366705D01*
X160646476Y-90376236D01*
X160645696Y-90380940D01*
X160646925Y-90388866D01*
X160653371Y-90399178D01*
X160662543Y-90408964D01*
X160671948Y-90415311D01*
X160675930Y-90416284D01*
X160680143Y-90419672D01*
X160679585Y-90423431D01*
X160680312Y-90429124D01*
X160686601Y-90430447D01*
X160693711Y-90432632D01*
X160693710Y-90437225D01*
X160695056Y-90444654D01*
X160701696Y-90455075D01*
X160704886Y-90458750D01*
X160712804Y-90468541D01*
X160716452Y-90475750D01*
X160716326Y-90477278D01*
X160715753Y-90484524D01*
X160719054Y-90492456D01*
X160723876Y-90495935D01*
X160727289Y-90492019D01*
X160728053Y-90486727D01*
X160730320Y-90480025D01*
X160735070Y-90480211D01*
X160741044Y-90485803D01*
X160741365Y-90492964D01*
X160737141Y-90496804D01*
X160734411Y-90501777D01*
X160735293Y-90506523D01*
X160739697Y-90512060D01*
X160742577Y-90512004D01*
X160746227Y-90513280D01*
X160746764Y-90516319D01*
X160750132Y-90523700D01*
X160752612Y-90525190D01*
X160755972Y-90528323D01*
X160752209Y-90534730D01*
X160748604Y-90543251D01*
X160751042Y-90549547D01*
X160758154Y-90550466D01*
X160758932Y-90550195D01*
X160763637Y-90551085D01*
X160765412Y-90559507D01*
X160765475Y-90562823D01*
X160768480Y-90577334D01*
X160776269Y-90593586D01*
X160778220Y-90596590D01*
X160784845Y-90607308D01*
X160793389Y-90622540D01*
X160802749Y-90640127D01*
X160811819Y-90657910D01*
X160819495Y-90673727D01*
X160824673Y-90685422D01*
X160826286Y-90690565D01*
X160828533Y-90698113D01*
X160834313Y-90710888D01*
X160842183Y-90726196D01*
X160850697Y-90741341D01*
X160858412Y-90753630D01*
X160863519Y-90760056D01*
X160870775Y-90770486D01*
X160873063Y-90779662D01*
X160874760Y-90788100D01*
X160877740Y-90790631D01*
X160881661Y-90794509D01*
X160882418Y-90799131D01*
X160884469Y-90807550D01*
X160889815Y-90821077D01*
X160896451Y-90835070D01*
X160903700Y-90850251D01*
X160908769Y-90862791D01*
X160910484Y-90869471D01*
X160913434Y-90878162D01*
X160918324Y-90885095D01*
X160923706Y-90895538D01*
X160926445Y-90909546D01*
X160926510Y-90911191D01*
X160929272Y-90926458D01*
X160935042Y-90934736D01*
X160941756Y-90944186D01*
X160943228Y-90951178D01*
X160945404Y-90961841D01*
X160950808Y-90975460D01*
X160952584Y-90978962D01*
X160958526Y-90992064D01*
X160961748Y-91003094D01*
X160961939Y-91005219D01*
X160965563Y-91014273D01*
X160972400Y-91020966D01*
X160979403Y-91026844D01*
X160978964Y-91032232D01*
X160976308Y-91035807D01*
X160972397Y-91042152D01*
X160976147Y-91045296D01*
X160978949Y-91046106D01*
X160986957Y-91052714D01*
X160993495Y-91068178D01*
X160994132Y-91070427D01*
X160999735Y-91088793D01*
X161006650Y-91108744D01*
X161009097Y-91115187D01*
X161014369Y-91131135D01*
X161017597Y-91145770D01*
X161018072Y-91151198D01*
X161021504Y-91164438D01*
X161029766Y-91176985D01*
X161037596Y-91187606D01*
X161041393Y-91197025D01*
X161041460Y-91198000D01*
X161043989Y-91206813D01*
X161046546Y-91209539D01*
X161049732Y-91216062D01*
X161049308Y-91221564D01*
X161049612Y-91230735D01*
X161052884Y-91244769D01*
X161056312Y-91254950D01*
X161062014Y-91270401D01*
X161066538Y-91283489D01*
X161068180Y-91288808D01*
X161073587Y-91299370D01*
X161077565Y-91303667D01*
X161082143Y-91312776D01*
X161081323Y-91318893D01*
X161081315Y-91328034D01*
X161085845Y-91331534D01*
X161091138Y-91337408D01*
X161090687Y-91341662D01*
X161090574Y-91349350D01*
X161092433Y-91351659D01*
X161095310Y-91357547D01*
X161097837Y-91369658D01*
X161098947Y-91379415D01*
X161101118Y-91394114D01*
X161104523Y-91404826D01*
X161106930Y-91408079D01*
X161110628Y-91414914D01*
X161111108Y-91429410D01*
X161110617Y-91435658D01*
X161110206Y-91453527D01*
X161113288Y-91463434D01*
X161114398Y-91464582D01*
X161118123Y-91473306D01*
X161116783Y-91479788D01*
X161115276Y-91489757D01*
X161115129Y-91505261D01*
X161116060Y-91519393D01*
X161116795Y-91545005D01*
X161112998Y-91563172D01*
X161112915Y-91563372D01*
X161109303Y-91574856D01*
X161110870Y-91583511D01*
X161113892Y-91588728D01*
X161119278Y-91597408D01*
X161119994Y-91603078D01*
X161115698Y-91610002D01*
X161111779Y-91614991D01*
X161106098Y-91623694D01*
X161104824Y-91628907D01*
X161104938Y-91629051D01*
X161104921Y-91634496D01*
X161101672Y-91643597D01*
X161097058Y-91652163D01*
X161092947Y-91656009D01*
X161092915Y-91656009D01*
X161088840Y-91659757D01*
X161084643Y-91667195D01*
X161075501Y-91678390D01*
X161061454Y-91687043D01*
X161046447Y-91691129D01*
X161038967Y-91690635D01*
X161029389Y-91684692D01*
X161023067Y-91671773D01*
X161020131Y-91657431D01*
X161016630Y-91644645D01*
X161013464Y-91637429D01*
X161009214Y-91625919D01*
X161006209Y-91611696D01*
X161006174Y-91611427D01*
X161003564Y-91597836D01*
X161000112Y-91587303D01*
X160999958Y-91586991D01*
X160992537Y-91571213D01*
X160986092Y-91555583D01*
X160981783Y-91543076D01*
X160980650Y-91537474D01*
X160979029Y-91530895D01*
X160974637Y-91517682D01*
X160968186Y-91499882D01*
X160961939Y-91483509D01*
X160954300Y-91463135D01*
X160948167Y-91445309D01*
X160944262Y-91432224D01*
X160943228Y-91426693D01*
X160946337Y-91420080D01*
X160954203Y-91418714D01*
X160964640Y-91421576D01*
X160975460Y-91427646D01*
X160984474Y-91435904D01*
X160989495Y-91445330D01*
X160989902Y-91448447D01*
X160993244Y-91455661D01*
X160996722Y-91459295D01*
X161002674Y-91467843D01*
X161006363Y-91478188D01*
X161011671Y-91489694D01*
X161019926Y-91495516D01*
X161027849Y-91494367D01*
X161030978Y-91496395D01*
X161032485Y-91504877D01*
X161032865Y-91518016D01*
X161039127Y-91503983D01*
X161042574Y-91492036D01*
X161041086Y-91485506D01*
X161038415Y-91478377D01*
X161036907Y-91465873D01*
X161036783Y-91460948D01*
X161035813Y-91448723D01*
X161033372Y-91441588D01*
X161032105Y-91440834D01*
X161028887Y-91436753D01*
X161027434Y-91426848D01*
X161027427Y-91426043D01*
X161025883Y-91412119D01*
X161021917Y-91393345D01*
X161016527Y-91373579D01*
X161010713Y-91356679D01*
X161007788Y-91350178D01*
X161003392Y-91338554D01*
X161001151Y-91329129D01*
X160998336Y-91317556D01*
X160993477Y-91301890D01*
X160990536Y-91293486D01*
X160985072Y-91277916D01*
X160978123Y-91257206D01*
X160970958Y-91235160D01*
X160969028Y-91229081D01*
X160962916Y-91210778D01*
X160957376Y-91196086D01*
X160953249Y-91187156D01*
X160951997Y-91185536D01*
X160948397Y-91179207D01*
X160947877Y-91175098D01*
X160945764Y-91165454D01*
X160940861Y-91153789D01*
X160935814Y-91140829D01*
X160933873Y-91129804D01*
X160930845Y-91118683D01*
X160926656Y-91113227D01*
X160921344Y-91104894D01*
X160921003Y-91099791D01*
X160919865Y-91091883D01*
X160915335Y-91078791D01*
X160909509Y-91065710D01*
X160902643Y-91050651D01*
X160897913Y-91038264D01*
X160896451Y-91032072D01*
X160893521Y-91023877D01*
X160891485Y-91022000D01*
X160884971Y-91013974D01*
X160879701Y-91000973D01*
X160877280Y-90987371D01*
X160877378Y-90983504D01*
X160875158Y-90973162D01*
X160868334Y-90961053D01*
X160866392Y-90958587D01*
X160858682Y-90948089D01*
X160854565Y-90939881D01*
X160854352Y-90938556D01*
X160851323Y-90930409D01*
X160848889Y-90927371D01*
X160843816Y-90919285D01*
X160838101Y-90906218D01*
X160833323Y-90892280D01*
X160831060Y-90881578D01*
X160831034Y-90880885D01*
X160828527Y-90873802D01*
X160822309Y-90862683D01*
X160819269Y-90858013D01*
X160812041Y-90845597D01*
X160807932Y-90835115D01*
X160807575Y-90832579D01*
X160804079Y-90824149D01*
X160800558Y-90821684D01*
X160794333Y-90815286D01*
X160793542Y-90811566D01*
X160791553Y-90803698D01*
X160786370Y-90790566D01*
X160779986Y-90776819D01*
X160772253Y-90759976D01*
X160766050Y-90744211D01*
X160763242Y-90734982D01*
X160760150Y-90724968D01*
X160757000Y-90720483D01*
X160756838Y-90720466D01*
X160753455Y-90716569D01*
X160747124Y-90706146D01*
X160738963Y-90691095D01*
X160734991Y-90683317D01*
X160726063Y-90666719D01*
X160718011Y-90653880D01*
X160712100Y-90646736D01*
X160710512Y-90645895D01*
X160706112Y-90641676D01*
X160704665Y-90633928D01*
X160701411Y-90621828D01*
X160695309Y-90612878D01*
X160688334Y-90604052D01*
X160685756Y-90597676D01*
X160682291Y-90591112D01*
X160673978Y-90582300D01*
X160671723Y-90580354D01*
X160662690Y-90570950D01*
X160658052Y-90562384D01*
X160657888Y-90561046D01*
X160654529Y-90551583D01*
X160650871Y-90547390D01*
X160644927Y-90539426D01*
X160643855Y-90535123D01*
X160640077Y-90529483D01*
X160636562Y-90528679D01*
X160631479Y-90526753D01*
X160631690Y-90524762D01*
X160630389Y-90519186D01*
X160624294Y-90509650D01*
X160620462Y-90504882D01*
X160612103Y-90493932D01*
X160607169Y-90485209D01*
X160606623Y-90483072D01*
X160603455Y-90477631D01*
X160601717Y-90477224D01*
X160597252Y-90473281D01*
X160591621Y-90463371D01*
X160589515Y-90458514D01*
X160581994Y-90444767D01*
X160573786Y-90439833D01*
X160573034Y-90439803D01*
X160564101Y-90436210D01*
X160561036Y-90431974D01*
X160554998Y-90421755D01*
X160546658Y-90413371D01*
X160538805Y-90409279D01*
X160535784Y-90409696D01*
X160531992Y-90408975D01*
X160531831Y-90406359D01*
X160531834Y-90393732D01*
X160527092Y-90388564D01*
X160525073Y-90388348D01*
X160517902Y-90384566D01*
X160515780Y-90381109D01*
X160509688Y-90374573D01*
X160498910Y-90368959D01*
X160498808Y-90368923D01*
X160487244Y-90362718D01*
X160479871Y-90355112D01*
X160473229Y-90347918D01*
X160468440Y-90346248D01*
X160461121Y-90342540D01*
X160456775Y-90336948D01*
X160448645Y-90328863D01*
X160439069Y-90324514D01*
X160425363Y-90319621D01*
X160416249Y-90314849D01*
X160406888Y-90311101D01*
X160403109Y-90313250D01*
X160397215Y-90317897D01*
X160392186Y-90315957D01*
X160391258Y-90312291D01*
X160387145Y-90304344D01*
X160377022Y-90298553D01*
X160364215Y-90296464D01*
X160358596Y-90297114D01*
X160348580Y-90297869D01*
X160345693Y-90293891D01*
X160345153Y-90281064D01*
X160340608Y-90274981D01*
X160329855Y-90273205D01*
X160326939Y-90273154D01*
X160313300Y-90272951D01*
X160294400Y-90272550D01*
X160274329Y-90272036D01*
X160274315Y-90272035D01*
X160252141Y-90271650D01*
X160236429Y-90272301D01*
X160224304Y-90274480D01*
X160212888Y-90278680D01*
X160200827Y-90284600D01*
X160187536Y-90290719D01*
X160176797Y-90294356D01*
X160173841Y-90294794D01*
X160168814Y-90297318D01*
X160169374Y-90306047D01*
X160169646Y-90315402D01*
X160163105Y-90320181D01*
X160162541Y-90320365D01*
X160155295Y-90324991D01*
X160153959Y-90328992D01*
X160150972Y-90332928D01*
X160143994Y-90333349D01*
X160136023Y-90334015D01*
X160135509Y-90338800D01*
X160135194Y-90346290D01*
X160132065Y-90359166D01*
X160127163Y-90374292D01*
X160121529Y-90388530D01*
X160116204Y-90398742D01*
X160115135Y-90400188D01*
X160113548Y-90406226D01*
X160111737Y-90419487D01*
X160109865Y-90437846D01*
X160108099Y-90459180D01*
X160106601Y-90481363D01*
X160105538Y-90502273D01*
X160105072Y-90519783D01*
X160105182Y-90528679D01*
X160105656Y-90542510D01*
X160105859Y-90550704D01*
X160109407Y-90561015D01*
X160114172Y-90565647D01*
X160119568Y-90570581D01*
X160117772Y-90577554D01*
X160116538Y-90579658D01*
X160113457Y-90588786D01*
X160115596Y-90592028D01*
X160117707Y-90597606D01*
X160116167Y-90600431D01*
X160114749Y-90607697D01*
X160115027Y-90622625D01*
X160116944Y-90643685D01*
X160118046Y-90652639D01*
X160120821Y-90677681D01*
X160121429Y-90693751D01*
X160119868Y-90700791D01*
X160119416Y-90701076D01*
X160114319Y-90706305D01*
X160110301Y-90714221D01*
X160105659Y-90721751D01*
X160101454Y-90722937D01*
X160094572Y-90722783D01*
X160083302Y-90725935D01*
X160080761Y-90726942D01*
X160064548Y-90733716D01*
X160052094Y-90715746D01*
X160043248Y-90704406D01*
X160035417Y-90696701D01*
X160033413Y-90695476D01*
X160033018Y-90695234D01*
X160027533Y-90689014D01*
G37*
G36*
X161115966Y-91574011D02*
G01*
X161116304Y-91576488D01*
X161114592Y-91580338D01*
X161113185Y-91579606D01*
X161112626Y-91574055D01*
X161113185Y-91573369D01*
X161115966Y-91574011D01*
G37*
G36*
X160485982Y-84898289D02*
G01*
X160486569Y-84899996D01*
X160480135Y-84900648D01*
X160473494Y-84899913D01*
X160474287Y-84898289D01*
X160483864Y-84897671D01*
X160485982Y-84898289D01*
G37*
G36*
X159830912Y-83570760D02*
G01*
X159837190Y-83584423D01*
X159836501Y-83594084D01*
X159835840Y-83607333D01*
X159838106Y-83616544D01*
X159842948Y-83629425D01*
X159848641Y-83648011D01*
X159854220Y-83668829D01*
X159858722Y-83688407D01*
X159860151Y-83695951D01*
X159863787Y-83708109D01*
X159868937Y-83715707D01*
X159870147Y-83716407D01*
X159875497Y-83722602D01*
X159875779Y-83726885D01*
X159878205Y-83733915D01*
X159885424Y-83744327D01*
X159895087Y-83755459D01*
X159904844Y-83764652D01*
X159912346Y-83769246D01*
X159913311Y-83769379D01*
X159916175Y-83773405D01*
X159916975Y-83782243D01*
X159919513Y-83793934D01*
X159927037Y-83799742D01*
X159936293Y-83806411D01*
X159940122Y-83812310D01*
X159945215Y-83820753D01*
X159955492Y-83833134D01*
X159968957Y-83847388D01*
X159983616Y-83861452D01*
X159997475Y-83873264D01*
X160003007Y-83877356D01*
X160016723Y-83883991D01*
X160033315Y-83888087D01*
X160050044Y-83889474D01*
X160064173Y-83887981D01*
X160072964Y-83883436D01*
X160074014Y-83881787D01*
X160076472Y-83878532D01*
X160077483Y-83884094D01*
X160077522Y-83885153D01*
X160080820Y-83893830D01*
X160088229Y-83895135D01*
X160094867Y-83890824D01*
X160102935Y-83887329D01*
X160116499Y-83885097D01*
X160131755Y-83884347D01*
X160144903Y-83885298D01*
X160151525Y-83887562D01*
X160156585Y-83893529D01*
X160155246Y-83900195D01*
X160146904Y-83909655D01*
X160144508Y-83911912D01*
X160133472Y-83920703D01*
X160123522Y-83926392D01*
X160122586Y-83926726D01*
X160113925Y-83931799D01*
X160102866Y-83941146D01*
X160098645Y-83945386D01*
X160090544Y-83953431D01*
X160083226Y-83958140D01*
X160073845Y-83960403D01*
X160059558Y-83961114D01*
X160048293Y-83961166D01*
X160028900Y-83960771D01*
X160010681Y-83959337D01*
X159990631Y-83956490D01*
X159965745Y-83951856D01*
X159953542Y-83949372D01*
X159944960Y-83944956D01*
X159932661Y-83935617D01*
X159919015Y-83923538D01*
X159906389Y-83910904D01*
X159897152Y-83899898D01*
X159894034Y-83894508D01*
X159889470Y-83887613D01*
X159886629Y-83886322D01*
X159882229Y-83882468D01*
X159875874Y-83872632D01*
X159872031Y-83865272D01*
X159864933Y-83853125D01*
X159858146Y-83845520D01*
X159855242Y-83844223D01*
X159849317Y-83840501D01*
X159848643Y-83837590D01*
X159846784Y-83830858D01*
X159841845Y-83817853D01*
X159834777Y-83800743D01*
X159826535Y-83781697D01*
X159818071Y-83762883D01*
X159810339Y-83746469D01*
X159804292Y-83734623D01*
X159801273Y-83729852D01*
X159798685Y-83722668D01*
X159797275Y-83710257D01*
X159797188Y-83706230D01*
X159796013Y-83692867D01*
X159793090Y-83683341D01*
X159792066Y-83681930D01*
X159789039Y-83674104D01*
X159787323Y-83659981D01*
X159786899Y-83642527D01*
X159787745Y-83624703D01*
X159789841Y-83609475D01*
X159792629Y-83600712D01*
X159799700Y-83589312D01*
X159809076Y-83576297D01*
X159810478Y-83574510D01*
X159822238Y-83559732D01*
X159830912Y-83570760D01*
G37*
G36*
X159449389Y-86915942D02*
G01*
X159456424Y-86923026D01*
X159462709Y-86930563D01*
X159465070Y-86934837D01*
X159464029Y-86940111D01*
X159461403Y-86951212D01*
X159459961Y-86957017D01*
X159457259Y-86971346D01*
X159458412Y-86981212D01*
X159462406Y-86988834D01*
X159466961Y-86999841D01*
X159466885Y-87008376D01*
X159467427Y-87018221D01*
X159473208Y-87029101D01*
X159481041Y-87042912D01*
X159485797Y-87056344D01*
X159491006Y-87069545D01*
X159498079Y-87079103D01*
X159505131Y-87089607D01*
X159507170Y-87098446D01*
X159509731Y-87108086D01*
X159514008Y-87112186D01*
X159520817Y-87118432D01*
X159524021Y-87124903D01*
X159528221Y-87133875D01*
X159536088Y-87147433D01*
X159545249Y-87161636D01*
X159554319Y-87175624D01*
X159560800Y-87186773D01*
X159563302Y-87192688D01*
X159563302Y-87192710D01*
X159567031Y-87198055D01*
X159570319Y-87199837D01*
X159576534Y-87205669D01*
X159577335Y-87208942D01*
X159581162Y-87215420D01*
X159589030Y-87220683D01*
X159598317Y-87228352D01*
X159600724Y-87235614D01*
X159604133Y-87244812D01*
X159608619Y-87248246D01*
X159616329Y-87253508D01*
X159626529Y-87263230D01*
X159630799Y-87267979D01*
X159643754Y-87282607D01*
X159657657Y-87297582D01*
X159660326Y-87300353D01*
X159669362Y-87310250D01*
X159674827Y-87317404D01*
X159675567Y-87319116D01*
X159678893Y-87323709D01*
X159687179Y-87331352D01*
X159690241Y-87333850D01*
X159701916Y-87343902D01*
X159711442Y-87353396D01*
X159712460Y-87354577D01*
X159720796Y-87364102D01*
X159731354Y-87375559D01*
X159732869Y-87377156D01*
X159741045Y-87386557D01*
X159745473Y-87393254D01*
X159745733Y-87394244D01*
X159749327Y-87400713D01*
X159757503Y-87407944D01*
X159766353Y-87412771D01*
X159769287Y-87413320D01*
X159775474Y-87416602D01*
X159784809Y-87424698D01*
X159794765Y-87434986D01*
X159802815Y-87444840D01*
X159806432Y-87451639D01*
X159806454Y-87451911D01*
X159810345Y-87455035D01*
X159813524Y-87455420D01*
X159820891Y-87458686D01*
X159830514Y-87466800D01*
X159833056Y-87469507D01*
X159844879Y-87479565D01*
X159853897Y-87480964D01*
X159863012Y-87481394D01*
X159875728Y-87485662D01*
X159879972Y-87487719D01*
X159890029Y-87493590D01*
X159891994Y-87496566D01*
X159888049Y-87497312D01*
X159878142Y-87500730D01*
X159867867Y-87508668D01*
X159867789Y-87508750D01*
X159856646Y-87516990D01*
X159842543Y-87518952D01*
X159840076Y-87518823D01*
X159816888Y-87516223D01*
X159799103Y-87512133D01*
X159788291Y-87506982D01*
X159785964Y-87504076D01*
X159779905Y-87499190D01*
X159770954Y-87497519D01*
X159759313Y-87494620D01*
X159752473Y-87489333D01*
X159745581Y-87482710D01*
X159741538Y-87481147D01*
X159733548Y-87478623D01*
X159722350Y-87472397D01*
X159710891Y-87464489D01*
X159702119Y-87456917D01*
X159698956Y-87451977D01*
X159696159Y-87446495D01*
X159694491Y-87446064D01*
X159688466Y-87443032D01*
X159679594Y-87435607D01*
X159678331Y-87434370D01*
X159668493Y-87426452D01*
X159660073Y-87422719D01*
X159659408Y-87422676D01*
X159653460Y-87418766D01*
X159652179Y-87413320D01*
X159649130Y-87405602D01*
X159644886Y-87403965D01*
X159639954Y-87401825D01*
X159640307Y-87399575D01*
X159639197Y-87394037D01*
X159635486Y-87390968D01*
X159629409Y-87385416D01*
X159628574Y-87382495D01*
X159624918Y-87379013D01*
X159615115Y-87375924D01*
X159612843Y-87375502D01*
X159597514Y-87369674D01*
X159582321Y-87358674D01*
X159581066Y-87357464D01*
X159569237Y-87346446D01*
X159558247Y-87337339D01*
X159555412Y-87335297D01*
X159546716Y-87325595D01*
X159542283Y-87315229D01*
X159536822Y-87302242D01*
X159530142Y-87293662D01*
X159521441Y-87283990D01*
X159512261Y-87271280D01*
X159511138Y-87269502D01*
X159502891Y-87259227D01*
X159495791Y-87255966D01*
X159494917Y-87256184D01*
X159490051Y-87255059D01*
X159488462Y-87245941D01*
X159488459Y-87245276D01*
X159486177Y-87234385D01*
X159481402Y-87229182D01*
X159474604Y-87223162D01*
X159468946Y-87213479D01*
X159464633Y-87203687D01*
X159457466Y-87188023D01*
X159448627Y-87169053D01*
X159443259Y-87157674D01*
X159434683Y-87138990D01*
X159427895Y-87123081D01*
X159423774Y-87112073D01*
X159422942Y-87108558D01*
X159420870Y-87100096D01*
X159416214Y-87089411D01*
X159413328Y-87083790D01*
X159411254Y-87078693D01*
X159409783Y-87072438D01*
X159408708Y-87063343D01*
X159407822Y-87049726D01*
X159406917Y-87029904D01*
X159405953Y-87006359D01*
X159403764Y-86952565D01*
X159422896Y-86932685D01*
X159433569Y-86922047D01*
X159441640Y-86914833D01*
X159444815Y-86912805D01*
X159449389Y-86915942D01*
G37*
G36*
X160532389Y-83833940D02*
G01*
X160518283Y-83836026D01*
X160509715Y-83839642D01*
X160508201Y-83842468D01*
X160504321Y-83847756D01*
X160499228Y-83848900D01*
X160487785Y-83850280D01*
X160483300Y-83851569D01*
X160477680Y-83850566D01*
X160473848Y-83841585D01*
X160473213Y-83838705D01*
X160470328Y-83825358D01*
X160467772Y-83814980D01*
X160467760Y-83814936D01*
X160460798Y-83805748D01*
X160446401Y-83797396D01*
X160426489Y-83790954D01*
X160424002Y-83790399D01*
X160410223Y-83785639D01*
X160391604Y-83776845D01*
X160370826Y-83765547D01*
X160350573Y-83753271D01*
X160333527Y-83741545D01*
X160323652Y-83733241D01*
X160312881Y-83719625D01*
X160303016Y-83702416D01*
X160295813Y-83685157D01*
X160293026Y-83671404D01*
X160289842Y-83661012D01*
X160283670Y-83652436D01*
X160279590Y-83647373D01*
X160276891Y-83640657D01*
X160275296Y-83630415D01*
X160274530Y-83614773D01*
X160274476Y-83608941D01*
X160332786Y-83608941D01*
X160347989Y-83621749D01*
X160357466Y-83631214D01*
X160362778Y-83639394D01*
X160363192Y-83641305D01*
X160366969Y-83648735D01*
X160370208Y-83650745D01*
X160376323Y-83657170D01*
X160377225Y-83661417D01*
X160380478Y-83669681D01*
X160388469Y-83679614D01*
X160390088Y-83681157D01*
X160400905Y-83688808D01*
X160414772Y-83695785D01*
X160428841Y-83701008D01*
X160440264Y-83703398D01*
X160445855Y-83702309D01*
X160445376Y-83699460D01*
X160443492Y-83699213D01*
X160438343Y-83696081D01*
X160438035Y-83694536D01*
X160441795Y-83690321D01*
X160444662Y-83689858D01*
X160451651Y-83687503D01*
X160452848Y-83685909D01*
X160458344Y-83683025D01*
X160468628Y-83683421D01*
X160480065Y-83686306D01*
X160489019Y-83690888D01*
X160491783Y-83694391D01*
X160497210Y-83700361D01*
X160509864Y-83704229D01*
X160517815Y-83705389D01*
X160532847Y-83706495D01*
X160544697Y-83706184D01*
X160548310Y-83705449D01*
X160552893Y-83702503D01*
X160550662Y-83697628D01*
X160548153Y-83694748D01*
X160543594Y-83687505D01*
X160543751Y-83683934D01*
X160543454Y-83678535D01*
X160539083Y-83670409D01*
X160533425Y-83659452D01*
X160531589Y-83651395D01*
X160529383Y-83644068D01*
X160526912Y-83642496D01*
X160517897Y-83640826D01*
X160517556Y-83640742D01*
X160508788Y-83639276D01*
X160506009Y-83638988D01*
X160501280Y-83635183D01*
X160501664Y-83631823D01*
X160499892Y-83624824D01*
X160492002Y-83614686D01*
X160486750Y-83609604D01*
X160475653Y-83599372D01*
X160464903Y-83588706D01*
X160452705Y-83575721D01*
X160437260Y-83558529D01*
X160426583Y-83546429D01*
X160414164Y-83533651D01*
X160401859Y-83523127D01*
X160395241Y-83518762D01*
X160383950Y-83515029D01*
X160369319Y-83512774D01*
X160354585Y-83512159D01*
X160342987Y-83513347D01*
X160338019Y-83515885D01*
X160336865Y-83521939D01*
X160335689Y-83535085D01*
X160334669Y-83553060D01*
X160334234Y-83564303D01*
X160332786Y-83608941D01*
X160274476Y-83608941D01*
X160274317Y-83591856D01*
X160274315Y-83588855D01*
X160274510Y-83564751D01*
X160275279Y-83548033D01*
X160276901Y-83536737D01*
X160279654Y-83528899D01*
X160283670Y-83522737D01*
X160290233Y-83512658D01*
X160293025Y-83504926D01*
X160293026Y-83504837D01*
X160296537Y-83497583D01*
X160305539Y-83487325D01*
X160317736Y-83476241D01*
X160330832Y-83466514D01*
X160337576Y-83462536D01*
X160348668Y-83459399D01*
X160363868Y-83458173D01*
X160379991Y-83458715D01*
X160393854Y-83460885D01*
X160402272Y-83464542D01*
X160403019Y-83465435D01*
X160408782Y-83467411D01*
X160414651Y-83466682D01*
X160422467Y-83467078D01*
X160424002Y-83471074D01*
X160428011Y-83480693D01*
X160437668Y-83489071D01*
X160449414Y-83493298D01*
X160451267Y-83493394D01*
X160459600Y-83496293D01*
X160461424Y-83502749D01*
X160464348Y-83510368D01*
X160468440Y-83512105D01*
X160474665Y-83514631D01*
X160475457Y-83516782D01*
X160479180Y-83521074D01*
X160481630Y-83521460D01*
X160488824Y-83524724D01*
X160497465Y-83532572D01*
X160497481Y-83532591D01*
X160505537Y-83540961D01*
X160511316Y-83545455D01*
X160515831Y-83549551D01*
X160524911Y-83559344D01*
X160537177Y-83573304D01*
X160549381Y-83587664D01*
X160563602Y-83604166D01*
X160576206Y-83617926D01*
X160585691Y-83627357D01*
X160590182Y-83630786D01*
X160595289Y-83637127D01*
X160597077Y-83647612D01*
X160599125Y-83658817D01*
X160604094Y-83661792D01*
X160610296Y-83665536D01*
X160611111Y-83668808D01*
X160614242Y-83674883D01*
X160622391Y-83674611D01*
X160632436Y-83668957D01*
X160642923Y-83663426D01*
X160649702Y-83661940D01*
X160656648Y-83659604D01*
X160657888Y-83657114D01*
X160661633Y-83652869D01*
X160664332Y-83652436D01*
X160672489Y-83649135D01*
X160676728Y-83645264D01*
X160683880Y-83640085D01*
X160687784Y-83639793D01*
X160694998Y-83638318D01*
X160699153Y-83635228D01*
X160706087Y-83631055D01*
X160709209Y-83631304D01*
X160714301Y-83629569D01*
X160723462Y-83622635D01*
X160731367Y-83615278D01*
X160744330Y-83604184D01*
X160757302Y-83595988D01*
X160763452Y-83593555D01*
X160777844Y-83587943D01*
X160788325Y-83581557D01*
X160799278Y-83575235D01*
X160808206Y-83572915D01*
X160815441Y-83569972D01*
X160816930Y-83566270D01*
X160821506Y-83560254D01*
X160835071Y-83555809D01*
X160857385Y-83552992D01*
X160880079Y-83551972D01*
X160904976Y-83552419D01*
X160922915Y-83555382D01*
X160936096Y-83561463D01*
X160945567Y-83569941D01*
X160956850Y-83579349D01*
X160969635Y-83586400D01*
X160980267Y-83592989D01*
X160992280Y-83603654D01*
X161003339Y-83615868D01*
X161011111Y-83627103D01*
X161013394Y-83633778D01*
X161015879Y-83640377D01*
X161022245Y-83651543D01*
X161027456Y-83659494D01*
X161039560Y-83678377D01*
X161050916Y-83698363D01*
X161060524Y-83717418D01*
X161067386Y-83733509D01*
X161070503Y-83744603D01*
X161070490Y-83747133D01*
X161071852Y-83756469D01*
X161077404Y-83767784D01*
X161077673Y-83768183D01*
X161084899Y-83781495D01*
X161091154Y-83797395D01*
X161091880Y-83799784D01*
X161096241Y-83814922D01*
X161100091Y-83828267D01*
X161100647Y-83830189D01*
X161103689Y-83844276D01*
X161104817Y-83853354D01*
X161107352Y-83862803D01*
X161110954Y-83866608D01*
X161115469Y-83872155D01*
X161116304Y-83877080D01*
X161118466Y-83885820D01*
X161120828Y-83888566D01*
X161123214Y-83894643D01*
X161122583Y-83905214D01*
X161121873Y-83914868D01*
X161123985Y-83919061D01*
X161124104Y-83919066D01*
X161127729Y-83923140D01*
X161131797Y-83933144D01*
X161135387Y-83945755D01*
X161137581Y-83957648D01*
X161137456Y-83965499D01*
X161137148Y-83966175D01*
X161136872Y-83973528D01*
X161138175Y-83976368D01*
X161141838Y-83983072D01*
X161142364Y-83984554D01*
X161144140Y-83990525D01*
X161145283Y-83993910D01*
X161152475Y-84015906D01*
X161156207Y-84031135D01*
X161156850Y-84041365D01*
X161156059Y-84045383D01*
X161155619Y-84052902D01*
X161158088Y-84054720D01*
X161162067Y-84058367D01*
X161162859Y-84066256D01*
X161160400Y-84073811D01*
X161158386Y-84075780D01*
X161155887Y-84081953D01*
X161156680Y-84090591D01*
X161156768Y-84102147D01*
X161153230Y-84106481D01*
X161147596Y-84114192D01*
X161146750Y-84118751D01*
X161143437Y-84125255D01*
X161132616Y-84129276D01*
X161129218Y-84129897D01*
X161116772Y-84130892D01*
X161109288Y-84127715D01*
X161104552Y-84121802D01*
X161096895Y-84113709D01*
X161090206Y-84110852D01*
X161084207Y-84106892D01*
X161077173Y-84096787D01*
X161073944Y-84090304D01*
X161067099Y-84077543D01*
X161060182Y-84068776D01*
X161057513Y-84066939D01*
X161052447Y-84061390D01*
X161053358Y-84053573D01*
X161056910Y-84044877D01*
X161060950Y-84038446D01*
X161063859Y-84036281D01*
X161064020Y-84040379D01*
X161064014Y-84040409D01*
X161065788Y-84046717D01*
X161072033Y-84048767D01*
X161078616Y-84045974D01*
X161080674Y-84042766D01*
X161081185Y-84033001D01*
X161078652Y-84018873D01*
X161074156Y-84004414D01*
X161068777Y-83993657D01*
X161066952Y-83991571D01*
X161061845Y-83983706D01*
X161055769Y-83969598D01*
X161049787Y-83952136D01*
X161044959Y-83934209D01*
X161043750Y-83928422D01*
X161040672Y-83914889D01*
X161035950Y-83896989D01*
X161032056Y-83883475D01*
X161026457Y-83857796D01*
X161025968Y-83836260D01*
X161026061Y-83835528D01*
X161026746Y-83821618D01*
X161023956Y-83816224D01*
X161023366Y-83816156D01*
X161018844Y-83820014D01*
X161018000Y-83824342D01*
X161017181Y-83829678D01*
X161013915Y-83826180D01*
X161013631Y-83825735D01*
X161010902Y-83818248D01*
X161011312Y-83815740D01*
X161009936Y-83810542D01*
X161006627Y-83807008D01*
X161000726Y-83798505D01*
X160997022Y-83788090D01*
X160992632Y-83776342D01*
X160987366Y-83769130D01*
X160981539Y-83761800D01*
X160980491Y-83758282D01*
X160978483Y-83751090D01*
X160973625Y-83739287D01*
X160971295Y-83734296D01*
X160965713Y-83721637D01*
X160962440Y-83712090D01*
X160962098Y-83710053D01*
X160958087Y-83704272D01*
X160952975Y-83701676D01*
X160944746Y-83695459D01*
X160939009Y-83686159D01*
X160926775Y-83662533D01*
X160913311Y-83648256D01*
X160902751Y-83638977D01*
X160897069Y-83632983D01*
X160891857Y-83628699D01*
X160883801Y-83626083D01*
X160870803Y-83624764D01*
X160850765Y-83624372D01*
X160848358Y-83624370D01*
X160828197Y-83624839D01*
X160814964Y-83626165D01*
X160809722Y-83628222D01*
X160809811Y-83628881D01*
X160807632Y-83633246D01*
X160798936Y-83639574D01*
X160786007Y-83646658D01*
X160771127Y-83653289D01*
X160756581Y-83658259D01*
X160752281Y-83659321D01*
X160741414Y-83663223D01*
X160739089Y-83668667D01*
X160739326Y-83669395D01*
X160737542Y-83676402D01*
X160730300Y-83681396D01*
X160721711Y-83687374D01*
X160718698Y-83692948D01*
X160714967Y-83698572D01*
X160712040Y-83699213D01*
X160704303Y-83701931D01*
X160694549Y-83708534D01*
X160685459Y-83716695D01*
X160679716Y-83724089D01*
X160679201Y-83727706D01*
X160677795Y-83731276D01*
X160673951Y-83731957D01*
X160668710Y-83733842D01*
X160668054Y-83741083D01*
X160668916Y-83746169D01*
X160669416Y-83758010D01*
X160665335Y-83762844D01*
X160660994Y-83769050D01*
X160657381Y-83783264D01*
X160655644Y-83795827D01*
X160651968Y-83815654D01*
X160646125Y-83831048D01*
X160638977Y-83840508D01*
X160631382Y-83842527D01*
X160629446Y-83841652D01*
X160622266Y-83841687D01*
X160618623Y-83843811D01*
X160611150Y-83846113D01*
X160599612Y-83842420D01*
X160597590Y-83841438D01*
X160584633Y-83837134D01*
X160567895Y-83834467D01*
X160549703Y-83833411D01*
X160532847Y-83833926D01*
X160532389Y-83833940D01*
G37*
G36*
X159884505Y-90352485D02*
G01*
X159883863Y-90355266D01*
X159881387Y-90355604D01*
X159877537Y-90353892D01*
X159878268Y-90352485D01*
X159883820Y-90351926D01*
X159884505Y-90352485D01*
G37*
G36*
X160606433Y-84492086D02*
G01*
X160604094Y-84494425D01*
X160601755Y-84492086D01*
X160604094Y-84489747D01*
X160606433Y-84492086D01*
G37*
G36*
X160584997Y-84460093D02*
G01*
X160585305Y-84454099D01*
X160585557Y-84453495D01*
X160586605Y-84449207D01*
X160593959Y-84449207D01*
X160594601Y-84451988D01*
X160597077Y-84452326D01*
X160600928Y-84450614D01*
X160600196Y-84449207D01*
X160594645Y-84448647D01*
X160593959Y-84449207D01*
X160586605Y-84449207D01*
X160589298Y-84438183D01*
X160588466Y-84423284D01*
X160583382Y-84412481D01*
X160581875Y-84411130D01*
X160575181Y-84402606D01*
X160573689Y-84396743D01*
X160570466Y-84387996D01*
X160562657Y-84378113D01*
X160562139Y-84377618D01*
X160555017Y-84369257D01*
X160552892Y-84363179D01*
X160553080Y-84362736D01*
X160551696Y-84357951D01*
X160548258Y-84355899D01*
X160541868Y-84350543D01*
X160540945Y-84347456D01*
X160537086Y-84340712D01*
X160526875Y-84331547D01*
X160512363Y-84321656D01*
X160504008Y-84316902D01*
X160496145Y-84313321D01*
X160494251Y-84315448D01*
X160495339Y-84320647D01*
X160494673Y-84330578D01*
X160488930Y-84337299D01*
X160480819Y-84338032D01*
X160479170Y-84337226D01*
X160475849Y-84336045D01*
X160478990Y-84340823D01*
X160479513Y-84341471D01*
X160483224Y-84348233D01*
X160482215Y-84356267D01*
X160478547Y-84364864D01*
X160474252Y-84377945D01*
X160473555Y-84389252D01*
X160473755Y-84390190D01*
X160472352Y-84402028D01*
X160467411Y-84408917D01*
X160461399Y-84417399D01*
X160460352Y-84423382D01*
X160458316Y-84428154D01*
X160454797Y-84428937D01*
X160448382Y-84432987D01*
X160446476Y-84444686D01*
X160446960Y-84450804D01*
X160444232Y-84458136D01*
X160442837Y-84459266D01*
X160438542Y-84466057D01*
X160438035Y-84469702D01*
X160435366Y-84478146D01*
X160428782Y-84489410D01*
X160427166Y-84491645D01*
X160419191Y-84503322D01*
X160413739Y-84513175D01*
X160413280Y-84514305D01*
X160409932Y-84518800D01*
X160402648Y-84521322D01*
X160389320Y-84522367D01*
X160378457Y-84522491D01*
X160359232Y-84521815D01*
X160345647Y-84519197D01*
X160334050Y-84513759D01*
X160329195Y-84510629D01*
X160318675Y-84502563D01*
X160312457Y-84496025D01*
X160311737Y-84494257D01*
X160307980Y-84490180D01*
X160305188Y-84489747D01*
X160300324Y-84485668D01*
X160298642Y-84473159D01*
X160298639Y-84472362D01*
X160297554Y-84460695D01*
X160294873Y-84453946D01*
X160294153Y-84453481D01*
X160291770Y-84448354D01*
X160292359Y-84437884D01*
X160295237Y-84425339D01*
X160299720Y-84413985D01*
X160303609Y-84408331D01*
X160310198Y-84400650D01*
X160312489Y-84396846D01*
X160317705Y-84393125D01*
X160328352Y-84389589D01*
X160329863Y-84389245D01*
X160340321Y-84387918D01*
X160343076Y-84389921D01*
X160342833Y-84390397D01*
X160344311Y-84395869D01*
X160351522Y-84403674D01*
X160353873Y-84405577D01*
X160365076Y-84417332D01*
X160373143Y-84431183D01*
X160373359Y-84431760D01*
X160379750Y-84444847D01*
X160387238Y-84449108D01*
X160397466Y-84445054D01*
X160402968Y-84441001D01*
X160410758Y-84431561D01*
X160418105Y-84417468D01*
X160423905Y-84401772D01*
X160427055Y-84387525D01*
X160426453Y-84377777D01*
X160426078Y-84377057D01*
X160426874Y-84373060D01*
X160428404Y-84372805D01*
X160432310Y-84368839D01*
X160433461Y-84362280D01*
X160436374Y-84351051D01*
X160442713Y-84340061D01*
X160449344Y-84328456D01*
X160451964Y-84318117D01*
X160453839Y-84308763D01*
X160456458Y-84305155D01*
X160459330Y-84298908D01*
X160459112Y-84293425D01*
X160461328Y-84285439D01*
X160468583Y-84274195D01*
X160478620Y-84262286D01*
X160489178Y-84252306D01*
X160498000Y-84246846D01*
X160500010Y-84246477D01*
X160508026Y-84244419D01*
X160519185Y-84239500D01*
X160519356Y-84239411D01*
X160532729Y-84235554D01*
X160542332Y-84240221D01*
X160547992Y-84251281D01*
X160554200Y-84258451D01*
X160564222Y-84262854D01*
X160575985Y-84267217D01*
X160583251Y-84272483D01*
X160589623Y-84276990D01*
X160592601Y-84276787D01*
X160596437Y-84279119D01*
X160601192Y-84287852D01*
X160602366Y-84290872D01*
X160607117Y-84301531D01*
X160611346Y-84307088D01*
X160612050Y-84307317D01*
X160615090Y-84311242D01*
X160615788Y-84316672D01*
X160617984Y-84324269D01*
X160621039Y-84326027D01*
X160623838Y-84328017D01*
X160621306Y-84332031D01*
X160619151Y-84339846D01*
X160622226Y-84347302D01*
X160628006Y-84349876D01*
X160630749Y-84350940D01*
X160632431Y-84356161D01*
X160633597Y-84367737D01*
X160634002Y-84373974D01*
X160636799Y-84380927D01*
X160639511Y-84382160D01*
X160648905Y-84386320D01*
X160655976Y-84396745D01*
X160658773Y-84410350D01*
X160658702Y-84412490D01*
X160660195Y-84425835D01*
X160664802Y-84433530D01*
X160670837Y-84442187D01*
X160671921Y-84447180D01*
X160674500Y-84456876D01*
X160678852Y-84464817D01*
X160684173Y-84476599D01*
X160687038Y-84490416D01*
X160689774Y-84502760D01*
X160694677Y-84511102D01*
X160694940Y-84511320D01*
X160698784Y-84515025D01*
X160701524Y-84520379D01*
X160703769Y-84529534D01*
X160706129Y-84544639D01*
X160707711Y-84556369D01*
X160710722Y-84570653D01*
X160714971Y-84581246D01*
X160717007Y-84583839D01*
X160722068Y-84592429D01*
X160723376Y-84600247D01*
X160724858Y-84608762D01*
X160727508Y-84611368D01*
X160732508Y-84615063D01*
X160734179Y-84623185D01*
X160732157Y-84631289D01*
X160729357Y-84634120D01*
X160725111Y-84638625D01*
X160727453Y-84641402D01*
X160731191Y-84647372D01*
X160732637Y-84656508D01*
X160731611Y-84664597D01*
X160728573Y-84667501D01*
X160725362Y-84671326D01*
X160725065Y-84675687D01*
X160723159Y-84682072D01*
X160720316Y-84682853D01*
X160713119Y-84685180D01*
X160709219Y-84688700D01*
X160700081Y-84694615D01*
X160694949Y-84695567D01*
X160685114Y-84691960D01*
X160674305Y-84683244D01*
X160665727Y-84672574D01*
X160662565Y-84663714D01*
X160661018Y-84655065D01*
X160657028Y-84641230D01*
X160653210Y-84630079D01*
X160648102Y-84615069D01*
X160644704Y-84603098D01*
X160643855Y-84598139D01*
X160641141Y-84590219D01*
X160634611Y-84580043D01*
X160634563Y-84579982D01*
X160628858Y-84570677D01*
X160627712Y-84564249D01*
X160627822Y-84564041D01*
X160626853Y-84560200D01*
X160625105Y-84559913D01*
X160621971Y-84556274D01*
X160622990Y-84549974D01*
X160622986Y-84539542D01*
X160619797Y-84535585D01*
X160616246Y-84531033D01*
X160618800Y-84528928D01*
X160622134Y-84523287D01*
X160621737Y-84517491D01*
X160618578Y-84511275D01*
X160613124Y-84513410D01*
X160612765Y-84513704D01*
X160605483Y-84516974D01*
X160602363Y-84513338D01*
X160604763Y-84504818D01*
X160605709Y-84503201D01*
X160609288Y-84494344D01*
X160605978Y-84486870D01*
X160605532Y-84486323D01*
X160602022Y-84478320D01*
X160604094Y-84480392D01*
X160606433Y-84478053D01*
X160604094Y-84475714D01*
X160601859Y-84477949D01*
X160601059Y-84476125D01*
X160600880Y-84470318D01*
X160599332Y-84463381D01*
X160597077Y-84462844D01*
X160592193Y-84461681D01*
X160584997Y-84460093D01*
G37*
G36*
X159465070Y-90170834D02*
G01*
X159462731Y-90173173D01*
X159460392Y-90170834D01*
X159462731Y-90168495D01*
X159465070Y-90170834D01*
G37*
G36*
X160625144Y-84019637D02*
G01*
X160622805Y-84021976D01*
X160620466Y-84019637D01*
X160622805Y-84017298D01*
X160625144Y-84019637D01*
G37*
G36*
X160185438Y-88379269D02*
G01*
X160183100Y-88381608D01*
X160180761Y-88379269D01*
X160183100Y-88376930D01*
X160185438Y-88379269D01*
G37*
G36*
X160647485Y-87003797D02*
G01*
X160658527Y-87010956D01*
X160672838Y-87024374D01*
X160675573Y-87027206D01*
X160687381Y-87040457D01*
X160696049Y-87051912D01*
X160699922Y-87059352D01*
X160699987Y-87059950D01*
X160703749Y-87066261D01*
X160707280Y-87067169D01*
X160712124Y-87069433D01*
X160711687Y-87071838D01*
X160713116Y-87077436D01*
X160719992Y-87086431D01*
X160725267Y-87091718D01*
X160737534Y-87106154D01*
X160745907Y-87124438D01*
X160748926Y-87134809D01*
X160752788Y-87151116D01*
X160755399Y-87164708D01*
X160756120Y-87171209D01*
X160759495Y-87179778D01*
X160763136Y-87182421D01*
X160769323Y-87188861D01*
X160770157Y-87192799D01*
X160772076Y-87200779D01*
X160777091Y-87214148D01*
X160783722Y-87229151D01*
X160790840Y-87246703D01*
X160795751Y-87263605D01*
X160797284Y-87274549D01*
X160800387Y-87291297D01*
X160807107Y-87305076D01*
X160813802Y-87317162D01*
X160816904Y-87328056D01*
X160816930Y-87328821D01*
X160819907Y-87338030D01*
X160824081Y-87341515D01*
X160830073Y-87347274D01*
X160837272Y-87358660D01*
X160844008Y-87372397D01*
X160848613Y-87385209D01*
X160849674Y-87391738D01*
X160852426Y-87399811D01*
X160854352Y-87401626D01*
X160858272Y-87408219D01*
X160859030Y-87413660D01*
X160861868Y-87426232D01*
X160868619Y-87439470D01*
X160875402Y-87447162D01*
X160876756Y-87450232D01*
X160874232Y-87450670D01*
X160868781Y-87453174D01*
X160869726Y-87458327D01*
X160876168Y-87462925D01*
X160877816Y-87463439D01*
X160884991Y-87467566D01*
X160886261Y-87471187D01*
X160887514Y-87478251D01*
X160891810Y-87490280D01*
X160894942Y-87497519D01*
X160900418Y-87513573D01*
X160905046Y-87534530D01*
X160907681Y-87554151D01*
X160909830Y-87573956D01*
X160912565Y-87592253D01*
X160915308Y-87605213D01*
X160915421Y-87605606D01*
X160919700Y-87625128D01*
X160922031Y-87646000D01*
X160922012Y-87663910D01*
X160921318Y-87668980D01*
X160916383Y-87677413D01*
X160906159Y-87687319D01*
X160900027Y-87691818D01*
X160885686Y-87699725D01*
X160875291Y-87700426D01*
X160866557Y-87693296D01*
X160858675Y-87680507D01*
X160851030Y-87667784D01*
X160843545Y-87657556D01*
X160843046Y-87656991D01*
X160837208Y-87648698D01*
X160835641Y-87644045D01*
X160832825Y-87637399D01*
X160826286Y-87628495D01*
X160819422Y-87617044D01*
X160816930Y-87606730D01*
X160815481Y-87598284D01*
X160812938Y-87595751D01*
X160811777Y-87591698D01*
X160813033Y-87581269D01*
X160815180Y-87571714D01*
X160818457Y-87550074D01*
X160816513Y-87527979D01*
X160808933Y-87503182D01*
X160798000Y-87478808D01*
X160789294Y-87460512D01*
X160779815Y-87439508D01*
X160770781Y-87418610D01*
X160763409Y-87400635D01*
X160759035Y-87388762D01*
X160753155Y-87381816D01*
X160748677Y-87380576D01*
X160743674Y-87378890D01*
X160745653Y-87374729D01*
X160746408Y-87368798D01*
X160743466Y-87356784D01*
X160736594Y-87337949D01*
X160726078Y-87312749D01*
X160717031Y-87291678D01*
X160709508Y-87273844D01*
X160704205Y-87260924D01*
X160701820Y-87254593D01*
X160701754Y-87254278D01*
X160699995Y-87247939D01*
X160695844Y-87236987D01*
X160690856Y-87225288D01*
X160686677Y-87216856D01*
X160683496Y-87209452D01*
X160678427Y-87195548D01*
X160672341Y-87177582D01*
X160669404Y-87168512D01*
X160661873Y-87146702D01*
X160655101Y-87131852D01*
X160647921Y-87121766D01*
X160641410Y-87115888D01*
X160631461Y-87108727D01*
X160624953Y-87104830D01*
X160624137Y-87104591D01*
X160622621Y-87108889D01*
X160620764Y-87120317D01*
X160618902Y-87136672D01*
X160618399Y-87142137D01*
X160616491Y-87161718D01*
X160614442Y-87179166D01*
X160612647Y-87191164D01*
X160612396Y-87192423D01*
X160610758Y-87205294D01*
X160610048Y-87221604D01*
X160610073Y-87226113D01*
X160609332Y-87240143D01*
X160606989Y-87250538D01*
X160605792Y-87252711D01*
X160603720Y-87261942D01*
X160605430Y-87266843D01*
X160607941Y-87276006D01*
X160609915Y-87290817D01*
X160610716Y-87303293D01*
X160611998Y-87318703D01*
X160614340Y-87330081D01*
X160616618Y-87334312D01*
X160619234Y-87340740D01*
X160616926Y-87353124D01*
X160615061Y-87363910D01*
X160613312Y-87382113D01*
X160611780Y-87405795D01*
X160610563Y-87433019D01*
X160609763Y-87461845D01*
X160609478Y-87490335D01*
X160609501Y-87497519D01*
X160608021Y-87509864D01*
X160604272Y-87518120D01*
X160603785Y-87518569D01*
X160599899Y-87525677D01*
X160596522Y-87538532D01*
X160595291Y-87546619D01*
X160592082Y-87562389D01*
X160587141Y-87573318D01*
X160585023Y-87575543D01*
X160580143Y-87582150D01*
X160580513Y-87586084D01*
X160579334Y-87590032D01*
X160573458Y-87591073D01*
X160566197Y-87592719D01*
X160565477Y-87599412D01*
X160566048Y-87601947D01*
X160565990Y-87610385D01*
X160560735Y-87620087D01*
X160550010Y-87632352D01*
X160538292Y-87643044D01*
X160527750Y-87650138D01*
X160522450Y-87651884D01*
X160514273Y-87654246D01*
X160511946Y-87657022D01*
X160506687Y-87660485D01*
X160495211Y-87663563D01*
X160487440Y-87664728D01*
X160471933Y-87665556D01*
X160462928Y-87663354D01*
X160459410Y-87660136D01*
X160450420Y-87653060D01*
X160445349Y-87651260D01*
X160437661Y-87645971D01*
X160431477Y-87635633D01*
X160431433Y-87635512D01*
X160424904Y-87623292D01*
X160414753Y-87609748D01*
X160411138Y-87605781D01*
X160402086Y-87595557D01*
X160396644Y-87587715D01*
X160395936Y-87585647D01*
X160392982Y-87579779D01*
X160385558Y-87570291D01*
X160381924Y-87566262D01*
X160373326Y-87556111D01*
X160368353Y-87548349D01*
X160367865Y-87546635D01*
X160366400Y-87536289D01*
X160362964Y-87524556D01*
X160358731Y-87514538D01*
X160354876Y-87509334D01*
X160353720Y-87509285D01*
X160349648Y-87507402D01*
X160346396Y-87499836D01*
X160342806Y-87489704D01*
X160336234Y-87474486D01*
X160328062Y-87457371D01*
X160327563Y-87456376D01*
X160319864Y-87440124D01*
X160314236Y-87426401D01*
X160311781Y-87417917D01*
X160311751Y-87417401D01*
X160308390Y-87407926D01*
X160305368Y-87404502D01*
X160301118Y-87397081D01*
X160297233Y-87383899D01*
X160295562Y-87374694D01*
X160293892Y-87357703D01*
X160292870Y-87336644D01*
X160292461Y-87313490D01*
X160292631Y-87290212D01*
X160293346Y-87268783D01*
X160294573Y-87251176D01*
X160296276Y-87239363D01*
X160297961Y-87235408D01*
X160302883Y-87228533D01*
X160304292Y-87223514D01*
X160309511Y-87216403D01*
X160320645Y-87212004D01*
X160334612Y-87210454D01*
X160348332Y-87211893D01*
X160358725Y-87216459D01*
X160362145Y-87220918D01*
X160367543Y-87230223D01*
X160373480Y-87237618D01*
X160380992Y-87251846D01*
X160380428Y-87267694D01*
X160372003Y-87282445D01*
X160369778Y-87284672D01*
X160362005Y-87292701D01*
X160360584Y-87298528D01*
X160364700Y-87305965D01*
X160365101Y-87306539D01*
X160370088Y-87316155D01*
X160372364Y-87325333D01*
X160371622Y-87331293D01*
X160367869Y-87331460D01*
X160363887Y-87332548D01*
X160363192Y-87336009D01*
X160366814Y-87344016D01*
X160369847Y-87346002D01*
X160377885Y-87353110D01*
X160379605Y-87363277D01*
X160376733Y-87369475D01*
X160373899Y-87374853D01*
X160376563Y-87375898D01*
X160381258Y-87379905D01*
X160384809Y-87388762D01*
X160389321Y-87402451D01*
X160395204Y-87415659D01*
X160399937Y-87426774D01*
X160401516Y-87434730D01*
X160401468Y-87435064D01*
X160403387Y-87441360D01*
X160409421Y-87452921D01*
X160418307Y-87467355D01*
X160419228Y-87468750D01*
X160428559Y-87484044D01*
X160435289Y-87497453D01*
X160438028Y-87506189D01*
X160438035Y-87506463D01*
X160441469Y-87517222D01*
X160445387Y-87521893D01*
X160455075Y-87530122D01*
X160460947Y-87535298D01*
X160470948Y-87542580D01*
X160476984Y-87545676D01*
X160483698Y-87551744D01*
X160484812Y-87555844D01*
X160488491Y-87562139D01*
X160491829Y-87563007D01*
X160498054Y-87565533D01*
X160498845Y-87567685D01*
X160502405Y-87572227D01*
X160503523Y-87572363D01*
X160507673Y-87568574D01*
X160508201Y-87565346D01*
X160512076Y-87559596D01*
X160517241Y-87558329D01*
X160525876Y-87554201D01*
X160529508Y-87547805D01*
X160534268Y-87536577D01*
X160537804Y-87530961D01*
X160542755Y-87522444D01*
X160543707Y-87519266D01*
X160545377Y-87511699D01*
X160548583Y-87499081D01*
X160550013Y-87493737D01*
X160552170Y-87481996D01*
X160554050Y-87464888D01*
X160555568Y-87444543D01*
X160556641Y-87423092D01*
X160557182Y-87402663D01*
X160557108Y-87385387D01*
X160556333Y-87373393D01*
X160554979Y-87368882D01*
X160553448Y-87363332D01*
X160552814Y-87350492D01*
X160553026Y-87332382D01*
X160554032Y-87311021D01*
X160555780Y-87288426D01*
X160557415Y-87272989D01*
X160559405Y-87252894D01*
X160561235Y-87228457D01*
X160562536Y-87204687D01*
X160562611Y-87202823D01*
X160564508Y-87165478D01*
X160567084Y-87131262D01*
X160570185Y-87101520D01*
X160573655Y-87077601D01*
X160577340Y-87060852D01*
X160579671Y-87054644D01*
X160587037Y-87040118D01*
X160592834Y-87028179D01*
X160604420Y-87013733D01*
X160621682Y-87004337D01*
X160637919Y-87001681D01*
X160647485Y-87003797D01*
G37*
G36*
X160667243Y-85750392D02*
G01*
X160664904Y-85752731D01*
X160662565Y-85750392D01*
X160664904Y-85748053D01*
X160667243Y-85750392D01*
G37*
G36*
X160330448Y-89881724D02*
G01*
X160328520Y-89875733D01*
X160323364Y-89863537D01*
X160315918Y-89847306D01*
X160312061Y-89839245D01*
X160303352Y-89820409D01*
X160296084Y-89803115D01*
X160291444Y-89790244D01*
X160290648Y-89787261D01*
X160280946Y-89757241D01*
X160273547Y-89741361D01*
X160271027Y-89730497D01*
X160271677Y-89724989D01*
X160272414Y-89715946D01*
X160271510Y-89701771D01*
X160270396Y-89693409D01*
X160270385Y-89693278D01*
X160341634Y-89693278D01*
X160344016Y-89702895D01*
X160344132Y-89703062D01*
X160348307Y-89712113D01*
X160352939Y-89726701D01*
X160357006Y-89743128D01*
X160359487Y-89757694D01*
X160359634Y-89759195D01*
X160361697Y-89769027D01*
X160367051Y-89772009D01*
X160371889Y-89771678D01*
X160379581Y-89772034D01*
X160379752Y-89775263D01*
X160374156Y-89778345D01*
X160372224Y-89777706D01*
X160368200Y-89777328D01*
X160368598Y-89782645D01*
X160372859Y-89791430D01*
X160377225Y-89797679D01*
X160383783Y-89807716D01*
X160386579Y-89815364D01*
X160386580Y-89815458D01*
X160390341Y-89822110D01*
X160393597Y-89824036D01*
X160399590Y-89830433D01*
X160400613Y-89835238D01*
X160403514Y-89843829D01*
X160410810Y-89855376D01*
X160414456Y-89859943D01*
X160422862Y-89870793D01*
X160427884Y-89879231D01*
X160428490Y-89881326D01*
X160431487Y-89887361D01*
X160439084Y-89897793D01*
X160447717Y-89908142D01*
X160457331Y-89920046D01*
X160463295Y-89929376D01*
X160464363Y-89933637D01*
X160466125Y-89938667D01*
X160473451Y-89946448D01*
X160476419Y-89948921D01*
X160486823Y-89957991D01*
X160500729Y-89971214D01*
X160515291Y-89985876D01*
X160516594Y-89987234D01*
X160530910Y-90001438D01*
X160541539Y-90009714D01*
X160550610Y-90013457D01*
X160557600Y-90014131D01*
X160567833Y-90013510D01*
X160570863Y-90010015D01*
X160568853Y-90001267D01*
X160565679Y-89988823D01*
X160562330Y-89972317D01*
X160561073Y-89965015D01*
X160557852Y-89951435D01*
X160553782Y-89942742D01*
X160551470Y-89941041D01*
X160543082Y-89939609D01*
X160542429Y-89936482D01*
X160545139Y-89932853D01*
X160547222Y-89926883D01*
X160543391Y-89918866D01*
X160537654Y-89911803D01*
X160528434Y-89902641D01*
X160521026Y-89897554D01*
X160519525Y-89897188D01*
X160515574Y-89893148D01*
X160513901Y-89884324D01*
X160512682Y-89869821D01*
X160510162Y-89855814D01*
X160507020Y-89845245D01*
X160503934Y-89841055D01*
X160503928Y-89841055D01*
X160498218Y-89843956D01*
X160495103Y-89846668D01*
X160490468Y-89849923D01*
X160489490Y-89846668D01*
X160492549Y-89841404D01*
X160494168Y-89841055D01*
X160498363Y-89839092D01*
X160496767Y-89832641D01*
X160489041Y-89820859D01*
X160482776Y-89812710D01*
X160474400Y-89800807D01*
X160469742Y-89791524D01*
X160469466Y-89787940D01*
X160469076Y-89785766D01*
X160466815Y-89786820D01*
X160461155Y-89785782D01*
X160457146Y-89779357D01*
X160452276Y-89771684D01*
X160442906Y-89760186D01*
X160430808Y-89746713D01*
X160417755Y-89733117D01*
X160405521Y-89721248D01*
X160395878Y-89712957D01*
X160390775Y-89710079D01*
X160386699Y-89706505D01*
X160386580Y-89705401D01*
X160390140Y-89700859D01*
X160391258Y-89700724D01*
X160395058Y-89696806D01*
X160395936Y-89691368D01*
X160393011Y-89683749D01*
X160388919Y-89682013D01*
X160383337Y-89677847D01*
X160381902Y-89668362D01*
X160380054Y-89651040D01*
X160374680Y-89641575D01*
X160369708Y-89639913D01*
X160363821Y-89636639D01*
X160363192Y-89634196D01*
X160360554Y-89632714D01*
X160353953Y-89637717D01*
X160348643Y-89647209D01*
X160344471Y-89661954D01*
X160341961Y-89678470D01*
X160341634Y-89693278D01*
X160270385Y-89693278D01*
X160268360Y-89669980D01*
X160269077Y-89645811D01*
X160270220Y-89637668D01*
X160340802Y-89637668D01*
X160341362Y-89638354D01*
X160344143Y-89637712D01*
X160344481Y-89635235D01*
X160342769Y-89631385D01*
X160341362Y-89632117D01*
X160340802Y-89637668D01*
X160270220Y-89637668D01*
X160272208Y-89623505D01*
X160277414Y-89605666D01*
X160283093Y-89596090D01*
X160290139Y-89587073D01*
X160293026Y-89580409D01*
X160296728Y-89577314D01*
X160302381Y-89577748D01*
X160310200Y-89577352D01*
X160311737Y-89573342D01*
X160315651Y-89567409D01*
X160325506Y-89560536D01*
X160330581Y-89557993D01*
X160355134Y-89550944D01*
X160384221Y-89548835D01*
X160414478Y-89551589D01*
X160442541Y-89559130D01*
X160446221Y-89560613D01*
X160463330Y-89567788D01*
X160474585Y-89572275D01*
X160482711Y-89575120D01*
X160488321Y-89576785D01*
X160496971Y-89582772D01*
X160498845Y-89588774D01*
X160500865Y-89596202D01*
X160503523Y-89597814D01*
X160508068Y-89594558D01*
X160508201Y-89593550D01*
X160510220Y-89589500D01*
X160516608Y-89591161D01*
X160527858Y-89598862D01*
X160544464Y-89612927D01*
X160562368Y-89629388D01*
X160572396Y-89638333D01*
X160579516Y-89643797D01*
X160581210Y-89644591D01*
X160585767Y-89647828D01*
X160592283Y-89654964D01*
X160599446Y-89661790D01*
X160605399Y-89661228D01*
X160607428Y-89659739D01*
X160612054Y-89658003D01*
X160618083Y-89660862D01*
X160627040Y-89669379D01*
X160636455Y-89679952D01*
X160649971Y-89694456D01*
X160659667Y-89701918D01*
X160666707Y-89703215D01*
X160667175Y-89703084D01*
X160673871Y-89703200D01*
X160674936Y-89708247D01*
X160678398Y-89715198D01*
X160687679Y-89720588D01*
X160699245Y-89723000D01*
X160708328Y-89721613D01*
X160719498Y-89718569D01*
X160727727Y-89717472D01*
X160737180Y-89714814D01*
X160740991Y-89711028D01*
X160745143Y-89707320D01*
X160746929Y-89707842D01*
X160751729Y-89706524D01*
X160756304Y-89700151D01*
X160758372Y-89692797D01*
X160757267Y-89689397D01*
X160757941Y-89688038D01*
X160761751Y-89689145D01*
X160769900Y-89688007D01*
X160775106Y-89681206D01*
X160783187Y-89669082D01*
X160789498Y-89661950D01*
X160796252Y-89652185D01*
X160798219Y-89644685D01*
X160800499Y-89635745D01*
X160803078Y-89632785D01*
X160805377Y-89626790D01*
X160806813Y-89613630D01*
X160807431Y-89595451D01*
X160807277Y-89574399D01*
X160806395Y-89552620D01*
X160804830Y-89532260D01*
X160802629Y-89515465D01*
X160800413Y-89505961D01*
X160796743Y-89492812D01*
X160792735Y-89475226D01*
X160788779Y-89455416D01*
X160785263Y-89435593D01*
X160782576Y-89417967D01*
X160781107Y-89404750D01*
X160781245Y-89398154D01*
X160781407Y-89397892D01*
X160780409Y-89393053D01*
X160774997Y-89383932D01*
X160772804Y-89380892D01*
X160764305Y-89367756D01*
X160755204Y-89351031D01*
X160751313Y-89342878D01*
X160743913Y-89328612D01*
X160736413Y-89317546D01*
X160732670Y-89313786D01*
X160726272Y-89306861D01*
X160722089Y-89298267D01*
X160721284Y-89291292D01*
X160723922Y-89289084D01*
X160724701Y-89285930D01*
X160721140Y-89278254D01*
X160714868Y-89268736D01*
X160707513Y-89260060D01*
X160704729Y-89257504D01*
X160695049Y-89253433D01*
X160683615Y-89252317D01*
X160664181Y-89250051D01*
X160647122Y-89242435D01*
X160639581Y-89235778D01*
X160630700Y-89230437D01*
X160618490Y-89228274D01*
X160606417Y-89226730D01*
X160598407Y-89223055D01*
X160588180Y-89215291D01*
X160572673Y-89206265D01*
X160561802Y-89200896D01*
X160550985Y-89193814D01*
X160546027Y-89189001D01*
X160536761Y-89182725D01*
X160530852Y-89181497D01*
X160520344Y-89178993D01*
X160510581Y-89174077D01*
X160500661Y-89169771D01*
X160493732Y-89170072D01*
X160487010Y-89169393D01*
X160480662Y-89163660D01*
X160471296Y-89157467D01*
X160455863Y-89152854D01*
X160437576Y-89150201D01*
X160419646Y-89149889D01*
X160405285Y-89152301D01*
X160401100Y-89154212D01*
X160392406Y-89157759D01*
X160387939Y-89154395D01*
X160387459Y-89143514D01*
X160390214Y-89126898D01*
X160396496Y-89106298D01*
X160405059Y-89094132D01*
X160406350Y-89093138D01*
X160416995Y-89088731D01*
X160433273Y-89085335D01*
X160452161Y-89083190D01*
X160470639Y-89082539D01*
X160485682Y-89083621D01*
X160493647Y-89086176D01*
X160503329Y-89090739D01*
X160516610Y-89094695D01*
X160517556Y-89094902D01*
X160529865Y-89098251D01*
X160538170Y-89101811D01*
X160538668Y-89102170D01*
X160545698Y-89105435D01*
X160558369Y-89109558D01*
X160566734Y-89111821D01*
X160584806Y-89118544D01*
X160600116Y-89128017D01*
X160603079Y-89130672D01*
X160613460Y-89138727D01*
X160621925Y-89141268D01*
X160623018Y-89141007D01*
X160632269Y-89141379D01*
X160636305Y-89143633D01*
X160645534Y-89146814D01*
X160649917Y-89146133D01*
X160658382Y-89147266D01*
X160667910Y-89154098D01*
X160683770Y-89166589D01*
X160702242Y-89176245D01*
X160719527Y-89181203D01*
X160723794Y-89181497D01*
X160736755Y-89183341D01*
X160751381Y-89187822D01*
X160752408Y-89188241D01*
X160762921Y-89192280D01*
X160767273Y-89192001D01*
X160767865Y-89186853D01*
X160767814Y-89186169D01*
X160767707Y-89184733D01*
X160764293Y-89176726D01*
X160759173Y-89175850D01*
X160752972Y-89173816D01*
X160752203Y-89168834D01*
X160752168Y-89165125D01*
X160765475Y-89165125D01*
X160767814Y-89167464D01*
X160770153Y-89165125D01*
X160767814Y-89162786D01*
X160765475Y-89165125D01*
X160752168Y-89165125D01*
X160752030Y-89150581D01*
X160747546Y-89140092D01*
X160743099Y-89137380D01*
X160735301Y-89131765D01*
X160727011Y-89121421D01*
X160725848Y-89119523D01*
X160715904Y-89105404D01*
X160704172Y-89092279D01*
X160703786Y-89091913D01*
X160695234Y-89082234D01*
X160690803Y-89074061D01*
X160690632Y-89072823D01*
X160686846Y-89066162D01*
X160677768Y-89059564D01*
X160664986Y-89051721D01*
X160653434Y-89042498D01*
X160645698Y-89034144D01*
X160643935Y-89030146D01*
X160641195Y-89024134D01*
X160634577Y-89014607D01*
X160633330Y-89013025D01*
X160619803Y-88995907D01*
X160611434Y-88984593D01*
X160607304Y-88977775D01*
X160606433Y-88974726D01*
X160602603Y-88971473D01*
X160598978Y-88971000D01*
X160591890Y-88967073D01*
X160589077Y-88961644D01*
X160584379Y-88954042D01*
X160580160Y-88952289D01*
X160574309Y-88948663D01*
X160573689Y-88945972D01*
X160570254Y-88939210D01*
X160561778Y-88930599D01*
X160559656Y-88928900D01*
X160550510Y-88920601D01*
X160545795Y-88913801D01*
X160545623Y-88912837D01*
X160541958Y-88907104D01*
X160532993Y-88900095D01*
X160531589Y-88899239D01*
X160522198Y-88892752D01*
X160517638Y-88887757D01*
X160517556Y-88887315D01*
X160514619Y-88882149D01*
X160507036Y-88872615D01*
X160499564Y-88864191D01*
X160484947Y-88850759D01*
X160472641Y-88845044D01*
X160468954Y-88844701D01*
X160459670Y-88842840D01*
X160457095Y-88838854D01*
X160456660Y-88824954D01*
X160449714Y-88815151D01*
X160442713Y-88810363D01*
X160433247Y-88802993D01*
X160428740Y-88795986D01*
X160428680Y-88795321D01*
X160424909Y-88789411D01*
X160421400Y-88788569D01*
X160415247Y-88784543D01*
X160408065Y-88774109D01*
X160404809Y-88767519D01*
X160398355Y-88755266D01*
X160392318Y-88747567D01*
X160389870Y-88746253D01*
X160383243Y-88742740D01*
X160375069Y-88734564D01*
X160374886Y-88734336D01*
X160359490Y-88715951D01*
X160348098Y-88704230D01*
X160341251Y-88699725D01*
X160340870Y-88699692D01*
X160335113Y-88696575D01*
X160327083Y-88689167D01*
X160315897Y-88678039D01*
X160305785Y-88669003D01*
X160296513Y-88659075D01*
X160291128Y-88649627D01*
X160284684Y-88640649D01*
X160278818Y-88637481D01*
X160272222Y-88632909D01*
X160272067Y-88628639D01*
X160270459Y-88622106D01*
X160263888Y-88611068D01*
X160253761Y-88597873D01*
X160253375Y-88597419D01*
X160242762Y-88584084D01*
X160235168Y-88572824D01*
X160232216Y-88566048D01*
X160232216Y-88565995D01*
X160228583Y-88560037D01*
X160225745Y-88559361D01*
X160220043Y-88555334D01*
X160215333Y-88545757D01*
X160213567Y-88535972D01*
X160217701Y-88535033D01*
X160228138Y-88534512D01*
X160241833Y-88534432D01*
X160255741Y-88534814D01*
X160265983Y-88535580D01*
X160270374Y-88538836D01*
X160280059Y-88547485D01*
X160293716Y-88560305D01*
X160310023Y-88576074D01*
X160314438Y-88580410D01*
X160331471Y-88596755D01*
X160346535Y-88610394D01*
X160358215Y-88620103D01*
X160365094Y-88624658D01*
X160365875Y-88624849D01*
X160372900Y-88628549D01*
X160377225Y-88634204D01*
X160380050Y-88641423D01*
X160379394Y-88643560D01*
X160379853Y-88646248D01*
X160383573Y-88650576D01*
X160391583Y-88656334D01*
X160395825Y-88657593D01*
X160401684Y-88660403D01*
X160411253Y-88669313D01*
X160425280Y-88685038D01*
X160428607Y-88688970D01*
X160432907Y-88696895D01*
X160433357Y-88699495D01*
X160437143Y-88703819D01*
X160440374Y-88704370D01*
X160446606Y-88706399D01*
X160447391Y-88708114D01*
X160450363Y-88713507D01*
X160458005Y-88723296D01*
X160468409Y-88735371D01*
X160479663Y-88747622D01*
X160489858Y-88757940D01*
X160497084Y-88764215D01*
X160499055Y-88765180D01*
X160501848Y-88765873D01*
X160506090Y-88768476D01*
X160512662Y-88773781D01*
X160522445Y-88782574D01*
X160536319Y-88795647D01*
X160555165Y-88813787D01*
X160577391Y-88835378D01*
X160595600Y-88852921D01*
X160611502Y-88867891D01*
X160623887Y-88879179D01*
X160631545Y-88885670D01*
X160633364Y-88886801D01*
X160637737Y-88890002D01*
X160647125Y-88898683D01*
X160660187Y-88911457D01*
X160675580Y-88926941D01*
X160691964Y-88943748D01*
X160707995Y-88960495D01*
X160722333Y-88975795D01*
X160733635Y-88988265D01*
X160740561Y-88996518D01*
X160742087Y-88999036D01*
X160744938Y-89005703D01*
X160751803Y-89014651D01*
X160760149Y-89023198D01*
X160767442Y-89028663D01*
X160770579Y-89029208D01*
X160774550Y-89030069D01*
X160774831Y-89031731D01*
X160777370Y-89039091D01*
X160785613Y-89049940D01*
X160796438Y-89061486D01*
X160804524Y-89073382D01*
X160809798Y-89087341D01*
X160815060Y-89099987D01*
X160822104Y-89105428D01*
X160829443Y-89110824D01*
X160830963Y-89115619D01*
X160834038Y-89125770D01*
X160836426Y-89128956D01*
X160843391Y-89139381D01*
X160848937Y-89153778D01*
X160852468Y-89169253D01*
X160853383Y-89182910D01*
X160851086Y-89191855D01*
X160849703Y-89193173D01*
X160847095Y-89199248D01*
X160846329Y-89210834D01*
X160846533Y-89214732D01*
X160846245Y-89227717D01*
X160843552Y-89235867D01*
X160842643Y-89236693D01*
X160836534Y-89243613D01*
X160834142Y-89248477D01*
X160828260Y-89254676D01*
X160822374Y-89254245D01*
X160812138Y-89255578D01*
X160797751Y-89264232D01*
X160795454Y-89266011D01*
X160781061Y-89278344D01*
X160773970Y-89287195D01*
X160773449Y-89293870D01*
X160777230Y-89298490D01*
X160783189Y-89307487D01*
X160784186Y-89312603D01*
X160787047Y-89320723D01*
X160794382Y-89332528D01*
X160800558Y-89340539D01*
X160809833Y-89352429D01*
X160816081Y-89361930D01*
X160817623Y-89365540D01*
X160818877Y-89375054D01*
X160819269Y-89377961D01*
X160820513Y-89388936D01*
X160820915Y-89393320D01*
X160824477Y-89401382D01*
X160832733Y-89412388D01*
X160837980Y-89418034D01*
X160849034Y-89430260D01*
X160853868Y-89438312D01*
X160852191Y-89441451D01*
X160846753Y-89440240D01*
X160841900Y-89438985D01*
X160842527Y-89442277D01*
X160846387Y-89448572D01*
X160852479Y-89461761D01*
X160855835Y-89474508D01*
X160858983Y-89489855D01*
X160863147Y-89504913D01*
X160865673Y-89516112D01*
X160868458Y-89533897D01*
X160871109Y-89555523D01*
X160872695Y-89571710D01*
X160874546Y-89596247D01*
X160875023Y-89613868D01*
X160874038Y-89626925D01*
X160871505Y-89637770D01*
X160870091Y-89641876D01*
X160865269Y-89656237D01*
X160861971Y-89668442D01*
X160861513Y-89670856D01*
X160858136Y-89681623D01*
X160851353Y-89696459D01*
X160842526Y-89713004D01*
X160833014Y-89728899D01*
X160824177Y-89741783D01*
X160817375Y-89749296D01*
X160815781Y-89750204D01*
X160808890Y-89756470D01*
X160807575Y-89761702D01*
X160805136Y-89768179D01*
X160801036Y-89768086D01*
X160794366Y-89770334D01*
X160786022Y-89780838D01*
X160783802Y-89784605D01*
X160775505Y-89797821D01*
X160769499Y-89803073D01*
X160764691Y-89801123D01*
X160763136Y-89798956D01*
X160757406Y-89794574D01*
X160752347Y-89796201D01*
X160751442Y-89799393D01*
X160755347Y-89804566D01*
X160760798Y-89806956D01*
X160769027Y-89810943D01*
X160768300Y-89817037D01*
X160764598Y-89821350D01*
X160762756Y-89825610D01*
X160768517Y-89828631D01*
X160773954Y-89829887D01*
X160784164Y-89833511D01*
X160788834Y-89838289D01*
X160788864Y-89838665D01*
X160792424Y-89844523D01*
X160801474Y-89852881D01*
X160807575Y-89857427D01*
X160820223Y-89867195D01*
X160826143Y-89875076D01*
X160826976Y-89883362D01*
X160826839Y-89884324D01*
X160829708Y-89887790D01*
X160830327Y-89887832D01*
X160835021Y-89891406D01*
X160842591Y-89900546D01*
X160847654Y-89907712D01*
X160858233Y-89922178D01*
X160869309Y-89935313D01*
X160873179Y-89939287D01*
X160882315Y-89949705D01*
X160893293Y-89964564D01*
X160901258Y-89976709D01*
X160912698Y-89994299D01*
X160925195Y-90012046D01*
X160932501Y-90021629D01*
X160941251Y-90033536D01*
X160946833Y-90043061D01*
X160947906Y-90046461D01*
X160950601Y-90053285D01*
X160957416Y-90064026D01*
X160961391Y-90069368D01*
X160970378Y-90082830D01*
X160976723Y-90095852D01*
X160977852Y-90099499D01*
X160981809Y-90108847D01*
X160986586Y-90112447D01*
X160991261Y-90116833D01*
X160996943Y-90128717D01*
X161003147Y-90146360D01*
X161009390Y-90168022D01*
X161015187Y-90191967D01*
X161020053Y-90216454D01*
X161023505Y-90239746D01*
X161024353Y-90248016D01*
X161024376Y-90258576D01*
X161023446Y-90274824D01*
X161021843Y-90292455D01*
X161020335Y-90309532D01*
X161019740Y-90323173D01*
X161020179Y-90330495D01*
X161020208Y-90330585D01*
X161017999Y-90335922D01*
X161013071Y-90338333D01*
X161005482Y-90344575D01*
X161004039Y-90351121D01*
X160999737Y-90363188D01*
X160988114Y-90375420D01*
X160971093Y-90386552D01*
X160950600Y-90395317D01*
X160929195Y-90400365D01*
X160915257Y-90402771D01*
X160911041Y-90403679D01*
X160904637Y-90405057D01*
X160894607Y-90405875D01*
X160891774Y-90402926D01*
X160887424Y-90399682D01*
X160875559Y-90397913D01*
X160868077Y-90397703D01*
X160852239Y-90396712D01*
X160839030Y-90394196D01*
X160834831Y-90392592D01*
X160824622Y-90390042D01*
X160820512Y-90392251D01*
X160811816Y-90394575D01*
X160804249Y-90392650D01*
X160793994Y-90390329D01*
X160788189Y-90391104D01*
X160780545Y-90391583D01*
X160770031Y-90388167D01*
X160760584Y-90382652D01*
X160756142Y-90376835D01*
X160756120Y-90376468D01*
X160752200Y-90369864D01*
X160742516Y-90362209D01*
X160730179Y-90355404D01*
X160718303Y-90351351D01*
X160714330Y-90350926D01*
X160700767Y-90348502D01*
X160690271Y-90342441D01*
X160685956Y-90334555D01*
X160685954Y-90334390D01*
X160682255Y-90328292D01*
X160679170Y-90327538D01*
X160670694Y-90324010D01*
X160668645Y-90321683D01*
X160661935Y-90315252D01*
X160651920Y-90309257D01*
X160642152Y-90305451D01*
X160636181Y-90305587D01*
X160636138Y-90305628D01*
X160631412Y-90304924D01*
X160627316Y-90300791D01*
X160619542Y-90295367D01*
X160605825Y-90293913D01*
X160601265Y-90294097D01*
X160589808Y-90294175D01*
X160584162Y-90292993D01*
X160584189Y-90292090D01*
X160585186Y-90285673D01*
X160580898Y-90277882D01*
X160573907Y-90272400D01*
X160569885Y-90271700D01*
X160558615Y-90271956D01*
X160556261Y-90269624D01*
X160559656Y-90266655D01*
X160563507Y-90262811D01*
X160559212Y-90260067D01*
X160556200Y-90259179D01*
X160549110Y-90255504D01*
X160548290Y-90252162D01*
X160546558Y-90248907D01*
X160541063Y-90248016D01*
X160531113Y-90243547D01*
X160521372Y-90231234D01*
X160513589Y-90220262D01*
X160506266Y-90216271D01*
X160500290Y-90216588D01*
X160491928Y-90216644D01*
X160490206Y-90211522D01*
X160490258Y-90211152D01*
X160488289Y-90198551D01*
X160480556Y-90187430D01*
X160469792Y-90181704D01*
X160469668Y-90181686D01*
X160460733Y-90177213D01*
X160457579Y-90171791D01*
X160453636Y-90163861D01*
X160445176Y-90152332D01*
X160437703Y-90143725D01*
X160419429Y-90124057D01*
X160419485Y-90121669D01*
X160522234Y-90121669D01*
X160526109Y-90126821D01*
X160533928Y-90131073D01*
X160542609Y-90136105D01*
X160545623Y-90140736D01*
X160549271Y-90148505D01*
X160558747Y-90159220D01*
X160571840Y-90171036D01*
X160586345Y-90182105D01*
X160600053Y-90190579D01*
X160609815Y-90194446D01*
X160619408Y-90197147D01*
X160620964Y-90199395D01*
X160619304Y-90200010D01*
X160613828Y-90202433D01*
X160616356Y-90207114D01*
X160617800Y-90208597D01*
X160625710Y-90214171D01*
X160629652Y-90215272D01*
X160637018Y-90217545D01*
X160647484Y-90223012D01*
X160647527Y-90223038D01*
X160673208Y-90239044D01*
X160692020Y-90251511D01*
X160705323Y-90261356D01*
X160709343Y-90264709D01*
X160721792Y-90273009D01*
X160733805Y-90277884D01*
X160745145Y-90281991D01*
X160760140Y-90289195D01*
X160769128Y-90294189D01*
X160785863Y-90303115D01*
X160802936Y-90310790D01*
X160810153Y-90313444D01*
X160823239Y-90318278D01*
X160832822Y-90322892D01*
X160834267Y-90323872D01*
X160842148Y-90326127D01*
X160844996Y-90325199D01*
X160852606Y-90324944D01*
X160855726Y-90326716D01*
X160863748Y-90330502D01*
X160876581Y-90334055D01*
X160880079Y-90334745D01*
X160893116Y-90337743D01*
X160902226Y-90341000D01*
X160903468Y-90341760D01*
X160911041Y-90342726D01*
X160923391Y-90339948D01*
X160937291Y-90334533D01*
X160949518Y-90327585D01*
X160953071Y-90324757D01*
X160957183Y-90320077D01*
X160959799Y-90313713D01*
X160961192Y-90303739D01*
X160961634Y-90288229D01*
X160961408Y-90265826D01*
X160960506Y-90240020D01*
X160958781Y-90222604D01*
X160956112Y-90212639D01*
X160954214Y-90210006D01*
X160949116Y-90201390D01*
X160947906Y-90194150D01*
X160945161Y-90184685D01*
X160940890Y-90180837D01*
X160934990Y-90174462D01*
X160933873Y-90169215D01*
X160930470Y-90158744D01*
X160926856Y-90154462D01*
X160920848Y-90145145D01*
X160919840Y-90139709D01*
X160916609Y-90130961D01*
X160912823Y-90128087D01*
X160907610Y-90121892D01*
X160905807Y-90112776D01*
X160901956Y-90099701D01*
X160891234Y-90084298D01*
X160889435Y-90082284D01*
X160880104Y-90071232D01*
X160874175Y-90062547D01*
X160873063Y-90059592D01*
X160870430Y-90053103D01*
X160863865Y-90042827D01*
X160861368Y-90039442D01*
X160853994Y-90028666D01*
X160849943Y-90020590D01*
X160849674Y-90019191D01*
X160846659Y-90013590D01*
X160838719Y-90003442D01*
X160827508Y-89990844D01*
X160826377Y-89989643D01*
X160814955Y-89977046D01*
X160806619Y-89966859D01*
X160803023Y-89961117D01*
X160802988Y-89960873D01*
X160799883Y-89954981D01*
X160792524Y-89946546D01*
X160792372Y-89946397D01*
X160783786Y-89937311D01*
X160772066Y-89924099D01*
X160761707Y-89911947D01*
X160750123Y-89899566D01*
X160739612Y-89890882D01*
X160732787Y-89887832D01*
X160724061Y-89884015D01*
X160721197Y-89879646D01*
X160715983Y-89871029D01*
X160705686Y-89858391D01*
X160692179Y-89843628D01*
X160677329Y-89828632D01*
X160663009Y-89815299D01*
X160651087Y-89805522D01*
X160643855Y-89801301D01*
X160633189Y-89796943D01*
X160618721Y-89789513D01*
X160609871Y-89784399D01*
X160596466Y-89776896D01*
X160585734Y-89771991D01*
X160581529Y-89770889D01*
X160573278Y-89768250D01*
X160566397Y-89764021D01*
X160555859Y-89758878D01*
X160544440Y-89757030D01*
X160536103Y-89758934D01*
X160534761Y-89760364D01*
X160533995Y-89767004D01*
X160534916Y-89778391D01*
X160535057Y-89779356D01*
X160538208Y-89790225D01*
X160543299Y-89792548D01*
X160543914Y-89792345D01*
X160548344Y-89792747D01*
X160547818Y-89800201D01*
X160547765Y-89800410D01*
X160549139Y-89813491D01*
X160554564Y-89821867D01*
X160562458Y-89832885D01*
X160571070Y-89847630D01*
X160573946Y-89853280D01*
X160580518Y-89865207D01*
X160586135Y-89872607D01*
X160588139Y-89873799D01*
X160592210Y-89877429D01*
X160592400Y-89878945D01*
X160594304Y-89885207D01*
X160599407Y-89897701D01*
X160606797Y-89914256D01*
X160611111Y-89923474D01*
X160622493Y-89950237D01*
X160628717Y-89971508D01*
X160629821Y-89981477D01*
X160630907Y-89993160D01*
X160633617Y-89999636D01*
X160634694Y-90000097D01*
X160636450Y-90004287D01*
X160637088Y-90015085D01*
X160636775Y-90029832D01*
X160635680Y-90045868D01*
X160633970Y-90060535D01*
X160631813Y-90071174D01*
X160629965Y-90074941D01*
X160625822Y-90080887D01*
X160623666Y-90085762D01*
X160619293Y-90091549D01*
X160616221Y-90091580D01*
X160611088Y-90092426D01*
X160610177Y-90094114D01*
X160604504Y-90099393D01*
X160593452Y-90104347D01*
X160580952Y-90107716D01*
X160570935Y-90108238D01*
X160568616Y-90107441D01*
X160560262Y-90106882D01*
X160557600Y-90108239D01*
X160551171Y-90111518D01*
X160545843Y-90118789D01*
X160545623Y-90120504D01*
X160544208Y-90125625D01*
X160538599Y-90125097D01*
X160531282Y-90121553D01*
X160523877Y-90119100D01*
X160522234Y-90121669D01*
X160419485Y-90121669D01*
X160420560Y-90076059D01*
X160420875Y-90053944D01*
X160420429Y-90039487D01*
X160419007Y-90031007D01*
X160416397Y-90026822D01*
X160414146Y-90025666D01*
X160408373Y-90019350D01*
X160407944Y-90011034D01*
X160406188Y-90000238D01*
X160400487Y-89986860D01*
X160392890Y-89974841D01*
X160385674Y-89968221D01*
X160384180Y-89963337D01*
X160385005Y-89960035D01*
X160383937Y-89954546D01*
X160377725Y-89953320D01*
X160369562Y-89950251D01*
X160367869Y-89944059D01*
X160365198Y-89928914D01*
X160358432Y-89912640D01*
X160349438Y-89898958D01*
X160341898Y-89892379D01*
X160341362Y-89891999D01*
X160333499Y-89886426D01*
X160330448Y-89881724D01*
G37*
G36*
X160592913Y-88120325D02*
G01*
X160596682Y-88129962D01*
X160595511Y-88136877D01*
X160592253Y-88138366D01*
X160586445Y-88134549D01*
X160583937Y-88126257D01*
X160585553Y-88119380D01*
X160589686Y-88116824D01*
X160592913Y-88120325D01*
G37*
G36*
X159836706Y-90288331D02*
G01*
X159843290Y-90292106D01*
X159842187Y-90294547D01*
X159839563Y-90294794D01*
X159833220Y-90291396D01*
X159832304Y-90290169D01*
X159833057Y-90287511D01*
X159836706Y-90288331D01*
G37*
G36*
X159895082Y-87504398D02*
G01*
X159895420Y-87506875D01*
X159893708Y-87510725D01*
X159892301Y-87509993D01*
X159891742Y-87504442D01*
X159892301Y-87503756D01*
X159895082Y-87504398D01*
G37*
G36*
X160367869Y-89759195D02*
G01*
X160365530Y-89761534D01*
X160363192Y-89759195D01*
X160365530Y-89756856D01*
X160367869Y-89759195D01*
G37*
G36*
X160745011Y-84275970D02*
G01*
X160733733Y-84276825D01*
X160716622Y-84276821D01*
X160698003Y-84276450D01*
X160668745Y-84275212D01*
X160647680Y-84272889D01*
X160633696Y-84269341D01*
X160630568Y-84267942D01*
X160618853Y-84263659D01*
X160609649Y-84263210D01*
X160609211Y-84263357D01*
X160601007Y-84261845D01*
X160590269Y-84253216D01*
X160589035Y-84251900D01*
X160571757Y-84238998D01*
X160556053Y-84233220D01*
X160540243Y-84228278D01*
X160526217Y-84221665D01*
X160523761Y-84220085D01*
X160503940Y-84206753D01*
X160485137Y-84195173D01*
X160470184Y-84187066D01*
X160467151Y-84185685D01*
X160457778Y-84179444D01*
X160453787Y-84174072D01*
X160447178Y-84168706D01*
X160436283Y-84166985D01*
X160424945Y-84164856D01*
X160412735Y-84157555D01*
X160399912Y-84146299D01*
X160384689Y-84133646D01*
X160371004Y-84125767D01*
X160365062Y-84124080D01*
X160351043Y-84117894D01*
X160341077Y-84106583D01*
X160331659Y-84094972D01*
X160322006Y-84086557D01*
X160320243Y-84085533D01*
X160312054Y-84078975D01*
X160301153Y-84067258D01*
X160289803Y-84053144D01*
X160280269Y-84039397D01*
X160275825Y-84031331D01*
X160271537Y-84023800D01*
X160269978Y-84021976D01*
X160263950Y-84013752D01*
X160258330Y-84002030D01*
X160255620Y-83992104D01*
X160255604Y-83991571D01*
X160253514Y-83981354D01*
X160251407Y-83976305D01*
X160241109Y-83954590D01*
X160235609Y-83937292D01*
X160234258Y-83921222D01*
X160236406Y-83903189D01*
X160236465Y-83902870D01*
X160238731Y-83885876D01*
X160239250Y-83870892D01*
X160238478Y-83863934D01*
X160237278Y-83855649D01*
X160240597Y-83854186D01*
X160243592Y-83855148D01*
X160251376Y-83857781D01*
X160253648Y-83858256D01*
X160255358Y-83862100D01*
X160255604Y-83865704D01*
X160258351Y-83874455D01*
X160264955Y-83885039D01*
X160264960Y-83885046D01*
X160271630Y-83896409D01*
X160274315Y-83906532D01*
X160277407Y-83917031D01*
X160283374Y-83925781D01*
X160291180Y-83937953D01*
X160294832Y-83948707D01*
X160299657Y-83963560D01*
X160306936Y-83971646D01*
X160314378Y-83972096D01*
X160321066Y-83973635D01*
X160323729Y-83978222D01*
X160328400Y-83989527D01*
X160330796Y-83993910D01*
X160336144Y-84003840D01*
X160339744Y-84011571D01*
X160346506Y-84020966D01*
X160352597Y-84024941D01*
X160375402Y-84034045D01*
X160394696Y-84044725D01*
X160407812Y-84055470D01*
X160408964Y-84056844D01*
X160416773Y-84065101D01*
X160422818Y-84068744D01*
X160423005Y-84068753D01*
X160428565Y-84072488D01*
X160430371Y-84075770D01*
X160436735Y-84081994D01*
X160440428Y-84082786D01*
X160447788Y-84085217D01*
X160460266Y-84091617D01*
X160475276Y-84100649D01*
X160476588Y-84101497D01*
X160491764Y-84110700D01*
X160504706Y-84117379D01*
X160512791Y-84120190D01*
X160513156Y-84120208D01*
X160521603Y-84122716D01*
X160533644Y-84129022D01*
X160538529Y-84132152D01*
X160551501Y-84140085D01*
X160569368Y-84149919D01*
X160588515Y-84159670D01*
X160590665Y-84160711D01*
X160607005Y-84168911D01*
X160619875Y-84176003D01*
X160627078Y-84180755D01*
X160627787Y-84181511D01*
X160634097Y-84185011D01*
X160639516Y-84185696D01*
X160651647Y-84187963D01*
X160656782Y-84190124D01*
X160667467Y-84194830D01*
X160683120Y-84200480D01*
X160700657Y-84206111D01*
X160716995Y-84210754D01*
X160729051Y-84213446D01*
X160732229Y-84213762D01*
X160739326Y-84210552D01*
X160742738Y-84202068D01*
X160746764Y-84202068D01*
X160749103Y-84204407D01*
X160751442Y-84202068D01*
X160749103Y-84199729D01*
X160746764Y-84202068D01*
X160742738Y-84202068D01*
X160743616Y-84199884D01*
X160744064Y-84197670D01*
X160745232Y-84183636D01*
X160744058Y-84170280D01*
X160741043Y-84160638D01*
X160737440Y-84157630D01*
X160732596Y-84154116D01*
X160725951Y-84145638D01*
X160725791Y-84145395D01*
X160720689Y-84136278D01*
X160721180Y-84130461D01*
X160725081Y-84125854D01*
X160731000Y-84121053D01*
X160734204Y-84123531D01*
X160735366Y-84126308D01*
X160740379Y-84131521D01*
X160746063Y-84130065D01*
X160758081Y-84128161D01*
X160769067Y-84134355D01*
X160778258Y-84147391D01*
X160784887Y-84166015D01*
X160788192Y-84188973D01*
X160788405Y-84199549D01*
X160787263Y-84217284D01*
X160784756Y-84232609D01*
X160781978Y-84240957D01*
X160774591Y-84251793D01*
X160764596Y-84263680D01*
X160763631Y-84264701D01*
X160757980Y-84270262D01*
X160752433Y-84273900D01*
X160749103Y-84274829D01*
X160745011Y-84275970D01*
G37*
G36*
X160634499Y-84014959D02*
G01*
X160632160Y-84017298D01*
X160629821Y-84014959D01*
X160632160Y-84012620D01*
X160634499Y-84014959D01*
G37*
G36*
X161055494Y-84080447D02*
G01*
X161053155Y-84082786D01*
X161050816Y-84080447D01*
X161053155Y-84078108D01*
X161055494Y-84080447D01*
G37*
G36*
X160626238Y-84755379D02*
G01*
X160626551Y-84765803D01*
X160626317Y-84766902D01*
X160622597Y-84774278D01*
X160618323Y-84773552D01*
X160615858Y-84765513D01*
X160615788Y-84763394D01*
X160617296Y-84754602D01*
X160620190Y-84751700D01*
X160626238Y-84755379D01*
G37*
G36*
X160736516Y-84103939D02*
G01*
X160737409Y-84106175D01*
X160734052Y-84110719D01*
X160733007Y-84110852D01*
X160726672Y-84107452D01*
X160725715Y-84106175D01*
X160726775Y-84102170D01*
X160730116Y-84101497D01*
X160736516Y-84103939D01*
G37*
G36*
X160648195Y-89992943D02*
G01*
X160648532Y-89995420D01*
X160646821Y-89999270D01*
X160645414Y-89998538D01*
X160644854Y-89992987D01*
X160645414Y-89992301D01*
X160648195Y-89992943D01*
G37*
G36*
X160639177Y-90315843D02*
G01*
X160636838Y-90318182D01*
X160634499Y-90315843D01*
X160636838Y-90313504D01*
X160639177Y-90315843D01*
G37*
G36*
X160652823Y-84027693D02*
G01*
X160658283Y-84032717D01*
X160661060Y-84042023D01*
X160659949Y-84050652D01*
X160658802Y-84052246D01*
X160652975Y-84054390D01*
X160648893Y-84047380D01*
X160647506Y-84040494D01*
X160647070Y-84030541D01*
X160650435Y-84027475D01*
X160652823Y-84027693D01*
G37*
G36*
X159928164Y-83790429D02*
G01*
X159925825Y-83792768D01*
X159923486Y-83790429D01*
X159925825Y-83788090D01*
X159928164Y-83790429D01*
G37*
G36*
X159675567Y-90119379D02*
G01*
X159673228Y-90121718D01*
X159670890Y-90119379D01*
X159673228Y-90117040D01*
X159675567Y-90119379D01*
G37*
G36*
X160472161Y-83669870D02*
G01*
X160473118Y-83671147D01*
X160472058Y-83675152D01*
X160468716Y-83675825D01*
X160462316Y-83673383D01*
X160461424Y-83671147D01*
X160464781Y-83666603D01*
X160465825Y-83666469D01*
X160472161Y-83669870D01*
G37*
G36*
X160713884Y-84086346D02*
G01*
X160714020Y-84087464D01*
X160710461Y-84092006D01*
X160709343Y-84092142D01*
X160704801Y-84088582D01*
X160704665Y-84087464D01*
X160708225Y-84082922D01*
X160709343Y-84082786D01*
X160713884Y-84086346D01*
G37*
G36*
X160578187Y-90289034D02*
G01*
X160578367Y-90290392D01*
X160575501Y-90293186D01*
X160573689Y-90292455D01*
X160569226Y-90288251D01*
X160569011Y-90287501D01*
X160572630Y-90285492D01*
X160573689Y-90285438D01*
X160578187Y-90289034D01*
G37*
G36*
X160430336Y-83156554D02*
G01*
X160423014Y-83147223D01*
X160422523Y-83146711D01*
X160413168Y-83134342D01*
X160405434Y-83119765D01*
X160405197Y-83119177D01*
X160399266Y-83107055D01*
X160389864Y-83090791D01*
X160378990Y-83073833D01*
X160378609Y-83073273D01*
X160368877Y-83057830D01*
X160361739Y-83044329D01*
X160358564Y-83035399D01*
X160358514Y-83034682D01*
X160356562Y-83027242D01*
X160353987Y-83025622D01*
X160349036Y-83021881D01*
X160341116Y-83012161D01*
X160331705Y-82998713D01*
X160326760Y-82990886D01*
X160420716Y-82990886D01*
X160424976Y-82995857D01*
X160433882Y-83000802D01*
X160440011Y-83000681D01*
X160446914Y-82995872D01*
X160445577Y-82991249D01*
X160437003Y-82988448D01*
X160432355Y-82988201D01*
X160422546Y-82988635D01*
X160420716Y-82990886D01*
X160326760Y-82990886D01*
X160322278Y-82983792D01*
X160314311Y-82969649D01*
X160309281Y-82958538D01*
X160308626Y-82956384D01*
X160304267Y-82946751D01*
X160295622Y-82932741D01*
X160284430Y-82917133D01*
X160282546Y-82914708D01*
X160272152Y-82900455D01*
X160265041Y-82888682D01*
X160262427Y-82881466D01*
X160262626Y-82880604D01*
X160261360Y-82874781D01*
X160254528Y-82866144D01*
X160251275Y-82863083D01*
X160242064Y-82852647D01*
X160237147Y-82842489D01*
X160236893Y-82840384D01*
X160233809Y-82829488D01*
X160229877Y-82824480D01*
X160223998Y-82817760D01*
X160222860Y-82814615D01*
X160219693Y-82809320D01*
X160211649Y-82800439D01*
X160206326Y-82795308D01*
X160191981Y-82776548D01*
X160185858Y-82754017D01*
X160187486Y-82728494D01*
X160191920Y-82715403D01*
X160201052Y-82707448D01*
X160206616Y-82704844D01*
X160219770Y-82699869D01*
X160230337Y-82698017D01*
X160240083Y-82700046D01*
X160250771Y-82706717D01*
X160264168Y-82718788D01*
X160282036Y-82737019D01*
X160282509Y-82737513D01*
X160294495Y-82750102D01*
X160305307Y-82761609D01*
X160309398Y-82766037D01*
X160319146Y-82774812D01*
X160332675Y-82784845D01*
X160338282Y-82788523D01*
X160353574Y-82800116D01*
X160368596Y-82814565D01*
X160372978Y-82819639D01*
X160383004Y-82830447D01*
X160391921Y-82837281D01*
X160395549Y-82838525D01*
X160403955Y-82841525D01*
X160414713Y-82848918D01*
X160425140Y-82858324D01*
X160432551Y-82867360D01*
X160434461Y-82873047D01*
X160437769Y-82878550D01*
X160448127Y-82885415D01*
X160456413Y-82889379D01*
X160469990Y-82895853D01*
X160479769Y-82901686D01*
X160482661Y-82904306D01*
X160489121Y-82909713D01*
X160496581Y-82913385D01*
X160506617Y-82920568D01*
X160513668Y-82930207D01*
X160521339Y-82941269D01*
X160529232Y-82948008D01*
X160538560Y-82953890D01*
X160551259Y-82962800D01*
X160556897Y-82966982D01*
X160575080Y-82979687D01*
X160592209Y-82989806D01*
X160606019Y-82996095D01*
X160612622Y-82997556D01*
X160616847Y-82993653D01*
X160617541Y-82983242D01*
X160615180Y-82968267D01*
X160610240Y-82950673D01*
X160603197Y-82932405D01*
X160594528Y-82915409D01*
X160591229Y-82910167D01*
X160581601Y-82894187D01*
X160571555Y-82875102D01*
X160566805Y-82864989D01*
X160559947Y-82850758D01*
X160553827Y-82840219D01*
X160550549Y-82836329D01*
X160546357Y-82829563D01*
X160545623Y-82824520D01*
X160541727Y-82815978D01*
X160536951Y-82813003D01*
X160529194Y-82807279D01*
X160521037Y-82796629D01*
X160519515Y-82793977D01*
X160512544Y-82783592D01*
X160506112Y-82778009D01*
X160504798Y-82777703D01*
X160499290Y-82774732D01*
X160498845Y-82772925D01*
X160496417Y-82766416D01*
X160490346Y-82755277D01*
X160482454Y-82742471D01*
X160474564Y-82730963D01*
X160468709Y-82723910D01*
X160463694Y-82717267D01*
X160456462Y-82705589D01*
X160452351Y-82698306D01*
X160443112Y-82683504D01*
X160433094Y-82670535D01*
X160429346Y-82666637D01*
X160419616Y-82656446D01*
X160412692Y-82647251D01*
X160402111Y-82630532D01*
X160391988Y-82616834D01*
X160384139Y-82608578D01*
X160383184Y-82607904D01*
X160377797Y-82602327D01*
X160377225Y-82600338D01*
X160374203Y-82595348D01*
X160366214Y-82585644D01*
X160354868Y-82573163D01*
X160352667Y-82570846D01*
X160338707Y-82555807D01*
X160325691Y-82541026D01*
X160316432Y-82529698D01*
X160316414Y-82529675D01*
X160305416Y-82516081D01*
X160293993Y-82503353D01*
X160292767Y-82502097D01*
X160283459Y-82491727D01*
X160271659Y-82477301D01*
X160262570Y-82465466D01*
X160252799Y-82452916D01*
X160245050Y-82444064D01*
X160241155Y-82440908D01*
X160237574Y-82437028D01*
X160235538Y-82431552D01*
X160230457Y-82423945D01*
X160225726Y-82422197D01*
X160219191Y-82418202D01*
X160215426Y-82410503D01*
X160210578Y-82401601D01*
X160204812Y-82398522D01*
X160199996Y-82396814D01*
X160193446Y-82391351D01*
X160184283Y-82381150D01*
X160171625Y-82365228D01*
X160154594Y-82342605D01*
X160153891Y-82341656D01*
X160144348Y-82330493D01*
X160135497Y-82322860D01*
X160132814Y-82321460D01*
X160125889Y-82316257D01*
X160124628Y-82312610D01*
X160121132Y-82305923D01*
X160112674Y-82298050D01*
X160112221Y-82297723D01*
X160100373Y-82288631D01*
X160091172Y-82280696D01*
X160083354Y-82274454D01*
X160079020Y-82272478D01*
X160074479Y-82268935D01*
X160067201Y-82260061D01*
X160064040Y-82255604D01*
X160054988Y-82244730D01*
X160041092Y-82230748D01*
X160024946Y-82216224D01*
X160020324Y-82212367D01*
X159988079Y-82185972D01*
X159990619Y-82163975D01*
X159994043Y-82147842D01*
X160001447Y-82135144D01*
X160010752Y-82125384D01*
X160022689Y-82115808D01*
X160033551Y-82109853D01*
X160037895Y-82108871D01*
X160047386Y-82112224D01*
X160057867Y-82120139D01*
X160065976Y-82129592D01*
X160068495Y-82136346D01*
X160072106Y-82141287D01*
X160073683Y-82141534D01*
X160077006Y-82142304D01*
X160081738Y-82145201D01*
X160088852Y-82151104D01*
X160099324Y-82160894D01*
X160114126Y-82175450D01*
X160134233Y-82195651D01*
X160139696Y-82201175D01*
X160155258Y-82216428D01*
X160168842Y-82228836D01*
X160178915Y-82237055D01*
X160183774Y-82239766D01*
X160190204Y-82242754D01*
X160200680Y-82250482D01*
X160209793Y-82258418D01*
X160221151Y-82268461D01*
X160229878Y-82275257D01*
X160233385Y-82277129D01*
X160236503Y-82280992D01*
X160236893Y-82284204D01*
X160240765Y-82289970D01*
X160245859Y-82291221D01*
X160254052Y-82292806D01*
X160256384Y-82294729D01*
X160261701Y-82300387D01*
X160271758Y-82307881D01*
X160282986Y-82314858D01*
X160291815Y-82318964D01*
X160293616Y-82319287D01*
X160297106Y-82320969D01*
X160296459Y-82322091D01*
X160296585Y-82327461D01*
X160302999Y-82334889D01*
X160313411Y-82342699D01*
X160325534Y-82349212D01*
X160337077Y-82352749D01*
X160338498Y-82352910D01*
X160350426Y-82354966D01*
X160354876Y-82359128D01*
X160354892Y-82362156D01*
X160357717Y-82369052D01*
X160369129Y-82375000D01*
X160371264Y-82375729D01*
X160385624Y-82381267D01*
X160397706Y-82387266D01*
X160398962Y-82388046D01*
X160411483Y-82393939D01*
X160422206Y-82396969D01*
X160434126Y-82400462D01*
X160441484Y-82404407D01*
X160453190Y-82410116D01*
X160472797Y-82414978D01*
X160498866Y-82418710D01*
X160525068Y-82420786D01*
X160544396Y-82421588D01*
X160557560Y-82421016D01*
X160567724Y-82418426D01*
X160578049Y-82413175D01*
X160585664Y-82408463D01*
X160598654Y-82398597D01*
X160608111Y-82386836D01*
X160614732Y-82371425D01*
X160619214Y-82350606D01*
X160622255Y-82322622D01*
X160622839Y-82314776D01*
X160624586Y-82298237D01*
X160629821Y-82298237D01*
X160632160Y-82300576D01*
X160634499Y-82298237D01*
X160632160Y-82295898D01*
X160629821Y-82298237D01*
X160624586Y-82298237D01*
X160624695Y-82297205D01*
X160627333Y-82283173D01*
X160630222Y-82275412D01*
X160630577Y-82275016D01*
X160634052Y-82273235D01*
X160632996Y-82278357D01*
X160632363Y-82285105D01*
X160634115Y-82286543D01*
X160637060Y-82290719D01*
X160640074Y-82301348D01*
X160641400Y-82308762D01*
X160644801Y-82323741D01*
X160649557Y-82335664D01*
X160651674Y-82338794D01*
X160655143Y-82344018D01*
X160655722Y-82350578D01*
X160653170Y-82361024D01*
X160648240Y-82375190D01*
X160642294Y-82390275D01*
X160637029Y-82401524D01*
X160633820Y-82406245D01*
X160632160Y-82409556D01*
X160630777Y-82412314D01*
X160629821Y-82420582D01*
X160627823Y-82431290D01*
X160622934Y-82443531D01*
X160616816Y-82454010D01*
X160611127Y-82459431D01*
X160610159Y-82459619D01*
X160605200Y-82462764D01*
X160596271Y-82470860D01*
X160588948Y-82478322D01*
X160576651Y-82489945D01*
X160566171Y-82495578D01*
X160554381Y-82497033D01*
X160541553Y-82498777D01*
X160532526Y-82503038D01*
X160531861Y-82503730D01*
X160523151Y-82508370D01*
X160516359Y-82508504D01*
X160500770Y-82506245D01*
X160481669Y-82504544D01*
X160461322Y-82503462D01*
X160441997Y-82503059D01*
X160425960Y-82503396D01*
X160415480Y-82504532D01*
X160412711Y-82505743D01*
X160412177Y-82512155D01*
X160414763Y-82520417D01*
X160418815Y-82526901D01*
X160422681Y-82527980D01*
X160422794Y-82527874D01*
X160424639Y-82527119D01*
X160427301Y-82529407D01*
X160431830Y-82536204D01*
X160439274Y-82548979D01*
X160444577Y-82558351D01*
X160454160Y-82572585D01*
X160465159Y-82585402D01*
X160465627Y-82585858D01*
X160475690Y-82596491D01*
X160487812Y-82610527D01*
X160494168Y-82618358D01*
X160505510Y-82632396D01*
X160516348Y-82645277D01*
X160521065Y-82650616D01*
X160528271Y-82659489D01*
X160531568Y-82665506D01*
X160531589Y-82665762D01*
X160534706Y-82673024D01*
X160542200Y-82682137D01*
X160551291Y-82690396D01*
X160559196Y-82695091D01*
X160561874Y-82695242D01*
X160566483Y-82695907D01*
X160566188Y-82701321D01*
X160567795Y-82710629D01*
X160574999Y-82722268D01*
X160576389Y-82723910D01*
X160586124Y-82736178D01*
X160598502Y-82753391D01*
X160611396Y-82772443D01*
X160622678Y-82790229D01*
X160627653Y-82798753D01*
X160634478Y-82811032D01*
X160638065Y-82817464D01*
X160643074Y-82829361D01*
X160646039Y-82839839D01*
X160651411Y-82852572D01*
X160658016Y-82860758D01*
X160665114Y-82869914D01*
X160667243Y-82877139D01*
X160669727Y-82887104D01*
X160675097Y-82897606D01*
X160681130Y-82910906D01*
X160684646Y-82926117D01*
X160684654Y-82926191D01*
X160687068Y-82939951D01*
X160690604Y-82950710D01*
X160690833Y-82951155D01*
X160694051Y-82963927D01*
X160694294Y-82983048D01*
X160692139Y-83002234D01*
X160688973Y-83015474D01*
X160686232Y-83023283D01*
X160681864Y-83034072D01*
X160676617Y-83047778D01*
X160676159Y-83049011D01*
X160668025Y-83064660D01*
X160657572Y-83076319D01*
X160646996Y-83081646D01*
X160645478Y-83081755D01*
X160636236Y-83082317D01*
X160627030Y-83084876D01*
X160622237Y-83086648D01*
X160610516Y-83087533D01*
X160595058Y-83084458D01*
X160580016Y-83078486D01*
X160573063Y-83074068D01*
X160563790Y-83069188D01*
X160553809Y-83065939D01*
X160544506Y-83062289D01*
X160540945Y-83058277D01*
X160536919Y-83054908D01*
X160528471Y-83053689D01*
X160520445Y-83052734D01*
X160519099Y-83050587D01*
X160518601Y-83047435D01*
X160512242Y-83041922D01*
X160499211Y-83033472D01*
X160478697Y-83021509D01*
X160475926Y-83019941D01*
X160463375Y-83015095D01*
X160455999Y-83016601D01*
X160455001Y-83023564D01*
X160459435Y-83032220D01*
X160464695Y-83042744D01*
X160466101Y-83049517D01*
X160468190Y-83059056D01*
X160473089Y-83070695D01*
X160478143Y-83083616D01*
X160480106Y-83094579D01*
X160483841Y-83105247D01*
X160489490Y-83110907D01*
X160496870Y-83118356D01*
X160498845Y-83124085D01*
X160501483Y-83133586D01*
X160505342Y-83140306D01*
X160509683Y-83149266D01*
X160509851Y-83154368D01*
X160511470Y-83160817D01*
X160517975Y-83170333D01*
X160520194Y-83172851D01*
X160530581Y-83189752D01*
X160532525Y-83201456D01*
X160533669Y-83211974D01*
X160537544Y-83214664D01*
X160539074Y-83214243D01*
X160544769Y-83215270D01*
X160545623Y-83218122D01*
X160549223Y-83225305D01*
X160555458Y-83230656D01*
X160563019Y-83239561D01*
X160563247Y-83247510D01*
X160564656Y-83258536D01*
X160568742Y-83262932D01*
X160574177Y-83269956D01*
X160579734Y-83282695D01*
X160582366Y-83291370D01*
X160586958Y-83305898D01*
X160591975Y-83316818D01*
X160594504Y-83320124D01*
X160597851Y-83327076D01*
X160601033Y-83340890D01*
X160603503Y-83359079D01*
X160603785Y-83362116D01*
X160605143Y-83381980D01*
X160604785Y-83395775D01*
X160602331Y-83406690D01*
X160597401Y-83417914D01*
X160597073Y-83418559D01*
X160589092Y-83431360D01*
X160582301Y-83435688D01*
X160580030Y-83435310D01*
X160569151Y-83432922D01*
X160563951Y-83432584D01*
X160556574Y-83429797D01*
X160554978Y-83426140D01*
X160551681Y-83417847D01*
X160548321Y-83414171D01*
X160543811Y-83405358D01*
X160543754Y-83397122D01*
X160543190Y-83387057D01*
X160539702Y-83383241D01*
X160535085Y-83377364D01*
X160532462Y-83366453D01*
X160532438Y-83366148D01*
X160529007Y-83353768D01*
X160522639Y-83345335D01*
X160515890Y-83336742D01*
X160511118Y-83323988D01*
X160510870Y-83322772D01*
X160507728Y-83311931D01*
X160503970Y-83306449D01*
X160503311Y-83306285D01*
X160499388Y-83302476D01*
X160498845Y-83299011D01*
X160496830Y-83291205D01*
X160491587Y-83278193D01*
X160485387Y-83265097D01*
X160477170Y-83248689D01*
X160469799Y-83233728D01*
X160465886Y-83225595D01*
X160459746Y-83216464D01*
X160453617Y-83212731D01*
X160448961Y-83208438D01*
X160447391Y-83196932D01*
X160445425Y-83184362D01*
X160440665Y-83175565D01*
X160440374Y-83175309D01*
X160434447Y-83167682D01*
X160433882Y-83165608D01*
X160433357Y-83163680D01*
X160430336Y-83156554D01*
G37*
G36*
X160685616Y-84066277D02*
G01*
X160685954Y-84068753D01*
X160684243Y-84072603D01*
X160682836Y-84071871D01*
X160682276Y-84066320D01*
X160682836Y-84065635D01*
X160685616Y-84066277D01*
G37*
%TD*%
M02*
