%TF.GenerationSoftware,KiCad,Pcbnew,6.0.7-1.fc35*%
%TF.CreationDate,2022-12-16T23:41:26+01:00*%
%TF.ProjectId,inner,696e6e65-722e-46b6-9963-61645f706362,rev?*%
%TF.SameCoordinates,Original*%
%TF.FileFunction,Copper,L1,Top*%
%TF.FilePolarity,Positive*%
%FSLAX46Y46*%
G04 Gerber Fmt 4.6, Leading zero omitted, Abs format (unit mm)*
G04 Created by KiCad (PCBNEW 6.0.7-1.fc35) date 2022-12-16 23:41:26*
%MOMM*%
%LPD*%
G01*
G04 APERTURE LIST*
%ADD10C,0.175000*%
%TA.AperFunction,NonConductor*%
%ADD11C,0.175000*%
%TD*%
%ADD12C,0.200000*%
%TA.AperFunction,NonConductor*%
%ADD13C,0.200000*%
%TD*%
G04 APERTURE END LIST*
D10*
D11*
X213760001Y-99990000D02*
X214760001Y-99990000D01*
D10*
D11*
X206888661Y-111911510D02*
X207388661Y-112777535D01*
D10*
D11*
X193128660Y-111921510D02*
X192628660Y-112787535D01*
D10*
D11*
X186239999Y-100010000D02*
X185239999Y-100010000D01*
D10*
D11*
X193111339Y-88088489D02*
X192611339Y-87222464D01*
D12*
D13*
X212565311Y-92238995D02*
X212642265Y-92277045D01*
X212754933Y-92376953D01*
X212933504Y-92686248D01*
X212963693Y-92833775D01*
X212958168Y-92919444D01*
X212911404Y-93028922D01*
X212828925Y-93076541D01*
X212669493Y-93086110D01*
X211746050Y-92629517D01*
X212210336Y-93433684D01*
D12*
D13*
X212440543Y-107500918D02*
X211863193Y-107167585D01*
X212949029Y-107382100D02*
X212509011Y-106715662D01*
X212044725Y-107519828D01*
D12*
D13*
X199724285Y-114857619D02*
X200010000Y-114857619D01*
X200152857Y-114810000D01*
X200224285Y-114762380D01*
X200367142Y-114619523D01*
X200438571Y-114429047D01*
X200438571Y-114048095D01*
X200367142Y-113952857D01*
X200295714Y-113905238D01*
X200152857Y-113857619D01*
X199867142Y-113857619D01*
X199724285Y-113905238D01*
X199652857Y-113952857D01*
X199581428Y-114048095D01*
X199581428Y-114286190D01*
X199652857Y-114381428D01*
X199724285Y-114429047D01*
X199867142Y-114476666D01*
X200152857Y-114476666D01*
X200295714Y-114429047D01*
X200367142Y-114381428D01*
X200438571Y-114286190D01*
D12*
D13*
X187580506Y-107346901D02*
X187610695Y-107494429D01*
X187605170Y-107580097D01*
X187558406Y-107689575D01*
X187517166Y-107713385D01*
X187398974Y-107699145D01*
X187322020Y-107661095D01*
X187209352Y-107561187D01*
X187066495Y-107313751D01*
X187036306Y-107166224D01*
X187041831Y-107080555D01*
X187088595Y-106971077D01*
X187129834Y-106947268D01*
X187248027Y-106961508D01*
X187324981Y-106999557D01*
X187437649Y-107099465D01*
X187580506Y-107346901D01*
X187693174Y-107446810D01*
X187770127Y-107484859D01*
X187888320Y-107499099D01*
X188053277Y-107403861D01*
X188100042Y-107294383D01*
X188105567Y-107208714D01*
X188075377Y-107061187D01*
X187932520Y-106813751D01*
X187819852Y-106713843D01*
X187742899Y-106675793D01*
X187624706Y-106661553D01*
X187459749Y-106756791D01*
X187412984Y-106866269D01*
X187407459Y-106951938D01*
X187437649Y-107099465D01*
D12*
D13*
X187851092Y-93327286D02*
X187422520Y-94069593D01*
X187636806Y-93698440D02*
X186770781Y-93198440D01*
X186823070Y-93393586D01*
X186834120Y-93564923D01*
X186803931Y-93712450D01*
X187449352Y-92023119D02*
X187520781Y-91899401D01*
X187633449Y-91799493D01*
X187710402Y-91761444D01*
X187828595Y-91747204D01*
X188029267Y-91780583D01*
X188235463Y-91899630D01*
X188364706Y-92056728D01*
X188411470Y-92166206D01*
X188416995Y-92251874D01*
X188386806Y-92399401D01*
X188315377Y-92523119D01*
X188202710Y-92623028D01*
X188125756Y-92661077D01*
X188007563Y-92675317D01*
X187806892Y-92641938D01*
X187600695Y-92522890D01*
X187471452Y-92365793D01*
X187424688Y-92256315D01*
X187419163Y-92170647D01*
X187449352Y-92023119D01*
X207915000Y-86290818D02*
X207455551Y-86406606D01*
X207455551Y-86406606D02*
X207571339Y-86866055D01*
X208030788Y-86750266D02*
X207571339Y-86866054D01*
X207915000Y-86290818D02*
X208030788Y-86750267D01*
X213709182Y-92085000D02*
X213253394Y-91955551D01*
X213253394Y-91955551D02*
X213123945Y-92411339D01*
X213579734Y-92540788D02*
X213123946Y-92411339D01*
X213709182Y-92085000D02*
X213579733Y-92540788D01*
X215830000Y-100000000D02*
X215500000Y-99660000D01*
X215500000Y-99660000D02*
X215160000Y-99990000D01*
X215490000Y-100330000D02*
X215160000Y-99990000D01*
X215830000Y-100000000D02*
X215490000Y-100330000D01*
X213709182Y-107915000D02*
X213593394Y-107455551D01*
X213593394Y-107455551D02*
X213133945Y-107571339D01*
X213249734Y-108030788D02*
X213133946Y-107571339D01*
X213709182Y-107915000D02*
X213249733Y-108030788D01*
X207915000Y-113709182D02*
X208044449Y-113253394D01*
X208044449Y-113253394D02*
X207588661Y-113123945D01*
X207459212Y-113579734D02*
X207588661Y-113123946D01*
X207915000Y-113709182D02*
X207459212Y-113579733D01*
X200000000Y-115830000D02*
X200340000Y-115500000D01*
X200340000Y-115500000D02*
X200010000Y-115160000D01*
X199670000Y-115490000D02*
X200010000Y-115160000D01*
X200000000Y-115830000D02*
X199670000Y-115490000D01*
X192085000Y-113709182D02*
X192544449Y-113593394D01*
X192544449Y-113593394D02*
X192428661Y-113133945D01*
X191969212Y-113249734D02*
X192428661Y-113133946D01*
X192085000Y-113709182D02*
X191969212Y-113249733D01*
X186290818Y-107915000D02*
X186746606Y-108044449D01*
X186746606Y-108044449D02*
X186876055Y-107588661D01*
X186420266Y-107459212D02*
X186876054Y-107588661D01*
X186290818Y-107915000D02*
X186420267Y-107459212D01*
X184170000Y-100000000D02*
X184500000Y-100340000D01*
X184500000Y-100340000D02*
X184840000Y-100010000D01*
X184510000Y-99670000D02*
X184840000Y-100010000D01*
X184170000Y-100000000D02*
X184510000Y-99670000D01*
X186290818Y-92085000D02*
X186406606Y-92544449D01*
X186406606Y-92544449D02*
X186866055Y-92428661D01*
X186750266Y-91969212D02*
X186866054Y-92428661D01*
X186290818Y-92085000D02*
X186750267Y-91969212D01*
X192085000Y-86290818D02*
X191955551Y-86746606D01*
X191955551Y-86746606D02*
X192411339Y-86876055D01*
X192540788Y-86420266D02*
X192411339Y-86876054D01*
X192085000Y-86290818D02*
X192540788Y-86420267D01*
D10*
D11*
X206871340Y-88078489D02*
X207371340Y-87212464D01*
D12*
D13*
X199704285Y-86142380D02*
X198847142Y-86142380D01*
X199275714Y-86142380D02*
X199275714Y-85142380D01*
X199132857Y-85285238D01*
X198990000Y-85380476D01*
X198847142Y-85428095D01*
X200275714Y-85237619D02*
X200347142Y-85190000D01*
X200490000Y-85142380D01*
X200847142Y-85142380D01*
X200990000Y-85190000D01*
X201061428Y-85237619D01*
X201132857Y-85332857D01*
X201132857Y-85428095D01*
X201061428Y-85570952D01*
X200204285Y-86142380D01*
X201132857Y-86142380D01*
X200000000Y-84170000D02*
X199660000Y-84500000D01*
X200000000Y-84170000D02*
X200330000Y-84510000D01*
X199660000Y-84500000D02*
X199990000Y-84840000D01*
X200330000Y-84510000D02*
X199990000Y-84840000D01*
M02*
