%TF.GenerationSoftware,KiCad,Pcbnew,6.0.7-1.fc35*%
%TF.CreationDate,2022-11-04T20:07:57+01:00*%
%TF.ProjectId,Base,42617365-2e6b-4696-9361-645f70636258,rev?*%
%TF.SameCoordinates,Original*%
%TF.FileFunction,Legend,Top*%
%TF.FilePolarity,Positive*%
%FSLAX46Y46*%
G04 Gerber Fmt 4.6, Leading zero omitted, Abs format (unit mm)*
G04 Created by KiCad (PCBNEW 6.0.7-1.fc35) date 2022-11-04 20:07:57*
%MOMM*%
%LPD*%
G01*
G04 APERTURE LIST*
%ADD10C,0.150000*%
G04 APERTURE END LIST*
D10*
X138278452Y-88968428D02*
X138183214Y-88939857D01*
X138135595Y-88882714D01*
X138135595Y-88368428D01*
X138659404Y-88968428D02*
X138659404Y-88568428D01*
X138659404Y-88368428D02*
X138611785Y-88397000D01*
X138659404Y-88425571D01*
X138707023Y-88397000D01*
X138659404Y-88368428D01*
X138659404Y-88425571D01*
X139135595Y-88968428D02*
X139135595Y-88368428D01*
X139135595Y-88597000D02*
X139230833Y-88568428D01*
X139421309Y-88568428D01*
X139516547Y-88597000D01*
X139564166Y-88625571D01*
X139611785Y-88682714D01*
X139611785Y-88854142D01*
X139564166Y-88911285D01*
X139516547Y-88939857D01*
X139421309Y-88968428D01*
X139230833Y-88968428D01*
X139135595Y-88939857D01*
X140040357Y-88968428D02*
X140040357Y-88568428D01*
X140040357Y-88682714D02*
X140087976Y-88625571D01*
X140135595Y-88597000D01*
X140230833Y-88568428D01*
X140326071Y-88568428D01*
X141087976Y-88968428D02*
X141087976Y-88654142D01*
X141040357Y-88597000D01*
X140945119Y-88568428D01*
X140754642Y-88568428D01*
X140659404Y-88597000D01*
X141087976Y-88939857D02*
X140992738Y-88968428D01*
X140754642Y-88968428D01*
X140659404Y-88939857D01*
X140611785Y-88882714D01*
X140611785Y-88825571D01*
X140659404Y-88768428D01*
X140754642Y-88739857D01*
X140992738Y-88739857D01*
X141087976Y-88711285D01*
X142326071Y-88968428D02*
X142326071Y-88368428D01*
X142659404Y-88797000D01*
X142992738Y-88368428D01*
X142992738Y-88968428D01*
X143468928Y-88968428D02*
X143468928Y-88368428D01*
X143564166Y-88739857D02*
X143849880Y-88968428D01*
X143849880Y-88568428D02*
X143468928Y-88797000D01*
X144421309Y-88625571D02*
X144326071Y-88597000D01*
X144278452Y-88568428D01*
X144230833Y-88511285D01*
X144230833Y-88482714D01*
X144278452Y-88425571D01*
X144326071Y-88397000D01*
X144421309Y-88368428D01*
X144611785Y-88368428D01*
X144707023Y-88397000D01*
X144754642Y-88425571D01*
X144802261Y-88482714D01*
X144802261Y-88511285D01*
X144754642Y-88568428D01*
X144707023Y-88597000D01*
X144611785Y-88625571D01*
X144421309Y-88625571D01*
X144326071Y-88654142D01*
X144278452Y-88682714D01*
X144230833Y-88739857D01*
X144230833Y-88854142D01*
X144278452Y-88911285D01*
X144326071Y-88939857D01*
X144421309Y-88968428D01*
X144611785Y-88968428D01*
X144707023Y-88939857D01*
X144754642Y-88911285D01*
X144802261Y-88854142D01*
X144802261Y-88739857D01*
X144754642Y-88682714D01*
X144707023Y-88654142D01*
X144611785Y-88625571D01*
X145992738Y-88568428D02*
X145992738Y-88968428D01*
X145992738Y-88625571D02*
X146040357Y-88597000D01*
X146135595Y-88568428D01*
X146278452Y-88568428D01*
X146373690Y-88597000D01*
X146421309Y-88654142D01*
X146421309Y-88968428D01*
X147326071Y-88968428D02*
X147326071Y-88654142D01*
X147278452Y-88597000D01*
X147183214Y-88568428D01*
X146992738Y-88568428D01*
X146897500Y-88597000D01*
X147326071Y-88939857D02*
X147230833Y-88968428D01*
X146992738Y-88968428D01*
X146897500Y-88939857D01*
X146849880Y-88882714D01*
X146849880Y-88825571D01*
X146897500Y-88768428D01*
X146992738Y-88739857D01*
X147230833Y-88739857D01*
X147326071Y-88711285D01*
X147707023Y-88568428D02*
X147945119Y-88968428D01*
X148183214Y-88568428D01*
X148564166Y-88968428D02*
X148564166Y-88568428D01*
X148564166Y-88368428D02*
X148516547Y-88397000D01*
X148564166Y-88425571D01*
X148611785Y-88397000D01*
X148564166Y-88368428D01*
X148564166Y-88425571D01*
X149468928Y-88568428D02*
X149468928Y-89054142D01*
X149421309Y-89111285D01*
X149373690Y-89139857D01*
X149278452Y-89168428D01*
X149135595Y-89168428D01*
X149040357Y-89139857D01*
X149468928Y-88939857D02*
X149373690Y-88968428D01*
X149183214Y-88968428D01*
X149087976Y-88939857D01*
X149040357Y-88911285D01*
X148992738Y-88854142D01*
X148992738Y-88682714D01*
X149040357Y-88625571D01*
X149087976Y-88597000D01*
X149183214Y-88568428D01*
X149373690Y-88568428D01*
X149468928Y-88597000D01*
X150373690Y-88968428D02*
X150373690Y-88654142D01*
X150326071Y-88597000D01*
X150230833Y-88568428D01*
X150040357Y-88568428D01*
X149945119Y-88597000D01*
X150373690Y-88939857D02*
X150278452Y-88968428D01*
X150040357Y-88968428D01*
X149945119Y-88939857D01*
X149897500Y-88882714D01*
X149897500Y-88825571D01*
X149945119Y-88768428D01*
X150040357Y-88739857D01*
X150278452Y-88739857D01*
X150373690Y-88711285D01*
X150707023Y-88568428D02*
X151087976Y-88568428D01*
X150849880Y-88368428D02*
X150849880Y-88882714D01*
X150897500Y-88939857D01*
X150992738Y-88968428D01*
X151087976Y-88968428D01*
X151564166Y-88968428D02*
X151468928Y-88939857D01*
X151421309Y-88911285D01*
X151373690Y-88854142D01*
X151373690Y-88682714D01*
X151421309Y-88625571D01*
X151468928Y-88597000D01*
X151564166Y-88568428D01*
X151707023Y-88568428D01*
X151802261Y-88597000D01*
X151849880Y-88625571D01*
X151897500Y-88682714D01*
X151897500Y-88854142D01*
X151849880Y-88911285D01*
X151802261Y-88939857D01*
X151707023Y-88968428D01*
X151564166Y-88968428D01*
X152326071Y-88968428D02*
X152326071Y-88568428D01*
X152326071Y-88682714D02*
X152373690Y-88625571D01*
X152421309Y-88597000D01*
X152516547Y-88568428D01*
X152611785Y-88568428D01*
X138040357Y-89334428D02*
X138278452Y-89934428D01*
X138468928Y-89505857D01*
X138659404Y-89934428D01*
X138897500Y-89334428D01*
X139707023Y-89934428D02*
X139707023Y-89620142D01*
X139659404Y-89563000D01*
X139564166Y-89534428D01*
X139373690Y-89534428D01*
X139278452Y-89563000D01*
X139707023Y-89905857D02*
X139611785Y-89934428D01*
X139373690Y-89934428D01*
X139278452Y-89905857D01*
X139230833Y-89848714D01*
X139230833Y-89791571D01*
X139278452Y-89734428D01*
X139373690Y-89705857D01*
X139611785Y-89705857D01*
X139707023Y-89677285D01*
X140040357Y-89534428D02*
X140421309Y-89534428D01*
X140183214Y-89334428D02*
X140183214Y-89848714D01*
X140230833Y-89905857D01*
X140326071Y-89934428D01*
X140421309Y-89934428D01*
X141183214Y-89905857D02*
X141087976Y-89934428D01*
X140897500Y-89934428D01*
X140802261Y-89905857D01*
X140754642Y-89877285D01*
X140707023Y-89820142D01*
X140707023Y-89648714D01*
X140754642Y-89591571D01*
X140802261Y-89563000D01*
X140897500Y-89534428D01*
X141087976Y-89534428D01*
X141183214Y-89563000D01*
X141611785Y-89934428D02*
X141611785Y-89334428D01*
X142040357Y-89934428D02*
X142040357Y-89620142D01*
X141992738Y-89563000D01*
X141897500Y-89534428D01*
X141754642Y-89534428D01*
X141659404Y-89563000D01*
X141611785Y-89591571D01*
X143278452Y-89934428D02*
X143278452Y-89334428D01*
X143278452Y-89563000D02*
X143373690Y-89534428D01*
X143564166Y-89534428D01*
X143659404Y-89563000D01*
X143707023Y-89591571D01*
X143754642Y-89648714D01*
X143754642Y-89820142D01*
X143707023Y-89877285D01*
X143659404Y-89905857D01*
X143564166Y-89934428D01*
X143373690Y-89934428D01*
X143278452Y-89905857D01*
X144611785Y-89934428D02*
X144611785Y-89620142D01*
X144564166Y-89563000D01*
X144468928Y-89534428D01*
X144278452Y-89534428D01*
X144183214Y-89563000D01*
X144611785Y-89905857D02*
X144516547Y-89934428D01*
X144278452Y-89934428D01*
X144183214Y-89905857D01*
X144135595Y-89848714D01*
X144135595Y-89791571D01*
X144183214Y-89734428D01*
X144278452Y-89705857D01*
X144516547Y-89705857D01*
X144611785Y-89677285D01*
X145040357Y-89905857D02*
X145135595Y-89934428D01*
X145326071Y-89934428D01*
X145421309Y-89905857D01*
X145468928Y-89848714D01*
X145468928Y-89820142D01*
X145421309Y-89763000D01*
X145326071Y-89734428D01*
X145183214Y-89734428D01*
X145087976Y-89705857D01*
X145040357Y-89648714D01*
X145040357Y-89620142D01*
X145087976Y-89563000D01*
X145183214Y-89534428D01*
X145326071Y-89534428D01*
X145421309Y-89563000D01*
X146278452Y-89905857D02*
X146183214Y-89934428D01*
X145992738Y-89934428D01*
X145897500Y-89905857D01*
X145849880Y-89848714D01*
X145849880Y-89620142D01*
X145897500Y-89563000D01*
X145992738Y-89534428D01*
X146183214Y-89534428D01*
X146278452Y-89563000D01*
X146326071Y-89620142D01*
X146326071Y-89677285D01*
X145849880Y-89734428D01*
M02*
