%TF.GenerationSoftware,KiCad,Pcbnew,6.0.7-1.fc35*%
%TF.CreationDate,2022-12-09T22:30:18+01:00*%
%TF.ProjectId,Base,42617365-2e6b-4696-9361-645f70636258,rev?*%
%TF.SameCoordinates,Original*%
%TF.FileFunction,Legend,Top*%
%TF.FilePolarity,Positive*%
%FSLAX46Y46*%
G04 Gerber Fmt 4.6, Leading zero omitted, Abs format (unit mm)*
G04 Created by KiCad (PCBNEW 6.0.7-1.fc35) date 2022-12-09 22:30:18*
%MOMM*%
%LPD*%
G01*
G04 APERTURE LIST*
%ADD10C,0.150000*%
G04 APERTURE END LIST*
D10*
X138564166Y-89451428D02*
X138564166Y-89137142D01*
X138516547Y-89080000D01*
X138421309Y-89051428D01*
X138230833Y-89051428D01*
X138135595Y-89080000D01*
X138564166Y-89422857D02*
X138468928Y-89451428D01*
X138230833Y-89451428D01*
X138135595Y-89422857D01*
X138087976Y-89365714D01*
X138087976Y-89308571D01*
X138135595Y-89251428D01*
X138230833Y-89222857D01*
X138468928Y-89222857D01*
X138564166Y-89194285D01*
X138945119Y-89051428D02*
X139183214Y-89451428D01*
X139421309Y-89051428D01*
X139802261Y-89451428D02*
X139802261Y-89051428D01*
X139802261Y-88851428D02*
X139754642Y-88880000D01*
X139802261Y-88908571D01*
X139849880Y-88880000D01*
X139802261Y-88851428D01*
X139802261Y-88908571D01*
X140707023Y-89451428D02*
X140707023Y-89137142D01*
X140659404Y-89080000D01*
X140564166Y-89051428D01*
X140373690Y-89051428D01*
X140278452Y-89080000D01*
X140707023Y-89422857D02*
X140611785Y-89451428D01*
X140373690Y-89451428D01*
X140278452Y-89422857D01*
X140230833Y-89365714D01*
X140230833Y-89308571D01*
X140278452Y-89251428D01*
X140373690Y-89222857D01*
X140611785Y-89222857D01*
X140707023Y-89194285D01*
X141945119Y-89451428D02*
X141945119Y-88851428D01*
X141945119Y-89080000D02*
X142040357Y-89051428D01*
X142230833Y-89051428D01*
X142326071Y-89080000D01*
X142373690Y-89108571D01*
X142421309Y-89165714D01*
X142421309Y-89337142D01*
X142373690Y-89394285D01*
X142326071Y-89422857D01*
X142230833Y-89451428D01*
X142040357Y-89451428D01*
X141945119Y-89422857D01*
X143278452Y-89451428D02*
X143278452Y-89137142D01*
X143230833Y-89080000D01*
X143135595Y-89051428D01*
X142945119Y-89051428D01*
X142849880Y-89080000D01*
X143278452Y-89422857D02*
X143183214Y-89451428D01*
X142945119Y-89451428D01*
X142849880Y-89422857D01*
X142802261Y-89365714D01*
X142802261Y-89308571D01*
X142849880Y-89251428D01*
X142945119Y-89222857D01*
X143183214Y-89222857D01*
X143278452Y-89194285D01*
X143707023Y-89422857D02*
X143802261Y-89451428D01*
X143992738Y-89451428D01*
X144087976Y-89422857D01*
X144135595Y-89365714D01*
X144135595Y-89337142D01*
X144087976Y-89280000D01*
X143992738Y-89251428D01*
X143849880Y-89251428D01*
X143754642Y-89222857D01*
X143707023Y-89165714D01*
X143707023Y-89137142D01*
X143754642Y-89080000D01*
X143849880Y-89051428D01*
X143992738Y-89051428D01*
X144087976Y-89080000D01*
X144945119Y-89422857D02*
X144849880Y-89451428D01*
X144659404Y-89451428D01*
X144564166Y-89422857D01*
X144516547Y-89365714D01*
X144516547Y-89137142D01*
X144564166Y-89080000D01*
X144659404Y-89051428D01*
X144849880Y-89051428D01*
X144945119Y-89080000D01*
X144992738Y-89137142D01*
X144992738Y-89194285D01*
X144516547Y-89251428D01*
X146087976Y-89051428D02*
X146326071Y-89451428D01*
X146564166Y-89051428D01*
X147468928Y-89451428D02*
X146897500Y-89451428D01*
X147183214Y-89451428D02*
X147183214Y-88851428D01*
X147087976Y-88937142D01*
X146992738Y-88994285D01*
X146897500Y-89022857D01*
X147897500Y-89394285D02*
X147945119Y-89422857D01*
X147897500Y-89451428D01*
X147849880Y-89422857D01*
X147897500Y-89394285D01*
X147897500Y-89451428D01*
X148564166Y-88851428D02*
X148659404Y-88851428D01*
X148754642Y-88880000D01*
X148802261Y-88908571D01*
X148849880Y-88965714D01*
X148897500Y-89080000D01*
X148897500Y-89222857D01*
X148849880Y-89337142D01*
X148802261Y-89394285D01*
X148754642Y-89422857D01*
X148659404Y-89451428D01*
X148564166Y-89451428D01*
X148468928Y-89422857D01*
X148421309Y-89394285D01*
X148373690Y-89337142D01*
X148326071Y-89222857D01*
X148326071Y-89080000D01*
X148373690Y-88965714D01*
X148421309Y-88908571D01*
X148468928Y-88880000D01*
X148564166Y-88851428D01*
M02*
