%TF.GenerationSoftware,KiCad,Pcbnew,6.0.7-1.fc35*%
%TF.CreationDate,2022-12-09T22:30:18+01:00*%
%TF.ProjectId,Base,42617365-2e6b-4696-9361-645f70636258,rev?*%
%TF.SameCoordinates,Original*%
%TF.FileFunction,Profile,NP*%
%FSLAX46Y46*%
G04 Gerber Fmt 4.6, Leading zero omitted, Abs format (unit mm)*
G04 Created by KiCad (PCBNEW 6.0.7-1.fc35) date 2022-12-09 22:30:18*
%MOMM*%
%LPD*%
G01*
G04 APERTURE LIST*
%TA.AperFunction,Profile*%
%ADD10C,0.200000*%
%TD*%
G04 APERTURE END LIST*
D10*
X156281752Y-70665628D02*
X156281752Y-72665628D01*
X158367652Y-68666100D02*
X160671751Y-79690001D01*
X156261752Y-117814372D02*
X156261752Y-115814372D01*
X128171752Y-116840000D02*
X128171752Y-111180000D01*
X127668484Y-79693705D02*
G75*
G03*
X122680000Y-89545916I16500216J-14543595D01*
G01*
X127524958Y-98925916D02*
X122680000Y-98925916D01*
X122680000Y-89545916D02*
X127524958Y-89545916D01*
X126811752Y-101510000D02*
G75*
G03*
X126811752Y-101510000I-1200000J0D01*
G01*
X132081752Y-70665628D02*
X132081752Y-72665628D01*
X129586912Y-119814080D02*
X158756272Y-119814080D01*
X158691752Y-75820000D02*
G75*
G03*
X158691752Y-75820000I-1200000J0D01*
G01*
X132061752Y-117814372D02*
X156261752Y-117814372D01*
X160171752Y-116840000D02*
X160171752Y-111180000D01*
X132061752Y-117814372D02*
X132061752Y-115814372D01*
X129978072Y-68666100D02*
X158367652Y-68666100D01*
X156281752Y-70665628D02*
X132081752Y-70665628D01*
X128171752Y-111180000D02*
X127671753Y-108789999D01*
X132051752Y-75820000D02*
G75*
G03*
X132051752Y-75820000I-1200000J0D01*
G01*
X165161752Y-99610000D02*
G75*
G03*
X165161752Y-99610000I-1200000J0D01*
G01*
X122679982Y-98925920D02*
G75*
G03*
X127671753Y-108789999I21477918J4673920D01*
G01*
X158756272Y-119814080D02*
X160171752Y-116840000D01*
X132081752Y-72665628D02*
X156281752Y-72665628D01*
X129978072Y-68666100D02*
X127668486Y-79693707D01*
X127524958Y-89545916D02*
X127524958Y-98925916D01*
X160171752Y-111180000D02*
X160676712Y-108784371D01*
X160675019Y-108786293D02*
G75*
G03*
X160671751Y-79690001I-16503269J14546293D01*
G01*
X129586912Y-119814080D02*
X128171752Y-116840000D01*
X156261752Y-115814372D02*
X132061752Y-115814372D01*
M02*
