
CASCADE Topology V1, (c) Matra-Datavision
Locations 11
1
1.000000000000000 0.000000000000000 0.000000000000000 0.000000000000000 
0.000000000000000 1.000000000000000 0.000000000000000 0.000000000000000 
0.000000000000000 0.000000000000000 1.000000000000000 0.000000000000000 
1
1.000000000000000 0.000000000000000 0.000000000000000 0.000000000000000 
0.000000000000000 1.000000000000000 0.000000000000000 0.000000000000000 
0.000000000000000 0.000000000000000 1.000000000000000 0.000000000000000 
1
1.000000000000000 0.000000000000000 0.000000000000000 0.000000000000000 
0.000000000000000 1.000000000000000 0.000000000000000 0.000000000000000 
0.000000000000000 0.000000000000000 1.000000000000000 0.000000000000000 
2  1 1 2 1 3 -1 0
1
1.000000000000000 0.000000000000000 0.000000000000000 0.000000000000000 
0.000000000000000 1.000000000000000 0.000000000000000 0.000000000000000 
0.000000000000000 0.000000000000000 1.000000000000000 3.000000000000000 
2  1 1 2 1 3 -1 5 1 0
2  3 1 2 -1 1 -1 0
2  5 -1 3 1 2 -1 1 -1 0
2  3 -1 0
2  1 1 2 1 0
2  3 -1 5 1 0
Curve2ds 8
1 5.59606109703814703 0.00000000000000000 0.00000000000000000 -1.00000000000000000 
1 6.97030951732102544 0.00000000000000000 0.00000000000000000 -1.00000000000000000 
1 0.00000000000000000 0.00000000000000000 1.00000000000000000 0.00000000000000000 
1 0.00000000000000000 -3.00000000000000000 1.00000000000000000 0.00000000000000000 
1 5.68211155268183710 0.00000000000000000 0.00000000000000000 -1.00000000000000000 
1 6.88425906167733626 0.00000000000000000 0.00000000000000000 -1.00000000000000000 
1 0.00000000000000000 0.00000000000000000 1.00000000000000000 0.00000000000000000 
1 0.00000000000000000 -3.00000000000000000 1.00000000000000000 0.00000000000000000 
Curves 32
1 -8.00000000000000000 -16.00000000000001066 0.00000000000000000 0.00000000000000000 0.00000000000000000 1.00000000000000000 
1 16.99999999999999645 -16.00000000000001066 0.00000000000000000 0.00000000000000000 0.00000000000000000 1.00000000000000000 
1 -8.00000000000000000 -16.00000000000001066 0.00000000000000000 1.00000000000000000 0.00000000000000000 0.00000000000000000 
1 17.00000000000000355 15.99999999999999467 0.00000000000000000 0.00000000000000000 0.00000000000000000 1.00000000000000000 
2 -2.50000000000000000 -0.00000000000000204 0.00000000000000000 0.00000000000000000 0.00000000000000000 1.00000000000000000 1.00000000000000000 0.00000000000000000 0.00000000000000000 0.00000000000000000 1.00000000000000000 0.00000000000000000 25.22399651125887843
1 -8.00000000000000000 15.99999999999999467 0.00000000000000000 0.00000000000000000 0.00000000000000000 1.00000000000000000 
1 17.00000000000000355 15.99999999999999467 0.00000000000000000 -1.00000000000000000 0.00000000000000000 0.00000000000000000 
1 -8.00000000000000000 0.75000000000000000 0.00000000000000000 0.00000000000000000 0.00000000000000000 1.00000000000000000 
1 -8.00000000000000000 15.99999999999999467 0.00000000000000000 0.00000000000000000 -1.00000000000000000 0.00000000000000000 
1 -4.00000000000000000 0.75000000000000000 0.00000000000000000 0.00000000000000000 0.00000000000000000 1.00000000000000000 
1 -8.00000000000000000 0.75000000000000000 0.00000000000000000 1.00000000000000000 0.00000000000000000 0.00000000000000000 
1 -4.00000000000000000 12.00000000000000000 0.00000000000000000 0.00000000000000000 0.00000000000000000 1.00000000000000000 
1 -4.00000000000000000 0.75000000000000000 0.00000000000000000 0.00000000000000000 1.00000000000000000 0.00000000000000000 
1 4.00000000000000000 12.00000000000000000 0.00000000000000000 0.00000000000000000 0.00000000000000000 1.00000000000000000 
1 -4.00000000000000000 12.00000000000000000 0.00000000000000000 1.00000000000000000 0.00000000000000000 0.00000000000000000 
1 4.00000000000000000 -12.00000000000000000 0.00000000000000000 0.00000000000000000 0.00000000000000000 1.00000000000000000 
1 4.00000000000000000 12.00000000000000000 0.00000000000000000 0.00000000000000000 -1.00000000000000000 0.00000000000000000 
1 -4.00000000000000000 -12.00000000000000000 0.00000000000000000 0.00000000000000000 0.00000000000000000 1.00000000000000000 
1 4.00000000000000000 -12.00000000000000000 0.00000000000000000 -1.00000000000000000 0.00000000000000000 0.00000000000000000 
1 -4.00000000000000000 -0.75000000000000000 0.00000000000000000 0.00000000000000000 0.00000000000000000 1.00000000000000000 
1 -4.00000000000000000 -0.75000000000000000 0.00000000000000000 0.00000000000000000 -1.00000000000000000 0.00000000000000000 
1 -8.00000000000000000 -0.75000000000000000 0.00000000000000000 0.00000000000000000 0.00000000000000000 1.00000000000000000 
1 -8.00000000000000000 -0.75000000000000000 0.00000000000000000 1.00000000000000000 0.00000000000000000 0.00000000000000000 
1 -8.00000000000000000 -16.00000000000001066 0.00000000000000000 0.00000000000000000 1.00000000000000000 0.00000000000000000 
1 8.00000000000000000 12.00000000000000000 0.00000000000000000 0.00000000000000000 0.00000000000000000 1.00000000000000000 
1 8.00000000000000000 -12.00000000000000000 0.00000000000000000 0.00000000000000000 0.00000000000000000 1.00000000000000000 
1 8.00000000000000000 12.00000000000000000 0.00000000000000000 0.00000000000000000 -1.00000000000000000 0.00000000000000000 
1 15.00000000000000000 -12.00000000000000178 0.00000000000000000 0.00000000000000000 0.00000000000000000 1.00000000000000000 
1 8.00000000000000000 -12.00000000000000178 0.00000000000000000 1.00000000000000000 0.00000000000000000 0.00000000000000000 
1 14.99999999999999289 12.00000000000000533 0.00000000000000000 0.00000000000000000 0.00000000000000000 1.00000000000000000 
2 -2.50000000000000000 -0.00000000000000204 0.00000000000000000 0.00000000000000000 0.00000000000000000 1.00000000000000000 1.00000000000000000 0.00000000000000000 0.00000000000000000 0.00000000000000000 1.00000000000000000 0.00000000000000000 21.21909517392294475
1 8.00000000000000000 12.00000000000000000 0.00000000000000000 1.00000000000000000 0.00000000000000076 0.00000000000000000 
Polygon3D 0
PolygonOnTriangulations 0
Surfaces 17
1 -8.00000000000000000 -16.00000000000001066 0.00000000000000000 0.00000000000000000 1.00000000000000000 0.00000000000000000 1.00000000000000000 0.00000000000000000 0.00000000000000000 0.00000000000000000 0.00000000000000000 -1.00000000000000000 
2 -2.50000000000000000 -0.00000000000000204 0.00000000000000000 -0.00000000000000000 -0.00000000000000000 -1.00000000000000000 1.00000000000000000 0.00000000000000000 0.00000000000000000 0.00000000000000000 1.00000000000000000 0.00000000000000000 25.22399651125887843
1 17.00000000000000355 15.99999999999999467 0.00000000000000000 0.00000000000000000 -1.00000000000000000 0.00000000000000000 -1.00000000000000000 0.00000000000000000 0.00000000000000000 -0.00000000000000000 -0.00000000000000000 -1.00000000000000000 
1 -8.00000000000000000 15.99999999999999467 0.00000000000000000 1.00000000000000000 0.00000000000000000 -0.00000000000000000 0.00000000000000000 -1.00000000000000000 0.00000000000000000 0.00000000000000000 -0.00000000000000000 -1.00000000000000000 
1 -8.00000000000000000 0.75000000000000000 0.00000000000000000 0.00000000000000000 1.00000000000000000 0.00000000000000000 1.00000000000000000 0.00000000000000000 0.00000000000000000 0.00000000000000000 0.00000000000000000 -1.00000000000000000 
1 -4.00000000000000000 0.75000000000000000 0.00000000000000000 -1.00000000000000000 0.00000000000000000 0.00000000000000000 0.00000000000000000 1.00000000000000000 0.00000000000000000 0.00000000000000000 0.00000000000000000 -1.00000000000000000 
1 -4.00000000000000000 12.00000000000000000 0.00000000000000000 0.00000000000000000 1.00000000000000000 0.00000000000000000 1.00000000000000000 0.00000000000000000 0.00000000000000000 0.00000000000000000 0.00000000000000000 -1.00000000000000000 
1 4.00000000000000000 12.00000000000000000 0.00000000000000000 1.00000000000000000 0.00000000000000000 -0.00000000000000000 0.00000000000000000 -1.00000000000000000 0.00000000000000000 0.00000000000000000 -0.00000000000000000 -1.00000000000000000 
1 4.00000000000000000 -12.00000000000000000 0.00000000000000000 0.00000000000000000 -1.00000000000000000 0.00000000000000000 -1.00000000000000000 0.00000000000000000 0.00000000000000000 -0.00000000000000000 -0.00000000000000000 -1.00000000000000000 
1 -4.00000000000000000 -0.75000000000000000 0.00000000000000000 1.00000000000000000 0.00000000000000000 -0.00000000000000000 0.00000000000000000 -1.00000000000000000 0.00000000000000000 0.00000000000000000 -0.00000000000000000 -1.00000000000000000 
1 -8.00000000000000000 -0.75000000000000000 0.00000000000000000 0.00000000000000000 1.00000000000000000 0.00000000000000000 1.00000000000000000 0.00000000000000000 0.00000000000000000 0.00000000000000000 0.00000000000000000 -1.00000000000000000 
1 -8.00000000000000000 -16.00000000000001066 0.00000000000000000 -1.00000000000000000 0.00000000000000000 0.00000000000000000 0.00000000000000000 1.00000000000000000 0.00000000000000000 0.00000000000000000 0.00000000000000000 -1.00000000000000000 
1 8.00000000000000000 12.00000000000000000 0.00000000000000000 1.00000000000000000 0.00000000000000000 -0.00000000000000000 0.00000000000000000 -1.00000000000000000 0.00000000000000000 0.00000000000000000 -0.00000000000000000 -1.00000000000000000 
1 8.00000000000000000 -12.00000000000000178 0.00000000000000000 0.00000000000000000 1.00000000000000000 0.00000000000000000 1.00000000000000000 0.00000000000000000 0.00000000000000000 0.00000000000000000 0.00000000000000000 -1.00000000000000000 
2 -2.50000000000000000 -0.00000000000000204 0.00000000000000000 -0.00000000000000000 -0.00000000000000000 -1.00000000000000000 1.00000000000000000 0.00000000000000000 0.00000000000000000 0.00000000000000000 1.00000000000000000 0.00000000000000000 21.21909517392294475
1 8.00000000000000000 12.00000000000000000 0.00000000000000000 -0.00000000000000076 1.00000000000000000 0.00000000000000000 1.00000000000000000 0.00000000000000076 0.00000000000000000 0.00000000000000000 0.00000000000000000 -1.00000000000000000 
1 5.74149495738285864 -0.00000000000000357 0.00000000000000000 0.00000000000000000 0.00000000000000000 1.00000000000000000 1.00000000000000000 0.00000000000000000 -0.00000000000000000 -0.00000000000000000 1.00000000000000000 0.00000000000000000 
Triangulations 0

TShapes 85
Ve
0.000000100000000
-8.000000000000000 -16.000000000000011 0.000000000000000
0 0

0101101
*
Ed
 0.000000100000000 1 1 0
1  1 0 0.000000000000000 3.000000000000000
0

0101000
+85 4 -85 6 *
Ve
0.000000100000000
16.999999999999996 -16.000000000000011 0.000000000000000
0 0

0101101
*
Ed
 0.000000100000000 1 1 0
1  2 0 0.000000000000000 3.000000000000000
2  1 2 0 0.000000000000000 3.000000000000000
0

0101000
+83 4 -83 6 *
Ed
 0.000000100000000 1 1 0
1  3 0 0.000000000000000 24.999999999999996
0

0101000
+85 0 -83 0 *
Wi

0101100
+84 0 -82 0 -81 4 +81 6 *
Fa
0  0.000000100000000 1 0

0101000
+80 0 *
Ve
0.000000100000000
17.000000000000004 15.999999999999995 0.000000000000000
0 0

0101101
*
Ed
 0.000000100000000 1 1 0
1  4 0 0.000000000000000 3.000000000000000
2  2 2 0 0.000000000000000 3.000000000000000
0

0101000
+78 4 -78 6 *
Ed
 0.000000100000000 1 1 0
1  5 0 5.596061097038147 6.970309517321025
2  3 2 7 5.596061097038147 6.970309517321025
2  4 2 8 5.596061097038147 6.970309517321025
0

0101000
+83 0 -78 0 *
Wi

0101100
+82 0 -77 0 -76 4 +76 6 *
Fa
0  0.000000100000000 2 0

0101000
+75 0 *
Ve
0.000000100000000
-8.000000000000000 15.999999999999995 0.000000000000000
0 0

0101101
*
Ed
 0.000000100000000 1 1 0
1  6 0 0.000000000000000 3.000000000000000
0

0101000
+73 4 -73 6 *
Ed
 0.000000100000000 1 1 0
1  7 0 0.000000000000000 25.000000000000004
0

0101000
+78 0 -73 0 *
Wi

0101100
+77 0 -72 0 -71 4 +71 6 *
Fa
0  0.000000100000000 3 0

0101000
+70 0 *
Ve
0.000000100000000
-8.000000000000000 0.750000000000000 0.000000000000000
0 0

0101101
*
Ed
 0.000000100000000 1 1 0
1  8 0 0.000000000000000 3.000000000000000
0

0101000
+68 4 -68 6 *
Ed
 0.000000100000000 1 1 0
1  9 0 0.000000000000000 15.249999999999995
0

0101000
+73 0 -68 0 *
Wi

0101100
+72 0 -67 0 -66 4 +66 6 *
Fa
0  0.000000100000000 4 0

0101000
+65 0 *
Ve
0.000000100000000
-4.000000000000000 0.750000000000000 0.000000000000000
0 0

0101101
*
Ed
 0.000000100000000 1 1 0
1  10 0 0.000000000000000 3.000000000000000
0

0101000
+63 4 -63 6 *
Ed
 0.000000100000000 1 1 0
1  11 0 0.000000000000000 4.000000000000000
0

0101000
+68 0 -63 0 *
Wi

0101100
+67 0 -62 0 -61 4 +61 6 *
Fa
0  0.000000100000000 5 0

0101000
+60 0 *
Ve
0.000000100000000
-4.000000000000000 12.000000000000000 0.000000000000000
0 0

0101101
*
Ed
 0.000000100000000 1 1 0
1  12 0 0.000000000000000 3.000000000000000
0

0101000
+58 4 -58 6 *
Ed
 0.000000100000000 1 1 0
1  13 0 0.000000000000000 11.250000000000000
0

0101000
+63 0 -58 0 *
Wi

0101100
+62 0 -57 0 -56 4 +56 6 *
Fa
0  0.000000100000000 6 0

0101000
+55 0 *
Ve
0.000000100000000
4.000000000000000 12.000000000000000 0.000000000000000
0 0

0101101
*
Ed
 0.000000100000000 1 1 0
1  14 0 0.000000000000000 3.000000000000000
0

0101000
+53 4 -53 6 *
Ed
 0.000000100000000 1 1 0
1  15 0 0.000000000000000 8.000000000000000
0

0101000
+58 0 -53 0 *
Wi

0101100
+57 0 -52 0 -51 4 +51 6 *
Fa
0  0.000000100000000 7 0

0101000
+50 0 *
Ve
0.000000100000000
4.000000000000000 -12.000000000000000 0.000000000000000
0 0

0101101
*
Ed
 0.000000100000000 1 1 0
1  16 0 0.000000000000000 3.000000000000000
0

0101000
+48 4 -48 6 *
Ed
 0.000000100000000 1 1 0
1  17 0 0.000000000000000 24.000000000000000
0

0101000
+53 0 -48 0 *
Wi

0101100
+52 0 -47 0 -46 4 +46 6 *
Fa
0  0.000000100000000 8 0

0101000
+45 0 *
Ve
0.000000100000000
-4.000000000000000 -12.000000000000000 0.000000000000000
0 0

0101101
*
Ed
 0.000000100000000 1 1 0
1  18 0 0.000000000000000 3.000000000000000
0

0101000
+43 4 -43 6 *
Ed
 0.000000100000000 1 1 0
1  19 0 0.000000000000000 8.000000000000000
0

0101000
+48 0 -43 0 *
Wi

0101100
+47 0 -42 0 -41 4 +41 6 *
Fa
0  0.000000100000000 9 0

0101000
+40 0 *
Ve
0.000000100000000
-4.000000000000000 -0.750000000000000 0.000000000000000
0 0

0101101
*
Ed
 0.000000100000000 1 1 0
1  20 0 0.000000000000000 3.000000000000000
0

0101000
+38 4 -38 6 *
Ed
 0.000000100000000 1 1 0
1  21 0 0.000000000000000 11.250000000000000
0

0101000
+38 0 -43 0 *
Wi

0101100
+37 0 -42 0 -36 4 +36 6 *
Fa
0  0.000000100000000 10 0

0101000
+35 0 *
Ve
0.000000100000000
-8.000000000000000 -0.750000000000000 0.000000000000000
0 0

0101101
*
Ed
 0.000000100000000 1 1 0
1  22 0 0.000000000000000 3.000000000000000
0

0101000
+33 4 -33 6 *
Ed
 0.000000100000000 1 1 0
1  23 0 0.000000000000000 4.000000000000000
0

0101000
+33 0 -38 0 *
Wi

0101100
+32 0 -37 0 -31 4 +31 6 *
Fa
0  0.000000100000000 11 0

0101000
+30 0 *
Ed
 0.000000100000000 1 1 0
1  24 0 0.000000000000000 15.250000000000011
0

0101000
+85 0 -33 0 *
Wi

0101100
+84 0 -32 0 -28 4 +28 6 *
Fa
0  0.000000100000000 12 0

0101000
+27 0 *
Ve
0.000000100000000
8.000000000000000 12.000000000000000 0.000000000000000
0 0

0101101
*
Ed
 0.000000100000000 1 1 0
1  25 0 0.000000000000000 3.000000000000000
0

0101000
+25 4 -25 6 *
Ve
0.000000100000001
8.000000000000000 -12.000000000000000 0.000000000000000
0 0

0101101
*
Ed
 0.000000100000001 1 1 0
1  26 0 0.000000000000000 3.000000000000000
0

0101000
+23 4 -23 6 *
Ed
 0.000000100000000 1 1 0
1  27 0 0.000000000000000 24.000000000000000
0

0101000
+25 0 -23 0 *
Wi

0101100
+24 0 -22 0 -21 4 +21 6 *
Fa
0  0.000000100000000 13 0

0101000
+20 0 *
Ve
0.000000100000000
15.000000000000000 -12.000000000000002 0.000000000000000
0 0

0101101
*
Ed
 0.000000100000000 1 1 0
1  28 0 0.000000000000000 3.000000000000000
2  5 15 0 0.000000000000000 3.000000000000000
0

0101000
+18 4 -18 6 *
Ed
 0.000000100000000 1 1 0
1  29 0 0.000000000000000 7.000000000000000
0

0101000
+23 0 -18 0 *
Wi

0101100
+22 0 -17 0 -16 4 +16 6 *
Fa
0  0.000000100000000 14 0

0101000
+15 0 *
Ve
0.000000100000000
14.999999999999993 12.000000000000005 0.000000000000000
0 0

0101101
*
Ed
 0.000000100000000 1 1 0
1  30 0 0.000000000000000 3.000000000000000
2  6 15 0 0.000000000000000 3.000000000000000
0

0101000
+13 4 -13 6 *
Ed
 0.000000100000000 1 1 0
1  31 0 5.682111552681837 6.884259061677336
2  7 15 7 5.682111552681837 6.884259061677336
2  8 15 8 5.682111552681837 6.884259061677336
0

0101000
+18 0 -13 0 *
Wi

0101100
+17 0 -12 0 -11 4 +11 6 *
Fa
0  0.000000100000000 15 0

0101000
+10 0 *
Ed
 0.000000100000000 1 1 0
1  32 0 0.000000000000000 6.999999999999993
0

0101000
+25 0 -13 0 *
Wi

0101100
+24 0 -12 0 -8 4 +8 6 *
Fa
0  0.000000100000000 16 0

0101000
+7 0 *
Wi

0101100
+81 0 +76 0 +71 0 +66 0 +61 0 +56 0 +51 0 +46 0 +41 0 -36 0 
-31 0 -28 0 *
Wi

0101100
+21 0 +16 0 +11 0 -8 0 *
Fa
0  0.000000100000000 17 0

0101000
+5 10 -4 10 *
Sh

0101100
+79 0 +74 0 +69 0 +64 0 +59 0 +54 0 +49 0 +44 0 +39 0 -34 0 
-29 0 -26 0 -19 0 -14 0 -9 0 +6 0 +3 9 -3 11 *
So

1100000
-2 0 *

+1 0 