
CASCADE Topology V1, (c) Matra-Datavision
Locations 54
1
1.000000000000000 0.000000000000000 0.000000000000000 0.000000000000000 
0.000000000000000 1.000000000000000 0.000000000000000 0.000000000000000 
0.000000000000000 0.000000000000000 1.000000000000000 0.000000000000000 
1
1.000000000000000 0.000000000000000 0.000000000000000 0.000000000000000 
0.000000000000000 1.000000000000000 0.000000000000000 0.000000000000000 
0.000000000000000 0.000000000000000 1.000000000000000 0.000000000000000 
1
1.000000000000000 0.000000000000000 0.000000000000000 0.000000000000000 
0.000000000000000 1.000000000000000 0.000000000000000 0.000000000000000 
0.000000000000000 0.000000000000000 1.000000000000000 0.000000000000000 
2  1 1 2 1 3 -1 0
1
1.000000000000000 0.000000000000000 0.000000000000000 0.000000000000000 
0.000000000000000 1.000000000000000 0.000000000000000 0.000000000000000 
0.000000000000000 0.000000000000000 1.000000000000000 6.000000000000000 
2  1 1 2 1 3 -1 5 1 0
1
1.000000000000000 0.000000000000000 0.000000000000000 0.000000000000000 
0.000000000000000 1.000000000000000 0.000000000000000 0.000000000000000 
0.000000000000000 0.000000000000000 1.000000000000000 0.000000000000000 
1
1.000000000000000 0.000000000000000 0.000000000000000 0.000000000000000 
0.000000000000000 1.000000000000000 0.000000000000000 0.000000000000000 
0.000000000000000 0.000000000000000 1.000000000000000 0.000000000000000 
1
1.000000000000000 0.000000000000000 0.000000000000000 0.000000000000000 
0.000000000000000 1.000000000000000 0.000000000000000 0.000000000000000 
0.000000000000000 0.000000000000000 1.000000000000000 0.000000000000000 
2  7 1 8 -1 9 -1 0
1
1.000000000000000 0.000000000000000 0.000000000000000 0.000000000000000 
0.000000000000000 1.000000000000000 0.000000000000000 0.000000000000000 
0.000000000000000 0.000000000000000 1.000000000000000 6.000000000000000 
2  11 -1 7 1 8 -1 9 -1 0
2  8 -1 9 -1 0
1
1.000000000000000 0.000000000000000 0.000000000000000 0.000000000000000 
0.000000000000000 1.000000000000000 0.000000000000000 0.000000000000000 
0.000000000000000 0.000000000000000 1.000000000000000 0.000000000000000 
1
1.000000000000000 0.000000000000000 0.000000000000000 0.000000000000000 
0.000000000000000 1.000000000000000 0.000000000000000 0.000000000000000 
0.000000000000000 0.000000000000000 1.000000000000000 0.000000000000000 
2  14 -1 15 1 8 -1 9 -1 0
1
1.000000000000000 0.000000000000000 0.000000000000000 0.000000000000000 
0.000000000000000 1.000000000000000 0.000000000000000 0.000000000000000 
0.000000000000000 0.000000000000000 1.000000000000000 0.000000000000000 
1
1.000000000000000 0.000000000000000 0.000000000000000 0.000000000000000 
0.000000000000000 1.000000000000000 0.000000000000000 0.000000000000000 
0.000000000000000 0.000000000000000 1.000000000000000 0.000000000000000 
1
1.000000000000000 0.000000000000000 0.000000000000000 0.000000000000000 
0.000000000000000 1.000000000000000 0.000000000000000 0.000000000000000 
0.000000000000000 0.000000000000000 1.000000000000000 0.000000000000000 
2  17 1 18 -1 19 -1 0
1
1.000000000000000 0.000000000000000 0.000000000000000 0.000000000000000 
0.000000000000000 1.000000000000000 0.000000000000000 0.000000000000000 
0.000000000000000 0.000000000000000 1.000000000000000 6.000000000000000 
2  21 -1 17 1 18 -1 19 -1 0
2  18 -1 19 -1 0
1
1.000000000000000 0.000000000000000 0.000000000000000 0.000000000000000 
0.000000000000000 1.000000000000000 0.000000000000000 0.000000000000000 
0.000000000000000 0.000000000000000 1.000000000000000 0.000000000000000 
1
1.000000000000000 0.000000000000000 0.000000000000000 0.000000000000000 
0.000000000000000 1.000000000000000 0.000000000000000 0.000000000000000 
0.000000000000000 0.000000000000000 1.000000000000000 0.000000000000000 
2  24 -1 25 1 18 -1 19 -1 0
1
1.000000000000000 0.000000000000000 0.000000000000000 0.000000000000000 
0.000000000000000 1.000000000000000 0.000000000000000 0.000000000000000 
0.000000000000000 0.000000000000000 1.000000000000000 0.000000000000000 
1
1.000000000000000 0.000000000000000 0.000000000000000 0.000000000000000 
0.000000000000000 1.000000000000000 0.000000000000000 0.000000000000000 
0.000000000000000 0.000000000000000 1.000000000000000 0.000000000000000 
1
1.000000000000000 0.000000000000000 0.000000000000000 0.000000000000000 
0.000000000000000 1.000000000000000 0.000000000000000 0.000000000000000 
0.000000000000000 0.000000000000000 1.000000000000000 0.000000000000000 
2  27 1 28 -1 29 -1 0
1
1.000000000000000 0.000000000000000 0.000000000000000 0.000000000000000 
0.000000000000000 1.000000000000000 0.000000000000000 0.000000000000000 
0.000000000000000 0.000000000000000 1.000000000000000 6.000000000000000 
2  31 -1 27 1 28 -1 29 -1 0
2  28 -1 29 -1 0
1
1.000000000000000 0.000000000000000 0.000000000000000 0.000000000000000 
0.000000000000000 1.000000000000000 0.000000000000000 0.000000000000000 
0.000000000000000 0.000000000000000 1.000000000000000 0.000000000000000 
1
1.000000000000000 0.000000000000000 0.000000000000000 0.000000000000000 
0.000000000000000 1.000000000000000 0.000000000000000 0.000000000000000 
0.000000000000000 0.000000000000000 1.000000000000000 0.000000000000000 
2  34 -1 35 1 28 -1 29 -1 0
1
1.000000000000000 0.000000000000000 0.000000000000000 0.000000000000000 
0.000000000000000 1.000000000000000 0.000000000000000 0.000000000000000 
0.000000000000000 0.000000000000000 1.000000000000000 0.000000000000000 
1
1.000000000000000 0.000000000000000 0.000000000000000 0.000000000000000 
0.000000000000000 1.000000000000000 0.000000000000000 0.000000000000000 
0.000000000000000 0.000000000000000 1.000000000000000 0.000000000000000 
2  37 1 38 -1 1 -1 0
1
1.000000000000000 0.000000000000000 0.000000000000000 0.000000000000000 
0.000000000000000 1.000000000000000 0.000000000000000 0.000000000000000 
0.000000000000000 0.000000000000000 1.000000000000000 6.000000000000000 
2  40 -1 37 1 38 -1 1 -1 0
2  38 -1 1 -1 0
1
1.000000000000000 0.000000000000000 0.000000000000000 0.000000000000000 
0.000000000000000 1.000000000000000 0.000000000000000 0.000000000000000 
0.000000000000000 0.000000000000000 1.000000000000000 0.000000000000000 
1
1.000000000000000 0.000000000000000 0.000000000000000 0.000000000000000 
0.000000000000000 1.000000000000000 0.000000000000000 0.000000000000000 
0.000000000000000 0.000000000000000 1.000000000000000 0.000000000000000 
2  43 -1 44 1 38 -1 1 -1 0
2  3 1 2 -1 1 -1 0
2  5 -1 3 1 2 -1 1 -1 0
2  2 -1 1 -1 0
1
1.000000000000000 0.000000000000000 0.000000000000000 0.000000000000000 
0.000000000000000 1.000000000000000 0.000000000000000 0.000000000000000 
0.000000000000000 0.000000000000000 1.000000000000000 0.000000000000000 
1
1.000000000000000 0.000000000000000 0.000000000000000 0.000000000000000 
0.000000000000000 1.000000000000000 0.000000000000000 0.000000000000000 
0.000000000000000 0.000000000000000 1.000000000000000 0.000000000000000 
2  49 -1 50 1 2 -1 1 -1 0
2  3 -1 0
2  1 1 2 1 0
2  3 -1 5 1 0
Curve2ds 176
1 0.85650177216265000 0.00000000000000000 0.00000000000000000 -1.00000000000000000 
1 0.00000000000000000 0.00000000000000000 0.00000000000000000 -1.00000000000000000 
1 2.29184912880837199 0.00000000000000000 0.00000000000000000 -1.00000000000000000 
1 0.00000000000000000 0.00000000000000000 0.00000000000000000 -1.00000000000000000 
1 0.00000000000000000 0.00000000000000000 1.00000000000000000 0.00000000000000000 
1 0.00000000000000000 -6.00000000000000000 1.00000000000000000 0.00000000000000000 
2 -1.37132936503310110 -0.00000000000000045 1.00000000000000000 0.00000000000000000 -0.00000000000000000 1.00000000000000000 22.50000000000000000
2 -1.86187970448317830 0.00000000000000050 1.00000000000000000 0.00000000000000000 -0.00000000000000000 1.00000000000000000 22.50000000000000000
1 0.00000000000000000 0.00000000000000000 1.00000000000000000 0.00000000000000000 
1 0.00000000000000000 -6.00000000000000000 1.00000000000000000 0.00000000000000000 
2 -1.37132936503310110 -0.00000000000000116 1.00000000000000000 0.00000000000000000 -0.00000000000000000 1.00000000000000000 22.50000000000000000
2 -1.52165485962279812 -0.00000000000680369 1.00000000000000000 0.00000000000000000 -0.00000000000000000 1.00000000000000000 22.50000000000000000
1 0.00000000000000000 0.00000000000000000 1.00000000000000000 0.00000000000000000 
1 0.00000000000000000 -6.00000000000000000 1.00000000000000000 0.00000000000000000 
2 -1.37132936503310110 -0.00000000000000116 1.00000000000000000 0.00000000000000000 -0.00000000000000000 1.00000000000000000 22.50000000000000000
2 -1.52165485962269420 -0.00000000000813908 1.00000000000000000 0.00000000000000000 -0.00000000000000000 1.00000000000000000 22.50000000000000000
1 0.00000000000000000 0.00000000000000000 1.00000000000000000 0.00000000000000000 
1 0.00000000000000000 -6.00000000000000000 1.00000000000000000 0.00000000000000000 
2 -1.37132936503310110 -0.00000000000000116 1.00000000000000000 0.00000000000000000 -0.00000000000000000 1.00000000000000000 22.50000000000000000
2 -4.78420107595529132 -0.00000000000011776 1.00000000000000000 0.00000000000000000 -0.00000000000000000 1.00000000000000000 22.50000000000000000
1 0.00000000000000000 0.00000000000000000 1.00000000000000000 0.00000000000000000 
1 0.00000000000000000 -6.00000000000000000 1.00000000000000000 0.00000000000000000 
2 -1.37132936503310110 -0.00000000000000116 1.00000000000000000 0.00000000000000000 -0.00000000000000000 1.00000000000000000 22.50000000000000000
2 -1.52165485961307145 0.00000000000117248 1.00000000000000000 0.00000000000000000 -0.00000000000000000 1.00000000000000000 22.50000000000000000
1 6.49999999999999734 0.00000000000000000 0.00000000000000000 -1.00000000000000000 
1 0.00000000000000000 0.00000000000000000 0.00000000000000000 -1.00000000000000000 
1 -16.22528506713481988 16.89999999999999503 -0.97819420634424337 -0.20769230769230693 
1 0.00000000000000000 0.00000000000000000 1.00000000000000000 0.00000000000000000 
1 0.00000000000000000 -6.00000000000000000 1.00000000000000000 0.00000000000000000 
1 -16.71583540658489753 16.89999999999999503 -0.97819420634424337 -0.20769230769230693 
1 -16.22528506713481988 16.89999999999999503 -0.97819420634424337 -0.20769230769230693 
1 0.00000000000000000 0.00000000000000000 1.00000000000000000 0.00000000000000000 
1 0.00000000000000000 -6.00000000000000000 1.00000000000000000 0.00000000000000000 
1 -16.37561056172451757 16.89999999999319158 -0.97819420634424337 -0.20769230769230693 
1 -16.22528506713481988 16.89999999999999503 -0.97819420634424337 -0.20769230769230693 
1 0.00000000000000000 0.00000000000000000 1.00000000000000000 0.00000000000000000 
1 0.00000000000000000 -6.00000000000000000 1.00000000000000000 0.00000000000000000 
1 -16.37561056172441454 16.89999999999185576 -0.97819420634424337 -0.20769230769230693 
1 -16.22528506713481988 16.89999999999999503 -0.97819420634424337 -0.20769230769230693 
1 0.00000000000000000 0.00000000000000000 1.00000000000000000 0.00000000000000000 
1 0.00000000000000000 -6.00000000000000000 1.00000000000000000 0.00000000000000000 
1 -19.63815677805700943 16.89999999999987779 -0.97819420634424337 -0.20769230769230693 
1 -16.22528506713481988 16.89999999999999503 -0.97819420634424337 -0.20769230769230693 
1 0.00000000000000000 0.00000000000000000 1.00000000000000000 0.00000000000000000 
1 0.00000000000000000 -6.00000000000000000 1.00000000000000000 0.00000000000000000 
1 -16.37561056171479024 16.90000000000116742 -0.97819420634424337 -0.20769230769230693 
1 0.00000000000000000 0.00000000000000000 0.00000000000000000 -1.00000000000000000 
1 31.10000000000000142 0.00000000000000000 0.00000000000000000 -1.00000000000000000 
1 -22.58354740837240016 15.55000000000000071 0.00000000000000000 -1.00000000000000000 
1 0.00000000000000000 0.00000000000000000 1.00000000000000000 0.00000000000000000 
1 0.00000000000000000 -6.00000000000000000 1.00000000000000000 0.00000000000000000 
1 -23.07409774782247780 15.55000000000000071 0.00000000000000000 -1.00000000000000000 
1 -22.58354740837240016 15.54999999999999893 0.00000000000000000 -1.00000000000000000 
1 0.00000000000000000 0.00000000000000000 1.00000000000000000 0.00000000000000000 
1 0.00000000000000000 -6.00000000000000000 1.00000000000000000 0.00000000000000000 
1 -22.73387290296209784 15.54999999999319726 0.00000000000000000 -1.00000000000000000 
1 -22.58354740837240016 15.54999999999999893 0.00000000000000000 -1.00000000000000000 
1 0.00000000000000000 0.00000000000000000 1.00000000000000000 0.00000000000000000 
1 0.00000000000000000 -6.00000000000000000 1.00000000000000000 0.00000000000000000 
1 -22.73387290296199126 15.54999999999186144 0.00000000000000000 -1.00000000000000000 
1 -22.58354740837240016 15.54999999999999893 0.00000000000000000 -1.00000000000000000 
1 0.00000000000000000 0.00000000000000000 1.00000000000000000 0.00000000000000000 
1 0.00000000000000000 -6.00000000000000000 1.00000000000000000 0.00000000000000000 
1 -25.99641911929458971 15.54999999999988347 0.00000000000000000 -1.00000000000000000 
1 -22.58354740837240016 15.54999999999999893 0.00000000000000000 -1.00000000000000000 
1 0.00000000000000000 0.00000000000000000 1.00000000000000000 0.00000000000000000 
1 0.00000000000000000 -6.00000000000000000 1.00000000000000000 0.00000000000000000 
1 -22.73387290295237051 15.55000000000117311 0.00000000000000000 -1.00000000000000000 
1 3.99133617837121601 0.00000000000000000 0.00000000000000000 -1.00000000000000000 
1 6.50000000000000977 0.00000000000000000 0.00000000000000000 -1.00000000000000000 
1 -22.58354740837240016 -15.55000000000000071 0.97819420634424314 -0.20769230769230818 
1 0.00000000000000000 0.00000000000000000 1.00000000000000000 0.00000000000000000 
1 0.00000000000000000 -6.00000000000000000 1.00000000000000000 0.00000000000000000 
1 -23.07409774782247780 -15.55000000000000071 0.97819420634424314 -0.20769230769230818 
1 -22.58354740837240016 -15.55000000000000249 0.97819420634424314 -0.20769230769230818 
1 0.00000000000000000 0.00000000000000000 1.00000000000000000 0.00000000000000000 
1 0.00000000000000000 -6.00000000000000000 1.00000000000000000 0.00000000000000000 
1 -22.73387290296209784 -15.55000000000680416 0.97819420634424314 -0.20769230769230818 
1 -22.58354740837240016 -15.55000000000000249 0.97819420634424314 -0.20769230769230818 
1 0.00000000000000000 0.00000000000000000 1.00000000000000000 0.00000000000000000 
1 0.00000000000000000 -6.00000000000000000 1.00000000000000000 0.00000000000000000 
1 -22.73387290296199126 -15.55000000000813998 0.97819420634424314 -0.20769230769230818 
1 -22.58354740837240016 -15.55000000000000249 0.97819420634424314 -0.20769230769230818 
1 0.00000000000000000 0.00000000000000000 1.00000000000000000 0.00000000000000000 
1 0.00000000000000000 -6.00000000000000000 1.00000000000000000 0.00000000000000000 
1 -25.99641911929458971 -15.55000000000011795 0.97819420634424314 -0.20769230769230818 
1 -22.58354740837240016 -15.55000000000000249 0.97819420634424314 -0.20769230769230818 
1 0.00000000000000000 0.00000000000000000 1.00000000000000000 0.00000000000000000 
1 0.00000000000000000 -6.00000000000000000 1.00000000000000000 0.00000000000000000 
1 -22.73387290295237051 -15.54999999999882832 0.97819420634424314 -0.20769230769230818 
1 5.42668353501693712 0.00000000000000000 0.00000000000000000 -1.00000000000000000 
1 0.00000000000000000 0.00000000000000000 0.00000000000000000 -1.00000000000000000 
1 0.00000000000000000 0.00000000000000000 1.00000000000000000 0.00000000000000000 
1 0.00000000000000000 -6.00000000000000000 1.00000000000000000 0.00000000000000000 
2 -1.37132936503310110 -0.00000000000000045 1.00000000000000000 0.00000000000000000 -0.00000000000000000 1.00000000000000000 22.50000000000000000
2 -1.86187970448317830 0.00000000000000050 1.00000000000000000 0.00000000000000000 -0.00000000000000000 1.00000000000000000 22.50000000000000000
1 0.00000000000000000 0.00000000000000000 1.00000000000000000 0.00000000000000000 
1 0.00000000000000000 -6.00000000000000000 1.00000000000000000 0.00000000000000000 
2 -1.37132936503310110 -0.00000000000000116 1.00000000000000000 0.00000000000000000 -0.00000000000000000 1.00000000000000000 22.50000000000000000
2 -1.52165485962279812 -0.00000000000680369 1.00000000000000000 0.00000000000000000 -0.00000000000000000 1.00000000000000000 22.50000000000000000
1 0.00000000000000000 0.00000000000000000 1.00000000000000000 0.00000000000000000 
1 0.00000000000000000 -6.00000000000000000 1.00000000000000000 0.00000000000000000 
2 -1.37132936503310110 -0.00000000000000116 1.00000000000000000 0.00000000000000000 -0.00000000000000000 1.00000000000000000 22.50000000000000000
2 -1.52165485962269420 -0.00000000000813908 1.00000000000000000 0.00000000000000000 -0.00000000000000000 1.00000000000000000 22.50000000000000000
1 0.00000000000000000 0.00000000000000000 1.00000000000000000 0.00000000000000000 
1 0.00000000000000000 -6.00000000000000000 1.00000000000000000 0.00000000000000000 
2 -1.37132936503310110 -0.00000000000000116 1.00000000000000000 0.00000000000000000 -0.00000000000000000 1.00000000000000000 22.50000000000000000
2 -4.78420107595529132 -0.00000000000011776 1.00000000000000000 0.00000000000000000 -0.00000000000000000 1.00000000000000000 22.50000000000000000
1 0.00000000000000000 0.00000000000000000 1.00000000000000000 0.00000000000000000 
1 0.00000000000000000 -6.00000000000000000 1.00000000000000000 0.00000000000000000 
2 -1.37132936503310110 -0.00000000000000116 1.00000000000000000 0.00000000000000000 -0.00000000000000000 1.00000000000000000 22.50000000000000000
2 -1.52165485961307145 0.00000000000117248 1.00000000000000000 0.00000000000000000 -0.00000000000000000 1.00000000000000000 22.50000000000000000
1 8.90000000001866987 0.00000000000000000 0.00000000000000000 -1.00000000000000000 
1 32.79999999999999716 0.00000000000000000 0.00000000000000000 -1.00000000000000000 
1 13.36807360795058131 -16.99999999999999289 0.99772497177485620 0.06741573033693661 
1 0.00000000000000000 0.00000000000000000 1.00000000000000000 0.00000000000000000 
1 0.00000000000000000 -6.00000000000000000 1.00000000000000000 0.00000000000000000 
1 12.87752326850050544 -16.99999999999999289 0.99772497177485620 0.06741573033693661 
1 13.36807360795058131 -16.99999999999999289 0.99772497177485620 0.06741573033693661 
1 0.00000000000000000 0.00000000000000000 1.00000000000000000 0.00000000000000000 
1 0.00000000000000000 -6.00000000000000000 1.00000000000000000 0.00000000000000000 
1 13.21774811336088540 -17.00000000000679634 0.99772497177485620 0.06741573033693661 
1 13.36807360795058131 -16.99999999999999289 0.99772497177485620 0.06741573033693661 
1 0.00000000000000000 0.00000000000000000 1.00000000000000000 0.00000000000000000 
1 0.00000000000000000 -6.00000000000000000 1.00000000000000000 0.00000000000000000 
1 13.21774811336098843 -17.00000000000813216 0.99772497177485620 0.06741573033693661 
1 13.36807360795058131 -16.99999999999999289 0.99772497177485620 0.06741573033693661 
1 0.00000000000000000 0.00000000000000000 1.00000000000000000 0.00000000000000000 
1 0.00000000000000000 -6.00000000000000000 1.00000000000000000 0.00000000000000000 
1 9.95520189702839176 -17.00000000000011013 0.99772497177485620 0.06741573033693661 
1 13.36807360795058131 -16.99999999999999289 0.99772497177485620 0.06741573033693661 
1 0.00000000000000000 0.00000000000000000 1.00000000000000000 0.00000000000000000 
1 0.00000000000000000 -6.00000000000000000 1.00000000000000000 0.00000000000000000 
1 13.21774811337061095 -16.99999999999882050 0.99772497177485620 0.06741573033693661 
1 0.00000000000000000 0.00000000000000000 0.00000000000000000 -1.00000000000000000 
1 8.90000000001867342 0.00000000000000000 0.00000000000000000 -1.00000000000000000 
1 22.24782585676542723 16.39999999999999858 0.00000000000000000 -1.00000000000000000 
1 0.00000000000000000 0.00000000000000000 1.00000000000000000 0.00000000000000000 
1 0.00000000000000000 -6.00000000000000000 1.00000000000000000 0.00000000000000000 
1 21.75727551731534959 16.39999999999999858 0.00000000000000000 -1.00000000000000000 
1 22.24782585676542723 16.39999999999999858 0.00000000000000000 -1.00000000000000000 
1 0.00000000000000000 0.00000000000000000 1.00000000000000000 0.00000000000000000 
1 0.00000000000000000 -6.00000000000000000 1.00000000000000000 0.00000000000000000 
1 22.09750036217572955 16.39999999999319513 0.00000000000000000 -1.00000000000000000 
1 22.24782585676542723 16.39999999999999858 0.00000000000000000 -1.00000000000000000 
1 0.00000000000000000 0.00000000000000000 1.00000000000000000 0.00000000000000000 
1 0.00000000000000000 -6.00000000000000000 1.00000000000000000 0.00000000000000000 
1 22.09750036217583613 16.39999999999185931 0.00000000000000000 -1.00000000000000000 
1 22.24782585676542723 16.39999999999999858 0.00000000000000000 -1.00000000000000000 
1 0.00000000000000000 0.00000000000000000 1.00000000000000000 0.00000000000000000 
1 0.00000000000000000 -6.00000000000000000 1.00000000000000000 0.00000000000000000 
1 18.83495414584323768 16.39999999999988134 0.00000000000000000 -1.00000000000000000 
1 22.24782585676542723 16.39999999999999858 0.00000000000000000 -1.00000000000000000 
1 0.00000000000000000 0.00000000000000000 1.00000000000000000 0.00000000000000000 
1 0.00000000000000000 -6.00000000000000000 1.00000000000000000 0.00000000000000000 
1 22.09750036218545688 16.40000000000117097 0.00000000000000000 -1.00000000000000000 
1 13.36807360795057598 16.99999999999999645 0.99772497177485608 -0.06741573033693697 
1 0.00000000000000000 0.00000000000000000 1.00000000000000000 0.00000000000000000 
1 0.00000000000000000 -6.00000000000000000 1.00000000000000000 0.00000000000000000 
1 12.87752326850050011 16.99999999999999645 0.99772497177485608 -0.06741573033693697 
1 13.36807360795057598 16.99999999999999645 0.99772497177485608 -0.06741573033693697 
1 0.00000000000000000 0.00000000000000000 1.00000000000000000 0.00000000000000000 
1 0.00000000000000000 -6.00000000000000000 1.00000000000000000 0.00000000000000000 
1 13.21774811336088007 16.99999999999319300 0.99772497177485608 -0.06741573033693697 
1 13.36807360795057598 16.99999999999999645 0.99772497177485608 -0.06741573033693697 
1 0.00000000000000000 0.00000000000000000 1.00000000000000000 0.00000000000000000 
1 0.00000000000000000 -6.00000000000000000 1.00000000000000000 0.00000000000000000 
1 13.21774811336098310 16.99999999999185718 0.99772497177485608 -0.06741573033693697 
1 13.36807360795057598 16.99999999999999645 0.99772497177485608 -0.06741573033693697 
1 0.00000000000000000 0.00000000000000000 1.00000000000000000 0.00000000000000000 
1 0.00000000000000000 -6.00000000000000000 1.00000000000000000 0.00000000000000000 
1 9.95520189702838643 16.99999999999987921 0.99772497177485608 -0.06741573033693697 
1 13.36807360795057598 16.99999999999999645 0.99772497177485608 -0.06741573033693697 
1 0.00000000000000000 0.00000000000000000 1.00000000000000000 0.00000000000000000 
1 0.00000000000000000 -6.00000000000000000 1.00000000000000000 0.00000000000000000 
1 13.21774811337060562 17.00000000000116884 0.99772497177485608 -0.06741573033693697 
Curves 16
1 14.73940297298367774 16.99999999999999645 0.00000000000000000 0.00000000000000000 0.00000000000000000 1.00000000000000000 
1 -14.85395570210171989 16.89999999999999503 0.00000000000000000 0.00000000000000000 0.00000000000000000 1.00000000000000000 
2 0.00000000000000000 0.00000000000000000 0.00000000000000000 0.00000000000000000 0.00000000000000000 1.00000000000000000 1.00000000000000000 0.00000000000000000 -0.00000000000000000 -0.00000000000000000 1.00000000000000000 0.00000000000000000 22.50000000000000000
1 -21.21221804333929839 15.55000000000000071 0.00000000000000000 0.00000000000000000 0.00000000000000000 1.00000000000000000 
1 -14.85395570210171989 16.89999999999999503 0.00000000000000000 -0.97819420634424337 -0.20769230769230693 0.00000000000000000 
1 -21.21221804333929839 -15.55000000000000071 0.00000000000000000 0.00000000000000000 0.00000000000000000 1.00000000000000000 
1 -21.21221804333929839 15.55000000000000071 0.00000000000000000 0.00000000000000000 -1.00000000000000000 0.00000000000000000 
1 -14.85395570210170924 -16.90000000000000568 0.00000000000000000 0.00000000000000000 0.00000000000000000 1.00000000000000000 
1 -21.21221804333929839 -15.55000000000000071 0.00000000000000000 0.97819420634424314 -0.20769230769230818 0.00000000000000000 
1 14.73940297298368307 -16.99999999999999289 0.00000000000000000 0.00000000000000000 0.00000000000000000 1.00000000000000000 
2 0.00000000000000000 0.00000000000000000 0.00000000000000000 0.00000000000000000 0.00000000000000000 1.00000000000000000 1.00000000000000000 0.00000000000000000 -0.00000000000000000 -0.00000000000000000 1.00000000000000000 0.00000000000000000 22.50000000000000000
1 23.61915522179852900 -16.39999999999999858 0.00000000000000000 0.00000000000000000 0.00000000000000000 1.00000000000000000 
1 14.73940297298368307 -16.99999999999999289 0.00000000000000000 0.99772497177485620 0.06741573033693661 0.00000000000000000 
1 23.61915522179852900 16.39999999999999858 0.00000000000000000 0.00000000000000000 0.00000000000000000 1.00000000000000000 
1 23.61915522179852900 16.39999999999999858 0.00000000000000000 0.00000000000000000 -1.00000000000000000 0.00000000000000000 
1 14.73940297298367774 16.99999999999999645 0.00000000000000000 0.99772497177485608 -0.06741573033693697 0.00000000000000000 
Polygon3D 0
PolygonOnTriangulations 0
Surfaces 50
2 0.00000000000000000 0.00000000000000000 0.00000000000000000 -0.00000000000000000 -0.00000000000000000 -1.00000000000000000 1.00000000000000000 0.00000000000000000 0.00000000000000000 -0.00000000000000000 1.00000000000000000 -0.00000000000000000 22.50000000000000000
1 14.73940297298367774 16.99999999999999645 0.00000000000000000 0.06741573033693697 0.99772497177485608 -0.00000000000000000 0.99772497177485608 -0.06741573033693697 0.00000000000000000 0.00000000000000000 -0.00000000000000000 -1.00000000000000000 
1 -14.85395570210171989 16.89999999999999503 0.00000000000000000 0.20769230769230693 -0.97819420634424337 0.00000000000000000 -0.97819420634424337 -0.20769230769230693 0.00000000000000000 0.00000000000000000 -0.00000000000000000 -1.00000000000000000 
2 0.00000000000000000 0.00000000000000000 0.00000000000000000 -0.00000000000000000 -0.00000000000000000 -1.00000000000000000 1.00000000000000000 0.00000000000000000 0.00000000000000000 -0.00000000000000000 1.00000000000000000 -0.00000000000000000 22.50000000000000000
1 1.37132936503310110 0.00000000000000045 0.00000000000000000 0.00000000000000000 0.00000000000000000 1.00000000000000000 1.00000000000000000 0.00000000000000000 -0.00000000000000000 -0.00000000000000000 1.00000000000000000 0.00000000000000000 
1 1.86187970448317830 -0.00000000000000050 0.00000000000000000 0.00000000000000000 0.00000000000000000 1.00000000000000000 1.00000000000000000 0.00000000000000000 -0.00000000000000000 -0.00000000000000000 1.00000000000000000 0.00000000000000000 
2 0.00000000000000000 0.00000000000000000 0.00000000000000000 -0.00000000000000000 -0.00000000000000000 -1.00000000000000000 1.00000000000000000 0.00000000000000000 0.00000000000000000 -0.00000000000000000 1.00000000000000000 -0.00000000000000000 22.50000000000000000
1 1.37132936503310110 0.00000000000000116 0.00000000000000000 0.00000000000000000 0.00000000000000000 1.00000000000000000 1.00000000000000000 0.00000000000000000 -0.00000000000000000 -0.00000000000000000 1.00000000000000000 0.00000000000000000 
1 1.52165485962279812 0.00000000000680369 0.00000000000000000 0.00000000000000000 0.00000000000000000 1.00000000000000000 1.00000000000000000 0.00000000000000000 -0.00000000000000000 -0.00000000000000000 1.00000000000000000 0.00000000000000000 
2 0.00000000000000000 0.00000000000000000 0.00000000000000000 -0.00000000000000000 -0.00000000000000000 -1.00000000000000000 1.00000000000000000 0.00000000000000000 0.00000000000000000 -0.00000000000000000 1.00000000000000000 -0.00000000000000000 22.50000000000000000
1 1.37132936503310110 0.00000000000000116 0.00000000000000000 0.00000000000000000 0.00000000000000000 1.00000000000000000 1.00000000000000000 0.00000000000000000 -0.00000000000000000 -0.00000000000000000 1.00000000000000000 0.00000000000000000 
1 1.52165485962269420 0.00000000000813908 0.00000000000000000 0.00000000000000000 0.00000000000000000 1.00000000000000000 1.00000000000000000 0.00000000000000000 -0.00000000000000000 -0.00000000000000000 1.00000000000000000 0.00000000000000000 
2 0.00000000000000000 0.00000000000000000 0.00000000000000000 -0.00000000000000000 -0.00000000000000000 -1.00000000000000000 1.00000000000000000 0.00000000000000000 0.00000000000000000 -0.00000000000000000 1.00000000000000000 -0.00000000000000000 22.50000000000000000
1 1.37132936503310110 0.00000000000000116 0.00000000000000000 0.00000000000000000 0.00000000000000000 1.00000000000000000 1.00000000000000000 0.00000000000000000 -0.00000000000000000 -0.00000000000000000 1.00000000000000000 0.00000000000000000 
1 4.78420107595529132 0.00000000000011776 0.00000000000000000 0.00000000000000000 0.00000000000000000 1.00000000000000000 1.00000000000000000 0.00000000000000000 -0.00000000000000000 -0.00000000000000000 1.00000000000000000 0.00000000000000000 
1 1.37132936503310110 0.00000000000000116 0.00000000000000000 0.00000000000000000 0.00000000000000000 1.00000000000000000 1.00000000000000000 0.00000000000000000 -0.00000000000000000 -0.00000000000000000 1.00000000000000000 0.00000000000000000 
1 1.52165485961307145 -0.00000000000117248 0.00000000000000000 0.00000000000000000 0.00000000000000000 1.00000000000000000 1.00000000000000000 0.00000000000000000 -0.00000000000000000 -0.00000000000000000 1.00000000000000000 0.00000000000000000 
1 -21.21221804333929839 15.55000000000000071 0.00000000000000000 1.00000000000000000 0.00000000000000000 -0.00000000000000000 0.00000000000000000 -1.00000000000000000 0.00000000000000000 0.00000000000000000 -0.00000000000000000 -1.00000000000000000 
1 -14.85395570210171989 16.89999999999999503 0.00000000000000000 0.20769230769230693 -0.97819420634424337 0.00000000000000000 -0.97819420634424337 -0.20769230769230693 0.00000000000000000 0.00000000000000000 -0.00000000000000000 -1.00000000000000000 
1 -14.85395570210171989 16.89999999999999503 0.00000000000000000 0.20769230769230693 -0.97819420634424337 0.00000000000000000 -0.97819420634424337 -0.20769230769230693 0.00000000000000000 0.00000000000000000 -0.00000000000000000 -1.00000000000000000 
1 -14.85395570210171989 16.89999999999999503 0.00000000000000000 0.20769230769230693 -0.97819420634424337 0.00000000000000000 -0.97819420634424337 -0.20769230769230693 0.00000000000000000 0.00000000000000000 -0.00000000000000000 -1.00000000000000000 
1 -14.85395570210171989 16.89999999999999503 0.00000000000000000 0.20769230769230693 -0.97819420634424337 0.00000000000000000 -0.97819420634424337 -0.20769230769230693 0.00000000000000000 0.00000000000000000 -0.00000000000000000 -1.00000000000000000 
1 -21.21221804333929839 -15.55000000000000071 0.00000000000000000 0.20769230769230818 0.97819420634424314 -0.00000000000000000 0.97819420634424314 -0.20769230769230818 0.00000000000000000 0.00000000000000000 -0.00000000000000000 -1.00000000000000000 
1 -21.21221804333929839 15.55000000000000071 0.00000000000000000 1.00000000000000000 0.00000000000000000 -0.00000000000000000 0.00000000000000000 -1.00000000000000000 0.00000000000000000 0.00000000000000000 -0.00000000000000000 -1.00000000000000000 
1 -21.21221804333929839 15.55000000000000071 0.00000000000000000 1.00000000000000000 0.00000000000000000 -0.00000000000000000 0.00000000000000000 -1.00000000000000000 0.00000000000000000 0.00000000000000000 -0.00000000000000000 -1.00000000000000000 
1 -21.21221804333929839 15.55000000000000071 0.00000000000000000 1.00000000000000000 0.00000000000000000 -0.00000000000000000 0.00000000000000000 -1.00000000000000000 0.00000000000000000 0.00000000000000000 -0.00000000000000000 -1.00000000000000000 
1 -21.21221804333929839 15.55000000000000071 0.00000000000000000 1.00000000000000000 0.00000000000000000 -0.00000000000000000 0.00000000000000000 -1.00000000000000000 0.00000000000000000 0.00000000000000000 -0.00000000000000000 -1.00000000000000000 
2 0.00000000000000000 0.00000000000000000 0.00000000000000000 -0.00000000000000000 -0.00000000000000000 -1.00000000000000000 1.00000000000000000 0.00000000000000000 0.00000000000000000 -0.00000000000000000 1.00000000000000000 -0.00000000000000000 22.50000000000000000
1 -21.21221804333929839 -15.55000000000000071 0.00000000000000000 0.20769230769230818 0.97819420634424314 -0.00000000000000000 0.97819420634424314 -0.20769230769230818 0.00000000000000000 0.00000000000000000 -0.00000000000000000 -1.00000000000000000 
1 -21.21221804333929839 -15.55000000000000071 0.00000000000000000 0.20769230769230818 0.97819420634424314 -0.00000000000000000 0.97819420634424314 -0.20769230769230818 0.00000000000000000 0.00000000000000000 -0.00000000000000000 -1.00000000000000000 
1 -21.21221804333929839 -15.55000000000000071 0.00000000000000000 0.20769230769230818 0.97819420634424314 -0.00000000000000000 0.97819420634424314 -0.20769230769230818 0.00000000000000000 0.00000000000000000 -0.00000000000000000 -1.00000000000000000 
1 -21.21221804333929839 -15.55000000000000071 0.00000000000000000 0.20769230769230818 0.97819420634424314 -0.00000000000000000 0.97819420634424314 -0.20769230769230818 0.00000000000000000 0.00000000000000000 -0.00000000000000000 -1.00000000000000000 
1 14.73940297298368307 -16.99999999999999289 0.00000000000000000 -0.06741573033693661 0.99772497177485620 0.00000000000000000 0.99772497177485620 0.06741573033693661 0.00000000000000000 0.00000000000000000 0.00000000000000000 -1.00000000000000000 
2 0.00000000000000000 0.00000000000000000 0.00000000000000000 -0.00000000000000000 -0.00000000000000000 -1.00000000000000000 1.00000000000000000 0.00000000000000000 0.00000000000000000 -0.00000000000000000 1.00000000000000000 -0.00000000000000000 22.50000000000000000
2 0.00000000000000000 0.00000000000000000 0.00000000000000000 -0.00000000000000000 -0.00000000000000000 -1.00000000000000000 1.00000000000000000 0.00000000000000000 0.00000000000000000 -0.00000000000000000 1.00000000000000000 -0.00000000000000000 22.50000000000000000
2 0.00000000000000000 0.00000000000000000 0.00000000000000000 -0.00000000000000000 -0.00000000000000000 -1.00000000000000000 1.00000000000000000 0.00000000000000000 0.00000000000000000 -0.00000000000000000 1.00000000000000000 -0.00000000000000000 22.50000000000000000
2 0.00000000000000000 0.00000000000000000 0.00000000000000000 -0.00000000000000000 -0.00000000000000000 -1.00000000000000000 1.00000000000000000 0.00000000000000000 0.00000000000000000 -0.00000000000000000 1.00000000000000000 -0.00000000000000000 22.50000000000000000
1 23.61915522179852900 16.39999999999999858 0.00000000000000000 1.00000000000000000 0.00000000000000000 -0.00000000000000000 0.00000000000000000 -1.00000000000000000 0.00000000000000000 0.00000000000000000 -0.00000000000000000 -1.00000000000000000 
1 14.73940297298368307 -16.99999999999999289 0.00000000000000000 -0.06741573033693661 0.99772497177485620 0.00000000000000000 0.99772497177485620 0.06741573033693661 0.00000000000000000 0.00000000000000000 0.00000000000000000 -1.00000000000000000 
1 14.73940297298368307 -16.99999999999999289 0.00000000000000000 -0.06741573033693661 0.99772497177485620 0.00000000000000000 0.99772497177485620 0.06741573033693661 0.00000000000000000 0.00000000000000000 0.00000000000000000 -1.00000000000000000 
1 14.73940297298368307 -16.99999999999999289 0.00000000000000000 -0.06741573033693661 0.99772497177485620 0.00000000000000000 0.99772497177485620 0.06741573033693661 0.00000000000000000 0.00000000000000000 0.00000000000000000 -1.00000000000000000 
1 14.73940297298368307 -16.99999999999999289 0.00000000000000000 -0.06741573033693661 0.99772497177485620 0.00000000000000000 0.99772497177485620 0.06741573033693661 0.00000000000000000 0.00000000000000000 0.00000000000000000 -1.00000000000000000 
1 23.61915522179852900 16.39999999999999858 0.00000000000000000 1.00000000000000000 0.00000000000000000 -0.00000000000000000 0.00000000000000000 -1.00000000000000000 0.00000000000000000 0.00000000000000000 -0.00000000000000000 -1.00000000000000000 
1 23.61915522179852900 16.39999999999999858 0.00000000000000000 1.00000000000000000 0.00000000000000000 -0.00000000000000000 0.00000000000000000 -1.00000000000000000 0.00000000000000000 0.00000000000000000 -0.00000000000000000 -1.00000000000000000 
1 23.61915522179852900 16.39999999999999858 0.00000000000000000 1.00000000000000000 0.00000000000000000 -0.00000000000000000 0.00000000000000000 -1.00000000000000000 0.00000000000000000 0.00000000000000000 -0.00000000000000000 -1.00000000000000000 
1 23.61915522179852900 16.39999999999999858 0.00000000000000000 1.00000000000000000 0.00000000000000000 -0.00000000000000000 0.00000000000000000 -1.00000000000000000 0.00000000000000000 0.00000000000000000 -0.00000000000000000 -1.00000000000000000 
1 14.73940297298367774 16.99999999999999645 0.00000000000000000 0.06741573033693697 0.99772497177485608 -0.00000000000000000 0.99772497177485608 -0.06741573033693697 0.00000000000000000 0.00000000000000000 -0.00000000000000000 -1.00000000000000000 
1 14.73940297298367774 16.99999999999999645 0.00000000000000000 0.06741573033693697 0.99772497177485608 -0.00000000000000000 0.99772497177485608 -0.06741573033693697 0.00000000000000000 0.00000000000000000 -0.00000000000000000 -1.00000000000000000 
1 14.73940297298367774 16.99999999999999645 0.00000000000000000 0.06741573033693697 0.99772497177485608 -0.00000000000000000 0.99772497177485608 -0.06741573033693697 0.00000000000000000 0.00000000000000000 -0.00000000000000000 -1.00000000000000000 
1 14.73940297298367774 16.99999999999999645 0.00000000000000000 0.06741573033693697 0.99772497177485608 -0.00000000000000000 0.99772497177485608 -0.06741573033693697 0.00000000000000000 0.00000000000000000 -0.00000000000000000 -1.00000000000000000 
Triangulations 0

TShapes 44
Ve
0.000000100000000
14.739402972983678 16.999999999999996 0.000000000000000
0 0

0101101
*
Ed
 0.000000100000000 1 1 0
1  1 0 0.000000000000000 6.000000000000000
2  1 1 0 0.000000000000000 6.000000000000000
2  2 2 0 0.000000000000000 6.000000000000000
0

0101000
+44 4 -44 6 *
Ve
0.000000100000000
-14.853955702101720 16.899999999999995 0.000000000000000
0 0

0101101
*
Ed
 0.000000100000000 1 1 0
1  2 0 0.000000000000000 6.000000000000000
2  3 1 0 0.000000000000000 6.000000000000000
2  4 3 0 0.000000000000000 6.000000000000000
0

0101000
+42 4 -42 6 *
Ed
 0.000000100000000 1 1 0
1  3 0 0.856501772162650 2.291849128808372
2  5 4 10 0.856501772162650 2.291849128808372
2  6 4 12 0.856501772162650 2.291849128808372
2  7 5 13 0.856501772162650 2.291849128808372
2  8 6 16 0.856501772162650 2.291849128808372
2  9 7 20 0.856501772162650 2.291849128808372
2  10 7 22 0.856501772162650 2.291849128808372
2  11 8 23 0.856501772162650 2.291849128808372
2  12 9 26 0.856501772162650 2.291849128808372
2  13 10 30 0.856501772162650 2.291849128808372
2  14 10 32 0.856501772162650 2.291849128808372
2  15 11 33 0.856501772162650 2.291849128808372
2  16 12 36 0.856501772162650 2.291849128808372
2  17 13 39 0.856501772162650 2.291849128808372
2  18 13 41 0.856501772162650 2.291849128808372
2  19 14 42 0.856501772162650 2.291849128808372
2  20 15 45 0.856501772162650 2.291849128808372
2  21 1 46 0.856501772162650 2.291849128808372
2  22 1 47 0.856501772162650 2.291849128808372
2  23 16 48 0.856501772162650 2.291849128808372
2  24 17 51 0.856501772162650 2.291849128808372
0

0101000
+44 0 -42 0 *
Wi

0101100
+43 0 -41 0 -40 4 +40 6 *
Fa
0  0.000000100000000 1 0

0111000
+39 0 *
Ve
0.000000100000000
-21.212218043339298 15.550000000000001 0.000000000000000
0 0

0101101
*
Ed
 0.000000100000000 1 1 0
1  4 0 0.000000000000000 6.000000000000000
2  25 3 0 0.000000000000000 6.000000000000000
2  26 18 0 0.000000000000000 6.000000000000000
0

0101000
+37 4 -37 6 *
Ed
 0.000000100000000 1 1 0
1  5 0 0.000000000000000 6.499999999999996
2  27 5 13 0.000000000000000 6.499999999999996
2  28 19 10 0.000000000000000 6.499999999999996
2  29 19 12 0.000000000000000 6.499999999999996
2  30 6 16 0.000000000000000 6.499999999999996
2  31 8 23 0.000000000000000 6.499999999999996
2  32 20 20 0.000000000000000 6.499999999999996
2  33 20 22 0.000000000000000 6.499999999999996
2  34 9 26 0.000000000000000 6.499999999999996
2  35 11 33 0.000000000000000 6.499999999999996
2  36 21 30 0.000000000000000 6.499999999999996
2  37 21 32 0.000000000000000 6.499999999999996
2  38 12 36 0.000000000000000 6.499999999999996
2  39 14 42 0.000000000000000 6.499999999999996
2  40 22 39 0.000000000000000 6.499999999999996
2  41 22 41 0.000000000000000 6.499999999999996
2  42 15 45 0.000000000000000 6.499999999999996
2  43 16 48 0.000000000000000 6.499999999999996
2  44 3 46 0.000000000000000 6.499999999999996
2  45 3 47 0.000000000000000 6.499999999999996
2  46 17 51 0.000000000000000 6.499999999999996
0

0101000
+42 0 -37 0 *
Wi

0101100
+41 0 -36 0 -35 4 +35 6 *
Fa
0  0.000000100000000 3 0

0111000
+34 0 *
Ve
0.000000100000000
-21.212218043339298 -15.550000000000001 0.000000000000000
0 0

0101101
*
Ed
 0.000000100000000 1 1 0
1  6 0 0.000000000000000 6.000000000000000
2  47 23 0 0.000000000000000 6.000000000000000
2  48 18 0 0.000000000000000 6.000000000000000
0

0101000
+32 4 -32 6 *
Ed
 0.000000100000000 1 1 0
1  7 0 0.000000000000000 31.100000000000001
2  49 5 13 0.000000000000000 31.100000000000001
2  50 24 10 0.000000000000000 31.100000000000001
2  51 24 12 0.000000000000000 31.100000000000001
2  52 6 16 0.000000000000000 31.100000000000001
2  53 8 23 0.000000000000000 31.100000000000001
2  54 25 20 0.000000000000000 31.100000000000001
2  55 25 22 0.000000000000000 31.100000000000001
2  56 9 26 0.000000000000000 31.100000000000001
2  57 11 33 0.000000000000000 31.100000000000001
2  58 26 30 0.000000000000000 31.100000000000001
2  59 26 32 0.000000000000000 31.100000000000001
2  60 12 36 0.000000000000000 31.100000000000001
2  61 14 42 0.000000000000000 31.100000000000001
2  62 27 39 0.000000000000000 31.100000000000001
2  63 27 41 0.000000000000000 31.100000000000001
2  64 15 45 0.000000000000000 31.100000000000001
2  65 16 48 0.000000000000000 31.100000000000001
2  66 18 46 0.000000000000000 31.100000000000001
2  67 18 47 0.000000000000000 31.100000000000001
2  68 17 51 0.000000000000000 31.100000000000001
0

0101000
+37 0 -32 0 *
Wi

0101100
+36 0 -31 0 -30 4 +30 6 *
Fa
0  0.000000100000000 18 0

0111000
+29 0 *
Ve
0.000000100000000
-14.853955702101709 -16.900000000000006 0.000000000000000
0 0

0101101
*
Ed
 0.000000100000000 1 1 0
1  8 0 0.000000000000000 6.000000000000000
2  69 28 0 0.000000000000000 6.000000000000000
2  70 23 0 0.000000000000000 6.000000000000000
0

0101000
+27 4 -27 6 *
Ed
 0.000000100000000 1 1 0
1  9 0 0.000000000000000 6.500000000000009
2  71 5 13 0.000000000000000 6.500000000000009
2  72 29 10 0.000000000000000 6.500000000000009
2  73 29 12 0.000000000000000 6.500000000000009
2  74 6 16 0.000000000000000 6.500000000000009
2  75 8 23 0.000000000000000 6.500000000000009
2  76 30 20 0.000000000000000 6.500000000000009
2  77 30 22 0.000000000000000 6.500000000000009
2  78 9 26 0.000000000000000 6.500000000000009
2  79 11 33 0.000000000000000 6.500000000000009
2  80 31 30 0.000000000000000 6.500000000000009
2  81 31 32 0.000000000000000 6.500000000000009
2  82 12 36 0.000000000000000 6.500000000000009
2  83 14 42 0.000000000000000 6.500000000000009
2  84 32 39 0.000000000000000 6.500000000000009
2  85 32 41 0.000000000000000 6.500000000000009
2  86 15 45 0.000000000000000 6.500000000000009
2  87 16 48 0.000000000000000 6.500000000000009
2  88 23 46 0.000000000000000 6.500000000000009
2  89 23 47 0.000000000000000 6.500000000000009
2  90 17 51 0.000000000000000 6.500000000000009
0

0101000
+32 0 -27 0 *
Wi

0101100
+31 0 -26 0 -25 4 +25 6 *
Fa
0  0.000000100000000 23 0

0111000
+24 0 *
Ve
0.000000100000000
14.739402972983683 -16.999999999999993 0.000000000000000
0 0

0101101
*
Ed
 0.000000100000000 1 1 0
1  10 0 0.000000000000000 6.000000000000000
2  91 28 0 0.000000000000000 6.000000000000000
2  92 33 0 0.000000000000000 6.000000000000000
0

0101000
+22 4 -22 6 *
Ed
 0.000000100000000 1 1 0
1  11 0 3.991336178371216 5.426683535016937
2  93 34 10 3.991336178371216 5.426683535016937
2  94 34 12 3.991336178371216 5.426683535016937
2  95 5 13 3.991336178371216 5.426683535016937
2  96 6 16 3.991336178371216 5.426683535016937
2  97 35 20 3.991336178371216 5.426683535016937
2  98 35 22 3.991336178371216 5.426683535016937
2  99 8 23 3.991336178371216 5.426683535016937
2  100 9 26 3.991336178371216 5.426683535016937
2  101 36 30 3.991336178371216 5.426683535016937
2  102 36 32 3.991336178371216 5.426683535016937
2  103 11 33 3.991336178371216 5.426683535016937
2  104 12 36 3.991336178371216 5.426683535016937
2  105 37 39 3.991336178371216 5.426683535016937
2  106 37 41 3.991336178371216 5.426683535016937
2  107 14 42 3.991336178371216 5.426683535016937
2  108 15 45 3.991336178371216 5.426683535016937
2  109 28 46 3.991336178371216 5.426683535016937
2  110 28 47 3.991336178371216 5.426683535016937
2  111 16 48 3.991336178371216 5.426683535016937
2  112 17 51 3.991336178371216 5.426683535016937
0

0101000
+27 0 -22 0 *
Wi

0101100
+26 0 -21 0 -20 4 +20 6 *
Fa
0  0.000000100000000 28 0

0111000
+19 0 *
Ve
0.000000100000000
23.619155221798529 -16.399999999999999 0.000000000000000
0 0

0101101
*
Ed
 0.000000100000000 1 1 0
1  12 0 0.000000000000000 6.000000000000000
2  113 33 0 0.000000000000000 6.000000000000000
2  114 38 0 0.000000000000000 6.000000000000000
0

0101000
+17 4 -17 6 *
Ed
 0.000000100000000 1 1 0
1  13 0 0.000000000000000 8.900000000018670
2  115 5 13 0.000000000000000 8.900000000018670
2  116 39 10 0.000000000000000 8.900000000018670
2  117 39 12 0.000000000000000 8.900000000018670
2  118 6 16 0.000000000000000 8.900000000018670
2  119 8 23 0.000000000000000 8.900000000018670
2  120 40 20 0.000000000000000 8.900000000018670
2  121 40 22 0.000000000000000 8.900000000018670
2  122 9 26 0.000000000000000 8.900000000018670
2  123 11 33 0.000000000000000 8.900000000018670
2  124 41 30 0.000000000000000 8.900000000018670
2  125 41 32 0.000000000000000 8.900000000018670
2  126 12 36 0.000000000000000 8.900000000018670
2  127 14 42 0.000000000000000 8.900000000018670
2  128 42 39 0.000000000000000 8.900000000018670
2  129 42 41 0.000000000000000 8.900000000018670
2  130 15 45 0.000000000000000 8.900000000018670
2  131 16 48 0.000000000000000 8.900000000018670
2  132 33 46 0.000000000000000 8.900000000018670
2  133 33 47 0.000000000000000 8.900000000018670
2  134 17 51 0.000000000000000 8.900000000018670
0

0101000
+22 0 -17 0 *
Wi

0101100
+21 0 -16 0 -15 4 +15 6 *
Fa
0  0.000000100000000 33 0

0111000
+14 0 *
Ve
0.000000100000000
23.619155221798529 16.399999999999999 0.000000000000000
0 0

0101101
*
Ed
 0.000000100000000 1 1 0
1  14 0 0.000000000000000 6.000000000000000
2  135 38 0 0.000000000000000 6.000000000000000
2  136 2 0 0.000000000000000 6.000000000000000
0

0101000
+12 4 -12 6 *
Ed
 0.000000100000000 1 1 0
1  15 0 0.000000000000000 32.799999999999997
2  137 5 13 0.000000000000000 32.799999999999997
2  138 43 10 0.000000000000000 32.799999999999997
2  139 43 12 0.000000000000000 32.799999999999997
2  140 6 16 0.000000000000000 32.799999999999997
2  141 8 23 0.000000000000000 32.799999999999997
2  142 44 20 0.000000000000000 32.799999999999997
2  143 44 22 0.000000000000000 32.799999999999997
2  144 9 26 0.000000000000000 32.799999999999997
2  145 11 33 0.000000000000000 32.799999999999997
2  146 45 30 0.000000000000000 32.799999999999997
2  147 45 32 0.000000000000000 32.799999999999997
2  148 12 36 0.000000000000000 32.799999999999997
2  149 14 42 0.000000000000000 32.799999999999997
2  150 46 39 0.000000000000000 32.799999999999997
2  151 46 41 0.000000000000000 32.799999999999997
2  152 15 45 0.000000000000000 32.799999999999997
2  153 16 48 0.000000000000000 32.799999999999997
2  154 38 46 0.000000000000000 32.799999999999997
2  155 38 47 0.000000000000000 32.799999999999997
2  156 17 51 0.000000000000000 32.799999999999997
0

0101000
+12 0 -17 0 *
Wi

0101100
+11 0 -16 0 -10 4 +10 6 *
Fa
0  0.000000100000000 38 0

0111000
+9 0 *
Ed
 0.000000100000000 1 1 0
1  16 0 0.000000000000000 8.900000000018675
2  157 5 13 0.000000000000000 8.900000000018675
2  158 47 10 0.000000000000000 8.900000000018675
2  159 47 12 0.000000000000000 8.900000000018675
2  160 6 16 0.000000000000000 8.900000000018675
2  161 8 23 0.000000000000000 8.900000000018675
2  162 48 20 0.000000000000000 8.900000000018675
2  163 48 22 0.000000000000000 8.900000000018675
2  164 9 26 0.000000000000000 8.900000000018675
2  165 11 33 0.000000000000000 8.900000000018675
2  166 49 30 0.000000000000000 8.900000000018675
2  167 49 32 0.000000000000000 8.900000000018675
2  168 12 36 0.000000000000000 8.900000000018675
2  169 14 42 0.000000000000000 8.900000000018675
2  170 50 39 0.000000000000000 8.900000000018675
2  171 50 41 0.000000000000000 8.900000000018675
2  172 15 45 0.000000000000000 8.900000000018675
2  173 16 48 0.000000000000000 8.900000000018675
2  174 2 46 0.000000000000000 8.900000000018675
2  175 2 47 0.000000000000000 8.900000000018675
2  176 17 51 0.000000000000000 8.900000000018675
0

0101000
+44 0 -12 0 *
Wi

0101100
+43 0 -11 0 -7 4 +7 6 *
Fa
0  0.000000100000000 2 0

0111000
+6 0 *
Wi

0101100
+40 0 +35 0 +30 0 +25 0 +20 0 +15 0 -10 0 -7 0 *
Fa
0  0.000000100000000 16 0

0111000
+4 53 *
Sh

0101100
+38 0 +33 0 +28 0 +23 0 +18 0 +13 0 -8 0 -5 0 +3 52 -3 54 
*
So

0100000
-2 0 *

+1 0 