
CASCADE Topology V1, (c) Matra-Datavision
Locations 24
1
1.000000000000000 0.000000000000000 0.000000000000000 0.000000000000000 
0.000000000000000 1.000000000000000 0.000000000000000 0.000000000000000 
0.000000000000000 0.000000000000000 1.000000000000000 0.000000000000000 
1
1.000000000000000 0.000000000000000 0.000000000000000 0.000000000000000 
0.000000000000000 -1.000000000000000 0.000000000000000 0.000000000000000 
0.000000000000000 0.000000000000000 -1.000000000000000 6.000000000000000 
1
1.000000000000000 0.000000000000000 0.000000000000000 0.000000000000000 
0.000000000000000 1.000000000000000 0.000000000000000 0.000000000000000 
0.000000000000000 0.000000000000000 1.000000000000000 0.000000000000000 
2  1 1 2 1 3 -1 0
1
1.000000000000000 0.000000000000000 0.000000000000000 0.000000000000000 
0.000000000000000 1.000000000000000 0.000000000000000 0.000000000000000 
0.000000000000000 0.000000000000000 1.000000000000000 -2.000000000000000 
2  1 1 2 1 3 -1 5 1 0
2  3 1 2 -1 1 -1 0
2  5 -1 3 1 2 -1 1 -1 0
2  2 -1 1 -1 0
1
1.000000000000000 0.000000000000000 0.000000000000000 0.000000000000000 
0.000000000000000 1.000000000000000 0.000000000000000 0.000000000000000 
0.000000000000000 0.000000000000000 1.000000000000000 0.000000000000000 
1
1.000000000000000 0.000000000000000 0.000000000000000 0.000000000000000 
0.000000000000000 1.000000000000000 0.000000000000000 0.000000000000000 
0.000000000000000 0.000000000000000 1.000000000000000 6.000000000000000 
1
1.000000000000000 0.000000000000000 0.000000000000000 0.000000000000000 
0.000000000000000 1.000000000000000 0.000000000000000 0.000000000000000 
0.000000000000000 0.000000000000000 1.000000000000000 0.000000000000000 
1
1.000000000000000 0.000000000000000 0.000000000000000 0.000000000000000 
0.000000000000000 1.000000000000000 0.000000000000000 0.000000000000000 
0.000000000000000 0.000000000000000 1.000000000000000 0.000000000000000 
1
1.000000000000000 0.000000000000000 0.000000000000000 0.000000000000000 
0.000000000000000 1.000000000000000 0.000000000000000 0.000000000000000 
0.000000000000000 0.000000000000000 1.000000000000000 0.000000000000000 
1
1.000000000000000 0.000000000000000 0.000000000000000 0.000000000000000 
0.000000000000000 1.000000000000000 0.000000000000000 0.000000000000000 
0.000000000000000 0.000000000000000 1.000000000000000 0.000000000000000 
1
1.000000000000000 0.000000000000000 0.000000000000000 0.000000000000000 
0.000000000000000 1.000000000000000 0.000000000000000 0.000000000000000 
0.000000000000000 0.000000000000000 1.000000000000000 0.000000000000000 
1
1.000000000000000 0.000000000000000 0.000000000000000 0.000000000000000 
0.000000000000000 1.000000000000000 0.000000000000000 0.000000000000000 
0.000000000000000 0.000000000000000 1.000000000000000 0.000000000000000 
1
1.000000000000000 0.000000000000000 0.000000000000000 0.000000000000000 
0.000000000000000 1.000000000000000 0.000000000000000 0.000000000000000 
0.000000000000000 0.000000000000000 1.000000000000000 0.000000000000000 
1
1.000000000000000 0.000000000000000 0.000000000000000 0.000000000000000 
0.000000000000000 1.000000000000000 0.000000000000000 0.000000000000000 
0.000000000000000 0.000000000000000 1.000000000000000 0.000000000000000 
1
1.000000000000000 0.000000000000000 0.000000000000000 0.000000000000000 
0.000000000000000 1.000000000000000 0.000000000000000 0.000000000000000 
0.000000000000000 0.000000000000000 1.000000000000000 0.000000000000000 
2  10 -1 11 1 12 1 13 -1 14 1 15 -1 16 1 17 -1 18 1 19 -1 20 1 2 -1 1 -1 0
2  3 -1 0
2  1 1 2 1 0
2  3 -1 5 1 0
Curve2ds 47
1 0.00000000000000000 0.00000000000000000 0.00000000000000000 -1.00000000000000000 
1 6.28318530717958623 0.00000000000000000 0.00000000000000000 -1.00000000000000000 
1 0.00000000000000000 0.00000000000000000 1.00000000000000000 0.00000000000000000 
1 0.00000000000000000 -2.00000000000000000 1.00000000000000000 0.00000000000000000 
2 11.42000000000000171 19.48249999999999815 1.00000000000000000 -0.00000000000000000 -0.00000000000000000 -1.00000000000000000 2.20000000000000018
1 0.00000000000000000 0.00000000000000000 0.00000000000000000 -1.00000000000000000 
1 6.28318530717958623 0.00000000000000000 0.00000000000000000 -1.00000000000000000 
1 0.00000000000000000 0.00000000000000000 1.00000000000000000 0.00000000000000000 
1 0.00000000000000000 -2.00000000000000000 1.00000000000000000 0.00000000000000000 
2 11.42000000000000171 19.48249999999999815 1.00000000000000000 -0.00000000000000000 -0.00000000000000000 -1.00000000000000000 0.97499999999999964
2 3.99867063496689923 19.78999999999999915 1.00000000000000000 0.00000000000000000 0.00000000000000000 -1.00000000000000000 0.97499999999999964
1 0.00000000000000000 0.00000000000000000 0.00000000000000000 -1.00000000000000000 
1 6.28318530717958623 0.00000000000000000 0.00000000000000000 -1.00000000000000000 
1 0.00000000000000000 0.00000000000000000 1.00000000000000000 0.00000000000000000 
1 0.00000000000000000 -2.00000000000000000 1.00000000000000000 0.00000000000000000 
2 13.32000000000000028 -18.86749999999999972 1.00000000000000000 -0.00000000000000000 -0.00000000000000000 -1.00000000000000000 2.19999999999999929
2 5.89867063496689870 -18.55999999999999872 1.00000000000000000 0.00000000000000000 0.00000000000000000 -1.00000000000000000 2.19999999999999929
1 0.00000000000000000 0.00000000000000000 0.00000000000000000 -1.00000000000000000 
1 6.28318530717958623 0.00000000000000000 0.00000000000000000 -1.00000000000000000 
1 0.00000000000000000 0.00000000000000000 1.00000000000000000 0.00000000000000000 
1 0.00000000000000000 -2.00000000000000000 1.00000000000000000 0.00000000000000000 
2 13.32000000000000028 -18.86749999999999972 1.00000000000000000 -0.00000000000000000 -0.00000000000000000 -1.00000000000000000 0.97499999999999964
2 5.89867063496689870 -18.55999999999999872 1.00000000000000000 0.00000000000000000 0.00000000000000000 -1.00000000000000000 0.97499999999999964
1 0.00000000000000000 0.00000000000000000 0.00000000000000000 -1.00000000000000000 
1 6.28318530717958623 0.00000000000000000 0.00000000000000000 -1.00000000000000000 
1 0.00000000000000000 0.00000000000000000 1.00000000000000000 0.00000000000000000 
1 0.00000000000000000 -2.00000000000000000 1.00000000000000000 0.00000000000000000 
2 -12.37000000000000099 13.01249999999999929 1.00000000000000000 -0.00000000000000000 -0.00000000000000000 -1.00000000000000000 2.19999999999999929
2 -19.79132936503310347 13.31999999999999851 1.00000000000000000 0.00000000000000000 0.00000000000000000 -1.00000000000000000 2.19999999999999929
1 0.00000000000000000 0.00000000000000000 0.00000000000000000 -1.00000000000000000 
1 6.28318530717958623 0.00000000000000000 0.00000000000000000 -1.00000000000000000 
1 0.00000000000000000 0.00000000000000000 1.00000000000000000 0.00000000000000000 
1 0.00000000000000000 -2.00000000000000000 1.00000000000000000 0.00000000000000000 
2 -12.37000000000000099 13.01249999999999929 1.00000000000000000 -0.00000000000000000 -0.00000000000000000 -1.00000000000000000 0.97500000000000142
2 -19.79132936503310347 13.31999999999999851 1.00000000000000000 0.00000000000000000 0.00000000000000000 -1.00000000000000000 0.97500000000000142
1 0.00000000000000000 0.00000000000000000 0.00000000000000000 -1.00000000000000000 
1 6.28318530717958623 0.00000000000000000 0.00000000000000000 -1.00000000000000000 
1 0.00000000000000000 0.00000000000000000 1.00000000000000000 0.00000000000000000 
1 0.00000000000000000 -2.00000000000000000 1.00000000000000000 0.00000000000000000 
2 -12.37000000000000099 -13.62750000000000128 1.00000000000000000 -0.00000000000000000 -0.00000000000000000 -1.00000000000000000 2.19999999999999929
2 -19.79132936503310347 -13.32000000000000206 1.00000000000000000 0.00000000000000000 0.00000000000000000 -1.00000000000000000 2.19999999999999929
1 0.00000000000000000 0.00000000000000000 0.00000000000000000 -1.00000000000000000 
1 6.28318530717958623 0.00000000000000000 0.00000000000000000 -1.00000000000000000 
1 0.00000000000000000 0.00000000000000000 1.00000000000000000 0.00000000000000000 
1 0.00000000000000000 -2.00000000000000000 1.00000000000000000 0.00000000000000000 
2 -12.37000000000000099 -13.62750000000000128 1.00000000000000000 -0.00000000000000000 -0.00000000000000000 -1.00000000000000000 0.97500000000000142
2 -19.79132936503310347 -13.32000000000000206 1.00000000000000000 0.00000000000000000 0.00000000000000000 -1.00000000000000000 0.97500000000000142
Curves 16
1 7.57000000000000028 19.78999999999999915 6.00000000000000000 0.00000000000000000 0.00000000000000000 -1.00000000000000000 
2 5.37000000000000011 -19.78999999999999915 0.00000000000000000 0.00000000000000000 0.00000000000000000 1.00000000000000000 1.00000000000000000 0.00000000000000000 -0.00000000000000000 -0.00000000000000000 1.00000000000000000 0.00000000000000000 2.20000000000000018
1 6.34499999999999975 19.78999999999999915 6.00000000000000000 0.00000000000000000 0.00000000000000000 -1.00000000000000000 
2 5.37000000000000011 -19.78999999999999915 0.00000000000000000 0.00000000000000000 0.00000000000000000 1.00000000000000000 1.00000000000000000 0.00000000000000000 -0.00000000000000000 -0.00000000000000000 1.00000000000000000 0.00000000000000000 0.97499999999999998
1 9.46999999999999886 -18.55999999999999872 6.00000000000000000 0.00000000000000000 0.00000000000000000 -1.00000000000000000 
2 7.26999999999999957 18.55999999999999872 0.00000000000000000 0.00000000000000000 0.00000000000000000 1.00000000000000000 1.00000000000000000 0.00000000000000000 -0.00000000000000000 -0.00000000000000000 1.00000000000000000 0.00000000000000000 2.20000000000000018
1 8.24499999999999922 -18.55999999999999872 6.00000000000000000 0.00000000000000000 0.00000000000000000 -1.00000000000000000 
2 7.26999999999999957 18.55999999999999872 0.00000000000000000 0.00000000000000000 0.00000000000000000 1.00000000000000000 1.00000000000000000 0.00000000000000000 -0.00000000000000000 -0.00000000000000000 1.00000000000000000 0.00000000000000000 0.97499999999999998
1 -16.22000000000000242 13.32000000000000028 6.00000000000000000 0.00000000000000000 0.00000000000000000 -1.00000000000000000 
2 -18.42000000000000171 -13.32000000000000028 0.00000000000000000 0.00000000000000000 0.00000000000000000 1.00000000000000000 1.00000000000000000 0.00000000000000000 -0.00000000000000000 -0.00000000000000000 1.00000000000000000 0.00000000000000000 2.20000000000000018
1 -17.44500000000000028 13.32000000000000028 6.00000000000000000 0.00000000000000000 0.00000000000000000 -1.00000000000000000 
2 -18.42000000000000171 -13.32000000000000028 0.00000000000000000 0.00000000000000000 0.00000000000000000 1.00000000000000000 1.00000000000000000 0.00000000000000000 -0.00000000000000000 -0.00000000000000000 1.00000000000000000 0.00000000000000000 0.97499999999999998
1 -16.22000000000000242 -13.32000000000000028 6.00000000000000000 0.00000000000000000 0.00000000000000000 -1.00000000000000000 
2 -18.42000000000000171 13.32000000000000028 0.00000000000000000 0.00000000000000000 0.00000000000000000 1.00000000000000000 1.00000000000000000 0.00000000000000000 -0.00000000000000000 -0.00000000000000000 1.00000000000000000 0.00000000000000000 2.20000000000000018
1 -17.44500000000000028 -13.32000000000000028 6.00000000000000000 0.00000000000000000 0.00000000000000000 -1.00000000000000000 
2 -18.42000000000000171 13.32000000000000028 0.00000000000000000 0.00000000000000000 0.00000000000000000 1.00000000000000000 1.00000000000000000 0.00000000000000000 -0.00000000000000000 -0.00000000000000000 1.00000000000000000 0.00000000000000000 0.97499999999999998
Polygon3D 0
PolygonOnTriangulations 0
Surfaces 13
2 5.37000000000000011 19.78999999999999915 6.00000000000000000 -0.00000000000000000 -0.00000000000000000 1.00000000000000000 1.00000000000000000 0.00000000000000000 0.00000000000000000 0.00000000000000000 -1.00000000000000000 -0.00000000000000000 2.20000000000000018
1 -6.05000000000000071 0.30750000000000027 5.99999999999999911 0.00000000000000000 0.00000000000000000 1.00000000000000000 1.00000000000000000 0.00000000000000000 -0.00000000000000000 -0.00000000000000000 1.00000000000000000 0.00000000000000000 
2 5.37000000000000011 19.78999999999999915 6.00000000000000000 -0.00000000000000000 -0.00000000000000000 1.00000000000000000 1.00000000000000000 0.00000000000000000 0.00000000000000000 0.00000000000000000 -1.00000000000000000 -0.00000000000000000 0.97499999999999998
1 1.37132936503310110 0.00000000000000116 0.00000000000000000 0.00000000000000000 0.00000000000000000 1.00000000000000000 1.00000000000000000 0.00000000000000000 -0.00000000000000000 -0.00000000000000000 1.00000000000000000 0.00000000000000000 
2 7.26999999999999957 -18.55999999999999872 6.00000000000000000 -0.00000000000000000 -0.00000000000000000 1.00000000000000000 1.00000000000000000 0.00000000000000000 0.00000000000000000 0.00000000000000000 -1.00000000000000000 -0.00000000000000000 2.20000000000000018
1 -6.05000000000000071 0.30750000000000027 5.99999999999999911 0.00000000000000000 0.00000000000000000 1.00000000000000000 1.00000000000000000 0.00000000000000000 -0.00000000000000000 -0.00000000000000000 1.00000000000000000 0.00000000000000000 
2 7.26999999999999957 -18.55999999999999872 6.00000000000000000 -0.00000000000000000 -0.00000000000000000 1.00000000000000000 1.00000000000000000 0.00000000000000000 0.00000000000000000 0.00000000000000000 -1.00000000000000000 -0.00000000000000000 0.97499999999999998
2 -18.42000000000000171 13.32000000000000028 6.00000000000000000 -0.00000000000000000 -0.00000000000000000 1.00000000000000000 1.00000000000000000 0.00000000000000000 0.00000000000000000 0.00000000000000000 -1.00000000000000000 -0.00000000000000000 2.20000000000000018
1 -6.05000000000000071 0.30750000000000027 5.99999999999999911 0.00000000000000000 0.00000000000000000 1.00000000000000000 1.00000000000000000 0.00000000000000000 -0.00000000000000000 -0.00000000000000000 1.00000000000000000 0.00000000000000000 
2 -18.42000000000000171 13.32000000000000028 6.00000000000000000 -0.00000000000000000 -0.00000000000000000 1.00000000000000000 1.00000000000000000 0.00000000000000000 0.00000000000000000 0.00000000000000000 -1.00000000000000000 -0.00000000000000000 0.97499999999999998
2 -18.42000000000000171 -13.32000000000000028 6.00000000000000000 -0.00000000000000000 -0.00000000000000000 1.00000000000000000 1.00000000000000000 0.00000000000000000 0.00000000000000000 0.00000000000000000 -1.00000000000000000 -0.00000000000000000 2.20000000000000018
1 -6.05000000000000071 0.30750000000000027 5.99999999999999911 0.00000000000000000 0.00000000000000000 1.00000000000000000 1.00000000000000000 0.00000000000000000 -0.00000000000000000 -0.00000000000000000 1.00000000000000000 0.00000000000000000 
2 -18.42000000000000171 -13.32000000000000028 6.00000000000000000 -0.00000000000000000 -0.00000000000000000 1.00000000000000000 1.00000000000000000 0.00000000000000000 0.00000000000000000 0.00000000000000000 -1.00000000000000000 -0.00000000000000000 0.97499999999999998
Triangulations 0

TShapes 61
Ve
0.000000100000000
7.570000000000000 -19.789999999999999 0.000000000000000
0 0

0101101
*
Ed
 0.000000100000000 1 1 0
1  1 0 0.000000000000000 2.000000000000000
3  1 2CN 1 0 0.000000000000000 2.000000000000000
0

0101000
+61 4 -61 6 *
Ed
 0.000000100000000 1 1 0
1  2 0 0.000000000000000 6.283185307179586
2  3 1 7 0.000000000000000 6.283185307179586
2  4 1 8 0.000000000000000 6.283185307179586
2  5 2 9 0.000000000000000 6.283185307179586
0

0101000
+61 0 -61 0 *
Wi

0101100
+60 0 -60 0 -59 4 +59 6 *
Fa
0  0.000000100000000 1 0

0111000
+58 0 *
Ve
0.000000100000000
6.345000000000000 -19.789999999999999 0.000000000000000
0 0

0101101
*
Ed
 0.000000100000000 1 1 0
1  3 0 0.000000000000000 2.000000000000000
3  6 7CN 3 0 0.000000000000000 2.000000000000000
0

0101000
+56 4 -56 6 *
Ed
 0.000000100000000 1 1 0
1  4 0 0.000000000000000 6.283185307179586
2  8 3 7 0.000000000000000 6.283185307179586
2  9 3 8 0.000000000000000 6.283185307179586
2  10 2 9 0.000000000000000 6.283185307179586
2  11 4 21 0.000000000000000 6.283185307179586
0

0101000
+56 0 -56 0 *
Wi

0101100
+55 0 -55 0 -54 4 +54 6 *
Fa
0  0.000000100000000 3 0

0111000
+53 0 *
Wi

0101100
+59 0 *
Wi

0101100
+54 0 *
Fa
0  0.000000100000000 2 0

0111000
-51 23 +50 23 *
Sh

0101100
-57 0 +52 0 +49 22 -49 24 *
So

0100000
+48 0 *
Ve
0.000000100000000
9.469999999999999 18.559999999999999 0.000000000000000
0 0

0101101
*
Ed
 0.000000100000000 1 1 0
1  5 0 0.000000000000000 2.000000000000000
3  12 13CN 5 0 0.000000000000000 2.000000000000000
0

0101000
+46 4 -46 6 *
Ed
 0.000000100000000 1 1 0
1  6 0 0.000000000000000 6.283185307179586
2  14 5 7 0.000000000000000 6.283185307179586
2  15 5 8 0.000000000000000 6.283185307179586
2  16 6 9 0.000000000000000 6.283185307179586
2  17 4 21 0.000000000000000 6.283185307179586
0

0101000
+46 0 -46 0 *
Wi

0101100
+45 0 -45 0 -44 4 +44 6 *
Fa
0  0.000000100000000 5 0

0111000
+43 0 *
Ve
0.000000100000000
8.244999999999999 18.559999999999999 0.000000000000000
0 0

0101101
*
Ed
 0.000000100000000 1 1 0
1  7 0 0.000000000000000 2.000000000000000
3  18 19CN 7 0 0.000000000000000 2.000000000000000
0

0101000
+41 4 -41 6 *
Ed
 0.000000100000000 1 1 0
1  8 0 0.000000000000000 6.283185307179586
2  20 7 7 0.000000000000000 6.283185307179586
2  21 7 8 0.000000000000000 6.283185307179586
2  22 6 9 0.000000000000000 6.283185307179586
2  23 4 21 0.000000000000000 6.283185307179586
0

0101000
+41 0 -41 0 *
Wi

0101100
+40 0 -40 0 -39 4 +39 6 *
Fa
0  0.000000100000000 7 0

0111000
+38 0 *
Wi

0101100
+44 0 *
Wi

0101100
+39 0 *
Fa
0  0.000000100000000 6 0

0111000
-36 23 +35 23 *
Sh

0101100
-42 0 +37 0 +34 22 -34 24 *
So

0100000
+33 0 *
Ve
0.000000100000000
-16.220000000000002 -13.320000000000000 0.000000000000000
0 0

0101101
*
Ed
 0.000000100000000 1 1 0
1  9 0 0.000000000000000 2.000000000000000
3  24 25CN 8 0 0.000000000000000 2.000000000000000
0

0101000
+31 4 -31 6 *
Ed
 0.000000100000000 1 1 0
1  10 0 0.000000000000000 6.283185307179586
2  26 8 7 0.000000000000000 6.283185307179586
2  27 8 8 0.000000000000000 6.283185307179586
2  28 9 9 0.000000000000000 6.283185307179586
2  29 4 21 0.000000000000000 6.283185307179586
0

0101000
+31 0 -31 0 *
Wi

0101100
+30 0 -30 0 -29 4 +29 6 *
Fa
0  0.000000100000000 8 0

0111000
+28 0 *
Ve
0.000000100000000
-17.445000000000000 -13.320000000000000 0.000000000000000
0 0

0101101
*
Ed
 0.000000100000000 1 1 0
1  11 0 0.000000000000000 2.000000000000000
3  30 31CN 10 0 0.000000000000000 2.000000000000000
0

0101000
+26 4 -26 6 *
Ed
 0.000000100000000 1 1 0
1  12 0 0.000000000000000 6.283185307179586
2  32 10 7 0.000000000000000 6.283185307179586
2  33 10 8 0.000000000000000 6.283185307179586
2  34 9 9 0.000000000000000 6.283185307179586
2  35 4 21 0.000000000000000 6.283185307179586
0

0101000
+26 0 -26 0 *
Wi

0101100
+25 0 -25 0 -24 4 +24 6 *
Fa
0  0.000000100000000 10 0

0111000
+23 0 *
Wi

0101100
+29 0 *
Wi

0101100
+24 0 *
Fa
0  0.000000100000000 9 0

0111000
-21 23 +20 23 *
Sh

0101100
-27 0 +22 0 +19 22 -19 24 *
So

0100000
+18 0 *
Ve
0.000000100000000
-16.220000000000002 13.320000000000000 0.000000000000000
0 0

0101101
*
Ed
 0.000000100000000 1 1 0
1  13 0 0.000000000000000 2.000000000000000
3  36 37CN 11 0 0.000000000000000 2.000000000000000
0

0101000
+16 4 -16 6 *
Ed
 0.000000100000000 1 1 0
1  14 0 0.000000000000000 6.283185307179586
2  38 11 7 0.000000000000000 6.283185307179586
2  39 11 8 0.000000000000000 6.283185307179586
2  40 12 9 0.000000000000000 6.283185307179586
2  41 4 21 0.000000000000000 6.283185307179586
0

0101000
+16 0 -16 0 *
Wi

0101100
+15 0 -15 0 -14 4 +14 6 *
Fa
0  0.000000100000000 11 0

0111000
+13 0 *
Ve
0.000000100000000
-17.445000000000000 13.320000000000000 0.000000000000000
0 0

0101101
*
Ed
 0.000000100000000 1 1 0
1  15 0 0.000000000000000 2.000000000000000
3  42 43CN 13 0 0.000000000000000 2.000000000000000
0

0101000
+11 4 -11 6 *
Ed
 0.000000100000000 1 1 0
1  16 0 0.000000000000000 6.283185307179586
2  44 13 7 0.000000000000000 6.283185307179586
2  45 13 8 0.000000000000000 6.283185307179586
2  46 12 9 0.000000000000000 6.283185307179586
2  47 4 21 0.000000000000000 6.283185307179586
0

0101000
+11 0 -11 0 *
Wi

0101100
+10 0 -10 0 -9 4 +9 6 *
Fa
0  0.000000100000000 13 0

0111000
+8 0 *
Wi

0101100
+14 0 *
Wi

0101100
+9 0 *
Fa
0  0.000000100000000 12 0

0111000
-6 23 +5 23 *
Sh

0101100
-12 0 +7 0 +4 22 -4 24 *
So

0100000
+3 0 *
Co

1100000
+47 0 +32 0 +17 0 +2 0 *

+1 0 