
CASCADE Topology V1, (c) Matra-Datavision
Locations 35
1
1.000000000000000 0.000000000000000 0.000000000000000 0.000000000000000 
0.000000000000000 1.000000000000000 0.000000000000000 0.000000000000000 
0.000000000000000 0.000000000000000 1.000000000000000 0.000000000000000 
1
1.000000000000000 0.000000000000000 0.000000000000000 0.000000000000000 
0.000000000000000 1.000000000000000 0.000000000000000 0.000000000000000 
0.000000000000000 0.000000000000000 1.000000000000000 0.000000000000000 
1
1.000000000000000 0.000000000000000 0.000000000000000 0.000000000000000 
0.000000000000000 1.000000000000000 0.000000000000000 0.000000000000000 
0.000000000000000 0.000000000000000 1.000000000000000 0.000000000000000 
1
1.000000000000000 0.000000000000000 0.000000000000000 0.000000000000000 
0.000000000000000 1.000000000000000 0.000000000000000 0.000000000000000 
0.000000000000000 0.000000000000000 1.000000000000000 0.000000000000000 
1
1.000000000000000 0.000000000000000 0.000000000000000 0.000000000000000 
0.000000000000000 1.000000000000000 0.000000000000000 0.000000000000000 
0.000000000000000 0.000000000000000 1.000000000000000 0.000000000000000 
1
1.000000000000000 0.000000000000000 0.000000000000000 0.000000000000000 
0.000000000000000 1.000000000000000 0.000000000000000 0.000000000000000 
0.000000000000000 0.000000000000000 1.000000000000000 0.000000000000000 
1
1.000000000000000 0.000000000000000 0.000000000000000 0.000000000000000 
0.000000000000000 1.000000000000000 0.000000000000000 0.000000000000000 
0.000000000000000 0.000000000000000 1.000000000000000 0.000000000000000 
1
1.000000000000000 0.000000000000000 0.000000000000000 0.000000000000000 
0.000000000000000 1.000000000000000 0.000000000000000 0.000000000000000 
0.000000000000000 0.000000000000000 1.000000000000000 0.000000000000000 
1
1.000000000000000 0.000000000000000 0.000000000000000 0.000000000000000 
0.000000000000000 1.000000000000000 0.000000000000000 0.000000000000000 
0.000000000000000 0.000000000000000 1.000000000000000 0.000000000000000 
1
1.000000000000000 0.000000000000000 0.000000000000000 0.000000000000000 
0.000000000000000 1.000000000000000 0.000000000000000 0.000000000000000 
0.000000000000000 0.000000000000000 1.000000000000000 0.000000000000000 
1
1.000000000000000 0.000000000000000 0.000000000000000 0.000000000000000 
0.000000000000000 1.000000000000000 0.000000000000000 0.000000000000000 
0.000000000000000 0.000000000000000 1.000000000000000 0.000000000000000 
1
1.000000000000000 0.000000000000000 0.000000000000000 0.000000000000000 
0.000000000000000 1.000000000000000 0.000000000000000 0.000000000000000 
0.000000000000000 0.000000000000000 1.000000000000000 0.000000000000000 
1
1.000000000000000 0.000000000000000 0.000000000000000 0.000000000000000 
0.000000000000000 1.000000000000000 0.000000000000000 0.000000000000000 
0.000000000000000 0.000000000000000 1.000000000000000 0.000000000000000 
1
1.000000000000000 0.000000000000000 0.000000000000000 0.000000000000000 
0.000000000000000 1.000000000000000 0.000000000000000 0.000000000000000 
0.000000000000000 0.000000000000000 1.000000000000000 0.000000000000000 
2  1 1 2 -1 3 1 4 -1 5 1 6 -1 7 1 8 -1 9 1 10 -1 11 1 12 -1 13 1 14 -1 0
1
1.000000000000000 0.000000000000000 0.000000000000000 0.000000000000000 
0.000000000000000 1.000000000000000 0.000000000000000 0.000000000000000 
0.000000000000000 0.000000000000000 1.000000000000000 0.000000000000000 
1
-1.000000000000000 0.000000000000000 0.000000000000000 0.000000000000000 
0.000000000000000 -1.000000000000000 0.000000000000000 0.000000000000000 
0.000000000000000 0.000000000000000 1.000000000000000 0.000000000000000 
2  16 1 17 1 14 -1 0
1
1.000000000000000 0.000000000000000 0.000000000000000 0.000000000000000 
0.000000000000000 1.000000000000000 0.000000000000000 0.000000000000000 
0.000000000000000 0.000000000000000 1.000000000000000 4.000000000000000 
2  16 1 17 1 14 -1 19 1 0
1
1.000000000000000 0.000000000000000 0.000000000000000 0.000000000000000 
0.000000000000000 1.000000000000000 0.000000000000000 0.000000000000000 
0.000000000000000 0.000000000000000 1.000000000000000 0.000000000000000 
1
1.000000000000000 0.000000000000000 0.000000000000000 0.000000000000000 
0.000000000000000 1.000000000000000 0.000000000000000 0.000000000000000 
0.000000000000000 0.000000000000000 1.000000000000000 0.000000000000000 
2  21 1 22 -1 1 1 2 -1 3 1 4 -1 5 1 6 -1 7 1 8 -1 9 1 10 -1 11 1 12 -1 13 1 14 -1 0
2  14 1 17 -1 16 -1 0
2  19 -1 14 1 17 -1 16 -1 0
2  17 -1 16 -1 0
1
1.000000000000000 0.000000000000000 0.000000000000000 0.000000000000000 
0.000000000000000 1.000000000000000 0.000000000000000 0.000000000000000 
0.000000000000000 0.000000000000000 1.000000000000000 0.000000000000000 
2  27 -1 21 1 22 -1 1 1 2 -1 3 1 4 -1 5 1 6 -1 7 1 8 -1 9 1 10 -1 11 1 12 -1 13 1 17 -1 16 -1 0
2  1 1 2 -1 3 1 4 -1 5 1 6 -1 7 1 8 -1 9 1 10 -1 11 1 12 -1 13 1 14 -1 19 -1 14 1 17 -1 16 -1 0
2  1 1 2 -1 3 1 4 -1 5 1 6 -1 7 1 8 -1 9 1 10 -1 11 1 12 -1 13 1 17 -1 16 -1 0
2  21 1 22 -1 1 1 2 -1 3 1 4 -1 5 1 6 -1 7 1 8 -1 9 1 10 -1 11 1 12 -1 13 1 14 -1 19 -1 14 1 17 -1 16 -1 0
2  21 1 22 -1 1 1 2 -1 3 1 4 -1 5 1 6 -1 7 1 8 -1 9 1 10 -1 11 1 12 -1 13 1 17 -1 16 -1 0
2  14 -1 0
2  16 1 17 1 0
2  14 -1 19 1 0
Curve2ds 93
1 5.09085064631966233 0.00000000000000000 0.00000000000000000 -1.00000000000000000 
1 0.00000000000000000 0.00000000000000000 0.00000000000000000 -1.00000000000000000 
1 1.94925799272986899 0.00000000000000000 0.00000000000000000 -1.00000000000000000 
1 5.09085064631966233 0.00000000000000000 0.00000000000000000 -1.00000000000000000 
1 1.70000000000000329 0.00000000000000000 0.00000000000000000 -1.00000000000000000 
1 1.94925799272986899 0.00000000000000000 0.00000000000000000 -1.00000000000000000 
1 0.00000000000000000 0.00000000000000000 1.00000000000000000 0.00000000000000000 
1 0.00000000000000000 -4.00000000000000000 1.00000000000000000 0.00000000000000000 
1 -8.31355422047027481 -0.27151174645584319 -0.36949143464623524 0.92923413611590211 
1 -9.83521213915335402 20.90776806260897303 -0.36949143464623524 0.92923413611590211 
1 5.38112486564631443 0.00000000000000000 0.00000000000000000 -1.00000000000000000 
1 0.00000000000000000 0.00000000000000000 0.00000000000000000 -1.00000000000000000 
1 2.23953221205652087 0.00000000000000000 0.00000000000000000 -1.00000000000000000 
1 0.00000000000000000 0.00000000000000000 1.00000000000000000 0.00000000000000000 
1 0.00000000000000000 -4.00000000000000000 1.00000000000000000 0.00000000000000000 
2 0.00000305907000693 -21.17927980906364382 -1.00000000000000000 0.00000000000000012 -0.00000000000000012 -1.00000000000000000 22.50000000000000000
1 -3.14159265358979312 -4.00000000000000000 1.00000000000000000 0.00000000000000000 
8 5.09085064631966233 5.38112486564631443
1 -3.14159265358979312 0.00000000000000000 1.00000000000000000 0.00000000000000000 
2 -1.52165485961307145 0.00000000000117248 -1.00000000000000000 0.00000000000000012 -0.00000000000000012 -1.00000000000000000 22.50000000000000000
1 5.38112486564631443 0.00000000000000000 0.00000000000000000 -1.00000000000000000 
1 1.70000000000000817 0.00000000000000000 0.00000000000000000 -1.00000000000000000 
1 2.23953221205652087 0.00000000000000000 0.00000000000000000 -1.00000000000000000 
1 0.00000000000000000 0.00000000000000000 1.00000000000000000 0.00000000000000000 
1 0.00000000000000000 -4.00000000000000000 1.00000000000000000 0.00000000000000000 
1 -13.94987657981114637 -3.52564397786079908 -0.61999465061694015 0.78460603694234876 
1 -15.47153449849422557 17.65363583120401714 -0.61999465061694015 0.78460603694234876 
1 0.00000000000000000 0.00000000000000000 1.00000000000000000 0.00000000000000000 
1 0.00000000000000000 -4.00000000000000000 1.00000000000000000 0.00000000000000000 
2 0.00000305907000693 -21.17927980906364382 -1.00000000000000000 0.00000000000000012 -0.00000000000000012 -1.00000000000000000 24.20000000000000284
1 -3.14159265358979312 -4.00000000000000000 1.00000000000000000 0.00000000000000000 
8 5.09085064631966233 5.38112486564631443
1 -3.14159265358979312 0.00000000000000000 1.00000000000000000 0.00000000000000000 
2 -1.52165485961307145 0.00000000000117248 -1.00000000000000000 0.00000000000000012 -0.00000000000000012 -1.00000000000000000 24.20000000000000284
1 4.04365309512306492 0.00000000000000000 0.00000000000000000 -1.00000000000000000 
1 0.00000000000000000 0.00000000000000000 0.00000000000000000 -1.00000000000000000 
1 0.90206044153327170 0.00000000000000000 0.00000000000000000 -1.00000000000000000 
1 4.04365309512306492 0.00000000000000000 0.00000000000000000 -1.00000000000000000 
1 1.69999999999999263 0.00000000000000000 0.00000000000000000 -1.00000000000000000 
1 0.90206044153327147 0.00000000000000000 0.00000000000000000 -1.00000000000000000 
1 0.00000000000000000 0.00000000000000000 1.00000000000000000 0.00000000000000000 
1 0.00000000000000000 -4.00000000000000000 1.00000000000000000 0.00000000000000000 
1 13.94988269795117297 -3.52564397786080264 0.61999465061694115 0.78460603694234798 
1 12.42822477926809377 17.65363583120401358 0.61999465061694115 0.78460603694234798 
1 4.33392731444971702 0.00000000000000000 0.00000000000000000 -1.00000000000000000 
1 0.00000000000000000 0.00000000000000000 0.00000000000000000 -1.00000000000000000 
1 1.19233466085992368 0.00000000000000000 0.00000000000000000 -1.00000000000000000 
1 0.00000000000000000 0.00000000000000000 1.00000000000000000 0.00000000000000000 
1 0.00000000000000000 -4.00000000000000000 1.00000000000000000 0.00000000000000000 
2 0.00000305907000693 -21.17927980906364382 -1.00000000000000000 0.00000000000000012 -0.00000000000000012 -1.00000000000000000 22.50000000000000000
1 -3.14159265358979312 -4.00000000000000000 1.00000000000000000 0.00000000000000000 
8 4.04365309512306492 4.33392731444971702
1 -3.14159265358979312 0.00000000000000000 1.00000000000000000 0.00000000000000000 
2 -1.52165485961307145 0.00000000000117248 -1.00000000000000000 0.00000000000000012 -0.00000000000000012 -1.00000000000000000 22.50000000000000000
1 4.33392731444971702 0.00000000000000000 0.00000000000000000 -1.00000000000000000 
1 1.69999999999999951 0.00000000000000000 0.00000000000000000 -1.00000000000000000 
1 1.19233466085992368 0.00000000000000000 0.00000000000000000 -1.00000000000000000 
1 0.00000000000000000 0.00000000000000000 1.00000000000000000 0.00000000000000000 
1 0.00000000000000000 -4.00000000000000000 1.00000000000000000 0.00000000000000000 
1 8.31356033861029964 -0.27151174645584675 0.36949143464623529 0.92923413611590211 
1 6.79190241992722132 20.90776806260896947 0.36949143464623529 0.92923413611590211 
1 0.00000000000000000 0.00000000000000000 1.00000000000000000 0.00000000000000000 
1 0.00000000000000000 -4.00000000000000000 1.00000000000000000 0.00000000000000000 
2 0.00000305907000693 -21.17927980906364382 -1.00000000000000000 0.00000000000000012 -0.00000000000000012 -1.00000000000000000 24.19999999999999929
1 -3.14159265358979312 -4.00000000000000000 1.00000000000000000 0.00000000000000000 
8 4.04365309512306492 4.33392731444971702
1 -3.14159265358979312 0.00000000000000000 1.00000000000000000 0.00000000000000000 
2 -1.52165485961307145 0.00000000000117248 -1.00000000000000000 0.00000000000000012 -0.00000000000000012 -1.00000000000000000 24.19999999999999929
1 4.55619986484444350 0.00000000000000000 0.00000000000000000 -1.00000000000000000 
1 0.00000000000000000 0.00000000000000000 0.00000000000000000 -1.00000000000000000 
1 1.41460721125465017 0.00000000000000000 0.00000000000000000 -1.00000000000000000 
1 4.86857952496749835 0.00000000000000000 0.00000000000000000 -1.00000000000000000 
1 0.00000000000000000 0.00000000000000000 0.00000000000000000 -1.00000000000000000 
1 1.72698687137770501 0.00000000000000000 0.00000000000000000 -1.00000000000000000 
1 0.00000000000000000 0.00000000000000000 1.00000000000000000 0.00000000000000000 
1 0.00000000000000000 -4.00000000000000000 1.00000000000000000 0.00000000000000000 
2 0.00000305907000693 -21.17927980906364382 -1.00000000000000000 0.00000000000000012 -0.00000000000000012 -1.00000000000000000 22.50000000000000000
1 -3.14159265358979312 -4.00000000000000000 1.00000000000000000 0.00000000000000000 
8 4.55619986484444350 4.86857952496749835
1 -3.14159265358979312 0.00000000000000000 1.00000000000000000 0.00000000000000000 
2 -1.52165485961307145 0.00000000000117248 -1.00000000000000000 0.00000000000000012 -0.00000000000000012 -1.00000000000000000 22.50000000000000000
1 4.56725075804124714 0.00000000000000000 0.00000000000000000 -1.00000000000000000 
1 1.71944999173429092 0.00000000000000000 0.00000000000000000 -1.00000000000000000 
1 1.42565921713157051 0.00000000000000000 0.00000000000000000 -1.00000000000000000 
1 0.00000000000000000 0.00000000000000000 1.00000000000000000 0.00000000000000000 
1 0.00000000000000000 -4.00000000000000000 1.00000000000000000 0.00000000000000000 
1 3.49998717806396131 1.04683346264425836 0.00000923609649810 0.99999999995734734 
1 1.97832925938088278 22.22611327170907458 0.00000923609649810 0.99999999995734734 
1 4.85752720272813310 0.00000000000000000 0.00000000000000000 -1.00000000000000000 
1 1.71945499338325636 0.00000000000000000 0.00000000000000000 -1.00000000000000000 
1 1.71593343645822261 0.00000000000000000 0.00000000000000000 -1.00000000000000000 
1 0.00000000000000000 0.00000000000000000 1.00000000000000000 0.00000000000000000 
1 0.00000000000000000 -4.00000000000000000 1.00000000000000000 0.00000000000000000 
2 0.00000305907001233 -21.17909363048558902 -1.00000000000000000 0.00000000000000012 -0.00000000000000012 -1.00000000000000000 24.19981577890262159
1 0.00000000000000000 0.00000000000000000 1.00000000000000000 0.00000000000000000 
1 0.00000000000000000 -4.00000000000000000 1.00000000000000000 0.00000000000000000 
1 -3.50001282198222441 1.04682846099528959 0.00000923609649255 0.99999999995734734 
1 -5.02167074066530272 22.22610827006010581 0.00000923609649255 0.99999999995734734 
Curves 24
1 -8.31355727954028190 20.90776806260780063 0.00000000000000000 0.00000000000000000 0.00000000000000000 1.00000000000000000 
1 -8.94169271843888147 22.48746609400483720 0.00000000000000000 0.00000000000000000 0.00000000000000000 1.00000000000000000 
1 8.31355727954028367 -20.90776806260780063 0.00000000000000000 0.36949143464623535 -0.92923413611590211 0.00000000000000000 
1 -13.94987963888115345 17.65363583120284474 0.00000000000000000 0.00000000000000000 0.00000000000000000 1.00000000000000000 
2 0.00000000000000000 0.00000000000000000 0.00000000000000000 0.00000000000000000 0.00000000000000000 1.00000000000000000 1.00000000000000000 0.00000000000000000 -0.00000000000000000 -0.00000000000000000 1.00000000000000000 0.00000000000000000 22.50000000000000000
1 -15.00387054492995453 18.98746609400484431 0.00000000000000000 0.00000000000000000 0.00000000000000000 1.00000000000000000 
1 13.94987963888115523 -17.65363583120284474 0.00000000000000000 0.61999465061694026 -0.78460603694234865 0.00000000000000000 
2 0.00000000000000000 0.00000000000000000 0.00000000000000000 0.00000000000000000 0.00000000000000000 1.00000000000000000 1.00000000000000000 0.00000000000000000 -0.00000000000000000 -0.00000000000000000 1.00000000000000000 0.00000000000000000 24.20000000000000284
1 13.94987963888116589 17.65363583120284119 0.00000000000000000 0.00000000000000000 0.00000000000000000 1.00000000000000000 
1 15.00387054492996342 18.98746609400482654 0.00000000000000000 0.00000000000000000 0.00000000000000000 1.00000000000000000 
1 -13.94987963888116411 -17.65363583120284119 0.00000000000000000 -0.61999465061694103 -0.78460603694234810 0.00000000000000000 
1 8.31355727954029255 20.90776806260779708 0.00000000000000000 0.00000000000000000 0.00000000000000000 1.00000000000000000 
2 0.00000000000000000 0.00000000000000000 0.00000000000000000 0.00000000000000000 0.00000000000000000 1.00000000000000000 1.00000000000000000 0.00000000000000000 -0.00000000000000000 -0.00000000000000000 1.00000000000000000 0.00000000000000000 22.50000000000000000
1 8.94169271843889391 22.48746609400483010 0.00000000000000000 0.00000000000000000 0.00000000000000000 1.00000000000000000 
1 -8.31355727954029078 -20.90776806260779708 0.00000000000000000 -0.36949143464623524 -0.92923413611590222 0.00000000000000000 
2 0.00000000000000000 0.00000000000000000 0.00000000000000000 0.00000000000000000 0.00000000000000000 1.00000000000000000 1.00000000000000000 0.00000000000000000 -0.00000000000000000 -0.00000000000000000 1.00000000000000000 0.00000000000000000 24.19999999999999929
1 3.49998411899395423 22.22611327170790219 0.00000000000000000 0.00000000000000000 0.00000000000000000 1.00000000000000000 
1 -3.50001588105223149 22.22610827005893341 0.00000000000000000 0.00000000000000000 0.00000000000000000 1.00000000000000000 
2 0.00000000000000000 0.00000000000000000 0.00000000000000000 0.00000000000000000 0.00000000000000000 1.00000000000000000 1.00000000000000000 0.00000000000000000 -0.00000000000000000 -0.00000000000000000 1.00000000000000000 0.00000000000000000 22.50000000000000000
1 3.50000000000000178 23.94556326336885377 0.00000000000000000 0.00000000000000000 0.00000000000000000 1.00000000000000000 
1 -3.49998411899395157 -22.22611327170790219 0.00000000000000000 -0.00000923609649798 -0.99999999995734734 0.00000000000000000 
1 -3.49999999999999778 23.94556326336885022 0.00000000000000000 0.00000000000000000 0.00000000000000000 1.00000000000000000 
2 -0.00000000000000540 -0.00018617857805600 0.00000000000000000 0.00000000000000000 0.00000000000000000 1.00000000000000000 1.00000000000000000 0.00000000000000000 -0.00000000000000000 -0.00000000000000000 1.00000000000000000 0.00000000000000000 24.19981577890262159
1 3.50001588105223416 -22.22610827005893341 0.00000000000000000 -0.00000923609649242 -0.99999999995734734 0.00000000000000000 
Polygon3D 0
PolygonOnTriangulations 0
Surfaces 18
1 -8.31355727954028190 20.90776806260780063 0.00000000000000000 -0.92923413611590211 -0.36949143464623524 0.00000000000000000 -0.36949143464623524 0.92923413611590211 0.00000000000000000 -0.00000000000000000 0.00000000000000000 -1.00000000000000000 
2 0.00000000000000000 0.00000000000000000 0.00000000000000000 -0.00000000000000000 -0.00000000000000000 -1.00000000000000000 -1.00000000000000000 0.00000000000000012 0.00000000000000000 -0.00000000000000012 -1.00000000000000000 0.00000000000000000 22.50000000000000000
2 0.00000000000000000 0.00000000000000000 0.00000000000000000 -0.00000000000000000 -0.00000000000000000 -1.00000000000000000 1.00000000000000000 0.00000000000000000 0.00000000000000000 -0.00000000000000000 1.00000000000000000 -0.00000000000000000 22.50000000000000000
2 0.00000000000000000 0.00000000000000000 0.00000000000000000 -0.00000000000000000 -0.00000000000000000 -1.00000000000000000 -1.00000000000000000 0.00000000000000012 0.00000000000000000 -0.00000000000000012 -1.00000000000000000 0.00000000000000000 24.20000000000000284
2 0.00000000000000000 0.00000000000000000 0.00000000000000000 -0.00000000000000000 -0.00000000000000000 -1.00000000000000000 1.00000000000000000 0.00000000000000000 0.00000000000000000 -0.00000000000000000 1.00000000000000000 -0.00000000000000000 24.19999999999999929
1 -0.00000305907000693 21.17927980906364382 0.00000000000000000 0.00000000000000000 0.00000000000000000 1.00000000000000000 1.00000000000000000 0.00000000000000000 -0.00000000000000000 -0.00000000000000000 1.00000000000000000 0.00000000000000000 
1 1.52165485961307145 -0.00000000000117248 0.00000000000000000 0.00000000000000000 0.00000000000000000 1.00000000000000000 1.00000000000000000 0.00000000000000000 -0.00000000000000000 -0.00000000000000000 1.00000000000000000 0.00000000000000000 
1 -13.94987963888115345 17.65363583120284474 0.00000000000000000 -0.78460603694234876 -0.61999465061694015 0.00000000000000000 -0.61999465061694015 0.78460603694234876 0.00000000000000000 -0.00000000000000000 0.00000000000000000 -1.00000000000000000 
1 13.94987963888116589 17.65363583120284119 0.00000000000000000 -0.78460603694234798 0.61999465061694115 0.00000000000000000 0.61999465061694115 0.78460603694234798 0.00000000000000000 0.00000000000000000 0.00000000000000000 -1.00000000000000000 
2 0.00000000000000000 0.00000000000000000 0.00000000000000000 -0.00000000000000000 -0.00000000000000000 -1.00000000000000000 -1.00000000000000000 0.00000000000000012 0.00000000000000000 -0.00000000000000012 -1.00000000000000000 0.00000000000000000 22.50000000000000000
2 0.00000000000000000 0.00000000000000000 0.00000000000000000 -0.00000000000000000 -0.00000000000000000 -1.00000000000000000 -1.00000000000000000 0.00000000000000012 0.00000000000000000 -0.00000000000000012 -1.00000000000000000 0.00000000000000000 24.19999999999999929
1 -0.00000305907000693 21.17927980906364382 0.00000000000000000 0.00000000000000000 0.00000000000000000 1.00000000000000000 1.00000000000000000 0.00000000000000000 -0.00000000000000000 -0.00000000000000000 1.00000000000000000 0.00000000000000000 
1 8.31355727954029255 20.90776806260779708 0.00000000000000000 -0.92923413611590211 0.36949143464623529 0.00000000000000000 0.36949143464623529 0.92923413611590211 0.00000000000000000 0.00000000000000000 0.00000000000000000 -1.00000000000000000 
2 0.00000000000000000 0.00000000000000000 0.00000000000000000 -0.00000000000000000 -0.00000000000000000 -1.00000000000000000 -1.00000000000000000 0.00000000000000012 0.00000000000000000 -0.00000000000000012 -1.00000000000000000 0.00000000000000000 22.50000000000000000
1 3.49998411899395423 22.22611327170790219 0.00000000000000000 -0.99999999995734734 0.00000923609649810 0.00000000000000000 0.00000923609649810 0.99999999995734734 0.00000000000000000 0.00000000000000000 0.00000000000000000 -1.00000000000000000 
1 -3.50001588105223149 22.22610827005893341 0.00000000000000000 -0.99999999995734734 0.00000923609649255 0.00000000000000000 0.00000923609649255 0.99999999995734734 0.00000000000000000 0.00000000000000000 0.00000000000000000 -1.00000000000000000 
1 -0.00000305907000693 21.17927980906364382 0.00000000000000000 0.00000000000000000 0.00000000000000000 1.00000000000000000 1.00000000000000000 0.00000000000000000 -0.00000000000000000 -0.00000000000000000 1.00000000000000000 0.00000000000000000 
2 0.00000000000000540 0.00018617857805600 0.00000000000000000 -0.00000000000000000 -0.00000000000000000 -1.00000000000000000 -1.00000000000000000 0.00000000000000012 0.00000000000000000 -0.00000000000000012 -1.00000000000000000 0.00000000000000000 24.19981577890262159
Triangulations 0

TShapes 73
Ve
0.000000100000006
8.313557279540284 -20.907768062607801 0.000000000000000
0 0

0101101
*
Ed
 0.000000100000004 1 1 0
1  1 0 0.000000000000000 4.000000000000000
2  1 2 0 0.000000000000000 4.000000000000000
2  2 1 0 0.000000000000000 4.000000000000000
2  3 3 15 0.000000000000000 4.000000000000000
0

0101000
+73 18 -73 20 *
Ve
0.000000100000009
8.941692718438885 -22.487466094004837 0.000000000000000
0 0

0101101
*
Ed
 0.000000100000002 1 1 0
1  2 0 0.000000000000000 4.000000000000000
2  4 4 0 0.000000000000000 4.000000000000000
2  5 1 0 0.000000000000000 4.000000000000000
2  6 5 23 0.000000000000000 4.000000000000000
0

0101000
+71 18 -71 20 *
Ed
 0.000000100000000 1 1 0
1  3 0 0.000000000000000 1.700000000000003
2  7 1 24 0.000000000000000 1.700000000000003
2  8 1 25 0.000000000000000 1.700000000000003
2  9 6 26 0.000000000000000 1.700000000000003
2  10 7 28 0.000000000000000 1.700000000000003
0

0101000
+73 0 -71 0 *
Wi

0101100
+72 0 -70 0 -69 18 +69 20 *
Fa
0  0.000000100000000 1 0

0111000
+68 0 *
Ve
0.000000100000006
13.949879638881155 -17.653635831202845 0.000000000000000
0 0

0101101
*
Ed
 0.000000100000005 1 1 0
1  4 0 0.000000000000000 4.000000000000000
2  11 2 0 0.000000000000000 4.000000000000000
2  12 8 0 0.000000000000000 4.000000000000000
2  13 3 15 0.000000000000000 4.000000000000000
0

0101000
+66 18 -66 20 *
Ed
 0.000000100000006 1 1 0
1  5 0 5.090850646319662 5.381124865646314
2  14 2 24 5.090850646319662 5.381124865646314
2  15 2 25 5.090850646319662 5.381124865646314
2  16 6 26 5.090850646319662 5.381124865646314
2  17 3 29 5.090850646319662 5.381124865646314
2  18 3 30 5.090850646319662 5.381124865646314
2  19 7 28 5.090850646319662 5.381124865646314
0

0101000
+73 0 -66 0 *
Wi

0101100
+72 0 -65 0 -64 18 +64 20 *
Fa
0  0.000000100000000 2 0

0111000
+63 0 *
Ve
0.000000100000009
15.003870544929956 -18.987466094004841 0.000000000000000
0 0

0101101
*
Ed
 0.000000100000006 1 1 0
1  6 0 0.000000000000000 4.000000000000000
2  20 4 0 0.000000000000000 4.000000000000000
2  21 8 0 0.000000000000000 4.000000000000000
2  22 5 23 0.000000000000000 4.000000000000000
0

0101000
+61 18 -61 20 *
Ed
 0.000000100000000 1 1 0
1  7 0 0.000000000000000 1.700000000000004
2  23 8 24 0.000000000000000 1.700000000000004
2  24 8 25 0.000000000000000 1.700000000000004
2  25 6 26 0.000000000000000 1.700000000000004
2  26 7 28 0.000000000000000 1.700000000000004
0

0101000
+66 0 -61 0 *
Wi

0101100
+65 0 -60 0 -59 18 +59 20 *
Fa
0  0.000000100000000 8 0

0111000
+58 0 *
Ed
 0.000000100000009 1 1 0
1  8 0 5.090850646319662 5.381124865646314
2  27 4 24 5.090850646319662 5.381124865646314
2  28 4 25 5.090850646319662 5.381124865646314
2  29 6 26 5.090850646319662 5.381124865646314
2  30 5 31 5.090850646319662 5.381124865646314
2  31 5 32 5.090850646319662 5.381124865646314
2  32 7 28 5.090850646319662 5.381124865646314
0

0101000
+71 0 -61 0 *
Wi

0101100
+70 0 -60 0 -56 18 +56 20 *
Fa
0  0.000000100000000 4 0

0111000
+55 0 *
Wi

0101100
-69 0 +64 0 +59 0 -56 0 *
Fa
0  0.000000100000000 6 0

0111000
-53 34 *
Sh

0101100
+67 0 -62 0 -57 0 +54 0 +52 33 -52 35 *
So

0100000
-51 0 *
Ve
0.000000100000029
-13.949879638881164 -17.653635831202841 0.000000000000000
0 0

0101101
*
Ed
 0.000000100000002 1 1 0
1  9 0 0.000000000000000 4.000000000000000
2  33 10 0 0.000000000000000 4.000000000000000
2  34 9 0 0.000000000000000 4.000000000000000
2  35 3 15 0.000000000000000 4.000000000000000
0

0101000
+49 18 -49 20 *
Ve
0.000000100000032
-15.003870544929962 -18.987466094004830 0.000000000000000
0 0

0101101
*
Ed
 0.000000100000004 1 1 0
1  10 0 0.000000000000000 4.000000000000000
2  36 11 0 0.000000000000000 4.000000000000000
2  37 9 0 0.000000000000000 4.000000000000000
2  38 5 23 0.000000000000000 4.000000000000000
0

0101000
+47 18 -47 20 *
Ed
 0.000000100000000 1 1 0
1  11 0 0.000000000000000 1.699999999999996
2  39 9 24 0.000000000000000 1.699999999999996
2  40 9 25 0.000000000000000 1.699999999999996
2  41 12 26 0.000000000000000 1.699999999999996
2  42 7 28 0.000000000000000 1.699999999999996
0

0101000
+49 0 -47 0 *
Wi

0101100
+48 0 -46 0 -45 18 +45 20 *
Fa
0  0.000000100000000 9 0

0111000
+44 0 *
Ve
0.000000100000029
-8.313557279540291 -20.907768062607797 0.000000000000000
0 0

0101101
*
Ed
 0.000000100000002 1 1 0
1  12 0 0.000000000000000 4.000000000000000
2  43 10 0 0.000000000000000 4.000000000000000
2  44 13 0 0.000000000000000 4.000000000000000
2  45 3 15 0.000000000000000 4.000000000000000
0

0101000
+42 18 -42 20 *
Ed
 0.000000100000004 1 1 0
1  13 0 4.043653095123065 4.333927314449717
2  46 10 24 4.043653095123065 4.333927314449717
2  47 10 25 4.043653095123065 4.333927314449717
2  48 12 26 4.043653095123065 4.333927314449717
2  49 3 29 4.043653095123065 4.333927314449717
2  50 3 30 4.043653095123065 4.333927314449717
2  51 7 28 4.043653095123065 4.333927314449717
0

0101000
+49 0 -42 0 *
Wi

0101100
+48 0 -41 0 -40 18 +40 20 *
Fa
0  0.000000100000000 10 0

0111000
+39 0 *
Ve
0.000000100000032
-8.941692718438890 -22.487466094004830 0.000000000000000
0 0

0101101
*
Ed
 0.000000100000000 1 1 0
1  14 0 0.000000000000000 4.000000000000000
2  52 11 0 0.000000000000000 4.000000000000000
2  53 13 0 0.000000000000000 4.000000000000000
2  54 5 23 0.000000000000000 4.000000000000000
0

0101000
+37 18 -37 20 *
Ed
 0.000000100000000 1 1 0
1  15 0 0.000000000000000 1.699999999999999
2  55 13 24 0.000000000000000 1.699999999999999
2  56 13 25 0.000000000000000 1.699999999999999
2  57 12 26 0.000000000000000 1.699999999999999
2  58 7 28 0.000000000000000 1.699999999999999
0

0101000
+42 0 -37 0 *
Wi

0101100
+41 0 -36 0 -35 18 +35 20 *
Fa
0  0.000000100000000 13 0

0111000
+34 0 *
Ed
 0.000000100000005 1 1 0
1  16 0 4.043653095123065 4.333927314449717
2  59 11 24 4.043653095123065 4.333927314449717
2  60 11 25 4.043653095123065 4.333927314449717
2  61 12 26 4.043653095123065 4.333927314449717
2  62 5 31 4.043653095123065 4.333927314449717
2  63 5 32 4.043653095123065 4.333927314449717
2  64 7 28 4.043653095123065 4.333927314449717
0

0101000
+47 0 -37 0 *
Wi

0101100
+46 0 -36 0 -32 18 +32 20 *
Fa
0  0.000000100000000 11 0

0111000
+31 0 *
Wi

0101100
-45 0 +40 0 +35 0 -32 0 *
Fa
0  0.000000100000000 12 0

0111000
-29 34 *
Sh

0101100
+43 0 -38 0 -33 0 +30 0 +28 33 -28 35 *
So

0100000
-27 0 *
Ve
0.000000100000020
-3.499984118993952 -22.226113271707902 0.000000000000000
0 0

0101101
*
Ed
 0.000000100000000 1 1 0
1  17 0 0.000000000000000 4.000000000000000
2  65 14 0 0.000000000000000 4.000000000000000
2  66 15 0 0.000000000000000 4.000000000000000
2  67 3 15 0.000000000000000 4.000000000000000
0

0101000
+25 18 -25 20 *
Ve
0.000000100000020
3.500015881052234 -22.226108270058933 0.000000000000000
0 0

0101101
*
Ed
 0.000000100000000 1 1 0
1  18 0 0.000000000000000 4.000000000000000
2  68 14 0 0.000000000000000 4.000000000000000
2  69 16 0 0.000000000000000 4.000000000000000
2  70 3 15 0.000000000000000 4.000000000000000
0

0101000
+23 18 -23 20 *
Ed
 0.000000100000001 1 1 0
1  19 0 4.556199864844444 4.868579524967498
2  71 14 24 4.556199864844444 4.868579524967498
2  72 14 25 4.556199864844444 4.868579524967498
2  73 17 26 4.556199864844444 4.868579524967498
2  74 3 29 4.556199864844444 4.868579524967498
2  75 3 30 4.556199864844444 4.868579524967498
2  76 7 28 4.556199864844444 4.868579524967498
0

0101000
+25 0 -23 0 *
Wi

0101100
+24 0 -22 0 -21 18 +21 20 *
Fa
0  0.000000100000000 14 0

0111000
+20 0 *
Ve
0.000000100000017
-3.499999999999999 -23.945563263368854 0.000000000000000
0 0

0101101
*
Ed
 0.000000100000004 1 1 0
1  20 0 0.000000000000000 4.000000000000000
2  77 18 0 0.000000000000000 4.000000000000000
2  78 15 0 0.000000000000000 4.000000000000000
2  79 5 23 0.000000000000000 4.000000000000000
0

0101000
+18 18 -18 20 *
Ed
 0.000000100000000 1 1 0
1  21 0 0.000000000000000 1.719449991734291
2  80 15 24 0.000000000000000 1.719449991734291
2  81 15 25 0.000000000000000 1.719449991734291
2  82 17 26 0.000000000000000 1.719449991734291
2  83 7 28 0.000000000000000 1.719449991734291
0

0101000
+25 0 -18 0 *
Wi

0101100
+24 0 -17 0 -16 18 +16 20 *
Fa
0  0.000000100000000 15 0

0111000
+15 0 *
Ve
0.000000100000005
3.500000000000001 -23.945563263368850 0.000000000000000
0 0

0101101
*
Ed
 0.000000100000000 1 1 0
1  22 0 0.000000000000000 4.000000000000000
2  84 18 0 0.000000000000000 4.000000000000000
2  85 16 0 0.000000000000000 4.000000000000000
2  86 5 23 0.000000000000000 4.000000000000000
0

0101000
+13 18 -13 20 *
Ed
 0.000000100000000 1 1 0
1  23 0 4.567250758041247 4.857527202728133
2  87 18 24 4.567250758041247 4.857527202728133
2  88 18 25 4.567250758041247 4.857527202728133
2  89 17 26 4.567250758041247 4.857527202728133
0

0101000
+18 0 -13 0 *
Wi

0101100
+17 0 -12 0 -11 18 +11 20 *
Fa
0  0.000000100000000 18 0

0111000
+10 0 *
Ed
 0.000000100000000 1 1 0
1  24 0 0.000000000000000 1.719454993383256
2  90 16 24 0.000000000000000 1.719454993383256
2  91 16 25 0.000000000000000 1.719454993383256
2  92 17 26 0.000000000000000 1.719454993383256
2  93 7 28 0.000000000000000 1.719454993383256
0

0101000
+23 0 -13 0 *
Wi

0101100
+22 0 -12 0 -8 18 +8 20 *
Fa
0  0.000000100000000 16 0

0111000
+7 0 *
Wi

0101100
-21 0 +16 0 +11 0 -8 0 *
Fa
0  0.000000100000000 17 0

0111000
+5 34 *
Sh

0101100
-19 0 +14 0 +9 0 -6 0 +4 33 -4 35 *
So

0100000
-3 0 *
Co

1100000
+50 0 +26 0 +2 0 *

+1 0 