
CASCADE Topology V1, (c) Matra-Datavision
Locations 12
1
1.000000000000000 0.000000000000000 0.000000000000000 0.000000000000000 
0.000000000000000 1.000000000000000 0.000000000000000 0.000000000000000 
0.000000000000000 0.000000000000000 1.000000000000000 0.000000000000000 
1
1.000000000000000 0.000000000000000 0.000000000000000 0.000000000000000 
0.000000000000000 1.000000000000000 0.000000000000000 0.000000000000000 
0.000000000000000 0.000000000000000 1.000000000000000 0.000000000000000 
1
1.000000000000000 0.000000000000000 0.000000000000000 0.000000000000000 
0.000000000000000 1.000000000000000 0.000000000000000 0.000000000000000 
0.000000000000000 0.000000000000000 1.000000000000000 0.000000000000000 
2  1 1 2 1 3 -1 0
1
1.000000000000000 0.000000000000000 0.000000000000000 0.000000000000000 
0.000000000000000 1.000000000000000 0.000000000000000 0.000000000000000 
0.000000000000000 0.000000000000000 1.000000000000000 6.500000000000000 
2  1 1 2 1 3 -1 5 1 0
2  3 1 2 -1 1 -1 0
2  5 -1 3 1 2 -1 1 -1 0
2  2 -1 1 -1 0
2  3 -1 0
2  1 1 2 1 0
2  3 -1 5 1 0
Curve2ds 40
1 0.81433994212583172 0.00000000000000000 0.00000000000000000 -1.00000000000000000 
1 0.00000000000000000 0.00000000000000000 0.00000000000000000 -1.00000000000000000 
1 2.30901365091483113 0.00000000000000000 0.00000000000000000 -1.00000000000000000 
1 6.49999999999999645 0.00000000000000000 0.00000000000000000 -1.00000000000000000 
1 0.00000000000000000 0.00000000000000000 1.00000000000000000 0.00000000000000000 
1 0.00000000000000000 -6.50000000000000000 1.00000000000000000 0.00000000000000000 
2 -1.52165485961307145 0.00000000000117248 1.00000000000000000 0.00000000000000000 -0.00000000000000000 1.00000000000000000 24.19999999999999929
1 0.00000000000000000 0.00000000000000000 0.00000000000000000 -1.00000000000000000 
1 0.00000000000000000 0.00000000000000000 0.00000000000000000 -1.00000000000000000 
1 -24.02364642454905308 16.00000000000117240 0.95632432417969582 0.29230769230769177 
1 0.00000000000000000 0.00000000000000000 1.00000000000000000 0.00000000000000000 
1 0.00000000000000000 -6.50000000000000000 1.00000000000000000 0.00000000000000000 
1 0.00000000000000000 0.00000000000000000 0.00000000000000000 -1.00000000000000000 
1 32.00000000000000000 0.00000000000000000 0.00000000000000000 -1.00000000000000000 
1 -24.02364642454905308 16.00000000000117240 0.00000000000000000 -1.00000000000000000 
1 0.00000000000000000 0.00000000000000000 1.00000000000000000 0.00000000000000000 
1 0.00000000000000000 -6.50000000000000000 1.00000000000000000 0.00000000000000000 
1 3.97417165627015345 0.00000000000000000 0.00000000000000000 -1.00000000000000000 
1 6.50000000011805668 0.00000000000000000 0.00000000000000000 -1.00000000000000000 
1 -24.02364642454905308 -15.99999999999882760 0.95632432417718105 -0.29230769231591885 
1 0.00000000000000000 0.00000000000000000 1.00000000000000000 0.00000000000000000 
1 0.00000000000000000 -6.50000000000000000 1.00000000000000000 0.00000000000000000 
1 5.46884536505609109 0.00000000000000000 0.00000000000000000 -1.00000000000000000 
1 0.00000000000000000 0.00000000000000000 0.00000000000000000 -1.00000000000000000 
1 0.00000000000000000 0.00000000000000000 1.00000000000000000 0.00000000000000000 
1 0.00000000000000000 -6.50000000000000000 1.00000000000000000 0.00000000000000000 
2 -1.52165485961307145 0.00000000000117248 1.00000000000000000 0.00000000000000000 -0.00000000000000000 1.00000000000000000 24.20000000000009877
1 34.89999999999999858 0.00000000000000000 0.00000000000000000 -1.00000000000000000 
1 8.29999999996879367 0.00000000000000000 0.00000000000000000 -1.00000000000000000 
1 15.08798089803597264 -17.59999999994857589 0.99983668284618143 0.01807228915064012 
1 0.00000000000000000 0.00000000000000000 1.00000000000000000 0.00000000000000000 
1 0.00000000000000000 -6.50000000000000000 1.00000000000000000 0.00000000000000000 
1 8.30000000001067484 0.00000000000000000 0.00000000000000000 -1.00000000000000000 
1 0.00000000000000000 0.00000000000000000 0.00000000000000000 -1.00000000000000000 
1 23.38662536562807759 17.45000000000117168 0.00000000000000000 -1.00000000000000000 
1 0.00000000000000000 0.00000000000000000 1.00000000000000000 0.00000000000000000 
1 0.00000000000000000 -6.50000000000000000 1.00000000000000000 0.00000000000000000 
1 15.08798089799478603 17.59999999998965237 0.99983668284609883 -0.01807228915521540 
1 0.00000000000000000 0.00000000000000000 1.00000000000000000 0.00000000000000000 
1 0.00000000000000000 -6.50000000000000000 1.00000000000000000 0.00000000000000000 
Curves 16
1 16.60963575760785815 17.59999999998847997 0.00000000000000000 0.00000000000000000 0.00000000000000000 1.00000000000000000 
1 -16.28588345776796231 17.89999999999999503 0.00000000000000000 0.00000000000000000 0.00000000000000000 1.00000000000000000 
2 0.00000000000000000 0.00000000000000000 0.00000000000000000 0.00000000000000000 0.00000000000000000 1.00000000000000000 1.00000000000000000 0.00000000000000000 -0.00000000000000000 -0.00000000000000000 1.00000000000000000 0.00000000000000000 24.19999999999999929
1 -22.50199156493598096 16.00000000000000000 0.00000000000000000 0.00000000000000000 0.00000000000000000 1.00000000000000000 
1 -22.50199156493598096 16.00000000000000000 0.00000000000000000 0.95632432417969582 0.29230769230769177 0.00000000000000000 
1 -22.50199156493598096 -16.00000000000000000 0.00000000000000000 0.00000000000000000 0.00000000000000000 1.00000000000000000 
1 -22.50199156493598096 16.00000000000000000 0.00000000000000000 0.00000000000000000 -1.00000000000000000 0.00000000000000000 
1 -16.28588345767140311 -17.90000000008798153 0.00000000000000000 0.00000000000000000 0.00000000000000000 1.00000000000000000 
1 -22.50199156493598096 -16.00000000000000000 0.00000000000000000 0.95632432417718105 -0.29230769231591885 0.00000000000000000 
1 16.60963575764904476 -17.59999999994974829 0.00000000000000000 0.00000000000000000 0.00000000000000000 1.00000000000000000 
2 0.00000000000000000 0.00000000000000000 0.00000000000000000 0.00000000000000000 0.00000000000000000 1.00000000000000000 1.00000000000000000 0.00000000000000000 -0.00000000000000000 -0.00000000000000000 1.00000000000000000 0.00000000000000000 24.20000000000009877
1 24.90828022524114971 -17.44999999999999929 0.00000000000000000 0.00000000000000000 0.00000000000000000 1.00000000000000000 
1 16.60963575764904476 -17.59999999994974829 0.00000000000000000 0.99983668284618143 0.01807228915064012 0.00000000000000000 
1 24.90828022524114971 17.44999999999999929 0.00000000000000000 0.00000000000000000 0.00000000000000000 1.00000000000000000 
1 24.90828022524114971 17.44999999999999929 0.00000000000000000 0.00000000000000000 -1.00000000000000000 0.00000000000000000 
1 16.60963575760785815 17.59999999998847997 0.00000000000000000 0.99983668284609883 -0.01807228915521540 0.00000000000000000 
Polygon3D 0
PolygonOnTriangulations 0
Surfaces 9
2 0.00000000000000000 0.00000000000000000 0.00000000000000000 -0.00000000000000000 -0.00000000000000000 -1.00000000000000000 1.00000000000000000 0.00000000000000000 0.00000000000000000 -0.00000000000000000 1.00000000000000000 -0.00000000000000000 24.19999999999999929
1 16.60963575760785815 17.59999999998847997 0.00000000000000000 0.01807228915521540 0.99983668284609883 -0.00000000000000000 0.99983668284609883 -0.01807228915521540 0.00000000000000000 0.00000000000000000 -0.00000000000000000 -1.00000000000000000 
1 -22.50199156493598096 16.00000000000000000 0.00000000000000000 -0.29230769230769177 0.95632432417969582 0.00000000000000000 0.95632432417969582 0.29230769230769177 0.00000000000000000 0.00000000000000000 0.00000000000000000 -1.00000000000000000 
1 1.52165485961307145 -0.00000000000117248 0.00000000000000000 0.00000000000000000 0.00000000000000000 1.00000000000000000 1.00000000000000000 0.00000000000000000 -0.00000000000000000 -0.00000000000000000 1.00000000000000000 0.00000000000000000 
1 -22.50199156493598096 16.00000000000000000 0.00000000000000000 1.00000000000000000 0.00000000000000000 -0.00000000000000000 0.00000000000000000 -1.00000000000000000 0.00000000000000000 0.00000000000000000 -0.00000000000000000 -1.00000000000000000 
1 -22.50199156493598096 -16.00000000000000000 0.00000000000000000 0.29230769231591885 0.95632432417718105 -0.00000000000000000 0.95632432417718105 -0.29230769231591885 0.00000000000000000 0.00000000000000000 -0.00000000000000000 -1.00000000000000000 
2 0.00000000000000000 0.00000000000000000 0.00000000000000000 -0.00000000000000000 -0.00000000000000000 -1.00000000000000000 1.00000000000000000 0.00000000000000000 0.00000000000000000 -0.00000000000000000 1.00000000000000000 -0.00000000000000000 24.20000000000009877
1 16.60963575764904476 -17.59999999994974829 0.00000000000000000 -0.01807228915064012 0.99983668284618143 0.00000000000000000 0.99983668284618143 0.01807228915064012 0.00000000000000000 0.00000000000000000 0.00000000000000000 -1.00000000000000000 
1 24.90828022524114971 17.44999999999999929 0.00000000000000000 1.00000000000000000 0.00000000000000000 -0.00000000000000000 0.00000000000000000 -1.00000000000000000 0.00000000000000000 0.00000000000000000 -0.00000000000000000 -1.00000000000000000 
Triangulations 0

TShapes 44
Ve
0.000000100000000
16.609635757607858 17.599999999988480 0.000000000000000
0 0

0101101
*
Ed
 0.000000100000000 1 1 0
1  1 0 0.000000000000000 6.500000000000000
2  1 1 0 0.000000000000000 6.500000000000000
2  2 2 0 0.000000000000000 6.500000000000000
0

0101000
+44 4 -44 6 *
Ve
0.000000100000000
-16.285883457767962 17.899999999999995 0.000000000000000
0 0

0101101
*
Ed
 0.000000100000000 1 1 0
1  2 0 0.000000000000000 6.500000000000000
2  3 1 0 0.000000000000000 6.500000000000000
2  4 3 0 0.000000000000000 6.500000000000000
0

0101000
+42 4 -42 6 *
Ed
 0.000000100000000 1 1 0
1  3 0 0.814339942125832 2.309013650914831
2  5 1 7 0.814339942125832 2.309013650914831
2  6 1 8 0.814339942125832 2.309013650914831
2  7 4 9 0.814339942125832 2.309013650914831
0

0101000
+44 0 -42 0 *
Wi

0101100
+43 0 -41 0 -40 4 +40 6 *
Fa
0  0.000000100000000 1 0

0111000
+39 0 *
Ve
0.000000100000000
-22.501991564935981 16.000000000000000 0.000000000000000
0 0

0101101
*
Ed
 0.000000100000000 1 1 0
1  4 0 0.000000000000000 6.500000000000000
2  8 3 0 0.000000000000000 6.500000000000000
2  9 5 0 0.000000000000000 6.500000000000000
0

0101000
+37 4 -37 6 *
Ed
 0.000000100000000 1 1 0
1  5 0 0.000000000000000 6.499999999999996
2  10 4 9 0.000000000000000 6.499999999999996
2  11 3 7 0.000000000000000 6.499999999999996
2  12 3 8 0.000000000000000 6.499999999999996
0

0101000
+37 0 -42 0 *
Wi

0101100
+36 0 -41 0 -35 4 +35 6 *
Fa
0  0.000000100000000 3 0

0111000
+34 0 *
Ve
0.000000100000000
-22.501991564935981 -16.000000000000000 0.000000000000000
0 0

0101101
*
Ed
 0.000000100000000 1 1 0
1  6 0 0.000000000000000 6.500000000000000
2  13 6 0 0.000000000000000 6.500000000000000
2  14 5 0 0.000000000000000 6.500000000000000
0

0101000
+32 4 -32 6 *
Ed
 0.000000100000000 1 1 0
1  7 0 0.000000000000000 32.000000000000000
2  15 4 9 0.000000000000000 32.000000000000000
2  16 5 7 0.000000000000000 32.000000000000000
2  17 5 8 0.000000000000000 32.000000000000000
0

0101000
+37 0 -32 0 *
Wi

0101100
+36 0 -31 0 -30 4 +30 6 *
Fa
0  0.000000100000000 5 0

0111000
+29 0 *
Ve
0.000000100000000
-16.285883457671403 -17.900000000087982 0.000000000000000
0 0

0101101
*
Ed
 0.000000100000000 1 1 0
1  8 0 0.000000000000000 6.500000000000000
2  18 7 0 0.000000000000000 6.500000000000000
2  19 6 0 0.000000000000000 6.500000000000000
0

0101000
+27 4 -27 6 *
Ed
 0.000000100000000 1 1 0
1  9 0 0.000000000000000 6.500000000118058
2  20 4 9 0.000000000000000 6.500000000118058
2  21 6 7 0.000000000000000 6.500000000118058
2  22 6 8 0.000000000000000 6.500000000118058
0

0101000
+32 0 -27 0 *
Wi

0101100
+31 0 -26 0 -25 4 +25 6 *
Fa
0  0.000000100000000 6 0

0111000
+24 0 *
Ve
0.000000100000000
16.609635757649045 -17.599999999949748 0.000000000000000
0 0

0101101
*
Ed
 0.000000100000000 1 1 0
1  10 0 0.000000000000000 6.500000000000000
2  23 7 0 0.000000000000000 6.500000000000000
2  24 8 0 0.000000000000000 6.500000000000000
0

0101000
+22 4 -22 6 *
Ed
 0.000000100000000 1 1 0
1  11 0 3.974171656270153 5.468845365056091
2  25 7 7 3.974171656270153 5.468845365056091
2  26 7 8 3.974171656270153 5.468845365056091
2  27 4 9 3.974171656270153 5.468845365056091
0

0101000
+27 0 -22 0 *
Wi

0101100
+26 0 -21 0 -20 4 +20 6 *
Fa
0  0.000000100000000 7 0

0111000
+19 0 *
Ve
0.000000100000000
24.908280225241150 -17.449999999999999 0.000000000000000
0 0

0101101
*
Ed
 0.000000100000000 1 1 0
1  12 0 0.000000000000000 6.500000000000000
2  28 9 0 0.000000000000000 6.500000000000000
2  29 8 0 0.000000000000000 6.500000000000000
0

0101000
+17 4 -17 6 *
Ed
 0.000000100000000 1 1 0
1  13 0 0.000000000000000 8.299999999968794
2  30 4 9 0.000000000000000 8.299999999968794
2  31 8 7 0.000000000000000 8.299999999968794
2  32 8 8 0.000000000000000 8.299999999968794
0

0101000
+22 0 -17 0 *
Wi

0101100
+21 0 -16 0 -15 4 +15 6 *
Fa
0  0.000000100000000 8 0

0111000
+14 0 *
Ve
0.000000100000000
24.908280225241150 17.449999999999999 0.000000000000000
0 0

0101101
*
Ed
 0.000000100000000 1 1 0
1  14 0 0.000000000000000 6.500000000000000
2  33 2 0 0.000000000000000 6.500000000000000
2  34 9 0 0.000000000000000 6.500000000000000
0

0101000
+12 4 -12 6 *
Ed
 0.000000100000000 1 1 0
1  15 0 0.000000000000000 34.899999999999999
2  35 4 9 0.000000000000000 34.899999999999999
2  36 9 7 0.000000000000000 34.899999999999999
2  37 9 8 0.000000000000000 34.899999999999999
0

0101000
+12 0 -17 0 *
Wi

0101100
+11 0 -16 0 -10 4 +10 6 *
Fa
0  0.000000100000000 9 0

0111000
+9 0 *
Ed
 0.000000100000000 1 1 0
1  16 0 0.000000000000000 8.300000000010673
2  38 4 9 0.000000000000000 8.300000000010673
2  39 2 7 0.000000000000000 8.300000000010673
2  40 2 8 0.000000000000000 8.300000000010673
0

0101000
+44 0 -12 0 *
Wi

0101100
+43 0 -11 0 -7 4 +7 6 *
Fa
0  0.000000100000000 2 0

0111000
+6 0 *
Wi

0101100
+40 0 -35 0 +30 0 +25 0 +20 0 +15 0 -10 0 -7 0 *
Fa
0  0.000000100000000 4 0

0111000
+4 11 *
Sh

0101100
+38 0 -33 0 +28 0 +23 0 +18 0 +13 0 -8 0 -5 0 +3 10 -3 12 
*
So

1100000
-2 0 *

+1 0 