
CASCADE Topology V1, (c) Matra-Datavision
Locations 18
1
1.000000000000000 0.000000000000000 0.000000000000000 0.000000000000000 
0.000000000000000 1.000000000000000 0.000000000000000 0.000000000000000 
0.000000000000000 0.000000000000000 1.000000000000000 0.000000000000000 
1
0.000000000000000 0.000000000000000 1.000000000000000 24.908280225241150 
1.000000000000000 0.000000000000000 0.000000000000000 0.000000000000000 
0.000000000000000 1.000000000000000 0.000000000000000 0.000000000000000 
1
1.000000000000000 0.000000000000000 0.000000000000000 0.000000000000000 
0.000000000000000 1.000000000000000 0.000000000000000 0.000000000000000 
0.000000000000000 0.000000000000000 1.000000000000000 0.000000000000000 
2  1 1 2 1 3 -1 0
1
1.000000000000000 0.000000000000000 0.000000000000000 4.500000000000000 
0.000000000000000 1.000000000000000 0.000000000000000 0.000000000000000 
0.000000000000000 0.000000000000000 1.000000000000000 0.000000000000000 
2  1 1 2 1 3 -1 5 1 0
2  2 -1 1 -1 0
2  3 1 2 -1 1 -1 0
2  5 -1 3 1 2 -1 1 -1 0
1
1.000000000000000 0.000000000000000 0.000000000000000 0.000000000000000 
0.000000000000000 1.000000000000000 0.000000000000000 0.000000000000000 
0.000000000000000 0.000000000000000 1.000000000000000 0.000000000000000 
1
1.000000000000000 0.000000000000000 0.000000000000000 0.000000000000000 
0.000000000000000 1.000000000000000 0.000000000000000 0.000000000000000 
0.000000000000000 0.000000000000000 1.000000000000000 0.000000000000000 
1
1.000000000000000 0.000000000000000 0.000000000000000 0.000000000000000 
0.000000000000000 1.000000000000000 0.000000000000000 0.000000000000000 
0.000000000000000 0.000000000000000 1.000000000000000 0.000000000000000 
1
1.000000000000000 0.000000000000000 0.000000000000000 0.000000000000000 
0.000000000000000 1.000000000000000 0.000000000000000 0.000000000000000 
0.000000000000000 0.000000000000000 1.000000000000000 0.000000000000000 
1
1.000000000000000 0.000000000000000 0.000000000000000 0.000000000000000 
0.000000000000000 1.000000000000000 0.000000000000000 0.000000000000000 
0.000000000000000 0.000000000000000 1.000000000000000 0.000000000000000 
2  10 1 11 -1 12 1 13 -1 14 1 2 -1 1 -1 0
2  3 -1 0
2  1 1 2 1 0
2  3 -1 5 1 0
Curve2ds 42
1 0.00000000000000000 0.00000000000000000 0.00000000000000000 -1.00000000000000000 
1 6.50000000000000000 0.00000000000000000 0.00000000000000000 -1.00000000000000000 
1 0.00000000000000000 0.00000000000000000 0.00000000000000000 -1.00000000000000000 
1 5.39999999999999858 0.00000000000000000 0.00000000000000000 -1.00000000000000000 
1 3.25000000000000000 -12.05000000000000071 0.00000000000000000 -1.00000000000000000 
1 0.00000000000000000 0.00000000000000000 1.00000000000000000 0.00000000000000000 
1 0.00000000000000000 -4.50000000000000000 1.00000000000000000 0.00000000000000000 
1 6.50000000000000000 0.00000000000000000 0.00000000000000000 -1.00000000000000000 
1 0.00000000000000000 -0.00000000000000000 0.00000000000000000 -1.00000000000000000 
1 0.00000000000000000 0.00000000000000000 1.00000000000000000 0.00000000000000000 
1 0.00000000000000000 -4.50000000000000000 1.00000000000000000 0.00000000000000000 
1 3.25000000000000000 -17.44999999999999929 -1.00000000000000000 0.00000000000000000 
1 5.39999999999999858 0.00000000000000000 0.00000000000000000 -1.00000000000000000 
1 0.00000000000000000 0.00000000000000000 0.00000000000000000 -1.00000000000000000 
1 0.00000000000000000 -0.00000000000000000 1.00000000000000000 0.00000000000000000 
1 0.00000000000000000 -4.50000000000000000 1.00000000000000000 0.00000000000000000 
1 -3.25000000000000000 -17.44999999999999929 0.00000000000000000 1.00000000000000000 
1 -3.25000000000000000 -12.05000000000000071 1.00000000000000000 0.00000000000000000 
1 0.00000000000000000 0.00000000000000000 1.00000000000000000 0.00000000000000000 
1 0.00000000000000000 -4.50000000000000000 1.00000000000000000 0.00000000000000000 
1 5.39999999999999858 0.00000000000000000 0.00000000000000000 -1.00000000000000000 
1 0.00000000000000000 -0.00000000000000000 0.00000000000000000 -1.00000000000000000 
1 6.50000000000000000 0.00000000000000000 0.00000000000000000 -1.00000000000000000 
1 0.00000000000000000 0.00000000000000000 0.00000000000000000 -1.00000000000000000 
1 5.39999999999999858 0.00000000000000000 0.00000000000000000 -1.00000000000000000 
1 3.25000000000000000 12.05000000000000071 0.00000000000000000 1.00000000000000000 
1 0.00000000000000000 -0.00000000000000000 1.00000000000000000 0.00000000000000000 
1 0.00000000000000000 -4.50000000000000000 1.00000000000000000 0.00000000000000000 
1 6.50000000000000000 0.00000000000000000 0.00000000000000000 -1.00000000000000000 
1 0.00000000000000000 0.00000000000000000 0.00000000000000000 -1.00000000000000000 
1 0.00000000000000000 0.00000000000000000 1.00000000000000000 0.00000000000000000 
1 0.00000000000000000 -4.50000000000000000 1.00000000000000000 0.00000000000000000 
1 3.25000000000000000 17.44999999999999929 -1.00000000000000000 0.00000000000000000 
1 5.39999999999999858 0.00000000000000000 0.00000000000000000 -1.00000000000000000 
1 0.00000000000000000 0.00000000000000000 0.00000000000000000 -1.00000000000000000 
1 0.00000000000000000 0.00000000000000000 1.00000000000000000 0.00000000000000000 
1 0.00000000000000000 -4.50000000000000000 1.00000000000000000 0.00000000000000000 
1 -3.25000000000000000 17.44999999999999929 0.00000000000000000 -1.00000000000000000 
1 -3.25000000000000000 12.05000000000000071 1.00000000000000000 0.00000000000000000 
1 0.00000000000000000 0.00000000000000000 1.00000000000000000 0.00000000000000000 
1 0.00000000000000000 -4.50000000000000000 1.00000000000000000 0.00000000000000000 
1 29.50000000000000000 0.00000000000000000 0.00000000000000000 -1.00000000000000000 
Curves 16
1 24.90828022524114971 12.05000000000000071 6.50000000000000000 1.00000000000000000 0.00000000000000000 0.00000000000000000 
1 24.90828022524114971 17.44999999999999929 6.50000000000000000 1.00000000000000000 0.00000000000000000 0.00000000000000000 
1 12.05000000000000071 6.50000000000000000 0.00000000000000000 1.00000000000000000 0.00000000000000000 0.00000000000000000 
1 24.90828022524114971 17.44999999999999929 0.00000000000000000 1.00000000000000000 0.00000000000000000 0.00000000000000000 
1 17.44999999999999929 6.50000000000000000 0.00000000000000000 0.00000000000000000 -1.00000000000000000 0.00000000000000000 
1 24.90828022524114971 12.05000000000000071 0.00000000000000000 1.00000000000000000 0.00000000000000000 0.00000000000000000 
1 17.44999999999999929 0.00000000000000000 0.00000000000000000 -1.00000000000000000 0.00000000000000000 0.00000000000000000 
1 12.05000000000000071 0.00000000000000000 0.00000000000000000 0.00000000000000000 1.00000000000000000 0.00000000000000000 
1 24.90828022524114971 -12.05000000000000071 6.50000000000000000 1.00000000000000000 0.00000000000000000 0.00000000000000000 
1 24.90828022524114971 -17.44999999999999929 6.50000000000000000 1.00000000000000000 0.00000000000000000 0.00000000000000000 
1 -12.05000000000000071 6.50000000000000000 0.00000000000000000 -1.00000000000000000 0.00000000000000000 0.00000000000000000 
1 24.90828022524114971 -17.44999999999999929 0.00000000000000000 1.00000000000000000 0.00000000000000000 0.00000000000000000 
1 -17.44999999999999929 6.50000000000000000 0.00000000000000000 0.00000000000000000 -1.00000000000000000 0.00000000000000000 
1 24.90828022524114971 -12.05000000000000071 0.00000000000000000 1.00000000000000000 0.00000000000000000 0.00000000000000000 
1 -17.44999999999999929 0.00000000000000000 0.00000000000000000 1.00000000000000000 0.00000000000000000 0.00000000000000000 
1 -12.05000000000000071 0.00000000000000000 0.00000000000000000 0.00000000000000000 1.00000000000000000 0.00000000000000000 
Polygon3D 0
PolygonOnTriangulations 0
Surfaces 11
1 24.90828022524114971 12.05000000000000071 6.50000000000000000 0.00000000000000000 0.00000000000000000 1.00000000000000000 0.00000000000000000 1.00000000000000000 0.00000000000000000 -1.00000000000000000 0.00000000000000000 0.00000000000000000 
1 24.90828022524114971 12.05000000000000071 0.00000000000000000 0.00000000000000000 -1.00000000000000000 0.00000000000000000 0.00000000000000000 0.00000000000000000 1.00000000000000000 -1.00000000000000000 0.00000000000000000 0.00000000000000000 
1 24.90828022524114971 17.44999999999999929 6.50000000000000000 -0.00000000000000000 1.00000000000000000 0.00000000000000000 0.00000000000000000 0.00000000000000000 -1.00000000000000000 -1.00000000000000000 0.00000000000000000 -0.00000000000000000 
1 24.90828022524114971 0.00000000000000030 3.25000000000000000 1.00000000000000000 0.00000000000000000 0.00000000000000000 -0.00000000000000000 0.00000000000000000 1.00000000000000000 0.00000000000000000 -1.00000000000000000 0.00000000000000000 
1 24.90828022524114971 17.44999999999999929 0.00000000000000000 0.00000000000000000 0.00000000000000000 -1.00000000000000000 0.00000000000000000 -1.00000000000000000 0.00000000000000000 -1.00000000000000000 -0.00000000000000000 -0.00000000000000000 
1 24.90828022524114971 17.44999999999999929 0.00000000000000000 1.00000000000000000 0.00000000000000000 -0.00000000000000000 0.00000000000000000 -1.00000000000000000 0.00000000000000000 0.00000000000000000 -0.00000000000000000 -1.00000000000000000 
1 24.90828022524114971 -12.05000000000000071 6.50000000000000000 0.00000000000000000 0.00000000000000000 -1.00000000000000000 0.00000000000000000 -1.00000000000000000 0.00000000000000000 -1.00000000000000000 -0.00000000000000000 -0.00000000000000000 
1 24.90828022524114971 -12.05000000000000071 0.00000000000000000 0.00000000000000000 -1.00000000000000000 0.00000000000000000 0.00000000000000000 0.00000000000000000 1.00000000000000000 -1.00000000000000000 0.00000000000000000 0.00000000000000000 
1 24.90828022524114971 -17.44999999999999929 6.50000000000000000 -0.00000000000000000 1.00000000000000000 0.00000000000000000 0.00000000000000000 0.00000000000000000 -1.00000000000000000 -1.00000000000000000 0.00000000000000000 -0.00000000000000000 
1 24.90828022524114971 0.00000000000000030 3.25000000000000000 1.00000000000000000 0.00000000000000000 0.00000000000000000 -0.00000000000000000 0.00000000000000000 1.00000000000000000 0.00000000000000000 -1.00000000000000000 0.00000000000000000 
1 24.90828022524114971 -17.44999999999999929 0.00000000000000000 0.00000000000000000 0.00000000000000000 1.00000000000000000 0.00000000000000000 1.00000000000000000 0.00000000000000000 -1.00000000000000000 0.00000000000000000 0.00000000000000000 
Triangulations 0

TShapes 49
Ve
0.000000100000000
12.050000000000001 6.500000000000000 0.000000000000000
0 0

0101101
*
Ed
 0.000000100000000 1 1 0
1  1 0 0.000000000000000 4.500000000000000
2  1 1 0 0.000000000000000 4.500000000000000
2  2 2 0 0.000000000000000 4.500000000000000
0

0101000
+49 4 -49 6 *
Ve
0.000000100000000
17.449999999999999 6.500000000000000 0.000000000000000
0 0

0101101
*
Ed
 0.000000100000000 1 1 0
1  2 0 0.000000000000000 4.500000000000000
2  3 3 0 0.000000000000000 4.500000000000000
2  4 1 0 0.000000000000000 4.500000000000000
0

0101000
+47 4 -47 6 *
Ed
 0.000000100000000 1 1 0
1  3 0 0.000000000000000 5.399999999999999
2  5 4 7 0.000000000000000 5.399999999999999
2  6 1 8 0.000000000000000 5.399999999999999
2  7 1 9 0.000000000000000 5.399999999999999
0

0101000
+49 0 -47 0 *
Wi

0101100
+48 0 -46 0 -45 4 +45 6 *
Fa
0  0.000000100000000 1 0

0111000
+44 0 *
Ve
0.000000100000036
17.449999999999999 0.000000000000000 0.000000000000000
0 0

0101101
*
Ed
 0.000000100000000 1 1 0
1  4 0 0.000000000000000 4.500000000000000
2  8 3 0 0.000000000000000 4.500000000000000
2  9 5 0 0.000000000000000 4.500000000000000
0

0101000
+42 4 -42 6 *
Ed
 0.000000100000000 1 1 0
1  5 0 0.000000000000000 6.500000000000000
2  10 3 8 0.000000000000000 6.500000000000000
2  11 3 9 0.000000000000000 6.500000000000000
2  12 4 7 0.000000000000000 6.500000000000000
0

0101000
+47 0 -42 0 *
Wi

0101100
+46 0 -41 0 -40 4 +40 6 *
Fa
0  0.000000100000000 3 0

0111000
+39 0 *
Ve
0.000000100000000
12.050000000000001 0.000000000000000 0.000000000000000
0 0

0101101
*
Ed
 0.000000100000000 1 1 0
1  6 0 0.000000000000000 4.500000000000000
2  13 5 0 0.000000000000000 4.500000000000000
2  14 2 0 0.000000000000000 4.500000000000000
0

0101000
+37 4 -37 6 *
Ed
 0.000000100000000 1 1 0
1  7 0 0.000000000000000 5.399999999999999
2  15 5 8 0.000000000000000 5.399999999999999
2  16 5 9 0.000000000000000 5.399999999999999
2  17 4 7 0.000000000000000 5.399999999999999
0

0101000
+42 0 -37 0 *
Wi

0101100
+41 0 -36 0 -35 4 +35 6 *
Fa
0  0.000000100000000 5 0

0111000
+34 0 *
Ed
 0.000000100000000 1 1 0
1  8 0 0.000000000000000 6.500000000000000
2  18 4 7 0.000000000000000 6.500000000000000
2  19 2 8 0.000000000000000 6.500000000000000
2  20 2 9 0.000000000000000 6.500000000000000
2  21 6 15 0.000000000000000 6.500000000000000
0

0101000
+37 0 -49 0 *
Wi

0101100
+36 0 -48 0 -32 4 +32 6 *
Fa
0  0.000000100000000 2 0

0111000
+31 0 *
Wi

0101100
+45 0 +40 0 +35 0 +32 0 *
Fa
0  0.000000100000000 4 0

0111000
-29 17 *
Sh

0101100
-43 0 -38 0 -33 0 -30 0 +28 16 -28 18 *
So

0100000
-27 0 *
Ve
0.000000100000000
-12.050000000000001 6.500000000000000 0.000000000000000
0 0

0101101
*
Ed
 0.000000100000000 1 1 0
1  9 0 0.000000000000000 4.500000000000000
2  22 7 0 0.000000000000000 4.500000000000000
2  23 8 0 0.000000000000000 4.500000000000000
0

0101000
+25 4 -25 6 *
Ve
0.000000100000000
-17.449999999999999 6.500000000000000 0.000000000000000
0 0

0101101
*
Ed
 0.000000100000000 1 1 0
1  10 0 0.000000000000000 4.500000000000000
2  24 9 0 0.000000000000000 4.500000000000000
2  25 7 0 0.000000000000000 4.500000000000000
0

0101000
+23 4 -23 6 *
Ed
 0.000000100000000 1 1 0
1  11 0 0.000000000000000 5.399999999999999
2  26 10 7 0.000000000000000 5.399999999999999
2  27 7 8 0.000000000000000 5.399999999999999
2  28 7 9 0.000000000000000 5.399999999999999
0

0101000
+25 0 -23 0 *
Wi

0101100
+24 0 -22 0 -21 4 +21 6 *
Fa
0  0.000000100000000 7 0

0111000
+20 0 *
Ve
0.000000100000036
-17.449999999999999 0.000000000000000 0.000000000000000
0 0

0101101
*
Ed
 0.000000100000000 1 1 0
1  12 0 0.000000000000000 4.500000000000000
2  29 9 0 0.000000000000000 4.500000000000000
2  30 11 0 0.000000000000000 4.500000000000000
0

0101000
+18 4 -18 6 *
Ed
 0.000000100000000 1 1 0
1  13 0 0.000000000000000 6.500000000000000
2  31 9 8 0.000000000000000 6.500000000000000
2  32 9 9 0.000000000000000 6.500000000000000
2  33 10 7 0.000000000000000 6.500000000000000
0

0101000
+23 0 -18 0 *
Wi

0101100
+22 0 -17 0 -16 4 +16 6 *
Fa
0  0.000000100000000 9 0

0111000
+15 0 *
Ve
0.000000100000000
-12.050000000000001 0.000000000000000 0.000000000000000
0 0

0101101
*
Ed
 0.000000100000000 1 1 0
1  14 0 0.000000000000000 4.500000000000000
2  34 11 0 0.000000000000000 4.500000000000000
2  35 8 0 0.000000000000000 4.500000000000000
0

0101000
+13 4 -13 6 *
Ed
 0.000000100000000 1 1 0
1  15 0 0.000000000000000 5.399999999999999
2  36 11 8 0.000000000000000 5.399999999999999
2  37 11 9 0.000000000000000 5.399999999999999
2  38 10 7 0.000000000000000 5.399999999999999
0

0101000
+18 0 -13 0 *
Wi

0101100
+17 0 -12 0 -11 4 +11 6 *
Fa
0  0.000000100000000 11 0

0111000
+10 0 *
Ed
 0.000000100000000 1 1 0
1  16 0 0.000000000000000 6.500000000000000
2  39 10 7 0.000000000000000 6.500000000000000
2  40 8 8 0.000000000000000 6.500000000000000
2  41 8 9 0.000000000000000 6.500000000000000
2  42 6 15 0.000000000000000 6.500000000000000
0

0101000
+13 0 -25 0 *
Wi

0101100
+12 0 -24 0 -8 4 +8 6 *
Fa
0  0.000000100000000 8 0

0111000
+7 0 *
Wi

0101100
+21 0 +16 0 +11 0 +8 0 *
Fa
0  0.000000100000000 10 0

0111000
+5 17 *
Sh

0101100
+19 0 +14 0 +9 0 +6 0 +4 16 -4 18 *
So

0100000
-3 0 *
Co

1100000
+26 0 +2 0 *

+1 0 