
CASCADE Topology V1, (c) Matra-Datavision
Locations 40
1
1.000000000000000 0.000000000000000 0.000000000000000 0.000000000000000 
0.000000000000000 1.000000000000000 0.000000000000000 0.000000000000000 
0.000000000000000 0.000000000000000 1.000000000000000 0.000000000000000 
1
0.000000000000000 0.000000000000000 -1.000000000000000 -22.501991564935981 
-1.000000000000000 0.000000000000000 0.000000000000000 0.000000000000000 
0.000000000000000 1.000000000000000 0.000000000000000 0.000000000000000 
1
1.000000000000000 0.000000000000000 0.000000000000000 0.000000000000000 
0.000000000000000 1.000000000000000 0.000000000000000 0.000000000000000 
0.000000000000000 0.000000000000000 1.000000000000000 0.000000000000000 
2  1 1 2 1 3 -1 0
1
1.000000000000000 0.000000000000000 0.000000000000000 -4.500000000000000 
0.000000000000000 1.000000000000000 0.000000000000000 0.000000000000000 
0.000000000000000 0.000000000000000 1.000000000000000 0.000000000000000 
2  1 1 2 1 3 -1 5 1 0
1
0.000000000000000 0.000000000000000 -1.000000000000000 -22.501991564935981 
-1.000000000000000 0.000000000000000 0.000000000000000 0.000000000000000 
0.000000000000000 1.000000000000000 0.000000000000000 0.000000000000000 
1
1.000000000000000 0.000000000000000 0.000000000000000 0.000000000000000 
0.000000000000000 1.000000000000000 0.000000000000000 0.000000000000000 
0.000000000000000 0.000000000000000 1.000000000000000 0.000000000000000 
2  7 -1 8 -1 0
1
1.000000000000000 0.000000000000000 0.000000000000000 0.000000000000000 
0.000000000000000 1.000000000000000 0.000000000000000 0.000000000000000 
0.000000000000000 0.000000000000000 1.000000000000000 0.000000000000000 
2  10 1 7 -1 8 -1 0
1
1.000000000000000 0.000000000000000 0.000000000000000 -4.500000000000000 
0.000000000000000 1.000000000000000 0.000000000000000 0.000000000000000 
0.000000000000000 0.000000000000000 1.000000000000000 0.000000000000000 
2  12 -1 10 1 7 -1 8 -1 0
1
0.000000000000000 0.000000000000000 -1.000000000000000 -22.501991564935981 
-1.000000000000000 0.000000000000000 0.000000000000000 0.000000000000000 
0.000000000000000 1.000000000000000 0.000000000000000 0.000000000000000 
1
1.000000000000000 0.000000000000000 0.000000000000000 0.000000000000000 
0.000000000000000 1.000000000000000 0.000000000000000 0.000000000000000 
0.000000000000000 0.000000000000000 1.000000000000000 0.000000000000000 
2  14 -1 15 -1 0
1
1.000000000000000 0.000000000000000 0.000000000000000 0.000000000000000 
0.000000000000000 1.000000000000000 0.000000000000000 0.000000000000000 
0.000000000000000 0.000000000000000 1.000000000000000 0.000000000000000 
2  17 1 14 -1 15 -1 0
1
1.000000000000000 0.000000000000000 0.000000000000000 -4.500000000000000 
0.000000000000000 1.000000000000000 0.000000000000000 0.000000000000000 
0.000000000000000 0.000000000000000 1.000000000000000 0.000000000000000 
2  19 -1 17 1 14 -1 15 -1 0
2  2 -1 1 -1 0
2  3 1 2 -1 1 -1 0
2  5 -1 3 1 2 -1 1 -1 0
1
1.000000000000000 0.000000000000000 0.000000000000000 0.000000000000000 
0.000000000000000 1.000000000000000 0.000000000000000 0.000000000000000 
0.000000000000000 0.000000000000000 1.000000000000000 0.000000000000000 
1
1.000000000000000 0.000000000000000 0.000000000000000 0.000000000000000 
0.000000000000000 1.000000000000000 0.000000000000000 0.000000000000000 
0.000000000000000 0.000000000000000 1.000000000000000 0.000000000000000 
1
1.000000000000000 0.000000000000000 0.000000000000000 0.000000000000000 
0.000000000000000 1.000000000000000 0.000000000000000 0.000000000000000 
0.000000000000000 0.000000000000000 1.000000000000000 0.000000000000000 
1
1.000000000000000 0.000000000000000 0.000000000000000 0.000000000000000 
0.000000000000000 1.000000000000000 0.000000000000000 0.000000000000000 
0.000000000000000 0.000000000000000 1.000000000000000 0.000000000000000 
1
1.000000000000000 0.000000000000000 0.000000000000000 0.000000000000000 
0.000000000000000 1.000000000000000 0.000000000000000 0.000000000000000 
0.000000000000000 0.000000000000000 1.000000000000000 0.000000000000000 
1
1.000000000000000 0.000000000000000 0.000000000000000 0.000000000000000 
0.000000000000000 1.000000000000000 0.000000000000000 0.000000000000000 
0.000000000000000 0.000000000000000 1.000000000000000 0.000000000000000 
1
1.000000000000000 0.000000000000000 0.000000000000000 0.000000000000000 
0.000000000000000 1.000000000000000 0.000000000000000 0.000000000000000 
0.000000000000000 0.000000000000000 1.000000000000000 0.000000000000000 
1
1.000000000000000 0.000000000000000 0.000000000000000 0.000000000000000 
0.000000000000000 1.000000000000000 0.000000000000000 0.000000000000000 
0.000000000000000 0.000000000000000 1.000000000000000 0.000000000000000 
1
1.000000000000000 0.000000000000000 0.000000000000000 0.000000000000000 
0.000000000000000 1.000000000000000 0.000000000000000 0.000000000000000 
0.000000000000000 0.000000000000000 1.000000000000000 0.000000000000000 
2  24 1 25 -1 26 1 27 -1 28 1 29 -1 30 1 31 -1 32 1 7 -1 8 -1 0
1
1.000000000000000 0.000000000000000 0.000000000000000 0.000000000000000 
0.000000000000000 1.000000000000000 0.000000000000000 0.000000000000000 
0.000000000000000 0.000000000000000 1.000000000000000 0.000000000000000 
1
1.000000000000000 0.000000000000000 0.000000000000000 0.000000000000000 
0.000000000000000 1.000000000000000 0.000000000000000 0.000000000000000 
0.000000000000000 0.000000000000000 1.000000000000000 0.000000000000000 
2  24 1 25 -1 26 1 27 -1 28 1 29 -1 30 1 34 -1 35 1 14 -1 15 -1 0
2  24 1 25 -1 26 1 27 -1 28 1 29 -1 30 1 2 -1 1 -1 0
2  3 -1 0
2  1 1 2 1 0
2  3 -1 5 1 0
Curve2ds 94
1 6.50000000000000000 0.00000000000000000 0.00000000000000000 -1.00000000000000000 
1 0.00000000000000000 0.00000000000000000 0.00000000000000000 -1.00000000000000000 
1 3.94999999999999929 0.00000000000000000 0.00000000000000000 -1.00000000000000000 
1 0.00000000000000000 0.00000000000000000 0.00000000000000000 -1.00000000000000000 
1 3.25000000000000044 16.00000000000000000 0.00000000000000000 -1.00000000000000000 
1 0.00000000000000000 0.00000000000000000 1.00000000000000000 0.00000000000000000 
1 0.00000000000000000 -4.50000000000000000 1.00000000000000000 0.00000000000000000 
1 3.25000000000000044 16.00000000000000000 0.00000000000000000 -1.00000000000000000 
1 0.00000000000000000 0.00000000000000000 1.00000000000000000 0.00000000000000000 
1 0.00000000000000000 -4.50000000000000000 1.00000000000000000 0.00000000000000000 
1 3.25000000000000044 16.00000000000000000 0.00000000000000000 -1.00000000000000000 
1 0.00000000000000000 0.00000000000000000 1.00000000000000000 0.00000000000000000 
1 0.00000000000000000 -4.50000000000000000 1.00000000000000000 0.00000000000000000 
1 0.00000000000000000 0.00000000000000000 0.00000000000000000 -1.00000000000000000 
1 6.50000000000000000 0.00000000000000000 0.00000000000000000 -1.00000000000000000 
1 3.25000000000000044 12.05000000000000071 -1.00000000000000000 -0.00000000000000000 
1 0.00000000000000000 0.00000000000000000 1.00000000000000000 0.00000000000000000 
1 0.00000000000000000 -4.50000000000000000 1.00000000000000000 0.00000000000000000 
1 28.05000000000000071 -6.50000000000000000 0.00000000000000000 1.00000000000000000 
1 3.25000000000000044 12.05000000000000071 -1.00000000000000000 -0.00000000000000000 
1 0.00000000000000000 0.00000000000000000 1.00000000000000000 0.00000000000000000 
1 0.00000000000000000 -4.50000000000000000 1.00000000000000000 0.00000000000000000 
1 28.05000000000000071 -6.50000000000000000 0.00000000000000000 1.00000000000000000 
1 3.25000000000000044 12.05000000000000071 -1.00000000000000000 -0.00000000000000000 
1 0.00000000000000000 0.00000000000000000 1.00000000000000000 0.00000000000000000 
1 0.00000000000000000 -4.50000000000000000 1.00000000000000000 0.00000000000000000 
1 28.05000000000000071 -6.50000000000000000 0.00000000000000000 1.00000000000000000 
1 3.94999999999999929 0.00000000000000000 0.00000000000000000 -1.00000000000000000 
1 0.00000000000000000 0.00000000000000000 0.00000000000000000 -1.00000000000000000 
1 0.00000000000000000 0.00000000000000000 1.00000000000000000 0.00000000000000000 
1 0.00000000000000000 -4.50000000000000000 1.00000000000000000 0.00000000000000000 
1 -3.24999999999999956 12.05000000000000071 0.00000000000000000 1.00000000000000000 
1 0.00000000000000000 0.00000000000000000 1.00000000000000000 0.00000000000000000 
1 0.00000000000000000 -4.50000000000000000 1.00000000000000000 0.00000000000000000 
1 -3.24999999999999956 12.05000000000000071 0.00000000000000000 1.00000000000000000 
1 0.00000000000000000 0.00000000000000000 1.00000000000000000 0.00000000000000000 
1 0.00000000000000000 -4.50000000000000000 1.00000000000000000 0.00000000000000000 
1 -3.24999999999999956 12.05000000000000071 0.00000000000000000 1.00000000000000000 
1 0.00000000000000000 0.00000000000000000 1.00000000000000000 0.00000000000000000 
1 0.00000000000000000 -4.50000000000000000 1.00000000000000000 0.00000000000000000 
1 -3.24999999999999956 16.00000000000000000 1.00000000000000000 0.00000000000000000 
1 0.00000000000000000 0.00000000000000000 1.00000000000000000 0.00000000000000000 
1 0.00000000000000000 -4.50000000000000000 1.00000000000000000 0.00000000000000000 
1 -3.24999999999999956 16.00000000000000000 1.00000000000000000 0.00000000000000000 
1 0.00000000000000000 0.00000000000000000 1.00000000000000000 0.00000000000000000 
1 0.00000000000000000 -4.50000000000000000 1.00000000000000000 0.00000000000000000 
1 -3.24999999999999956 16.00000000000000000 1.00000000000000000 0.00000000000000000 
1 6.50000000000000000 0.00000000000000000 0.00000000000000000 -1.00000000000000000 
1 0.00000000000000000 0.00000000000000000 0.00000000000000000 -1.00000000000000000 
1 3.94999999999999929 0.00000000000000000 0.00000000000000000 -1.00000000000000000 
1 0.00000000000000000 0.00000000000000000 0.00000000000000000 -1.00000000000000000 
1 3.25000000000000044 -16.00000000000000000 0.00000000000000000 1.00000000000000000 
1 0.00000000000000000 0.00000000000000000 1.00000000000000000 0.00000000000000000 
1 0.00000000000000000 -4.50000000000000000 1.00000000000000000 0.00000000000000000 
1 3.25000000000000044 -16.00000000000000000 0.00000000000000000 1.00000000000000000 
1 0.00000000000000000 0.00000000000000000 1.00000000000000000 0.00000000000000000 
1 0.00000000000000000 -4.50000000000000000 1.00000000000000000 0.00000000000000000 
1 3.25000000000000044 -16.00000000000000000 0.00000000000000000 1.00000000000000000 
1 0.00000000000000000 0.00000000000000000 1.00000000000000000 0.00000000000000000 
1 0.00000000000000000 -4.50000000000000000 1.00000000000000000 0.00000000000000000 
1 0.00000000000000000 0.00000000000000000 0.00000000000000000 -1.00000000000000000 
1 6.50000000000000000 0.00000000000000000 0.00000000000000000 -1.00000000000000000 
1 3.25000000000000044 -12.05000000000000071 -1.00000000000000000 -0.00000000000000000 
1 0.00000000000000000 0.00000000000000000 1.00000000000000000 0.00000000000000000 
1 0.00000000000000000 -4.50000000000000000 1.00000000000000000 0.00000000000000000 
1 3.94999999999999929 -6.50000000000000000 0.00000000000000000 1.00000000000000000 
1 3.25000000000000044 -12.05000000000000071 -1.00000000000000000 -0.00000000000000000 
1 0.00000000000000000 0.00000000000000000 1.00000000000000000 0.00000000000000000 
1 0.00000000000000000 -4.50000000000000000 1.00000000000000000 0.00000000000000000 
1 3.94999999999999929 -6.50000000000000000 0.00000000000000000 1.00000000000000000 
1 3.25000000000000044 -12.05000000000000071 -1.00000000000000000 -0.00000000000000000 
1 0.00000000000000000 0.00000000000000000 1.00000000000000000 0.00000000000000000 
1 0.00000000000000000 -4.50000000000000000 1.00000000000000000 0.00000000000000000 
1 3.94999999999999929 -6.50000000000000000 0.00000000000000000 1.00000000000000000 
1 3.94999999999999929 0.00000000000000000 0.00000000000000000 -1.00000000000000000 
1 0.00000000000000000 0.00000000000000000 0.00000000000000000 -1.00000000000000000 
1 0.00000000000000000 0.00000000000000000 1.00000000000000000 0.00000000000000000 
1 0.00000000000000000 -4.50000000000000000 1.00000000000000000 0.00000000000000000 
1 -3.24999999999999956 -12.05000000000000071 0.00000000000000000 -1.00000000000000000 
1 0.00000000000000000 0.00000000000000000 1.00000000000000000 0.00000000000000000 
1 0.00000000000000000 -4.50000000000000000 1.00000000000000000 0.00000000000000000 
1 -3.24999999999999956 -12.05000000000000071 0.00000000000000000 -1.00000000000000000 
1 0.00000000000000000 0.00000000000000000 1.00000000000000000 0.00000000000000000 
1 0.00000000000000000 -4.50000000000000000 1.00000000000000000 0.00000000000000000 
1 -3.24999999999999956 -12.05000000000000071 0.00000000000000000 -1.00000000000000000 
1 0.00000000000000000 0.00000000000000000 1.00000000000000000 0.00000000000000000 
1 0.00000000000000000 -4.50000000000000000 1.00000000000000000 0.00000000000000000 
1 -3.24999999999999956 -16.00000000000000000 1.00000000000000000 0.00000000000000000 
1 0.00000000000000000 0.00000000000000000 1.00000000000000000 0.00000000000000000 
1 0.00000000000000000 -4.50000000000000000 1.00000000000000000 0.00000000000000000 
1 -3.24999999999999956 -16.00000000000000000 1.00000000000000000 0.00000000000000000 
1 0.00000000000000000 0.00000000000000000 1.00000000000000000 0.00000000000000000 
1 0.00000000000000000 -4.50000000000000000 1.00000000000000000 0.00000000000000000 
1 -3.24999999999999956 -16.00000000000000000 1.00000000000000000 0.00000000000000000 
Curves 16
1 -22.50199156493598096 -16.00000000000000000 6.50000000000000000 -1.00000000000000000 0.00000000000000000 0.00000000000000000 
1 -22.50199156493598096 -12.05000000000000071 6.50000000000000000 -1.00000000000000000 0.00000000000000000 0.00000000000000000 
1 16.00000000000000000 6.50000000000000000 0.00000000000000000 -1.00000000000000000 0.00000000000000000 0.00000000000000000 
1 -22.50199156493598096 -12.05000000000000071 0.00000000000000000 -1.00000000000000000 0.00000000000000000 0.00000000000000000 
1 12.05000000000000071 6.50000000000000000 0.00000000000000000 0.00000000000000000 -1.00000000000000000 0.00000000000000000 
1 -22.50199156493598096 -16.00000000000000000 0.00000000000000000 -1.00000000000000000 0.00000000000000000 0.00000000000000000 
1 12.05000000000000071 0.00000000000000000 0.00000000000000000 1.00000000000000000 0.00000000000000000 0.00000000000000000 
1 16.00000000000000000 0.00000000000000000 0.00000000000000000 0.00000000000000000 1.00000000000000000 0.00000000000000000 
1 -22.50199156493598096 16.00000000000000000 6.50000000000000000 -1.00000000000000000 0.00000000000000000 0.00000000000000000 
1 -22.50199156493598096 12.05000000000000071 6.50000000000000000 -1.00000000000000000 0.00000000000000000 0.00000000000000000 
1 -16.00000000000000000 6.50000000000000000 0.00000000000000000 1.00000000000000000 0.00000000000000000 0.00000000000000000 
1 -22.50199156493598096 12.05000000000000071 0.00000000000000000 -1.00000000000000000 0.00000000000000000 0.00000000000000000 
1 -12.05000000000000071 6.50000000000000000 0.00000000000000000 0.00000000000000000 -1.00000000000000000 0.00000000000000000 
1 -22.50199156493598096 16.00000000000000000 0.00000000000000000 -1.00000000000000000 0.00000000000000000 0.00000000000000000 
1 -12.05000000000000071 0.00000000000000000 0.00000000000000000 -1.00000000000000000 0.00000000000000000 0.00000000000000000 
1 -16.00000000000000000 0.00000000000000000 0.00000000000000000 0.00000000000000000 1.00000000000000000 0.00000000000000000 
Polygon3D 0
PolygonOnTriangulations 0
Surfaces 31
1 -22.50199156493598096 -16.00000000000000000 6.50000000000000000 0.00000000000000000 0.00000000000000000 -1.00000000000000000 0.00000000000000000 1.00000000000000000 0.00000000000000000 1.00000000000000000 -0.00000000000000000 0.00000000000000000 
1 -22.50199156493598096 -16.00000000000000000 0.00000000000000000 0.00000000000000000 1.00000000000000000 -0.00000000000000000 0.00000000000000000 0.00000000000000000 1.00000000000000000 1.00000000000000000 -0.00000000000000000 0.00000000000000000 
1 -22.50199156493598096 -12.05000000000000071 6.50000000000000000 -0.00000000000000000 -1.00000000000000000 -0.00000000000000000 0.00000000000000000 0.00000000000000000 -1.00000000000000000 1.00000000000000000 -0.00000000000000000 0.00000000000000000 
1 -22.50199156493597386 -0.00000000000000068 3.24999999999999956 1.00000000000000000 0.00000000000000000 0.00000000000000000 -0.00000000000000000 0.00000000000000000 1.00000000000000000 0.00000000000000000 -1.00000000000000000 0.00000000000000000 
1 -22.50199156493598096 -16.00000000000000000 6.50000000000000000 0.00000000000000000 0.00000000000000000 -1.00000000000000000 0.00000000000000000 1.00000000000000000 0.00000000000000000 1.00000000000000000 -0.00000000000000000 0.00000000000000000 
1 -22.50199156493597386 -0.00000000000000068 3.24999999999999956 1.00000000000000000 0.00000000000000000 0.00000000000000000 -0.00000000000000000 0.00000000000000000 1.00000000000000000 0.00000000000000000 -1.00000000000000000 0.00000000000000000 
1 -22.50199156493598096 -16.00000000000000000 6.50000000000000000 0.00000000000000000 0.00000000000000000 -1.00000000000000000 0.00000000000000000 1.00000000000000000 0.00000000000000000 1.00000000000000000 -0.00000000000000000 0.00000000000000000 
1 -22.50199156493597386 -0.00000000000000068 3.24999999999999956 1.00000000000000000 0.00000000000000000 0.00000000000000000 -0.00000000000000000 0.00000000000000000 1.00000000000000000 0.00000000000000000 -1.00000000000000000 0.00000000000000000 
1 -22.50199156493598096 -12.05000000000000071 0.00000000000000000 0.00000000000000000 0.00000000000000000 1.00000000000000000 0.00000000000000000 -1.00000000000000000 0.00000000000000000 1.00000000000000000 0.00000000000000000 -0.00000000000000000 
1 -22.50199156493598096 -12.05000000000000071 6.50000000000000000 -0.00000000000000000 -1.00000000000000000 -0.00000000000000000 0.00000000000000000 0.00000000000000000 -1.00000000000000000 1.00000000000000000 -0.00000000000000000 0.00000000000000000 
1 -22.50199156493598096 16.00000000000000000 0.00000000000000000 1.00000000000000000 0.00000000000000000 -0.00000000000000000 0.00000000000000000 -1.00000000000000000 0.00000000000000000 0.00000000000000000 -0.00000000000000000 -1.00000000000000000 
1 -22.50199156493598096 -12.05000000000000071 6.50000000000000000 -0.00000000000000000 -1.00000000000000000 -0.00000000000000000 0.00000000000000000 0.00000000000000000 -1.00000000000000000 1.00000000000000000 -0.00000000000000000 0.00000000000000000 
1 -22.50199156493598096 -12.05000000000000071 0.00000000000000000 0.00000000000000000 0.00000000000000000 1.00000000000000000 0.00000000000000000 -1.00000000000000000 0.00000000000000000 1.00000000000000000 0.00000000000000000 -0.00000000000000000 
1 -22.50199156493598096 -12.05000000000000071 0.00000000000000000 0.00000000000000000 0.00000000000000000 1.00000000000000000 0.00000000000000000 -1.00000000000000000 0.00000000000000000 1.00000000000000000 0.00000000000000000 -0.00000000000000000 
1 -22.50199156493598096 -16.00000000000000000 0.00000000000000000 0.00000000000000000 1.00000000000000000 -0.00000000000000000 0.00000000000000000 0.00000000000000000 1.00000000000000000 1.00000000000000000 -0.00000000000000000 0.00000000000000000 
1 -22.50199156493598096 -16.00000000000000000 0.00000000000000000 0.00000000000000000 1.00000000000000000 -0.00000000000000000 0.00000000000000000 0.00000000000000000 1.00000000000000000 1.00000000000000000 -0.00000000000000000 0.00000000000000000 
1 -22.50199156493598096 16.00000000000000000 6.50000000000000000 0.00000000000000000 0.00000000000000000 1.00000000000000000 0.00000000000000000 -1.00000000000000000 0.00000000000000000 1.00000000000000000 0.00000000000000000 -0.00000000000000000 
1 -22.50199156493598096 16.00000000000000000 0.00000000000000000 0.00000000000000000 1.00000000000000000 -0.00000000000000000 0.00000000000000000 0.00000000000000000 1.00000000000000000 1.00000000000000000 -0.00000000000000000 0.00000000000000000 
1 -22.50199156493598096 12.05000000000000071 6.50000000000000000 -0.00000000000000000 -1.00000000000000000 -0.00000000000000000 0.00000000000000000 0.00000000000000000 -1.00000000000000000 1.00000000000000000 -0.00000000000000000 0.00000000000000000 
1 -22.50199156493597386 -0.00000000000000068 3.24999999999999956 1.00000000000000000 0.00000000000000000 0.00000000000000000 -0.00000000000000000 0.00000000000000000 1.00000000000000000 0.00000000000000000 -1.00000000000000000 0.00000000000000000 
1 -22.50199156493598096 16.00000000000000000 6.50000000000000000 0.00000000000000000 0.00000000000000000 1.00000000000000000 0.00000000000000000 -1.00000000000000000 0.00000000000000000 1.00000000000000000 0.00000000000000000 -0.00000000000000000 
1 -22.50199156493597386 -0.00000000000000068 3.24999999999999956 1.00000000000000000 0.00000000000000000 0.00000000000000000 -0.00000000000000000 0.00000000000000000 1.00000000000000000 0.00000000000000000 -1.00000000000000000 0.00000000000000000 
1 -22.50199156493598096 16.00000000000000000 6.50000000000000000 0.00000000000000000 0.00000000000000000 1.00000000000000000 0.00000000000000000 -1.00000000000000000 0.00000000000000000 1.00000000000000000 0.00000000000000000 -0.00000000000000000 
1 -22.50199156493597386 -0.00000000000000068 3.24999999999999956 1.00000000000000000 0.00000000000000000 0.00000000000000000 -0.00000000000000000 0.00000000000000000 1.00000000000000000 0.00000000000000000 -1.00000000000000000 0.00000000000000000 
1 -22.50199156493598096 12.05000000000000071 0.00000000000000000 0.00000000000000000 0.00000000000000000 -1.00000000000000000 0.00000000000000000 1.00000000000000000 0.00000000000000000 1.00000000000000000 -0.00000000000000000 0.00000000000000000 
1 -22.50199156493598096 12.05000000000000071 6.50000000000000000 -0.00000000000000000 -1.00000000000000000 -0.00000000000000000 0.00000000000000000 0.00000000000000000 -1.00000000000000000 1.00000000000000000 -0.00000000000000000 0.00000000000000000 
1 -22.50199156493598096 12.05000000000000071 6.50000000000000000 -0.00000000000000000 -1.00000000000000000 -0.00000000000000000 0.00000000000000000 0.00000000000000000 -1.00000000000000000 1.00000000000000000 -0.00000000000000000 0.00000000000000000 
1 -22.50199156493598096 12.05000000000000071 0.00000000000000000 0.00000000000000000 0.00000000000000000 -1.00000000000000000 0.00000000000000000 1.00000000000000000 0.00000000000000000 1.00000000000000000 -0.00000000000000000 0.00000000000000000 
1 -22.50199156493598096 12.05000000000000071 0.00000000000000000 0.00000000000000000 0.00000000000000000 -1.00000000000000000 0.00000000000000000 1.00000000000000000 0.00000000000000000 1.00000000000000000 -0.00000000000000000 0.00000000000000000 
1 -22.50199156493598096 16.00000000000000000 0.00000000000000000 0.00000000000000000 1.00000000000000000 -0.00000000000000000 0.00000000000000000 0.00000000000000000 1.00000000000000000 1.00000000000000000 -0.00000000000000000 0.00000000000000000 
1 -22.50199156493598096 16.00000000000000000 0.00000000000000000 0.00000000000000000 1.00000000000000000 -0.00000000000000000 0.00000000000000000 0.00000000000000000 1.00000000000000000 1.00000000000000000 -0.00000000000000000 0.00000000000000000 
Triangulations 0

TShapes 49
Ve
0.000000100000000
16.000000000000000 6.500000000000000 0.000000000000000
0 0

0101101
*
Ed
 0.000000100000000 1 1 0
1  1 0 0.000000000000000 4.500000000000000
2  1 2 0 0.000000000000000 4.500000000000000
2  2 1 0 0.000000000000000 4.500000000000000
0

0101000
+49 4 -49 6 *
Ve
0.000000100000000
12.050000000000001 6.500000000000000 0.000000000000000
0 0

0101101
*
Ed
 0.000000100000000 1 1 0
1  2 0 0.000000000000000 4.500000000000000
2  3 1 0 0.000000000000000 4.500000000000000
2  4 3 0 0.000000000000000 4.500000000000000
0

0101000
+47 4 -47 6 *
Ed
 0.000000100000000 1 1 0
1  3 0 0.000000000000000 3.949999999999999
2  5 4 9 0.000000000000000 3.949999999999999
2  6 5 11 0.000000000000000 3.949999999999999
2  7 5 13 0.000000000000000 3.949999999999999
2  8 6 16 0.000000000000000 3.949999999999999
2  9 7 18 0.000000000000000 3.949999999999999
2  10 7 20 0.000000000000000 3.949999999999999
2  11 8 21 0.000000000000000 3.949999999999999
2  12 1 22 0.000000000000000 3.949999999999999
2  13 1 23 0.000000000000000 3.949999999999999
0

0101000
+49 0 -47 0 *
Wi

0101100
+48 0 -46 0 -45 4 +45 6 *
Fa
0  0.000000100000000 1 0

0111000
+44 0 *
Ve
0.000000100000000
12.050000000000001 0.000000000000000 0.000000000000000
0 0

0101101
*
Ed
 0.000000100000000 1 1 0
1  4 0 0.000000000000000 4.500000000000000
2  14 9 0 0.000000000000000 4.500000000000000
2  15 3 0 0.000000000000000 4.500000000000000
0

0101000
+42 4 -42 6 *
Ed
 0.000000100000000 1 1 0
1  5 0 0.000000000000000 6.500000000000000
2  16 4 9 0.000000000000000 6.500000000000000
2  17 10 11 0.000000000000000 6.500000000000000
2  18 10 13 0.000000000000000 6.500000000000000
2  19 11 33 0.000000000000000 6.500000000000000
2  20 6 16 0.000000000000000 6.500000000000000
2  21 12 18 0.000000000000000 6.500000000000000
2  22 12 20 0.000000000000000 6.500000000000000
2  23 11 36 0.000000000000000 6.500000000000000
2  24 8 21 0.000000000000000 6.500000000000000
2  25 3 22 0.000000000000000 6.500000000000000
2  26 3 23 0.000000000000000 6.500000000000000
2  27 11 37 0.000000000000000 6.500000000000000
0

0101000
+47 0 -42 0 *
Wi

0101100
+46 0 -41 0 -40 4 +40 6 *
Fa
0  0.000000100000000 3 0

0111000
+39 0 *
Ve
0.000000100000000
16.000000000000000 0.000000000000000 0.000000000000000
0 0

0101101
*
Ed
 0.000000100000000 1 1 0
1  6 0 0.000000000000000 4.500000000000000
2  28 9 0 0.000000000000000 4.500000000000000
2  29 2 0 0.000000000000000 4.500000000000000
0

0101000
+37 4 -37 6 *
Ed
 0.000000100000000 1 1 0
1  7 0 0.000000000000000 3.949999999999999
2  30 13 11 0.000000000000000 3.949999999999999
2  31 13 13 0.000000000000000 3.949999999999999
2  32 4 9 0.000000000000000 3.949999999999999
2  33 14 18 0.000000000000000 3.949999999999999
2  34 14 20 0.000000000000000 3.949999999999999
2  35 6 16 0.000000000000000 3.949999999999999
2  36 9 22 0.000000000000000 3.949999999999999
2  37 9 23 0.000000000000000 3.949999999999999
2  38 8 21 0.000000000000000 3.949999999999999
0

0101000
+42 0 -37 0 *
Wi

0101100
+41 0 -36 0 -35 4 +35 6 *
Fa
0  0.000000100000000 9 0

0111000
+34 0 *
Ed
 0.000000100000000 1 1 0
1  8 0 0.000000000000000 6.500000000000000
2  39 15 11 0.000000000000000 6.500000000000000
2  40 15 13 0.000000000000000 6.500000000000000
2  41 4 9 0.000000000000000 6.500000000000000
2  42 16 18 0.000000000000000 6.500000000000000
2  43 16 20 0.000000000000000 6.500000000000000
2  44 6 16 0.000000000000000 6.500000000000000
2  45 2 22 0.000000000000000 6.500000000000000
2  46 2 23 0.000000000000000 6.500000000000000
2  47 8 21 0.000000000000000 6.500000000000000
0

0101000
+37 0 -49 0 *
Wi

0101100
+36 0 -48 0 -32 4 +32 6 *
Fa
0  0.000000100000000 2 0

0111000
+31 0 *
Wi

0101100
+45 0 +40 0 +35 0 +32 0 *
Fa
0  0.000000100000000 8 0

0111000
-29 39 *
Sh

0101100
-43 0 -38 0 -33 0 -30 0 +28 38 -28 40 *
So

0100000
+27 0 *
Ve
0.000000100000000
-16.000000000000000 6.500000000000000 0.000000000000000
0 0

0101101
*
Ed
 0.000000100000000 1 1 0
1  9 0 0.000000000000000 4.500000000000000
2  48 18 0 0.000000000000000 4.500000000000000
2  49 17 0 0.000000000000000 4.500000000000000
0

0101000
+25 4 -25 6 *
Ve
0.000000100000000
-12.050000000000001 6.500000000000000 0.000000000000000
0 0

0101101
*
Ed
 0.000000100000000 1 1 0
1  10 0 0.000000000000000 4.500000000000000
2  50 17 0 0.000000000000000 4.500000000000000
2  51 19 0 0.000000000000000 4.500000000000000
0

0101000
+23 4 -23 6 *
Ed
 0.000000100000000 1 1 0
1  11 0 0.000000000000000 3.949999999999999
2  52 20 9 0.000000000000000 3.949999999999999
2  53 21 11 0.000000000000000 3.949999999999999
2  54 21 13 0.000000000000000 3.949999999999999
2  55 22 16 0.000000000000000 3.949999999999999
2  56 23 18 0.000000000000000 3.949999999999999
2  57 23 20 0.000000000000000 3.949999999999999
2  58 24 21 0.000000000000000 3.949999999999999
2  59 17 22 0.000000000000000 3.949999999999999
2  60 17 23 0.000000000000000 3.949999999999999
0

0101000
+25 0 -23 0 *
Wi

0101100
+24 0 -22 0 -21 4 +21 6 *
Fa
0  0.000000100000000 17 0

0111000
+20 0 *
Ve
0.000000100000000
-12.050000000000001 0.000000000000000 0.000000000000000
0 0

0101101
*
Ed
 0.000000100000000 1 1 0
1  12 0 0.000000000000000 4.500000000000000
2  61 25 0 0.000000000000000 4.500000000000000
2  62 19 0 0.000000000000000 4.500000000000000
0

0101000
+18 4 -18 6 *
Ed
 0.000000100000000 1 1 0
1  13 0 0.000000000000000 6.500000000000000
2  63 20 9 0.000000000000000 6.500000000000000
2  64 26 11 0.000000000000000 6.500000000000000
2  65 26 13 0.000000000000000 6.500000000000000
2  66 11 33 0.000000000000000 6.500000000000000
2  67 22 16 0.000000000000000 6.500000000000000
2  68 27 18 0.000000000000000 6.500000000000000
2  69 27 20 0.000000000000000 6.500000000000000
2  70 11 36 0.000000000000000 6.500000000000000
2  71 24 21 0.000000000000000 6.500000000000000
2  72 19 22 0.000000000000000 6.500000000000000
2  73 19 23 0.000000000000000 6.500000000000000
2  74 11 37 0.000000000000000 6.500000000000000
0

0101000
+23 0 -18 0 *
Wi

0101100
+22 0 -17 0 -16 4 +16 6 *
Fa
0  0.000000100000000 19 0

0111000
+15 0 *
Ve
0.000000100000000
-16.000000000000000 0.000000000000000 0.000000000000000
0 0

0101101
*
Ed
 0.000000100000000 1 1 0
1  14 0 0.000000000000000 4.500000000000000
2  75 25 0 0.000000000000000 4.500000000000000
2  76 18 0 0.000000000000000 4.500000000000000
0

0101000
+13 4 -13 6 *
Ed
 0.000000100000000 1 1 0
1  15 0 0.000000000000000 3.949999999999999
2  77 28 11 0.000000000000000 3.949999999999999
2  78 28 13 0.000000000000000 3.949999999999999
2  79 20 9 0.000000000000000 3.949999999999999
2  80 29 18 0.000000000000000 3.949999999999999
2  81 29 20 0.000000000000000 3.949999999999999
2  82 22 16 0.000000000000000 3.949999999999999
2  83 25 22 0.000000000000000 3.949999999999999
2  84 25 23 0.000000000000000 3.949999999999999
2  85 24 21 0.000000000000000 3.949999999999999
0

0101000
+18 0 -13 0 *
Wi

0101100
+17 0 -12 0 -11 4 +11 6 *
Fa
0  0.000000100000000 25 0

0111000
+10 0 *
Ed
 0.000000100000000 1 1 0
1  16 0 0.000000000000000 6.500000000000000
2  86 30 11 0.000000000000000 6.500000000000000
2  87 30 13 0.000000000000000 6.500000000000000
2  88 20 9 0.000000000000000 6.500000000000000
2  89 31 18 0.000000000000000 6.500000000000000
2  90 31 20 0.000000000000000 6.500000000000000
2  91 22 16 0.000000000000000 6.500000000000000
2  92 18 22 0.000000000000000 6.500000000000000
2  93 18 23 0.000000000000000 6.500000000000000
2  94 24 21 0.000000000000000 6.500000000000000
0

0101000
+13 0 -25 0 *
Wi

0101100
+12 0 -24 0 -8 4 +8 6 *
Fa
0  0.000000100000000 18 0

0111000
+7 0 *
Wi

0101100
+21 0 +16 0 +11 0 +8 0 *
Fa
0  0.000000100000000 24 0

0111000
+5 39 *
Sh

0101100
+19 0 +14 0 +9 0 +6 0 +4 38 -4 40 *
So

0100000
+3 0 *
Co

1100000
+26 0 +2 0 *

+1 0 