%TF.GenerationSoftware,KiCad,Pcbnew,6.0.7-1.fc35*%
%TF.CreationDate,2022-12-16T23:41:26+01:00*%
%TF.ProjectId,inner,696e6e65-722e-46b6-9963-61645f706362,rev?*%
%TF.SameCoordinates,Original*%
%TF.FileFunction,Legend,Top*%
%TF.FilePolarity,Positive*%
%FSLAX46Y46*%
G04 Gerber Fmt 4.6, Leading zero omitted, Abs format (unit mm)*
G04 Created by KiCad (PCBNEW 6.0.7-1.fc35) date 2022-12-16 23:41:26*
%MOMM*%
%LPD*%
G01*
G04 APERTURE LIST*
%ADD10C,0.120000*%
%ADD11C,0.100000*%
%ADD12C,0.125000*%
%ADD13C,0.150000*%
%ADD14C,0.080000*%
G04 APERTURE END LIST*
D10*
X184773585Y-95052638D02*
X185791215Y-95383286D01*
X195052638Y-115226415D02*
X195383286Y-114208785D01*
X185114278Y-105893674D02*
X185421104Y-105772193D01*
X197993415Y-84116244D02*
X198034775Y-84443642D01*
X195052638Y-84773585D02*
X195383286Y-85791215D01*
X197661211Y-115838250D02*
X197709418Y-115511790D01*
X184880534Y-94734845D02*
X185192178Y-94843371D01*
X208859799Y-113335069D02*
X208677180Y-113060205D01*
X215953851Y-98660318D02*
X215625008Y-98687932D01*
X215995957Y-99329571D02*
X215666246Y-99343390D01*
X202669968Y-84214203D02*
X202614934Y-84539582D01*
X187453068Y-90055424D02*
X187711687Y-90260403D01*
X187247556Y-109679632D02*
X187510411Y-109480114D01*
X184214203Y-102669968D02*
X184539582Y-102614934D01*
X184077704Y-101673501D02*
X184405896Y-101639007D01*
D11*
X217150003Y-100000000D02*
G75*
G03*
X217150003Y-100000000I-17150003J0D01*
G01*
D10*
X196671334Y-84339857D02*
X196893800Y-85386475D01*
X215785797Y-102669968D02*
X215460418Y-102614934D01*
X184116244Y-97993415D02*
X184443642Y-98034775D01*
X214486281Y-93183274D02*
X214187688Y-93323781D01*
X186482310Y-108578587D02*
X186760938Y-108401764D01*
X184273581Y-97000025D02*
X184597736Y-97061861D01*
X214625863Y-106511854D02*
X214324393Y-106377631D01*
X205893674Y-85114278D02*
X205772193Y-85421104D01*
X210461264Y-87880509D02*
X210245635Y-88130317D01*
X207118609Y-85659655D02*
X206971879Y-85955240D01*
X201005276Y-84021592D02*
X200984555Y-84350941D01*
D11*
X211550000Y-84620000D02*
X210740000Y-85695000D01*
D10*
X209410442Y-112952362D02*
X208781512Y-112086714D01*
X214759029Y-93795875D02*
X214454814Y-93923755D01*
X215883756Y-97993415D02*
X215556358Y-98034775D01*
X189538736Y-87880509D02*
X189754365Y-88130317D01*
X215883756Y-102006585D02*
X215556358Y-101965225D01*
X209944576Y-112546932D02*
X209739597Y-112288313D01*
X188102251Y-89287219D02*
X188347489Y-89508032D01*
X190055424Y-112546932D02*
X190260403Y-112288313D01*
X191140201Y-113335069D02*
X191322820Y-113060205D01*
X212546932Y-109944576D02*
X212288313Y-109739597D01*
X207118609Y-114340345D02*
X206971879Y-114044760D01*
X210712781Y-111897749D02*
X209996811Y-111102584D01*
X193488146Y-114625863D02*
X193622369Y-114324393D01*
X206511854Y-114625863D02*
X206076646Y-113648369D01*
X203328666Y-115660143D02*
X203106200Y-114613525D01*
X184339857Y-103328666D02*
X184662646Y-103260055D01*
X212335917Y-110205158D02*
X212081648Y-109994808D01*
X184077704Y-98326499D02*
X184405896Y-98360993D01*
X184673315Y-95372601D02*
X184989230Y-95467981D01*
X184161750Y-102338789D02*
X184488210Y-102290582D01*
X208859799Y-86664931D02*
X208677180Y-86939795D01*
X185240971Y-106204125D02*
X185545186Y-106076245D01*
X215838250Y-97661211D02*
X215511790Y-97709418D01*
X202669968Y-115785797D02*
X202614934Y-115460418D01*
X189287219Y-88102251D02*
X190003189Y-88897416D01*
X201673501Y-115922296D02*
X201639007Y-115594104D01*
X184021592Y-98994724D02*
X184350941Y-99015445D01*
X208578587Y-86482310D02*
X208401764Y-86760938D01*
X184273581Y-102999975D02*
X184597736Y-102938139D01*
X188561292Y-88798390D02*
X188797068Y-89029279D01*
X212952362Y-109410442D02*
X212086714Y-108781512D01*
X191421413Y-113517690D02*
X191598236Y-113239062D01*
X187047638Y-90589558D02*
X187913286Y-91218488D01*
D11*
X190170000Y-85060000D02*
X189730000Y-85370000D01*
D10*
X211201610Y-111438708D02*
X210970721Y-111202932D01*
X194106326Y-114885722D02*
X194227807Y-114578896D01*
X185513719Y-106816726D02*
X185812312Y-106676219D01*
X215978408Y-101005276D02*
X215649059Y-100984555D01*
X213335069Y-108859799D02*
X213060205Y-108677180D01*
X191140201Y-86664931D02*
X191322820Y-86939795D01*
X184994115Y-94419362D02*
X185303418Y-94534391D01*
X201339682Y-84046149D02*
X201312068Y-84374992D01*
X187880509Y-110461264D02*
X188130317Y-110245635D01*
X200670429Y-84004043D02*
X200656610Y-84333754D01*
X197993415Y-115883756D02*
X198034775Y-115556358D01*
X211897749Y-89287219D02*
X211102584Y-90003189D01*
X215690000Y-108520000D02*
X214900000Y-109780000D01*
X198994724Y-115978408D02*
X199015445Y-115649059D01*
X193488146Y-114625863D02*
X193923354Y-113648369D01*
X184994115Y-105580638D02*
X185303418Y-105465609D01*
X184000000Y-92020000D02*
X183620000Y-92870000D01*
X215005885Y-105580638D02*
X214696582Y-105465609D01*
X215838250Y-102338789D02*
X215511790Y-102290582D01*
X212335917Y-89794842D02*
X212081648Y-90005192D01*
X189538736Y-112119491D02*
X189754365Y-111869683D01*
X184492984Y-103981525D02*
X184812616Y-103899457D01*
X198326499Y-84077704D02*
X198438344Y-85141842D01*
X188102251Y-89287219D02*
X188897416Y-90003189D01*
X184077704Y-98326499D02*
X185141842Y-98438344D01*
X185240971Y-93795875D02*
X185545186Y-93923755D01*
X187664083Y-89794842D02*
X187918352Y-90005192D01*
X185374137Y-93488146D02*
X185675607Y-93622369D01*
X207417370Y-114188119D02*
X207264482Y-113895672D01*
X185513719Y-93183274D02*
X185812312Y-93323781D01*
X201673501Y-84077704D02*
X201639007Y-84405896D01*
X203328666Y-84339857D02*
X203106200Y-85386475D01*
X192881391Y-85659655D02*
X193028121Y-85955240D01*
X185659655Y-107118609D02*
X185955240Y-106971879D01*
X212546932Y-90055424D02*
X212288313Y-90260403D01*
X215326685Y-104627399D02*
X215010770Y-104532019D01*
X188329212Y-89040401D02*
X188569772Y-89266302D01*
X212752444Y-90320368D02*
X212489589Y-90519886D01*
X190862876Y-86853401D02*
X191051211Y-87124380D01*
X211897749Y-89287219D02*
X211652511Y-89508032D01*
X188102251Y-110712781D02*
X188347489Y-110491968D01*
X214340345Y-92881391D02*
X214044760Y-93028121D01*
X200000000Y-80180000D02*
X199640000Y-80810000D01*
X195694594Y-115420233D02*
X195783338Y-115102389D01*
X184579767Y-95694594D02*
X184897611Y-95783338D01*
X206511854Y-85374137D02*
X206076646Y-86351631D01*
X196671334Y-84339857D02*
X196739945Y-84662646D01*
D11*
X218460000Y-94530000D02*
X217126469Y-94928421D01*
D10*
X198326499Y-115922296D02*
X198360993Y-115594104D01*
X186482310Y-91421413D02*
X186760938Y-91598236D01*
X204947362Y-84773585D02*
X204845386Y-85087434D01*
X190320368Y-87247556D02*
X190519886Y-87510411D01*
X184046149Y-101339682D02*
X184374992Y-101312068D01*
X209679632Y-112752444D02*
X209480114Y-112489589D01*
X207417370Y-85811881D02*
X207264482Y-86104328D01*
X193488146Y-85374137D02*
X193622369Y-85675607D01*
X214625863Y-93488146D02*
X213648369Y-93923354D01*
X196018475Y-115507016D02*
X196100543Y-115187384D01*
X184773585Y-104947362D02*
X185791215Y-104616714D01*
X203981525Y-84492984D02*
X203899457Y-84812616D01*
X197000025Y-115726419D02*
X197061861Y-115402264D01*
X212952362Y-109410442D02*
X212685386Y-109216473D01*
X189287219Y-111897749D02*
X189508032Y-111652511D01*
X208578587Y-113517690D02*
X208401764Y-113239062D01*
X216030000Y-100000000D02*
G75*
G03*
X216030000Y-100000000I-16030000J0D01*
G01*
X190320368Y-112752444D02*
X190519886Y-112489589D01*
X190589558Y-112952362D02*
X190783527Y-112685386D01*
X191421413Y-86482310D02*
X191598236Y-86760938D01*
X197330032Y-115785797D02*
X197385066Y-115460418D01*
X196018475Y-84492984D02*
X196100543Y-84812616D01*
X196671334Y-115660143D02*
X196893800Y-114613525D01*
X211670788Y-110959599D02*
X211430228Y-110733698D01*
X213146599Y-109137124D02*
X212875620Y-108948789D01*
D11*
X217119111Y-94930697D02*
X216960890Y-94409303D01*
D10*
X214486281Y-106816726D02*
X214187688Y-106676219D01*
X195052638Y-115226415D02*
X195154614Y-114912566D01*
X184339857Y-96671334D02*
X185386475Y-96893800D01*
X203328666Y-115660143D02*
X203260055Y-115337354D01*
X210712781Y-88102251D02*
X210491968Y-88347489D01*
X198660318Y-84046149D02*
X198687932Y-84374992D01*
X206204125Y-114759029D02*
X206076245Y-114454814D01*
X202999975Y-115726419D02*
X202938139Y-115402264D01*
X189040401Y-88329212D02*
X189266302Y-88569772D01*
X202338789Y-84161750D02*
X202290582Y-84488210D01*
X211897749Y-110712781D02*
X211652511Y-110491968D01*
X204305406Y-84579767D02*
X204216662Y-84897611D01*
X206511854Y-114625863D02*
X206377631Y-114324393D01*
X206816726Y-114486281D02*
X206676219Y-114187688D01*
D11*
X210740000Y-85695000D02*
X209900000Y-85105000D01*
D10*
X206511854Y-85374137D02*
X206377631Y-85675607D01*
X195372601Y-115326685D02*
X195467981Y-115010770D01*
X215995957Y-100670429D02*
X215666246Y-100656610D01*
X201339682Y-115953851D02*
X201312068Y-115625008D01*
X212119491Y-89538736D02*
X211869683Y-89754365D01*
X195052638Y-84773585D02*
X195154614Y-85087434D01*
X185114278Y-94106326D02*
X185421104Y-94227807D01*
X204305406Y-115420233D02*
X204216662Y-115102389D01*
X195694594Y-84579767D02*
X195783338Y-84897611D01*
X215119466Y-105265155D02*
X214807822Y-105156629D01*
X198994724Y-84021592D02*
X199015445Y-84350941D01*
X203328666Y-84339857D02*
X203260055Y-84662646D01*
X215226415Y-95052638D02*
X214912566Y-95154614D01*
X189794842Y-112335917D02*
X190005192Y-112081648D01*
X184004043Y-99329571D02*
X184333754Y-99343390D01*
X192881391Y-114340345D02*
X193028121Y-114044760D01*
X188329212Y-110959599D02*
X188569772Y-110733698D01*
X184880534Y-105265155D02*
X185192178Y-105156629D01*
X209137124Y-86853401D02*
X208948789Y-87124380D01*
X198660318Y-115953851D02*
X198687932Y-115625008D01*
X213517690Y-108578587D02*
X213239062Y-108401764D01*
X193795875Y-114759029D02*
X193923755Y-114454814D01*
X205265155Y-84880534D02*
X205156629Y-85192178D01*
X202999975Y-84273581D02*
X202938139Y-84597736D01*
X186853401Y-90862876D02*
X187124380Y-91051211D01*
X184773585Y-104947362D02*
X185087434Y-104845386D01*
X186664931Y-91140201D02*
X186939795Y-91322820D01*
X184116244Y-102006585D02*
X184443642Y-101965225D01*
X202006585Y-115883756D02*
X201965225Y-115556358D01*
X189794842Y-87664083D02*
X190005192Y-87918352D01*
X180530000Y-96230000D02*
X182490000Y-96580000D01*
X184161750Y-97661211D02*
X184488210Y-97709418D01*
X215005885Y-94419362D02*
X214696582Y-94534391D01*
X215922296Y-101673501D02*
X215594104Y-101639007D01*
X210205158Y-112335917D02*
X209994808Y-112081648D01*
D11*
X204570000Y-82720000D02*
X205600000Y-83020000D01*
D10*
X189040401Y-111670788D02*
X189266302Y-111430228D01*
D11*
X217860000Y-100110000D02*
X219820000Y-100120000D01*
D10*
X199329571Y-115995957D02*
X199343390Y-115666246D01*
X215507016Y-103981525D02*
X215187384Y-103899457D01*
X209137124Y-113146599D02*
X208948789Y-112875620D01*
X205893674Y-114885722D02*
X205772193Y-114578896D01*
X215726419Y-102999975D02*
X215402264Y-102938139D01*
X215586998Y-103655897D02*
X215265717Y-103580541D01*
X204627399Y-84673315D02*
X204532019Y-84989230D01*
X210959599Y-111670788D02*
X210733698Y-111430228D01*
X195372601Y-84673315D02*
X195467981Y-84989230D01*
X187047638Y-90589558D02*
X187314614Y-90783527D01*
X215726419Y-97000025D02*
X215402264Y-97061861D01*
X204947362Y-84773585D02*
X204616714Y-85791215D01*
X193183274Y-85513719D02*
X193323781Y-85812312D01*
X215660143Y-103328666D02*
X215337354Y-103260055D01*
X185374137Y-93488146D02*
X186351631Y-93923354D01*
X182490000Y-96580000D02*
X182430000Y-96970000D01*
X196344103Y-84413002D02*
X196419459Y-84734283D01*
X215922296Y-98326499D02*
X214858158Y-98438344D01*
X213517690Y-91421413D02*
X213239062Y-91598236D01*
D11*
X212100000Y-85060000D02*
X211240000Y-86120000D01*
D10*
X184492984Y-96018475D02*
X184812616Y-96100543D01*
X210959599Y-88329212D02*
X210733698Y-88569772D01*
X214625863Y-106511854D02*
X213648369Y-106076646D01*
X215226415Y-104947362D02*
X214208785Y-104616714D01*
X211201610Y-88561292D02*
X210970721Y-88797068D01*
X190589558Y-112952362D02*
X191218488Y-112086714D01*
X188561292Y-111201610D02*
X188797068Y-110970721D01*
X215119466Y-94734845D02*
X214807822Y-94843371D01*
X216670000Y-106480000D02*
X217170000Y-104930000D01*
X203655897Y-115586998D02*
X203580541Y-115265717D01*
X185811881Y-107417370D02*
X186104328Y-107264482D01*
X209410442Y-87047638D02*
X208781512Y-87913286D01*
X202338789Y-115838250D02*
X202290582Y-115511790D01*
X209944576Y-87453068D02*
X209739597Y-87711687D01*
X188798390Y-111438708D02*
X189029279Y-111202932D01*
X184773585Y-95052638D02*
X185087434Y-95154614D01*
X217980000Y-106890000D02*
X216670000Y-106480000D01*
X214188119Y-107417370D02*
X213895672Y-107264482D01*
X201005276Y-115978408D02*
X200984555Y-115649059D01*
X185659655Y-92881391D02*
X185955240Y-93028121D01*
X215953851Y-101339682D02*
X215625008Y-101312068D01*
X187880509Y-89538736D02*
X188130317Y-89754365D01*
X196344103Y-115586998D02*
X196419459Y-115265717D01*
X214885722Y-94106326D02*
X214578896Y-94227807D01*
X194734845Y-84880534D02*
X194843371Y-85192178D01*
X198326499Y-84077704D02*
X198360993Y-84405896D01*
X201673501Y-115922296D02*
X201561656Y-114858158D01*
X184413002Y-96344103D02*
X184734283Y-96419459D01*
X194419362Y-84994115D02*
X194534391Y-85303418D01*
X201673501Y-84077704D02*
X201561656Y-85141842D01*
X187453068Y-109944576D02*
X187711687Y-109739597D01*
X183054311Y-91544525D02*
X184000000Y-92020000D01*
X215507016Y-96018475D02*
X215187384Y-96100543D01*
X215226415Y-104947362D02*
X214912566Y-104845386D01*
X193795875Y-85240971D02*
X193923755Y-85545186D01*
X193183274Y-114486281D02*
X193323781Y-114187688D01*
X211670788Y-89040401D02*
X211430228Y-89266302D01*
X187664083Y-110205158D02*
X187918352Y-109994808D01*
D11*
X217860000Y-100110000D02*
X217830000Y-98840000D01*
D10*
X215922296Y-101673501D02*
X214858158Y-101561656D01*
X189287219Y-111897749D02*
X190003189Y-111102584D01*
X185374137Y-106511854D02*
X186351631Y-106076646D01*
X184046149Y-98660318D02*
X184374992Y-98687932D01*
X184004043Y-100670429D02*
X184333754Y-100656610D01*
X200360000Y-80810000D02*
X200000000Y-80180000D01*
X211897749Y-110712781D02*
X211102584Y-109996811D01*
X215226415Y-95052638D02*
X214208785Y-95383286D01*
X198326499Y-115922296D02*
X198438344Y-114858158D01*
X188102251Y-110712781D02*
X188897416Y-109996811D01*
X205580638Y-115005885D02*
X205465609Y-114696582D01*
X187247556Y-90320368D02*
X187510411Y-90519886D01*
X215922296Y-98326499D02*
X215594104Y-98360993D01*
X210712781Y-111897749D02*
X210491968Y-111652511D01*
X190862876Y-113146599D02*
X191051211Y-112875620D01*
X184214203Y-97330032D02*
X184539582Y-97385066D01*
X215326685Y-95372601D02*
X215010770Y-95467981D01*
X204627399Y-115326685D02*
X204532019Y-115010770D01*
D11*
X204570000Y-82720000D02*
X204940000Y-81420000D01*
D10*
X214625863Y-93488146D02*
X214324393Y-93622369D01*
X197661211Y-84161750D02*
X197709418Y-84488210D01*
X192582630Y-85811881D02*
X192735518Y-86104328D01*
D11*
X189442662Y-83901629D02*
X190170000Y-85060000D01*
X205450000Y-117010000D02*
X206640000Y-116570000D01*
D10*
X194419362Y-115005885D02*
X194534391Y-114696582D01*
X190589558Y-87047638D02*
X191218488Y-87913286D01*
X202006585Y-84116244D02*
X201965225Y-84443642D01*
X184579767Y-104305406D02*
X184897611Y-104216662D01*
X184077704Y-101673501D02*
X185141842Y-101561656D01*
X215660143Y-103328666D02*
X214613525Y-103106200D01*
X206816726Y-85513719D02*
X206676219Y-85812312D01*
X190055424Y-87453068D02*
X190260403Y-87711687D01*
X197000025Y-84273581D02*
X197061861Y-84597736D01*
X184339857Y-96671334D02*
X184662646Y-96739945D01*
X216930000Y-109190000D02*
X215690000Y-108520000D01*
X203981525Y-115507016D02*
X203899457Y-115187384D01*
X209679632Y-87247556D02*
X209480114Y-87510411D01*
X212752444Y-109679632D02*
X212489589Y-109480114D01*
X187047638Y-109410442D02*
X187913286Y-108781512D01*
X215420233Y-104305406D02*
X215102389Y-104216662D01*
X199329571Y-84004043D02*
X199343390Y-84333754D01*
X184339857Y-103328666D02*
X185386475Y-103106200D01*
X210461264Y-112119491D02*
X210245635Y-111869683D01*
X196671334Y-115660143D02*
X196739945Y-115337354D01*
X190589558Y-87047638D02*
X190783527Y-87314614D01*
X204947362Y-115226415D02*
X204845386Y-114912566D01*
X186853401Y-109137124D02*
X187124380Y-108948789D01*
X215420233Y-95694594D02*
X215102389Y-95783338D01*
X187047638Y-109410442D02*
X187314614Y-109216473D01*
X215586998Y-96344103D02*
X215265717Y-96419459D01*
X214188119Y-92582630D02*
X213895672Y-92735518D01*
X213335069Y-91140201D02*
X213060205Y-91322820D01*
X205580638Y-84994115D02*
X205465609Y-85303418D01*
X213146599Y-90862876D02*
X212875620Y-91051211D01*
X197330032Y-84214203D02*
X197385066Y-84539582D01*
X184673315Y-104627399D02*
X184989230Y-104532019D01*
X206204125Y-85240971D02*
X206076245Y-85545186D01*
X215978408Y-98994724D02*
X215649059Y-99015445D01*
X185811881Y-92582630D02*
X186104328Y-92735518D01*
X184021592Y-101005276D02*
X184350941Y-100984555D01*
X212952362Y-90589558D02*
X212086714Y-91218488D01*
X189287219Y-88102251D02*
X189508032Y-88347489D01*
X204947362Y-115226415D02*
X204616714Y-114208785D01*
X185374137Y-106511854D02*
X185675607Y-106377631D01*
X194734845Y-115119466D02*
X194843371Y-114807822D01*
X200670429Y-115995957D02*
X200656610Y-115666246D01*
D11*
X207170000Y-117860000D02*
X206640000Y-116570000D01*
D10*
X212952362Y-90589558D02*
X212685386Y-90783527D01*
X203655897Y-84413002D02*
X203580541Y-84734283D01*
X212119491Y-110461264D02*
X211869683Y-110245635D01*
X211438708Y-88798390D02*
X211202932Y-89029279D01*
X209410442Y-87047638D02*
X209216473Y-87314614D01*
X186664931Y-108859799D02*
X186939795Y-108677180D01*
X188798390Y-88561292D02*
X189029279Y-88797068D01*
X210205158Y-87664083D02*
X209994808Y-87918352D01*
X215660143Y-96671334D02*
X215337354Y-96739945D01*
X194106326Y-85114278D02*
X194227807Y-85421104D01*
X214885722Y-105893674D02*
X214578896Y-105772193D01*
X210712781Y-88102251D02*
X209996811Y-88897416D01*
X209410442Y-112952362D02*
X209216473Y-112685386D01*
X215785797Y-97330032D02*
X215460418Y-97385066D01*
X215660143Y-96671334D02*
X214613525Y-96893800D01*
X192582630Y-114188119D02*
X192735518Y-113895672D01*
D11*
X211240000Y-86120000D02*
X211950000Y-86720000D01*
D10*
X214759029Y-106204125D02*
X214454814Y-106076245D01*
X184413002Y-103655897D02*
X184734283Y-103580541D01*
X193488146Y-85374137D02*
X193923354Y-86351631D01*
X205265155Y-115119466D02*
X205156629Y-114807822D01*
X214340345Y-107118609D02*
X214044760Y-106971879D01*
X211438708Y-111201610D02*
X211202932Y-110970721D01*
D12*
X198132027Y-118482169D02*
X198081508Y-118498970D01*
X197983853Y-118509003D01*
X197748174Y-118475167D01*
X197657286Y-118438065D01*
X197613534Y-118407730D01*
X197573166Y-118353827D01*
X197579933Y-118306692D01*
X197637219Y-118242755D01*
X198243451Y-118041147D01*
X197630687Y-117953173D01*
X196946866Y-118360125D02*
X196852595Y-118346591D01*
X196761707Y-118309489D01*
X196717955Y-118279154D01*
X196677586Y-118225251D01*
X196643985Y-118124212D01*
X196660903Y-118006373D01*
X196721573Y-117918869D01*
X196775476Y-117878500D01*
X196825995Y-117861699D01*
X196923650Y-117851666D01*
X197017922Y-117865200D01*
X197108810Y-117902302D01*
X197152562Y-117932637D01*
X197192930Y-117986540D01*
X197226532Y-118087579D01*
X197209614Y-118205418D01*
X197148944Y-118292923D01*
X197095041Y-118333291D01*
X197044522Y-118350092D01*
X196946866Y-118360125D01*
D10*
X213926521Y-108049830D02*
X214792546Y-108549830D01*
X184311394Y-103615706D02*
X183336633Y-103838956D01*
D13*
X186186750Y-90196311D02*
X186600848Y-89673849D01*
X186883228Y-90444521D01*
X186955790Y-89226024D02*
X187014947Y-89151387D01*
X187100227Y-89097454D01*
X187155928Y-89080840D01*
X187237753Y-89084932D01*
X187371824Y-89130432D01*
X187502440Y-89233957D01*
X187577354Y-89354096D01*
X187600021Y-89432824D01*
X187596566Y-89490848D01*
X187563532Y-89586190D01*
X187504375Y-89660828D01*
X187419095Y-89714760D01*
X187363394Y-89731374D01*
X187281569Y-89727283D01*
X187147498Y-89681782D01*
X187016882Y-89578257D01*
X186941968Y-89458119D01*
X186919301Y-89379390D01*
X186922756Y-89321367D01*
X186955790Y-89226024D01*
D12*
X182495069Y-92721547D02*
X181704034Y-92391461D01*
D11*
X180852609Y-101987584D02*
X180284228Y-102046521D01*
X209799685Y-116569676D02*
X210091166Y-117061173D01*
D10*
X186853811Y-109276508D02*
X186035661Y-109851513D01*
D13*
X211927487Y-111004678D02*
X212331548Y-110600617D01*
X212129517Y-110802647D02*
X212624492Y-111297622D01*
X212621125Y-111159568D01*
X212641328Y-111045084D01*
X212685101Y-110954170D01*
X211816370Y-112105744D02*
X211951057Y-111971057D01*
X211994830Y-111880143D01*
X212004932Y-111822901D01*
X212001565Y-111684847D01*
X211940956Y-111556895D01*
X211752394Y-111368333D01*
X211671582Y-111354864D01*
X211614340Y-111364966D01*
X211523426Y-111408739D01*
X211388739Y-111543426D01*
X211344966Y-111634340D01*
X211334864Y-111691582D01*
X211348333Y-111772394D01*
X211466184Y-111890245D01*
X211546996Y-111903714D01*
X211604238Y-111893612D01*
X211695152Y-111849839D01*
X211829839Y-111715152D01*
X211873612Y-111624238D01*
X211883714Y-111566996D01*
X211870245Y-111486184D01*
X211311294Y-112610820D02*
X211243950Y-112678164D01*
X211153037Y-112721937D01*
X211095795Y-112732039D01*
X211014982Y-112718570D01*
X210887030Y-112657961D01*
X210769179Y-112540110D01*
X210708569Y-112412157D01*
X210695101Y-112331345D01*
X210705202Y-112274103D01*
X210748976Y-112183189D01*
X210816319Y-112115846D01*
X210907233Y-112072072D01*
X210964475Y-112061971D01*
X211045287Y-112075440D01*
X211173240Y-112136049D01*
X211291091Y-112253900D01*
X211351700Y-112381852D01*
X211365169Y-112462665D01*
X211355067Y-112519907D01*
X211311294Y-112610820D01*
D12*
X183666317Y-90379062D02*
X182927558Y-89944403D01*
X199911234Y-118958573D02*
X199908990Y-119815712D01*
D11*
X219245771Y-99645978D02*
X219817096Y-99635108D01*
D12*
X211327537Y-115202561D02*
X211841105Y-115888813D01*
X203985478Y-84174534D02*
X204114888Y-83691572D01*
X204053264Y-83921554D02*
X204605222Y-84069450D01*
X204537436Y-84322431D02*
X204666845Y-83839468D01*
X212597328Y-86604418D02*
X212546688Y-86520318D01*
X212529773Y-86469837D01*
X212529667Y-86402493D01*
X212546476Y-86385631D01*
X212613820Y-86385525D01*
X212664354Y-86402282D01*
X212748612Y-86452657D01*
X212883511Y-86587132D01*
X212934151Y-86671232D01*
X212951066Y-86721714D01*
X212951172Y-86789057D01*
X212934362Y-86805919D01*
X212867019Y-86806025D01*
X212816485Y-86789269D01*
X212732226Y-86738893D01*
X212597328Y-86604418D01*
X212513069Y-86554043D01*
X212462535Y-86537286D01*
X212395192Y-86537392D01*
X212327954Y-86604841D01*
X212328060Y-86672184D01*
X212344975Y-86722666D01*
X212395615Y-86806766D01*
X212530513Y-86941241D01*
X212614772Y-86991616D01*
X212665306Y-87008373D01*
X212732649Y-87008267D01*
X212799887Y-86940818D01*
X212799781Y-86873474D01*
X212782866Y-86822993D01*
X212732226Y-86738893D01*
X213456829Y-87158652D02*
X213524278Y-87225890D01*
X213574918Y-87309990D01*
X213591833Y-87360471D01*
X213591939Y-87427815D01*
X213558426Y-87528883D01*
X213474379Y-87613194D01*
X213373417Y-87647024D01*
X213306073Y-87647130D01*
X213255539Y-87630374D01*
X213171281Y-87579998D01*
X213103832Y-87512761D01*
X213053192Y-87428661D01*
X213036277Y-87378180D01*
X213036171Y-87310836D01*
X213069684Y-87209768D01*
X213153731Y-87125457D01*
X213254693Y-87091626D01*
X213322036Y-87091521D01*
X213372571Y-87108277D01*
X213456829Y-87158652D01*
D11*
X200875852Y-80763967D02*
X200901575Y-80193117D01*
X207173029Y-82131707D02*
X207385702Y-81601329D01*
D12*
X182036831Y-93960288D02*
X181224410Y-93687036D01*
D11*
X186106687Y-113332310D02*
X185694528Y-113728109D01*
X214060445Y-86854663D02*
X214477817Y-86464366D01*
D13*
X200666666Y-116253333D02*
X201238095Y-116253333D01*
X200952380Y-116253333D02*
X200952380Y-116953333D01*
X201047619Y-116853333D01*
X201142857Y-116786666D01*
X201238095Y-116753333D01*
X200285714Y-116886666D02*
X200238095Y-116920000D01*
X200142857Y-116953333D01*
X199904761Y-116953333D01*
X199809523Y-116920000D01*
X199761904Y-116886666D01*
X199714285Y-116820000D01*
X199714285Y-116753333D01*
X199761904Y-116653333D01*
X200333333Y-116253333D01*
X199714285Y-116253333D01*
X199095238Y-116953333D02*
X199000000Y-116953333D01*
X198904761Y-116920000D01*
X198857142Y-116886666D01*
X198809523Y-116820000D01*
X198761904Y-116686666D01*
X198761904Y-116520000D01*
X198809523Y-116386666D01*
X198857142Y-116320000D01*
X198904761Y-116286666D01*
X199000000Y-116253333D01*
X199095238Y-116253333D01*
X199190476Y-116286666D01*
X199238095Y-116320000D01*
X199285714Y-116386666D01*
X199333333Y-116520000D01*
X199333333Y-116686666D01*
X199285714Y-116820000D01*
X199238095Y-116886666D01*
X199190476Y-116920000D01*
X199095238Y-116953333D01*
D11*
X182761387Y-108550011D02*
X182249773Y-108804535D01*
X210950903Y-115831736D02*
X211276533Y-116301306D01*
X194529104Y-81541390D02*
X194367096Y-80993408D01*
X217651628Y-107685031D02*
X218175940Y-107912247D01*
X218537410Y-105205059D02*
X219087573Y-105359496D01*
X185191741Y-87700839D02*
X184752211Y-87335676D01*
D13*
X190985476Y-113565668D02*
X191447772Y-113901545D01*
X191216624Y-113733606D02*
X190805174Y-114299918D01*
X190941002Y-114274996D01*
X191057237Y-114277041D01*
X191153879Y-114306053D01*
X190073206Y-113768112D02*
X189996157Y-113712133D01*
X189938701Y-113629186D01*
X189919769Y-113574229D01*
X189920430Y-113492305D01*
X189960277Y-113356446D01*
X190058241Y-113221610D01*
X190175137Y-113141731D01*
X190252847Y-113115786D01*
X190310965Y-113116809D01*
X190407607Y-113145821D01*
X190484656Y-113201801D01*
X190542113Y-113284747D01*
X190561044Y-113339704D01*
X190560383Y-113421629D01*
X190520536Y-113557487D01*
X190422572Y-113692323D01*
X190305676Y-113772203D01*
X190227966Y-113798147D01*
X190169849Y-113797125D01*
X190073206Y-113768112D01*
X189302714Y-113208317D02*
X189225665Y-113152337D01*
X189168208Y-113069391D01*
X189149277Y-113014434D01*
X189149938Y-112932509D01*
X189189784Y-112796651D01*
X189287749Y-112661815D01*
X189404645Y-112581935D01*
X189482355Y-112555991D01*
X189540472Y-112557013D01*
X189637115Y-112586026D01*
X189714164Y-112642005D01*
X189771620Y-112724952D01*
X189790552Y-112779909D01*
X189789891Y-112861833D01*
X189750044Y-112997692D01*
X189652080Y-113132528D01*
X189535184Y-113212407D01*
X189457474Y-113238352D01*
X189399356Y-113237329D01*
X189302714Y-113208317D01*
D12*
X218060082Y-101411725D02*
X218106646Y-100842197D01*
X218083364Y-101126961D02*
X218581701Y-101167704D01*
X218518271Y-101066962D01*
X218478571Y-100968161D01*
X218462601Y-100871299D01*
X217982476Y-102360939D02*
X218029040Y-101791411D01*
X218005758Y-102076175D02*
X218504095Y-102116918D01*
X218440665Y-102016176D01*
X218400965Y-101917375D01*
X218384995Y-101820513D01*
D11*
X181088708Y-103591054D02*
X180527420Y-103698227D01*
D12*
X213961926Y-112822053D02*
X214594787Y-113400137D01*
X183441440Y-109219865D02*
X182693367Y-109638291D01*
X209286396Y-86538278D02*
X209136515Y-86157048D01*
X208807156Y-86227055D02*
X209079475Y-85807720D01*
X209398969Y-86015201D01*
X209465874Y-86087040D01*
X209492843Y-86132944D01*
X209506845Y-86198816D01*
X209467942Y-86258721D01*
X209402070Y-86272722D01*
X209349166Y-86266755D01*
X209256325Y-86234853D01*
X208936831Y-86027372D01*
X218012207Y-94097399D02*
X218826375Y-93829400D01*
D14*
X189595904Y-86093031D02*
X189404559Y-86234722D01*
X189107008Y-85832898D01*
X189374891Y-85634530D02*
X189604505Y-85464500D01*
X189787249Y-85951340D02*
X189489698Y-85549515D01*
D11*
X188537032Y-84532575D02*
X188196973Y-84073347D01*
D10*
X184525155Y-104440181D02*
X183563414Y-104714140D01*
D12*
X181139122Y-98106576D02*
X180286172Y-98021891D01*
X202231799Y-83635061D02*
X202702127Y-83709553D01*
X202115386Y-83761260D02*
X202522833Y-83319561D01*
X202773845Y-83865550D01*
D11*
X183086068Y-90800205D02*
X182584125Y-90527104D01*
D13*
X191439202Y-85372658D02*
X191270401Y-85460905D01*
X191201444Y-85534569D01*
X191174687Y-85586171D01*
X191136616Y-85718914D01*
X191156189Y-85859137D01*
X191279734Y-86095458D01*
X191352821Y-86132476D01*
X191410464Y-86139955D01*
X191510308Y-86125371D01*
X191679109Y-86037124D01*
X191748066Y-85963461D01*
X191774823Y-85911859D01*
X191786136Y-85830717D01*
X191708920Y-85683016D01*
X191635834Y-85645998D01*
X191578190Y-85638519D01*
X191478347Y-85653103D01*
X191309546Y-85741350D01*
X191240589Y-85815013D01*
X191213832Y-85866615D01*
X191202518Y-85947757D01*
X192325405Y-84909362D02*
X191903404Y-85129980D01*
X192015635Y-85447442D01*
X192042392Y-85395841D01*
X192111349Y-85322177D01*
X192322350Y-85211868D01*
X192422194Y-85197285D01*
X192479837Y-85204764D01*
X192552924Y-85241782D01*
X192630140Y-85389483D01*
X192618826Y-85470625D01*
X192592069Y-85522226D01*
X192523112Y-85595890D01*
X192312111Y-85706199D01*
X192212268Y-85720782D01*
X192154624Y-85713304D01*
D12*
X195561404Y-81568076D02*
X195358850Y-80735210D01*
D10*
X214756385Y-106428928D02*
X215672048Y-106830876D01*
D12*
X187041874Y-113825555D02*
X186456648Y-114451817D01*
D11*
X206434727Y-81856130D02*
X206626132Y-81317711D01*
D12*
X208258438Y-116142320D02*
X208768851Y-115885397D01*
X208513645Y-116013859D02*
X208738452Y-116460470D01*
X208791406Y-116353848D01*
X208855064Y-116268493D01*
X208929428Y-116204405D01*
X207717627Y-116974316D02*
X207887764Y-116888675D01*
X207962128Y-116824587D01*
X207993957Y-116781910D01*
X208046911Y-116675288D01*
X208046625Y-116568808D01*
X207960984Y-116398671D01*
X207897039Y-116377547D01*
X207843800Y-116377690D01*
X207748026Y-116399243D01*
X207577888Y-116484884D01*
X207503524Y-116548972D01*
X207471695Y-116591649D01*
X207450571Y-116655594D01*
X207504097Y-116761930D01*
X207568041Y-116783054D01*
X207621281Y-116782911D01*
X207717055Y-116761358D01*
X207887192Y-116675717D01*
X207961556Y-116611629D01*
X207993385Y-116568952D01*
X208014509Y-116505007D01*
D10*
X190141489Y-87278208D02*
X189528582Y-86488053D01*
X212851480Y-109682476D02*
X213641635Y-110295383D01*
D11*
X217976373Y-106887933D02*
X218510240Y-107091690D01*
D10*
X203846329Y-115627209D02*
X204084863Y-116598343D01*
D11*
X203364938Y-81039424D02*
X203465050Y-80476834D01*
X217317353Y-108442571D02*
X217831256Y-108692441D01*
D14*
X205136799Y-116581067D02*
X205284987Y-117058603D01*
X204863922Y-116665745D02*
X205153258Y-116875114D01*
X205012109Y-117143281D02*
X205200308Y-116785725D01*
X204550256Y-117261672D02*
X204602793Y-117270299D01*
X204671012Y-117249129D01*
X204732175Y-117205220D01*
X204763541Y-117145627D01*
X204772168Y-117093091D01*
X204766682Y-116995075D01*
X204745512Y-116926856D01*
X204694546Y-116842953D01*
X204657693Y-116804530D01*
X204598100Y-116773164D01*
X204522825Y-116771593D01*
X204477345Y-116785706D01*
X204416182Y-116829616D01*
X204400499Y-116859412D01*
X204449895Y-117018591D01*
X204540854Y-116990365D01*
D12*
X187442624Y-85802860D02*
X186874216Y-85161295D01*
D10*
X184772532Y-105180138D02*
X183826786Y-105505046D01*
D11*
X197293848Y-80941211D02*
X197214123Y-80375372D01*
X219206506Y-98642306D02*
X219776494Y-98601749D01*
D12*
X215908640Y-91325788D02*
X215994136Y-91495998D01*
X216058160Y-91570417D01*
X216100810Y-91602283D01*
X216207387Y-91655327D01*
X216313866Y-91655132D01*
X216484077Y-91569637D01*
X216505255Y-91505710D01*
X216505158Y-91452471D01*
X216483687Y-91356678D01*
X216398191Y-91186467D01*
X216334167Y-91112049D01*
X216291517Y-91080183D01*
X216227590Y-91059004D01*
X216121209Y-91112439D01*
X216100030Y-91176366D01*
X216100127Y-91229605D01*
X216121599Y-91325398D01*
X216207094Y-91495608D01*
X216271118Y-91570027D01*
X216313768Y-91601893D01*
X216377695Y-91623071D01*
X216847042Y-92080074D02*
X216889790Y-92165179D01*
X216911261Y-92260972D01*
X216911359Y-92314211D01*
X216890180Y-92378138D01*
X216826449Y-92463438D01*
X216720067Y-92516873D01*
X216613588Y-92517068D01*
X216549661Y-92495889D01*
X216507011Y-92464023D01*
X216442987Y-92389605D01*
X216400239Y-92304500D01*
X216378768Y-92208707D01*
X216378670Y-92155468D01*
X216399849Y-92091541D01*
X216463580Y-92006241D01*
X216569962Y-91952806D01*
X216676441Y-91952611D01*
X216740368Y-91973790D01*
X216783018Y-92005656D01*
X216847042Y-92080074D01*
D10*
X185506337Y-92996260D02*
X184606018Y-92561029D01*
D13*
X207672991Y-114315229D02*
X208187719Y-114067064D01*
X207930355Y-114191147D02*
X208234357Y-114821689D01*
X208276716Y-114690250D01*
X208333551Y-114588838D01*
X208404863Y-114517451D01*
X207103567Y-115107837D02*
X206900899Y-114687476D01*
X207433847Y-115244642D02*
X207431173Y-114690853D01*
X206873551Y-114959698D01*
X206561491Y-115628224D02*
X206475703Y-115669584D01*
X206375438Y-115680919D01*
X206318068Y-115671574D01*
X206246221Y-115632203D01*
X206145422Y-115532780D01*
X206073041Y-115382651D01*
X206058030Y-115241867D01*
X206071971Y-115161135D01*
X206100389Y-115110429D01*
X206171701Y-115039042D01*
X206257489Y-114997682D01*
X206357753Y-114986347D01*
X206415123Y-114995692D01*
X206486970Y-115035063D01*
X206587769Y-115134486D01*
X206660150Y-115284615D01*
X206675161Y-115425399D01*
X206661220Y-115506131D01*
X206632802Y-115556837D01*
X206561491Y-115628224D01*
D11*
X196398837Y-81088729D02*
X196291860Y-80527403D01*
D12*
X206778766Y-84850215D02*
X207083281Y-84985794D01*
X207107261Y-85283161D02*
X206672240Y-85089477D01*
X206875608Y-84632704D01*
X207310630Y-84826388D01*
D11*
X202498270Y-80911503D02*
X202574142Y-80345133D01*
X214493382Y-87326851D02*
X214923596Y-86950757D01*
X183735477Y-89698217D02*
X183252790Y-89392367D01*
X211561033Y-84611131D02*
X211904609Y-84154528D01*
D10*
X183924048Y-99069269D02*
X182925707Y-99011705D01*
X184382327Y-96121969D02*
X183412455Y-95878354D01*
D14*
X212029642Y-87117182D02*
X211919948Y-86991703D01*
X211722766Y-87164079D02*
X212099204Y-86834997D01*
X212255909Y-87014253D01*
X212381274Y-87157657D02*
X212076539Y-87424057D01*
X212056358Y-87473324D01*
X212054103Y-87506920D01*
X212067519Y-87558442D01*
X212130201Y-87630144D01*
X212179468Y-87650325D01*
X212213064Y-87652580D01*
X212264586Y-87639164D01*
X212569321Y-87372765D01*
X212546771Y-87708726D02*
X212656465Y-87834205D01*
X212506295Y-88060358D02*
X212349589Y-87881102D01*
X212726027Y-87552020D01*
X212882732Y-87731276D01*
X212804036Y-88400944D02*
X212647330Y-88221688D01*
X213023767Y-87892606D01*
X213321165Y-88992489D02*
X213164459Y-88813233D01*
X213540896Y-88484151D01*
X213737734Y-89071071D02*
X213766820Y-89140518D01*
X213764565Y-89174114D01*
X213744385Y-89223381D01*
X213690608Y-89270392D01*
X213639086Y-89283808D01*
X213605490Y-89281553D01*
X213556223Y-89261372D01*
X213430859Y-89117968D01*
X213807296Y-88788886D01*
X213916990Y-88914365D01*
X213930406Y-88965887D01*
X213928151Y-88999483D01*
X213907970Y-89048749D01*
X213872119Y-89080091D01*
X213820597Y-89093506D01*
X213787001Y-89091251D01*
X213737734Y-89071071D01*
X213628040Y-88945591D01*
X213762196Y-89460809D02*
X213791282Y-89530256D01*
X213869635Y-89619884D01*
X213918901Y-89640065D01*
X213952498Y-89642320D01*
X214004019Y-89628904D01*
X214039871Y-89597563D01*
X214060051Y-89548296D01*
X214062306Y-89514700D01*
X214048891Y-89463178D01*
X214004134Y-89375806D01*
X213990718Y-89324284D01*
X213992973Y-89290688D01*
X214013154Y-89241421D01*
X214049005Y-89210080D01*
X214100527Y-89196664D01*
X214134123Y-89198919D01*
X214183390Y-89219100D01*
X214261743Y-89308728D01*
X214290829Y-89378175D01*
D12*
X184446595Y-110830206D02*
X183743694Y-111320740D01*
D11*
X191350675Y-117208955D02*
X191094902Y-117719945D01*
D12*
X181080534Y-101150973D02*
X180225017Y-101203748D01*
D11*
X218743781Y-104379247D02*
X219300542Y-104507888D01*
X212082597Y-115005443D02*
X212441511Y-115450091D01*
D12*
X215426728Y-88994496D02*
X216123585Y-88495412D01*
D13*
X196088788Y-115783427D02*
X196637192Y-115943999D01*
X196362990Y-115863713D02*
X196166289Y-116535508D01*
X196285790Y-116466299D01*
X196395924Y-116429081D01*
X196496692Y-116423853D01*
X195174781Y-115515806D02*
X195723185Y-115676378D01*
X195448983Y-115596092D02*
X195252282Y-116267887D01*
X195371783Y-116198679D01*
X195481917Y-116161460D01*
X195582685Y-116156232D01*
X194383976Y-116013648D02*
X194292575Y-115986886D01*
X194210541Y-115928133D01*
X194174207Y-115882762D01*
X194147240Y-115805400D01*
X194139007Y-115664058D01*
X194185841Y-115504107D01*
X194269008Y-115389527D01*
X194333442Y-115338928D01*
X194388509Y-115320319D01*
X194489276Y-115315090D01*
X194580677Y-115341853D01*
X194662711Y-115400605D01*
X194699044Y-115445976D01*
X194726011Y-115523338D01*
X194734245Y-115664680D01*
X194687411Y-115824631D01*
X194604244Y-115939211D01*
X194539810Y-115989810D01*
X194484743Y-116008419D01*
X194383976Y-116013648D01*
D11*
X209189987Y-83076173D02*
X209462737Y-82574039D01*
D10*
X215974052Y-98086647D02*
X216966683Y-97965470D01*
D12*
X207757952Y-82710537D02*
X208107130Y-81927742D01*
D10*
X186699307Y-90960818D02*
X185872226Y-90398735D01*
D12*
X190505856Y-116411813D02*
X190077026Y-117153971D01*
D10*
X186078066Y-91951846D02*
X185212041Y-91451846D01*
X215935410Y-102218302D02*
X216925286Y-102360240D01*
D13*
X199714285Y-83046666D02*
X199523809Y-83046666D01*
X199428571Y-83080000D01*
X199380952Y-83113333D01*
X199285714Y-83213333D01*
X199238095Y-83346666D01*
X199238095Y-83613333D01*
X199285714Y-83680000D01*
X199333333Y-83713333D01*
X199428571Y-83746666D01*
X199619047Y-83746666D01*
X199714285Y-83713333D01*
X199761904Y-83680000D01*
X199809523Y-83613333D01*
X199809523Y-83446666D01*
X199761904Y-83380000D01*
X199714285Y-83346666D01*
X199619047Y-83313333D01*
X199428571Y-83313333D01*
X199333333Y-83346666D01*
X199285714Y-83380000D01*
X199238095Y-83446666D01*
X200428571Y-83046666D02*
X200523809Y-83046666D01*
X200619047Y-83080000D01*
X200666666Y-83113333D01*
X200714285Y-83180000D01*
X200761904Y-83313333D01*
X200761904Y-83480000D01*
X200714285Y-83613333D01*
X200666666Y-83680000D01*
X200619047Y-83713333D01*
X200523809Y-83746666D01*
X200428571Y-83746666D01*
X200333333Y-83713333D01*
X200285714Y-83680000D01*
X200238095Y-83613333D01*
X200190476Y-83480000D01*
X200190476Y-83313333D01*
X200238095Y-83180000D01*
X200285714Y-83113333D01*
X200333333Y-83080000D01*
X200428571Y-83046666D01*
D14*
X208201881Y-84647703D02*
X208251183Y-84704609D01*
X208353589Y-84765316D01*
X208406693Y-84769118D01*
X208439315Y-84760778D01*
X208484079Y-84731958D01*
X208508362Y-84690995D01*
X208512164Y-84637891D01*
X208503825Y-84605269D01*
X208475004Y-84560505D01*
X208405221Y-84491458D01*
X208376400Y-84446693D01*
X208368060Y-84414071D01*
X208371862Y-84360967D01*
X208396145Y-84320005D01*
X208440909Y-84291184D01*
X208473532Y-84282844D01*
X208526635Y-84286646D01*
X208629041Y-84347353D01*
X208678343Y-84404259D01*
X208813372Y-84456627D02*
X209059145Y-84602325D01*
X208681287Y-84959580D02*
X208936259Y-84529476D01*
X208999910Y-84982391D02*
X209204722Y-85103806D01*
X208886099Y-85080995D02*
X209284438Y-84735881D01*
X209172835Y-85250976D01*
X209509731Y-84869437D02*
X209755505Y-85015135D01*
X209377647Y-85372391D02*
X209632618Y-84942286D01*
D11*
X209809732Y-83430351D02*
X210101128Y-82938803D01*
D12*
X190960085Y-83743040D02*
X190541640Y-83970331D01*
X190613441Y-84202283D01*
X190643921Y-84158631D01*
X190716245Y-84092251D01*
X190925468Y-83978605D01*
X191020521Y-83954069D01*
X191073730Y-83952262D01*
X191138304Y-83971377D01*
X191195127Y-84075988D01*
X191176011Y-84140562D01*
X191145532Y-84184213D01*
X191073207Y-84250594D01*
X190863985Y-84364240D01*
X190768931Y-84388776D01*
X190715722Y-84390583D01*
X191545907Y-83424831D02*
X191629596Y-83379373D01*
X191724650Y-83354837D01*
X191777859Y-83353030D01*
X191842432Y-83372146D01*
X191929735Y-83433105D01*
X191986558Y-83537716D01*
X191990172Y-83644135D01*
X191971056Y-83708708D01*
X191940576Y-83752360D01*
X191868252Y-83818740D01*
X191784563Y-83864198D01*
X191689510Y-83888734D01*
X191636301Y-83890541D01*
X191571727Y-83871426D01*
X191484424Y-83810466D01*
X191427601Y-83705855D01*
X191423988Y-83599437D01*
X191443103Y-83534863D01*
X191473583Y-83491212D01*
X191545907Y-83424831D01*
D11*
X213154896Y-114060858D02*
X213545993Y-114477479D01*
X184788233Y-111797242D02*
X184336899Y-112147711D01*
D12*
X181344079Y-96662915D02*
X180500298Y-96512159D01*
D11*
X182505668Y-91971030D02*
X181986271Y-91732793D01*
D10*
X211961270Y-89228021D02*
X212704415Y-88558891D01*
D12*
X206832236Y-82680161D02*
X207441077Y-82951744D01*
X206845992Y-83233785D01*
X207962940Y-83184529D02*
X208049917Y-83223326D01*
X208127195Y-83283868D01*
X208160985Y-83325011D01*
X208185074Y-83387899D01*
X208189765Y-83494275D01*
X208141269Y-83602996D01*
X208058982Y-83670575D01*
X207996095Y-83694665D01*
X207942907Y-83697010D01*
X207846230Y-83679957D01*
X207759253Y-83641159D01*
X207681975Y-83580618D01*
X207648186Y-83539475D01*
X207624096Y-83476587D01*
X207619405Y-83370211D01*
X207667902Y-83261490D01*
X207750188Y-83193911D01*
X207813075Y-83169821D01*
X207866264Y-83167476D01*
X207962940Y-83184529D01*
X188671605Y-115201921D02*
X188159595Y-115889336D01*
X187862242Y-114065464D02*
X187811194Y-114050348D01*
X187725353Y-114002719D01*
X187551391Y-113840156D01*
X187498063Y-113757735D01*
X187479527Y-113707826D01*
X187477247Y-113640521D01*
X187509759Y-113605729D01*
X187593320Y-113586053D01*
X188205904Y-113767449D01*
X187753604Y-113344786D01*
X186751167Y-113092367D02*
X187099091Y-113417493D01*
X187296446Y-113276043D01*
X187245397Y-113260927D01*
X187159556Y-113213298D01*
X186985594Y-113050735D01*
X186932266Y-112968314D01*
X186913730Y-112918405D01*
X186911450Y-112851100D01*
X186992732Y-112764120D01*
X187060037Y-112761840D01*
X187111085Y-112776956D01*
X187196926Y-112824585D01*
X187370888Y-112987148D01*
X187424216Y-113069569D01*
X187442752Y-113119478D01*
D11*
X212653727Y-85487122D02*
X213028768Y-85055990D01*
D12*
X189179658Y-84436690D02*
X188689370Y-83733617D01*
X183041750Y-91540644D02*
X182274931Y-91157654D01*
D11*
X217917663Y-92955390D02*
X218449184Y-92745589D01*
D12*
X215583340Y-109330535D02*
X215876108Y-108839803D01*
X215729724Y-109085169D02*
X216159115Y-109341340D01*
X216146568Y-109222956D01*
X216154468Y-109116770D01*
X216182815Y-109022783D01*
X215841950Y-109872967D02*
X215524786Y-110404593D01*
X215531989Y-110020744D01*
X215458797Y-110143427D01*
X215389556Y-110213017D01*
X215344711Y-110241713D01*
X215279420Y-110258210D01*
X215177184Y-110197216D01*
X215160687Y-110131925D01*
X215164637Y-110078832D01*
X215192984Y-109984845D01*
X215339368Y-109739478D01*
X215408609Y-109669888D01*
X215453454Y-109641193D01*
D11*
X214699808Y-112427309D02*
X215136520Y-112795837D01*
D13*
X211031717Y-87141599D02*
X210684589Y-86815624D01*
X210421694Y-87026017D01*
X210479225Y-87034315D01*
X210571469Y-87075211D01*
X210745033Y-87238198D01*
X210791640Y-87327692D01*
X210803535Y-87384589D01*
X210792611Y-87465784D01*
X210678520Y-87587279D01*
X210598171Y-87603279D01*
X210540640Y-87594981D01*
X210448396Y-87554085D01*
X210274832Y-87391097D01*
X210228225Y-87301604D01*
X210216330Y-87244707D01*
X211517696Y-87597964D02*
X211587122Y-87663159D01*
X211633729Y-87752653D01*
X211645624Y-87809549D01*
X211634700Y-87890745D01*
X211578140Y-88020538D01*
X211464049Y-88142033D01*
X211338063Y-88206631D01*
X211257714Y-88222632D01*
X211200183Y-88214333D01*
X211107939Y-88173437D01*
X211038513Y-88108242D01*
X210991906Y-88018748D01*
X210980012Y-87961852D01*
X210990935Y-87880656D01*
X211047495Y-87750863D01*
X211161587Y-87629368D01*
X211287572Y-87564770D01*
X211367922Y-87548770D01*
X211425453Y-87557068D01*
X211517696Y-87597964D01*
X212211952Y-88249914D02*
X212281378Y-88315109D01*
X212327985Y-88404603D01*
X212339880Y-88461499D01*
X212328956Y-88542694D01*
X212272396Y-88672488D01*
X212158305Y-88793982D01*
X212032319Y-88858581D01*
X211951970Y-88874581D01*
X211894439Y-88866283D01*
X211802195Y-88825387D01*
X211732769Y-88760192D01*
X211686162Y-88670698D01*
X211674267Y-88613801D01*
X211685191Y-88532606D01*
X211741751Y-88402813D01*
X211855842Y-88281318D01*
X211981828Y-88216720D01*
X212062177Y-88200719D01*
X212119708Y-88209018D01*
X212211952Y-88249914D01*
D11*
X187631598Y-114758890D02*
X187265055Y-115197271D01*
D10*
X184013530Y-101851585D02*
X183020157Y-101966522D01*
X188627510Y-111377300D02*
X187920403Y-112084407D01*
X184019732Y-98078915D02*
X183026975Y-97958778D01*
D12*
X190027442Y-83881269D02*
X189577547Y-83151688D01*
X207589733Y-84966322D02*
X208098880Y-85225745D01*
X207617311Y-85541537D02*
X207844306Y-85096033D01*
D10*
X209456718Y-113025040D02*
X210044503Y-113834057D01*
D11*
X216018592Y-89314475D02*
X216493878Y-88997247D01*
X201317967Y-119206487D02*
X201358026Y-119776510D01*
D10*
X188261241Y-88984412D02*
X187532273Y-88299865D01*
D12*
X217992439Y-105961896D02*
X218806185Y-106231175D01*
D11*
X216953408Y-90859240D02*
X217456301Y-90587894D01*
D12*
X185041946Y-88369656D02*
X184365680Y-87843008D01*
D11*
X180783725Y-98818748D02*
X180213315Y-98784660D01*
X192699612Y-82190634D02*
X192482134Y-81662208D01*
X198219030Y-80832942D02*
X198166247Y-80263956D01*
X207172724Y-117868414D02*
X207385952Y-118398569D01*
D12*
X217813653Y-96732589D02*
X217712462Y-96170191D01*
X217763058Y-96451390D02*
X218255156Y-96362847D01*
X218167991Y-96281763D01*
X218104259Y-96196463D01*
X218063961Y-96106947D01*
X218415375Y-97253310D02*
X218432240Y-97347043D01*
X218425672Y-97444992D01*
X218410672Y-97496075D01*
X218372238Y-97551374D01*
X218286938Y-97615106D01*
X218169771Y-97636187D01*
X218067606Y-97606186D01*
X218012307Y-97567752D01*
X217980441Y-97525102D01*
X217940143Y-97435585D01*
X217923277Y-97341852D01*
X217929845Y-97243903D01*
X217944846Y-97192821D01*
X217983280Y-97137521D01*
X218068580Y-97073790D01*
X218185746Y-97052708D01*
X218287912Y-97082710D01*
X218343211Y-97121143D01*
X218375077Y-97163794D01*
X218415375Y-97253310D01*
X181397550Y-98978511D02*
X181458711Y-98362492D01*
X181615322Y-98713013D01*
X181629436Y-98570855D01*
X181662539Y-98478435D01*
X181690936Y-98433401D01*
X181743027Y-98390720D01*
X181861492Y-98402482D01*
X181904174Y-98454572D01*
X181923162Y-98504311D01*
X181937446Y-98601435D01*
X181909218Y-98885752D01*
X181876115Y-98978172D01*
X181847717Y-99023205D01*
X181548100Y-97462156D02*
X181501053Y-97936017D01*
X181733279Y-98006927D01*
X181714290Y-97957188D01*
X181700007Y-97860064D01*
X181723530Y-97623133D01*
X181756633Y-97530714D01*
X181785030Y-97485680D01*
X181837121Y-97442999D01*
X181955586Y-97454760D01*
X181998268Y-97506851D01*
X182017256Y-97556590D01*
X182031540Y-97653714D01*
X182008016Y-97890644D01*
X181974914Y-97983064D01*
X181946516Y-98028098D01*
D11*
X180921596Y-97361022D02*
X180355057Y-97286436D01*
D12*
X202701946Y-118763509D02*
X202825680Y-119611674D01*
D13*
X183396666Y-100571428D02*
X183363333Y-100666666D01*
X183330000Y-100714285D01*
X183263333Y-100761904D01*
X183230000Y-100761904D01*
X183163333Y-100714285D01*
X183130000Y-100666666D01*
X183096666Y-100571428D01*
X183096666Y-100380952D01*
X183130000Y-100285714D01*
X183163333Y-100238095D01*
X183230000Y-100190476D01*
X183263333Y-100190476D01*
X183330000Y-100238095D01*
X183363333Y-100285714D01*
X183396666Y-100380952D01*
X183396666Y-100571428D01*
X183430000Y-100666666D01*
X183463333Y-100714285D01*
X183530000Y-100761904D01*
X183663333Y-100761904D01*
X183730000Y-100714285D01*
X183763333Y-100666666D01*
X183796666Y-100571428D01*
X183796666Y-100380952D01*
X183763333Y-100285714D01*
X183730000Y-100238095D01*
X183663333Y-100190476D01*
X183530000Y-100190476D01*
X183463333Y-100238095D01*
X183430000Y-100285714D01*
X183396666Y-100380952D01*
X183096666Y-99571428D02*
X183096666Y-99476190D01*
X183130000Y-99380952D01*
X183163333Y-99333333D01*
X183230000Y-99285714D01*
X183363333Y-99238095D01*
X183530000Y-99238095D01*
X183663333Y-99285714D01*
X183730000Y-99333333D01*
X183763333Y-99380952D01*
X183796666Y-99476190D01*
X183796666Y-99571428D01*
X183763333Y-99666666D01*
X183730000Y-99714285D01*
X183663333Y-99761904D01*
X183530000Y-99809523D01*
X183363333Y-99809523D01*
X183230000Y-99761904D01*
X183163333Y-99714285D01*
X183130000Y-99666666D01*
X183096666Y-99571428D01*
D12*
X194828360Y-118236382D02*
X194594977Y-119061141D01*
D11*
X217465021Y-91892524D02*
X217983164Y-91651570D01*
D12*
X185803024Y-87432439D02*
X185161161Y-86864367D01*
X201474471Y-83187825D02*
X202042770Y-83247555D01*
X201706356Y-83714951D02*
X201758620Y-83217690D01*
D14*
X183293185Y-95427364D02*
X183202101Y-95698171D01*
X183247643Y-95562768D02*
X182773731Y-95403371D01*
X182826252Y-95471276D01*
X182856206Y-95531592D01*
X182863592Y-95584316D01*
X182917947Y-94974593D02*
X182933128Y-94929459D01*
X182970876Y-94891915D01*
X183001033Y-94876938D01*
X183053758Y-94869551D01*
X183151617Y-94877345D01*
X183264453Y-94915297D01*
X183347132Y-94968226D01*
X183384676Y-95005973D01*
X183399653Y-95036131D01*
X183407040Y-95088856D01*
X183391859Y-95133990D01*
X183354111Y-95171534D01*
X183323954Y-95186511D01*
X183271229Y-95193898D01*
X183173369Y-95186104D01*
X183060533Y-95148152D01*
X182977855Y-95095224D01*
X182940310Y-95057476D01*
X182925334Y-95027318D01*
X182917947Y-94974593D01*
X183069754Y-94523249D02*
X183084934Y-94478114D01*
X183122682Y-94440570D01*
X183152840Y-94425593D01*
X183205565Y-94418206D01*
X183303424Y-94426001D01*
X183416260Y-94463952D01*
X183498939Y-94516881D01*
X183536483Y-94554629D01*
X183551460Y-94584786D01*
X183558846Y-94637511D01*
X183543666Y-94682646D01*
X183505918Y-94720190D01*
X183475760Y-94735167D01*
X183423035Y-94742553D01*
X183325176Y-94734759D01*
X183212340Y-94696807D01*
X183129661Y-94643879D01*
X183092117Y-94606131D01*
X183077140Y-94575973D01*
X183069754Y-94523249D01*
X183221560Y-94071904D02*
X183236741Y-94026769D01*
X183274489Y-93989225D01*
X183304646Y-93974248D01*
X183357371Y-93966862D01*
X183455230Y-93974656D01*
X183568067Y-94012607D01*
X183650745Y-94065536D01*
X183688289Y-94103284D01*
X183703266Y-94133441D01*
X183710653Y-94186166D01*
X183695472Y-94231301D01*
X183657724Y-94268845D01*
X183627567Y-94283822D01*
X183574842Y-94291208D01*
X183476983Y-94283414D01*
X183364146Y-94245463D01*
X183281468Y-94192534D01*
X183243924Y-94154786D01*
X183228947Y-94124629D01*
X183221560Y-94071904D01*
X183621810Y-93628761D02*
X183568678Y-93786731D01*
X183816918Y-93870225D02*
X183343006Y-93710828D01*
X183418909Y-93485156D01*
X183456860Y-93372319D02*
X183547944Y-93101513D01*
X183976314Y-93396313D02*
X183502402Y-93236916D01*
D11*
X212112213Y-85044245D02*
X212471825Y-84600162D01*
D12*
X182007223Y-105950881D02*
X181194090Y-106222005D01*
X188301406Y-85090577D02*
X187771576Y-84416800D01*
X218880156Y-101571371D02*
X219734417Y-101641604D01*
X190955018Y-83344260D02*
X190545893Y-82591059D01*
D11*
X212623685Y-114542913D02*
X212998802Y-114973979D01*
D12*
X198652857Y-81896190D02*
X198652857Y-81396190D01*
X198986190Y-81753333D01*
X199319523Y-81396190D01*
X199319523Y-81896190D01*
X199795714Y-81896190D02*
X199795714Y-81396190D01*
X200176666Y-81396190D01*
X200271904Y-81420000D01*
X200319523Y-81443809D01*
X200367142Y-81491428D01*
X200367142Y-81562857D01*
X200319523Y-81610476D01*
X200271904Y-81634285D01*
X200176666Y-81658095D01*
X199795714Y-81658095D01*
X200795714Y-81896190D02*
X200795714Y-81396190D01*
X200795714Y-81634285D02*
X201367142Y-81634285D01*
X201367142Y-81896190D02*
X201367142Y-81396190D01*
D11*
X201711897Y-80823026D02*
X201762992Y-80253887D01*
X218950770Y-103443853D02*
X219513006Y-103545937D01*
D12*
X185646815Y-112381896D02*
X184998060Y-112942084D01*
D11*
X189442412Y-83902772D02*
X189128935Y-83425004D01*
X193554807Y-118143704D02*
X193364248Y-118682423D01*
X216923539Y-109180518D02*
X217426195Y-109452303D01*
X218852322Y-96094109D02*
X219411736Y-95977547D01*
D12*
X205193678Y-84288677D02*
X205120103Y-84515119D01*
X204957592Y-83936586D02*
X205193678Y-84288677D01*
X205591630Y-84142597D01*
D11*
X215654326Y-111207225D02*
X216119187Y-111539542D01*
D10*
X193863086Y-85123671D02*
X193480403Y-84199792D01*
D12*
X197306995Y-118763356D02*
X197185185Y-119611799D01*
D11*
X199114421Y-80763954D02*
X199088200Y-80193127D01*
D10*
X196809944Y-84222190D02*
X196612287Y-83241918D01*
D12*
X182586310Y-106594568D02*
X182390498Y-106007305D01*
X182676632Y-106263274D01*
X182631444Y-106127751D01*
X182623907Y-106029872D01*
X182631431Y-105977167D01*
X182661543Y-105916930D01*
X182774478Y-105879274D01*
X182834714Y-105909386D01*
X182872364Y-105947029D01*
X182925076Y-106029845D01*
X183015451Y-106300890D01*
X183022988Y-106398769D01*
X183015464Y-106451474D01*
X182194687Y-105420042D02*
X182164562Y-105329694D01*
X182157024Y-105231814D01*
X182164548Y-105179109D01*
X182194660Y-105118873D01*
X182269946Y-105043574D01*
X182382881Y-105005918D01*
X182488291Y-105020967D01*
X182548528Y-105051078D01*
X182586177Y-105088721D01*
X182638889Y-105171538D01*
X182669014Y-105261886D01*
X182676552Y-105359766D01*
X182669028Y-105412471D01*
X182638916Y-105472707D01*
X182563630Y-105548006D01*
X182450695Y-105585663D01*
X182345285Y-105570613D01*
X182285048Y-105540502D01*
X182247399Y-105502859D01*
X182194687Y-105420042D01*
D10*
X213023508Y-90541879D02*
X213832525Y-89954094D01*
D11*
X184423968Y-88675136D02*
X183962207Y-88338525D01*
X215310293Y-88320845D02*
X215764305Y-87973853D01*
X219108124Y-97638846D02*
X219675171Y-97568216D01*
X218596366Y-95031131D02*
X219148427Y-94883619D01*
D12*
X218656022Y-96663482D02*
X219499618Y-96511695D01*
X183356484Y-92047732D02*
X183654691Y-92196673D01*
X183079693Y-92175628D02*
X183292815Y-92548213D01*
X183569419Y-91994399D01*
X183526539Y-91334246D02*
X183569093Y-91249043D01*
X183632948Y-91174480D01*
X183675526Y-91142517D01*
X183739404Y-91121194D01*
X183845884Y-91121147D01*
X183952386Y-91174340D01*
X184016311Y-91259496D01*
X184037635Y-91323374D01*
X184037658Y-91376614D01*
X184016404Y-91472455D01*
X183973850Y-91557657D01*
X183909995Y-91632220D01*
X183867417Y-91664183D01*
X183803539Y-91685507D01*
X183697059Y-91685553D01*
X183590557Y-91632360D01*
X183526632Y-91547204D01*
X183505308Y-91483326D01*
X183505285Y-91430086D01*
X183526539Y-91334246D01*
D11*
X218734219Y-95572621D02*
X219290183Y-95440582D01*
D10*
X184159526Y-97086447D02*
X183176271Y-96904212D01*
D11*
X215181901Y-111837068D02*
X215632990Y-112187852D01*
D12*
X213397173Y-86603873D02*
X214002312Y-85996830D01*
X184329724Y-89335254D02*
X183621134Y-88852973D01*
D11*
X181531312Y-94529367D02*
X180983471Y-94366881D01*
D12*
X216952929Y-91519931D02*
X217718877Y-91135201D01*
D11*
X190357517Y-83331962D02*
X190071121Y-82837485D01*
D12*
X208498038Y-116948909D02*
X208883423Y-117714528D01*
X181646576Y-95287398D02*
X180816437Y-95073946D01*
X192554731Y-117436273D02*
X192218855Y-118224867D01*
X181246443Y-102731620D02*
X180398364Y-102855946D01*
D11*
X198553072Y-119206562D02*
X198511122Y-119776449D01*
D12*
X181051336Y-99589297D02*
X180194360Y-99572393D01*
X208252280Y-85591927D02*
X208540955Y-85758594D01*
X208533720Y-86056839D02*
X208121327Y-85818743D01*
X208371327Y-85385731D01*
X208783720Y-85623826D01*
D13*
X183685271Y-95541446D02*
X183891283Y-94907408D01*
X184424586Y-95531316D01*
X184156154Y-94092217D02*
X184009003Y-94545101D01*
X184311307Y-94693395D01*
X184294320Y-94637806D01*
X184292049Y-94536929D01*
X184365624Y-94310487D01*
X184426756Y-94230210D01*
X184473173Y-94195223D01*
X184551292Y-94170535D01*
X184709801Y-94222038D01*
X184758490Y-94287928D01*
X184775477Y-94343517D01*
X184777749Y-94444394D01*
X184704173Y-94670836D01*
X184643041Y-94751112D01*
X184596624Y-94786100D01*
D10*
X193005828Y-114491342D02*
X192570597Y-115391661D01*
D14*
X215898582Y-91893342D02*
X215936146Y-91980859D01*
X215933049Y-92034008D01*
X215908073Y-92096549D01*
X215829947Y-92155992D01*
X215676792Y-92221729D01*
X215579884Y-92237414D01*
X215517343Y-92212438D01*
X215476682Y-92178070D01*
X215439118Y-92090553D01*
X215442215Y-92037404D01*
X215467191Y-91974863D01*
X215545317Y-91915420D01*
X215698472Y-91849682D01*
X215795380Y-91833998D01*
X215857921Y-91858974D01*
X215898582Y-91893342D01*
X215608156Y-92484380D02*
X216067621Y-92287168D01*
X215795977Y-92921965D02*
X215702066Y-92703172D01*
X216161531Y-92505961D01*
X216105881Y-93643981D02*
X216011970Y-93425188D01*
X216471435Y-93227976D01*
X216478027Y-93846989D02*
X216484321Y-93922018D01*
X216471832Y-93953288D01*
X216437465Y-93993949D01*
X216371827Y-94022122D01*
X216318678Y-94019025D01*
X216287407Y-94006537D01*
X216246746Y-93972169D01*
X216171618Y-93797135D01*
X216631082Y-93599924D01*
X216696819Y-93753079D01*
X216693722Y-93806228D01*
X216681234Y-93837498D01*
X216646866Y-93878160D01*
X216603108Y-93896942D01*
X216549958Y-93893845D01*
X216518688Y-93881356D01*
X216478027Y-93846989D01*
X216412290Y-93693834D01*
X216381317Y-94225330D02*
X216387611Y-94300358D01*
X216434566Y-94409755D01*
X216475228Y-94444122D01*
X216506498Y-94456610D01*
X216559648Y-94459708D01*
X216603406Y-94440926D01*
X216637774Y-94400264D01*
X216650262Y-94368994D01*
X216653359Y-94315844D01*
X216637674Y-94218936D01*
X216640771Y-94165787D01*
X216653260Y-94134517D01*
X216687627Y-94093855D01*
X216731386Y-94075073D01*
X216784535Y-94078170D01*
X216815805Y-94090659D01*
X216856467Y-94125026D01*
X216903422Y-94234422D01*
X216909716Y-94309451D01*
D12*
X205677747Y-84681711D02*
X205856931Y-84214920D01*
X206040136Y-84667798D01*
X206479318Y-84453832D01*
X206300134Y-84920622D01*
X216265146Y-109728467D02*
X217001244Y-110167617D01*
D11*
X181472336Y-105244162D02*
X180922633Y-105400230D01*
D10*
X185081168Y-93975480D02*
X184153332Y-93602492D01*
D11*
X182023294Y-106897067D02*
X181490031Y-107102398D01*
X210409794Y-83804207D02*
X210719258Y-83323829D01*
X216343209Y-89826127D02*
X216828283Y-89524077D01*
X216658150Y-90357712D02*
X217152422Y-90070962D01*
D13*
X186317574Y-108769016D02*
X186222336Y-108604059D01*
X186145850Y-108538247D01*
X186093173Y-108513675D01*
X185958951Y-108481196D01*
X185819671Y-108506623D01*
X185588731Y-108639957D01*
X185554806Y-108714529D01*
X185549748Y-108772435D01*
X185568499Y-108871581D01*
X185663737Y-109036538D01*
X185740224Y-109102350D01*
X185792901Y-109126922D01*
X185874446Y-109134828D01*
X186018783Y-109051495D01*
X186052709Y-108976922D01*
X186057767Y-108919016D01*
X186039015Y-108819871D01*
X185943777Y-108654914D01*
X185867290Y-108589102D01*
X185814613Y-108564529D01*
X185733069Y-108556623D01*
X185163737Y-108170512D02*
X185116118Y-108088034D01*
X185097367Y-107988889D01*
X185102425Y-107930983D01*
X185136350Y-107856410D01*
X185228011Y-107748504D01*
X185372348Y-107665171D01*
X185511628Y-107639743D01*
X185593173Y-107647649D01*
X185645850Y-107672222D01*
X185722336Y-107738034D01*
X185769955Y-107820512D01*
X185788707Y-107919658D01*
X185783649Y-107977564D01*
X185749723Y-108052136D01*
X185658063Y-108160042D01*
X185513725Y-108243376D01*
X185374446Y-108268803D01*
X185292901Y-108260897D01*
X185240224Y-108236324D01*
X185163737Y-108170512D01*
D10*
X191287132Y-86472830D02*
X190746891Y-85631320D01*
D14*
X205534448Y-83518654D02*
X205720537Y-83054573D01*
X205799637Y-83624990D01*
X205985726Y-83160910D01*
X206051697Y-83572148D02*
X206272687Y-83660762D01*
X205954330Y-83687020D02*
X206295113Y-83284969D01*
X206263717Y-83811079D01*
X206604500Y-83409028D02*
X206453856Y-83784713D01*
X206458233Y-83837772D01*
X206471470Y-83868733D01*
X206506807Y-83908555D01*
X206595204Y-83944000D01*
X206648263Y-83939624D01*
X206679224Y-83926386D01*
X206719045Y-83891049D01*
X206869689Y-83515365D01*
X207024382Y-83577395D02*
X207289571Y-83683731D01*
X206970888Y-84094644D02*
X207156977Y-83630563D01*
D11*
X189382962Y-116057589D02*
X189068485Y-116534699D01*
D12*
X205580280Y-118119751D02*
X205834316Y-118938384D01*
D11*
X181187083Y-95896898D02*
X180628750Y-95775264D01*
D10*
X184160931Y-102784398D02*
X183175821Y-102956328D01*
X197808831Y-115950929D02*
X197673115Y-116941677D01*
D11*
X204949186Y-81393718D02*
X205096119Y-80841503D01*
D10*
X214179650Y-92385921D02*
X215060211Y-91911987D01*
X185368212Y-106710350D02*
X184458976Y-107126631D01*
D11*
X185978803Y-86815463D02*
X185562796Y-86423712D01*
X217701193Y-92433961D02*
X218226296Y-92208576D01*
D13*
X215657264Y-93548756D02*
X215848560Y-94137505D01*
X215491939Y-93902891D01*
X215536084Y-94038756D01*
X215533813Y-94139634D01*
X215516826Y-94195223D01*
X215468137Y-94261112D01*
X215309628Y-94312615D01*
X215231509Y-94287928D01*
X215185092Y-94252940D01*
X215123960Y-94172664D01*
X215035669Y-93900933D01*
X215037941Y-93800056D01*
X215054928Y-93744467D01*
X216039856Y-94726255D02*
X216069286Y-94816831D01*
X216067015Y-94917709D01*
X216050028Y-94973298D01*
X216001339Y-95039187D01*
X215889247Y-95125678D01*
X215730737Y-95177181D01*
X215589215Y-95173095D01*
X215511096Y-95148407D01*
X215464679Y-95113420D01*
X215403547Y-95033143D01*
X215374117Y-94942566D01*
X215376388Y-94841689D01*
X215393375Y-94786100D01*
X215442064Y-94720211D01*
X215554156Y-94633720D01*
X215712666Y-94582217D01*
X215854188Y-94586303D01*
X215932307Y-94610990D01*
X215978724Y-94645978D01*
X216039856Y-94726255D01*
X216334158Y-95632023D02*
X216363588Y-95722600D01*
X216361316Y-95823477D01*
X216344330Y-95879066D01*
X216295641Y-95944955D01*
X216183549Y-96031446D01*
X216025039Y-96082949D01*
X215883517Y-96078863D01*
X215805398Y-96054175D01*
X215758981Y-96019188D01*
X215697849Y-95938911D01*
X215668418Y-95848335D01*
X215670690Y-95747457D01*
X215687677Y-95691868D01*
X215736366Y-95625979D01*
X215848458Y-95539488D01*
X216006967Y-95487985D01*
X216148490Y-95492071D01*
X216226609Y-95516759D01*
X216273026Y-95551746D01*
X216334158Y-95632023D01*
D11*
X210390256Y-116215495D02*
X210698881Y-116696412D01*
X213125617Y-85919816D02*
X213515403Y-85501968D01*
D10*
X189144697Y-88113551D02*
X188471685Y-87373920D01*
D11*
X213686297Y-113549245D02*
X214093029Y-113950617D01*
X214906688Y-87808935D02*
X215349072Y-87447234D01*
X191744857Y-82603881D02*
X191499661Y-82087733D01*
X209219168Y-116904272D02*
X209493407Y-117405594D01*
X181984132Y-93210732D02*
X181449346Y-93009400D01*
X195965504Y-118832616D02*
X195846405Y-119391495D01*
D12*
X182641540Y-107620216D02*
X181856921Y-107965277D01*
D10*
X185035337Y-105932343D02*
X184105560Y-106300468D01*
D11*
X205726801Y-81620149D02*
X205896253Y-81074423D01*
X186815343Y-85968916D02*
X186423810Y-85552704D01*
X204210851Y-118783415D02*
X204336575Y-119340841D01*
D12*
X203675632Y-84049022D02*
X203624104Y-84062411D01*
X203479418Y-84055999D01*
X203386261Y-84036197D01*
X203251476Y-83983207D01*
X203168220Y-83916827D01*
X203131542Y-83860348D01*
X203104764Y-83757290D01*
X203119615Y-83687423D01*
X203185995Y-83604166D01*
X203242474Y-83567489D01*
X203345531Y-83540711D01*
X203490217Y-83547124D01*
X203583374Y-83566925D01*
X203718159Y-83619916D01*
X203759787Y-83653105D01*
D10*
X183939879Y-100943889D02*
X182941538Y-101001453D01*
D14*
X216820730Y-95919210D02*
X217312828Y-95830668D01*
X216862893Y-96153543D02*
X217354991Y-96065000D01*
X217033007Y-96292278D01*
X217414019Y-96393066D01*
X216921921Y-96481608D01*
X216964084Y-96715940D02*
X217456182Y-96627398D01*
X217489913Y-96814864D01*
X217474912Y-96865946D01*
X217455695Y-96893596D01*
X217413045Y-96925462D01*
X217342745Y-96938111D01*
X217291662Y-96923110D01*
X217264013Y-96903893D01*
X217232147Y-96861243D01*
X217198417Y-96673777D01*
X217635132Y-97756409D02*
X217650132Y-97705326D01*
X217637483Y-97635027D01*
X217601401Y-97568943D01*
X217546102Y-97530510D01*
X217495019Y-97515509D01*
X217397070Y-97508941D01*
X217326770Y-97521590D01*
X217237254Y-97561888D01*
X217194604Y-97593754D01*
X217156170Y-97649053D01*
X217145385Y-97723569D01*
X217153818Y-97770436D01*
X217189900Y-97836519D01*
X217217550Y-97855736D01*
X217381582Y-97826222D01*
X217364717Y-97732489D01*
X217345013Y-98026336D02*
X217387176Y-98260669D01*
X217195981Y-98004768D02*
X217717593Y-98080258D01*
X217255009Y-98332833D01*
X217326686Y-98731198D02*
X217284523Y-98496866D01*
X217776621Y-98408323D01*
D12*
X186732296Y-87186462D02*
X186968163Y-87422000D01*
X186429274Y-87220346D02*
X186513747Y-87641184D01*
X186951174Y-87203146D01*
X187320975Y-86361093D02*
X186984493Y-86698046D01*
X187119321Y-86899982D01*
X187136122Y-86849463D01*
X187186570Y-86765248D01*
X187354812Y-86596772D01*
X187438956Y-86546206D01*
X187489452Y-86529335D01*
X187556795Y-86529288D01*
X187641033Y-86613408D01*
X187641080Y-86680752D01*
X187624280Y-86731271D01*
X187573831Y-86815486D01*
X187405590Y-86983962D01*
X187321445Y-87034528D01*
X187270950Y-87051399D01*
D11*
X219245874Y-100639963D02*
X219817011Y-100658211D01*
X216087046Y-110567862D02*
X216565143Y-110880839D01*
D12*
X204088365Y-81490342D02*
X204273155Y-80653355D01*
D13*
X216403760Y-104040356D02*
X216420747Y-104095945D01*
X216423018Y-104196823D01*
X216349443Y-104423265D01*
X216288311Y-104503541D01*
X216241894Y-104538529D01*
X216163775Y-104563216D01*
X216100371Y-104542615D01*
X216019981Y-104466425D01*
X215816139Y-103799357D01*
X215624843Y-104388106D01*
X216099286Y-105193168D02*
X216069856Y-105283744D01*
X216008724Y-105364021D01*
X215962307Y-105399009D01*
X215884188Y-105423696D01*
X215742666Y-105427782D01*
X215584156Y-105376279D01*
X215472064Y-105289788D01*
X215423375Y-105223899D01*
X215406388Y-105168310D01*
X215404117Y-105067433D01*
X215433547Y-104976856D01*
X215494679Y-104896579D01*
X215541096Y-104861592D01*
X215619215Y-104836904D01*
X215760737Y-104832818D01*
X215919247Y-104884321D01*
X216031339Y-104970812D01*
X216080028Y-105036701D01*
X216097015Y-105092290D01*
X216099286Y-105193168D01*
X215804984Y-106098936D02*
X215775554Y-106189513D01*
X215714422Y-106269789D01*
X215668005Y-106304777D01*
X215589886Y-106329464D01*
X215448364Y-106333550D01*
X215289854Y-106282047D01*
X215177762Y-106195557D01*
X215129073Y-106129667D01*
X215112086Y-106074078D01*
X215109815Y-105973201D01*
X215139245Y-105882624D01*
X215200377Y-105802348D01*
X215246794Y-105767360D01*
X215324913Y-105742672D01*
X215466435Y-105738586D01*
X215624945Y-105790089D01*
X215737037Y-105876580D01*
X215785726Y-105942469D01*
X215802713Y-105998058D01*
X215804984Y-106098936D01*
D12*
X213451458Y-112126814D02*
X213836847Y-111704907D01*
X213644152Y-111915860D02*
X214013321Y-112253076D01*
X214024814Y-112134584D01*
X214053887Y-112032151D01*
X214100539Y-111945775D01*
X213119486Y-112984485D02*
X212873374Y-112759675D01*
X213420701Y-112937154D02*
X213317588Y-112520491D01*
X212900083Y-112977557D01*
D10*
X198314774Y-83996822D02*
X198210246Y-83002300D01*
D13*
X216836666Y-98761904D02*
X216870000Y-98809523D01*
X216903333Y-98904761D01*
X216903333Y-99142857D01*
X216870000Y-99238095D01*
X216836666Y-99285714D01*
X216770000Y-99333333D01*
X216703333Y-99333333D01*
X216603333Y-99285714D01*
X216203333Y-98714285D01*
X216203333Y-99333333D01*
X216670000Y-100190476D02*
X216203333Y-100190476D01*
X216936666Y-99952380D02*
X216436666Y-99714285D01*
X216436666Y-100333333D01*
X216903333Y-100904761D02*
X216903333Y-101000000D01*
X216870000Y-101095238D01*
X216836666Y-101142857D01*
X216770000Y-101190476D01*
X216636666Y-101238095D01*
X216470000Y-101238095D01*
X216336666Y-101190476D01*
X216270000Y-101142857D01*
X216236666Y-101095238D01*
X216203333Y-101000000D01*
X216203333Y-100904761D01*
X216236666Y-100809523D01*
X216270000Y-100761904D01*
X216336666Y-100714285D01*
X216470000Y-100666666D01*
X216636666Y-100666666D01*
X216770000Y-100714285D01*
X216836666Y-100761904D01*
X216870000Y-100809523D01*
X216903333Y-100904761D01*
D11*
X208540650Y-82741704D02*
X208794013Y-82229514D01*
D12*
X186593582Y-86603117D02*
X185987068Y-85997449D01*
D11*
X219088417Y-102518868D02*
X219654931Y-102593652D01*
D14*
X182810746Y-98110005D02*
X182779668Y-98346063D01*
X182283946Y-98280800D01*
X182594591Y-97745338D02*
X182627520Y-97677628D01*
X182654233Y-97657130D01*
X182704553Y-97639740D01*
X182775370Y-97649063D01*
X182819474Y-97678884D01*
X182839972Y-97705598D01*
X182857363Y-97755917D01*
X182832501Y-97944764D01*
X182336778Y-97879501D01*
X182358532Y-97714260D01*
X182388354Y-97670156D01*
X182415067Y-97649658D01*
X182465387Y-97632268D01*
X182512599Y-97638483D01*
X182556702Y-97668305D01*
X182577200Y-97695018D01*
X182594591Y-97745338D01*
X182572836Y-97910579D01*
X182871050Y-97469540D02*
X182903979Y-97401830D01*
X182919518Y-97283801D01*
X182902128Y-97233481D01*
X182881630Y-97206768D01*
X182837526Y-97176946D01*
X182790314Y-97170731D01*
X182739995Y-97188121D01*
X182713281Y-97208619D01*
X182683460Y-97252723D01*
X182647423Y-97344039D01*
X182617601Y-97388143D01*
X182590888Y-97408641D01*
X182540568Y-97426031D01*
X182493357Y-97419815D01*
X182449253Y-97389994D01*
X182428755Y-97363281D01*
X182411364Y-97312961D01*
X182426903Y-97194932D01*
X182459832Y-97127222D01*
D10*
X195188693Y-84643782D02*
X194889652Y-83689541D01*
D11*
X193614393Y-81836441D02*
X193424587Y-81297457D01*
X180754219Y-100393527D02*
X180182911Y-100405295D01*
D10*
X215682800Y-96439368D02*
X216657561Y-96216118D01*
D12*
X181548767Y-104331475D02*
X180714644Y-104528792D01*
D11*
X183666413Y-110183267D02*
X183182025Y-110486417D01*
D14*
X216933416Y-103853108D02*
X217420581Y-103965669D01*
X216869095Y-104131488D02*
X217195716Y-103987023D01*
X217356261Y-104244049D02*
X217142201Y-103901348D01*
X216820855Y-104340273D02*
X217308020Y-104452834D01*
X216922525Y-104534822D01*
X217232980Y-104777611D01*
X216745815Y-104665050D01*
D12*
X210976975Y-114444779D02*
X211434476Y-114102400D01*
X211205725Y-114273589D02*
X211505307Y-114673903D01*
X211538760Y-114559652D01*
X211586478Y-114464464D01*
X211648463Y-114388338D01*
X210552180Y-115387193D02*
X210933431Y-115101877D01*
X210828898Y-114882720D01*
X210805039Y-114930314D01*
X210743054Y-115006440D01*
X210552429Y-115149097D01*
X210461913Y-115187098D01*
X210409522Y-115196567D01*
X210342865Y-115186974D01*
X210271536Y-115091661D01*
X210281130Y-115025004D01*
X210304989Y-114977410D01*
X210366973Y-114901284D01*
X210557599Y-114758626D01*
X210648115Y-114720626D01*
X210700506Y-114711157D01*
D11*
X218114424Y-93476821D02*
X218651834Y-93282600D01*
D12*
X210820814Y-84447019D02*
X211310242Y-83743347D01*
X217445101Y-105478107D02*
X217624619Y-104935610D01*
X217534860Y-105206859D02*
X218009545Y-105363938D01*
X217971653Y-105251082D01*
X217956365Y-105145705D01*
X217963680Y-105047809D01*
X217754898Y-105981892D02*
X217762543Y-106034580D01*
X217755227Y-106132476D01*
X217680427Y-106358517D01*
X217627903Y-106441453D01*
X217590339Y-106479181D01*
X217530171Y-106509429D01*
X217484963Y-106494469D01*
X217432111Y-106426821D01*
X217340381Y-105794564D01*
X217145902Y-106382270D01*
D11*
X187671387Y-85221284D02*
X187305228Y-84782585D01*
D10*
X185658739Y-107307742D02*
X184770122Y-107766392D01*
D11*
X218458781Y-94529682D02*
X219006451Y-94366623D01*
D14*
X214816178Y-109960724D02*
X214496657Y-109712252D01*
X214444450Y-109701816D01*
X214411039Y-109705995D01*
X214363011Y-109728970D01*
X214304547Y-109804151D01*
X214294111Y-109856358D01*
X214298290Y-109889769D01*
X214321265Y-109937797D01*
X214640786Y-110186269D01*
X214133335Y-110063107D02*
X214070691Y-110104877D01*
X213997611Y-110198854D01*
X213987175Y-110251061D01*
X213991354Y-110284472D01*
X214014329Y-110332499D01*
X214051920Y-110361731D01*
X214104126Y-110372168D01*
X214137538Y-110367989D01*
X214185565Y-110345014D01*
X214262825Y-110284448D01*
X214310852Y-110261474D01*
X214344263Y-110257294D01*
X214396470Y-110267731D01*
X214434061Y-110296963D01*
X214457035Y-110344990D01*
X214461215Y-110378402D01*
X214450778Y-110430608D01*
X214377698Y-110524585D01*
X214315055Y-110566355D01*
X213788879Y-111242989D02*
X213836906Y-111220014D01*
X213880754Y-111163628D01*
X213905807Y-111092626D01*
X213897448Y-111025803D01*
X213874473Y-110977776D01*
X213813908Y-110900516D01*
X213757522Y-110856668D01*
X213667724Y-110817000D01*
X213615518Y-110806563D01*
X213548695Y-110814922D01*
X213486051Y-110856692D01*
X213456819Y-110894283D01*
X213431767Y-110965285D01*
X213435946Y-110998696D01*
X213567514Y-111101008D01*
X213625978Y-111025827D01*
X213394200Y-111207523D02*
X213248040Y-111395477D01*
X213310659Y-111082236D02*
X213603050Y-111520740D01*
X213106036Y-111345372D01*
X212857564Y-111664893D02*
X213003724Y-111476939D01*
X213398426Y-111783875D01*
M02*
