%TF.GenerationSoftware,KiCad,Pcbnew,6.0.7-1.fc35*%
%TF.CreationDate,2022-12-05T16:38:58+01:00*%
%TF.ProjectId,Ring,52696e67-2e6b-4696-9361-645f70636258,rev?*%
%TF.SameCoordinates,Original*%
%TF.FileFunction,Legend,Top*%
%TF.FilePolarity,Positive*%
%FSLAX46Y46*%
G04 Gerber Fmt 4.6, Leading zero omitted, Abs format (unit mm)*
G04 Created by KiCad (PCBNEW 6.0.7-1.fc35) date 2022-12-05 16:38:58*
%MOMM*%
%LPD*%
G01*
G04 APERTURE LIST*
%ADD10C,0.120000*%
%ADD11C,0.200000*%
%ADD12C,0.150000*%
%ADD13C,0.125000*%
G04 APERTURE END LIST*
D10*
X150374094Y-113373957D02*
X150398053Y-112802309D01*
X140701649Y-80081181D02*
X141028183Y-80551002D01*
X138588017Y-90130319D02*
X137983662Y-89891038D01*
D11*
X165660000Y-76680000D02*
G75*
G03*
X165660000Y-76680000I-1200000J0D01*
G01*
D10*
X161890592Y-80303079D02*
X161554291Y-80765958D01*
X161261531Y-110334129D02*
X160944908Y-109857573D01*
X168534824Y-100751921D02*
X167990677Y-100575117D01*
X143204899Y-84178271D02*
X142822839Y-83652410D01*
X156426392Y-77590626D02*
X156261022Y-78138356D01*
X165936921Y-84349408D02*
X165474042Y-84685709D01*
X164613361Y-94252328D02*
X165262078Y-94211514D01*
X152831999Y-81706452D02*
X152913466Y-81061577D01*
X133997112Y-101475383D02*
X134533378Y-101275948D01*
X148089800Y-113133868D02*
X148185217Y-112569730D01*
X132950195Y-97011826D02*
X133519211Y-96952020D01*
X148610352Y-81839122D02*
X148488554Y-81200635D01*
X153432345Y-76954222D02*
X153360636Y-77521860D01*
X145853608Y-112609374D02*
X146018978Y-112061644D01*
X164472836Y-107620367D02*
X164055757Y-107228703D01*
X165936921Y-84349408D02*
X165011162Y-85022011D01*
X163091063Y-108945440D02*
X162717208Y-108512325D01*
X168649374Y-100386392D02*
X168101644Y-100221022D01*
X136121181Y-105538351D02*
X136591002Y-105211817D01*
X133249680Y-98902705D02*
X133809327Y-98783748D01*
X133745176Y-100751921D02*
X134289323Y-100575117D01*
X140081882Y-109668532D02*
X140427803Y-109212797D01*
X143007623Y-111482568D02*
X143262021Y-110970087D01*
X145488079Y-77705176D02*
X145841687Y-78793471D01*
X168145612Y-101832998D02*
X167613640Y-101622376D01*
X164533548Y-93408001D02*
X165178423Y-93326534D01*
X132866043Y-95865906D02*
X133437691Y-95841947D01*
X168855386Y-99648538D02*
X168301211Y-99506250D01*
X151987672Y-81626639D02*
X152028486Y-80977922D01*
X149228174Y-76910195D02*
X149287980Y-77479211D01*
X169030320Y-91297295D02*
X167911025Y-91535209D01*
X137666639Y-94252328D02*
X137017922Y-94211514D01*
X138343158Y-108167705D02*
X138743470Y-107758919D01*
X138901601Y-108692119D02*
X139667288Y-107841738D01*
X161578351Y-110118819D02*
X161251817Y-109648998D01*
X148468141Y-77006209D02*
X148551722Y-77572221D01*
X154497313Y-82024127D02*
X154658961Y-81394548D01*
X153432345Y-113245778D02*
X153360636Y-112678140D01*
X163979263Y-99271729D02*
X164597450Y-99472590D01*
X162798485Y-81007313D02*
X162433783Y-81448162D01*
X156888020Y-82884835D02*
X157164777Y-82296697D01*
X133333242Y-90923463D02*
X133890275Y-91054114D01*
X169030320Y-98902705D02*
X168470673Y-98783748D01*
X163378399Y-108692119D02*
X162995556Y-108266929D01*
X138064127Y-91742687D02*
X137434548Y-91581039D01*
X156426392Y-112609374D02*
X156261022Y-112061644D01*
X151905906Y-76826043D02*
X151881947Y-77397691D01*
X169413957Y-95865906D02*
X168842309Y-95841947D01*
X168000877Y-88012340D02*
X167473433Y-88234057D01*
X140218271Y-87164899D02*
X139692410Y-86782839D01*
X138901601Y-108692119D02*
X139284444Y-108266929D01*
X137547881Y-107338399D02*
X137973071Y-106955556D01*
X169106034Y-91672796D02*
X168544018Y-91780006D01*
X162061729Y-103035101D02*
X162587590Y-103417161D01*
X140081882Y-80531468D02*
X140427803Y-80987203D01*
X137294560Y-107051063D02*
X137727675Y-106677208D01*
X161578351Y-80081181D02*
X161251817Y-80551002D01*
X145488079Y-112494824D02*
X145841687Y-111406529D01*
X168756243Y-90181456D02*
X168205170Y-90335318D01*
X147337295Y-112990320D02*
X147456252Y-112430673D01*
X140389408Y-80303079D02*
X140725709Y-80765958D01*
X165473753Y-106460793D02*
X165025363Y-106105403D01*
X156791921Y-77705176D02*
X156438313Y-78793471D01*
X168282888Y-88724617D02*
X167746622Y-88924052D01*
X141298924Y-104341386D02*
X140825094Y-104786342D01*
X163691983Y-100069681D02*
X164296338Y-100308962D01*
X138924835Y-89351980D02*
X138336697Y-89075223D01*
X149228174Y-113289805D02*
X149347786Y-112151773D01*
X169030320Y-98902705D02*
X167911025Y-98664791D01*
X147337295Y-112990320D02*
X147575209Y-111871025D01*
X137047313Y-106758485D02*
X137488162Y-106393783D01*
X132914146Y-96630468D02*
X133484289Y-96582592D01*
D11*
X151140000Y-108600000D02*
X151140000Y-110100000D01*
D10*
X160381386Y-104941076D02*
X160826342Y-105414906D01*
X137807164Y-107620367D02*
X138224243Y-107228703D01*
X132950195Y-93188174D02*
X134088227Y-93307786D01*
X163979263Y-90928271D02*
X164597450Y-90727410D01*
D11*
X163979263Y-99271729D02*
X165405848Y-99735254D01*
D10*
X160940272Y-110542758D02*
X160633699Y-110059676D01*
X137879122Y-92570352D02*
X137240635Y-92448554D01*
X149448001Y-108493548D02*
X149366534Y-109138423D01*
X168946758Y-90923463D02*
X168389725Y-91054114D01*
X164400878Y-97629648D02*
X165039365Y-97751446D01*
X165708532Y-84041882D02*
X165252797Y-84387803D01*
X156109681Y-82548017D02*
X156348962Y-81943662D01*
X154942705Y-112990320D02*
X154704791Y-111871025D01*
X162500793Y-109433753D02*
X162145403Y-108985363D01*
X138901601Y-81507881D02*
X139284444Y-81933071D01*
X141018469Y-110334129D02*
X141335092Y-109857573D01*
X143906338Y-106498427D02*
X143558051Y-107047240D01*
X134134388Y-101832998D02*
X134666360Y-101622376D01*
X144052340Y-111960877D02*
X144274057Y-111433433D01*
X152288439Y-113353909D02*
X152252513Y-112782888D01*
X155316537Y-77293242D02*
X155185886Y-77850275D01*
X159613684Y-78891337D02*
X159348609Y-79398378D01*
X162970140Y-101603675D02*
X163539739Y-101916815D01*
X164732119Y-82861601D02*
X164306929Y-83244444D01*
X143204899Y-106021729D02*
X142822839Y-106547590D01*
X163378399Y-81507881D02*
X162612712Y-82358262D01*
X141898614Y-104941076D02*
X141453658Y-105414906D01*
X155688538Y-77384614D02*
X155546250Y-77938789D01*
X149228174Y-76910195D02*
X149347786Y-78048227D01*
X153051826Y-76910195D02*
X152932214Y-78048227D01*
X157643675Y-106930140D02*
X157956815Y-107499739D01*
X158579213Y-78391254D02*
X158113784Y-79436625D01*
D11*
X159075101Y-84178271D02*
X159956779Y-82964746D01*
D10*
X143352497Y-78550713D02*
X143596107Y-79068410D01*
X165936921Y-105850592D02*
X165011162Y-105177989D01*
X159745224Y-105501929D02*
X160159550Y-106002763D01*
X137547881Y-82861601D02*
X137973071Y-83244444D01*
X148610352Y-108360878D02*
X148488554Y-108999365D01*
X164732119Y-82861601D02*
X163881738Y-83627288D01*
X164215873Y-98457313D02*
X164845452Y-98618961D01*
X168282888Y-101475383D02*
X167746622Y-101275948D01*
X132994222Y-97392345D02*
X133561860Y-97320636D01*
X144636325Y-106930140D02*
X144323185Y-107499739D01*
X169393909Y-96248439D02*
X168822888Y-96212513D01*
X164732119Y-107338399D02*
X163881738Y-106572712D01*
X134931337Y-86626316D02*
X135438378Y-86891391D01*
X160940272Y-79657242D02*
X160633699Y-80140324D01*
X143700787Y-78391254D02*
X144166216Y-79436625D01*
X144407002Y-78094388D02*
X144617624Y-78626360D01*
X140738071Y-103705224D02*
X140237237Y-104119550D01*
X164472836Y-82579633D02*
X164055757Y-82971297D01*
X138300737Y-99271729D02*
X137682550Y-99472590D01*
X154567204Y-77133966D02*
X154459994Y-77695982D01*
X150292328Y-108573361D02*
X150251514Y-109222078D01*
X135905871Y-84978469D02*
X136382427Y-85295092D01*
X140389408Y-109896921D02*
X140725709Y-109434042D01*
D11*
X138300737Y-90928271D02*
X136874152Y-90464746D01*
D10*
X138619633Y-81767164D02*
X139011297Y-82184243D01*
X148847655Y-113245778D02*
X148919364Y-112678140D01*
X169329805Y-97011826D02*
X168760789Y-96952020D01*
X143352497Y-111649287D02*
X143596107Y-111131590D01*
X166374129Y-105221531D02*
X165897573Y-104904908D01*
X136343079Y-84349408D02*
X137268838Y-85022011D01*
X158227660Y-78239123D02*
X158005943Y-78766567D01*
D11*
X172130000Y-100470000D02*
G75*
G03*
X172130000Y-100470000I-1200000J0D01*
G01*
D10*
X151905906Y-113373957D02*
X151881947Y-112802309D01*
X167689287Y-102887503D02*
X167171590Y-102643893D01*
X145125029Y-77827356D02*
X145313190Y-78367681D01*
X132950195Y-97011826D02*
X134088227Y-96892214D01*
X145488079Y-112494824D02*
X145664883Y-111950677D01*
X147337295Y-77209680D02*
X147456252Y-77769327D01*
X168534824Y-89448079D02*
X167990677Y-89624883D01*
X168946758Y-99276537D02*
X168389725Y-99145886D01*
X168412644Y-89085029D02*
X167872319Y-89273190D01*
X143700787Y-111808746D02*
X143933501Y-111286061D01*
X134757432Y-86967623D02*
X135269913Y-87222021D01*
X157515383Y-112242888D02*
X157315948Y-111706622D01*
X148089800Y-77066132D02*
X148185217Y-77630270D01*
X154567204Y-113066034D02*
X154459994Y-112504018D01*
X166582758Y-104900272D02*
X166099676Y-104593699D01*
X138072295Y-82303158D02*
X138481081Y-82703470D01*
X169173868Y-92049800D02*
X168609730Y-92145217D01*
X158373662Y-106498427D02*
X158721949Y-107047240D01*
X139741573Y-87866338D02*
X139192760Y-87518051D01*
X152670468Y-76874146D02*
X152622592Y-77444289D01*
X157515383Y-77957112D02*
X157315948Y-78493378D01*
X146963463Y-112906758D02*
X147094114Y-112349725D01*
X155688538Y-112815386D02*
X155546250Y-112261211D01*
X133630626Y-100386392D02*
X134178356Y-100221022D01*
X167848746Y-102539213D02*
X167326061Y-102306499D01*
X169329805Y-97011826D02*
X168191773Y-96892214D01*
X142666316Y-111308663D02*
X142931391Y-110801622D01*
X168145612Y-88367002D02*
X167613640Y-88577624D01*
X147782687Y-82024127D02*
X147621039Y-81394548D01*
X133106132Y-92049800D02*
X133670270Y-92145217D01*
X133046209Y-92428141D02*
X133612221Y-92511722D01*
X146968271Y-82260737D02*
X146767410Y-81642550D01*
X166158819Y-105538351D02*
X165688998Y-105211817D01*
X146221456Y-112716243D02*
X146375318Y-112165170D01*
X134431254Y-87660787D02*
X135476625Y-88126216D01*
X161890592Y-109896921D02*
X161217989Y-108971162D01*
X133630626Y-89813608D02*
X134178356Y-89978978D01*
X165936921Y-105850592D02*
X165474042Y-105514291D01*
X163660367Y-81767164D02*
X163268703Y-82184243D01*
X152831999Y-108493548D02*
X152913466Y-109138423D01*
X140738071Y-86494776D02*
X140237237Y-86080450D01*
X168534824Y-100751921D02*
X167446529Y-100398313D01*
X158579213Y-78391254D02*
X158346499Y-78913939D01*
X164207705Y-82303158D02*
X163798919Y-82703470D01*
X133249680Y-91297295D02*
X133809327Y-91416252D01*
X169430000Y-95100000D02*
G75*
G03*
X169430000Y-95100000I-18290000J0D01*
G01*
X160981076Y-104341386D02*
X161454906Y-104786342D01*
X162538427Y-102333662D02*
X163087240Y-102681949D01*
X166582758Y-85299728D02*
X166099676Y-85606301D01*
X169393909Y-93951561D02*
X168822888Y-93987487D01*
X151140000Y-108600000D02*
X151140000Y-109250000D01*
X133745176Y-89448079D02*
X134833471Y-89801687D01*
X139741573Y-102333662D02*
X139192760Y-102681949D01*
X153051826Y-113289805D02*
X152932214Y-112151773D01*
X147782687Y-108175873D02*
X147621039Y-108805452D01*
X136571468Y-106158118D02*
X137027203Y-105812197D01*
X149609532Y-76874146D02*
X149657408Y-77444289D01*
X165708532Y-106158118D02*
X165252797Y-105812197D01*
X132886091Y-96248439D02*
X133457112Y-96212513D01*
X164215873Y-91742687D02*
X164845452Y-91581039D01*
X135697242Y-104900272D02*
X136180324Y-104593699D01*
X163691983Y-90130319D02*
X164296338Y-89891038D01*
X146968271Y-107939263D02*
X146767410Y-108557450D01*
X132950195Y-93188174D02*
X133519211Y-93247980D01*
X156058544Y-112716243D02*
X155904682Y-112165170D01*
D11*
X143204899Y-84178271D02*
X142323221Y-82964746D01*
D10*
X139309860Y-101603675D02*
X138740261Y-101916815D01*
X168534824Y-89448079D02*
X167446529Y-89801687D01*
X134279123Y-88012340D02*
X134806567Y-88234057D01*
X165473753Y-83739207D02*
X165025363Y-84094597D01*
X158579213Y-111808746D02*
X158346499Y-111286061D01*
X153669648Y-81839122D02*
X153791446Y-81200635D01*
X139309860Y-88596325D02*
X138740261Y-88283185D01*
X167348663Y-86626316D02*
X166841622Y-86891391D01*
X164985440Y-83148937D02*
X164552325Y-83522792D01*
X161541929Y-103705224D02*
X162042763Y-104119550D01*
X143700787Y-111808746D02*
X144166216Y-110763375D01*
X136806247Y-83739207D02*
X137254637Y-84094597D01*
X136806247Y-106460793D02*
X137254637Y-106105403D01*
X169233791Y-97771859D02*
X168667779Y-97688278D01*
X167522568Y-86967623D02*
X167010087Y-87222021D01*
X155311729Y-82260737D02*
X155512590Y-81642550D01*
X158373662Y-83701573D02*
X158721949Y-83152760D01*
X162198118Y-80531468D02*
X161852197Y-80987203D01*
X161541929Y-86494776D02*
X162042763Y-86080450D01*
X163378399Y-108692119D02*
X162612712Y-107841738D01*
X165232687Y-83441515D02*
X164791838Y-83806217D01*
X160381386Y-85258924D02*
X160826342Y-84785094D01*
X168000877Y-102187660D02*
X167473433Y-101965943D01*
X169285778Y-97392345D02*
X168718140Y-97320636D01*
X133523757Y-90181456D02*
X134074830Y-90335318D01*
X137807164Y-82579633D02*
X138224243Y-82971297D01*
X158927503Y-78550713D02*
X158683893Y-79068410D01*
X134431254Y-87660787D02*
X134953939Y-87893501D01*
X163936842Y-108167705D02*
X163536530Y-107758919D01*
X159075101Y-84178271D02*
X159457161Y-83652410D01*
X153051826Y-76910195D02*
X152992020Y-77479211D01*
X140701649Y-110118819D02*
X141028183Y-109648998D01*
X134590713Y-102887503D02*
X135108410Y-102643893D01*
X156888020Y-107315165D02*
X157164777Y-107903303D01*
X137547881Y-107338399D02*
X138398262Y-106572712D01*
X154190200Y-113133868D02*
X154094783Y-112569730D01*
X154190200Y-77066132D02*
X154094783Y-77630270D01*
X155311729Y-107939263D02*
X155512590Y-108557450D01*
X152288439Y-76846091D02*
X152252513Y-77417112D01*
X164533548Y-96791999D02*
X165178423Y-96873466D01*
X154942705Y-77209680D02*
X154704791Y-78328975D01*
X160981076Y-85858614D02*
X161454906Y-85413658D01*
X142534776Y-105501929D02*
X142120450Y-106002763D01*
X133997112Y-88724617D02*
X134533378Y-88924052D01*
D11*
X138300737Y-99271729D02*
X136874152Y-99735254D01*
D10*
X169365854Y-96630468D02*
X168795711Y-96582592D01*
X132994222Y-92807655D02*
X133561860Y-92879364D01*
X153051826Y-113289805D02*
X152992020Y-112720789D01*
X144407002Y-112105612D02*
X144617624Y-111573640D01*
X168412644Y-101114971D02*
X167872319Y-100926810D01*
X133249680Y-91297295D02*
X134368975Y-91535209D01*
X144764617Y-77957112D02*
X144964052Y-78493378D01*
X133046209Y-97771859D02*
X133612221Y-97688278D01*
X164613361Y-95947672D02*
X165262078Y-95988486D01*
X153811859Y-113193791D02*
X153728278Y-112627779D01*
X159272377Y-111482568D02*
X159017979Y-110970087D01*
X167522568Y-103232377D02*
X167010087Y-102977979D01*
X164732119Y-107338399D02*
X164306929Y-106955556D01*
X133106132Y-98150200D02*
X133670270Y-98054783D01*
X162061729Y-87164899D02*
X162587590Y-86782839D01*
X137746452Y-96791999D02*
X137101577Y-96873466D01*
X138901601Y-81507881D02*
X139667288Y-82358262D01*
X145488079Y-77705176D02*
X145664883Y-78249323D01*
X140389408Y-109896921D02*
X141062011Y-108971162D01*
X166158819Y-84661649D02*
X165688998Y-84988183D01*
X146170319Y-82548017D02*
X145931038Y-81943662D01*
X150374094Y-76826043D02*
X150398053Y-77397691D01*
X148847655Y-76954222D02*
X148919364Y-77521860D01*
X134590713Y-87312497D02*
X135108410Y-87556107D01*
X149609532Y-113325854D02*
X149657408Y-112755711D01*
X154497313Y-108175873D02*
X154658961Y-108805452D01*
X154942705Y-77209680D02*
X154823748Y-77769327D01*
X139779207Y-109433753D02*
X140134597Y-108985363D01*
X137746452Y-93408001D02*
X137101577Y-93326534D01*
X156791921Y-112494824D02*
X156438313Y-111406529D01*
X142666316Y-78891337D02*
X142931391Y-79398378D01*
X132914146Y-93569532D02*
X133484289Y-93617408D01*
D11*
X133780000Y-102370000D02*
G75*
G03*
X133780000Y-102370000I-1200000J0D01*
G01*
D10*
X133867356Y-89085029D02*
X134407681Y-89273190D01*
X145125029Y-112372644D02*
X145313190Y-111832319D01*
X145391980Y-82884835D02*
X145115223Y-82296697D01*
X171030000Y-95100000D02*
G75*
G03*
X171030000Y-95100000I-19890000J0D01*
G01*
X140218271Y-103035101D02*
X139692410Y-103417161D01*
X144052340Y-78239123D02*
X144274057Y-78766567D01*
X139481515Y-81007313D02*
X139846217Y-81448162D01*
X146170319Y-107651983D02*
X145931038Y-108256338D01*
X167348663Y-103573684D02*
X166841622Y-103308609D01*
X139779207Y-80766247D02*
X140134597Y-81214637D01*
X163355165Y-89351980D02*
X163943303Y-89075223D01*
X169030320Y-91297295D02*
X168470673Y-91416252D01*
X168855386Y-90551462D02*
X168301211Y-90693750D01*
X136343079Y-84349408D02*
X136805958Y-84685709D01*
X138072295Y-107896842D02*
X138481081Y-107496530D01*
X157643675Y-83269860D02*
X157956815Y-82700261D01*
X167689287Y-87312497D02*
X167171590Y-87556107D01*
X146591462Y-112815386D02*
X146733750Y-112261211D01*
D11*
X139020000Y-76680000D02*
G75*
G03*
X139020000Y-76680000I-1200000J0D01*
G01*
D10*
X132866043Y-94334094D02*
X133437691Y-94358053D01*
X157154971Y-112372644D02*
X156966810Y-111832319D01*
X163378399Y-81507881D02*
X162995556Y-81933071D01*
X134431254Y-102539213D02*
X134953939Y-102306499D01*
X158579213Y-111808746D02*
X158113784Y-110763375D01*
X138619633Y-108432836D02*
X139011297Y-108015757D01*
X164207705Y-107896842D02*
X163798919Y-107496530D01*
X133745176Y-89448079D02*
X134289323Y-89624883D01*
X156109681Y-107651983D02*
X156348962Y-108256338D01*
X149448001Y-81706452D02*
X149366534Y-81061577D01*
X133867356Y-101114971D02*
X134407681Y-100926810D01*
X137640000Y-95100000D02*
X136990000Y-95100000D01*
X155316537Y-112906758D02*
X155185886Y-112349725D01*
X168649374Y-89813608D02*
X168101644Y-89978978D01*
X141298924Y-85858614D02*
X140825094Y-85413658D01*
X141898614Y-85258924D02*
X141453658Y-84785094D01*
X161890592Y-80303079D02*
X161217989Y-81228838D01*
X137547881Y-82861601D02*
X138398262Y-83627288D01*
X136343079Y-105850592D02*
X137268838Y-105177989D01*
X136571468Y-84041882D02*
X137027203Y-84387803D01*
X169106034Y-98527204D02*
X168544018Y-98419994D01*
X168756243Y-100018544D02*
X168205170Y-99864682D01*
X153811859Y-77006209D02*
X153728278Y-77572221D01*
X149991561Y-76846091D02*
X150027487Y-77417112D01*
X163660367Y-108432836D02*
X163268703Y-108015757D01*
X162538427Y-87866338D02*
X163087240Y-87518051D01*
X156791921Y-112494824D02*
X156615117Y-111950677D01*
X146591462Y-77384614D02*
X146733750Y-77938789D01*
X136343079Y-105850592D02*
X136805958Y-105514291D01*
X133424614Y-99648538D02*
X133978789Y-99506250D01*
X167848746Y-87660787D02*
X166803375Y-88126216D01*
X164640000Y-95100000D02*
X165290000Y-95100000D01*
X154942705Y-112990320D02*
X154823748Y-112430673D01*
X159613684Y-111308663D02*
X159348609Y-110801622D01*
X134757432Y-103232377D02*
X135269913Y-102977979D01*
X153669648Y-108360878D02*
X153791446Y-108999365D01*
X133173966Y-98527204D02*
X133735982Y-98419994D01*
X147712796Y-113066034D02*
X147820006Y-112504018D01*
X134134388Y-88367002D02*
X134666360Y-88577624D01*
X137879122Y-97629648D02*
X137240635Y-97751446D01*
X169329805Y-93188174D02*
X168760789Y-93247980D01*
D11*
X143204899Y-106021729D02*
X142323221Y-107235254D01*
D10*
X133523757Y-100018544D02*
X134074830Y-99864682D01*
X138343158Y-82032295D02*
X138743470Y-82441081D01*
D11*
X163979263Y-90928271D02*
X165405848Y-90464746D01*
D10*
X156791921Y-77705176D02*
X156615117Y-78249323D01*
X149991561Y-113353909D02*
X150027487Y-112782888D01*
X139188937Y-81254560D02*
X139562792Y-81687675D01*
X163355165Y-100848020D02*
X163943303Y-101124777D01*
X134931337Y-103573684D02*
X135438378Y-103308609D01*
X141339728Y-110542758D02*
X141646301Y-110059676D01*
X133173966Y-91672796D02*
X133735982Y-91780006D01*
X169173868Y-98150200D02*
X168609730Y-98054783D01*
X148468141Y-113193791D02*
X148551722Y-112627779D01*
X135905871Y-105221531D02*
X136382427Y-104904908D01*
X138300737Y-90928271D02*
X137682550Y-90727410D01*
X166374129Y-84978469D02*
X165897573Y-85295092D01*
X158927503Y-111649287D02*
X158683893Y-111131590D01*
X145853608Y-77590626D02*
X146018978Y-78138356D01*
X159272377Y-78717432D02*
X159017979Y-79229913D01*
X157872998Y-112105612D02*
X157662376Y-111573640D01*
D11*
X159075101Y-106021729D02*
X159956779Y-107235254D01*
D10*
X143007623Y-78717432D02*
X143262021Y-79229913D01*
X134431254Y-102539213D02*
X135476625Y-102073784D01*
X149228174Y-113289805D02*
X149287980Y-112720789D01*
X162500793Y-80766247D02*
X162145403Y-81214637D01*
X137047313Y-83441515D02*
X137488162Y-83806217D01*
X147712796Y-77133966D02*
X147820006Y-77695982D01*
X162970140Y-88596325D02*
X163539739Y-88283185D01*
X151987672Y-108573361D02*
X152028486Y-109222078D01*
X167848746Y-102539213D02*
X166803375Y-102073784D01*
X161261531Y-79865871D02*
X160944908Y-80342427D01*
X163936842Y-82032295D02*
X163536530Y-82441081D01*
X141018469Y-79865871D02*
X141335092Y-80342427D01*
X157154971Y-77827356D02*
X156966810Y-78367681D01*
X169413957Y-94334094D02*
X168842309Y-94358053D01*
X144764617Y-112242888D02*
X144964052Y-111706622D01*
X147337295Y-77209680D02*
X147575209Y-78328975D01*
X136121181Y-84661649D02*
X136591002Y-84988183D01*
X133249680Y-98902705D02*
X134368975Y-98664791D01*
X156058544Y-77483757D02*
X155904682Y-78034830D01*
X142534776Y-84698071D02*
X142120450Y-84197237D01*
X163091063Y-81254560D02*
X162717208Y-81687675D01*
X140389408Y-80303079D02*
X141062011Y-81228838D01*
X141339728Y-79657242D02*
X141646301Y-80140324D01*
X133333242Y-99276537D02*
X133890275Y-99145886D01*
D11*
X151140000Y-81600000D02*
X151140000Y-80100000D01*
D10*
X143906338Y-83701573D02*
X143558051Y-83152760D01*
X159745224Y-84698071D02*
X160159550Y-84197237D01*
X158227660Y-111960877D02*
X158005943Y-111433433D01*
X135697242Y-85299728D02*
X136180324Y-85606301D01*
X138588017Y-100069681D02*
X137983662Y-100308962D01*
X169329805Y-93188174D02*
X168191773Y-93307786D01*
X164985440Y-107051063D02*
X164552325Y-106677208D01*
X167848746Y-87660787D02*
X167326061Y-87893501D01*
X146221456Y-77483757D02*
X146375318Y-78034830D01*
X157872998Y-78094388D02*
X157662376Y-78626360D01*
X159075101Y-106021729D02*
X159457161Y-106547590D01*
X137666639Y-95947672D02*
X137017922Y-95988486D01*
X144636325Y-83269860D02*
X144323185Y-82700261D01*
X152670468Y-113325854D02*
X152622592Y-112755711D01*
X169365854Y-93569532D02*
X168795711Y-93617408D01*
X139481515Y-109192687D02*
X139846217Y-108751838D01*
X150292328Y-81626639D02*
X150251514Y-80977922D01*
X133745176Y-100751921D02*
X134833471Y-100398313D01*
X169285778Y-92807655D02*
X168718140Y-92879364D01*
X139188937Y-108945440D02*
X139562792Y-108512325D01*
X134279123Y-102187660D02*
X134806567Y-101965943D01*
X145391980Y-107315165D02*
X145115223Y-107903303D01*
X143700787Y-78391254D02*
X143933501Y-78913939D01*
X169233791Y-92428141D02*
X168667779Y-92511722D01*
X138924835Y-100848020D02*
X138336697Y-101124777D01*
X137294560Y-83148937D02*
X137727675Y-83522792D01*
X132886091Y-93951561D02*
X133457112Y-93987487D01*
X133424614Y-90551462D02*
X133978789Y-90693750D01*
X165232687Y-106758485D02*
X164791838Y-106393783D01*
X162798485Y-109192687D02*
X162433783Y-108751838D01*
X138064127Y-98457313D02*
X137434548Y-98618961D01*
X162198118Y-109668532D02*
X161852197Y-109212797D01*
X164400878Y-92570352D02*
X165039365Y-92448554D01*
X146963463Y-77293242D02*
X147094114Y-77850275D01*
X161890592Y-109896921D02*
X161554291Y-109434042D01*
D12*
X145647968Y-77619808D02*
X145306207Y-76529247D01*
X133128045Y-91794548D02*
X132004326Y-91586278D01*
X161910534Y-109911475D02*
X162582289Y-110836065D01*
X137150100Y-106924283D02*
X136277190Y-107661949D01*
X132954018Y-92945514D02*
X131819439Y-92808215D01*
D13*
X158608766Y-77760215D02*
X158913281Y-77895794D01*
X158937261Y-78193161D02*
X158502240Y-77999477D01*
X158705608Y-77542704D01*
X159140630Y-77736388D01*
D12*
X138184467Y-108045532D02*
X137376345Y-108853654D01*
X169412884Y-96377247D02*
X170553094Y-96454979D01*
X155520064Y-112889572D02*
X155792674Y-113999440D01*
X148645306Y-113247244D02*
X148490203Y-114379527D01*
X133099211Y-98291930D02*
X131973372Y-98488420D01*
X132847529Y-94076183D02*
X131706567Y-94010395D01*
X133794468Y-101015772D02*
X132713616Y-101387095D01*
X133524523Y-100147797D02*
X132425390Y-100460893D01*
X168997292Y-91030328D02*
X170111305Y-90775185D01*
X134104430Y-101848607D02*
X133041829Y-102269321D01*
X145098499Y-113429988D02*
X144550095Y-113269415D01*
X144824297Y-113349701D02*
X145049098Y-112581936D01*
X144925583Y-112664854D01*
X144812773Y-112711213D01*
X144710667Y-112721011D01*
X146012506Y-113697608D02*
X145464102Y-113537036D01*
X145738304Y-113617322D02*
X145963105Y-112849556D01*
X145839590Y-112932475D01*
X145726779Y-112978834D01*
X145624674Y-112988632D01*
X146831412Y-113103796D02*
X146922812Y-113130558D01*
X147003508Y-113193880D01*
X147038504Y-113243822D01*
X147062794Y-113330323D01*
X147065675Y-113489945D01*
X147012151Y-113672747D01*
X146923632Y-113805607D01*
X146856522Y-113865346D01*
X146800116Y-113888526D01*
X146698011Y-113898324D01*
X146606610Y-113871562D01*
X146525914Y-113808239D01*
X146490919Y-113758298D01*
X146466628Y-113671797D01*
X146463747Y-113512174D01*
X146517271Y-113329373D01*
X146605791Y-113196513D01*
X146672901Y-113136773D01*
X146729306Y-113113594D01*
X146831412Y-113103796D01*
X132944405Y-97217753D02*
X131809122Y-97349110D01*
D13*
X153761799Y-76535061D02*
X154232127Y-76609553D01*
X153645386Y-76661260D02*
X154052833Y-76219561D01*
X154303845Y-76765550D01*
X155295632Y-76899022D02*
X155244104Y-76912411D01*
X155099418Y-76905999D01*
X155006261Y-76886197D01*
X154871476Y-76833207D01*
X154788220Y-76766827D01*
X154751542Y-76710348D01*
X154724764Y-76607290D01*
X154739615Y-76537423D01*
X154805995Y-76454166D01*
X154862474Y-76417489D01*
X154965531Y-76390711D01*
X155110217Y-76397124D01*
X155203374Y-76416925D01*
X155338159Y-76469916D01*
X155379787Y-76503105D01*
X159459733Y-77896322D02*
X159968880Y-78155745D01*
X159487311Y-78471537D02*
X159714306Y-78026033D01*
D12*
X137788208Y-82560286D02*
X136955101Y-81777947D01*
X139905255Y-80626668D02*
X139204790Y-79723634D01*
X132553190Y-89904524D02*
X132759201Y-89270486D01*
X133387610Y-89925295D01*
X133024073Y-88455295D02*
X132876922Y-88908179D01*
X133224514Y-89071188D01*
X133202998Y-89014127D01*
X133196198Y-88911778D01*
X133269773Y-88685336D01*
X133335434Y-88606532D01*
X133386380Y-88573015D01*
X133473556Y-88551271D01*
X133654710Y-88610131D01*
X133712456Y-88678964D01*
X133733972Y-88736024D01*
X133740773Y-88838373D01*
X133667197Y-89064815D01*
X133601536Y-89143620D01*
X133550590Y-89177136D01*
X135284358Y-85934285D02*
X134294615Y-85362857D01*
X169139345Y-87891834D02*
X169330642Y-88480583D01*
X168937790Y-88257741D01*
X168981935Y-88393606D01*
X168975135Y-88495955D01*
X168953619Y-88553015D01*
X168895873Y-88621848D01*
X168714719Y-88680708D01*
X168627543Y-88658964D01*
X168576597Y-88625448D01*
X168510936Y-88546643D01*
X168422645Y-88274912D01*
X168429446Y-88172564D01*
X168450962Y-88115503D01*
X169521938Y-89069332D02*
X169551368Y-89159909D01*
X169544567Y-89262258D01*
X169523052Y-89319318D01*
X169465305Y-89388151D01*
X169335098Y-89480528D01*
X169153944Y-89539388D01*
X168994306Y-89541188D01*
X168907129Y-89519444D01*
X168856184Y-89485927D01*
X168790523Y-89407123D01*
X168761093Y-89316546D01*
X168767893Y-89214197D01*
X168789409Y-89157136D01*
X168847155Y-89088304D01*
X168977363Y-88995927D01*
X169158516Y-88937067D01*
X169318154Y-88935267D01*
X169405331Y-88957011D01*
X169456277Y-88990527D01*
X169521938Y-89069332D01*
X169816240Y-89975100D02*
X169845670Y-90065677D01*
X169838869Y-90168026D01*
X169817354Y-90225087D01*
X169759607Y-90293919D01*
X169629400Y-90386296D01*
X169448246Y-90445156D01*
X169288608Y-90446956D01*
X169201431Y-90425212D01*
X169150486Y-90391695D01*
X169084825Y-90312891D01*
X169055394Y-90222314D01*
X169062195Y-90119965D01*
X169083711Y-90062905D01*
X169141457Y-89994072D01*
X169271665Y-89901695D01*
X169452818Y-89842835D01*
X169612456Y-89841035D01*
X169699633Y-89862779D01*
X169750579Y-89896296D01*
X169816240Y-89975100D01*
D13*
X157457747Y-77611711D02*
X157636931Y-77144920D01*
X157820136Y-77597798D01*
X158259318Y-77383832D01*
X158080134Y-77850622D01*
D12*
X144160543Y-78160724D02*
X143723191Y-77104861D01*
X164294500Y-109217309D02*
X163890439Y-109621370D01*
X164092470Y-109419340D02*
X163526784Y-108853654D01*
X163540253Y-109001810D01*
X163526784Y-109123028D01*
X163486378Y-109217309D01*
X164334906Y-108045532D02*
X164200219Y-108180219D01*
X164159813Y-108274500D01*
X164153079Y-108335109D01*
X164166548Y-108483265D01*
X164240625Y-108624687D01*
X164456125Y-108840186D01*
X164543671Y-108860389D01*
X164604280Y-108853654D01*
X164698561Y-108813248D01*
X164833248Y-108678561D01*
X164873654Y-108584280D01*
X164880389Y-108523671D01*
X164860186Y-108436125D01*
X164725499Y-108301438D01*
X164637952Y-108281235D01*
X164577343Y-108287969D01*
X164483062Y-108328375D01*
X164348375Y-108463062D01*
X164307969Y-108557343D01*
X164301235Y-108617952D01*
X164321438Y-108705499D01*
X164839983Y-107540456D02*
X164907326Y-107473113D01*
X165001607Y-107432707D01*
X165062216Y-107425972D01*
X165149763Y-107446175D01*
X165291184Y-107520253D01*
X165425871Y-107654940D01*
X165499949Y-107796361D01*
X165520152Y-107883908D01*
X165513418Y-107944517D01*
X165473012Y-108038798D01*
X165405668Y-108106142D01*
X165311387Y-108146548D01*
X165250778Y-108153282D01*
X165163231Y-108133079D01*
X165021810Y-108059001D01*
X164887123Y-107924314D01*
X164813045Y-107782893D01*
X164792842Y-107695346D01*
X164799577Y-107634737D01*
X164839983Y-107540456D01*
X134808559Y-103421705D02*
X133792996Y-103945876D01*
D13*
X155675478Y-77044534D02*
X155804888Y-76561572D01*
X155743264Y-76791554D02*
X156295222Y-76939450D01*
X156227436Y-77192431D02*
X156356845Y-76709468D01*
X152864471Y-76067825D02*
X153432770Y-76127555D01*
X153096356Y-76594951D02*
X153148620Y-76097690D01*
D12*
X134143247Y-104213602D02*
X134238486Y-104378559D01*
X134319096Y-104441990D01*
X134375897Y-104464182D01*
X134522490Y-104489517D01*
X134678266Y-104454566D01*
X134942197Y-104302185D01*
X134984371Y-104222851D01*
X134993553Y-104162564D01*
X134978925Y-104061037D01*
X134883687Y-103896080D01*
X134803076Y-103832649D01*
X134746275Y-103810458D01*
X134656483Y-103807313D01*
X134491526Y-103902552D01*
X134449352Y-103981886D01*
X134440170Y-104042173D01*
X134454798Y-104143699D01*
X134550036Y-104308656D01*
X134630647Y-104372087D01*
X134687448Y-104394279D01*
X134777240Y-104397423D01*
X135383687Y-104762106D02*
X135431306Y-104844584D01*
X135445933Y-104946110D01*
X135436752Y-105006397D01*
X135394578Y-105085732D01*
X135286422Y-105203162D01*
X135121465Y-105298400D01*
X134965689Y-105333351D01*
X134875897Y-105330207D01*
X134819096Y-105308015D01*
X134738486Y-105244584D01*
X134690866Y-105162106D01*
X134676239Y-105060579D01*
X134685421Y-105000292D01*
X134727594Y-104920958D01*
X134835750Y-104803528D01*
X135000708Y-104708290D01*
X135156483Y-104673339D01*
X135246275Y-104676483D01*
X135303076Y-104698675D01*
X135383687Y-104762106D01*
X132847529Y-96133816D02*
X131706567Y-96199604D01*
X163869204Y-80491680D02*
X163522077Y-80165705D01*
X163226584Y-80410810D01*
X163287375Y-80415637D01*
X163382878Y-80453062D01*
X163556442Y-80616049D01*
X163599790Y-80709014D01*
X163608425Y-80769382D01*
X163590981Y-80857520D01*
X163460591Y-80996371D01*
X163373723Y-81019314D01*
X163312932Y-81014487D01*
X163217428Y-80977062D01*
X163043864Y-80814075D01*
X163000517Y-80721109D01*
X162991882Y-80660742D01*
X164355184Y-80948044D02*
X164424609Y-81013239D01*
X164467957Y-81106204D01*
X164476592Y-81166572D01*
X164459148Y-81254710D01*
X164389549Y-81398389D01*
X164259159Y-81537240D01*
X164120135Y-81615723D01*
X164033266Y-81638666D01*
X163972475Y-81633839D01*
X163876971Y-81596414D01*
X163807546Y-81531219D01*
X163764198Y-81438254D01*
X163755563Y-81377886D01*
X163773007Y-81289748D01*
X163842606Y-81146070D01*
X163972996Y-81007219D01*
X164112020Y-80928735D01*
X164198889Y-80905792D01*
X164259680Y-80910620D01*
X164355184Y-80948044D01*
X165049439Y-81599994D02*
X165118865Y-81665189D01*
X165162213Y-81758154D01*
X165170847Y-81818522D01*
X165153404Y-81906660D01*
X165083805Y-82050338D01*
X164953415Y-82189189D01*
X164814390Y-82267673D01*
X164727522Y-82290616D01*
X164666731Y-82285789D01*
X164571227Y-82248364D01*
X164501802Y-82183169D01*
X164458454Y-82090204D01*
X164449819Y-82029836D01*
X164467262Y-81941698D01*
X164536862Y-81798020D01*
X164667252Y-81659168D01*
X164806276Y-81580685D01*
X164893145Y-81557742D01*
X164953936Y-81562569D01*
X165049439Y-81599994D01*
X134153211Y-88234449D02*
X133092827Y-87808177D01*
X169017146Y-99090313D02*
X170131425Y-99344289D01*
X150854285Y-75771904D02*
X150663809Y-75771904D01*
X150568571Y-75810000D01*
X150520952Y-75848095D01*
X150425714Y-75962380D01*
X150378095Y-76114761D01*
X150378095Y-76419523D01*
X150425714Y-76495714D01*
X150473333Y-76533809D01*
X150568571Y-76571904D01*
X150759047Y-76571904D01*
X150854285Y-76533809D01*
X150901904Y-76495714D01*
X150949523Y-76419523D01*
X150949523Y-76229047D01*
X150901904Y-76152857D01*
X150854285Y-76114761D01*
X150759047Y-76076666D01*
X150568571Y-76076666D01*
X150473333Y-76114761D01*
X150425714Y-76152857D01*
X150378095Y-76229047D01*
X151568571Y-75771904D02*
X151663809Y-75771904D01*
X151759047Y-75810000D01*
X151806666Y-75848095D01*
X151854285Y-75924285D01*
X151901904Y-76076666D01*
X151901904Y-76267142D01*
X151854285Y-76419523D01*
X151806666Y-76495714D01*
X151759047Y-76533809D01*
X151663809Y-76571904D01*
X151568571Y-76571904D01*
X151473333Y-76533809D01*
X151425714Y-76495714D01*
X151378095Y-76419523D01*
X151330476Y-76267142D01*
X151330476Y-76076666D01*
X151378095Y-75924285D01*
X151425714Y-75848095D01*
X151473333Y-75810000D01*
X151568571Y-75771904D01*
X158906654Y-112825519D02*
X158391926Y-113073684D01*
X158649290Y-112949602D02*
X158301860Y-112228982D01*
X158265705Y-112373289D01*
X158213005Y-112483280D01*
X158143762Y-112558956D01*
X159447126Y-111972860D02*
X159678746Y-112453272D01*
X159100302Y-111801740D02*
X159133996Y-112419870D01*
X159691618Y-112151025D01*
X159974726Y-111422447D02*
X160060514Y-111381087D01*
X160162846Y-111374041D01*
X160222285Y-111387676D01*
X160298267Y-111435626D01*
X160407338Y-111552206D01*
X160490060Y-111723782D01*
X160513343Y-111881724D01*
X160503538Y-111971034D01*
X160477188Y-112026030D01*
X160407944Y-112101706D01*
X160322156Y-112143067D01*
X160219824Y-112150112D01*
X160160386Y-112136477D01*
X160084403Y-112088527D01*
X159975332Y-111971947D01*
X159892610Y-111800371D01*
X159869327Y-111642430D01*
X159879133Y-111553119D01*
X159905482Y-111498123D01*
X159974726Y-111422447D01*
X169277792Y-97640781D02*
X170409078Y-97802996D01*
X132154761Y-95661428D02*
X132116666Y-95756666D01*
X132078571Y-95804285D01*
X132002380Y-95851904D01*
X131964285Y-95851904D01*
X131888095Y-95804285D01*
X131850000Y-95756666D01*
X131811904Y-95661428D01*
X131811904Y-95470952D01*
X131850000Y-95375714D01*
X131888095Y-95328095D01*
X131964285Y-95280476D01*
X132002380Y-95280476D01*
X132078571Y-95328095D01*
X132116666Y-95375714D01*
X132154761Y-95470952D01*
X132154761Y-95661428D01*
X132192857Y-95756666D01*
X132230952Y-95804285D01*
X132307142Y-95851904D01*
X132459523Y-95851904D01*
X132535714Y-95804285D01*
X132573809Y-95756666D01*
X132611904Y-95661428D01*
X132611904Y-95470952D01*
X132573809Y-95375714D01*
X132535714Y-95328095D01*
X132459523Y-95280476D01*
X132307142Y-95280476D01*
X132230952Y-95328095D01*
X132192857Y-95375714D01*
X132154761Y-95470952D01*
X131811904Y-94661428D02*
X131811904Y-94566190D01*
X131850000Y-94470952D01*
X131888095Y-94423333D01*
X131964285Y-94375714D01*
X132116666Y-94328095D01*
X132307142Y-94328095D01*
X132459523Y-94375714D01*
X132535714Y-94423333D01*
X132573809Y-94470952D01*
X132611904Y-94566190D01*
X132611904Y-94661428D01*
X132573809Y-94756666D01*
X132535714Y-94804285D01*
X132459523Y-94851904D01*
X132307142Y-94899523D01*
X132116666Y-94899523D01*
X131964285Y-94851904D01*
X131888095Y-94804285D01*
X131850000Y-94756666D01*
X131811904Y-94661428D01*
X150463333Y-114421904D02*
X149891904Y-114421904D01*
X150177619Y-114421904D02*
X150177619Y-113621904D01*
X150082380Y-113736190D01*
X149987142Y-113812380D01*
X149891904Y-113850476D01*
X150844285Y-113698095D02*
X150891904Y-113660000D01*
X150987142Y-113621904D01*
X151225238Y-113621904D01*
X151320476Y-113660000D01*
X151368095Y-113698095D01*
X151415714Y-113774285D01*
X151415714Y-113850476D01*
X151368095Y-113964761D01*
X150796666Y-114421904D01*
X151415714Y-114421904D01*
X152034761Y-113621904D02*
X152130000Y-113621904D01*
X152225238Y-113660000D01*
X152272857Y-113698095D01*
X152320476Y-113774285D01*
X152368095Y-113926666D01*
X152368095Y-114117142D01*
X152320476Y-114269523D01*
X152272857Y-114345714D01*
X152225238Y-114383809D01*
X152130000Y-114421904D01*
X152034761Y-114421904D01*
X151939523Y-114383809D01*
X151891904Y-114345714D01*
X151844285Y-114269523D01*
X151796666Y-114117142D01*
X151796666Y-113926666D01*
X151844285Y-113774285D01*
X151891904Y-113698095D01*
X151939523Y-113660000D01*
X152034761Y-113621904D01*
X170361904Y-93751904D02*
X170400000Y-93799523D01*
X170438095Y-93894761D01*
X170438095Y-94132857D01*
X170400000Y-94228095D01*
X170361904Y-94275714D01*
X170285714Y-94323333D01*
X170209523Y-94323333D01*
X170095238Y-94275714D01*
X169638095Y-93704285D01*
X169638095Y-94323333D01*
X170171428Y-95180476D02*
X169638095Y-95180476D01*
X170476190Y-94942380D02*
X169904761Y-94704285D01*
X169904761Y-95323333D01*
X170438095Y-95894761D02*
X170438095Y-95990000D01*
X170400000Y-96085238D01*
X170361904Y-96132857D01*
X170285714Y-96180476D01*
X170133333Y-96228095D01*
X169942857Y-96228095D01*
X169790476Y-96180476D01*
X169714285Y-96132857D01*
X169676190Y-96085238D01*
X169638095Y-95990000D01*
X169638095Y-95894761D01*
X169676190Y-95799523D01*
X169714285Y-95751904D01*
X169790476Y-95704285D01*
X169942857Y-95656666D01*
X170133333Y-95656666D01*
X170285714Y-95704285D01*
X170361904Y-95751904D01*
X170400000Y-95799523D01*
X170438095Y-95894761D01*
X143163573Y-111584085D02*
X142666166Y-112613021D01*
X135979879Y-84803309D02*
X135034644Y-84160928D01*
X139306720Y-109080750D02*
X138567228Y-109952113D01*
X167914440Y-102447347D02*
X168960912Y-102906715D01*
D13*
X161236396Y-79508278D02*
X161086515Y-79127048D01*
X160757156Y-79197055D02*
X161029475Y-78777720D01*
X161348969Y-78985201D01*
X161415874Y-79057040D01*
X161442843Y-79102944D01*
X161456845Y-79168816D01*
X161417942Y-79228721D01*
X161352070Y-79242722D01*
X161299166Y-79236755D01*
X161206325Y-79204853D01*
X160886831Y-78997372D01*
D12*
X134645914Y-87123573D02*
X133616978Y-86626166D01*
X149225703Y-76875128D02*
X149106242Y-75738531D01*
X138853036Y-81514910D02*
X138083879Y-80669618D01*
X167005641Y-104255714D02*
X167995384Y-104827142D01*
X133369633Y-90663129D02*
X132261208Y-90384712D01*
D13*
X156933678Y-77168677D02*
X156860103Y-77395119D01*
X156697592Y-76816586D02*
X156933678Y-77168677D01*
X157331630Y-77022597D01*
D12*
X134481519Y-102718337D02*
X133442392Y-103194087D01*
X141943831Y-78154128D02*
X141775030Y-78242375D01*
X141708279Y-78320259D01*
X141683728Y-78376081D01*
X141652276Y-78521484D01*
X141680673Y-78678587D01*
X141821868Y-78948668D01*
X141899367Y-78994126D01*
X141959217Y-79005825D01*
X142061266Y-78995461D01*
X142230067Y-78907215D01*
X142296818Y-78829331D01*
X142321369Y-78773509D01*
X142328270Y-78683927D01*
X142240024Y-78515126D01*
X142162525Y-78469668D01*
X142102675Y-78457969D01*
X142000625Y-78468333D01*
X141831825Y-78556580D01*
X141765074Y-78634463D01*
X141740523Y-78690285D01*
X141733621Y-78779867D01*
X142830034Y-77690832D02*
X142408033Y-77911449D01*
X142542326Y-78271112D01*
X142566877Y-78215291D01*
X142633628Y-78137407D01*
X142844629Y-78027098D01*
X142946678Y-78016735D01*
X143006528Y-78028434D01*
X143084027Y-78073892D01*
X143172274Y-78242693D01*
X143165372Y-78332275D01*
X143140822Y-78388097D01*
X143074071Y-78465980D01*
X142863070Y-78576289D01*
X142761020Y-78586652D01*
X142701170Y-78574954D01*
X135533833Y-83742296D02*
X135947932Y-83219834D01*
X136308680Y-84052621D01*
X136302873Y-82772009D02*
X136362030Y-82697372D01*
X136451042Y-82646397D01*
X136510476Y-82632741D01*
X136599764Y-82642748D01*
X136748762Y-82700080D01*
X136898037Y-82818394D01*
X136987879Y-82950364D01*
X137018010Y-83035008D01*
X137018287Y-83095989D01*
X136988985Y-83194290D01*
X136929828Y-83268927D01*
X136840816Y-83319902D01*
X136781383Y-83333558D01*
X136692094Y-83323551D01*
X136543096Y-83266219D01*
X136393821Y-83147905D01*
X136303979Y-83015935D01*
X136273848Y-82931291D01*
X136273571Y-82870309D01*
X136302873Y-82772009D01*
X165951475Y-84339465D02*
X166876065Y-83667710D01*
X164752880Y-82850596D02*
X165602188Y-82085875D01*
X169326060Y-92916168D02*
X170460495Y-92777680D01*
X147504241Y-77146170D02*
X147278347Y-76025860D01*
X133282707Y-99159671D02*
X132168694Y-99414814D01*
X136204265Y-105708568D02*
X135269237Y-106365716D01*
X165773331Y-106114744D02*
X166676365Y-106815209D01*
X141213196Y-79697777D02*
X140595779Y-78736051D01*
D13*
X160172280Y-78521927D02*
X160460955Y-78688594D01*
X160453720Y-78986839D02*
X160041327Y-78748743D01*
X160291327Y-78315731D01*
X160703720Y-78553826D01*
D11*
X163915714Y-115622380D02*
X163915714Y-114622380D01*
X164249047Y-115336666D01*
X164582380Y-114622380D01*
X164582380Y-115622380D01*
X165058571Y-115622380D02*
X165058571Y-114622380D01*
X165153809Y-115241428D02*
X165439523Y-115622380D01*
X165439523Y-114955714D02*
X165058571Y-115336666D01*
X166010952Y-115050952D02*
X165915714Y-115003333D01*
X165868095Y-114955714D01*
X165820476Y-114860476D01*
X165820476Y-114812857D01*
X165868095Y-114717619D01*
X165915714Y-114670000D01*
X166010952Y-114622380D01*
X166201428Y-114622380D01*
X166296666Y-114670000D01*
X166344285Y-114717619D01*
X166391904Y-114812857D01*
X166391904Y-114860476D01*
X166344285Y-114955714D01*
X166296666Y-115003333D01*
X166201428Y-115050952D01*
X166010952Y-115050952D01*
X165915714Y-115098571D01*
X165868095Y-115146190D01*
X165820476Y-115241428D01*
X165820476Y-115431904D01*
X165868095Y-115527142D01*
X165915714Y-115574761D01*
X166010952Y-115622380D01*
X166201428Y-115622380D01*
X166296666Y-115574761D01*
X166344285Y-115527142D01*
X166391904Y-115431904D01*
X166391904Y-115241428D01*
X166344285Y-115146190D01*
X166296666Y-115098571D01*
X166201428Y-115050952D01*
D12*
X168413215Y-102045663D02*
X168391700Y-101988603D01*
X168384899Y-101886254D01*
X168458474Y-101659812D01*
X168524135Y-101581007D01*
X168575081Y-101547491D01*
X168662258Y-101525747D01*
X168734719Y-101549291D01*
X168828696Y-101629895D01*
X169086884Y-102314621D01*
X169278180Y-101725872D01*
X168708631Y-100889909D02*
X168738061Y-100799332D01*
X168803722Y-100720527D01*
X168854668Y-100687011D01*
X168941845Y-100665267D01*
X169101483Y-100667067D01*
X169282636Y-100725927D01*
X169412844Y-100818304D01*
X169470590Y-100887136D01*
X169492106Y-100944197D01*
X169498906Y-101046546D01*
X169469476Y-101137123D01*
X169403815Y-101215927D01*
X169352870Y-101249444D01*
X169265693Y-101271188D01*
X169106055Y-101269388D01*
X168924901Y-101210528D01*
X168794694Y-101118151D01*
X168736947Y-101049318D01*
X168715432Y-100992258D01*
X168708631Y-100889909D01*
X169002933Y-99984141D02*
X169032363Y-99893564D01*
X169098024Y-99814759D01*
X169148970Y-99781243D01*
X169236146Y-99759499D01*
X169395784Y-99761299D01*
X169576938Y-99820159D01*
X169707146Y-99912536D01*
X169764892Y-99981368D01*
X169786408Y-100038429D01*
X169793208Y-100140778D01*
X169763778Y-100231355D01*
X169698117Y-100310159D01*
X169647171Y-100343676D01*
X169559995Y-100365420D01*
X169400357Y-100363620D01*
X169219203Y-100304760D01*
X169088995Y-100212383D01*
X169031249Y-100143550D01*
X169009734Y-100086490D01*
X169002933Y-99984141D01*
X167336505Y-86547901D02*
X168342859Y-86006262D01*
X139267933Y-110380930D02*
X138805637Y-110045052D01*
X139036785Y-110212991D02*
X139507013Y-109565778D01*
X139362788Y-109602257D01*
X139240955Y-109607917D01*
X139141514Y-109582757D01*
X140238981Y-110097583D02*
X140316030Y-110153563D01*
X140370687Y-110240362D01*
X140386820Y-110299171D01*
X140380561Y-110388801D01*
X140329519Y-110540069D01*
X140217559Y-110694168D01*
X140089468Y-110789457D01*
X140006159Y-110823106D01*
X139945243Y-110825936D01*
X139845802Y-110800776D01*
X139768753Y-110744797D01*
X139714095Y-110657998D01*
X139697962Y-110599188D01*
X139704221Y-110509559D01*
X139755264Y-110358290D01*
X139867223Y-110204192D01*
X139995315Y-110108903D01*
X140078623Y-110075253D01*
X140139540Y-110072423D01*
X140238981Y-110097583D01*
X141009473Y-110657379D02*
X141086522Y-110713358D01*
X141141180Y-110800158D01*
X141157313Y-110858967D01*
X141151054Y-110948596D01*
X141100011Y-111099865D01*
X140988052Y-111253963D01*
X140859960Y-111349252D01*
X140776652Y-111382902D01*
X140715735Y-111385732D01*
X140616294Y-111360572D01*
X140539245Y-111304592D01*
X140484588Y-111217793D01*
X140468455Y-111158984D01*
X140474714Y-111069354D01*
X140525756Y-110918086D01*
X140637716Y-110763987D01*
X140765807Y-110668698D01*
X140849116Y-110635049D01*
X140910032Y-110632219D01*
X141009473Y-110657379D01*
%TO.C,G\u002A\u002A\u002A*%
G36*
X135817362Y-115546682D02*
G01*
X135817482Y-115529816D01*
X135817788Y-115509138D01*
X135818453Y-115494918D01*
X135819776Y-115485448D01*
X135822056Y-115479024D01*
X135825595Y-115473938D01*
X135827710Y-115471598D01*
X135833929Y-115463732D01*
X135834440Y-115458224D01*
X135832444Y-115455102D01*
X135829453Y-115447304D01*
X135831376Y-115435595D01*
X135835766Y-115418491D01*
X135840295Y-115397162D01*
X135844187Y-115375494D01*
X135846271Y-115360947D01*
X135850071Y-115332167D01*
X135853669Y-115310984D01*
X135857027Y-115297617D01*
X135858804Y-115293600D01*
X135861344Y-115286390D01*
X135863891Y-115274066D01*
X135865445Y-115262988D01*
X135867891Y-115245436D01*
X135871112Y-115227566D01*
X135872997Y-115219062D01*
X135875553Y-115205997D01*
X135874932Y-115196134D01*
X135870685Y-115184978D01*
X135869295Y-115182059D01*
X135864192Y-115170115D01*
X135861157Y-115160295D01*
X135860789Y-115157509D01*
X135863573Y-115150365D01*
X135870910Y-115139708D01*
X135881282Y-115127478D01*
X135893170Y-115115620D01*
X135894468Y-115114454D01*
X135900132Y-115107380D01*
X135901612Y-115102897D01*
X135904754Y-115098079D01*
X135906715Y-115097672D01*
X135910935Y-115094324D01*
X135917087Y-115085866D01*
X135923814Y-115074658D01*
X135929761Y-115063064D01*
X135933572Y-115053446D01*
X135934271Y-115049658D01*
X135936877Y-115044963D01*
X135938353Y-115044621D01*
X135941910Y-115041288D01*
X135942435Y-115038095D01*
X135944103Y-115030672D01*
X135948141Y-115019698D01*
X135953104Y-115008617D01*
X135957546Y-115000873D01*
X135958552Y-114999723D01*
X135964487Y-114991288D01*
X135969341Y-114979717D01*
X135971011Y-114971004D01*
X135972870Y-114961291D01*
X135976916Y-114951166D01*
X135980421Y-114939962D01*
X135980355Y-114930322D01*
X135979644Y-114923767D01*
X135982615Y-114923815D01*
X135986629Y-114923327D01*
X135987536Y-114919351D01*
X135989535Y-114911045D01*
X135994216Y-114899963D01*
X135995396Y-114897682D01*
X136007150Y-114875089D01*
X136014900Y-114858483D01*
X136019034Y-114846968D01*
X136019999Y-114840828D01*
X136021724Y-114832976D01*
X136026229Y-114820673D01*
X136031971Y-114807793D01*
X136038940Y-114790727D01*
X136044455Y-114772412D01*
X136046730Y-114760789D01*
X136048889Y-114748560D01*
X136051528Y-114740464D01*
X136053340Y-114738498D01*
X136057213Y-114735069D01*
X136061242Y-114726799D01*
X136061319Y-114726580D01*
X136066137Y-114717356D01*
X136071594Y-114712315D01*
X136075767Y-114707342D01*
X136074932Y-114700763D01*
X136073620Y-114694665D01*
X136075939Y-114695241D01*
X136077508Y-114696661D01*
X136085168Y-114700254D01*
X136096108Y-114701763D01*
X136096190Y-114701763D01*
X136108936Y-114705450D01*
X136119021Y-114715597D01*
X136126097Y-114730838D01*
X136129817Y-114749803D01*
X136129833Y-114771126D01*
X136125796Y-114793439D01*
X136122255Y-114804261D01*
X136117531Y-114818805D01*
X136114470Y-114832282D01*
X136113831Y-114838498D01*
X136112168Y-114851038D01*
X136107967Y-114859216D01*
X136103241Y-114861218D01*
X136100623Y-114864525D01*
X136098722Y-114873244D01*
X136098482Y-114875708D01*
X136096127Y-114886370D01*
X136090754Y-114902153D01*
X136083199Y-114920978D01*
X136074297Y-114940769D01*
X136064883Y-114959448D01*
X136064654Y-114959871D01*
X136061580Y-114969627D01*
X136060821Y-114977026D01*
X136059074Y-114988621D01*
X136056033Y-114997600D01*
X136053262Y-115007648D01*
X136056571Y-115012260D01*
X136065941Y-115011427D01*
X136078168Y-115006662D01*
X136089100Y-115000876D01*
X136096132Y-114995768D01*
X136097559Y-114993562D01*
X136100738Y-114988506D01*
X136108057Y-114982553D01*
X136116195Y-114978121D01*
X136120015Y-114977200D01*
X136127429Y-114975513D01*
X136137022Y-114971689D01*
X136145715Y-114967174D01*
X136150433Y-114963415D01*
X136150632Y-114962809D01*
X136154112Y-114959570D01*
X136162755Y-114955598D01*
X136165588Y-114954604D01*
X136177538Y-114949191D01*
X136191614Y-114940789D01*
X136199267Y-114935373D01*
X136211548Y-114926642D01*
X136222886Y-114919644D01*
X136228195Y-114917009D01*
X136250558Y-114907277D01*
X136265345Y-114898882D01*
X136272311Y-114892580D01*
X136279296Y-114886763D01*
X136283913Y-114885437D01*
X136292043Y-114882636D01*
X136303778Y-114875102D01*
X136317223Y-114864140D01*
X136323890Y-114857886D01*
X136333325Y-114851325D01*
X136342375Y-114848702D01*
X136350907Y-114846480D01*
X136362629Y-114840803D01*
X136369667Y-114836457D01*
X136380389Y-114829596D01*
X136388395Y-114825153D01*
X136391017Y-114824212D01*
X136395536Y-114821432D01*
X136402794Y-114814521D01*
X136404944Y-114812178D01*
X136415973Y-114803241D01*
X136429862Y-114796181D01*
X136433174Y-114795077D01*
X136451072Y-114787805D01*
X136469571Y-114775702D01*
X136482318Y-114765178D01*
X136491531Y-114760086D01*
X136497626Y-114758906D01*
X136504257Y-114757017D01*
X136505791Y-114754388D01*
X136508773Y-114751691D01*
X136512069Y-114752278D01*
X136518671Y-114751394D01*
X136520670Y-114748633D01*
X136525395Y-114743260D01*
X136527917Y-114742580D01*
X136533586Y-114739831D01*
X136541848Y-114732951D01*
X136544829Y-114729961D01*
X136555554Y-114720553D01*
X136568596Y-114711657D01*
X136581289Y-114704875D01*
X136590964Y-114701806D01*
X136591830Y-114701763D01*
X136597464Y-114699495D01*
X136607176Y-114693624D01*
X136616013Y-114687478D01*
X136627935Y-114679692D01*
X136638399Y-114674503D01*
X136643558Y-114673192D01*
X136651949Y-114670434D01*
X136661082Y-114663768D01*
X136661382Y-114663473D01*
X136670588Y-114656195D01*
X136679188Y-114652212D01*
X136679288Y-114652192D01*
X136685563Y-114649273D01*
X136686679Y-114646606D01*
X136688675Y-114641084D01*
X136694562Y-114633368D01*
X136694707Y-114633213D01*
X136700486Y-114625245D01*
X136700158Y-114618765D01*
X136699119Y-114616886D01*
X136696645Y-114614332D01*
X136692143Y-114612464D01*
X136684441Y-114611165D01*
X136672364Y-114610322D01*
X136654740Y-114609820D01*
X136630394Y-114609543D01*
X136623733Y-114609499D01*
X136590634Y-114609778D01*
X136558570Y-114610930D01*
X136530015Y-114612835D01*
X136509873Y-114615023D01*
X136453180Y-114622135D01*
X136395811Y-114627714D01*
X136346582Y-114631357D01*
X136327575Y-114632806D01*
X136311464Y-114634426D01*
X136300059Y-114636011D01*
X136295311Y-114637237D01*
X136288948Y-114639296D01*
X136277644Y-114641350D01*
X136270817Y-114642208D01*
X136257505Y-114643848D01*
X136239314Y-114646380D01*
X136219419Y-114649353D01*
X136211866Y-114650538D01*
X136191974Y-114653344D01*
X136172326Y-114655503D01*
X136156194Y-114656676D01*
X136151652Y-114656792D01*
X136138914Y-114657285D01*
X136132424Y-114659088D01*
X136130293Y-114662858D01*
X136130220Y-114664249D01*
X136128183Y-114675091D01*
X136121431Y-114680977D01*
X136109006Y-114682384D01*
X136096635Y-114680996D01*
X136074237Y-114677635D01*
X136057989Y-114675977D01*
X136046078Y-114675923D01*
X136036692Y-114677373D01*
X136035614Y-114677653D01*
X136026775Y-114678996D01*
X136022132Y-114678046D01*
X136016620Y-114676129D01*
X136006852Y-114675043D01*
X136006505Y-114675030D01*
X135993173Y-114671128D01*
X135979959Y-114661863D01*
X135969628Y-114649595D01*
X135965458Y-114639953D01*
X135964598Y-114634869D01*
X135965412Y-114630938D01*
X135968904Y-114627853D01*
X135976079Y-114625304D01*
X135987941Y-114622985D01*
X136005496Y-114620588D01*
X136029747Y-114617804D01*
X136042148Y-114616448D01*
X136059429Y-114614774D01*
X136073458Y-114613801D01*
X136082407Y-114613633D01*
X136084637Y-114614010D01*
X136088974Y-114613641D01*
X136091208Y-114612159D01*
X136097147Y-114610363D01*
X136109106Y-114608811D01*
X136124942Y-114607745D01*
X136132406Y-114607497D01*
X136149813Y-114606647D01*
X136164817Y-114605103D01*
X136175010Y-114603142D01*
X136177167Y-114602322D01*
X136184622Y-114600169D01*
X136198014Y-114597910D01*
X136215128Y-114595879D01*
X136226154Y-114594919D01*
X136244601Y-114593459D01*
X136268676Y-114591449D01*
X136295879Y-114589104D01*
X136323710Y-114586638D01*
X136338417Y-114585304D01*
X136363488Y-114583104D01*
X136387365Y-114581184D01*
X136408179Y-114579681D01*
X136424059Y-114578733D01*
X136431289Y-114578473D01*
X136443266Y-114577648D01*
X136451045Y-114575838D01*
X136452721Y-114574322D01*
X136456514Y-114572602D01*
X136466775Y-114571583D01*
X136481826Y-114571406D01*
X136486400Y-114571518D01*
X136503380Y-114571650D01*
X136518179Y-114571049D01*
X136528126Y-114569841D01*
X136529469Y-114569484D01*
X136538128Y-114567611D01*
X136552132Y-114566069D01*
X136572233Y-114564809D01*
X136599183Y-114563779D01*
X136624177Y-114563131D01*
X136648007Y-114563311D01*
X136672709Y-114564713D01*
X136696525Y-114567114D01*
X136717697Y-114570290D01*
X136734467Y-114574017D01*
X136745075Y-114578070D01*
X136745961Y-114578646D01*
X136755185Y-114584625D01*
X136767865Y-114592146D01*
X136774537Y-114595890D01*
X136788239Y-114605157D01*
X136794535Y-114614064D01*
X136795007Y-114616119D01*
X136794460Y-114630431D01*
X136789971Y-114645580D01*
X136782812Y-114658150D01*
X136777515Y-114663198D01*
X136769386Y-114670373D01*
X136760028Y-114681174D01*
X136756288Y-114686250D01*
X136745876Y-114698073D01*
X136733981Y-114707105D01*
X136730353Y-114708912D01*
X136719151Y-114714279D01*
X136710616Y-114719625D01*
X136709905Y-114720215D01*
X136702982Y-114724962D01*
X136691581Y-114731520D01*
X136682267Y-114736391D01*
X136671168Y-114742628D01*
X136664192Y-114747873D01*
X136662825Y-114750526D01*
X136660987Y-114754173D01*
X136653718Y-114758499D01*
X136652995Y-114758806D01*
X136643956Y-114763899D01*
X136639008Y-114769167D01*
X136633817Y-114772775D01*
X136628509Y-114772399D01*
X136621504Y-114772599D01*
X136620095Y-114775835D01*
X136616719Y-114780960D01*
X136608279Y-114786939D01*
X136604786Y-114788749D01*
X136584099Y-114798976D01*
X136565328Y-114808978D01*
X136550222Y-114817778D01*
X136540529Y-114824396D01*
X136539547Y-114825233D01*
X136529991Y-114831216D01*
X136521047Y-114834554D01*
X136511735Y-114838153D01*
X136506759Y-114842015D01*
X136501431Y-114846871D01*
X136492015Y-114853057D01*
X136489462Y-114854505D01*
X136479494Y-114860796D01*
X136472816Y-114866486D01*
X136472067Y-114867489D01*
X136467017Y-114872105D01*
X136457457Y-114878408D01*
X136445680Y-114885153D01*
X136433984Y-114891096D01*
X136424662Y-114894991D01*
X136420110Y-114895670D01*
X136415652Y-114897085D01*
X136408643Y-114902948D01*
X136407698Y-114903930D01*
X136399918Y-114910825D01*
X136393783Y-114913987D01*
X136393449Y-114914008D01*
X136387357Y-114916782D01*
X136381281Y-114922172D01*
X136372177Y-114928428D01*
X136364319Y-114930335D01*
X136356954Y-114931708D01*
X136354746Y-114934118D01*
X136351394Y-114938238D01*
X136343343Y-114943439D01*
X136333603Y-114948109D01*
X136325181Y-114950635D01*
X136323733Y-114950743D01*
X136317560Y-114953786D01*
X136312565Y-114959170D01*
X136305119Y-114965478D01*
X136293390Y-114971359D01*
X136288420Y-114973086D01*
X136275997Y-114978171D01*
X136260245Y-114986461D01*
X136244361Y-114996258D01*
X136242805Y-114997312D01*
X136229770Y-115006014D01*
X136219339Y-115012568D01*
X136213299Y-115015864D01*
X136212629Y-115016052D01*
X136207336Y-115018788D01*
X136199085Y-115025528D01*
X136190144Y-115034083D01*
X136182781Y-115042263D01*
X136179264Y-115047879D01*
X136179208Y-115048318D01*
X136176135Y-115051504D01*
X136171043Y-115050743D01*
X136164583Y-115050262D01*
X136162879Y-115052171D01*
X136159406Y-115055863D01*
X136150590Y-115060674D01*
X136144875Y-115063065D01*
X136130958Y-115070072D01*
X136118346Y-115079107D01*
X136115535Y-115081770D01*
X136103804Y-115090676D01*
X136093341Y-115093600D01*
X136082241Y-115096273D01*
X136073068Y-115101763D01*
X136065568Y-115107547D01*
X136060846Y-115109927D01*
X136056629Y-115112565D01*
X136048655Y-115119380D01*
X136041380Y-115126253D01*
X136031166Y-115135219D01*
X136022368Y-115141149D01*
X136018278Y-115142580D01*
X136012800Y-115145245D01*
X136012633Y-115151501D01*
X136017774Y-115158742D01*
X136018289Y-115159181D01*
X136025625Y-115162409D01*
X136032214Y-115159873D01*
X136038597Y-115157386D01*
X136041960Y-115161140D01*
X136042008Y-115161265D01*
X136044866Y-115164405D01*
X136051450Y-115165871D01*
X136063432Y-115165870D01*
X136074009Y-115165246D01*
X136094507Y-115163825D01*
X136116990Y-115162285D01*
X136132262Y-115161250D01*
X136149721Y-115159362D01*
X136166539Y-115156370D01*
X136177502Y-115153418D01*
X136199387Y-115149481D01*
X136210160Y-115150381D01*
X136223364Y-115151555D01*
X136234976Y-115150700D01*
X136236360Y-115150365D01*
X136247753Y-115148214D01*
X136260929Y-115147072D01*
X136261058Y-115147068D01*
X136271850Y-115145770D01*
X136279013Y-115143136D01*
X136279447Y-115142765D01*
X136285044Y-115140757D01*
X136296710Y-115138689D01*
X136312360Y-115136894D01*
X136320066Y-115136270D01*
X136336846Y-115134773D01*
X136350600Y-115132970D01*
X136359229Y-115131163D01*
X136360870Y-115130437D01*
X136366291Y-115129028D01*
X136378199Y-115127487D01*
X136394918Y-115125986D01*
X136414775Y-115124699D01*
X136418022Y-115124530D01*
X136454126Y-115122676D01*
X136482947Y-115121097D01*
X136505360Y-115119722D01*
X136522238Y-115118477D01*
X136534457Y-115117291D01*
X136542891Y-115116091D01*
X136548413Y-115114806D01*
X136551670Y-115113487D01*
X136561380Y-115111230D01*
X136570468Y-115111827D01*
X136578800Y-115112810D01*
X136593265Y-115113681D01*
X136611827Y-115114344D01*
X136632456Y-115114706D01*
X136632483Y-115114707D01*
X136652999Y-115115181D01*
X136671339Y-115116151D01*
X136685514Y-115117477D01*
X136693534Y-115119017D01*
X136693576Y-115119033D01*
X136705723Y-115122893D01*
X136713861Y-115124830D01*
X136723319Y-115127590D01*
X136728149Y-115130105D01*
X136734903Y-115133293D01*
X136745202Y-115136217D01*
X136756895Y-115140816D01*
X136765531Y-115147230D01*
X136774855Y-115154910D01*
X136785345Y-115160797D01*
X136803319Y-115172093D01*
X136817438Y-115187893D01*
X136825719Y-115205874D01*
X136826384Y-115208876D01*
X136828568Y-115223902D01*
X136829928Y-115239833D01*
X136830420Y-115254620D01*
X136829999Y-115266216D01*
X136828620Y-115272574D01*
X136827796Y-115273192D01*
X136825004Y-115276789D01*
X136822371Y-115285738D01*
X136821795Y-115288891D01*
X136816643Y-115303737D01*
X136807490Y-115317208D01*
X136800656Y-115326309D01*
X136797743Y-115333909D01*
X136797936Y-115335667D01*
X136796544Y-115341289D01*
X136791243Y-115343843D01*
X136784696Y-115347624D01*
X136784659Y-115355166D01*
X136783836Y-115361902D01*
X136780009Y-115373519D01*
X136774035Y-115388211D01*
X136766771Y-115404173D01*
X136759075Y-115419597D01*
X136751804Y-115432680D01*
X136745816Y-115441616D01*
X136742171Y-115444621D01*
X136737683Y-115447938D01*
X136735727Y-115451763D01*
X136731342Y-115459577D01*
X136723104Y-115470968D01*
X136712866Y-115483672D01*
X136702478Y-115495427D01*
X136693792Y-115503968D01*
X136691652Y-115505668D01*
X136679930Y-115515772D01*
X136665411Y-115531421D01*
X136647424Y-115553341D01*
X136646630Y-115554350D01*
X136637708Y-115565045D01*
X136630459Y-115572563D01*
X136626687Y-115575175D01*
X136620926Y-115578299D01*
X136613552Y-115585620D01*
X136607027Y-115594260D01*
X136603812Y-115601342D01*
X136603766Y-115601974D01*
X136600493Y-115607202D01*
X136597642Y-115607886D01*
X136590399Y-115610588D01*
X136583354Y-115616049D01*
X136576342Y-115622017D01*
X136571922Y-115624212D01*
X136567502Y-115626750D01*
X136558821Y-115633453D01*
X136547626Y-115642962D01*
X136545754Y-115644621D01*
X136534296Y-115654450D01*
X136525045Y-115661685D01*
X136519763Y-115664963D01*
X136519411Y-115665029D01*
X136514687Y-115667749D01*
X136507075Y-115674544D01*
X136504411Y-115677274D01*
X136495834Y-115685009D01*
X136488658Y-115689246D01*
X136487218Y-115689519D01*
X136480907Y-115692741D01*
X136477487Y-115697174D01*
X136471940Y-115703369D01*
X136461748Y-115711604D01*
X136451829Y-115718346D01*
X136436370Y-115728779D01*
X136419400Y-115741328D01*
X136409082Y-115749572D01*
X136394151Y-115760802D01*
X136378147Y-115770861D01*
X136363638Y-115778252D01*
X136354746Y-115781253D01*
X136347839Y-115784521D01*
X136340175Y-115790432D01*
X136334994Y-115796298D01*
X136334335Y-115798188D01*
X136330995Y-115803252D01*
X136327191Y-115805251D01*
X136322113Y-115807247D01*
X136315996Y-115810488D01*
X136306940Y-115816083D01*
X136293042Y-115825139D01*
X136292899Y-115825233D01*
X136283069Y-115830335D01*
X136275160Y-115832376D01*
X136268317Y-115834898D01*
X136258270Y-115841361D01*
X136251583Y-115846661D01*
X136241287Y-115854698D01*
X136232911Y-115859880D01*
X136229701Y-115860947D01*
X136223801Y-115862667D01*
X136212753Y-115867232D01*
X136198672Y-115873752D01*
X136194716Y-115875687D01*
X136178492Y-115883640D01*
X136163164Y-115891029D01*
X136151729Y-115896412D01*
X136150632Y-115896913D01*
X136139546Y-115902412D01*
X136131031Y-115907419D01*
X136130220Y-115907999D01*
X136121573Y-115913048D01*
X136108429Y-115919191D01*
X136093373Y-115925396D01*
X136078994Y-115930631D01*
X136067877Y-115933865D01*
X136064003Y-115934417D01*
X136054846Y-115936129D01*
X136043025Y-115940460D01*
X136031011Y-115946198D01*
X136021278Y-115952132D01*
X136016297Y-115957052D01*
X136016084Y-115957886D01*
X136012710Y-115962627D01*
X136010813Y-115962990D01*
X136005066Y-115965017D01*
X135994555Y-115970371D01*
X135981387Y-115977965D01*
X135979176Y-115979314D01*
X135964705Y-115987307D01*
X135951352Y-115993125D01*
X135941801Y-115995617D01*
X135941174Y-115995639D01*
X135933144Y-115996914D01*
X135932627Y-116000366D01*
X135932497Y-116003414D01*
X135926306Y-116002674D01*
X135915481Y-116002313D01*
X135906277Y-116004450D01*
X135891618Y-116009434D01*
X135873661Y-116014535D01*
X135855063Y-116019106D01*
X135838482Y-116022502D01*
X135826578Y-116024077D01*
X135825310Y-116024116D01*
X135815619Y-116025192D01*
X135810160Y-116027658D01*
X135810087Y-116027767D01*
X135805052Y-116030292D01*
X135794758Y-116032679D01*
X135788414Y-116033593D01*
X135773399Y-116035518D01*
X135755086Y-116038099D01*
X135742403Y-116040012D01*
X135709636Y-116044334D01*
X135683921Y-116045979D01*
X135665555Y-116044929D01*
X135662798Y-116044397D01*
X135652885Y-116042217D01*
X135637961Y-116038997D01*
X135621005Y-116035377D01*
X135618476Y-116034841D01*
X135590650Y-116026838D01*
X135567907Y-116016002D01*
X135566170Y-116014903D01*
X135554819Y-116007070D01*
X135549105Y-116001247D01*
X135547571Y-115995398D01*
X135548271Y-115989859D01*
X135553268Y-115976138D01*
X135561694Y-115963559D01*
X135571663Y-115954351D01*
X135581289Y-115950743D01*
X135581360Y-115950743D01*
X135588936Y-115949582D01*
X135591358Y-115947417D01*
X135594835Y-115943372D01*
X135603417Y-115938431D01*
X135614329Y-115933842D01*
X135624796Y-115930849D01*
X135629415Y-115930335D01*
X135642663Y-115927350D01*
X135661112Y-115918497D01*
X135684451Y-115903927D01*
X135685251Y-115903385D01*
X135699804Y-115895238D01*
X135717559Y-115887654D01*
X135728866Y-115883950D01*
X135747135Y-115877618D01*
X135766508Y-115868945D01*
X135776716Y-115863393D01*
X135791496Y-115855621D01*
X135806295Y-115849625D01*
X135815237Y-115847238D01*
X135826853Y-115844083D01*
X135835269Y-115839530D01*
X135836265Y-115838535D01*
X135845237Y-115833267D01*
X135856306Y-115833174D01*
X135864055Y-115837274D01*
X135868771Y-115846512D01*
X135866122Y-115855646D01*
X135857784Y-115862055D01*
X135846680Y-115868478D01*
X135839014Y-115874612D01*
X135828020Y-115880324D01*
X135821144Y-115880191D01*
X135812729Y-115880472D01*
X135806366Y-115886431D01*
X135804194Y-115889970D01*
X135798892Y-115897989D01*
X135794977Y-115901706D01*
X135794765Y-115901738D01*
X135790120Y-115904146D01*
X135782194Y-115910051D01*
X135780477Y-115911470D01*
X135769145Y-115918947D01*
X135754938Y-115925766D01*
X135750645Y-115927359D01*
X135735010Y-115934272D01*
X135727514Y-115941702D01*
X135728148Y-115949661D01*
X135731222Y-115953558D01*
X135740645Y-115958158D01*
X135755566Y-115960129D01*
X135773777Y-115959540D01*
X135793069Y-115956463D01*
X135811071Y-115951031D01*
X135824033Y-115946339D01*
X135834536Y-115943270D01*
X135838749Y-115942580D01*
X135845658Y-115940958D01*
X135857099Y-115936761D01*
X135867295Y-115932376D01*
X135880219Y-115926882D01*
X135890681Y-115923178D01*
X135895369Y-115922172D01*
X135902267Y-115919635D01*
X135903653Y-115918090D01*
X135909241Y-115915010D01*
X135916840Y-115914008D01*
X135927542Y-115911887D01*
X135933949Y-115908328D01*
X135940800Y-115904081D01*
X135952825Y-115898205D01*
X135967539Y-115891904D01*
X135968970Y-115891334D01*
X135983492Y-115885020D01*
X135995216Y-115878889D01*
X136001829Y-115874165D01*
X136002151Y-115873777D01*
X136009005Y-115869489D01*
X136020058Y-115866865D01*
X136022562Y-115866653D01*
X136036727Y-115864285D01*
X136049801Y-115859719D01*
X136050616Y-115859304D01*
X136060235Y-115854853D01*
X136066980Y-115852821D01*
X136067254Y-115852809D01*
X136072808Y-115850057D01*
X136080465Y-115843383D01*
X136081233Y-115842580D01*
X136088961Y-115835642D01*
X136094949Y-115832407D01*
X136095330Y-115832376D01*
X136103160Y-115830545D01*
X136115682Y-115825799D01*
X136130493Y-115819255D01*
X136145186Y-115812031D01*
X136157357Y-115805243D01*
X136164241Y-115800361D01*
X136175706Y-115793602D01*
X136185960Y-115791559D01*
X136196545Y-115789352D01*
X136202871Y-115781547D01*
X136202959Y-115781355D01*
X136210313Y-115772846D01*
X136217661Y-115771151D01*
X136226356Y-115769635D01*
X136230275Y-115767008D01*
X136235440Y-115762534D01*
X136244646Y-115757119D01*
X136245824Y-115756533D01*
X136267149Y-115745581D01*
X136284980Y-115735334D01*
X136297530Y-115726838D01*
X136299815Y-115724950D01*
X136315309Y-115711477D01*
X136325847Y-115702934D01*
X136332363Y-115698602D01*
X136335222Y-115697682D01*
X136341187Y-115695226D01*
X136344690Y-115692580D01*
X136355257Y-115683538D01*
X136362773Y-115678483D01*
X136369348Y-115675763D01*
X136376563Y-115671715D01*
X136386961Y-115663894D01*
X136395064Y-115656897D01*
X136405191Y-115648135D01*
X136413117Y-115642198D01*
X136416485Y-115640539D01*
X136421322Y-115638006D01*
X136429773Y-115631535D01*
X136435533Y-115626544D01*
X136446876Y-115617709D01*
X136457914Y-115611314D01*
X136462080Y-115609775D01*
X136470127Y-115606285D01*
X136473148Y-115602341D01*
X136476134Y-115597730D01*
X136484034Y-115589710D01*
X136495282Y-115579837D01*
X136498060Y-115577563D01*
X136511364Y-115566213D01*
X136523139Y-115555120D01*
X136531017Y-115546527D01*
X136531471Y-115545930D01*
X136538000Y-115538231D01*
X136542819Y-115534486D01*
X136543225Y-115534417D01*
X136547791Y-115531794D01*
X136555853Y-115525104D01*
X136561178Y-115520131D01*
X136570363Y-115511892D01*
X136577465Y-115506730D01*
X136579689Y-115505845D01*
X136583714Y-115502511D01*
X136588957Y-115494237D01*
X136590280Y-115491601D01*
X136596836Y-115481607D01*
X136604253Y-115475301D01*
X136605523Y-115474791D01*
X136615443Y-115470127D01*
X136623053Y-115463774D01*
X136626154Y-115457775D01*
X136625711Y-115456045D01*
X136627114Y-115452226D01*
X136631976Y-115449981D01*
X136639674Y-115444306D01*
X136643073Y-115436990D01*
X136647673Y-115426315D01*
X136655067Y-115416049D01*
X136667566Y-115402527D01*
X136675415Y-115393647D01*
X136679625Y-115388164D01*
X136681206Y-115384837D01*
X136681329Y-115383759D01*
X136684188Y-115378973D01*
X136691284Y-115371731D01*
X136693576Y-115369737D01*
X136701422Y-115362238D01*
X136705608Y-115356485D01*
X136705823Y-115355588D01*
X136708626Y-115350026D01*
X136711902Y-115346699D01*
X136716071Y-115341161D01*
X136716039Y-115338515D01*
X136716952Y-115333489D01*
X136721810Y-115325581D01*
X136722208Y-115325069D01*
X136728135Y-115313503D01*
X136730317Y-115302140D01*
X136731219Y-115293378D01*
X136733403Y-115289527D01*
X136733519Y-115289519D01*
X136737945Y-115285752D01*
X136741962Y-115275710D01*
X136745164Y-115261283D01*
X136747147Y-115244359D01*
X136747505Y-115226827D01*
X136747418Y-115224758D01*
X136746301Y-115208773D01*
X136744576Y-115199221D01*
X136741760Y-115194374D01*
X136738505Y-115192748D01*
X136731261Y-115187671D01*
X136729217Y-115183715D01*
X136724170Y-115178503D01*
X136712923Y-115173206D01*
X136697412Y-115168408D01*
X136679574Y-115164691D01*
X136661345Y-115162640D01*
X136658877Y-115162519D01*
X136649600Y-115162542D01*
X136633678Y-115162997D01*
X136612615Y-115163809D01*
X136587915Y-115164901D01*
X136561080Y-115166197D01*
X136533615Y-115167622D01*
X136507024Y-115169099D01*
X136482809Y-115170551D01*
X136462476Y-115171904D01*
X136447527Y-115173081D01*
X136444557Y-115173364D01*
X136432426Y-115174841D01*
X136416506Y-115177096D01*
X136405775Y-115178758D01*
X136388963Y-115180802D01*
X136368433Y-115182366D01*
X136348627Y-115183111D01*
X136348623Y-115183111D01*
X136328704Y-115184258D01*
X136310111Y-115186892D01*
X136297594Y-115190089D01*
X136284777Y-115194391D01*
X136274013Y-115197524D01*
X136271059Y-115198201D01*
X136262301Y-115199848D01*
X136249351Y-115202280D01*
X136242483Y-115203569D01*
X136225855Y-115205885D01*
X136207023Y-115207379D01*
X136198840Y-115207643D01*
X136185800Y-115208386D01*
X136176387Y-115210053D01*
X136173285Y-115211644D01*
X136168281Y-115213615D01*
X136157576Y-115214992D01*
X136145488Y-115215443D01*
X136131451Y-115215613D01*
X136120619Y-115216013D01*
X136115932Y-115216466D01*
X136111818Y-115217059D01*
X136103734Y-115217696D01*
X136090738Y-115218427D01*
X136071889Y-115219303D01*
X136046245Y-115220373D01*
X136032245Y-115220931D01*
X136014898Y-115221891D01*
X136000463Y-115223198D01*
X135991014Y-115224641D01*
X135988729Y-115225391D01*
X135981027Y-115226693D01*
X135977816Y-115225950D01*
X135971127Y-115227311D01*
X135966646Y-115233080D01*
X135960779Y-115241597D01*
X135956127Y-115245844D01*
X135951751Y-115252141D01*
X135950600Y-115258609D01*
X135948109Y-115268312D01*
X135944476Y-115273192D01*
X135940321Y-115280574D01*
X135938378Y-115291926D01*
X135938353Y-115293333D01*
X135936485Y-115306759D01*
X135931836Y-115321569D01*
X135930188Y-115325289D01*
X135925239Y-115336616D01*
X135922330Y-115345367D01*
X135922008Y-115347485D01*
X135919996Y-115354237D01*
X135915054Y-115364105D01*
X135913844Y-115366148D01*
X135908249Y-115378824D01*
X135905591Y-115391704D01*
X135905561Y-115392678D01*
X135904071Y-115403991D01*
X135900393Y-115418799D01*
X135897304Y-115428294D01*
X135892332Y-115443510D01*
X135888438Y-115458051D01*
X135887086Y-115464868D01*
X135884186Y-115476393D01*
X135880025Y-115484989D01*
X135879796Y-115485276D01*
X135876789Y-115492629D01*
X135874460Y-115505037D01*
X135873554Y-115515585D01*
X135871899Y-115530970D01*
X135868774Y-115542089D01*
X135866648Y-115545468D01*
X135861711Y-115553373D01*
X135860789Y-115557736D01*
X135858016Y-115564480D01*
X135851125Y-115573260D01*
X135848836Y-115575566D01*
X135840358Y-115582714D01*
X135833993Y-115584581D01*
X135826961Y-115582305D01*
X135822738Y-115579993D01*
X135819940Y-115576790D01*
X135818293Y-115571181D01*
X135818126Y-115569110D01*
X135832213Y-115569110D01*
X135834254Y-115571151D01*
X135836296Y-115569110D01*
X135834254Y-115567070D01*
X135832213Y-115569110D01*
X135818126Y-115569110D01*
X135817525Y-115561650D01*
X135817362Y-115546682D01*
G37*
G36*
X138374993Y-114491988D02*
G01*
X138395200Y-114492251D01*
X138410079Y-114492770D01*
X138420577Y-114493594D01*
X138427638Y-114494774D01*
X138432209Y-114496361D01*
X138435234Y-114498405D01*
X138435303Y-114498466D01*
X138444211Y-114503810D01*
X138456662Y-114508370D01*
X138459734Y-114509141D01*
X138474012Y-114514265D01*
X138490296Y-114522892D01*
X138505622Y-114533185D01*
X138517026Y-114543308D01*
X138519198Y-114545981D01*
X138526759Y-114553259D01*
X138531627Y-114555986D01*
X138537681Y-114561720D01*
X138538771Y-114566034D01*
X138541693Y-114574185D01*
X138546935Y-114580408D01*
X138553717Y-114591410D01*
X138555100Y-114601724D01*
X138556012Y-114611183D01*
X138558255Y-114615922D01*
X138558739Y-114616049D01*
X138562375Y-114619481D01*
X138566996Y-114628042D01*
X138568383Y-114631355D01*
X138570656Y-114641671D01*
X138571982Y-114657207D01*
X138572429Y-114676030D01*
X138572065Y-114696206D01*
X138570959Y-114715799D01*
X138569178Y-114732875D01*
X138566791Y-114745500D01*
X138564145Y-114751496D01*
X138560008Y-114759505D01*
X138559182Y-114765078D01*
X138557462Y-114774134D01*
X138553173Y-114786148D01*
X138551545Y-114789772D01*
X138545896Y-114803683D01*
X138540444Y-114820270D01*
X138538526Y-114827274D01*
X138535096Y-114839126D01*
X138531974Y-114846908D01*
X138530445Y-114848702D01*
X138526292Y-114852071D01*
X138520158Y-114860666D01*
X138513305Y-114872224D01*
X138506996Y-114884480D01*
X138502494Y-114895171D01*
X138501028Y-114901461D01*
X138499601Y-114910965D01*
X138497357Y-114915747D01*
X138485604Y-114930135D01*
X138478152Y-114940160D01*
X138473865Y-114947549D01*
X138471604Y-114954025D01*
X138471327Y-114955217D01*
X138467086Y-114965149D01*
X138459459Y-114976522D01*
X138456909Y-114979556D01*
X138449529Y-114988962D01*
X138445282Y-114996582D01*
X138444878Y-114998417D01*
X138442709Y-115003363D01*
X138441291Y-115003804D01*
X138437421Y-115007174D01*
X138432928Y-115015344D01*
X138432677Y-115015938D01*
X138426253Y-115027414D01*
X138417494Y-115038773D01*
X138416903Y-115039407D01*
X138409017Y-115048248D01*
X138402454Y-115057247D01*
X138395716Y-115068740D01*
X138387309Y-115085060D01*
X138386106Y-115087478D01*
X138377358Y-115101843D01*
X138366650Y-115115167D01*
X138361523Y-115120131D01*
X138352861Y-115128439D01*
X138347657Y-115135289D01*
X138346991Y-115137267D01*
X138344354Y-115143292D01*
X138337988Y-115151739D01*
X138336697Y-115153170D01*
X138329926Y-115161800D01*
X138326571Y-115168674D01*
X138326492Y-115169410D01*
X138323577Y-115175584D01*
X138317307Y-115182079D01*
X138309317Y-115190037D01*
X138300074Y-115201265D01*
X138296737Y-115205845D01*
X138288593Y-115217522D01*
X138278014Y-115232687D01*
X138267236Y-115248135D01*
X138266840Y-115248702D01*
X138257587Y-115261176D01*
X138249627Y-115270500D01*
X138244386Y-115275038D01*
X138243688Y-115275233D01*
X138238536Y-115278329D01*
X138231868Y-115285945D01*
X138230720Y-115287587D01*
X138221316Y-115300650D01*
X138208709Y-115317015D01*
X138195120Y-115333884D01*
X138182770Y-115348458D01*
X138179672Y-115351928D01*
X138174169Y-115357808D01*
X138166939Y-115365161D01*
X138157032Y-115374916D01*
X138143502Y-115388003D01*
X138125397Y-115405351D01*
X138115715Y-115414596D01*
X138108711Y-115420021D01*
X138104349Y-115421140D01*
X138104254Y-115421058D01*
X138102477Y-115422568D01*
X138101966Y-115427614D01*
X138099426Y-115434873D01*
X138093801Y-115436457D01*
X138087180Y-115438813D01*
X138085637Y-115442110D01*
X138082511Y-115448220D01*
X138075431Y-115454449D01*
X138068088Y-115461112D01*
X138065225Y-115467164D01*
X138062244Y-115472521D01*
X138059734Y-115473192D01*
X138053073Y-115475990D01*
X138046855Y-115481355D01*
X138039416Y-115487495D01*
X138033975Y-115489519D01*
X138028961Y-115491845D01*
X138028485Y-115493435D01*
X138025496Y-115499073D01*
X138018353Y-115506646D01*
X138009787Y-115513706D01*
X138002531Y-115517804D01*
X138000971Y-115518090D01*
X137996787Y-115519959D01*
X137996730Y-115521151D01*
X137994629Y-115526667D01*
X137987282Y-115535725D01*
X137976087Y-115547117D01*
X137962441Y-115559640D01*
X137947741Y-115572087D01*
X137933383Y-115583254D01*
X137920766Y-115591934D01*
X137911286Y-115596923D01*
X137908057Y-115597658D01*
X137904372Y-115601150D01*
X137902670Y-115606866D01*
X137899824Y-115614075D01*
X137896547Y-115616118D01*
X137891240Y-115618775D01*
X137882220Y-115625626D01*
X137872824Y-115633921D01*
X137860919Y-115643863D01*
X137849439Y-115651458D01*
X137842524Y-115654514D01*
X137832960Y-115659225D01*
X137821917Y-115667840D01*
X137817312Y-115672426D01*
X137807058Y-115681656D01*
X137797623Y-115686904D01*
X137794542Y-115687478D01*
X137787217Y-115689962D01*
X137785588Y-115695641D01*
X137782266Y-115702914D01*
X137776154Y-115705141D01*
X137767843Y-115708448D01*
X137764491Y-115712284D01*
X137759166Y-115716651D01*
X137751616Y-115718090D01*
X137745235Y-115719712D01*
X137736791Y-115725092D01*
X137725314Y-115735003D01*
X137709832Y-115750216D01*
X137705107Y-115755057D01*
X137691637Y-115768694D01*
X137680466Y-115779534D01*
X137672649Y-115786586D01*
X137669245Y-115788860D01*
X137669181Y-115788730D01*
X137667452Y-115788252D01*
X137666119Y-115789872D01*
X137661096Y-115794296D01*
X137651419Y-115800892D01*
X137643729Y-115805566D01*
X137633017Y-115812404D01*
X137625975Y-115818087D01*
X137624338Y-115820519D01*
X137620915Y-115823521D01*
X137616173Y-115824212D01*
X137609383Y-115826949D01*
X137608009Y-115830772D01*
X137605569Y-115835383D01*
X137601578Y-115834863D01*
X137594298Y-115836398D01*
X137583773Y-115845210D01*
X137580278Y-115848956D01*
X137568546Y-115860040D01*
X137559782Y-115863779D01*
X137557957Y-115863568D01*
X137549688Y-115865166D01*
X137545617Y-115869447D01*
X137539943Y-115875673D01*
X137536220Y-115877274D01*
X137530337Y-115879842D01*
X137524313Y-115885638D01*
X137520628Y-115891797D01*
X137520911Y-115894952D01*
X137519713Y-115897030D01*
X137514365Y-115897682D01*
X137505195Y-115900242D01*
X137494645Y-115906537D01*
X137492960Y-115907886D01*
X137483806Y-115914511D01*
X137476551Y-115917953D01*
X137475521Y-115918090D01*
X137468650Y-115920956D01*
X137465129Y-115924212D01*
X137457173Y-115929140D01*
X137450582Y-115930335D01*
X137442065Y-115932018D01*
X137438438Y-115934668D01*
X137432814Y-115939364D01*
X137426028Y-115942701D01*
X137418967Y-115947566D01*
X137418873Y-115953112D01*
X137419435Y-115957495D01*
X137415028Y-115958204D01*
X137408987Y-115957087D01*
X137398565Y-115956407D01*
X137391863Y-115960824D01*
X137391025Y-115961915D01*
X137384121Y-115967631D01*
X137372589Y-115973849D01*
X137365113Y-115976930D01*
X137351733Y-115982205D01*
X137340455Y-115987317D01*
X137336477Y-115989476D01*
X137326699Y-115993845D01*
X137314430Y-115997367D01*
X137314024Y-115997451D01*
X137301708Y-116000793D01*
X137288352Y-116005651D01*
X137276760Y-116010870D01*
X137269737Y-116015296D01*
X137269179Y-116015913D01*
X137264668Y-116017671D01*
X137254165Y-116020419D01*
X137239720Y-116023722D01*
X137223380Y-116027148D01*
X137207194Y-116030262D01*
X137193210Y-116032629D01*
X137185492Y-116033645D01*
X137176151Y-116035876D01*
X137172376Y-116037652D01*
X137165609Y-116039447D01*
X137153617Y-116040668D01*
X137139250Y-116041247D01*
X137125360Y-116041117D01*
X137114796Y-116040210D01*
X137110966Y-116039114D01*
X137106167Y-116039882D01*
X137104402Y-116042603D01*
X137099959Y-116048073D01*
X137095342Y-116047371D01*
X137093640Y-116042080D01*
X137092428Y-116037773D01*
X137087930Y-116040196D01*
X137080920Y-116041213D01*
X137070865Y-116037165D01*
X137059776Y-116029397D01*
X137049664Y-116019254D01*
X137043804Y-116010666D01*
X137037086Y-115993473D01*
X137037237Y-115979288D01*
X137044475Y-115967892D01*
X137059019Y-115959070D01*
X137081087Y-115952602D01*
X137105887Y-115948797D01*
X137120593Y-115946718D01*
X137133445Y-115944160D01*
X137138546Y-115942729D01*
X137155208Y-115937617D01*
X137169478Y-115934537D01*
X137178798Y-115934038D01*
X137178865Y-115934049D01*
X137187525Y-115933631D01*
X137198753Y-115930843D01*
X137209769Y-115926696D01*
X137217793Y-115922203D01*
X137220191Y-115918999D01*
X137222077Y-115915264D01*
X137223582Y-115915621D01*
X137229414Y-115915855D01*
X137240107Y-115913992D01*
X137252863Y-115910767D01*
X137264884Y-115906913D01*
X137273374Y-115903163D01*
X137274781Y-115902196D01*
X137281485Y-115899390D01*
X137293321Y-115896669D01*
X137303127Y-115895203D01*
X137317684Y-115892604D01*
X137325348Y-115889165D01*
X137326331Y-115887240D01*
X137329882Y-115882929D01*
X137338539Y-115879426D01*
X137339598Y-115879185D01*
X137350805Y-115875597D01*
X137358997Y-115870981D01*
X137367538Y-115865187D01*
X137375326Y-115861241D01*
X137385440Y-115856540D01*
X137391648Y-115853230D01*
X137400031Y-115848718D01*
X137407977Y-115844847D01*
X137429226Y-115834258D01*
X137442947Y-115825630D01*
X137449292Y-115819105D01*
X137455596Y-115813751D01*
X137465800Y-115809790D01*
X137466174Y-115809706D01*
X137476889Y-115805891D01*
X137490733Y-115799065D01*
X137500928Y-115793061D01*
X137512734Y-115785857D01*
X137521908Y-115780880D01*
X137526006Y-115779314D01*
X137530397Y-115776068D01*
X137531922Y-115773192D01*
X137537467Y-115768117D01*
X137542405Y-115767070D01*
X137551433Y-115764251D01*
X137557842Y-115759482D01*
X137567474Y-115752712D01*
X137576516Y-115749164D01*
X137586675Y-115743671D01*
X137591477Y-115736990D01*
X137597674Y-115729337D01*
X137610268Y-115720386D01*
X137620929Y-115714527D01*
X137642316Y-115702701D01*
X137658202Y-115691061D01*
X137670976Y-115677703D01*
X137676699Y-115670131D01*
X137683831Y-115661678D01*
X137689864Y-115657122D01*
X137690998Y-115656866D01*
X137696538Y-115653960D01*
X137704138Y-115646764D01*
X137705984Y-115644621D01*
X137713699Y-115636720D01*
X137720078Y-115632563D01*
X137721104Y-115632376D01*
X137726797Y-115629161D01*
X137730478Y-115624212D01*
X137736270Y-115617714D01*
X137740683Y-115616049D01*
X137747062Y-115612812D01*
X137750889Y-115607886D01*
X137756743Y-115601385D01*
X137761238Y-115599723D01*
X137766578Y-115597473D01*
X137767218Y-115595641D01*
X137770429Y-115591826D01*
X137772191Y-115591559D01*
X137778225Y-115588745D01*
X137785458Y-115582184D01*
X137793724Y-115574822D01*
X137805919Y-115566113D01*
X137814164Y-115561013D01*
X137826891Y-115552788D01*
X137837531Y-115544405D01*
X137841826Y-115540018D01*
X137850074Y-115532206D01*
X137857194Y-115528241D01*
X137862858Y-115524918D01*
X137863316Y-115522437D01*
X137865046Y-115518311D01*
X137871360Y-115510884D01*
X137880458Y-115501946D01*
X137890539Y-115493282D01*
X137898524Y-115487478D01*
X137912355Y-115477572D01*
X137927466Y-115465159D01*
X137941506Y-115452321D01*
X137952125Y-115441138D01*
X137954971Y-115437478D01*
X137961786Y-115429027D01*
X137967259Y-115424470D01*
X137968222Y-115424212D01*
X137973903Y-115421704D01*
X137980963Y-115416288D01*
X137997188Y-115401695D01*
X138008734Y-115391672D01*
X138016877Y-115385201D01*
X138022889Y-115381266D01*
X138027710Y-115378982D01*
X138033989Y-115374922D01*
X138034834Y-115371517D01*
X138036418Y-115367104D01*
X138042991Y-115359886D01*
X138048753Y-115354938D01*
X138060661Y-115343620D01*
X138071172Y-115330562D01*
X138073925Y-115326174D01*
X138079905Y-115317058D01*
X138084711Y-115312362D01*
X138086058Y-115312228D01*
X138090727Y-115310866D01*
X138098394Y-115304958D01*
X138107052Y-115296409D01*
X138114693Y-115287123D01*
X138117983Y-115281938D01*
X138123663Y-115275157D01*
X138128202Y-115273192D01*
X138133231Y-115269713D01*
X138136300Y-115262988D01*
X138140287Y-115255326D01*
X138144908Y-115252784D01*
X138149863Y-115249401D01*
X138150953Y-115244896D01*
X138154375Y-115237399D01*
X138159118Y-115234417D01*
X138165732Y-115230140D01*
X138167282Y-115226584D01*
X138169852Y-115220440D01*
X138176248Y-115211630D01*
X138178509Y-115209046D01*
X138190431Y-115195584D01*
X138202005Y-115181829D01*
X138211817Y-115169534D01*
X138218451Y-115160452D01*
X138220352Y-115157194D01*
X138222238Y-115153575D01*
X138225774Y-115148783D01*
X138232179Y-115141344D01*
X138242670Y-115129779D01*
X138245866Y-115126298D01*
X138252980Y-115117558D01*
X138256855Y-115110855D01*
X138257093Y-115109699D01*
X138259835Y-115104889D01*
X138267063Y-115096288D01*
X138277279Y-115085663D01*
X138278500Y-115084468D01*
X138292575Y-115070184D01*
X138302164Y-115058653D01*
X138309067Y-115047423D01*
X138314518Y-115035437D01*
X138319520Y-115027412D01*
X138324772Y-115024212D01*
X138329929Y-115020740D01*
X138332904Y-115014309D01*
X138337976Y-115003626D01*
X138343188Y-114997350D01*
X138349214Y-114989186D01*
X138350985Y-114982907D01*
X138354262Y-114975246D01*
X138359150Y-114971151D01*
X138365688Y-114964480D01*
X138367315Y-114958906D01*
X138370603Y-114950840D01*
X138375479Y-114946661D01*
X138382002Y-114940339D01*
X138383644Y-114935220D01*
X138385841Y-114927616D01*
X138391349Y-114917027D01*
X138393849Y-114913132D01*
X138400125Y-114902641D01*
X138403722Y-114894195D01*
X138404055Y-114892213D01*
X138407334Y-114885625D01*
X138409794Y-114884109D01*
X138414647Y-114878885D01*
X138418278Y-114869408D01*
X138418285Y-114869373D01*
X138423046Y-114858188D01*
X138431234Y-114846745D01*
X138432958Y-114844921D01*
X138441075Y-114834223D01*
X138444819Y-114823900D01*
X138444878Y-114822751D01*
X138446394Y-114810761D01*
X138448900Y-114801921D01*
X138452075Y-114794573D01*
X138456321Y-114787648D01*
X138463151Y-114779016D01*
X138473924Y-114766723D01*
X138483319Y-114750853D01*
X138487196Y-114735820D01*
X138489770Y-114723136D01*
X138493213Y-114713369D01*
X138494653Y-114711018D01*
X138497422Y-114706998D01*
X138499469Y-114701637D01*
X138501089Y-114693318D01*
X138502579Y-114680422D01*
X138504234Y-114661331D01*
X138504624Y-114656472D01*
X138505661Y-114640065D01*
X138505218Y-114628670D01*
X138502720Y-114619186D01*
X138497591Y-114608513D01*
X138494783Y-114603411D01*
X138486942Y-114591274D01*
X138479431Y-114582827D01*
X138474904Y-114580124D01*
X138464599Y-114577508D01*
X138459166Y-114575580D01*
X138443692Y-114569763D01*
X138428766Y-114565381D01*
X138412703Y-114562183D01*
X138393817Y-114559915D01*
X138370424Y-114558325D01*
X138340838Y-114557161D01*
X138335092Y-114556988D01*
X138306507Y-114556382D01*
X138283488Y-114556370D01*
X138266775Y-114556935D01*
X138257108Y-114558060D01*
X138255169Y-114558809D01*
X138247105Y-114560779D01*
X138237691Y-114559196D01*
X138228391Y-114557273D01*
X138223084Y-114557555D01*
X138222967Y-114557652D01*
X138218105Y-114559327D01*
X138207655Y-114561526D01*
X138197146Y-114563266D01*
X138179439Y-114566090D01*
X138161070Y-114569303D01*
X138152994Y-114570834D01*
X138139279Y-114573421D01*
X138120891Y-114576726D01*
X138101217Y-114580143D01*
X138095842Y-114581053D01*
X138076523Y-114584399D01*
X138057626Y-114587831D01*
X138042484Y-114590739D01*
X138039258Y-114591400D01*
X138027085Y-114593410D01*
X138018250Y-114593877D01*
X138015896Y-114593389D01*
X138010581Y-114593827D01*
X138000455Y-114597201D01*
X137990835Y-114601353D01*
X137967758Y-114611917D01*
X137951166Y-114618811D01*
X137940392Y-114622307D01*
X137938674Y-114622658D01*
X137929584Y-114625017D01*
X137916023Y-114629392D01*
X137901074Y-114634702D01*
X137887821Y-114639868D01*
X137881522Y-114642665D01*
X137870715Y-114647274D01*
X137857491Y-114652088D01*
X137855507Y-114652739D01*
X137842583Y-114659445D01*
X137826862Y-114671654D01*
X137815339Y-114682564D01*
X137803277Y-114695239D01*
X137796221Y-114704113D01*
X137793141Y-114710878D01*
X137793007Y-114717231D01*
X137793286Y-114718817D01*
X137793739Y-114726989D01*
X137791610Y-114730335D01*
X137788053Y-114733631D01*
X137787630Y-114736298D01*
X137784847Y-114743282D01*
X137779077Y-114750228D01*
X137772872Y-114759567D01*
X137773229Y-114766714D01*
X137773781Y-114773520D01*
X137771653Y-114775233D01*
X137767689Y-114778722D01*
X137764575Y-114786457D01*
X137760937Y-114796906D01*
X137755032Y-114810154D01*
X137752250Y-114815637D01*
X137746680Y-114827165D01*
X137743250Y-114836248D01*
X137742724Y-114839007D01*
X137740720Y-114845843D01*
X137735777Y-114855757D01*
X137734575Y-114857787D01*
X137729129Y-114869075D01*
X137726463Y-114879222D01*
X137726410Y-114880335D01*
X137724254Y-114887552D01*
X137720704Y-114889519D01*
X137716194Y-114892971D01*
X137714825Y-114898702D01*
X137714162Y-114915339D01*
X137712694Y-114925525D01*
X137709963Y-114930963D01*
X137705508Y-114933358D01*
X137705473Y-114933367D01*
X137699088Y-114938809D01*
X137697819Y-114945152D01*
X137696267Y-114956045D01*
X137694099Y-114962023D01*
X137690573Y-114969984D01*
X137685871Y-114982094D01*
X137683555Y-114988498D01*
X137678974Y-114999589D01*
X137674773Y-115006606D01*
X137672988Y-115007886D01*
X137669643Y-115011187D01*
X137669243Y-115013870D01*
X137667581Y-115021529D01*
X137663537Y-115031632D01*
X137658520Y-115041301D01*
X137653944Y-115047658D01*
X137652158Y-115048702D01*
X137649397Y-115052105D01*
X137648832Y-115056366D01*
X137646014Y-115065335D01*
X137643200Y-115068702D01*
X137638380Y-115075903D01*
X137635072Y-115085860D01*
X137630561Y-115098453D01*
X137624374Y-115108767D01*
X137618631Y-115117586D01*
X137616175Y-115124370D01*
X137616173Y-115124467D01*
X137613220Y-115130492D01*
X137606104Y-115137661D01*
X137605968Y-115137769D01*
X137598721Y-115145955D01*
X137595762Y-115154151D01*
X137594210Y-115161986D01*
X137592182Y-115164718D01*
X137589153Y-115169691D01*
X137585517Y-115179810D01*
X137583791Y-115186031D01*
X137579151Y-115199907D01*
X137573222Y-115212023D01*
X137571042Y-115215223D01*
X137565276Y-115225576D01*
X137563104Y-115234932D01*
X137559853Y-115244631D01*
X137554939Y-115249649D01*
X137548543Y-115255359D01*
X137546775Y-115259261D01*
X137544390Y-115268084D01*
X137538495Y-115279667D01*
X137530975Y-115290647D01*
X137526393Y-115295614D01*
X137520165Y-115305268D01*
X137518199Y-115314449D01*
X137516787Y-115325426D01*
X137513309Y-115336336D01*
X137508897Y-115344314D01*
X137505454Y-115346661D01*
X137502444Y-115350198D01*
X137498933Y-115359023D01*
X137497935Y-115362438D01*
X137492570Y-115375713D01*
X137484325Y-115389723D01*
X137481449Y-115393612D01*
X137474096Y-115404779D01*
X137469731Y-115415107D01*
X137469211Y-115418492D01*
X137466365Y-115428731D01*
X137461770Y-115435278D01*
X137455356Y-115443667D01*
X137448606Y-115455503D01*
X137446993Y-115458906D01*
X137435193Y-115484355D01*
X137425004Y-115504148D01*
X137415221Y-115520294D01*
X137404641Y-115534800D01*
X137393710Y-115547809D01*
X137388122Y-115557280D01*
X137384910Y-115567076D01*
X137380734Y-115576646D01*
X137374832Y-115581510D01*
X137368551Y-115587300D01*
X137367154Y-115595772D01*
X137363699Y-115606230D01*
X137354926Y-115613349D01*
X137343221Y-115616490D01*
X137330972Y-115615013D01*
X137320565Y-115608280D01*
X137320542Y-115608256D01*
X137315829Y-115597724D01*
X137315045Y-115582736D01*
X137318042Y-115565909D01*
X137323701Y-115551644D01*
X137327711Y-115541890D01*
X137328567Y-115534999D01*
X137328281Y-115534269D01*
X137328736Y-115528561D01*
X137333145Y-115519986D01*
X137333770Y-115519083D01*
X137340802Y-115507524D01*
X137347468Y-115494078D01*
X137348132Y-115492522D01*
X137353595Y-115482208D01*
X137359237Y-115475608D01*
X137360541Y-115474856D01*
X137364879Y-115469693D01*
X137368478Y-115459558D01*
X137369282Y-115455525D01*
X137372425Y-115442346D01*
X137376743Y-115431233D01*
X137377752Y-115429458D01*
X137382234Y-115419192D01*
X137383483Y-115411980D01*
X137386052Y-115399099D01*
X137392642Y-115383557D01*
X137401579Y-115368542D01*
X137411185Y-115357240D01*
X137413080Y-115355676D01*
X137418784Y-115347491D01*
X137420224Y-115340583D01*
X137423435Y-115331405D01*
X137428388Y-115328294D01*
X137435020Y-115323123D01*
X137436553Y-115318376D01*
X137438995Y-115311037D01*
X137445198Y-115300681D01*
X137449302Y-115295182D01*
X137460942Y-115277953D01*
X137472762Y-115255815D01*
X137483252Y-115231848D01*
X137490104Y-115211968D01*
X137494429Y-115199717D01*
X137499056Y-115190392D01*
X137500702Y-115188207D01*
X137505273Y-115180316D01*
X137505952Y-115176549D01*
X137508354Y-115169934D01*
X137514491Y-115159922D01*
X137519219Y-115153543D01*
X137532956Y-115134541D01*
X137540820Y-115119714D01*
X137542692Y-115111464D01*
X137545336Y-115105175D01*
X137551961Y-115096245D01*
X137554939Y-115092958D01*
X137562614Y-115082906D01*
X137566877Y-115073397D01*
X137567186Y-115071046D01*
X137569621Y-115061610D01*
X137572951Y-115057163D01*
X137577243Y-115050556D01*
X137581635Y-115039172D01*
X137583490Y-115032482D01*
X137587331Y-115020546D01*
X137591799Y-115012310D01*
X137594054Y-115010364D01*
X137598481Y-115005026D01*
X137599844Y-114997954D01*
X137602759Y-114988289D01*
X137607470Y-114983685D01*
X137613558Y-114977026D01*
X137617694Y-114966603D01*
X137617758Y-114966292D01*
X137620792Y-114955789D01*
X137625797Y-114942655D01*
X137631609Y-114929531D01*
X137637065Y-114919055D01*
X137640794Y-114914008D01*
X137642930Y-114909055D01*
X137645129Y-114898944D01*
X137645908Y-114893743D01*
X137648606Y-114881687D01*
X137652567Y-114872965D01*
X137654188Y-114871208D01*
X137657962Y-114864498D01*
X137660721Y-114852284D01*
X137662281Y-114837183D01*
X137662457Y-114821813D01*
X137661066Y-114808790D01*
X137659026Y-114802406D01*
X137654352Y-114790782D01*
X137651671Y-114780929D01*
X137647811Y-114762300D01*
X137644607Y-114749253D01*
X137641384Y-114739317D01*
X137638254Y-114731759D01*
X137634307Y-114721408D01*
X137632526Y-114713727D01*
X137632518Y-114713392D01*
X137635773Y-114702652D01*
X137644049Y-114690719D01*
X137655188Y-114680289D01*
X137662638Y-114675735D01*
X137671966Y-114670480D01*
X137677077Y-114665987D01*
X137677408Y-114665060D01*
X137680597Y-114660588D01*
X137687079Y-114656068D01*
X137696719Y-114650764D01*
X137709255Y-114643872D01*
X137713614Y-114641476D01*
X137723581Y-114635136D01*
X137729634Y-114629620D01*
X137730478Y-114627774D01*
X137733444Y-114625100D01*
X137736522Y-114625658D01*
X137743234Y-114624521D01*
X137752662Y-114618575D01*
X137755802Y-114615891D01*
X137767942Y-114607407D01*
X137779345Y-114603827D01*
X137780134Y-114603804D01*
X137789287Y-114602350D01*
X137793925Y-114599444D01*
X137799521Y-114596676D01*
X137801947Y-114597128D01*
X137808393Y-114595966D01*
X137814414Y-114591284D01*
X137823210Y-114585175D01*
X137830403Y-114583396D01*
X137838417Y-114581662D01*
X137850960Y-114577113D01*
X137865333Y-114570730D01*
X137865490Y-114570654D01*
X137881399Y-114563765D01*
X137897038Y-114558354D01*
X137908057Y-114555769D01*
X137919229Y-114553124D01*
X137926710Y-114549213D01*
X137927651Y-114548103D01*
X137933950Y-114543730D01*
X137940418Y-114542580D01*
X137950016Y-114540204D01*
X137954789Y-114536715D01*
X137961334Y-114533017D01*
X137973055Y-114529684D01*
X137982845Y-114528048D01*
X137996591Y-114525749D01*
X138007425Y-114522797D01*
X138011623Y-114520763D01*
X138021293Y-114516854D01*
X138038028Y-114514534D01*
X138060862Y-114513929D01*
X138064172Y-114513981D01*
X138077313Y-114513114D01*
X138088292Y-114510524D01*
X138090206Y-114509666D01*
X138098758Y-114507068D01*
X138112334Y-114504956D01*
X138125959Y-114503900D01*
X138145202Y-114502406D01*
X138165765Y-114499744D01*
X138177488Y-114497642D01*
X138191391Y-114495744D01*
X138213120Y-114494217D01*
X138242344Y-114493074D01*
X138278731Y-114492331D01*
X138314815Y-114492023D01*
X138348513Y-114491928D01*
X138374993Y-114491988D01*
G37*
G36*
X137742724Y-114858906D02*
G01*
X137740683Y-114860947D01*
X137738642Y-114858906D01*
X137740683Y-114856866D01*
X137742724Y-114858906D01*
G37*
%TD*%
M02*
