%TF.GenerationSoftware,KiCad,Pcbnew,6.0.7-1.fc35*%
%TF.CreationDate,2022-12-05T16:38:58+01:00*%
%TF.ProjectId,Ring,52696e67-2e6b-4696-9361-645f70636258,rev?*%
%TF.SameCoordinates,Original*%
%TF.FileFunction,Copper,L1,Top*%
%TF.FilePolarity,Positive*%
%FSLAX46Y46*%
G04 Gerber Fmt 4.6, Leading zero omitted, Abs format (unit mm)*
G04 Created by KiCad (PCBNEW 6.0.7-1.fc35) date 2022-12-05 16:38:58*
%MOMM*%
%LPD*%
G01*
G04 APERTURE LIST*
%TA.AperFunction,NonConductor*%
%ADD10C,0.250000*%
%TD*%
%ADD11C,0.200000*%
%TA.AperFunction,NonConductor*%
%ADD12C,0.200000*%
%TD*%
%TA.AperFunction,ViaPad*%
%ADD13C,2.500000*%
%TD*%
G04 APERTURE END LIST*
D10*
X141995551Y-79941350D02*
X142451339Y-80070799D01*
X166754438Y-104115000D02*
X166638650Y-103655551D01*
X133450000Y-94770000D02*
X133780000Y-95110000D01*
X168840000Y-94760000D02*
X168500000Y-95090000D01*
X160155000Y-79485562D02*
X159695551Y-79601350D01*
X133440000Y-95440000D02*
X133780000Y-95110000D01*
X166754438Y-86085000D02*
X166298650Y-85955551D01*
X166638650Y-103655551D02*
X166179201Y-103771339D01*
X142580788Y-79615011D02*
X142451339Y-80070799D01*
X151140000Y-113130000D02*
X151480000Y-112800000D01*
X135641350Y-86544449D02*
X136100799Y-86428661D01*
X135525562Y-104115000D02*
X135981350Y-104244449D01*
X166638650Y-103655551D02*
X166179201Y-103771339D01*
X151140000Y-77070000D02*
X151470000Y-77410000D01*
X166754438Y-86085000D02*
X166624989Y-86540788D01*
X166754438Y-104115000D02*
X166294989Y-104230788D01*
X141995551Y-79941350D02*
X142451339Y-80070799D01*
X151140000Y-113130000D02*
X151480000Y-112800000D01*
X135525562Y-86085000D02*
X135641350Y-86544449D01*
X150800000Y-77400000D02*
X151130000Y-77740000D01*
X160284449Y-110258650D02*
X159828661Y-110129201D01*
X166754438Y-86085000D02*
X166298650Y-85955551D01*
X135525562Y-86085000D02*
X135985011Y-85969212D01*
X166754438Y-104115000D02*
X166638650Y-103655551D01*
X133440000Y-95440000D02*
X133780000Y-95110000D01*
X168840000Y-94760000D02*
X168500000Y-95090000D01*
X160284449Y-110258650D02*
X159828661Y-110129201D01*
X159695551Y-79601350D02*
X159811339Y-80060799D01*
X142009212Y-110254989D02*
X142468661Y-110139201D01*
X169170000Y-95100000D02*
X168840000Y-94760000D01*
X141995551Y-79941350D02*
X142451339Y-80070799D01*
X135981350Y-104244449D02*
X136110799Y-103788661D01*
X135985011Y-85969212D02*
X136100799Y-86428661D01*
X142580788Y-79615011D02*
X142451339Y-80070799D01*
X151140000Y-77070000D02*
X150800000Y-77400000D01*
X166624989Y-86540788D02*
X166169201Y-86411339D01*
X160155000Y-110714438D02*
X160284449Y-110258650D01*
X166298650Y-85955551D02*
X166169201Y-86411339D01*
X142125000Y-79485562D02*
X141995551Y-79941350D01*
X160270788Y-79945011D02*
X159811339Y-80060799D01*
X159699212Y-110584989D02*
X159828661Y-110129201D01*
X151470000Y-77410000D02*
X151130000Y-77740000D01*
X166298650Y-85955551D02*
X166169201Y-86411339D01*
X166294989Y-104230788D02*
X166179201Y-103771339D01*
X151480000Y-112800000D02*
X151150000Y-112460000D01*
X160270788Y-79945011D02*
X159811339Y-80060799D01*
X150810000Y-112790000D02*
X151150000Y-112460000D01*
X166754438Y-104115000D02*
X166638650Y-103655551D01*
X135641350Y-86544449D02*
X136100799Y-86428661D01*
X142125000Y-110714438D02*
X142009212Y-110254989D01*
X160155000Y-79485562D02*
X159695551Y-79601350D01*
X168840000Y-94760000D02*
X168500000Y-95090000D01*
X135525562Y-104115000D02*
X135981350Y-104244449D01*
X159695551Y-79601350D02*
X159811339Y-80060799D01*
X151470000Y-77410000D02*
X151130000Y-77740000D01*
X168830000Y-95430000D02*
X168500000Y-95090000D01*
X142584449Y-110598650D02*
X142468661Y-110139201D01*
X169170000Y-95100000D02*
X168840000Y-94760000D01*
X133450000Y-94770000D02*
X133780000Y-95110000D01*
X150810000Y-112790000D02*
X151150000Y-112460000D01*
X166298650Y-85955551D02*
X166169201Y-86411339D01*
X166638650Y-103655551D02*
X166179201Y-103771339D01*
X159695551Y-79601350D02*
X159811339Y-80060799D01*
X160155000Y-110714438D02*
X160284449Y-110258650D01*
X168830000Y-95430000D02*
X168500000Y-95090000D01*
X142125000Y-110714438D02*
X142584449Y-110598650D01*
X135655011Y-103659212D02*
X136110799Y-103788661D01*
X135981350Y-104244449D02*
X136110799Y-103788661D01*
X160284449Y-110258650D02*
X159828661Y-110129201D01*
X169170000Y-95100000D02*
X168830000Y-95430000D01*
X135655011Y-103659212D02*
X136110799Y-103788661D01*
X142125000Y-110714438D02*
X142584449Y-110598650D01*
X133110000Y-95100000D02*
X133440000Y-95440000D01*
X151140000Y-113130000D02*
X150810000Y-112790000D01*
X166294989Y-104230788D02*
X166179201Y-103771339D01*
X133110000Y-95100000D02*
X133440000Y-95440000D01*
X133110000Y-95100000D02*
X133450000Y-94770000D01*
X151470000Y-77410000D02*
X151130000Y-77740000D01*
X142009212Y-110254989D02*
X142468661Y-110139201D01*
X160155000Y-79485562D02*
X160270788Y-79945011D01*
X133450000Y-94770000D02*
X133780000Y-95110000D01*
X142584449Y-110598650D02*
X142468661Y-110139201D01*
X160270788Y-79945011D02*
X159811339Y-80060799D01*
X135525562Y-104115000D02*
X135655011Y-103659212D01*
X135985011Y-85969212D02*
X136100799Y-86428661D01*
X168830000Y-95430000D02*
X168500000Y-95090000D01*
X151140000Y-77070000D02*
X150800000Y-77400000D01*
X142584449Y-110598650D02*
X142468661Y-110139201D01*
X142580788Y-79615011D02*
X142451339Y-80070799D01*
X135525562Y-104115000D02*
X135981350Y-104244449D01*
X151140000Y-77070000D02*
X150800000Y-77400000D01*
X142009212Y-110254989D02*
X142468661Y-110139201D01*
X151140000Y-113130000D02*
X151480000Y-112800000D01*
X159699212Y-110584989D02*
X159828661Y-110129201D01*
X151480000Y-112800000D02*
X151150000Y-112460000D01*
X135985011Y-85969212D02*
X136100799Y-86428661D01*
X169170000Y-95100000D02*
X168840000Y-94760000D01*
X166754438Y-86085000D02*
X166298650Y-85955551D01*
X135981350Y-104244449D02*
X136110799Y-103788661D01*
X135525562Y-86085000D02*
X135641350Y-86544449D01*
X135525562Y-86085000D02*
X135641350Y-86544449D01*
X142125000Y-79485562D02*
X141995551Y-79941350D01*
X166624989Y-86540788D02*
X166169201Y-86411339D01*
X142125000Y-79485562D02*
X141995551Y-79941350D01*
X151480000Y-112800000D02*
X151150000Y-112460000D01*
X160155000Y-79485562D02*
X159695551Y-79601350D01*
X135641350Y-86544449D02*
X136100799Y-86428661D01*
X142125000Y-110714438D02*
X142584449Y-110598650D01*
X159699212Y-110584989D02*
X159828661Y-110129201D01*
X160155000Y-110714438D02*
X159699212Y-110584989D01*
X135655011Y-103659212D02*
X136110799Y-103788661D01*
X142125000Y-79485562D02*
X142580788Y-79615011D01*
X150800000Y-77400000D02*
X151130000Y-77740000D01*
X166624989Y-86540788D02*
X166169201Y-86411339D01*
X166294989Y-104230788D02*
X166179201Y-103771339D01*
X150810000Y-112790000D02*
X151150000Y-112460000D01*
X150800000Y-77400000D02*
X151130000Y-77740000D01*
X160155000Y-110714438D02*
X160284449Y-110258650D01*
X133110000Y-95100000D02*
X133440000Y-95440000D01*
X133440000Y-95440000D02*
X133780000Y-95110000D01*
D11*
D12*
X137097434Y-102982142D02*
X136954577Y-102925000D01*
X136883149Y-102867857D01*
X136811720Y-102753571D01*
X136811720Y-102696428D01*
X136883149Y-102582142D01*
X136954577Y-102525000D01*
X137097434Y-102467857D01*
X137383149Y-102467857D01*
X137526006Y-102525000D01*
X137597434Y-102582142D01*
X137668863Y-102696428D01*
X137668863Y-102753571D01*
X137597434Y-102867857D01*
X137526006Y-102925000D01*
X137383149Y-102982142D01*
X137097434Y-102982142D01*
X136954577Y-103039285D01*
X136883149Y-103096428D01*
X136811720Y-103210714D01*
X136811720Y-103439285D01*
X136883149Y-103553571D01*
X136954577Y-103610714D01*
X137097434Y-103667857D01*
X137383149Y-103667857D01*
X137526006Y-103610714D01*
X137597434Y-103553571D01*
X137668863Y-103439285D01*
X137668863Y-103210714D01*
X137597434Y-103096428D01*
X137526006Y-103039285D01*
X137383149Y-102982142D01*
D11*
D12*
X143586428Y-108183169D02*
X142729285Y-109667784D01*
D11*
D12*
X158693571Y-108183169D02*
X159550714Y-109667784D01*
D11*
D12*
X151425714Y-110492857D02*
X151140000Y-110492857D01*
X150997142Y-110550000D01*
X150925714Y-110607142D01*
X150782857Y-110778571D01*
X150711428Y-111007142D01*
X150711428Y-111464285D01*
X150782857Y-111578571D01*
X150854285Y-111635714D01*
X150997142Y-111692857D01*
X151282857Y-111692857D01*
X151425714Y-111635714D01*
X151497142Y-111578571D01*
X151568571Y-111464285D01*
X151568571Y-111178571D01*
X151497142Y-111064285D01*
X151425714Y-111007142D01*
X151282857Y-110950000D01*
X150997142Y-110950000D01*
X150854285Y-111007142D01*
X150782857Y-111064285D01*
X150711428Y-111178571D01*
D11*
D12*
X136032857Y-95100000D02*
X134318571Y-95100000D01*
D11*
D12*
X143586428Y-82016830D02*
X142729285Y-80532215D01*
D11*
D12*
X158693571Y-82016830D02*
X159550714Y-80532215D01*
D11*
D12*
X166247142Y-95100000D02*
X167961428Y-95100000D01*
D11*
D12*
X164611136Y-86532142D02*
X164682565Y-86475000D01*
X164825422Y-86417857D01*
X165182565Y-86417857D01*
X165325422Y-86475000D01*
X165396850Y-86532142D01*
X165468279Y-86646428D01*
X165468279Y-86760714D01*
X165396850Y-86932142D01*
X164539708Y-87617857D01*
X165468279Y-87617857D01*
D11*
D12*
X165325422Y-102867857D02*
X165325422Y-103667857D01*
X164968279Y-102410714D02*
X164611136Y-103267857D01*
X165539708Y-103267857D01*
D11*
D12*
X136954577Y-87617857D02*
X136097434Y-87617857D01*
X136526006Y-87617857D02*
X136526006Y-86417857D01*
X136383149Y-86589285D01*
X136240292Y-86703571D01*
X136097434Y-86760714D01*
X137883149Y-86417857D02*
X138026006Y-86417857D01*
X138168863Y-86475000D01*
X138240292Y-86532142D01*
X138311720Y-86646428D01*
X138383149Y-86875000D01*
X138383149Y-87160714D01*
X138311720Y-87389285D01*
X138240292Y-87503571D01*
X138168863Y-87560714D01*
X138026006Y-87617857D01*
X137883149Y-87617857D01*
X137740292Y-87560714D01*
X137668863Y-87503571D01*
X137597434Y-87389285D01*
X137526006Y-87160714D01*
X137526006Y-86875000D01*
X137597434Y-86646428D01*
X137668863Y-86532142D01*
X137740292Y-86475000D01*
X137883149Y-86417857D01*
D11*
D12*
X150854285Y-79592857D02*
X149997142Y-79592857D01*
X150425714Y-79592857D02*
X150425714Y-78392857D01*
X150282857Y-78564285D01*
X150140000Y-78678571D01*
X149997142Y-78735714D01*
X151425714Y-78507142D02*
X151497142Y-78450000D01*
X151640000Y-78392857D01*
X151997142Y-78392857D01*
X152140000Y-78450000D01*
X152211428Y-78507142D01*
X152282857Y-78621428D01*
X152282857Y-78735714D01*
X152211428Y-78907142D01*
X151354285Y-79592857D01*
X152282857Y-79592857D01*
D13*
%TO.N,*%
X170930000Y-100470000D03*
X137820000Y-76680000D03*
X164460000Y-76680000D03*
X132580000Y-102370000D03*
%TD*%
M02*
