
CASCADE Topology V1, (c) Matra-Datavision
Locations 16
1
1.000000000000000 0.000000000000000 0.000000000000000 0.000000000000000 
0.000000000000000 1.000000000000000 0.000000000000000 0.000000000000000 
0.000000000000000 0.000000000000000 1.000000000000000 0.000000000000000 
1
1.000000000000000 0.000000000000000 0.000000000000000 0.000000000000000 
0.000000000000000 1.000000000000000 0.000000000000000 0.000000000000000 
0.000000000000000 0.000000000000000 1.000000000000000 0.000000000000000 
2  2 -1 0
1
1.000000000000000 0.000000000000000 0.000000000000000 0.000000000000000 
0.000000000000000 1.000000000000000 0.000000000000000 0.000000000000000 
0.000000000000000 0.000000000000000 1.000000000000000 0.000000000000000 
1
1.000000000000000 0.000000000000000 0.000000000000000 0.000000000000000 
0.000000000000000 1.000000000000000 0.000000000000000 0.000000000000000 
0.000000000000000 0.000000000000000 1.000000000000000 0.000000000000000 
1
1.000000000000000 0.000000000000000 0.000000000000000 0.000000000000000 
0.000000000000000 1.000000000000000 0.000000000000000 0.000000000000000 
0.000000000000000 0.000000000000000 1.000000000000000 0.000000000000000 
2  4 1 5 1 6 -1 0
2  2 -1 6 1 5 -1 4 -1 0
1
1.000000000000000 0.000000000000000 0.000000000000000 0.000000000000000 
0.000000000000000 1.000000000000000 0.000000000000000 0.000000000000000 
0.000000000000000 0.000000000000000 1.000000000000000 3.000000000000000 
2  4 1 5 1 6 -1 9 1 0
2  2 -1 9 -1 6 1 5 -1 4 -1 0
2  6 1 5 -1 4 -1 0
2  9 -1 6 1 5 -1 4 -1 0
2  6 -1 0
2  4 1 5 1 0
2  6 -1 9 1 0
Curve2ds 8
1 5.59606109703814703 0.00000000000000000 0.00000000000000000 -1.00000000000000000 
1 6.97030951732102544 0.00000000000000000 0.00000000000000000 -1.00000000000000000 
1 0.00000000000000000 0.00000000000000000 1.00000000000000000 0.00000000000000000 
1 0.00000000000000000 -3.00000000000000000 1.00000000000000000 0.00000000000000000 
1 5.68211155268183710 0.00000000000000000 0.00000000000000000 -1.00000000000000000 
1 6.88425906167733626 0.00000000000000000 0.00000000000000000 -1.00000000000000000 
1 0.00000000000000000 0.00000000000000000 1.00000000000000000 0.00000000000000000 
1 0.00000000000000000 -3.00000000000000000 1.00000000000000000 0.00000000000000000 
Curves 48
1 -8.00000000000000000 -16.00000000000001066 0.00000000000000000 0.00000000000000000 0.00000000000000000 1.00000000000000000 
1 16.99999999999999645 -16.00000000000001066 0.00000000000000000 0.00000000000000000 0.00000000000000000 1.00000000000000000 
1 -8.00000000000000000 -16.00000000000001066 0.00000000000000000 1.00000000000000000 0.00000000000000000 0.00000000000000000 
1 -8.00000000000000000 -16.00000000000001066 0.00000000000000000 1.00000000000000000 0.00000000000000000 0.00000000000000000 
1 17.00000000000000355 15.99999999999999467 0.00000000000000000 0.00000000000000000 0.00000000000000000 1.00000000000000000 
2 -2.50000000000000000 -0.00000000000000204 0.00000000000000000 0.00000000000000000 0.00000000000000000 1.00000000000000000 1.00000000000000000 0.00000000000000000 0.00000000000000000 0.00000000000000000 1.00000000000000000 0.00000000000000000 25.22399651125887843
2 -2.50000000000000000 -0.00000000000000204 0.00000000000000000 0.00000000000000000 0.00000000000000000 1.00000000000000000 1.00000000000000000 0.00000000000000000 0.00000000000000000 0.00000000000000000 1.00000000000000000 0.00000000000000000 25.22399651125887843
1 -8.00000000000000000 15.99999999999999467 0.00000000000000000 0.00000000000000000 0.00000000000000000 1.00000000000000000 
1 17.00000000000000355 15.99999999999999467 0.00000000000000000 -1.00000000000000000 0.00000000000000000 0.00000000000000000 
1 17.00000000000000355 15.99999999999999467 0.00000000000000000 -1.00000000000000000 0.00000000000000000 0.00000000000000000 
1 -8.00000000000000000 0.75000000000000000 0.00000000000000000 0.00000000000000000 0.00000000000000000 1.00000000000000000 
1 -8.00000000000000000 15.99999999999999467 0.00000000000000000 0.00000000000000000 -1.00000000000000000 0.00000000000000000 
1 -8.00000000000000000 15.99999999999999467 0.00000000000000000 0.00000000000000000 -1.00000000000000000 0.00000000000000000 
1 -4.00000000000000000 0.75000000000000000 0.00000000000000000 0.00000000000000000 0.00000000000000000 1.00000000000000000 
1 -8.00000000000000000 0.75000000000000000 0.00000000000000000 1.00000000000000000 0.00000000000000000 0.00000000000000000 
1 -8.00000000000000000 0.75000000000000000 0.00000000000000000 1.00000000000000000 0.00000000000000000 0.00000000000000000 
1 -4.00000000000000000 12.00000000000000000 0.00000000000000000 0.00000000000000000 0.00000000000000000 1.00000000000000000 
1 -4.00000000000000000 0.75000000000000000 0.00000000000000000 0.00000000000000000 1.00000000000000000 0.00000000000000000 
1 -4.00000000000000000 0.75000000000000000 0.00000000000000000 0.00000000000000000 1.00000000000000000 0.00000000000000000 
1 4.00000000000000000 12.00000000000000000 0.00000000000000000 0.00000000000000000 0.00000000000000000 1.00000000000000000 
1 -4.00000000000000000 12.00000000000000000 0.00000000000000000 1.00000000000000000 0.00000000000000000 0.00000000000000000 
1 -4.00000000000000000 12.00000000000000000 0.00000000000000000 1.00000000000000000 0.00000000000000000 0.00000000000000000 
1 4.00000000000000000 -12.00000000000000000 0.00000000000000000 0.00000000000000000 0.00000000000000000 1.00000000000000000 
1 4.00000000000000000 12.00000000000000000 0.00000000000000000 0.00000000000000000 -1.00000000000000000 0.00000000000000000 
1 4.00000000000000000 12.00000000000000000 0.00000000000000000 0.00000000000000000 -1.00000000000000000 0.00000000000000000 
1 -4.00000000000000000 -12.00000000000000000 0.00000000000000000 0.00000000000000000 0.00000000000000000 1.00000000000000000 
1 4.00000000000000000 -12.00000000000000000 0.00000000000000000 -1.00000000000000000 0.00000000000000000 0.00000000000000000 
1 4.00000000000000000 -12.00000000000000000 0.00000000000000000 -1.00000000000000000 0.00000000000000000 0.00000000000000000 
1 -4.00000000000000000 -0.75000000000000000 0.00000000000000000 0.00000000000000000 0.00000000000000000 1.00000000000000000 
1 -4.00000000000000000 -0.75000000000000000 0.00000000000000000 0.00000000000000000 -1.00000000000000000 0.00000000000000000 
1 -4.00000000000000000 -0.75000000000000000 0.00000000000000000 0.00000000000000000 -1.00000000000000000 0.00000000000000000 
1 -8.00000000000000000 -0.75000000000000000 0.00000000000000000 0.00000000000000000 0.00000000000000000 1.00000000000000000 
1 -8.00000000000000000 -0.75000000000000000 0.00000000000000000 1.00000000000000000 0.00000000000000000 0.00000000000000000 
1 -8.00000000000000000 -0.75000000000000000 0.00000000000000000 1.00000000000000000 0.00000000000000000 0.00000000000000000 
1 -8.00000000000000000 -16.00000000000001066 0.00000000000000000 0.00000000000000000 1.00000000000000000 0.00000000000000000 
1 -8.00000000000000000 -16.00000000000001066 0.00000000000000000 0.00000000000000000 1.00000000000000000 0.00000000000000000 
1 8.00000000000000000 12.00000000000000000 0.00000000000000000 0.00000000000000000 0.00000000000000000 1.00000000000000000 
1 8.00000000000000000 -12.00000000000000000 0.00000000000000000 0.00000000000000000 0.00000000000000000 1.00000000000000000 
1 8.00000000000000000 12.00000000000000000 0.00000000000000000 0.00000000000000000 -1.00000000000000000 0.00000000000000000 
1 8.00000000000000000 12.00000000000000000 0.00000000000000000 0.00000000000000000 -1.00000000000000000 0.00000000000000000 
1 15.00000000000000000 -12.00000000000000178 0.00000000000000000 0.00000000000000000 0.00000000000000000 1.00000000000000000 
1 8.00000000000000000 -12.00000000000000178 0.00000000000000000 1.00000000000000000 0.00000000000000000 0.00000000000000000 
1 8.00000000000000000 -12.00000000000000178 0.00000000000000000 1.00000000000000000 0.00000000000000000 0.00000000000000000 
1 14.99999999999999289 12.00000000000000533 0.00000000000000000 0.00000000000000000 0.00000000000000000 1.00000000000000000 
2 -2.50000000000000000 -0.00000000000000204 0.00000000000000000 0.00000000000000000 0.00000000000000000 1.00000000000000000 1.00000000000000000 0.00000000000000000 0.00000000000000000 0.00000000000000000 1.00000000000000000 0.00000000000000000 21.21909517392294475
2 -2.50000000000000000 -0.00000000000000204 0.00000000000000000 0.00000000000000000 0.00000000000000000 1.00000000000000000 1.00000000000000000 0.00000000000000000 0.00000000000000000 0.00000000000000000 1.00000000000000000 0.00000000000000000 21.21909517392294475
1 8.00000000000000000 12.00000000000000000 0.00000000000000000 1.00000000000000000 0.00000000000000076 0.00000000000000000 
1 8.00000000000000000 12.00000000000000000 0.00000000000000000 1.00000000000000000 0.00000000000000076 0.00000000000000000 
Polygon3D 0
PolygonOnTriangulations 0
Surfaces 18
1 -8.00000000000000000 -16.00000000000001066 0.00000000000000000 0.00000000000000000 1.00000000000000000 0.00000000000000000 1.00000000000000000 0.00000000000000000 0.00000000000000000 0.00000000000000000 0.00000000000000000 -1.00000000000000000 
2 -2.50000000000000000 -0.00000000000000204 0.00000000000000000 -0.00000000000000000 -0.00000000000000000 -1.00000000000000000 1.00000000000000000 0.00000000000000000 0.00000000000000000 0.00000000000000000 1.00000000000000000 0.00000000000000000 25.22399651125887843
1 17.00000000000000355 15.99999999999999467 0.00000000000000000 0.00000000000000000 -1.00000000000000000 0.00000000000000000 -1.00000000000000000 0.00000000000000000 0.00000000000000000 -0.00000000000000000 -0.00000000000000000 -1.00000000000000000 
1 -8.00000000000000000 15.99999999999999467 0.00000000000000000 1.00000000000000000 0.00000000000000000 0.00000000000000000 0.00000000000000000 -1.00000000000000000 0.00000000000000000 0.00000000000000000 0.00000000000000000 -1.00000000000000000 
1 -8.00000000000000000 0.75000000000000000 0.00000000000000000 0.00000000000000000 1.00000000000000000 0.00000000000000000 1.00000000000000000 0.00000000000000000 0.00000000000000000 0.00000000000000000 0.00000000000000000 -1.00000000000000000 
1 -4.00000000000000000 0.75000000000000000 0.00000000000000000 -1.00000000000000000 0.00000000000000000 0.00000000000000000 0.00000000000000000 1.00000000000000000 0.00000000000000000 0.00000000000000000 0.00000000000000000 -1.00000000000000000 
1 -4.00000000000000000 12.00000000000000000 0.00000000000000000 0.00000000000000000 1.00000000000000000 0.00000000000000000 1.00000000000000000 0.00000000000000000 0.00000000000000000 0.00000000000000000 0.00000000000000000 -1.00000000000000000 
1 4.00000000000000000 12.00000000000000000 0.00000000000000000 1.00000000000000000 0.00000000000000000 0.00000000000000000 0.00000000000000000 -1.00000000000000000 0.00000000000000000 0.00000000000000000 0.00000000000000000 -1.00000000000000000 
1 4.00000000000000000 -12.00000000000000000 0.00000000000000000 0.00000000000000000 -1.00000000000000000 0.00000000000000000 -1.00000000000000000 0.00000000000000000 0.00000000000000000 -0.00000000000000000 -0.00000000000000000 -1.00000000000000000 
1 -4.00000000000000000 -0.75000000000000000 0.00000000000000000 1.00000000000000000 0.00000000000000000 0.00000000000000000 0.00000000000000000 -1.00000000000000000 0.00000000000000000 0.00000000000000000 0.00000000000000000 -1.00000000000000000 
1 -8.00000000000000000 -0.75000000000000000 0.00000000000000000 0.00000000000000000 1.00000000000000000 0.00000000000000000 1.00000000000000000 0.00000000000000000 0.00000000000000000 0.00000000000000000 0.00000000000000000 -1.00000000000000000 
1 -8.00000000000000000 -16.00000000000001066 0.00000000000000000 -1.00000000000000000 0.00000000000000000 0.00000000000000000 0.00000000000000000 1.00000000000000000 0.00000000000000000 0.00000000000000000 0.00000000000000000 -1.00000000000000000 
1 8.00000000000000000 12.00000000000000000 0.00000000000000000 1.00000000000000000 0.00000000000000000 0.00000000000000000 0.00000000000000000 -1.00000000000000000 0.00000000000000000 0.00000000000000000 0.00000000000000000 -1.00000000000000000 
1 8.00000000000000000 -12.00000000000000178 0.00000000000000000 0.00000000000000000 1.00000000000000000 0.00000000000000000 1.00000000000000000 0.00000000000000000 0.00000000000000000 0.00000000000000000 0.00000000000000000 -1.00000000000000000 
2 -2.50000000000000000 -0.00000000000000204 0.00000000000000000 -0.00000000000000000 -0.00000000000000000 -1.00000000000000000 1.00000000000000000 0.00000000000000000 0.00000000000000000 0.00000000000000000 1.00000000000000000 0.00000000000000000 21.21909517392294475
1 8.00000000000000000 12.00000000000000000 0.00000000000000000 -0.00000000000000076 1.00000000000000000 0.00000000000000000 1.00000000000000000 0.00000000000000076 0.00000000000000000 0.00000000000000000 0.00000000000000000 -1.00000000000000000 
1 5.74149495738285864 -0.00000000000000357 0.00000000000000000 0.00000000000000000 0.00000000000000000 1.00000000000000000 1.00000000000000000 0.00000000000000000 0.00000000000000000 0.00000000000000000 1.00000000000000000 0.00000000000000000 
1 5.74149495738285864 -0.00000000000000357 0.00000000000000000 0.00000000000000000 0.00000000000000000 1.00000000000000000 1.00000000000000000 0.00000000000000000 0.00000000000000000 0.00000000000000000 1.00000000000000000 0.00000000000000000 
Triangulations 0

TShapes 120
Ve
0.000000100000000
-8.000000000000000 -16.000000000000011 0.000000000000000
0 0

0101101
*
Ve
0.000000100000000
-8.000000000000000 -16.000000000000011 3.000000000000000
0 0

0101101
*
Ed
 0.000000100000000 1 1 0
1  1 0 0.000000000000000 3.000000000000000
0

0101000
+120 3 -119 3 *
Ve
0.000000100000000
16.999999999999996 -16.000000000000011 0.000000000000000
0 0

0101101
*
Ve
0.000000100000000
16.999999999999996 -16.000000000000011 3.000000000000000
0 0

0101101
*
Ed
 0.000000100000000 1 1 0
1  2 0 0.000000000000000 3.000000000000000
2  1 2 0 0.000000000000000 3.000000000000000
0

0101000
+117 3 -116 3 *
Ed
 0.000000100000000 1 1 0
1  3 0 0.000000000000000 24.999999999999996
0

0101000
+120 8 -117 8 *
Ed
 0.000000100000000 1 1 0
1  4 0 0.000000000000000 24.999999999999996
0

0101000
+119 11 -116 11 *
Wi

0101100
+118 0 -115 0 -114 7 +113 10 *
Fa
0  0.000000100000000 1 0

0111000
+112 0 *
Ve
0.000000100000000
17.000000000000004 15.999999999999995 0.000000000000000
0 0

0101101
*
Ve
0.000000100000000
17.000000000000004 15.999999999999995 3.000000000000000
0 0

0101101
*
Ed
 0.000000100000000 1 1 0
1  5 0 0.000000000000000 3.000000000000000
2  2 2 0 0.000000000000000 3.000000000000000
0

0101000
+110 3 -109 3 *
Ed
 0.000000100000000 1 1 0
1  6 0 5.596061097038147 6.970309517321025
2  3 2 12 5.596061097038147 6.970309517321025
0

0101000
+117 8 -110 8 *
Ed
 0.000000100000000 1 1 0
1  7 0 5.596061097038147 6.970309517321025
2  4 2 13 5.596061097038147 6.970309517321025
0

0101000
+116 11 -109 11 *
Wi

0101100
+115 0 -108 0 -107 7 +106 10 *
Fa
0  0.000000100000000 2 0

0111000
+105 0 *
Ve
0.000000100000000
-8.000000000000000 15.999999999999995 0.000000000000000
0 0

0101101
*
Ve
0.000000100000000
-8.000000000000000 15.999999999999995 3.000000000000000
0 0

0101101
*
Ed
 0.000000100000000 1 1 0
1  8 0 0.000000000000000 3.000000000000000
0

0101000
+103 3 -102 3 *
Ed
 0.000000100000000 1 1 0
1  9 0 0.000000000000000 25.000000000000004
0

0101000
+110 8 -103 8 *
Ed
 0.000000100000000 1 1 0
1  10 0 0.000000000000000 25.000000000000004
0

0101000
+109 11 -102 11 *
Wi

0101100
+108 0 -101 0 -100 7 +99 10 *
Fa
0  0.000000100000000 3 0

0111000
+98 0 *
Ve
0.000000100000000
-8.000000000000000 0.750000000000000 0.000000000000000
0 0

0101101
*
Ve
0.000000100000000
-8.000000000000000 0.750000000000000 3.000000000000000
0 0

0101101
*
Ed
 0.000000100000000 1 1 0
1  11 0 0.000000000000000 3.000000000000000
0

0101000
+96 3 -95 3 *
Ed
 0.000000100000000 1 1 0
1  12 0 0.000000000000000 15.249999999999995
0

0101000
+103 8 -96 8 *
Ed
 0.000000100000000 1 1 0
1  13 0 0.000000000000000 15.249999999999995
0

0101000
+102 11 -95 11 *
Wi

0101100
+101 0 -94 0 -93 7 +92 10 *
Fa
0  0.000000100000000 4 0

0111000
+91 0 *
Ve
0.000000100000000
-4.000000000000000 0.750000000000000 0.000000000000000
0 0

0101101
*
Ve
0.000000100000000
-4.000000000000000 0.750000000000000 3.000000000000000
0 0

0101101
*
Ed
 0.000000100000000 1 1 0
1  14 0 0.000000000000000 3.000000000000000
0

0101000
+89 3 -88 3 *
Ed
 0.000000100000000 1 1 0
1  15 0 0.000000000000000 4.000000000000000
0

0101000
+96 8 -89 8 *
Ed
 0.000000100000000 1 1 0
1  16 0 0.000000000000000 4.000000000000000
0

0101000
+95 11 -88 11 *
Wi

0101100
+94 0 -87 0 -86 7 +85 10 *
Fa
0  0.000000100000000 5 0

0111000
+84 0 *
Ve
0.000000100000000
-4.000000000000000 12.000000000000000 0.000000000000000
0 0

0101101
*
Ve
0.000000100000000
-4.000000000000000 12.000000000000000 3.000000000000000
0 0

0101101
*
Ed
 0.000000100000000 1 1 0
1  17 0 0.000000000000000 3.000000000000000
0

0101000
+82 3 -81 3 *
Ed
 0.000000100000000 1 1 0
1  18 0 0.000000000000000 11.250000000000000
0

0101000
+89 8 -82 8 *
Ed
 0.000000100000000 1 1 0
1  19 0 0.000000000000000 11.250000000000000
0

0101000
+88 11 -81 11 *
Wi

0101100
+87 0 -80 0 -79 7 +78 10 *
Fa
0  0.000000100000000 6 0

0111000
+77 0 *
Ve
0.000000100000000
4.000000000000000 12.000000000000000 0.000000000000000
0 0

0101101
*
Ve
0.000000100000000
4.000000000000000 12.000000000000000 3.000000000000000
0 0

0101101
*
Ed
 0.000000100000000 1 1 0
1  20 0 0.000000000000000 3.000000000000000
0

0101000
+75 3 -74 3 *
Ed
 0.000000100000000 1 1 0
1  21 0 0.000000000000000 8.000000000000000
0

0101000
+82 8 -75 8 *
Ed
 0.000000100000000 1 1 0
1  22 0 0.000000000000000 8.000000000000000
0

0101000
+81 11 -74 11 *
Wi

0101100
+80 0 -73 0 -72 7 +71 10 *
Fa
0  0.000000100000000 7 0

0111000
+70 0 *
Ve
0.000000100000000
4.000000000000000 -12.000000000000000 0.000000000000000
0 0

0101101
*
Ve
0.000000100000000
4.000000000000000 -12.000000000000000 3.000000000000000
0 0

0101101
*
Ed
 0.000000100000000 1 1 0
1  23 0 0.000000000000000 3.000000000000000
0

0101000
+68 3 -67 3 *
Ed
 0.000000100000000 1 1 0
1  24 0 0.000000000000000 24.000000000000000
0

0101000
+75 8 -68 8 *
Ed
 0.000000100000000 1 1 0
1  25 0 0.000000000000000 24.000000000000000
0

0101000
+74 11 -67 11 *
Wi

0101100
+73 0 -66 0 -65 7 +64 10 *
Fa
0  0.000000100000000 8 0

0111000
+63 0 *
Ve
0.000000100000000
-4.000000000000000 -12.000000000000000 0.000000000000000
0 0

0101101
*
Ve
0.000000100000000
-4.000000000000000 -12.000000000000000 3.000000000000000
0 0

0101101
*
Ed
 0.000000100000000 1 1 0
1  26 0 0.000000000000000 3.000000000000000
0

0101000
+61 3 -60 3 *
Ed
 0.000000100000000 1 1 0
1  27 0 0.000000000000000 8.000000000000000
0

0101000
+68 8 -61 8 *
Ed
 0.000000100000000 1 1 0
1  28 0 0.000000000000000 8.000000000000000
0

0101000
+67 11 -60 11 *
Wi

0101100
+66 0 -59 0 -58 7 +57 10 *
Fa
0  0.000000100000000 9 0

0111000
+56 0 *
Ve
0.000000100000000
-4.000000000000000 -0.750000000000000 0.000000000000000
0 0

0101101
*
Ve
0.000000100000000
-4.000000000000000 -0.750000000000000 3.000000000000000
0 0

0101101
*
Ed
 0.000000100000000 1 1 0
1  29 0 0.000000000000000 3.000000000000000
0

0101000
+54 3 -53 3 *
Ed
 0.000000100000000 1 1 0
1  30 0 0.000000000000000 11.250000000000000
0

0101000
+54 8 -61 8 *
Ed
 0.000000100000000 1 1 0
1  31 0 0.000000000000000 11.250000000000000
0

0101000
+53 11 -60 11 *
Wi

0101100
+52 0 -59 0 -51 7 +50 10 *
Fa
0  0.000000100000000 10 0

0111000
+49 0 *
Ve
0.000000100000000
-8.000000000000000 -0.750000000000000 0.000000000000000
0 0

0101101
*
Ve
0.000000100000000
-8.000000000000000 -0.750000000000000 3.000000000000000
0 0

0101101
*
Ed
 0.000000100000000 1 1 0
1  32 0 0.000000000000000 3.000000000000000
0

0101000
+47 3 -46 3 *
Ed
 0.000000100000000 1 1 0
1  33 0 0.000000000000000 4.000000000000000
0

0101000
+47 8 -54 8 *
Ed
 0.000000100000000 1 1 0
1  34 0 0.000000000000000 4.000000000000000
0

0101000
+46 11 -53 11 *
Wi

0101100
+45 0 -52 0 -44 7 +43 10 *
Fa
0  0.000000100000000 11 0

0111000
+42 0 *
Ed
 0.000000100000000 1 1 0
1  35 0 0.000000000000000 15.250000000000011
0

0101000
+120 8 -47 8 *
Ed
 0.000000100000000 1 1 0
1  36 0 0.000000000000000 15.250000000000011
0

0101000
+119 11 -46 11 *
Wi

0101100
+118 0 -45 0 -40 7 +39 10 *
Fa
0  0.000000100000000 12 0

0111000
+38 0 *
Ve
0.000000100000000
8.000000000000000 12.000000000000000 0.000000000000000
0 0

0101101
*
Ve
0.000000100000000
8.000000000000000 12.000000000000000 3.000000000000000
0 0

0101101
*
Ed
 0.000000100000000 1 1 0
1  37 0 0.000000000000000 3.000000000000000
0

0101000
+36 3 -35 3 *
Ve
0.000000100000001
8.000000000000000 -12.000000000000000 0.000000000000000
0 0

0101101
*
Ve
0.000000100000001
8.000000000000000 -12.000000000000000 3.000000000000000
0 0

0101101
*
Ed
 0.000000100000001 1 1 0
1  38 0 0.000000000000000 3.000000000000000
0

0101000
+33 3 -32 3 *
Ed
 0.000000100000000 1 1 0
1  39 0 0.000000000000000 24.000000000000000
0

0101000
+36 8 -33 8 *
Ed
 0.000000100000000 1 1 0
1  40 0 0.000000000000000 24.000000000000000
0

0101000
+35 11 -32 11 *
Wi

0101100
+34 0 -31 0 -30 7 +29 10 *
Fa
0  0.000000100000000 13 0

0111000
+28 0 *
Ve
0.000000100000000
15.000000000000000 -12.000000000000002 0.000000000000000
0 0

0101101
*
Ve
0.000000100000000
15.000000000000000 -12.000000000000002 3.000000000000000
0 0

0101101
*
Ed
 0.000000100000000 1 1 0
1  41 0 0.000000000000000 3.000000000000000
2  5 15 0 0.000000000000000 3.000000000000000
0

0101000
+26 3 -25 3 *
Ed
 0.000000100000000 1 1 0
1  42 0 0.000000000000000 7.000000000000000
0

0101000
+33 8 -26 8 *
Ed
 0.000000100000000 1 1 0
1  43 0 0.000000000000000 7.000000000000000
0

0101000
+32 11 -25 11 *
Wi

0101100
+31 0 -24 0 -23 7 +22 10 *
Fa
0  0.000000100000000 14 0

0111000
+21 0 *
Ve
0.000000100000000
14.999999999999993 12.000000000000005 0.000000000000000
0 0

0101101
*
Ve
0.000000100000000
14.999999999999993 12.000000000000005 3.000000000000000
0 0

0101101
*
Ed
 0.000000100000000 1 1 0
1  44 0 0.000000000000000 3.000000000000000
2  6 15 0 0.000000000000000 3.000000000000000
0

0101000
+19 3 -18 3 *
Ed
 0.000000100000000 1 1 0
1  45 0 5.682111552681837 6.884259061677336
2  7 15 12 5.682111552681837 6.884259061677336
0

0101000
+26 8 -19 8 *
Ed
 0.000000100000000 1 1 0
1  46 0 5.682111552681837 6.884259061677336
2  8 15 13 5.682111552681837 6.884259061677336
0

0101000
+25 11 -18 11 *
Wi

0101100
+24 0 -17 0 -16 7 +15 10 *
Fa
0  0.000000100000000 15 0

0111000
+14 0 *
Ed
 0.000000100000000 1 1 0
1  47 0 0.000000000000000 6.999999999999993
0

0101000
+36 8 -19 8 *
Ed
 0.000000100000000 1 1 0
1  48 0 0.000000000000000 6.999999999999993
0

0101000
+35 11 -18 11 *
Wi

0101100
+34 0 -17 0 -12 7 +11 10 *
Fa
0  0.000000100000000 16 0

0111000
+10 0 *
Wi

0101100
+114 0 +107 0 +100 0 +93 0 +86 0 +79 0 +72 0 +65 0 +58 0 -51 0 
-44 0 -40 0 *
Wi

0101100
+30 0 +23 0 +16 0 -12 0 *
Fa
0  0.000000100000000 17 0

0111000
+8 15 -7 15 *
Wi

0101100
+113 0 +106 0 +99 0 +92 0 +85 0 +78 0 +71 0 +64 0 +57 0 -50 0 
-43 0 -39 0 *
Wi

0101100
+29 0 +22 0 +15 0 -11 0 *
Fa
0  0.000000100000000 18 0

0111000
+5 15 -4 15 *
Sh

0101100
+111 0 +104 0 +97 0 +90 0 +83 0 +76 0 +69 0 +62 0 +55 0 -48 0 
-41 0 -37 0 -27 0 -20 0 -13 0 +9 0 +6 14 -3 16 *
So

1100000
-2 0 *

+1 1 