%TF.GenerationSoftware,KiCad,Pcbnew,6.0.7-1.fc35*%
%TF.CreationDate,2022-12-16T23:41:26+01:00*%
%TF.ProjectId,inner,696e6e65-722e-46b6-9963-61645f706362,rev?*%
%TF.SameCoordinates,Original*%
%TF.FileFunction,Paste,Top*%
%TF.FilePolarity,Positive*%
%FSLAX46Y46*%
G04 Gerber Fmt 4.6, Leading zero omitted, Abs format (unit mm)*
G04 Created by KiCad (PCBNEW 6.0.7-1.fc35) date 2022-12-16 23:41:26*
%MOMM*%
%LPD*%
G01*
G04 APERTURE LIST*
%ADD10C,0.175000*%
%ADD11C,0.200000*%
G04 APERTURE END LIST*
D10*
X213760271Y-99988465D02*
X214760271Y-99988465D01*
X206890125Y-111910977D02*
X207390125Y-112777002D01*
X193129854Y-111922512D02*
X192629854Y-112788537D01*
X186239729Y-100011535D02*
X185239729Y-100011535D01*
X193109875Y-88089022D02*
X192609875Y-87222997D01*
D11*
X212565311Y-92238995D02*
X212642265Y-92277045D01*
X212754933Y-92376953D01*
X212933504Y-92686248D01*
X212963693Y-92833775D01*
X212958168Y-92919444D01*
X212911404Y-93028922D01*
X212828925Y-93076541D01*
X212669493Y-93086110D01*
X211746050Y-92629517D01*
X212210336Y-93433684D01*
X212440543Y-107500918D02*
X211863193Y-107167585D01*
X212949029Y-107382100D02*
X212509011Y-106715662D01*
X212044725Y-107519828D01*
X199724285Y-114857619D02*
X200010000Y-114857619D01*
X200152857Y-114810000D01*
X200224285Y-114762380D01*
X200367142Y-114619523D01*
X200438571Y-114429047D01*
X200438571Y-114048095D01*
X200367142Y-113952857D01*
X200295714Y-113905238D01*
X200152857Y-113857619D01*
X199867142Y-113857619D01*
X199724285Y-113905238D01*
X199652857Y-113952857D01*
X199581428Y-114048095D01*
X199581428Y-114286190D01*
X199652857Y-114381428D01*
X199724285Y-114429047D01*
X199867142Y-114476666D01*
X200152857Y-114476666D01*
X200295714Y-114429047D01*
X200367142Y-114381428D01*
X200438571Y-114286190D01*
X187580506Y-107346901D02*
X187610695Y-107494429D01*
X187605170Y-107580097D01*
X187558406Y-107689575D01*
X187517166Y-107713385D01*
X187398974Y-107699145D01*
X187322020Y-107661095D01*
X187209352Y-107561187D01*
X187066495Y-107313751D01*
X187036306Y-107166224D01*
X187041831Y-107080555D01*
X187088595Y-106971077D01*
X187129834Y-106947268D01*
X187248027Y-106961508D01*
X187324981Y-106999557D01*
X187437649Y-107099465D01*
X187580506Y-107346901D01*
X187693174Y-107446810D01*
X187770127Y-107484859D01*
X187888320Y-107499099D01*
X188053277Y-107403861D01*
X188100042Y-107294383D01*
X188105567Y-107208714D01*
X188075377Y-107061187D01*
X187932520Y-106813751D01*
X187819852Y-106713843D01*
X187742899Y-106675793D01*
X187624706Y-106661553D01*
X187459749Y-106756791D01*
X187412984Y-106866269D01*
X187407459Y-106951938D01*
X187437649Y-107099465D01*
X187851092Y-93327286D02*
X187422520Y-94069593D01*
X187636806Y-93698440D02*
X186770781Y-93198440D01*
X186823070Y-93393586D01*
X186834120Y-93564923D01*
X186803931Y-93712450D01*
X187449352Y-92023119D02*
X187520781Y-91899401D01*
X187633449Y-91799493D01*
X187710402Y-91761444D01*
X187828595Y-91747204D01*
X188029267Y-91780583D01*
X188235463Y-91899630D01*
X188364706Y-92056728D01*
X188411470Y-92166206D01*
X188416995Y-92251874D01*
X188386806Y-92399401D01*
X188315377Y-92523119D01*
X188202710Y-92623028D01*
X188125756Y-92661077D01*
X188007563Y-92675317D01*
X187806892Y-92641938D01*
X187600695Y-92522890D01*
X187471452Y-92365793D01*
X187424688Y-92256315D01*
X187419163Y-92170647D01*
X187449352Y-92023119D01*
X207455912Y-86405981D02*
X207571700Y-86865430D01*
X207915361Y-86290193D02*
X207455912Y-86405981D01*
X208031149Y-86749641D02*
X207571700Y-86865429D01*
X207915361Y-86290193D02*
X208031149Y-86749642D01*
X213254019Y-91955190D02*
X213124570Y-92410978D01*
X213709807Y-92084639D02*
X213254019Y-91955190D01*
X213580359Y-92540427D02*
X213124571Y-92410978D01*
X213709807Y-92084639D02*
X213580358Y-92540427D01*
X215500722Y-99660000D02*
X215160722Y-99990000D01*
X215830722Y-100000000D02*
X215500722Y-99660000D01*
X215490722Y-100330000D02*
X215160722Y-99990000D01*
X215830722Y-100000000D02*
X215490722Y-100330000D01*
X213594019Y-107455912D02*
X213134570Y-107571700D01*
X213709807Y-107915361D02*
X213594019Y-107455912D01*
X213250359Y-108031149D02*
X213134571Y-107571700D01*
X213709807Y-107915361D02*
X213250358Y-108031149D01*
X208044810Y-113254019D02*
X207589022Y-113124570D01*
X207915361Y-113709807D02*
X208044810Y-113254019D01*
X207459573Y-113580359D02*
X207589022Y-113124571D01*
X207915361Y-113709807D02*
X207459573Y-113580358D01*
X200340000Y-115500722D02*
X200010000Y-115160722D01*
X200000000Y-115830722D02*
X200340000Y-115500722D01*
X199670000Y-115490722D02*
X200010000Y-115160722D01*
X200000000Y-115830722D02*
X199670000Y-115490722D01*
X192544088Y-113594019D02*
X192428300Y-113134570D01*
X192084639Y-113709807D02*
X192544088Y-113594019D01*
X191968851Y-113250359D02*
X192428300Y-113134571D01*
X192084639Y-113709807D02*
X191968851Y-113250358D01*
X186745981Y-108044810D02*
X186875430Y-107589022D01*
X186290193Y-107915361D02*
X186745981Y-108044810D01*
X186419641Y-107459573D02*
X186875429Y-107589022D01*
X186290193Y-107915361D02*
X186419642Y-107459573D01*
X184499278Y-100340000D02*
X184839278Y-100010000D01*
X184169278Y-100000000D02*
X184499278Y-100340000D01*
X184509278Y-99670000D02*
X184839278Y-100010000D01*
X184169278Y-100000000D02*
X184509278Y-99670000D01*
X186405981Y-92544088D02*
X186865430Y-92428300D01*
X186290193Y-92084639D02*
X186405981Y-92544088D01*
X186749641Y-91968851D02*
X186865429Y-92428300D01*
X186290193Y-92084639D02*
X186749642Y-91968851D01*
X191955190Y-86745981D02*
X192410978Y-86875430D01*
X192084639Y-86290193D02*
X191955190Y-86745981D01*
X192540427Y-86419641D02*
X192410978Y-86875429D01*
X192084639Y-86290193D02*
X192540427Y-86419642D01*
D10*
X206870146Y-88077487D02*
X207370146Y-87211462D01*
D11*
X199704285Y-86142380D02*
X198847142Y-86142380D01*
X199275714Y-86142380D02*
X199275714Y-85142380D01*
X199132857Y-85285238D01*
X198990000Y-85380476D01*
X198847142Y-85428095D01*
X200275714Y-85237619D02*
X200347142Y-85190000D01*
X200490000Y-85142380D01*
X200847142Y-85142380D01*
X200990000Y-85190000D01*
X201061428Y-85237619D01*
X201132857Y-85332857D01*
X201132857Y-85428095D01*
X201061428Y-85570952D01*
X200204285Y-86142380D01*
X201132857Y-86142380D01*
X200000000Y-84169278D02*
X199660000Y-84499278D01*
X200000000Y-84169278D02*
X200330000Y-84509278D01*
X199660000Y-84499278D02*
X199990000Y-84839278D01*
X200330000Y-84509278D02*
X199990000Y-84839278D01*
M02*
