%TF.GenerationSoftware,KiCad,Pcbnew,6.0.7-1.fc35*%
%TF.CreationDate,2022-12-09T22:28:57+01:00*%
%TF.ProjectId,ring,72696e67-2e6b-4696-9361-645f70636258,rev?*%
%TF.SameCoordinates,Original*%
%TF.FileFunction,Legend,Bot*%
%TF.FilePolarity,Positive*%
%FSLAX46Y46*%
G04 Gerber Fmt 4.6, Leading zero omitted, Abs format (unit mm)*
G04 Created by KiCad (PCBNEW 6.0.7-1.fc35) date 2022-12-09 22:28:57*
%MOMM*%
%LPD*%
G01*
G04 APERTURE LIST*
%ADD10C,0.150000*%
G04 APERTURE END LIST*
D10*
X155525833Y-111641428D02*
X155525833Y-111327142D01*
X155573452Y-111270000D01*
X155668690Y-111241428D01*
X155859166Y-111241428D01*
X155954404Y-111270000D01*
X155525833Y-111612857D02*
X155621071Y-111641428D01*
X155859166Y-111641428D01*
X155954404Y-111612857D01*
X156002023Y-111555714D01*
X156002023Y-111498571D01*
X155954404Y-111441428D01*
X155859166Y-111412857D01*
X155621071Y-111412857D01*
X155525833Y-111384285D01*
X155144880Y-111241428D02*
X154906785Y-111641428D01*
X154668690Y-111241428D01*
X154287738Y-111641428D02*
X154287738Y-111241428D01*
X154287738Y-111041428D02*
X154335357Y-111070000D01*
X154287738Y-111098571D01*
X154240119Y-111070000D01*
X154287738Y-111041428D01*
X154287738Y-111098571D01*
X153382976Y-111641428D02*
X153382976Y-111327142D01*
X153430595Y-111270000D01*
X153525833Y-111241428D01*
X153716309Y-111241428D01*
X153811547Y-111270000D01*
X153382976Y-111612857D02*
X153478214Y-111641428D01*
X153716309Y-111641428D01*
X153811547Y-111612857D01*
X153859166Y-111555714D01*
X153859166Y-111498571D01*
X153811547Y-111441428D01*
X153716309Y-111412857D01*
X153478214Y-111412857D01*
X153382976Y-111384285D01*
X152144880Y-111641428D02*
X152144880Y-111241428D01*
X152144880Y-111355714D02*
X152097261Y-111298571D01*
X152049642Y-111270000D01*
X151954404Y-111241428D01*
X151859166Y-111241428D01*
X151525833Y-111641428D02*
X151525833Y-111241428D01*
X151525833Y-111041428D02*
X151573452Y-111070000D01*
X151525833Y-111098571D01*
X151478214Y-111070000D01*
X151525833Y-111041428D01*
X151525833Y-111098571D01*
X151049642Y-111241428D02*
X151049642Y-111641428D01*
X151049642Y-111298571D02*
X151002023Y-111270000D01*
X150906785Y-111241428D01*
X150763928Y-111241428D01*
X150668690Y-111270000D01*
X150621071Y-111327142D01*
X150621071Y-111641428D01*
X149716309Y-111241428D02*
X149716309Y-111727142D01*
X149763928Y-111784285D01*
X149811547Y-111812857D01*
X149906785Y-111841428D01*
X150049642Y-111841428D01*
X150144880Y-111812857D01*
X149716309Y-111612857D02*
X149811547Y-111641428D01*
X150002023Y-111641428D01*
X150097261Y-111612857D01*
X150144880Y-111584285D01*
X150192500Y-111527142D01*
X150192500Y-111355714D01*
X150144880Y-111298571D01*
X150097261Y-111270000D01*
X150002023Y-111241428D01*
X149811547Y-111241428D01*
X149716309Y-111270000D01*
X148573452Y-111241428D02*
X148335357Y-111641428D01*
X148097261Y-111241428D01*
X147192500Y-111641428D02*
X147763928Y-111641428D01*
X147478214Y-111641428D02*
X147478214Y-111041428D01*
X147573452Y-111127142D01*
X147668690Y-111184285D01*
X147763928Y-111212857D01*
X146763928Y-111584285D02*
X146716309Y-111612857D01*
X146763928Y-111641428D01*
X146811547Y-111612857D01*
X146763928Y-111584285D01*
X146763928Y-111641428D01*
X146097261Y-111041428D02*
X146002023Y-111041428D01*
X145906785Y-111070000D01*
X145859166Y-111098571D01*
X145811547Y-111155714D01*
X145763928Y-111270000D01*
X145763928Y-111412857D01*
X145811547Y-111527142D01*
X145859166Y-111584285D01*
X145906785Y-111612857D01*
X146002023Y-111641428D01*
X146097261Y-111641428D01*
X146192500Y-111612857D01*
X146240119Y-111584285D01*
X146287738Y-111527142D01*
X146335357Y-111412857D01*
X146335357Y-111270000D01*
X146287738Y-111155714D01*
X146240119Y-111098571D01*
X146192500Y-111070000D01*
X146097261Y-111041428D01*
M02*
