%TF.GenerationSoftware,KiCad,Pcbnew,6.0.7-1.fc35*%
%TF.CreationDate,2022-11-04T20:07:34+01:00*%
%TF.ProjectId,Ring,52696e67-2e6b-4696-9361-645f70636258,rev?*%
%TF.SameCoordinates,Original*%
%TF.FileFunction,Copper,L1,Top*%
%TF.FilePolarity,Positive*%
%FSLAX46Y46*%
G04 Gerber Fmt 4.6, Leading zero omitted, Abs format (unit mm)*
G04 Created by KiCad (PCBNEW 6.0.7-1.fc35) date 2022-11-04 20:07:34*
%MOMM*%
%LPD*%
G01*
G04 APERTURE LIST*
%ADD10C,0.300000*%
%TA.AperFunction,NonConductor*%
%ADD11C,0.300000*%
%TD*%
%ADD12C,0.250000*%
%TA.AperFunction,NonConductor*%
%ADD13C,0.250000*%
%TD*%
%ADD14C,0.200000*%
%TA.AperFunction,NonConductor*%
%ADD15C,0.200000*%
%TD*%
%TA.AperFunction,ViaPad*%
%ADD16C,2.500000*%
%TD*%
G04 APERTURE END LIST*
D10*
D11*
X166651428Y-95100000D02*
X168151428Y-95100000D01*
D12*
D13*
X166681720Y-86421085D02*
X166612001Y-86681281D01*
X166351806Y-86611561D01*
X166421525Y-86351366D01*
X166681720Y-86421085D01*
X166351806Y-86611561D01*
D12*
D13*
X151165400Y-112536471D02*
X151355876Y-112726947D01*
X151165400Y-112917423D01*
X150974923Y-112726947D01*
X151165400Y-112536471D01*
X151165400Y-112917423D01*
D10*
D11*
X137305714Y-87698571D02*
X136334285Y-87698571D01*
X136820000Y-87698571D02*
X136820000Y-86198571D01*
X136658095Y-86412857D01*
X136496190Y-86555714D01*
X136334285Y-86627142D01*
D10*
D11*
X158650714Y-108692339D02*
X159400714Y-109991378D01*
D10*
D11*
X136849523Y-102901428D02*
X136659047Y-102830000D01*
X136563809Y-102758571D01*
X136468571Y-102615714D01*
X136468571Y-102544285D01*
X136563809Y-102401428D01*
X136659047Y-102330000D01*
X136849523Y-102258571D01*
X137230476Y-102258571D01*
X137420952Y-102330000D01*
X137516190Y-102401428D01*
X137611428Y-102544285D01*
X137611428Y-102615714D01*
X137516190Y-102758571D01*
X137420952Y-102830000D01*
X137230476Y-102901428D01*
X136849523Y-102901428D01*
X136659047Y-102972857D01*
X136563809Y-103044285D01*
X136468571Y-103187142D01*
X136468571Y-103472857D01*
X136563809Y-103615714D01*
X136659047Y-103687142D01*
X136849523Y-103758571D01*
X137230476Y-103758571D01*
X137420952Y-103687142D01*
X137516190Y-103615714D01*
X137611428Y-103472857D01*
X137611428Y-103187142D01*
X137516190Y-103044285D01*
X137420952Y-102972857D01*
X137230476Y-102901428D01*
D12*
D13*
X133698928Y-95130200D02*
X133508452Y-95320676D01*
X133317976Y-95130200D01*
X133508452Y-94939723D01*
X133698928Y-95130200D01*
X133317976Y-95130200D01*
D12*
D13*
X135598279Y-103778914D02*
X135667998Y-103518718D01*
X135928193Y-103588438D01*
X135858474Y-103848633D01*
X135598279Y-103778914D01*
X135928193Y-103588438D01*
D12*
D13*
X151140000Y-77268571D02*
X151330476Y-77459047D01*
X151140000Y-77649523D01*
X150949523Y-77459047D01*
X151140000Y-77268571D01*
X151140000Y-77649523D01*
D12*
D13*
X142461085Y-79558279D02*
X142721281Y-79627998D01*
X142651561Y-79888193D01*
X142391366Y-79818474D01*
X142461085Y-79558279D01*
X142651561Y-79888193D01*
D10*
D11*
X164748571Y-86701428D02*
X164843809Y-86630000D01*
X165034285Y-86558571D01*
X165510476Y-86558571D01*
X165700952Y-86630000D01*
X165796190Y-86701428D01*
X165891428Y-86844285D01*
X165891428Y-86987142D01*
X165796190Y-87201428D01*
X164653333Y-88058571D01*
X165891428Y-88058571D01*
D12*
D13*
X168954128Y-95079400D02*
X168763652Y-95269876D01*
X168573176Y-95079400D01*
X168763652Y-94888923D01*
X168954128Y-95079400D01*
X168573176Y-95079400D01*
D12*
D13*
X159818914Y-110641720D02*
X159558718Y-110572001D01*
X159628438Y-110311806D01*
X159888633Y-110381525D01*
X159818914Y-110641720D01*
X159628438Y-110311806D01*
D10*
D11*
X165570952Y-102728571D02*
X165570952Y-103728571D01*
X165094761Y-102157142D02*
X164618571Y-103228571D01*
X165856666Y-103228571D01*
D10*
D11*
X143519285Y-108632339D02*
X142769285Y-109931378D01*
D12*
D13*
X142354285Y-110612820D02*
X142284566Y-110352625D01*
X142544761Y-110282906D01*
X142614481Y-110543101D01*
X142354285Y-110612820D01*
X142544761Y-110282906D01*
D12*
D13*
X159925714Y-79587179D02*
X159995433Y-79847374D01*
X159735238Y-79917093D01*
X159665518Y-79656898D01*
X159925714Y-79587179D01*
X159735238Y-79917093D01*
D10*
D11*
X143619285Y-81507660D02*
X142869285Y-80208621D01*
D10*
D11*
X135588571Y-95100000D02*
X134088571Y-95100000D01*
D14*
D15*
X137719047Y-86172857D02*
X137880952Y-86172857D01*
X138042857Y-86230000D01*
X138123809Y-86287142D01*
X138204761Y-86401428D01*
X138285714Y-86630000D01*
X138285714Y-86915714D01*
X138204761Y-87144285D01*
X138123809Y-87258571D01*
X138042857Y-87315714D01*
X137880952Y-87372857D01*
X137719047Y-87372857D01*
X137557142Y-87315714D01*
X137476190Y-87258571D01*
X137395238Y-87144285D01*
X137314285Y-86915714D01*
X137314285Y-86630000D01*
X137395238Y-86401428D01*
X137476190Y-86287142D01*
X137557142Y-86230000D01*
X137719047Y-86172857D01*
D10*
D11*
X158780714Y-81517660D02*
X159530714Y-80218621D01*
D10*
D11*
X151550952Y-110578571D02*
X151170000Y-110578571D01*
X150979523Y-110650000D01*
X150884285Y-110721428D01*
X150693809Y-110935714D01*
X150598571Y-111221428D01*
X150598571Y-111792857D01*
X150693809Y-111935714D01*
X150789047Y-112007142D01*
X150979523Y-112078571D01*
X151360476Y-112078571D01*
X151550952Y-112007142D01*
X151646190Y-111935714D01*
X151741428Y-111792857D01*
X151741428Y-111435714D01*
X151646190Y-111292857D01*
X151550952Y-111221428D01*
X151360476Y-111150000D01*
X150979523Y-111150000D01*
X150789047Y-111221428D01*
X150693809Y-111292857D01*
X150598571Y-111435714D01*
D12*
D13*
X166652820Y-103885714D02*
X166392625Y-103955433D01*
X166322906Y-103695238D01*
X166583101Y-103625518D01*
X166652820Y-103885714D01*
X166322906Y-103695238D01*
D12*
D13*
X135627179Y-86314285D02*
X135887374Y-86244566D01*
X135957093Y-86504761D01*
X135696898Y-86574481D01*
X135627179Y-86314285D01*
X135957093Y-86504761D01*
D10*
D11*
X150759047Y-79888571D02*
X149616190Y-79888571D01*
X150187619Y-79888571D02*
X150187619Y-78388571D01*
X149997142Y-78602857D01*
X149806666Y-78745714D01*
X149616190Y-78817142D01*
X151520952Y-78531428D02*
X151616190Y-78460000D01*
X151806666Y-78388571D01*
X152282857Y-78388571D01*
X152473333Y-78460000D01*
X152568571Y-78531428D01*
X152663809Y-78674285D01*
X152663809Y-78817142D01*
X152568571Y-79031428D01*
X151425714Y-79888571D01*
X152663809Y-79888571D01*
D16*
%TO.N,*%
X170930000Y-100470000D03*
X137820000Y-76680000D03*
X164460000Y-76680000D03*
X132580000Y-102370000D03*
%TD*%
M02*
