%TF.GenerationSoftware,KiCad,Pcbnew,6.0.7-1.fc35*%
%TF.CreationDate,2022-11-04T20:07:34+01:00*%
%TF.ProjectId,Ring,52696e67-2e6b-4696-9361-645f70636258,rev?*%
%TF.SameCoordinates,Original*%
%TF.FileFunction,Legend,Top*%
%TF.FilePolarity,Positive*%
%FSLAX46Y46*%
G04 Gerber Fmt 4.6, Leading zero omitted, Abs format (unit mm)*
G04 Created by KiCad (PCBNEW 6.0.7-1.fc35) date 2022-11-04 20:07:34*
%MOMM*%
%LPD*%
G01*
G04 APERTURE LIST*
%ADD10C,0.200000*%
%ADD11C,0.120000*%
%ADD12C,0.100000*%
%ADD13C,0.150000*%
%ADD14C,0.325000*%
%ADD15C,0.250000*%
G04 APERTURE END LIST*
D10*
X165660000Y-76680000D02*
G75*
G03*
X165660000Y-76680000I-1200000J0D01*
G01*
D11*
X169174772Y-95100000D02*
G75*
G03*
X169174772Y-95100000I-18034772J0D01*
G01*
X170990426Y-95100000D02*
G75*
G03*
X170990426Y-95100000I-19850426J0D01*
G01*
D10*
X172130000Y-100470000D02*
G75*
G03*
X172130000Y-100470000I-1200000J0D01*
G01*
X133780000Y-102370000D02*
G75*
G03*
X133780000Y-102370000I-1200000J0D01*
G01*
X139020000Y-76680000D02*
G75*
G03*
X139020000Y-76680000I-1200000J0D01*
G01*
D12*
X166771657Y-87663701D02*
X167398656Y-87352456D01*
X168358343Y-96637802D02*
X169055888Y-96696376D01*
X141399825Y-109376669D02*
X141000326Y-109951473D01*
D13*
X149426698Y-108821186D02*
X149301365Y-109813300D01*
D12*
X166787171Y-102447669D02*
X167420550Y-102745715D01*
X167345070Y-88934872D02*
X167995914Y-88677185D01*
D13*
X147631533Y-77254764D02*
X147473407Y-76470547D01*
D12*
X141343325Y-80867130D02*
X140943826Y-80292326D01*
D13*
X138579326Y-89302614D02*
X137674499Y-88876835D01*
D12*
X146657251Y-111768381D02*
X146483168Y-112446390D01*
D13*
X135604400Y-83665412D02*
X135935679Y-83247443D01*
X136349669Y-84013056D01*
X136219632Y-82889183D02*
X136266958Y-82829473D01*
X136344138Y-82793426D01*
X136397656Y-82787233D01*
X136481029Y-82804704D01*
X136624111Y-82869500D01*
X136773386Y-82987814D01*
X136869144Y-83112320D01*
X136905191Y-83189500D01*
X136911383Y-83243018D01*
X136893912Y-83326391D01*
X136846587Y-83386101D01*
X136769406Y-83422148D01*
X136715889Y-83428340D01*
X136632516Y-83410870D01*
X136489433Y-83346074D01*
X136340158Y-83227760D01*
X136244401Y-83103254D01*
X136208354Y-83026073D01*
X136202162Y-82972555D01*
X136219632Y-82889183D01*
D12*
X168303230Y-92985488D02*
X168997710Y-92897755D01*
X134883052Y-89283741D02*
X134221989Y-89053534D01*
X144974872Y-78894929D02*
X144717185Y-78244085D01*
D13*
X164861186Y-93396698D02*
X165853300Y-93271365D01*
X169218807Y-88326391D02*
X169371844Y-88797390D01*
X168999593Y-88637952D01*
X169034910Y-88746644D01*
X169022223Y-88830878D01*
X168997764Y-88878881D01*
X168937075Y-88938655D01*
X168755921Y-88997516D01*
X168671688Y-88984829D01*
X168623685Y-88960371D01*
X168563910Y-88899681D01*
X168493278Y-88682297D01*
X168505964Y-88598063D01*
X168530423Y-88550061D01*
X169524881Y-89268390D02*
X169548425Y-89340851D01*
X169535738Y-89425085D01*
X169511280Y-89473088D01*
X169450590Y-89532863D01*
X169317439Y-89616182D01*
X169136286Y-89675042D01*
X168979591Y-89685900D01*
X168895357Y-89673213D01*
X168847355Y-89648754D01*
X168787580Y-89588065D01*
X168764036Y-89515603D01*
X168776722Y-89431370D01*
X168801181Y-89383367D01*
X168861870Y-89323592D01*
X168995021Y-89240273D01*
X169176175Y-89181413D01*
X169332870Y-89170555D01*
X169417103Y-89183242D01*
X169465106Y-89207701D01*
X169524881Y-89268390D01*
X169760322Y-89993004D02*
X169783866Y-90065466D01*
X169771180Y-90149699D01*
X169746721Y-90197702D01*
X169686032Y-90257477D01*
X169552881Y-90340796D01*
X169371727Y-90399656D01*
X169215032Y-90410514D01*
X169130799Y-90397827D01*
X169082796Y-90373369D01*
X169023021Y-90312679D01*
X168999477Y-90240218D01*
X169012164Y-90155984D01*
X169036622Y-90107982D01*
X169097312Y-90048207D01*
X169230462Y-89964888D01*
X169411616Y-89906027D01*
X169568311Y-89895170D01*
X169652545Y-89907856D01*
X169700547Y-89932315D01*
X169760322Y-89993004D01*
X164418781Y-109123028D02*
X164095532Y-109446277D01*
X164257157Y-109284653D02*
X163691471Y-108718967D01*
X163718409Y-108853654D01*
X163718409Y-108961404D01*
X163691471Y-109042216D01*
X164337969Y-108072470D02*
X164230219Y-108180219D01*
X164203282Y-108261032D01*
X164203282Y-108314906D01*
X164230219Y-108449593D01*
X164311032Y-108584280D01*
X164526531Y-108799780D01*
X164607343Y-108826717D01*
X164661218Y-108826717D01*
X164742030Y-108799780D01*
X164849780Y-108692030D01*
X164876717Y-108611218D01*
X164876717Y-108557343D01*
X164849780Y-108476531D01*
X164715093Y-108341844D01*
X164634280Y-108314906D01*
X164580406Y-108314906D01*
X164499593Y-108341844D01*
X164391844Y-108449593D01*
X164364906Y-108530406D01*
X164364906Y-108584280D01*
X164391844Y-108665093D01*
X164742030Y-107668409D02*
X164795905Y-107614534D01*
X164876717Y-107587597D01*
X164930592Y-107587597D01*
X165011404Y-107614534D01*
X165146091Y-107695346D01*
X165280778Y-107830033D01*
X165361590Y-107964720D01*
X165388528Y-108045532D01*
X165388528Y-108099407D01*
X165361590Y-108180219D01*
X165307715Y-108234094D01*
X165226903Y-108261032D01*
X165173028Y-108261032D01*
X165092216Y-108234094D01*
X164957529Y-108153282D01*
X164822842Y-108018595D01*
X164742030Y-107883908D01*
X164715093Y-107803096D01*
X164715093Y-107749221D01*
X164742030Y-107668409D01*
X164948511Y-94248405D02*
X165946538Y-94185614D01*
D12*
X136669558Y-104584659D02*
X136086513Y-104972033D01*
X135655042Y-87478901D02*
X135028043Y-87167656D01*
X157006518Y-111404294D02*
X157250519Y-112060391D01*
D13*
X143842397Y-106848042D02*
X143306571Y-107692370D01*
D12*
X152245616Y-112375658D02*
X152289569Y-113074276D01*
X148003737Y-78086057D02*
X147872570Y-77398456D01*
X139327673Y-107704059D02*
X138848490Y-108214337D01*
D13*
X149257829Y-76999922D02*
X149174206Y-76204304D01*
X137534368Y-97655232D02*
X136552080Y-97842613D01*
X133275844Y-91685951D02*
X132489240Y-91540163D01*
D12*
X157305127Y-111305070D02*
X157562814Y-111955914D01*
D14*
X151140000Y-81318571D02*
X151140000Y-79818571D01*
D13*
X137337583Y-85229102D02*
X136528566Y-84641317D01*
X139776201Y-82441884D02*
X139107071Y-81698739D01*
X143217512Y-111534170D02*
X142869327Y-112254425D01*
X154729962Y-76773825D02*
X154691347Y-76800864D01*
X154587078Y-76816326D01*
X154521424Y-76804749D01*
X154428732Y-76754558D01*
X154374655Y-76677327D01*
X154353404Y-76605885D01*
X154343730Y-76468789D01*
X154361095Y-76370308D01*
X154417075Y-76244789D01*
X154461479Y-76184923D01*
X154538709Y-76130846D01*
X154642978Y-76115384D01*
X154708632Y-76126961D01*
X154801324Y-76177152D01*
X154828363Y-76215767D01*
D12*
X154117069Y-78058672D02*
X154233808Y-77368474D01*
D13*
X144408494Y-78194356D02*
X144102348Y-77455252D01*
X162414016Y-103134097D02*
X163223033Y-103721882D01*
D15*
X159108194Y-83981967D02*
X160283764Y-82363933D01*
D13*
X150921428Y-75801904D02*
X150769047Y-75801904D01*
X150692857Y-75840000D01*
X150654761Y-75878095D01*
X150578571Y-75992380D01*
X150540476Y-76144761D01*
X150540476Y-76449523D01*
X150578571Y-76525714D01*
X150616666Y-76563809D01*
X150692857Y-76601904D01*
X150845238Y-76601904D01*
X150921428Y-76563809D01*
X150959523Y-76525714D01*
X150997619Y-76449523D01*
X150997619Y-76259047D01*
X150959523Y-76182857D01*
X150921428Y-76144761D01*
X150845238Y-76106666D01*
X150692857Y-76106666D01*
X150616666Y-76144761D01*
X150578571Y-76182857D01*
X150540476Y-76259047D01*
X151492857Y-75801904D02*
X151569047Y-75801904D01*
X151645238Y-75840000D01*
X151683333Y-75878095D01*
X151721428Y-75954285D01*
X151759523Y-76106666D01*
X151759523Y-76297142D01*
X151721428Y-76449523D01*
X151683333Y-76525714D01*
X151645238Y-76563809D01*
X151569047Y-76601904D01*
X151492857Y-76601904D01*
X151416666Y-76563809D01*
X151378571Y-76525714D01*
X151340476Y-76449523D01*
X151302380Y-76297142D01*
X151302380Y-76106666D01*
X151340476Y-75954285D01*
X151378571Y-75878095D01*
X151416666Y-75840000D01*
X151492857Y-75801904D01*
D12*
X158761098Y-79615042D02*
X159072343Y-78988043D01*
D13*
X137418813Y-96803301D02*
X136426699Y-96928634D01*
X141415515Y-79724546D02*
X140983323Y-79051338D01*
D12*
X155336348Y-111927781D02*
X155510431Y-112605790D01*
D13*
X169298933Y-96445384D02*
X170097080Y-96499797D01*
D12*
X133863856Y-96529202D02*
X133166311Y-96587776D01*
X136863330Y-85359825D02*
X136288526Y-84960326D01*
X134059069Y-92502459D02*
X133366578Y-92400201D01*
X134835705Y-100966518D02*
X134179608Y-101210519D01*
X148714559Y-77973969D02*
X148612301Y-77281478D01*
D13*
X146116532Y-82210613D02*
X145748407Y-81280836D01*
D15*
X143211805Y-84001967D02*
X142036235Y-82383933D01*
D12*
X158487669Y-79452828D02*
X158785715Y-78819449D01*
X165835429Y-85965378D02*
X166426459Y-85590299D01*
D13*
X142284471Y-77987654D02*
X142149430Y-78058252D01*
X142099559Y-78127311D01*
X142083449Y-78178720D01*
X142068877Y-78315299D01*
X142105714Y-78467989D01*
X142246909Y-78738070D01*
X142315968Y-78787941D01*
X142367377Y-78804052D01*
X142452547Y-78802513D01*
X142587587Y-78731916D01*
X142637458Y-78662857D01*
X142653569Y-78611447D01*
X142652031Y-78526278D01*
X142563784Y-78357477D01*
X142494725Y-78307606D01*
X142443315Y-78291495D01*
X142358146Y-78293034D01*
X142223105Y-78363631D01*
X142173234Y-78432690D01*
X142157123Y-78484100D01*
X142158662Y-78569270D01*
X142993434Y-77617017D02*
X142655832Y-77793511D01*
X142798566Y-78148762D01*
X142814677Y-78097352D01*
X142864548Y-78028293D01*
X143033348Y-77940047D01*
X143118518Y-77938508D01*
X143169927Y-77954619D01*
X143238986Y-78004490D01*
X143327233Y-78173290D01*
X143328772Y-78258460D01*
X143312661Y-78309869D01*
X143262790Y-78378928D01*
X143093989Y-78467175D01*
X143008820Y-78468714D01*
X142957410Y-78452603D01*
X138250613Y-100123467D02*
X137320836Y-100491592D01*
X137738168Y-98487497D02*
X136769585Y-98736187D01*
D15*
X151150000Y-108971904D02*
X151150000Y-110271904D01*
D12*
X165416669Y-104840174D02*
X165991473Y-105239673D01*
D13*
X148574767Y-108675631D02*
X148387386Y-109657919D01*
D12*
X162945326Y-107711059D02*
X163424509Y-108221337D01*
D13*
X139391957Y-87802397D02*
X138547629Y-87266571D01*
D12*
X159034589Y-79739031D02*
X159358896Y-79118688D01*
X140163650Y-108491004D02*
X139717454Y-109030363D01*
D13*
X153695232Y-108705631D02*
X153882613Y-109687919D01*
X149292786Y-111980797D02*
X149188258Y-112975319D01*
X145342614Y-107660673D02*
X144916835Y-108565500D01*
D12*
X137511869Y-84423296D02*
X136963284Y-83988493D01*
X167967781Y-90903651D02*
X168645790Y-90729568D01*
D13*
X134146490Y-101586773D02*
X133402669Y-101881273D01*
D15*
X138130479Y-90939586D02*
X136228366Y-90321552D01*
D13*
X156937385Y-82539326D02*
X157363164Y-81634499D01*
X137331488Y-95951594D02*
X136333461Y-96014385D01*
D12*
X157629186Y-111167876D02*
X157900447Y-111813180D01*
D13*
X134219902Y-96852713D02*
X133225380Y-96957241D01*
D12*
X155971942Y-78518801D02*
X156160185Y-77844587D01*
D13*
X141019771Y-104530323D02*
X140290802Y-105214871D01*
X156278606Y-111321660D02*
X156587623Y-112272716D01*
X137564368Y-92534767D02*
X136582080Y-92347386D01*
X164948511Y-95961594D02*
X165946538Y-96024385D01*
D12*
X168111382Y-98426142D02*
X168798983Y-98557309D01*
D13*
X135313418Y-86110952D02*
X134620598Y-85710952D01*
D12*
X134237599Y-98985288D02*
X133556094Y-99145134D01*
D15*
X164149520Y-99260413D02*
X166051633Y-99878447D01*
D12*
X142005378Y-80404570D02*
X141630299Y-79813540D01*
X164449104Y-84079850D02*
X164988463Y-83633654D01*
D13*
X167253060Y-100512306D02*
X168204116Y-100821323D01*
D12*
X157864786Y-79178823D02*
X158136047Y-78533519D01*
X156956258Y-78843052D02*
X157186465Y-78181989D01*
X164255884Y-106312583D02*
X164785781Y-106769977D01*
X156009373Y-111728148D02*
X156211695Y-112398272D01*
X146619857Y-78384801D02*
X146431614Y-77710587D01*
D13*
X145056529Y-113387669D02*
X144617761Y-113259364D01*
X144837145Y-113323516D02*
X145061678Y-112555672D01*
X144956474Y-112643980D01*
X144861962Y-112695724D01*
X144778142Y-112710904D01*
X145787809Y-113601510D02*
X145349041Y-113473205D01*
X145568425Y-113537358D02*
X145792958Y-112769513D01*
X145687754Y-112857821D01*
X145593242Y-112909565D01*
X145509422Y-112924745D01*
X146487674Y-112972663D02*
X146560802Y-112994047D01*
X146623238Y-113051995D01*
X146649110Y-113099251D01*
X146664290Y-113183071D01*
X146658086Y-113340019D01*
X146604626Y-113522839D01*
X146525293Y-113658403D01*
X146467345Y-113720839D01*
X146420089Y-113746711D01*
X146336269Y-113761891D01*
X146263141Y-113740507D01*
X146200705Y-113682559D01*
X146174833Y-113635303D01*
X146159653Y-113551483D01*
X146165858Y-113394534D01*
X146219318Y-113211714D01*
X146298650Y-113076150D01*
X146356598Y-113013714D01*
X146403854Y-112987842D01*
X146487674Y-112972663D01*
D12*
X158576298Y-110731657D02*
X158887543Y-111358656D01*
X153375811Y-77956469D02*
X153463544Y-77261989D01*
D13*
X136216092Y-105531902D02*
X135561572Y-105991907D01*
X145332614Y-82549326D02*
X144906835Y-81644499D01*
X147682855Y-78446095D02*
X147474943Y-77467947D01*
D12*
X139334673Y-82488940D02*
X138855490Y-81978662D01*
X168415658Y-93994383D02*
X169114276Y-93950430D01*
X140693656Y-81329234D02*
X140270437Y-80771663D01*
X168266030Y-92674559D02*
X168958521Y-92572301D01*
X139866916Y-108260284D02*
X139409522Y-108790181D01*
X168373958Y-96276116D02*
X169072576Y-96320069D01*
D13*
X140428565Y-86358358D02*
X139658052Y-85720934D01*
D12*
X168220930Y-97697540D02*
X168913421Y-97799798D01*
D13*
X168837088Y-99319820D02*
X169617208Y-99497059D01*
D12*
X143245410Y-110460968D02*
X142921103Y-111081311D01*
D13*
X161260228Y-85669676D02*
X161989197Y-84985128D01*
X154537497Y-81688168D02*
X154786187Y-80719585D01*
D12*
X168042400Y-91214711D02*
X168723905Y-91054865D01*
D13*
X167461351Y-87081574D02*
X168165732Y-86702304D01*
X132961304Y-96189167D02*
X132162631Y-96235218D01*
X168429734Y-101940164D02*
X168405275Y-101892161D01*
X168392588Y-101807927D01*
X168451449Y-101626774D01*
X168511224Y-101566084D01*
X168559226Y-101541626D01*
X168643460Y-101528939D01*
X168715921Y-101552483D01*
X168812842Y-101624030D01*
X169106345Y-102200064D01*
X169259382Y-101729064D01*
X168651574Y-101010851D02*
X168675118Y-100938390D01*
X168734893Y-100877701D01*
X168782896Y-100853242D01*
X168867129Y-100840555D01*
X169023824Y-100851413D01*
X169204978Y-100910273D01*
X169338129Y-100993592D01*
X169398818Y-101053367D01*
X169423277Y-101101370D01*
X169435963Y-101185603D01*
X169412419Y-101258065D01*
X169352644Y-101318754D01*
X169304642Y-101343213D01*
X169220408Y-101355900D01*
X169063713Y-101345042D01*
X168882560Y-101286182D01*
X168749409Y-101202863D01*
X168688719Y-101143088D01*
X168664261Y-101095085D01*
X168651574Y-101010851D01*
X168887016Y-100286237D02*
X168910560Y-100213775D01*
X168970335Y-100153086D01*
X169018337Y-100128627D01*
X169102571Y-100115941D01*
X169259266Y-100126798D01*
X169440420Y-100185659D01*
X169573570Y-100268978D01*
X169634260Y-100328753D01*
X169658718Y-100376755D01*
X169671405Y-100460989D01*
X169647861Y-100533450D01*
X169588086Y-100594140D01*
X169540083Y-100618598D01*
X169455850Y-100631285D01*
X169299155Y-100620427D01*
X169118001Y-100561567D01*
X168984850Y-100478248D01*
X168924161Y-100418473D01*
X168899702Y-100370470D01*
X168887016Y-100286237D01*
X150288405Y-81291488D02*
X150225614Y-80293461D01*
D12*
X138798049Y-83025760D02*
X138297918Y-82535995D01*
X136489670Y-85920278D02*
X135898640Y-85545199D01*
D13*
X138255905Y-107974094D02*
X137690219Y-108539780D01*
D12*
X140788256Y-108939965D02*
X140365037Y-109497536D01*
D13*
X161067397Y-108871316D02*
X161655182Y-109680333D01*
X139991813Y-80735960D02*
X139501488Y-80103836D01*
D12*
X161873203Y-108633530D02*
X162308006Y-109182115D01*
D13*
X158985184Y-77851291D02*
X159196656Y-77949902D01*
X159132327Y-78324477D02*
X158830224Y-78183604D01*
X159126057Y-77549189D01*
X159428160Y-77690062D01*
X164967619Y-95100000D02*
X165967619Y-95100000D01*
X158457602Y-106828042D02*
X158993428Y-107672370D01*
D12*
X165790329Y-104279721D02*
X166381359Y-104654800D01*
X136444570Y-104234621D02*
X135853540Y-104609700D01*
X135492828Y-87752330D02*
X134859449Y-87454284D01*
X140463296Y-108728130D02*
X140028493Y-109276715D01*
D13*
X133059506Y-97178403D02*
X132264808Y-97270353D01*
X164029386Y-100103467D02*
X164959163Y-100471592D01*
X134745829Y-87197512D02*
X134025574Y-86849327D01*
D12*
X134126057Y-98236262D02*
X133438456Y-98367429D01*
X134934929Y-101265127D02*
X134284085Y-101522814D01*
X135107029Y-88699272D02*
X134456185Y-88441585D01*
D13*
X158437602Y-83351957D02*
X158973428Y-82507629D01*
X138966424Y-88547936D02*
X138090117Y-88066182D01*
D12*
X144739272Y-111132970D02*
X144481585Y-111783814D01*
X149602197Y-112318343D02*
X149543623Y-113015888D01*
X167721198Y-99931942D02*
X168395412Y-100120185D01*
X134511851Y-99969373D02*
X133841727Y-100171695D01*
X153901789Y-112201667D02*
X154018528Y-112891865D01*
D13*
X149387286Y-78179902D02*
X149282758Y-77185380D01*
D12*
X146270626Y-78471851D02*
X146068304Y-77801727D01*
X162421783Y-108210184D02*
X162879177Y-108740081D01*
X164910765Y-84653656D02*
X165468336Y-84230437D01*
X149963883Y-112333958D02*
X149919930Y-113032576D01*
D13*
X141049771Y-85639676D02*
X140320802Y-84955128D01*
X133588058Y-99970852D02*
X132818665Y-100190020D01*
X164541831Y-91712502D02*
X165510414Y-91463812D01*
D12*
X134312218Y-99296348D02*
X133634209Y-99470431D01*
D13*
X156024313Y-76823901D02*
X155938040Y-77145876D01*
X155893831Y-76409337D02*
X156024313Y-76823901D01*
X156344596Y-76530119D01*
D12*
X143404810Y-79630431D02*
X143080503Y-79010088D01*
D13*
X137331488Y-94238405D02*
X136333461Y-94175614D01*
D12*
X134723652Y-100680658D02*
X134062589Y-100910865D01*
X166933871Y-87962530D02*
X167567250Y-87664484D01*
D13*
X146136532Y-107989386D02*
X145768407Y-108919163D01*
D12*
X135508342Y-102536298D02*
X134881343Y-102847543D01*
X145984226Y-111594148D02*
X145781904Y-112264272D01*
D13*
X164551831Y-98497497D02*
X165520414Y-98746187D01*
X154527497Y-108501831D02*
X154776187Y-109470414D01*
X144445399Y-79458270D02*
X144038663Y-78544725D01*
X164691052Y-82942161D02*
X165285568Y-82406857D01*
D12*
X150345260Y-77799288D02*
X150315947Y-77099902D01*
X163744059Y-106912326D02*
X164254337Y-107391509D01*
X135670431Y-102835189D02*
X135050088Y-103159496D01*
X160274621Y-109795429D02*
X160649700Y-110386459D01*
D13*
X148609116Y-113141443D02*
X148500543Y-113934041D01*
X164745631Y-92544767D02*
X165727919Y-92357386D01*
D12*
X154276262Y-112113942D02*
X154407429Y-112801543D01*
D13*
X167788617Y-102414533D02*
X168521147Y-102736091D01*
D12*
X167297594Y-101214818D02*
X167953691Y-101458819D01*
X146943651Y-78272218D02*
X146769568Y-77594209D01*
D13*
X138893566Y-81637676D02*
X138355156Y-81045971D01*
X132981304Y-93960832D02*
X132182631Y-93914781D01*
D12*
X134358899Y-90979111D02*
X133677394Y-90819265D01*
D13*
X134259202Y-93252786D02*
X133264680Y-93148258D01*
X162472698Y-82423484D02*
X163141828Y-81680339D01*
X158044800Y-79579570D02*
X158451536Y-78666025D01*
D12*
X152316116Y-77866041D02*
X152360069Y-77167423D01*
X162952326Y-82495940D02*
X163431509Y-81985662D01*
X165372869Y-85303325D02*
X165947673Y-84903826D01*
D13*
X147742502Y-108511831D02*
X147493812Y-109480414D01*
X134831594Y-103164012D02*
X134120701Y-103530932D01*
X155413673Y-112798541D02*
X155604500Y-113575449D01*
X146939793Y-108279760D02*
X146630776Y-109230816D01*
D12*
X160936674Y-109332869D02*
X161336173Y-109907673D01*
D13*
X142398358Y-105811434D02*
X141760934Y-106581947D01*
X134479056Y-102439345D02*
X133751667Y-102772370D01*
X139865983Y-87065902D02*
X139056966Y-86478117D01*
D12*
X166624957Y-102721098D02*
X167251956Y-103032343D01*
X168241667Y-92338210D02*
X168931865Y-92221471D01*
X144650813Y-79032123D02*
X144379552Y-78386819D01*
X145323741Y-111356947D02*
X145093534Y-112018010D01*
X151934739Y-112400711D02*
X151964052Y-113100097D01*
X138803749Y-107167239D02*
X138303618Y-107657004D01*
X160880174Y-80823330D02*
X161279673Y-80248526D01*
D13*
X161851434Y-86348358D02*
X162621947Y-85710934D01*
X154597144Y-111753904D02*
X154805056Y-112732052D01*
D12*
X164673530Y-84366796D02*
X165222115Y-83931993D01*
X161586343Y-108870765D02*
X162009562Y-109428336D01*
D13*
X142388358Y-84388565D02*
X141750934Y-83618052D01*
X135999324Y-84983420D02*
X135337659Y-84533753D01*
X170311904Y-94169523D02*
X170350000Y-94207619D01*
X170388095Y-94283809D01*
X170388095Y-94474285D01*
X170350000Y-94550476D01*
X170311904Y-94588571D01*
X170235714Y-94626666D01*
X170159523Y-94626666D01*
X170045238Y-94588571D01*
X169588095Y-94131428D01*
X169588095Y-94626666D01*
X170121428Y-95312380D02*
X169588095Y-95312380D01*
X170426190Y-95121904D02*
X169854761Y-94931428D01*
X169854761Y-95426666D01*
X170388095Y-95883809D02*
X170388095Y-95960000D01*
X170350000Y-96036190D01*
X170311904Y-96074285D01*
X170235714Y-96112380D01*
X170083333Y-96150476D01*
X169892857Y-96150476D01*
X169740476Y-96112380D01*
X169664285Y-96074285D01*
X169626190Y-96036190D01*
X169588095Y-95960000D01*
X169588095Y-95883809D01*
X169626190Y-95807619D01*
X169664285Y-95769523D01*
X169740476Y-95731428D01*
X169892857Y-95693333D01*
X170083333Y-95693333D01*
X170235714Y-95731428D01*
X170311904Y-95769523D01*
X170350000Y-95807619D01*
X170388095Y-95883809D01*
X161851434Y-103841641D02*
X162621947Y-104479065D01*
D12*
X136676558Y-85646440D02*
X136093513Y-85259066D01*
X134038332Y-97861789D02*
X133348134Y-97978528D01*
X137300034Y-84748256D02*
X136742463Y-84325037D01*
D13*
X162868042Y-87782397D02*
X163712370Y-87246571D01*
D12*
X164979965Y-105451743D02*
X165537536Y-105874962D01*
X156720658Y-111516347D02*
X156950865Y-112177410D01*
D13*
X155350206Y-108259760D02*
X155659223Y-109210816D01*
X137418813Y-93386698D02*
X136426699Y-93261365D01*
D12*
X133864341Y-96205616D02*
X133165723Y-96249569D01*
X145273481Y-78795705D02*
X145029480Y-78139608D01*
X139858216Y-81989815D02*
X139400822Y-81459918D01*
D13*
X163313575Y-101652063D02*
X164189882Y-102133817D01*
D12*
X140406796Y-81566469D02*
X139971993Y-81017884D01*
X134982405Y-88985181D02*
X134326308Y-88741180D01*
D13*
X137728168Y-91702502D02*
X136759585Y-91453812D01*
X152987213Y-78219202D02*
X153091741Y-77224680D01*
D12*
X167921100Y-99220888D02*
X168602605Y-99380734D01*
X139072760Y-82763749D02*
X138582995Y-82263618D01*
X155025288Y-112002400D02*
X155185134Y-112683905D01*
X138024115Y-83887416D02*
X137494218Y-83430022D01*
X166609568Y-87364810D02*
X167229911Y-87040503D01*
D13*
X156502242Y-77301845D02*
X156712736Y-76634243D01*
X156784917Y-77181266D01*
X157157804Y-76774573D01*
X156947310Y-77442175D01*
X140428565Y-103851641D02*
X139658052Y-104489065D01*
D12*
X139065760Y-107441950D02*
X138575995Y-107942081D01*
D13*
X167361660Y-89961393D02*
X168312716Y-89652376D01*
D12*
X149710797Y-77823856D02*
X149652223Y-77126311D01*
D13*
X163798115Y-83736201D02*
X164541260Y-83067071D01*
D12*
X146308057Y-111681198D02*
X146119814Y-112355412D01*
D13*
X152853301Y-81378813D02*
X152978634Y-80386699D01*
X150646666Y-114351904D02*
X150189523Y-114351904D01*
X150418095Y-114351904D02*
X150418095Y-113551904D01*
X150341904Y-113666190D01*
X150265714Y-113742380D01*
X150189523Y-113780476D01*
X150951428Y-113628095D02*
X150989523Y-113590000D01*
X151065714Y-113551904D01*
X151256190Y-113551904D01*
X151332380Y-113590000D01*
X151370476Y-113628095D01*
X151408571Y-113704285D01*
X151408571Y-113780476D01*
X151370476Y-113894761D01*
X150913333Y-114351904D01*
X151408571Y-114351904D01*
X151903809Y-113551904D02*
X151980000Y-113551904D01*
X152056190Y-113590000D01*
X152094285Y-113628095D01*
X152132380Y-113704285D01*
X152170476Y-113856666D01*
X152170476Y-114047142D01*
X152132380Y-114199523D01*
X152094285Y-114275714D01*
X152056190Y-114313809D01*
X151980000Y-114351904D01*
X151903809Y-114351904D01*
X151827619Y-114313809D01*
X151789523Y-114275714D01*
X151751428Y-114199523D01*
X151713333Y-114047142D01*
X151713333Y-113856666D01*
X151751428Y-113704285D01*
X151789523Y-113628095D01*
X151827619Y-113590000D01*
X151903809Y-113551904D01*
X167793904Y-91642855D02*
X168772052Y-91434943D01*
X163923343Y-80659472D02*
X163645640Y-80398692D01*
X163357090Y-80650317D01*
X163410939Y-80648624D01*
X163492557Y-80673010D01*
X163631408Y-80803400D01*
X163660871Y-80883326D01*
X163662563Y-80937174D01*
X163638177Y-81018793D01*
X163507787Y-81157644D01*
X163427861Y-81187106D01*
X163374013Y-81188799D01*
X163292394Y-81164413D01*
X163153543Y-81034023D01*
X163124081Y-80954097D01*
X163122389Y-80900249D01*
X164312126Y-81024564D02*
X164367667Y-81076720D01*
X164397129Y-81156646D01*
X164398821Y-81210494D01*
X164374436Y-81292113D01*
X164297894Y-81429272D01*
X164167504Y-81568123D01*
X164035422Y-81653126D01*
X163955496Y-81682588D01*
X163901647Y-81684280D01*
X163820029Y-81659895D01*
X163764488Y-81607739D01*
X163735026Y-81527813D01*
X163733334Y-81473964D01*
X163757719Y-81392346D01*
X163834261Y-81255187D01*
X163964651Y-81116336D01*
X164096733Y-81031333D01*
X164176659Y-81001870D01*
X164230508Y-81000178D01*
X164312126Y-81024564D01*
X164867531Y-81546124D02*
X164923071Y-81598280D01*
X164952534Y-81678206D01*
X164954226Y-81732054D01*
X164929840Y-81813672D01*
X164853299Y-81950831D01*
X164722909Y-82089682D01*
X164590826Y-82174685D01*
X164510900Y-82204148D01*
X164457052Y-82205840D01*
X164375434Y-82181454D01*
X164319893Y-82129298D01*
X164290431Y-82049372D01*
X164288738Y-81995524D01*
X164313124Y-81913906D01*
X164389666Y-81776747D01*
X164520056Y-81637895D01*
X164652138Y-81552893D01*
X164732064Y-81523430D01*
X164785912Y-81521738D01*
X164867531Y-81546124D01*
D12*
X167855198Y-90579857D02*
X168529412Y-90391614D01*
X161491743Y-81260034D02*
X161914962Y-80702463D01*
X168153942Y-91963737D02*
X168841543Y-91832570D01*
X135779031Y-87205410D02*
X135158688Y-86881103D01*
D13*
X157516147Y-77251712D02*
X157735408Y-77331517D01*
X157703970Y-77710273D02*
X157390739Y-77596266D01*
X157630153Y-76938481D01*
X157943384Y-77052488D01*
X156947385Y-107650673D02*
X157373164Y-108555500D01*
D12*
X133839288Y-95894739D02*
X133139902Y-95924052D01*
D13*
X146929793Y-81940239D02*
X146620776Y-80989183D01*
X141212602Y-81328683D02*
X140624817Y-80519666D01*
D12*
X163751059Y-83294673D02*
X164261337Y-82815490D01*
X167207876Y-88610813D02*
X167853180Y-88339552D01*
D13*
X141709676Y-84979771D02*
X141025128Y-84250802D01*
X152904013Y-112038597D02*
X153008541Y-113033119D01*
X156163467Y-107989386D02*
X156531592Y-108919163D01*
X156552306Y-78986939D02*
X156861323Y-78035883D01*
X138976424Y-101672063D02*
X138100117Y-102153817D01*
X164911316Y-85172602D02*
X165720333Y-84584817D01*
X133196515Y-98117778D02*
X132408428Y-98255321D01*
D12*
X152569202Y-112376143D02*
X152627776Y-113073688D01*
X134558801Y-90268057D02*
X133884587Y-90079814D01*
X152677802Y-77881656D02*
X152736376Y-77184111D01*
D13*
X144567936Y-82936424D02*
X144086182Y-82060117D01*
X168020797Y-96947213D02*
X169015319Y-97051741D01*
D12*
X133921656Y-93562197D02*
X133224111Y-93503623D01*
X148162930Y-112141327D02*
X148046191Y-112831525D01*
X137369234Y-105546343D02*
X136811663Y-105969562D01*
X167808381Y-99582748D02*
X168486390Y-99756831D01*
X156295773Y-78605851D02*
X156498095Y-77935727D01*
X155260888Y-78318899D02*
X155420734Y-77637394D01*
X141960278Y-109750329D02*
X141585199Y-110341359D01*
X167172970Y-101500727D02*
X167823814Y-101758414D01*
D13*
X166660429Y-102004800D02*
X167573974Y-102411536D01*
X141679676Y-105190228D02*
X140995128Y-105919197D01*
X160600323Y-85009771D02*
X161284871Y-84280802D01*
X152794170Y-75890694D02*
X153192648Y-75925556D01*
X152932400Y-76605461D02*
X152993409Y-75908125D01*
X147447255Y-111696104D02*
X147239343Y-112674252D01*
X161797277Y-109867212D02*
X162267505Y-110514426D01*
X134543895Y-91407255D02*
X133565747Y-91199343D01*
D12*
X147254711Y-78197599D02*
X147094865Y-77516094D01*
X143703701Y-79468342D02*
X143392456Y-78841343D01*
D13*
X138250613Y-90096532D02*
X137320836Y-89728407D01*
D12*
X147019111Y-111881100D02*
X146859265Y-112562605D01*
X153254511Y-112263230D02*
X153342244Y-112957710D01*
X168416143Y-93670797D02*
X169113688Y-93612223D01*
D13*
X137282380Y-95100000D02*
X136282380Y-95100000D01*
D12*
X164768130Y-105776703D02*
X165316715Y-106211506D01*
D13*
X132204761Y-95617142D02*
X132166666Y-95693333D01*
X132128571Y-95731428D01*
X132052380Y-95769523D01*
X132014285Y-95769523D01*
X131938095Y-95731428D01*
X131900000Y-95693333D01*
X131861904Y-95617142D01*
X131861904Y-95464761D01*
X131900000Y-95388571D01*
X131938095Y-95350476D01*
X132014285Y-95312380D01*
X132052380Y-95312380D01*
X132128571Y-95350476D01*
X132166666Y-95388571D01*
X132204761Y-95464761D01*
X132204761Y-95617142D01*
X132242857Y-95693333D01*
X132280952Y-95731428D01*
X132357142Y-95769523D01*
X132509523Y-95769523D01*
X132585714Y-95731428D01*
X132623809Y-95693333D01*
X132661904Y-95617142D01*
X132661904Y-95464761D01*
X132623809Y-95388571D01*
X132585714Y-95350476D01*
X132509523Y-95312380D01*
X132357142Y-95312380D01*
X132280952Y-95350476D01*
X132242857Y-95388571D01*
X132204761Y-95464761D01*
X131861904Y-94817142D02*
X131861904Y-94740952D01*
X131900000Y-94664761D01*
X131938095Y-94626666D01*
X132014285Y-94588571D01*
X132166666Y-94550476D01*
X132357142Y-94550476D01*
X132509523Y-94588571D01*
X132585714Y-94626666D01*
X132623809Y-94664761D01*
X132661904Y-94740952D01*
X132661904Y-94817142D01*
X132623809Y-94893333D01*
X132585714Y-94931428D01*
X132509523Y-94969523D01*
X132357142Y-95007619D01*
X132166666Y-95007619D01*
X132014285Y-94969523D01*
X131938095Y-94931428D01*
X131900000Y-94893333D01*
X131861904Y-94817142D01*
D12*
X144415213Y-111021176D02*
X144143952Y-111666480D01*
X155660142Y-111815198D02*
X155848385Y-112489412D01*
D13*
X165731350Y-105971696D02*
X166369417Y-106454262D01*
X133551001Y-90478165D02*
X132775103Y-90283273D01*
X164029386Y-90076532D02*
X164959163Y-89708407D01*
D12*
X135072123Y-101589186D02*
X134426819Y-101860447D01*
D13*
X134049914Y-104029072D02*
X134126105Y-104161037D01*
X134197191Y-104207973D01*
X134249230Y-104221917D01*
X134386300Y-104230757D01*
X134537313Y-104187558D01*
X134801245Y-104035177D01*
X134848180Y-103964090D01*
X134862124Y-103912051D01*
X134857020Y-103827020D01*
X134780830Y-103695055D01*
X134709743Y-103648119D01*
X134657704Y-103634175D01*
X134572673Y-103639279D01*
X134407716Y-103734517D01*
X134360781Y-103805604D01*
X134346837Y-103857643D01*
X134351941Y-103942674D01*
X134428131Y-104074639D01*
X134499218Y-104121575D01*
X134551257Y-104135518D01*
X134636288Y-104130415D01*
X135180830Y-104387875D02*
X135218925Y-104453858D01*
X135224029Y-104538888D01*
X135210085Y-104590927D01*
X135163150Y-104662014D01*
X135050231Y-104771196D01*
X134885274Y-104866434D01*
X134734261Y-104909633D01*
X134649230Y-104914737D01*
X134597191Y-104900793D01*
X134526105Y-104853858D01*
X134488009Y-104787875D01*
X134482906Y-104702844D01*
X134496849Y-104650805D01*
X134543785Y-104579719D01*
X134656703Y-104470537D01*
X134821660Y-104375299D01*
X134972673Y-104332100D01*
X135057704Y-104326996D01*
X135109743Y-104340940D01*
X135180830Y-104387875D01*
D12*
X144002530Y-79306128D02*
X143704484Y-78672749D01*
X167396947Y-100916258D02*
X168058010Y-101146465D01*
D13*
X164861186Y-96813301D02*
X165853300Y-96938634D01*
X168078597Y-93335986D02*
X169073119Y-93231458D01*
D12*
X136907130Y-104896674D02*
X136332326Y-105296173D01*
X138029815Y-106381783D02*
X137499918Y-106839177D01*
X148542459Y-112180930D02*
X148440201Y-112873421D01*
X145559341Y-78683652D02*
X145329134Y-78022589D01*
D13*
X166781729Y-88405399D02*
X167695274Y-87998663D01*
D12*
X168181327Y-98077069D02*
X168871525Y-98193808D01*
D13*
X133882187Y-100892175D02*
X133125772Y-101152629D01*
D12*
X137748995Y-84123650D02*
X137209636Y-83677454D01*
X134013969Y-97525440D02*
X133321478Y-97627698D01*
D13*
X159891641Y-105811434D02*
X160529065Y-106581947D01*
X145828224Y-77695344D02*
X145588991Y-76931951D01*
D12*
X134424801Y-99620142D02*
X133750587Y-99808385D01*
X166500968Y-102994589D02*
X167121311Y-103318896D01*
X158277469Y-110893871D02*
X158575515Y-111527250D01*
X161816703Y-81471869D02*
X162251506Y-80923284D01*
D13*
X163816515Y-106432698D02*
X164559660Y-107101828D01*
X169141795Y-97728381D02*
X169933616Y-97842485D01*
D12*
X133996469Y-92864188D02*
X133301989Y-92776455D01*
D13*
X165917212Y-84462722D02*
X166564426Y-83992494D01*
D12*
X153565440Y-112226030D02*
X153667698Y-112918521D01*
X143792330Y-110747171D02*
X143494284Y-111380550D01*
D15*
X143231805Y-106228032D02*
X142056235Y-107846066D01*
D13*
X152001594Y-81291488D02*
X152064385Y-80293461D01*
D12*
X133976769Y-97214511D02*
X133282289Y-97302244D01*
D13*
X155340206Y-81920239D02*
X155649223Y-80969183D01*
D12*
X141655340Y-80629558D02*
X141267966Y-80046513D01*
D13*
X137216421Y-106836405D02*
X136605384Y-107352771D01*
X152843301Y-108821186D02*
X152968634Y-109813300D01*
X139807301Y-107776515D02*
X139138171Y-108519660D01*
D12*
X154466142Y-78128617D02*
X154597309Y-77441016D01*
D13*
X168887229Y-91130795D02*
X169667038Y-90952195D01*
D12*
X155622748Y-78431618D02*
X155796831Y-77753609D01*
D13*
X163303575Y-88527936D02*
X164179882Y-88046182D01*
X167736104Y-98792744D02*
X168714252Y-99000656D01*
X159881641Y-84388565D02*
X160519065Y-83618052D01*
D12*
X163207239Y-107436250D02*
X163697004Y-107936381D01*
X141686440Y-109563441D02*
X141299066Y-110146486D01*
D13*
X135619570Y-88195199D02*
X134706025Y-87788463D01*
X138589326Y-100907385D02*
X137684499Y-101333164D01*
X141269102Y-108902416D02*
X140681317Y-109711433D01*
D15*
X159108194Y-106198032D02*
X160283764Y-107816066D01*
D12*
X153737540Y-78019069D02*
X153839798Y-77326578D01*
D13*
X144235199Y-110620429D02*
X143828463Y-111533974D01*
D12*
X167634148Y-100255773D02*
X168304272Y-100458095D01*
D13*
X156143467Y-82210613D02*
X156511592Y-81280836D01*
X135498270Y-101794600D02*
X134584725Y-102201336D01*
D12*
X143510801Y-110636357D02*
X143199556Y-111263356D01*
X151976739Y-77844388D02*
X152006052Y-77145002D01*
X134471618Y-90617251D02*
X133793609Y-90443168D01*
X160319721Y-80449670D02*
X160694800Y-79858640D01*
D13*
X137368683Y-105027397D02*
X136559666Y-105615182D01*
D12*
X134645851Y-89944226D02*
X133975727Y-89741904D01*
X150303260Y-112355611D02*
X150273947Y-113054997D01*
D13*
X157834600Y-110741729D02*
X158241336Y-111655274D01*
D15*
X164129520Y-90919586D02*
X166031633Y-90301552D01*
D13*
X155066201Y-76935872D02*
X155217709Y-76252465D01*
X155145562Y-76577897D02*
X155536081Y-76664473D01*
X155456719Y-77022448D02*
X155608227Y-76339041D01*
D12*
X137606469Y-105833203D02*
X137057884Y-106268006D01*
D13*
X162888042Y-102397602D02*
X163732370Y-102933428D01*
X163690673Y-89292614D02*
X164595500Y-88866835D01*
D12*
X138535940Y-83287673D02*
X138025662Y-82808490D01*
X149025488Y-77936769D02*
X148937755Y-77242289D01*
D13*
X134285788Y-88254986D02*
X133543519Y-87956595D01*
D12*
X162352583Y-81984115D02*
X162809977Y-81454218D01*
X150034383Y-77824341D02*
X149990430Y-77125723D01*
X140119850Y-81790895D02*
X139673654Y-81251536D01*
X148904188Y-112243530D02*
X148816455Y-112938010D01*
D13*
X169190792Y-92954105D02*
X169984829Y-92856609D01*
D12*
X157540727Y-79067029D02*
X157798414Y-78416185D01*
D13*
X149436698Y-81378813D02*
X149311365Y-80386699D01*
X150278405Y-108908511D02*
X150215614Y-109906538D01*
X138463484Y-83767301D02*
X137720339Y-83098171D01*
X162503798Y-107758115D02*
X163172928Y-108501260D01*
X146001393Y-78878339D02*
X145692376Y-77927283D01*
X139515801Y-110439301D02*
X139145965Y-110170599D01*
X139330883Y-110304950D02*
X139801112Y-109657737D01*
X139672297Y-109705412D01*
X139565874Y-109722268D01*
X139481842Y-109708304D01*
X140386686Y-110083181D02*
X140448325Y-110127965D01*
X140487573Y-110203568D01*
X140496001Y-110256780D01*
X140482037Y-110340811D01*
X140423289Y-110486481D01*
X140311330Y-110640580D01*
X140190943Y-110741467D01*
X140115340Y-110780714D01*
X140062128Y-110789142D01*
X139978097Y-110775178D01*
X139916458Y-110730395D01*
X139877210Y-110654791D01*
X139868782Y-110601580D01*
X139882746Y-110517549D01*
X139941494Y-110371878D01*
X140053453Y-110217780D01*
X140173840Y-110116893D01*
X140249443Y-110077645D01*
X140302655Y-110069217D01*
X140386686Y-110083181D01*
X141003080Y-110531018D02*
X141064719Y-110575801D01*
X141103967Y-110651405D01*
X141112394Y-110704616D01*
X141098431Y-110788647D01*
X141039683Y-110934318D01*
X140927724Y-111088416D01*
X140807337Y-111189303D01*
X140731734Y-111228551D01*
X140678522Y-111236979D01*
X140594491Y-111223015D01*
X140532851Y-111178231D01*
X140493604Y-111102628D01*
X140485176Y-111049416D01*
X140499140Y-110965385D01*
X140557888Y-110819715D01*
X140669847Y-110665616D01*
X140790234Y-110564729D01*
X140865837Y-110525482D01*
X140919048Y-110517054D01*
X141003080Y-110531018D01*
D12*
X163481950Y-107174239D02*
X163982081Y-107664004D01*
D13*
X153569531Y-76473914D02*
X153900012Y-76517422D01*
X153477329Y-76663501D02*
X153800035Y-75999946D01*
X153940003Y-76724413D01*
D12*
X164250184Y-83818216D02*
X164780081Y-83360822D01*
D13*
X138481884Y-106463798D02*
X137738739Y-107132928D01*
X160570323Y-105220228D02*
X161254871Y-105949197D01*
D12*
X162116349Y-81708995D02*
X162562545Y-81169636D01*
D13*
X154832744Y-78503895D02*
X155040656Y-77525747D01*
D12*
X158875189Y-110569568D02*
X159199496Y-111189911D01*
D13*
X135026939Y-89687693D02*
X134075883Y-89378676D01*
D12*
X165610441Y-85615340D02*
X166193486Y-85227966D01*
X167768148Y-90230626D02*
X168438272Y-90028304D01*
D13*
X157712063Y-107263575D02*
X158193817Y-108139882D01*
D12*
X168395611Y-95936739D02*
X169094997Y-95966052D01*
D13*
X148584767Y-81494368D02*
X148397386Y-80512080D01*
X147752502Y-81698168D02*
X147503812Y-80729585D01*
D12*
X145025181Y-111257594D02*
X144781180Y-111913691D01*
D13*
X134486095Y-98557144D02*
X133507947Y-98765056D01*
D12*
X147813857Y-112071382D02*
X147682690Y-112758983D01*
D13*
X133392770Y-99099204D02*
X132612961Y-99277804D01*
X139411957Y-102417602D02*
X138567629Y-102953428D01*
D15*
X138130479Y-99240413D02*
X136228366Y-99858447D01*
D12*
X135218823Y-88375213D02*
X134573519Y-88103952D01*
D13*
X158771073Y-112829342D02*
X158347218Y-113000591D01*
X158559146Y-112914966D02*
X158259460Y-112173219D01*
X158231630Y-112307725D01*
X158189529Y-112406909D01*
X158133157Y-112470771D01*
X159207066Y-112077971D02*
X159406857Y-112572469D01*
X158916294Y-111866754D02*
X158953749Y-112467927D01*
X159412925Y-112282408D01*
X159636991Y-111616661D02*
X159707633Y-111588119D01*
X159792547Y-111594899D01*
X159842139Y-111615950D01*
X159906001Y-111672322D01*
X159998405Y-111799336D01*
X160069759Y-111975943D01*
X160091521Y-112131498D01*
X160084741Y-112216412D01*
X160063690Y-112266004D01*
X160007318Y-112329866D01*
X159936676Y-112358408D01*
X159851763Y-112351628D01*
X159802171Y-112330578D01*
X159738308Y-112274206D01*
X159645904Y-112147191D01*
X159574550Y-111970585D01*
X159552788Y-111815029D01*
X159559568Y-111730116D01*
X159580619Y-111680524D01*
X159636991Y-111616661D01*
X158261919Y-77179309D02*
X158631471Y-77332382D01*
X158178816Y-77902561D02*
X158446695Y-77255846D01*
D12*
X160593559Y-80636558D02*
X160980933Y-80053513D01*
D13*
X163700673Y-100897385D02*
X164605500Y-101323164D01*
D12*
X137830895Y-106120149D02*
X137291536Y-106566345D01*
D13*
X164942416Y-104970897D02*
X165751433Y-105558682D01*
D12*
X133906041Y-93923883D02*
X133207423Y-93879930D01*
X134098672Y-92122930D02*
X133408474Y-92006191D01*
X138528940Y-106905326D02*
X138018662Y-107384509D01*
D13*
X139875983Y-103134097D02*
X139066966Y-103721882D01*
X161010897Y-81297583D02*
X161598682Y-80488566D01*
D12*
X162160149Y-108409104D02*
X162606345Y-108948463D01*
X168440711Y-94305260D02*
X169140097Y-94275947D01*
D13*
X144587936Y-107273575D02*
X144106182Y-108149882D01*
X137873817Y-82647740D02*
X137290642Y-82100103D01*
D12*
X163214239Y-82758049D02*
X163704004Y-82257918D01*
D13*
X145727693Y-111213060D02*
X145418676Y-112164116D01*
D12*
X164531004Y-106076349D02*
X165070363Y-106522545D01*
X167444294Y-89233481D02*
X168100391Y-88989480D01*
D13*
X162404016Y-87065902D02*
X163213033Y-86478117D01*
X153705232Y-81524368D02*
X153892613Y-80542080D01*
D12*
X165603441Y-104553559D02*
X166186486Y-104940933D01*
D13*
X139404076Y-109083986D02*
X138886644Y-109694121D01*
D12*
X167556347Y-89519341D02*
X168217410Y-89289134D01*
X160624659Y-109570441D02*
X161012033Y-110153486D01*
D13*
X159945965Y-78740932D02*
X159892912Y-78337520D01*
X159591160Y-78556232D02*
X159914384Y-77935325D01*
X160150921Y-78058458D01*
X160194663Y-78118808D01*
X160208839Y-78163767D01*
X160207622Y-78238292D01*
X160161447Y-78326993D01*
X160101097Y-78370736D01*
X160056139Y-78384911D01*
X159981613Y-78383695D01*
X159745077Y-78260562D01*
D12*
X134168617Y-91773857D02*
X133481016Y-91642690D01*
D13*
X151991594Y-108908511D02*
X152054385Y-109906538D01*
X133079283Y-92833478D02*
X132285077Y-92737368D01*
X164715631Y-97665232D02*
X165697919Y-97852613D01*
X157692063Y-82926424D02*
X158173817Y-82050117D01*
D12*
X167061176Y-101824786D02*
X167706480Y-102096047D01*
X148378210Y-77998332D02*
X148261471Y-77308134D01*
X135346128Y-102237469D02*
X134712749Y-102535515D01*
D10*
X163915714Y-115622380D02*
X163915714Y-114622380D01*
X164249047Y-115336666D01*
X164582380Y-114622380D01*
X164582380Y-115622380D01*
X165058571Y-115622380D02*
X165058571Y-114622380D01*
X165153809Y-115241428D02*
X165439523Y-115622380D01*
X165439523Y-114955714D02*
X165058571Y-115336666D01*
X166010952Y-115050952D02*
X165915714Y-115003333D01*
X165868095Y-114955714D01*
X165820476Y-114860476D01*
X165820476Y-114812857D01*
X165868095Y-114717619D01*
X165915714Y-114670000D01*
X166010952Y-114622380D01*
X166201428Y-114622380D01*
X166296666Y-114670000D01*
X166344285Y-114717619D01*
X166391904Y-114812857D01*
X166391904Y-114860476D01*
X166344285Y-114955714D01*
X166296666Y-115003333D01*
X166201428Y-115050952D01*
X166010952Y-115050952D01*
X165915714Y-115098571D01*
X165868095Y-115146190D01*
X165820476Y-115241428D01*
X165820476Y-115431904D01*
X165868095Y-115527142D01*
X165915714Y-115574761D01*
X166010952Y-115622380D01*
X166201428Y-115622380D01*
X166296666Y-115574761D01*
X166344285Y-115527142D01*
X166391904Y-115431904D01*
X166391904Y-115241428D01*
X166344285Y-115146190D01*
X166296666Y-115098571D01*
X166201428Y-115050952D01*
D13*
X134918339Y-100238606D02*
X133967283Y-100547623D01*
D12*
X168283530Y-97335811D02*
X168978010Y-97423544D01*
D13*
X143822397Y-83371957D02*
X143286571Y-82527629D01*
D12*
X157254818Y-78942405D02*
X157498819Y-78286308D01*
X163476250Y-83032760D02*
X163976381Y-82542995D01*
D13*
X161230228Y-104560323D02*
X161959197Y-105244871D01*
X166986581Y-104079047D02*
X167679401Y-104479047D01*
D12*
X133884388Y-94263260D02*
X133185002Y-94233947D01*
%TO.C,G\u002A\u002A\u002A*%
G36*
X137742724Y-114858906D02*
G01*
X137740683Y-114860947D01*
X137738642Y-114858906D01*
X137740683Y-114856866D01*
X137742724Y-114858906D01*
G37*
G36*
X138374993Y-114491988D02*
G01*
X138395200Y-114492251D01*
X138410079Y-114492770D01*
X138420577Y-114493594D01*
X138427638Y-114494774D01*
X138432209Y-114496361D01*
X138435234Y-114498405D01*
X138435303Y-114498466D01*
X138444211Y-114503810D01*
X138456662Y-114508370D01*
X138459734Y-114509141D01*
X138474012Y-114514265D01*
X138490296Y-114522892D01*
X138505622Y-114533185D01*
X138517026Y-114543308D01*
X138519198Y-114545981D01*
X138526759Y-114553259D01*
X138531627Y-114555986D01*
X138537681Y-114561720D01*
X138538771Y-114566034D01*
X138541693Y-114574185D01*
X138546935Y-114580408D01*
X138553717Y-114591410D01*
X138555100Y-114601724D01*
X138556012Y-114611183D01*
X138558255Y-114615922D01*
X138558739Y-114616049D01*
X138562375Y-114619481D01*
X138566996Y-114628042D01*
X138568383Y-114631355D01*
X138570656Y-114641671D01*
X138571982Y-114657207D01*
X138572429Y-114676030D01*
X138572065Y-114696206D01*
X138570959Y-114715799D01*
X138569178Y-114732875D01*
X138566791Y-114745500D01*
X138564145Y-114751496D01*
X138560008Y-114759505D01*
X138559182Y-114765078D01*
X138557462Y-114774134D01*
X138553173Y-114786148D01*
X138551545Y-114789772D01*
X138545896Y-114803683D01*
X138540444Y-114820270D01*
X138538526Y-114827274D01*
X138535096Y-114839126D01*
X138531974Y-114846908D01*
X138530445Y-114848702D01*
X138526292Y-114852071D01*
X138520158Y-114860666D01*
X138513305Y-114872224D01*
X138506996Y-114884480D01*
X138502494Y-114895171D01*
X138501028Y-114901461D01*
X138499601Y-114910965D01*
X138497357Y-114915747D01*
X138485604Y-114930135D01*
X138478152Y-114940160D01*
X138473865Y-114947549D01*
X138471604Y-114954025D01*
X138471327Y-114955217D01*
X138467086Y-114965149D01*
X138459459Y-114976522D01*
X138456909Y-114979556D01*
X138449529Y-114988962D01*
X138445282Y-114996582D01*
X138444878Y-114998417D01*
X138442709Y-115003363D01*
X138441291Y-115003804D01*
X138437421Y-115007174D01*
X138432928Y-115015344D01*
X138432677Y-115015938D01*
X138426253Y-115027414D01*
X138417494Y-115038773D01*
X138416903Y-115039407D01*
X138409017Y-115048248D01*
X138402454Y-115057247D01*
X138395716Y-115068740D01*
X138387309Y-115085060D01*
X138386106Y-115087478D01*
X138377358Y-115101843D01*
X138366650Y-115115167D01*
X138361523Y-115120131D01*
X138352861Y-115128439D01*
X138347657Y-115135289D01*
X138346991Y-115137267D01*
X138344354Y-115143292D01*
X138337988Y-115151739D01*
X138336697Y-115153170D01*
X138329926Y-115161800D01*
X138326571Y-115168674D01*
X138326492Y-115169410D01*
X138323577Y-115175584D01*
X138317307Y-115182079D01*
X138309317Y-115190037D01*
X138300074Y-115201265D01*
X138296737Y-115205845D01*
X138288593Y-115217522D01*
X138278014Y-115232687D01*
X138267236Y-115248135D01*
X138266840Y-115248702D01*
X138257587Y-115261176D01*
X138249627Y-115270500D01*
X138244386Y-115275038D01*
X138243688Y-115275233D01*
X138238536Y-115278329D01*
X138231868Y-115285945D01*
X138230720Y-115287587D01*
X138221316Y-115300650D01*
X138208709Y-115317015D01*
X138195120Y-115333884D01*
X138182770Y-115348458D01*
X138179672Y-115351928D01*
X138174169Y-115357808D01*
X138166939Y-115365161D01*
X138157032Y-115374916D01*
X138143502Y-115388003D01*
X138125397Y-115405351D01*
X138115715Y-115414596D01*
X138108711Y-115420021D01*
X138104349Y-115421140D01*
X138104254Y-115421058D01*
X138102477Y-115422568D01*
X138101966Y-115427614D01*
X138099426Y-115434873D01*
X138093801Y-115436457D01*
X138087180Y-115438813D01*
X138085637Y-115442110D01*
X138082511Y-115448220D01*
X138075431Y-115454449D01*
X138068088Y-115461112D01*
X138065225Y-115467164D01*
X138062244Y-115472521D01*
X138059734Y-115473192D01*
X138053073Y-115475990D01*
X138046855Y-115481355D01*
X138039416Y-115487495D01*
X138033975Y-115489519D01*
X138028961Y-115491845D01*
X138028485Y-115493435D01*
X138025496Y-115499073D01*
X138018353Y-115506646D01*
X138009787Y-115513706D01*
X138002531Y-115517804D01*
X138000971Y-115518090D01*
X137996787Y-115519959D01*
X137996730Y-115521151D01*
X137994629Y-115526667D01*
X137987282Y-115535725D01*
X137976087Y-115547117D01*
X137962441Y-115559640D01*
X137947741Y-115572087D01*
X137933383Y-115583254D01*
X137920766Y-115591934D01*
X137911286Y-115596923D01*
X137908057Y-115597658D01*
X137904372Y-115601150D01*
X137902670Y-115606866D01*
X137899824Y-115614075D01*
X137896547Y-115616118D01*
X137891240Y-115618775D01*
X137882220Y-115625626D01*
X137872824Y-115633921D01*
X137860919Y-115643863D01*
X137849439Y-115651458D01*
X137842524Y-115654514D01*
X137832960Y-115659225D01*
X137821917Y-115667840D01*
X137817312Y-115672426D01*
X137807058Y-115681656D01*
X137797623Y-115686904D01*
X137794542Y-115687478D01*
X137787217Y-115689962D01*
X137785588Y-115695641D01*
X137782266Y-115702914D01*
X137776154Y-115705141D01*
X137767843Y-115708448D01*
X137764491Y-115712284D01*
X137759166Y-115716651D01*
X137751616Y-115718090D01*
X137745235Y-115719712D01*
X137736791Y-115725092D01*
X137725314Y-115735003D01*
X137709832Y-115750216D01*
X137705107Y-115755057D01*
X137691637Y-115768694D01*
X137680466Y-115779534D01*
X137672649Y-115786586D01*
X137669245Y-115788860D01*
X137669181Y-115788730D01*
X137667452Y-115788252D01*
X137666119Y-115789872D01*
X137661096Y-115794296D01*
X137651419Y-115800892D01*
X137643729Y-115805566D01*
X137633017Y-115812404D01*
X137625975Y-115818087D01*
X137624338Y-115820519D01*
X137620915Y-115823521D01*
X137616173Y-115824212D01*
X137609383Y-115826949D01*
X137608009Y-115830772D01*
X137605569Y-115835383D01*
X137601578Y-115834863D01*
X137594298Y-115836398D01*
X137583773Y-115845210D01*
X137580278Y-115848956D01*
X137568546Y-115860040D01*
X137559782Y-115863779D01*
X137557957Y-115863568D01*
X137549688Y-115865166D01*
X137545617Y-115869447D01*
X137539943Y-115875673D01*
X137536220Y-115877274D01*
X137530337Y-115879842D01*
X137524313Y-115885638D01*
X137520628Y-115891797D01*
X137520911Y-115894952D01*
X137519713Y-115897030D01*
X137514365Y-115897682D01*
X137505195Y-115900242D01*
X137494645Y-115906537D01*
X137492960Y-115907886D01*
X137483806Y-115914511D01*
X137476551Y-115917953D01*
X137475521Y-115918090D01*
X137468650Y-115920956D01*
X137465129Y-115924212D01*
X137457173Y-115929140D01*
X137450582Y-115930335D01*
X137442065Y-115932018D01*
X137438438Y-115934668D01*
X137432814Y-115939364D01*
X137426028Y-115942701D01*
X137418967Y-115947566D01*
X137418873Y-115953112D01*
X137419435Y-115957495D01*
X137415028Y-115958204D01*
X137408987Y-115957087D01*
X137398565Y-115956407D01*
X137391863Y-115960824D01*
X137391025Y-115961915D01*
X137384121Y-115967631D01*
X137372589Y-115973849D01*
X137365113Y-115976930D01*
X137351733Y-115982205D01*
X137340455Y-115987317D01*
X137336477Y-115989476D01*
X137326699Y-115993845D01*
X137314430Y-115997367D01*
X137314024Y-115997451D01*
X137301708Y-116000793D01*
X137288352Y-116005651D01*
X137276760Y-116010870D01*
X137269737Y-116015296D01*
X137269179Y-116015913D01*
X137264668Y-116017671D01*
X137254165Y-116020419D01*
X137239720Y-116023722D01*
X137223380Y-116027148D01*
X137207194Y-116030262D01*
X137193210Y-116032629D01*
X137185492Y-116033645D01*
X137176151Y-116035876D01*
X137172376Y-116037652D01*
X137165609Y-116039447D01*
X137153617Y-116040668D01*
X137139250Y-116041247D01*
X137125360Y-116041117D01*
X137114796Y-116040210D01*
X137110966Y-116039114D01*
X137106167Y-116039882D01*
X137104402Y-116042603D01*
X137099959Y-116048073D01*
X137095342Y-116047371D01*
X137093640Y-116042080D01*
X137092428Y-116037773D01*
X137087930Y-116040196D01*
X137080920Y-116041213D01*
X137070865Y-116037165D01*
X137059776Y-116029397D01*
X137049664Y-116019254D01*
X137043804Y-116010666D01*
X137037086Y-115993473D01*
X137037237Y-115979288D01*
X137044475Y-115967892D01*
X137059019Y-115959070D01*
X137081087Y-115952602D01*
X137105887Y-115948797D01*
X137120593Y-115946718D01*
X137133445Y-115944160D01*
X137138546Y-115942729D01*
X137155208Y-115937617D01*
X137169478Y-115934537D01*
X137178798Y-115934038D01*
X137178865Y-115934049D01*
X137187525Y-115933631D01*
X137198753Y-115930843D01*
X137209769Y-115926696D01*
X137217793Y-115922203D01*
X137220191Y-115918999D01*
X137222077Y-115915264D01*
X137223582Y-115915621D01*
X137229414Y-115915855D01*
X137240107Y-115913992D01*
X137252863Y-115910767D01*
X137264884Y-115906913D01*
X137273374Y-115903163D01*
X137274781Y-115902196D01*
X137281485Y-115899390D01*
X137293321Y-115896669D01*
X137303127Y-115895203D01*
X137317684Y-115892604D01*
X137325348Y-115889165D01*
X137326331Y-115887240D01*
X137329882Y-115882929D01*
X137338539Y-115879426D01*
X137339598Y-115879185D01*
X137350805Y-115875597D01*
X137358997Y-115870981D01*
X137367538Y-115865187D01*
X137375326Y-115861241D01*
X137385440Y-115856540D01*
X137391648Y-115853230D01*
X137400031Y-115848718D01*
X137407977Y-115844847D01*
X137429226Y-115834258D01*
X137442947Y-115825630D01*
X137449292Y-115819105D01*
X137455596Y-115813751D01*
X137465800Y-115809790D01*
X137466174Y-115809706D01*
X137476889Y-115805891D01*
X137490733Y-115799065D01*
X137500928Y-115793061D01*
X137512734Y-115785857D01*
X137521908Y-115780880D01*
X137526006Y-115779314D01*
X137530397Y-115776068D01*
X137531922Y-115773192D01*
X137537467Y-115768117D01*
X137542405Y-115767070D01*
X137551433Y-115764251D01*
X137557842Y-115759482D01*
X137567474Y-115752712D01*
X137576516Y-115749164D01*
X137586675Y-115743671D01*
X137591477Y-115736990D01*
X137597674Y-115729337D01*
X137610268Y-115720386D01*
X137620929Y-115714527D01*
X137642316Y-115702701D01*
X137658202Y-115691061D01*
X137670976Y-115677703D01*
X137676699Y-115670131D01*
X137683831Y-115661678D01*
X137689864Y-115657122D01*
X137690998Y-115656866D01*
X137696538Y-115653960D01*
X137704138Y-115646764D01*
X137705984Y-115644621D01*
X137713699Y-115636720D01*
X137720078Y-115632563D01*
X137721104Y-115632376D01*
X137726797Y-115629161D01*
X137730478Y-115624212D01*
X137736270Y-115617714D01*
X137740683Y-115616049D01*
X137747062Y-115612812D01*
X137750889Y-115607886D01*
X137756743Y-115601385D01*
X137761238Y-115599723D01*
X137766578Y-115597473D01*
X137767218Y-115595641D01*
X137770429Y-115591826D01*
X137772191Y-115591559D01*
X137778225Y-115588745D01*
X137785458Y-115582184D01*
X137793724Y-115574822D01*
X137805919Y-115566113D01*
X137814164Y-115561013D01*
X137826891Y-115552788D01*
X137837531Y-115544405D01*
X137841826Y-115540018D01*
X137850074Y-115532206D01*
X137857194Y-115528241D01*
X137862858Y-115524918D01*
X137863316Y-115522437D01*
X137865046Y-115518311D01*
X137871360Y-115510884D01*
X137880458Y-115501946D01*
X137890539Y-115493282D01*
X137898524Y-115487478D01*
X137912355Y-115477572D01*
X137927466Y-115465159D01*
X137941506Y-115452321D01*
X137952125Y-115441138D01*
X137954971Y-115437478D01*
X137961786Y-115429027D01*
X137967259Y-115424470D01*
X137968222Y-115424212D01*
X137973903Y-115421704D01*
X137980963Y-115416288D01*
X137997188Y-115401695D01*
X138008734Y-115391672D01*
X138016877Y-115385201D01*
X138022889Y-115381266D01*
X138027710Y-115378982D01*
X138033989Y-115374922D01*
X138034834Y-115371517D01*
X138036418Y-115367104D01*
X138042991Y-115359886D01*
X138048753Y-115354938D01*
X138060661Y-115343620D01*
X138071172Y-115330562D01*
X138073925Y-115326174D01*
X138079905Y-115317058D01*
X138084711Y-115312362D01*
X138086058Y-115312228D01*
X138090727Y-115310866D01*
X138098394Y-115304958D01*
X138107052Y-115296409D01*
X138114693Y-115287123D01*
X138117983Y-115281938D01*
X138123663Y-115275157D01*
X138128202Y-115273192D01*
X138133231Y-115269713D01*
X138136300Y-115262988D01*
X138140287Y-115255326D01*
X138144908Y-115252784D01*
X138149863Y-115249401D01*
X138150953Y-115244896D01*
X138154375Y-115237399D01*
X138159118Y-115234417D01*
X138165732Y-115230140D01*
X138167282Y-115226584D01*
X138169852Y-115220440D01*
X138176248Y-115211630D01*
X138178509Y-115209046D01*
X138190431Y-115195584D01*
X138202005Y-115181829D01*
X138211817Y-115169534D01*
X138218451Y-115160452D01*
X138220352Y-115157194D01*
X138222238Y-115153575D01*
X138225774Y-115148783D01*
X138232179Y-115141344D01*
X138242670Y-115129779D01*
X138245866Y-115126298D01*
X138252980Y-115117558D01*
X138256855Y-115110855D01*
X138257093Y-115109699D01*
X138259835Y-115104889D01*
X138267063Y-115096288D01*
X138277279Y-115085663D01*
X138278500Y-115084468D01*
X138292575Y-115070184D01*
X138302164Y-115058653D01*
X138309067Y-115047423D01*
X138314518Y-115035437D01*
X138319520Y-115027412D01*
X138324772Y-115024212D01*
X138329929Y-115020740D01*
X138332904Y-115014309D01*
X138337976Y-115003626D01*
X138343188Y-114997350D01*
X138349214Y-114989186D01*
X138350985Y-114982907D01*
X138354262Y-114975246D01*
X138359150Y-114971151D01*
X138365688Y-114964480D01*
X138367315Y-114958906D01*
X138370603Y-114950840D01*
X138375479Y-114946661D01*
X138382002Y-114940339D01*
X138383644Y-114935220D01*
X138385841Y-114927616D01*
X138391349Y-114917027D01*
X138393849Y-114913132D01*
X138400125Y-114902641D01*
X138403722Y-114894195D01*
X138404055Y-114892213D01*
X138407334Y-114885625D01*
X138409794Y-114884109D01*
X138414647Y-114878885D01*
X138418278Y-114869408D01*
X138418285Y-114869373D01*
X138423046Y-114858188D01*
X138431234Y-114846745D01*
X138432958Y-114844921D01*
X138441075Y-114834223D01*
X138444819Y-114823900D01*
X138444878Y-114822751D01*
X138446394Y-114810761D01*
X138448900Y-114801921D01*
X138452075Y-114794573D01*
X138456321Y-114787648D01*
X138463151Y-114779016D01*
X138473924Y-114766723D01*
X138483319Y-114750853D01*
X138487196Y-114735820D01*
X138489770Y-114723136D01*
X138493213Y-114713369D01*
X138494653Y-114711018D01*
X138497422Y-114706998D01*
X138499469Y-114701637D01*
X138501089Y-114693318D01*
X138502579Y-114680422D01*
X138504234Y-114661331D01*
X138504624Y-114656472D01*
X138505661Y-114640065D01*
X138505218Y-114628670D01*
X138502720Y-114619186D01*
X138497591Y-114608513D01*
X138494783Y-114603411D01*
X138486942Y-114591274D01*
X138479431Y-114582827D01*
X138474904Y-114580124D01*
X138464599Y-114577508D01*
X138459166Y-114575580D01*
X138443692Y-114569763D01*
X138428766Y-114565381D01*
X138412703Y-114562183D01*
X138393817Y-114559915D01*
X138370424Y-114558325D01*
X138340838Y-114557161D01*
X138335092Y-114556988D01*
X138306507Y-114556382D01*
X138283488Y-114556370D01*
X138266775Y-114556935D01*
X138257108Y-114558060D01*
X138255169Y-114558809D01*
X138247105Y-114560779D01*
X138237691Y-114559196D01*
X138228391Y-114557273D01*
X138223084Y-114557555D01*
X138222967Y-114557652D01*
X138218105Y-114559327D01*
X138207655Y-114561526D01*
X138197146Y-114563266D01*
X138179439Y-114566090D01*
X138161070Y-114569303D01*
X138152994Y-114570834D01*
X138139279Y-114573421D01*
X138120891Y-114576726D01*
X138101217Y-114580143D01*
X138095842Y-114581053D01*
X138076523Y-114584399D01*
X138057626Y-114587831D01*
X138042484Y-114590739D01*
X138039258Y-114591400D01*
X138027085Y-114593410D01*
X138018250Y-114593877D01*
X138015896Y-114593389D01*
X138010581Y-114593827D01*
X138000455Y-114597201D01*
X137990835Y-114601353D01*
X137967758Y-114611917D01*
X137951166Y-114618811D01*
X137940392Y-114622307D01*
X137938674Y-114622658D01*
X137929584Y-114625017D01*
X137916023Y-114629392D01*
X137901074Y-114634702D01*
X137887821Y-114639868D01*
X137881522Y-114642665D01*
X137870715Y-114647274D01*
X137857491Y-114652088D01*
X137855507Y-114652739D01*
X137842583Y-114659445D01*
X137826862Y-114671654D01*
X137815339Y-114682564D01*
X137803277Y-114695239D01*
X137796221Y-114704113D01*
X137793141Y-114710878D01*
X137793007Y-114717231D01*
X137793286Y-114718817D01*
X137793739Y-114726989D01*
X137791610Y-114730335D01*
X137788053Y-114733631D01*
X137787630Y-114736298D01*
X137784847Y-114743282D01*
X137779077Y-114750228D01*
X137772872Y-114759567D01*
X137773229Y-114766714D01*
X137773781Y-114773520D01*
X137771653Y-114775233D01*
X137767689Y-114778722D01*
X137764575Y-114786457D01*
X137760937Y-114796906D01*
X137755032Y-114810154D01*
X137752250Y-114815637D01*
X137746680Y-114827165D01*
X137743250Y-114836248D01*
X137742724Y-114839007D01*
X137740720Y-114845843D01*
X137735777Y-114855757D01*
X137734575Y-114857787D01*
X137729129Y-114869075D01*
X137726463Y-114879222D01*
X137726410Y-114880335D01*
X137724254Y-114887552D01*
X137720704Y-114889519D01*
X137716194Y-114892971D01*
X137714825Y-114898702D01*
X137714162Y-114915339D01*
X137712694Y-114925525D01*
X137709963Y-114930963D01*
X137705508Y-114933358D01*
X137705473Y-114933367D01*
X137699088Y-114938809D01*
X137697819Y-114945152D01*
X137696267Y-114956045D01*
X137694099Y-114962023D01*
X137690573Y-114969984D01*
X137685871Y-114982094D01*
X137683555Y-114988498D01*
X137678974Y-114999589D01*
X137674773Y-115006606D01*
X137672988Y-115007886D01*
X137669643Y-115011187D01*
X137669243Y-115013870D01*
X137667581Y-115021529D01*
X137663537Y-115031632D01*
X137658520Y-115041301D01*
X137653944Y-115047658D01*
X137652158Y-115048702D01*
X137649397Y-115052105D01*
X137648832Y-115056366D01*
X137646014Y-115065335D01*
X137643200Y-115068702D01*
X137638380Y-115075903D01*
X137635072Y-115085860D01*
X137630561Y-115098453D01*
X137624374Y-115108767D01*
X137618631Y-115117586D01*
X137616175Y-115124370D01*
X137616173Y-115124467D01*
X137613220Y-115130492D01*
X137606104Y-115137661D01*
X137605968Y-115137769D01*
X137598721Y-115145955D01*
X137595762Y-115154151D01*
X137594210Y-115161986D01*
X137592182Y-115164718D01*
X137589153Y-115169691D01*
X137585517Y-115179810D01*
X137583791Y-115186031D01*
X137579151Y-115199907D01*
X137573222Y-115212023D01*
X137571042Y-115215223D01*
X137565276Y-115225576D01*
X137563104Y-115234932D01*
X137559853Y-115244631D01*
X137554939Y-115249649D01*
X137548543Y-115255359D01*
X137546775Y-115259261D01*
X137544390Y-115268084D01*
X137538495Y-115279667D01*
X137530975Y-115290647D01*
X137526393Y-115295614D01*
X137520165Y-115305268D01*
X137518199Y-115314449D01*
X137516787Y-115325426D01*
X137513309Y-115336336D01*
X137508897Y-115344314D01*
X137505454Y-115346661D01*
X137502444Y-115350198D01*
X137498933Y-115359023D01*
X137497935Y-115362438D01*
X137492570Y-115375713D01*
X137484325Y-115389723D01*
X137481449Y-115393612D01*
X137474096Y-115404779D01*
X137469731Y-115415107D01*
X137469211Y-115418492D01*
X137466365Y-115428731D01*
X137461770Y-115435278D01*
X137455356Y-115443667D01*
X137448606Y-115455503D01*
X137446993Y-115458906D01*
X137435193Y-115484355D01*
X137425004Y-115504148D01*
X137415221Y-115520294D01*
X137404641Y-115534800D01*
X137393710Y-115547809D01*
X137388122Y-115557280D01*
X137384910Y-115567076D01*
X137380734Y-115576646D01*
X137374832Y-115581510D01*
X137368551Y-115587300D01*
X137367154Y-115595772D01*
X137363699Y-115606230D01*
X137354926Y-115613349D01*
X137343221Y-115616490D01*
X137330972Y-115615013D01*
X137320565Y-115608280D01*
X137320542Y-115608256D01*
X137315829Y-115597724D01*
X137315045Y-115582736D01*
X137318042Y-115565909D01*
X137323701Y-115551644D01*
X137327711Y-115541890D01*
X137328567Y-115534999D01*
X137328281Y-115534269D01*
X137328736Y-115528561D01*
X137333145Y-115519986D01*
X137333770Y-115519083D01*
X137340802Y-115507524D01*
X137347468Y-115494078D01*
X137348132Y-115492522D01*
X137353595Y-115482208D01*
X137359237Y-115475608D01*
X137360541Y-115474856D01*
X137364879Y-115469693D01*
X137368478Y-115459558D01*
X137369282Y-115455525D01*
X137372425Y-115442346D01*
X137376743Y-115431233D01*
X137377752Y-115429458D01*
X137382234Y-115419192D01*
X137383483Y-115411980D01*
X137386052Y-115399099D01*
X137392642Y-115383557D01*
X137401579Y-115368542D01*
X137411185Y-115357240D01*
X137413080Y-115355676D01*
X137418784Y-115347491D01*
X137420224Y-115340583D01*
X137423435Y-115331405D01*
X137428388Y-115328294D01*
X137435020Y-115323123D01*
X137436553Y-115318376D01*
X137438995Y-115311037D01*
X137445198Y-115300681D01*
X137449302Y-115295182D01*
X137460942Y-115277953D01*
X137472762Y-115255815D01*
X137483252Y-115231848D01*
X137490104Y-115211968D01*
X137494429Y-115199717D01*
X137499056Y-115190392D01*
X137500702Y-115188207D01*
X137505273Y-115180316D01*
X137505952Y-115176549D01*
X137508354Y-115169934D01*
X137514491Y-115159922D01*
X137519219Y-115153543D01*
X137532956Y-115134541D01*
X137540820Y-115119714D01*
X137542692Y-115111464D01*
X137545336Y-115105175D01*
X137551961Y-115096245D01*
X137554939Y-115092958D01*
X137562614Y-115082906D01*
X137566877Y-115073397D01*
X137567186Y-115071046D01*
X137569621Y-115061610D01*
X137572951Y-115057163D01*
X137577243Y-115050556D01*
X137581635Y-115039172D01*
X137583490Y-115032482D01*
X137587331Y-115020546D01*
X137591799Y-115012310D01*
X137594054Y-115010364D01*
X137598481Y-115005026D01*
X137599844Y-114997954D01*
X137602759Y-114988289D01*
X137607470Y-114983685D01*
X137613558Y-114977026D01*
X137617694Y-114966603D01*
X137617758Y-114966292D01*
X137620792Y-114955789D01*
X137625797Y-114942655D01*
X137631609Y-114929531D01*
X137637065Y-114919055D01*
X137640794Y-114914008D01*
X137642930Y-114909055D01*
X137645129Y-114898944D01*
X137645908Y-114893743D01*
X137648606Y-114881687D01*
X137652567Y-114872965D01*
X137654188Y-114871208D01*
X137657962Y-114864498D01*
X137660721Y-114852284D01*
X137662281Y-114837183D01*
X137662457Y-114821813D01*
X137661066Y-114808790D01*
X137659026Y-114802406D01*
X137654352Y-114790782D01*
X137651671Y-114780929D01*
X137647811Y-114762300D01*
X137644607Y-114749253D01*
X137641384Y-114739317D01*
X137638254Y-114731759D01*
X137634307Y-114721408D01*
X137632526Y-114713727D01*
X137632518Y-114713392D01*
X137635773Y-114702652D01*
X137644049Y-114690719D01*
X137655188Y-114680289D01*
X137662638Y-114675735D01*
X137671966Y-114670480D01*
X137677077Y-114665987D01*
X137677408Y-114665060D01*
X137680597Y-114660588D01*
X137687079Y-114656068D01*
X137696719Y-114650764D01*
X137709255Y-114643872D01*
X137713614Y-114641476D01*
X137723581Y-114635136D01*
X137729634Y-114629620D01*
X137730478Y-114627774D01*
X137733444Y-114625100D01*
X137736522Y-114625658D01*
X137743234Y-114624521D01*
X137752662Y-114618575D01*
X137755802Y-114615891D01*
X137767942Y-114607407D01*
X137779345Y-114603827D01*
X137780134Y-114603804D01*
X137789287Y-114602350D01*
X137793925Y-114599444D01*
X137799521Y-114596676D01*
X137801947Y-114597128D01*
X137808393Y-114595966D01*
X137814414Y-114591284D01*
X137823210Y-114585175D01*
X137830403Y-114583396D01*
X137838417Y-114581662D01*
X137850960Y-114577113D01*
X137865333Y-114570730D01*
X137865490Y-114570654D01*
X137881399Y-114563765D01*
X137897038Y-114558354D01*
X137908057Y-114555769D01*
X137919229Y-114553124D01*
X137926710Y-114549213D01*
X137927651Y-114548103D01*
X137933950Y-114543730D01*
X137940418Y-114542580D01*
X137950016Y-114540204D01*
X137954789Y-114536715D01*
X137961334Y-114533017D01*
X137973055Y-114529684D01*
X137982845Y-114528048D01*
X137996591Y-114525749D01*
X138007425Y-114522797D01*
X138011623Y-114520763D01*
X138021293Y-114516854D01*
X138038028Y-114514534D01*
X138060862Y-114513929D01*
X138064172Y-114513981D01*
X138077313Y-114513114D01*
X138088292Y-114510524D01*
X138090206Y-114509666D01*
X138098758Y-114507068D01*
X138112334Y-114504956D01*
X138125959Y-114503900D01*
X138145202Y-114502406D01*
X138165765Y-114499744D01*
X138177488Y-114497642D01*
X138191391Y-114495744D01*
X138213120Y-114494217D01*
X138242344Y-114493074D01*
X138278731Y-114492331D01*
X138314815Y-114492023D01*
X138348513Y-114491928D01*
X138374993Y-114491988D01*
G37*
G36*
X135817362Y-115546682D02*
G01*
X135817482Y-115529816D01*
X135817788Y-115509138D01*
X135818453Y-115494918D01*
X135819776Y-115485448D01*
X135822056Y-115479024D01*
X135825595Y-115473938D01*
X135827710Y-115471598D01*
X135833929Y-115463732D01*
X135834440Y-115458224D01*
X135832444Y-115455102D01*
X135829453Y-115447304D01*
X135831376Y-115435595D01*
X135835766Y-115418491D01*
X135840295Y-115397162D01*
X135844187Y-115375494D01*
X135846271Y-115360947D01*
X135850071Y-115332167D01*
X135853669Y-115310984D01*
X135857027Y-115297617D01*
X135858804Y-115293600D01*
X135861344Y-115286390D01*
X135863891Y-115274066D01*
X135865445Y-115262988D01*
X135867891Y-115245436D01*
X135871112Y-115227566D01*
X135872997Y-115219062D01*
X135875553Y-115205997D01*
X135874932Y-115196134D01*
X135870685Y-115184978D01*
X135869295Y-115182059D01*
X135864192Y-115170115D01*
X135861157Y-115160295D01*
X135860789Y-115157509D01*
X135863573Y-115150365D01*
X135870910Y-115139708D01*
X135881282Y-115127478D01*
X135893170Y-115115620D01*
X135894468Y-115114454D01*
X135900132Y-115107380D01*
X135901612Y-115102897D01*
X135904754Y-115098079D01*
X135906715Y-115097672D01*
X135910935Y-115094324D01*
X135917087Y-115085866D01*
X135923814Y-115074658D01*
X135929761Y-115063064D01*
X135933572Y-115053446D01*
X135934271Y-115049658D01*
X135936877Y-115044963D01*
X135938353Y-115044621D01*
X135941910Y-115041288D01*
X135942435Y-115038095D01*
X135944103Y-115030672D01*
X135948141Y-115019698D01*
X135953104Y-115008617D01*
X135957546Y-115000873D01*
X135958552Y-114999723D01*
X135964487Y-114991288D01*
X135969341Y-114979717D01*
X135971011Y-114971004D01*
X135972870Y-114961291D01*
X135976916Y-114951166D01*
X135980421Y-114939962D01*
X135980355Y-114930322D01*
X135979644Y-114923767D01*
X135982615Y-114923815D01*
X135986629Y-114923327D01*
X135987536Y-114919351D01*
X135989535Y-114911045D01*
X135994216Y-114899963D01*
X135995396Y-114897682D01*
X136007150Y-114875089D01*
X136014900Y-114858483D01*
X136019034Y-114846968D01*
X136019999Y-114840828D01*
X136021724Y-114832976D01*
X136026229Y-114820673D01*
X136031971Y-114807793D01*
X136038940Y-114790727D01*
X136044455Y-114772412D01*
X136046730Y-114760789D01*
X136048889Y-114748560D01*
X136051528Y-114740464D01*
X136053340Y-114738498D01*
X136057213Y-114735069D01*
X136061242Y-114726799D01*
X136061319Y-114726580D01*
X136066137Y-114717356D01*
X136071594Y-114712315D01*
X136075767Y-114707342D01*
X136074932Y-114700763D01*
X136073620Y-114694665D01*
X136075939Y-114695241D01*
X136077508Y-114696661D01*
X136085168Y-114700254D01*
X136096108Y-114701763D01*
X136096190Y-114701763D01*
X136108936Y-114705450D01*
X136119021Y-114715597D01*
X136126097Y-114730838D01*
X136129817Y-114749803D01*
X136129833Y-114771126D01*
X136125796Y-114793439D01*
X136122255Y-114804261D01*
X136117531Y-114818805D01*
X136114470Y-114832282D01*
X136113831Y-114838498D01*
X136112168Y-114851038D01*
X136107967Y-114859216D01*
X136103241Y-114861218D01*
X136100623Y-114864525D01*
X136098722Y-114873244D01*
X136098482Y-114875708D01*
X136096127Y-114886370D01*
X136090754Y-114902153D01*
X136083199Y-114920978D01*
X136074297Y-114940769D01*
X136064883Y-114959448D01*
X136064654Y-114959871D01*
X136061580Y-114969627D01*
X136060821Y-114977026D01*
X136059074Y-114988621D01*
X136056033Y-114997600D01*
X136053262Y-115007648D01*
X136056571Y-115012260D01*
X136065941Y-115011427D01*
X136078168Y-115006662D01*
X136089100Y-115000876D01*
X136096132Y-114995768D01*
X136097559Y-114993562D01*
X136100738Y-114988506D01*
X136108057Y-114982553D01*
X136116195Y-114978121D01*
X136120015Y-114977200D01*
X136127429Y-114975513D01*
X136137022Y-114971689D01*
X136145715Y-114967174D01*
X136150433Y-114963415D01*
X136150632Y-114962809D01*
X136154112Y-114959570D01*
X136162755Y-114955598D01*
X136165588Y-114954604D01*
X136177538Y-114949191D01*
X136191614Y-114940789D01*
X136199267Y-114935373D01*
X136211548Y-114926642D01*
X136222886Y-114919644D01*
X136228195Y-114917009D01*
X136250558Y-114907277D01*
X136265345Y-114898882D01*
X136272311Y-114892580D01*
X136279296Y-114886763D01*
X136283913Y-114885437D01*
X136292043Y-114882636D01*
X136303778Y-114875102D01*
X136317223Y-114864140D01*
X136323890Y-114857886D01*
X136333325Y-114851325D01*
X136342375Y-114848702D01*
X136350907Y-114846480D01*
X136362629Y-114840803D01*
X136369667Y-114836457D01*
X136380389Y-114829596D01*
X136388395Y-114825153D01*
X136391017Y-114824212D01*
X136395536Y-114821432D01*
X136402794Y-114814521D01*
X136404944Y-114812178D01*
X136415973Y-114803241D01*
X136429862Y-114796181D01*
X136433174Y-114795077D01*
X136451072Y-114787805D01*
X136469571Y-114775702D01*
X136482318Y-114765178D01*
X136491531Y-114760086D01*
X136497626Y-114758906D01*
X136504257Y-114757017D01*
X136505791Y-114754388D01*
X136508773Y-114751691D01*
X136512069Y-114752278D01*
X136518671Y-114751394D01*
X136520670Y-114748633D01*
X136525395Y-114743260D01*
X136527917Y-114742580D01*
X136533586Y-114739831D01*
X136541848Y-114732951D01*
X136544829Y-114729961D01*
X136555554Y-114720553D01*
X136568596Y-114711657D01*
X136581289Y-114704875D01*
X136590964Y-114701806D01*
X136591830Y-114701763D01*
X136597464Y-114699495D01*
X136607176Y-114693624D01*
X136616013Y-114687478D01*
X136627935Y-114679692D01*
X136638399Y-114674503D01*
X136643558Y-114673192D01*
X136651949Y-114670434D01*
X136661082Y-114663768D01*
X136661382Y-114663473D01*
X136670588Y-114656195D01*
X136679188Y-114652212D01*
X136679288Y-114652192D01*
X136685563Y-114649273D01*
X136686679Y-114646606D01*
X136688675Y-114641084D01*
X136694562Y-114633368D01*
X136694707Y-114633213D01*
X136700486Y-114625245D01*
X136700158Y-114618765D01*
X136699119Y-114616886D01*
X136696645Y-114614332D01*
X136692143Y-114612464D01*
X136684441Y-114611165D01*
X136672364Y-114610322D01*
X136654740Y-114609820D01*
X136630394Y-114609543D01*
X136623733Y-114609499D01*
X136590634Y-114609778D01*
X136558570Y-114610930D01*
X136530015Y-114612835D01*
X136509873Y-114615023D01*
X136453180Y-114622135D01*
X136395811Y-114627714D01*
X136346582Y-114631357D01*
X136327575Y-114632806D01*
X136311464Y-114634426D01*
X136300059Y-114636011D01*
X136295311Y-114637237D01*
X136288948Y-114639296D01*
X136277644Y-114641350D01*
X136270817Y-114642208D01*
X136257505Y-114643848D01*
X136239314Y-114646380D01*
X136219419Y-114649353D01*
X136211866Y-114650538D01*
X136191974Y-114653344D01*
X136172326Y-114655503D01*
X136156194Y-114656676D01*
X136151652Y-114656792D01*
X136138914Y-114657285D01*
X136132424Y-114659088D01*
X136130293Y-114662858D01*
X136130220Y-114664249D01*
X136128183Y-114675091D01*
X136121431Y-114680977D01*
X136109006Y-114682384D01*
X136096635Y-114680996D01*
X136074237Y-114677635D01*
X136057989Y-114675977D01*
X136046078Y-114675923D01*
X136036692Y-114677373D01*
X136035614Y-114677653D01*
X136026775Y-114678996D01*
X136022132Y-114678046D01*
X136016620Y-114676129D01*
X136006852Y-114675043D01*
X136006505Y-114675030D01*
X135993173Y-114671128D01*
X135979959Y-114661863D01*
X135969628Y-114649595D01*
X135965458Y-114639953D01*
X135964598Y-114634869D01*
X135965412Y-114630938D01*
X135968904Y-114627853D01*
X135976079Y-114625304D01*
X135987941Y-114622985D01*
X136005496Y-114620588D01*
X136029747Y-114617804D01*
X136042148Y-114616448D01*
X136059429Y-114614774D01*
X136073458Y-114613801D01*
X136082407Y-114613633D01*
X136084637Y-114614010D01*
X136088974Y-114613641D01*
X136091208Y-114612159D01*
X136097147Y-114610363D01*
X136109106Y-114608811D01*
X136124942Y-114607745D01*
X136132406Y-114607497D01*
X136149813Y-114606647D01*
X136164817Y-114605103D01*
X136175010Y-114603142D01*
X136177167Y-114602322D01*
X136184622Y-114600169D01*
X136198014Y-114597910D01*
X136215128Y-114595879D01*
X136226154Y-114594919D01*
X136244601Y-114593459D01*
X136268676Y-114591449D01*
X136295879Y-114589104D01*
X136323710Y-114586638D01*
X136338417Y-114585304D01*
X136363488Y-114583104D01*
X136387365Y-114581184D01*
X136408179Y-114579681D01*
X136424059Y-114578733D01*
X136431289Y-114578473D01*
X136443266Y-114577648D01*
X136451045Y-114575838D01*
X136452721Y-114574322D01*
X136456514Y-114572602D01*
X136466775Y-114571583D01*
X136481826Y-114571406D01*
X136486400Y-114571518D01*
X136503380Y-114571650D01*
X136518179Y-114571049D01*
X136528126Y-114569841D01*
X136529469Y-114569484D01*
X136538128Y-114567611D01*
X136552132Y-114566069D01*
X136572233Y-114564809D01*
X136599183Y-114563779D01*
X136624177Y-114563131D01*
X136648007Y-114563311D01*
X136672709Y-114564713D01*
X136696525Y-114567114D01*
X136717697Y-114570290D01*
X136734467Y-114574017D01*
X136745075Y-114578070D01*
X136745961Y-114578646D01*
X136755185Y-114584625D01*
X136767865Y-114592146D01*
X136774537Y-114595890D01*
X136788239Y-114605157D01*
X136794535Y-114614064D01*
X136795007Y-114616119D01*
X136794460Y-114630431D01*
X136789971Y-114645580D01*
X136782812Y-114658150D01*
X136777515Y-114663198D01*
X136769386Y-114670373D01*
X136760028Y-114681174D01*
X136756288Y-114686250D01*
X136745876Y-114698073D01*
X136733981Y-114707105D01*
X136730353Y-114708912D01*
X136719151Y-114714279D01*
X136710616Y-114719625D01*
X136709905Y-114720215D01*
X136702982Y-114724962D01*
X136691581Y-114731520D01*
X136682267Y-114736391D01*
X136671168Y-114742628D01*
X136664192Y-114747873D01*
X136662825Y-114750526D01*
X136660987Y-114754173D01*
X136653718Y-114758499D01*
X136652995Y-114758806D01*
X136643956Y-114763899D01*
X136639008Y-114769167D01*
X136633817Y-114772775D01*
X136628509Y-114772399D01*
X136621504Y-114772599D01*
X136620095Y-114775835D01*
X136616719Y-114780960D01*
X136608279Y-114786939D01*
X136604786Y-114788749D01*
X136584099Y-114798976D01*
X136565328Y-114808978D01*
X136550222Y-114817778D01*
X136540529Y-114824396D01*
X136539547Y-114825233D01*
X136529991Y-114831216D01*
X136521047Y-114834554D01*
X136511735Y-114838153D01*
X136506759Y-114842015D01*
X136501431Y-114846871D01*
X136492015Y-114853057D01*
X136489462Y-114854505D01*
X136479494Y-114860796D01*
X136472816Y-114866486D01*
X136472067Y-114867489D01*
X136467017Y-114872105D01*
X136457457Y-114878408D01*
X136445680Y-114885153D01*
X136433984Y-114891096D01*
X136424662Y-114894991D01*
X136420110Y-114895670D01*
X136415652Y-114897085D01*
X136408643Y-114902948D01*
X136407698Y-114903930D01*
X136399918Y-114910825D01*
X136393783Y-114913987D01*
X136393449Y-114914008D01*
X136387357Y-114916782D01*
X136381281Y-114922172D01*
X136372177Y-114928428D01*
X136364319Y-114930335D01*
X136356954Y-114931708D01*
X136354746Y-114934118D01*
X136351394Y-114938238D01*
X136343343Y-114943439D01*
X136333603Y-114948109D01*
X136325181Y-114950635D01*
X136323733Y-114950743D01*
X136317560Y-114953786D01*
X136312565Y-114959170D01*
X136305119Y-114965478D01*
X136293390Y-114971359D01*
X136288420Y-114973086D01*
X136275997Y-114978171D01*
X136260245Y-114986461D01*
X136244361Y-114996258D01*
X136242805Y-114997312D01*
X136229770Y-115006014D01*
X136219339Y-115012568D01*
X136213299Y-115015864D01*
X136212629Y-115016052D01*
X136207336Y-115018788D01*
X136199085Y-115025528D01*
X136190144Y-115034083D01*
X136182781Y-115042263D01*
X136179264Y-115047879D01*
X136179208Y-115048318D01*
X136176135Y-115051504D01*
X136171043Y-115050743D01*
X136164583Y-115050262D01*
X136162879Y-115052171D01*
X136159406Y-115055863D01*
X136150590Y-115060674D01*
X136144875Y-115063065D01*
X136130958Y-115070072D01*
X136118346Y-115079107D01*
X136115535Y-115081770D01*
X136103804Y-115090676D01*
X136093341Y-115093600D01*
X136082241Y-115096273D01*
X136073068Y-115101763D01*
X136065568Y-115107547D01*
X136060846Y-115109927D01*
X136056629Y-115112565D01*
X136048655Y-115119380D01*
X136041380Y-115126253D01*
X136031166Y-115135219D01*
X136022368Y-115141149D01*
X136018278Y-115142580D01*
X136012800Y-115145245D01*
X136012633Y-115151501D01*
X136017774Y-115158742D01*
X136018289Y-115159181D01*
X136025625Y-115162409D01*
X136032214Y-115159873D01*
X136038597Y-115157386D01*
X136041960Y-115161140D01*
X136042008Y-115161265D01*
X136044866Y-115164405D01*
X136051450Y-115165871D01*
X136063432Y-115165870D01*
X136074009Y-115165246D01*
X136094507Y-115163825D01*
X136116990Y-115162285D01*
X136132262Y-115161250D01*
X136149721Y-115159362D01*
X136166539Y-115156370D01*
X136177502Y-115153418D01*
X136199387Y-115149481D01*
X136210160Y-115150381D01*
X136223364Y-115151555D01*
X136234976Y-115150700D01*
X136236360Y-115150365D01*
X136247753Y-115148214D01*
X136260929Y-115147072D01*
X136261058Y-115147068D01*
X136271850Y-115145770D01*
X136279013Y-115143136D01*
X136279447Y-115142765D01*
X136285044Y-115140757D01*
X136296710Y-115138689D01*
X136312360Y-115136894D01*
X136320066Y-115136270D01*
X136336846Y-115134773D01*
X136350600Y-115132970D01*
X136359229Y-115131163D01*
X136360870Y-115130437D01*
X136366291Y-115129028D01*
X136378199Y-115127487D01*
X136394918Y-115125986D01*
X136414775Y-115124699D01*
X136418022Y-115124530D01*
X136454126Y-115122676D01*
X136482947Y-115121097D01*
X136505360Y-115119722D01*
X136522238Y-115118477D01*
X136534457Y-115117291D01*
X136542891Y-115116091D01*
X136548413Y-115114806D01*
X136551670Y-115113487D01*
X136561380Y-115111230D01*
X136570468Y-115111827D01*
X136578800Y-115112810D01*
X136593265Y-115113681D01*
X136611827Y-115114344D01*
X136632456Y-115114706D01*
X136632483Y-115114707D01*
X136652999Y-115115181D01*
X136671339Y-115116151D01*
X136685514Y-115117477D01*
X136693534Y-115119017D01*
X136693576Y-115119033D01*
X136705723Y-115122893D01*
X136713861Y-115124830D01*
X136723319Y-115127590D01*
X136728149Y-115130105D01*
X136734903Y-115133293D01*
X136745202Y-115136217D01*
X136756895Y-115140816D01*
X136765531Y-115147230D01*
X136774855Y-115154910D01*
X136785345Y-115160797D01*
X136803319Y-115172093D01*
X136817438Y-115187893D01*
X136825719Y-115205874D01*
X136826384Y-115208876D01*
X136828568Y-115223902D01*
X136829928Y-115239833D01*
X136830420Y-115254620D01*
X136829999Y-115266216D01*
X136828620Y-115272574D01*
X136827796Y-115273192D01*
X136825004Y-115276789D01*
X136822371Y-115285738D01*
X136821795Y-115288891D01*
X136816643Y-115303737D01*
X136807490Y-115317208D01*
X136800656Y-115326309D01*
X136797743Y-115333909D01*
X136797936Y-115335667D01*
X136796544Y-115341289D01*
X136791243Y-115343843D01*
X136784696Y-115347624D01*
X136784659Y-115355166D01*
X136783836Y-115361902D01*
X136780009Y-115373519D01*
X136774035Y-115388211D01*
X136766771Y-115404173D01*
X136759075Y-115419597D01*
X136751804Y-115432680D01*
X136745816Y-115441616D01*
X136742171Y-115444621D01*
X136737683Y-115447938D01*
X136735727Y-115451763D01*
X136731342Y-115459577D01*
X136723104Y-115470968D01*
X136712866Y-115483672D01*
X136702478Y-115495427D01*
X136693792Y-115503968D01*
X136691652Y-115505668D01*
X136679930Y-115515772D01*
X136665411Y-115531421D01*
X136647424Y-115553341D01*
X136646630Y-115554350D01*
X136637708Y-115565045D01*
X136630459Y-115572563D01*
X136626687Y-115575175D01*
X136620926Y-115578299D01*
X136613552Y-115585620D01*
X136607027Y-115594260D01*
X136603812Y-115601342D01*
X136603766Y-115601974D01*
X136600493Y-115607202D01*
X136597642Y-115607886D01*
X136590399Y-115610588D01*
X136583354Y-115616049D01*
X136576342Y-115622017D01*
X136571922Y-115624212D01*
X136567502Y-115626750D01*
X136558821Y-115633453D01*
X136547626Y-115642962D01*
X136545754Y-115644621D01*
X136534296Y-115654450D01*
X136525045Y-115661685D01*
X136519763Y-115664963D01*
X136519411Y-115665029D01*
X136514687Y-115667749D01*
X136507075Y-115674544D01*
X136504411Y-115677274D01*
X136495834Y-115685009D01*
X136488658Y-115689246D01*
X136487218Y-115689519D01*
X136480907Y-115692741D01*
X136477487Y-115697174D01*
X136471940Y-115703369D01*
X136461748Y-115711604D01*
X136451829Y-115718346D01*
X136436370Y-115728779D01*
X136419400Y-115741328D01*
X136409082Y-115749572D01*
X136394151Y-115760802D01*
X136378147Y-115770861D01*
X136363638Y-115778252D01*
X136354746Y-115781253D01*
X136347839Y-115784521D01*
X136340175Y-115790432D01*
X136334994Y-115796298D01*
X136334335Y-115798188D01*
X136330995Y-115803252D01*
X136327191Y-115805251D01*
X136322113Y-115807247D01*
X136315996Y-115810488D01*
X136306940Y-115816083D01*
X136293042Y-115825139D01*
X136292899Y-115825233D01*
X136283069Y-115830335D01*
X136275160Y-115832376D01*
X136268317Y-115834898D01*
X136258270Y-115841361D01*
X136251583Y-115846661D01*
X136241287Y-115854698D01*
X136232911Y-115859880D01*
X136229701Y-115860947D01*
X136223801Y-115862667D01*
X136212753Y-115867232D01*
X136198672Y-115873752D01*
X136194716Y-115875687D01*
X136178492Y-115883640D01*
X136163164Y-115891029D01*
X136151729Y-115896412D01*
X136150632Y-115896913D01*
X136139546Y-115902412D01*
X136131031Y-115907419D01*
X136130220Y-115907999D01*
X136121573Y-115913048D01*
X136108429Y-115919191D01*
X136093373Y-115925396D01*
X136078994Y-115930631D01*
X136067877Y-115933865D01*
X136064003Y-115934417D01*
X136054846Y-115936129D01*
X136043025Y-115940460D01*
X136031011Y-115946198D01*
X136021278Y-115952132D01*
X136016297Y-115957052D01*
X136016084Y-115957886D01*
X136012710Y-115962627D01*
X136010813Y-115962990D01*
X136005066Y-115965017D01*
X135994555Y-115970371D01*
X135981387Y-115977965D01*
X135979176Y-115979314D01*
X135964705Y-115987307D01*
X135951352Y-115993125D01*
X135941801Y-115995617D01*
X135941174Y-115995639D01*
X135933144Y-115996914D01*
X135932627Y-116000366D01*
X135932497Y-116003414D01*
X135926306Y-116002674D01*
X135915481Y-116002313D01*
X135906277Y-116004450D01*
X135891618Y-116009434D01*
X135873661Y-116014535D01*
X135855063Y-116019106D01*
X135838482Y-116022502D01*
X135826578Y-116024077D01*
X135825310Y-116024116D01*
X135815619Y-116025192D01*
X135810160Y-116027658D01*
X135810087Y-116027767D01*
X135805052Y-116030292D01*
X135794758Y-116032679D01*
X135788414Y-116033593D01*
X135773399Y-116035518D01*
X135755086Y-116038099D01*
X135742403Y-116040012D01*
X135709636Y-116044334D01*
X135683921Y-116045979D01*
X135665555Y-116044929D01*
X135662798Y-116044397D01*
X135652885Y-116042217D01*
X135637961Y-116038997D01*
X135621005Y-116035377D01*
X135618476Y-116034841D01*
X135590650Y-116026838D01*
X135567907Y-116016002D01*
X135566170Y-116014903D01*
X135554819Y-116007070D01*
X135549105Y-116001247D01*
X135547571Y-115995398D01*
X135548271Y-115989859D01*
X135553268Y-115976138D01*
X135561694Y-115963559D01*
X135571663Y-115954351D01*
X135581289Y-115950743D01*
X135581360Y-115950743D01*
X135588936Y-115949582D01*
X135591358Y-115947417D01*
X135594835Y-115943372D01*
X135603417Y-115938431D01*
X135614329Y-115933842D01*
X135624796Y-115930849D01*
X135629415Y-115930335D01*
X135642663Y-115927350D01*
X135661112Y-115918497D01*
X135684451Y-115903927D01*
X135685251Y-115903385D01*
X135699804Y-115895238D01*
X135717559Y-115887654D01*
X135728866Y-115883950D01*
X135747135Y-115877618D01*
X135766508Y-115868945D01*
X135776716Y-115863393D01*
X135791496Y-115855621D01*
X135806295Y-115849625D01*
X135815237Y-115847238D01*
X135826853Y-115844083D01*
X135835269Y-115839530D01*
X135836265Y-115838535D01*
X135845237Y-115833267D01*
X135856306Y-115833174D01*
X135864055Y-115837274D01*
X135868771Y-115846512D01*
X135866122Y-115855646D01*
X135857784Y-115862055D01*
X135846680Y-115868478D01*
X135839014Y-115874612D01*
X135828020Y-115880324D01*
X135821144Y-115880191D01*
X135812729Y-115880472D01*
X135806366Y-115886431D01*
X135804194Y-115889970D01*
X135798892Y-115897989D01*
X135794977Y-115901706D01*
X135794765Y-115901738D01*
X135790120Y-115904146D01*
X135782194Y-115910051D01*
X135780477Y-115911470D01*
X135769145Y-115918947D01*
X135754938Y-115925766D01*
X135750645Y-115927359D01*
X135735010Y-115934272D01*
X135727514Y-115941702D01*
X135728148Y-115949661D01*
X135731222Y-115953558D01*
X135740645Y-115958158D01*
X135755566Y-115960129D01*
X135773777Y-115959540D01*
X135793069Y-115956463D01*
X135811071Y-115951031D01*
X135824033Y-115946339D01*
X135834536Y-115943270D01*
X135838749Y-115942580D01*
X135845658Y-115940958D01*
X135857099Y-115936761D01*
X135867295Y-115932376D01*
X135880219Y-115926882D01*
X135890681Y-115923178D01*
X135895369Y-115922172D01*
X135902267Y-115919635D01*
X135903653Y-115918090D01*
X135909241Y-115915010D01*
X135916840Y-115914008D01*
X135927542Y-115911887D01*
X135933949Y-115908328D01*
X135940800Y-115904081D01*
X135952825Y-115898205D01*
X135967539Y-115891904D01*
X135968970Y-115891334D01*
X135983492Y-115885020D01*
X135995216Y-115878889D01*
X136001829Y-115874165D01*
X136002151Y-115873777D01*
X136009005Y-115869489D01*
X136020058Y-115866865D01*
X136022562Y-115866653D01*
X136036727Y-115864285D01*
X136049801Y-115859719D01*
X136050616Y-115859304D01*
X136060235Y-115854853D01*
X136066980Y-115852821D01*
X136067254Y-115852809D01*
X136072808Y-115850057D01*
X136080465Y-115843383D01*
X136081233Y-115842580D01*
X136088961Y-115835642D01*
X136094949Y-115832407D01*
X136095330Y-115832376D01*
X136103160Y-115830545D01*
X136115682Y-115825799D01*
X136130493Y-115819255D01*
X136145186Y-115812031D01*
X136157357Y-115805243D01*
X136164241Y-115800361D01*
X136175706Y-115793602D01*
X136185960Y-115791559D01*
X136196545Y-115789352D01*
X136202871Y-115781547D01*
X136202959Y-115781355D01*
X136210313Y-115772846D01*
X136217661Y-115771151D01*
X136226356Y-115769635D01*
X136230275Y-115767008D01*
X136235440Y-115762534D01*
X136244646Y-115757119D01*
X136245824Y-115756533D01*
X136267149Y-115745581D01*
X136284980Y-115735334D01*
X136297530Y-115726838D01*
X136299815Y-115724950D01*
X136315309Y-115711477D01*
X136325847Y-115702934D01*
X136332363Y-115698602D01*
X136335222Y-115697682D01*
X136341187Y-115695226D01*
X136344690Y-115692580D01*
X136355257Y-115683538D01*
X136362773Y-115678483D01*
X136369348Y-115675763D01*
X136376563Y-115671715D01*
X136386961Y-115663894D01*
X136395064Y-115656897D01*
X136405191Y-115648135D01*
X136413117Y-115642198D01*
X136416485Y-115640539D01*
X136421322Y-115638006D01*
X136429773Y-115631535D01*
X136435533Y-115626544D01*
X136446876Y-115617709D01*
X136457914Y-115611314D01*
X136462080Y-115609775D01*
X136470127Y-115606285D01*
X136473148Y-115602341D01*
X136476134Y-115597730D01*
X136484034Y-115589710D01*
X136495282Y-115579837D01*
X136498060Y-115577563D01*
X136511364Y-115566213D01*
X136523139Y-115555120D01*
X136531017Y-115546527D01*
X136531471Y-115545930D01*
X136538000Y-115538231D01*
X136542819Y-115534486D01*
X136543225Y-115534417D01*
X136547791Y-115531794D01*
X136555853Y-115525104D01*
X136561178Y-115520131D01*
X136570363Y-115511892D01*
X136577465Y-115506730D01*
X136579689Y-115505845D01*
X136583714Y-115502511D01*
X136588957Y-115494237D01*
X136590280Y-115491601D01*
X136596836Y-115481607D01*
X136604253Y-115475301D01*
X136605523Y-115474791D01*
X136615443Y-115470127D01*
X136623053Y-115463774D01*
X136626154Y-115457775D01*
X136625711Y-115456045D01*
X136627114Y-115452226D01*
X136631976Y-115449981D01*
X136639674Y-115444306D01*
X136643073Y-115436990D01*
X136647673Y-115426315D01*
X136655067Y-115416049D01*
X136667566Y-115402527D01*
X136675415Y-115393647D01*
X136679625Y-115388164D01*
X136681206Y-115384837D01*
X136681329Y-115383759D01*
X136684188Y-115378973D01*
X136691284Y-115371731D01*
X136693576Y-115369737D01*
X136701422Y-115362238D01*
X136705608Y-115356485D01*
X136705823Y-115355588D01*
X136708626Y-115350026D01*
X136711902Y-115346699D01*
X136716071Y-115341161D01*
X136716039Y-115338515D01*
X136716952Y-115333489D01*
X136721810Y-115325581D01*
X136722208Y-115325069D01*
X136728135Y-115313503D01*
X136730317Y-115302140D01*
X136731219Y-115293378D01*
X136733403Y-115289527D01*
X136733519Y-115289519D01*
X136737945Y-115285752D01*
X136741962Y-115275710D01*
X136745164Y-115261283D01*
X136747147Y-115244359D01*
X136747505Y-115226827D01*
X136747418Y-115224758D01*
X136746301Y-115208773D01*
X136744576Y-115199221D01*
X136741760Y-115194374D01*
X136738505Y-115192748D01*
X136731261Y-115187671D01*
X136729217Y-115183715D01*
X136724170Y-115178503D01*
X136712923Y-115173206D01*
X136697412Y-115168408D01*
X136679574Y-115164691D01*
X136661345Y-115162640D01*
X136658877Y-115162519D01*
X136649600Y-115162542D01*
X136633678Y-115162997D01*
X136612615Y-115163809D01*
X136587915Y-115164901D01*
X136561080Y-115166197D01*
X136533615Y-115167622D01*
X136507024Y-115169099D01*
X136482809Y-115170551D01*
X136462476Y-115171904D01*
X136447527Y-115173081D01*
X136444557Y-115173364D01*
X136432426Y-115174841D01*
X136416506Y-115177096D01*
X136405775Y-115178758D01*
X136388963Y-115180802D01*
X136368433Y-115182366D01*
X136348627Y-115183111D01*
X136348623Y-115183111D01*
X136328704Y-115184258D01*
X136310111Y-115186892D01*
X136297594Y-115190089D01*
X136284777Y-115194391D01*
X136274013Y-115197524D01*
X136271059Y-115198201D01*
X136262301Y-115199848D01*
X136249351Y-115202280D01*
X136242483Y-115203569D01*
X136225855Y-115205885D01*
X136207023Y-115207379D01*
X136198840Y-115207643D01*
X136185800Y-115208386D01*
X136176387Y-115210053D01*
X136173285Y-115211644D01*
X136168281Y-115213615D01*
X136157576Y-115214992D01*
X136145488Y-115215443D01*
X136131451Y-115215613D01*
X136120619Y-115216013D01*
X136115932Y-115216466D01*
X136111818Y-115217059D01*
X136103734Y-115217696D01*
X136090738Y-115218427D01*
X136071889Y-115219303D01*
X136046245Y-115220373D01*
X136032245Y-115220931D01*
X136014898Y-115221891D01*
X136000463Y-115223198D01*
X135991014Y-115224641D01*
X135988729Y-115225391D01*
X135981027Y-115226693D01*
X135977816Y-115225950D01*
X135971127Y-115227311D01*
X135966646Y-115233080D01*
X135960779Y-115241597D01*
X135956127Y-115245844D01*
X135951751Y-115252141D01*
X135950600Y-115258609D01*
X135948109Y-115268312D01*
X135944476Y-115273192D01*
X135940321Y-115280574D01*
X135938378Y-115291926D01*
X135938353Y-115293333D01*
X135936485Y-115306759D01*
X135931836Y-115321569D01*
X135930188Y-115325289D01*
X135925239Y-115336616D01*
X135922330Y-115345367D01*
X135922008Y-115347485D01*
X135919996Y-115354237D01*
X135915054Y-115364105D01*
X135913844Y-115366148D01*
X135908249Y-115378824D01*
X135905591Y-115391704D01*
X135905561Y-115392678D01*
X135904071Y-115403991D01*
X135900393Y-115418799D01*
X135897304Y-115428294D01*
X135892332Y-115443510D01*
X135888438Y-115458051D01*
X135887086Y-115464868D01*
X135884186Y-115476393D01*
X135880025Y-115484989D01*
X135879796Y-115485276D01*
X135876789Y-115492629D01*
X135874460Y-115505037D01*
X135873554Y-115515585D01*
X135871899Y-115530970D01*
X135868774Y-115542089D01*
X135866648Y-115545468D01*
X135861711Y-115553373D01*
X135860789Y-115557736D01*
X135858016Y-115564480D01*
X135851125Y-115573260D01*
X135848836Y-115575566D01*
X135840358Y-115582714D01*
X135833993Y-115584581D01*
X135826961Y-115582305D01*
X135822738Y-115579993D01*
X135819940Y-115576790D01*
X135818293Y-115571181D01*
X135818126Y-115569110D01*
X135832213Y-115569110D01*
X135834254Y-115571151D01*
X135836296Y-115569110D01*
X135834254Y-115567070D01*
X135832213Y-115569110D01*
X135818126Y-115569110D01*
X135817525Y-115561650D01*
X135817362Y-115546682D01*
G37*
%TD*%
M02*
