%TF.GenerationSoftware,KiCad,Pcbnew,6.0.7-1.fc35*%
%TF.CreationDate,2022-11-04T20:07:34+01:00*%
%TF.ProjectId,Ring,52696e67-2e6b-4696-9361-645f70636258,rev?*%
%TF.SameCoordinates,Original*%
%TF.FileFunction,Profile,NP*%
%FSLAX46Y46*%
G04 Gerber Fmt 4.6, Leading zero omitted, Abs format (unit mm)*
G04 Created by KiCad (PCBNEW 6.0.7-1.fc35) date 2022-11-04 20:07:34*
%MOMM*%
%LPD*%
G01*
G04 APERTURE LIST*
%TA.AperFunction,Profile*%
%ADD10C,0.200000*%
%TD*%
%TA.AperFunction,Profile*%
%ADD11C,0.500000*%
%TD*%
G04 APERTURE END LIST*
D10*
X133529998Y-88631545D02*
G75*
G03*
X133529998Y-88631545I-1270000J0D01*
G01*
D11*
X151180000Y-115110000D02*
G75*
G03*
X162920000Y-111140000I39864J19225755D01*
G01*
X162920000Y-111140000D02*
X162700000Y-117700000D01*
X139660000Y-117700000D02*
X139440000Y-111140000D01*
X167643265Y-109646292D02*
G75*
G03*
X167643267Y-80553709I-16503265J14546292D01*
G01*
X139440000Y-111140000D02*
G75*
G03*
X151180000Y-115110000I11700140J15255770D01*
G01*
X161961066Y-78268344D02*
G75*
G03*
X151140000Y-75090000I-10821066J-16831656D01*
G01*
X164640000Y-95100000D02*
G75*
G03*
X164640000Y-95100000I-13500000J0D01*
G01*
X166290000Y-74090000D02*
X167643267Y-80553709D01*
D10*
X133780000Y-102370000D02*
G75*
G03*
X133780000Y-102370000I-1200000J0D01*
G01*
D11*
X167643266Y-109646293D02*
X167600000Y-117700000D01*
X140320000Y-74090000D02*
X140320000Y-78270000D01*
X140320000Y-74090000D02*
X135990000Y-74090000D01*
D10*
X172130000Y-100470000D02*
G75*
G03*
X172130000Y-100470000I-1200000J0D01*
G01*
D11*
X161960000Y-74090000D02*
X161960000Y-78270000D01*
X139660000Y-117700000D02*
X134600000Y-117700000D01*
X162700000Y-117700000D02*
X167600000Y-117700000D01*
X151140000Y-75090000D02*
G75*
G03*
X140318935Y-78268344I0J-20010000D01*
G01*
X134636734Y-109646293D02*
X134600000Y-117700000D01*
X135990000Y-74090000D02*
X134640001Y-80550001D01*
D10*
X139020000Y-76680000D02*
G75*
G03*
X139020000Y-76680000I-1200000J0D01*
G01*
D11*
X134640001Y-80550001D02*
G75*
G03*
X134636734Y-109646293I16499999J-14549999D01*
G01*
D10*
X165660000Y-76680000D02*
G75*
G03*
X165660000Y-76680000I-1200000J0D01*
G01*
D11*
X161960000Y-74090000D02*
X166290000Y-74090000D01*
M02*
