%TF.GenerationSoftware,KiCad,Pcbnew,6.0.7-1.fc35*%
%TF.CreationDate,2022-12-09T23:37:34+01:00*%
%TF.ProjectId,slider,736c6964-6572-42e6-9b69-6361645f7063,rev?*%
%TF.SameCoordinates,Original*%
%TF.FileFunction,Legend,Bot*%
%TF.FilePolarity,Positive*%
%FSLAX46Y46*%
G04 Gerber Fmt 4.6, Leading zero omitted, Abs format (unit mm)*
G04 Created by KiCad (PCBNEW 6.0.7-1.fc35) date 2022-12-09 23:37:34*
%MOMM*%
%LPD*%
G01*
G04 APERTURE LIST*
%TA.AperFunction,Profile*%
%ADD10C,0.050000*%
%TD*%
%TA.AperFunction,Profile*%
%ADD11C,0.100000*%
%TD*%
%ADD12C,0.120000*%
G04 APERTURE END LIST*
D10*
X146269724Y-82509286D02*
G75*
G03*
X143300000Y-106089999I4870276J-12590714D01*
G01*
X143741768Y-106392150D02*
G75*
G03*
X155460000Y-107890000I7398232J11292150D01*
G01*
X156010276Y-107690714D02*
G75*
G03*
X158980000Y-84110001I-4870276J12590714D01*
G01*
X158538232Y-83807850D02*
G75*
G03*
X146820000Y-82310000I-7398232J-11292150D01*
G01*
X159050000Y-83040000D02*
X158538323Y-83807711D01*
X159050000Y-83040000D02*
X159540000Y-83330000D01*
X159540000Y-83330000D02*
X158980000Y-84110000D01*
X143230000Y-107160000D02*
X143741677Y-106392289D01*
X143230000Y-107160000D02*
X142740000Y-106870000D01*
X142740000Y-106870000D02*
X143300000Y-106090000D01*
X155770000Y-108770000D02*
X155460000Y-107890000D01*
X156350000Y-108570000D02*
X155770000Y-108770000D01*
X156010000Y-107690000D02*
X156350000Y-108570000D01*
X146510000Y-81430000D02*
X146820000Y-82310000D01*
X145930000Y-81630000D02*
X146510000Y-81430000D01*
X146270000Y-82510000D02*
X145930000Y-81630000D01*
D11*
X166600000Y-95100000D02*
G75*
G03*
X166600000Y-95100000I-15460000J0D01*
G01*
D12*
X154541428Y-80871428D02*
X154541428Y-80557142D01*
X154570000Y-80500000D01*
X154627142Y-80471428D01*
X154741428Y-80471428D01*
X154798571Y-80500000D01*
X154541428Y-80842857D02*
X154598571Y-80871428D01*
X154741428Y-80871428D01*
X154798571Y-80842857D01*
X154827142Y-80785714D01*
X154827142Y-80728571D01*
X154798571Y-80671428D01*
X154741428Y-80642857D01*
X154598571Y-80642857D01*
X154541428Y-80614285D01*
X154312857Y-80471428D02*
X154170000Y-80871428D01*
X154027142Y-80471428D01*
X153798571Y-80871428D02*
X153798571Y-80471428D01*
X153798571Y-80271428D02*
X153827142Y-80300000D01*
X153798571Y-80328571D01*
X153770000Y-80300000D01*
X153798571Y-80271428D01*
X153798571Y-80328571D01*
X153255714Y-80871428D02*
X153255714Y-80557142D01*
X153284285Y-80500000D01*
X153341428Y-80471428D01*
X153455714Y-80471428D01*
X153512857Y-80500000D01*
X153255714Y-80842857D02*
X153312857Y-80871428D01*
X153455714Y-80871428D01*
X153512857Y-80842857D01*
X153541428Y-80785714D01*
X153541428Y-80728571D01*
X153512857Y-80671428D01*
X153455714Y-80642857D01*
X153312857Y-80642857D01*
X153255714Y-80614285D01*
X152541428Y-80842857D02*
X152484285Y-80871428D01*
X152370000Y-80871428D01*
X152312857Y-80842857D01*
X152284285Y-80785714D01*
X152284285Y-80757142D01*
X152312857Y-80700000D01*
X152370000Y-80671428D01*
X152455714Y-80671428D01*
X152512857Y-80642857D01*
X152541428Y-80585714D01*
X152541428Y-80557142D01*
X152512857Y-80500000D01*
X152455714Y-80471428D01*
X152370000Y-80471428D01*
X152312857Y-80500000D01*
X151941428Y-80871428D02*
X151998571Y-80842857D01*
X152027142Y-80785714D01*
X152027142Y-80271428D01*
X151712857Y-80871428D02*
X151712857Y-80471428D01*
X151712857Y-80271428D02*
X151741428Y-80300000D01*
X151712857Y-80328571D01*
X151684285Y-80300000D01*
X151712857Y-80271428D01*
X151712857Y-80328571D01*
X151170000Y-80871428D02*
X151170000Y-80271428D01*
X151170000Y-80842857D02*
X151227142Y-80871428D01*
X151341428Y-80871428D01*
X151398571Y-80842857D01*
X151427142Y-80814285D01*
X151455714Y-80757142D01*
X151455714Y-80585714D01*
X151427142Y-80528571D01*
X151398571Y-80500000D01*
X151341428Y-80471428D01*
X151227142Y-80471428D01*
X151170000Y-80500000D01*
X150655714Y-80842857D02*
X150712857Y-80871428D01*
X150827142Y-80871428D01*
X150884285Y-80842857D01*
X150912857Y-80785714D01*
X150912857Y-80557142D01*
X150884285Y-80500000D01*
X150827142Y-80471428D01*
X150712857Y-80471428D01*
X150655714Y-80500000D01*
X150627142Y-80557142D01*
X150627142Y-80614285D01*
X150912857Y-80671428D01*
X150370000Y-80871428D02*
X150370000Y-80471428D01*
X150370000Y-80585714D02*
X150341428Y-80528571D01*
X150312857Y-80500000D01*
X150255714Y-80471428D01*
X150198571Y-80471428D01*
X149598571Y-80471428D02*
X149455714Y-80871428D01*
X149312857Y-80471428D01*
X148770000Y-80871428D02*
X149112857Y-80871428D01*
X148941428Y-80871428D02*
X148941428Y-80271428D01*
X148998571Y-80357142D01*
X149055714Y-80414285D01*
X149112857Y-80442857D01*
X148512857Y-80814285D02*
X148484285Y-80842857D01*
X148512857Y-80871428D01*
X148541428Y-80842857D01*
X148512857Y-80814285D01*
X148512857Y-80871428D01*
X148112857Y-80271428D02*
X148055714Y-80271428D01*
X147998571Y-80300000D01*
X147970000Y-80328571D01*
X147941428Y-80385714D01*
X147912857Y-80500000D01*
X147912857Y-80642857D01*
X147941428Y-80757142D01*
X147970000Y-80814285D01*
X147998571Y-80842857D01*
X148055714Y-80871428D01*
X148112857Y-80871428D01*
X148170000Y-80842857D01*
X148198571Y-80814285D01*
X148227142Y-80757142D01*
X148255714Y-80642857D01*
X148255714Y-80500000D01*
X148227142Y-80385714D01*
X148198571Y-80328571D01*
X148170000Y-80300000D01*
X148112857Y-80271428D01*
M02*
