%TF.GenerationSoftware,KiCad,Pcbnew,6.0.7-1.fc35*%
%TF.CreationDate,2022-12-09T23:37:34+01:00*%
%TF.ProjectId,slider,736c6964-6572-42e6-9b69-6361645f7063,rev?*%
%TF.SameCoordinates,Original*%
%TF.FileFunction,Legend,Top*%
%TF.FilePolarity,Positive*%
%FSLAX46Y46*%
G04 Gerber Fmt 4.6, Leading zero omitted, Abs format (unit mm)*
G04 Created by KiCad (PCBNEW 6.0.7-1.fc35) date 2022-12-09 23:37:34*
%MOMM*%
%LPD*%
G01*
G04 APERTURE LIST*
%TA.AperFunction,Profile*%
%ADD10C,0.050000*%
%TD*%
%ADD11C,0.120000*%
%TA.AperFunction,Profile*%
%ADD12C,0.100000*%
%TD*%
%ADD13C,0.125000*%
%ADD14C,0.100000*%
G04 APERTURE END LIST*
D10*
X146269724Y-82509286D02*
G75*
G03*
X143300000Y-106089999I4870276J-12590714D01*
G01*
X143741768Y-106392150D02*
G75*
G03*
X155460000Y-107890000I7398232J11292150D01*
G01*
X156010276Y-107690714D02*
G75*
G03*
X158980000Y-84110001I-4870276J12590714D01*
G01*
X158538232Y-83807850D02*
G75*
G03*
X146820000Y-82310000I-7398232J-11292150D01*
G01*
X159050000Y-83040000D02*
X158538323Y-83807711D01*
X159050000Y-83040000D02*
X159540000Y-83330000D01*
X159540000Y-83330000D02*
X158980000Y-84110000D01*
X143230000Y-107160000D02*
X143741677Y-106392289D01*
X143230000Y-107160000D02*
X142740000Y-106870000D01*
X142740000Y-106870000D02*
X143300000Y-106090000D01*
X155770000Y-108770000D02*
X155460000Y-107890000D01*
X156350000Y-108570000D02*
X155770000Y-108770000D01*
X156010000Y-107690000D02*
X156350000Y-108570000D01*
X146510000Y-81430000D02*
X146820000Y-82310000D01*
X145930000Y-81630000D02*
X146510000Y-81430000D01*
X146270000Y-82510000D02*
X145930000Y-81630000D01*
D11*
X151140000Y-79650000D02*
X150770000Y-80510000D01*
X151510000Y-80510000D02*
X151140000Y-79650000D01*
D12*
X166600000Y-95100000D02*
G75*
G03*
X166600000Y-95100000I-15460000J0D01*
G01*
D13*
X159460814Y-83107019D02*
X159950242Y-82403347D01*
D14*
X164645021Y-88842524D02*
X165163164Y-88601570D01*
D13*
X142431605Y-106811921D02*
X141919595Y-107499336D01*
D14*
X165036373Y-100427933D02*
X165570240Y-100631690D01*
D13*
X136541336Y-94799297D02*
X135684360Y-94782393D01*
X159827537Y-106812561D02*
X160341105Y-107498813D01*
X140213024Y-85422439D02*
X139571161Y-84854367D01*
D14*
X165888417Y-97128868D02*
X166454931Y-97203652D01*
X146919104Y-80821390D02*
X146757096Y-80273408D01*
X164997663Y-89645390D02*
X165529184Y-89435589D01*
D13*
X138421440Y-102249865D02*
X137673367Y-102668291D01*
X154328365Y-80870342D02*
X154513155Y-80033355D01*
D14*
X159209794Y-82584207D02*
X159519258Y-82103829D01*
X165780770Y-97773853D02*
X166343006Y-97875937D01*
X137214132Y-89830732D02*
X136679346Y-89629400D01*
X150053072Y-109946562D02*
X150011122Y-110516449D01*
X158729732Y-82290351D02*
X159021128Y-81798803D01*
D13*
X150844285Y-80746666D02*
X150653809Y-80746666D01*
X150558571Y-80780000D01*
X150510952Y-80813333D01*
X150415714Y-80913333D01*
X150368095Y-81046666D01*
X150368095Y-81313333D01*
X150415714Y-81380000D01*
X150463333Y-81413333D01*
X150558571Y-81446666D01*
X150749047Y-81446666D01*
X150844285Y-81413333D01*
X150891904Y-81380000D01*
X150939523Y-81313333D01*
X150939523Y-81146666D01*
X150891904Y-81080000D01*
X150844285Y-81046666D01*
X150749047Y-81013333D01*
X150558571Y-81013333D01*
X150463333Y-81046666D01*
X150415714Y-81080000D01*
X150368095Y-81146666D01*
X151558571Y-80746666D02*
X151653809Y-80746666D01*
X151749047Y-80780000D01*
X151796666Y-80813333D01*
X151844285Y-80880000D01*
X151891904Y-81013333D01*
X151891904Y-81180000D01*
X151844285Y-81313333D01*
X151796666Y-81380000D01*
X151749047Y-81413333D01*
X151653809Y-81446666D01*
X151558571Y-81446666D01*
X151463333Y-81413333D01*
X151415714Y-81380000D01*
X151368095Y-81313333D01*
X151320476Y-81180000D01*
X151320476Y-81013333D01*
X151368095Y-80880000D01*
X151415714Y-80813333D01*
X151463333Y-80780000D01*
X151558571Y-80746666D01*
X143487442Y-82681269D02*
X143037547Y-81951688D01*
X139089724Y-86885254D02*
X138381134Y-86402973D01*
D14*
X136822336Y-99174162D02*
X136272633Y-99330230D01*
D13*
X141960468Y-106021570D02*
X141902917Y-106013412D01*
X141810574Y-105972741D01*
X141636612Y-105810178D01*
X141589786Y-105720799D01*
X141577753Y-105663931D01*
X141588478Y-105582710D01*
X141633995Y-105534000D01*
X141737064Y-105493449D01*
X142427678Y-105591344D01*
X141975377Y-105168681D01*
X140836388Y-105062389D02*
X141184312Y-105387515D01*
X141446692Y-105176481D01*
X141389141Y-105168323D01*
X141296797Y-105127653D01*
X141122836Y-104965090D01*
X141076010Y-104875710D01*
X141063976Y-104818843D01*
X141074701Y-104737621D01*
X141188495Y-104615848D01*
X141268805Y-104599651D01*
X141326357Y-104607809D01*
X141418700Y-104648480D01*
X141592662Y-104811042D01*
X141639488Y-104900422D01*
X141651521Y-104957289D01*
D14*
X136508708Y-97891054D02*
X135947420Y-97998227D01*
X149053848Y-80361211D02*
X148974123Y-79795372D01*
X144420675Y-108388955D02*
X144164902Y-108899945D01*
X157740650Y-81751704D02*
X157994013Y-81239514D01*
X162656688Y-85658935D02*
X163099072Y-85297234D01*
D13*
X136774079Y-92512915D02*
X135930298Y-92362159D01*
X136938767Y-98461475D02*
X136104644Y-98658792D01*
D14*
X138555477Y-87138217D02*
X138072790Y-86832367D01*
D13*
X138071750Y-88620644D02*
X137304931Y-88237654D01*
D14*
X142972412Y-82652772D02*
X142658935Y-82175004D01*
X156673029Y-81281707D02*
X156885702Y-80751329D01*
D13*
X139186595Y-103460206D02*
X138483694Y-103950740D01*
D14*
X136861312Y-90889367D02*
X136313471Y-90726881D01*
X160893685Y-106352913D02*
X161268802Y-106783979D01*
X162343382Y-85296851D02*
X162773596Y-84920757D01*
X165144424Y-90066821D02*
X165681834Y-89872600D01*
X150434421Y-80233954D02*
X150408200Y-79663127D01*
X136391596Y-93041022D02*
X135825057Y-92966436D01*
D13*
X157067952Y-81770537D02*
X157417130Y-80987742D01*
X149809170Y-109351727D02*
X149757297Y-109377955D01*
X149658289Y-109397416D01*
X149422610Y-109363580D01*
X149333075Y-109317050D01*
X149290677Y-109277288D01*
X149253015Y-109204531D01*
X149262489Y-109138541D01*
X149323836Y-109046323D01*
X149946309Y-108731589D01*
X149333544Y-108643615D01*
X148621302Y-109248538D02*
X148527030Y-109235003D01*
X148437496Y-109188474D01*
X148395097Y-109148712D01*
X148357436Y-109075955D01*
X148329248Y-108937207D01*
X148352933Y-108772232D01*
X148419017Y-108647019D01*
X148475627Y-108587796D01*
X148527499Y-108561569D01*
X148626508Y-108542108D01*
X148720779Y-108555642D01*
X148810314Y-108602172D01*
X148852713Y-108641934D01*
X148890374Y-108714691D01*
X148918562Y-108853438D01*
X148894877Y-109018413D01*
X148828793Y-109143626D01*
X148772183Y-109202849D01*
X148720311Y-109229077D01*
X148621302Y-109248538D01*
X151021234Y-109688573D02*
X151018990Y-110545712D01*
D14*
X163627046Y-103217862D02*
X164105143Y-103530839D01*
X146154807Y-109133704D02*
X145964248Y-109672423D01*
X163274326Y-103737225D02*
X163739187Y-104069542D01*
X162901901Y-104227068D02*
X163352990Y-104577852D01*
X164028150Y-87637712D02*
X164522422Y-87350962D01*
D13*
X157668038Y-108148909D02*
X158053423Y-108914528D01*
X164198728Y-88591601D02*
X164964676Y-88206871D01*
X156216853Y-81650137D02*
X156825694Y-81921720D01*
X156149134Y-82386414D01*
X157347557Y-82154505D02*
X157434535Y-82193303D01*
X157507933Y-82262542D01*
X157537842Y-82312383D01*
X157554173Y-82392666D01*
X157543345Y-82533833D01*
X157475449Y-82686043D01*
X157377644Y-82788412D01*
X157306997Y-82829898D01*
X157249929Y-82840941D01*
X157149373Y-82832585D01*
X157062395Y-82793788D01*
X156988997Y-82724548D01*
X156959088Y-82674707D01*
X156942757Y-82594425D01*
X156953585Y-82453258D01*
X157021481Y-82301047D01*
X157119286Y-82198678D01*
X157189933Y-82157193D01*
X157247001Y-82146149D01*
X157347557Y-82154505D01*
D14*
X155556801Y-80880149D02*
X155726253Y-80334423D01*
D13*
X163067790Y-88426398D02*
X163153285Y-88596609D01*
X163225820Y-88666752D01*
X163276981Y-88694343D01*
X163409089Y-88734564D01*
X163549611Y-88717270D01*
X163787906Y-88597576D01*
X163826106Y-88525100D01*
X163834519Y-88467585D01*
X163821558Y-88367518D01*
X163736062Y-88197308D01*
X163663528Y-88127164D01*
X163612367Y-88099573D01*
X163531419Y-88086944D01*
X163382485Y-88161752D01*
X163344285Y-88234228D01*
X163335872Y-88291743D01*
X163348833Y-88391810D01*
X163434328Y-88562021D01*
X163506863Y-88632164D01*
X163558024Y-88659755D01*
X163638971Y-88672384D01*
X164184913Y-89090914D02*
X164227661Y-89176019D01*
X164240622Y-89276087D01*
X164232209Y-89333601D01*
X164194009Y-89406077D01*
X164096235Y-89508477D01*
X163947301Y-89583285D01*
X163806780Y-89600579D01*
X163725832Y-89587950D01*
X163674671Y-89560359D01*
X163602137Y-89490215D01*
X163559389Y-89405110D01*
X163546428Y-89305043D01*
X163554841Y-89247528D01*
X163593041Y-89175052D01*
X163690815Y-89072653D01*
X163839749Y-88997844D01*
X163980270Y-88980550D01*
X164061218Y-88993179D01*
X164112379Y-89020770D01*
X164184913Y-89090914D01*
D14*
X140396687Y-105412310D02*
X139984528Y-105808109D01*
X137605668Y-88891030D02*
X137086271Y-88652793D01*
D13*
X141151874Y-105735555D02*
X140566648Y-106361817D01*
X140096815Y-104641896D02*
X139448060Y-105202084D01*
D14*
X166025771Y-94785978D02*
X166597096Y-94775108D01*
X142277032Y-83132575D02*
X141936973Y-82673347D01*
D13*
X145394731Y-108516273D02*
X145058855Y-109304867D01*
D14*
X162010445Y-84924663D02*
X162427817Y-84534366D01*
D13*
X136706443Y-97231620D02*
X135858364Y-97355946D01*
X140823582Y-84783117D02*
X140217068Y-84177449D01*
D14*
X162499808Y-104717309D02*
X162936520Y-105085837D01*
X164801628Y-101015031D02*
X165325940Y-101242247D01*
D13*
X149006995Y-109533356D02*
X148885185Y-110381799D01*
D14*
X165712322Y-92084109D02*
X166271736Y-91967547D01*
D13*
X137317223Y-99750881D02*
X136504090Y-100022005D01*
D14*
X160933727Y-83887122D02*
X161308768Y-83455990D01*
X152481897Y-80273026D02*
X152532992Y-79703887D01*
X165908124Y-93238846D02*
X166475171Y-93168216D01*
X161275617Y-84199816D02*
X161665403Y-83781968D01*
X154969186Y-80713718D02*
X155116119Y-80161503D01*
D13*
X153211946Y-109543509D02*
X153335680Y-110391674D01*
X164962439Y-99761896D02*
X165776185Y-100031175D01*
D14*
X138516413Y-102993267D02*
X138032025Y-103296417D01*
D13*
X147651404Y-80888076D02*
X147448850Y-80055210D01*
D14*
X146204393Y-81056441D02*
X146014587Y-80517457D01*
X163783209Y-87236127D02*
X164268283Y-86934077D01*
X149769030Y-80272942D02*
X149716247Y-79703956D01*
D13*
X136570534Y-96020973D02*
X135715017Y-96073748D01*
X139621946Y-86139656D02*
X138945680Y-85613008D01*
X141472624Y-84172860D02*
X140904216Y-83531295D01*
X164554607Y-92518611D02*
X164453416Y-91956213D01*
X164504011Y-92237412D02*
X165192948Y-92113452D01*
X165077664Y-92037428D01*
X164995185Y-91955501D01*
X164945514Y-91867671D01*
X165353168Y-93003915D02*
X165370033Y-93097648D01*
X165354092Y-93197284D01*
X165329718Y-93250053D01*
X165272538Y-93308725D01*
X165149744Y-93379203D01*
X164985711Y-93408717D01*
X164846053Y-93385462D01*
X164772007Y-93350401D01*
X164730768Y-93309437D01*
X164681096Y-93221607D01*
X164664231Y-93127874D01*
X164680172Y-93028239D01*
X164704546Y-92975469D01*
X164761727Y-92916797D01*
X164884520Y-92846320D01*
X165048553Y-92816805D01*
X165188211Y-92840061D01*
X165262257Y-92875121D01*
X165303496Y-92916085D01*
X165353168Y-93003915D01*
D14*
X161304896Y-105980858D02*
X161695993Y-106397479D01*
D13*
X137006576Y-91477398D02*
X136176437Y-91263946D01*
D14*
X140935343Y-84258916D02*
X140543810Y-83842704D01*
X159630903Y-107341736D02*
X159956533Y-107811306D01*
X158239987Y-82016173D02*
X158512737Y-81514039D01*
D13*
X157427759Y-107231505D02*
X157938172Y-106974582D01*
X157682965Y-107103043D02*
X157997696Y-107728299D01*
X158037803Y-107596156D01*
X158092898Y-107493788D01*
X158162979Y-107421193D01*
X156976870Y-108242145D02*
X157147008Y-108156504D01*
X157217090Y-108083909D01*
X157244637Y-108032725D01*
X157284744Y-107900582D01*
X157267330Y-107760076D01*
X157147432Y-107521883D01*
X157074924Y-107483745D01*
X157017402Y-107475381D01*
X156917346Y-107488428D01*
X156747209Y-107574069D01*
X156677127Y-107646663D01*
X156649580Y-107697848D01*
X156637020Y-107778806D01*
X156711956Y-107927676D01*
X156784464Y-107965814D01*
X156841986Y-107974178D01*
X156942042Y-107961132D01*
X157112179Y-107875491D01*
X157182261Y-107802896D01*
X157209808Y-107751712D01*
X157222368Y-107670753D01*
D14*
X165633781Y-98479247D02*
X166190542Y-98607888D01*
X140298803Y-84895463D02*
X139882796Y-84503712D01*
D13*
X161881926Y-104972053D02*
X162514787Y-105550137D01*
X138566317Y-87689062D02*
X137827558Y-87254403D01*
D14*
X165986506Y-94002306D02*
X166556494Y-93961749D01*
D13*
X137792410Y-100459211D02*
X137596598Y-99871948D01*
X137955010Y-100103817D01*
X137909823Y-99968295D01*
X137911320Y-99867403D01*
X137927879Y-99811685D01*
X137976060Y-99745424D01*
X138134169Y-99692705D01*
X138212476Y-99716792D01*
X138259160Y-99751422D01*
X138320907Y-99831227D01*
X138411281Y-100102271D01*
X138409784Y-100203163D01*
X138393225Y-100258881D01*
X137400786Y-99284686D02*
X137370661Y-99194337D01*
X137372158Y-99093446D01*
X137388718Y-99037728D01*
X137436899Y-98971466D01*
X137548324Y-98884117D01*
X137706433Y-98831399D01*
X137847983Y-98834398D01*
X137926289Y-98858485D01*
X137972973Y-98893115D01*
X138034720Y-98972919D01*
X138064845Y-99063268D01*
X138063348Y-99164159D01*
X138046789Y-99219877D01*
X137998607Y-99286139D01*
X137887182Y-99373488D01*
X137729073Y-99426206D01*
X137587523Y-99423207D01*
X137509217Y-99399120D01*
X137462533Y-99364490D01*
X137400786Y-99284686D01*
D14*
X139378233Y-104227242D02*
X138926899Y-104577711D01*
D13*
X138368143Y-89048583D02*
X138785633Y-89257100D01*
X138023190Y-89142435D02*
X138364115Y-89578852D01*
X138640720Y-89025038D01*
X138478556Y-88305308D02*
X138521111Y-88220106D01*
X138593486Y-88149798D01*
X138644584Y-88122091D01*
X138725503Y-88109278D01*
X138866063Y-88126253D01*
X139015167Y-88200723D01*
X139113173Y-88302901D01*
X139151537Y-88375290D01*
X139160080Y-88432785D01*
X139147347Y-88532881D01*
X139104792Y-88618084D01*
X139032417Y-88688392D01*
X138981319Y-88716099D01*
X138900400Y-88728912D01*
X138759840Y-88711936D01*
X138610736Y-88637466D01*
X138512730Y-88535288D01*
X138474366Y-88462899D01*
X138465822Y-88405404D01*
X138478556Y-88305308D01*
D14*
X164821193Y-89233961D02*
X165346296Y-89008576D01*
D13*
X144175018Y-82284260D02*
X143765893Y-81531059D01*
D14*
X153744938Y-80439424D02*
X153845050Y-79876834D01*
D13*
X163016728Y-86634496D02*
X163713585Y-86135412D01*
D14*
X156702724Y-108908414D02*
X156915952Y-109438569D01*
X136597083Y-91906898D02*
X136038750Y-91785264D01*
D13*
X164159205Y-99299684D02*
X164338724Y-98757186D01*
X164248965Y-99028435D02*
X164913524Y-99248346D01*
X164848507Y-99126513D01*
X164815135Y-99015153D01*
X164813409Y-98914265D01*
X164640794Y-99860315D02*
X164657480Y-99915995D01*
X164659206Y-100016884D01*
X164584406Y-100242924D01*
X164522840Y-100322869D01*
X164476235Y-100357605D01*
X164397984Y-100381869D01*
X164334692Y-100360925D01*
X164254715Y-100284301D01*
X164054486Y-99616140D01*
X163860007Y-100203846D01*
X159402765Y-105982341D02*
X159860266Y-105639962D01*
X159631515Y-105811152D02*
X160050930Y-106371591D01*
X160067263Y-106234465D01*
X160103569Y-106124026D01*
X160159847Y-106040276D01*
X159097802Y-107084880D02*
X159479053Y-106799564D01*
X159317457Y-106504157D01*
X159299304Y-106559376D01*
X159243026Y-106643127D01*
X159052401Y-106785785D01*
X158956179Y-106816161D01*
X158898081Y-106818005D01*
X158820012Y-106793161D01*
X158720152Y-106659723D01*
X158718332Y-106577817D01*
X158736485Y-106522597D01*
X158792763Y-106438847D01*
X158983389Y-106296189D01*
X159079611Y-106265813D01*
X159137708Y-106263969D01*
D14*
X163508592Y-86824475D02*
X163983878Y-86507247D01*
X148348837Y-80478729D02*
X148241860Y-79917403D01*
X166015874Y-95569963D02*
X166587011Y-95588211D01*
X137811387Y-101740011D02*
X137299773Y-101994535D01*
X139093968Y-86345136D02*
X138632207Y-86008525D01*
X139711741Y-85560839D02*
X139272211Y-85195676D01*
X158709685Y-107919676D02*
X159001166Y-108411173D01*
X160512213Y-83534245D02*
X160871825Y-83090162D01*
X164243408Y-88039240D02*
X164746301Y-87767894D01*
X164547353Y-101582571D02*
X165061256Y-101832441D01*
D13*
X143845856Y-107741813D02*
X143417026Y-108483971D01*
D14*
X141581598Y-106518890D02*
X141215055Y-106957271D01*
X165634219Y-91672621D02*
X166190183Y-91540582D01*
D13*
X144087808Y-82636797D02*
X143669363Y-82864089D01*
X143786622Y-83179729D01*
X143812556Y-83127709D01*
X143880335Y-83052959D01*
X144089557Y-82939314D01*
X144189157Y-82923147D01*
X144246912Y-82929709D01*
X144320577Y-82965562D01*
X144400129Y-83112017D01*
X144390105Y-83193329D01*
X144364171Y-83245349D01*
X144296393Y-83320098D01*
X144087170Y-83433744D01*
X143987571Y-83449911D01*
X143929816Y-83443349D01*
X144673630Y-82318589D02*
X144757319Y-82273131D01*
X144856918Y-82256964D01*
X144914673Y-82263526D01*
X144988338Y-82299379D01*
X145093825Y-82393814D01*
X145173377Y-82540270D01*
X145195174Y-82680163D01*
X145185150Y-82761475D01*
X145159216Y-82813495D01*
X145091437Y-82888245D01*
X145007749Y-82933703D01*
X144908149Y-82949870D01*
X144850394Y-82943308D01*
X144776729Y-82907455D01*
X144671243Y-82813020D01*
X144591691Y-82666564D01*
X144569894Y-82526670D01*
X144579917Y-82445359D01*
X144605852Y-82393339D01*
X144673630Y-82318589D01*
D14*
X153118270Y-80341503D02*
X153194142Y-79775133D01*
X138046068Y-88010205D02*
X137544125Y-87737104D01*
X165526366Y-91271131D02*
X166078427Y-91123619D01*
X141581387Y-83681284D02*
X141215228Y-83242585D01*
D13*
X162975641Y-101934180D02*
X163268408Y-101443448D01*
X163122025Y-101688814D02*
X163723172Y-102047454D01*
X163686088Y-101914431D01*
X163677631Y-101798486D01*
X163697799Y-101699620D01*
X163406007Y-102579081D02*
X163088843Y-103110707D01*
X163030615Y-102687822D01*
X162957423Y-102810505D01*
X162880003Y-102875215D01*
X162826980Y-102899032D01*
X162745330Y-102905770D01*
X162602200Y-102820379D01*
X162569345Y-102745329D01*
X162565116Y-102687356D01*
X162585285Y-102588490D01*
X162731669Y-102343124D01*
X162809089Y-102278413D01*
X162862112Y-102254597D01*
X137761540Y-100950216D02*
X136976921Y-101295277D01*
D14*
X136283725Y-94218748D02*
X135713315Y-94184660D01*
D13*
X142799658Y-83116690D02*
X142309370Y-82413617D01*
D14*
X165477410Y-99105059D02*
X166027573Y-99259496D01*
X137243294Y-100447067D02*
X136710031Y-100652398D01*
X136332609Y-96647584D02*
X135764228Y-96706521D01*
X159190256Y-107615495D02*
X159498881Y-108096412D01*
D13*
X136619122Y-93726576D02*
X135766172Y-93641891D01*
X165002207Y-90547399D02*
X165816375Y-90279400D01*
D14*
X142962962Y-107547589D02*
X142648485Y-108024699D01*
X162970293Y-86060845D02*
X163424305Y-85713853D01*
X151805852Y-80223967D02*
X151831575Y-79653117D01*
X164253539Y-102140518D02*
X164756195Y-102412303D01*
D13*
X137306831Y-90450288D02*
X136494410Y-90177036D01*
D14*
X154380851Y-109633415D02*
X154506575Y-110190841D01*
D13*
X161354656Y-104195794D02*
X161740045Y-103773887D01*
X161547350Y-103984840D02*
X162064187Y-104456942D01*
X162054584Y-104319181D01*
X162069593Y-104203901D01*
X162109214Y-104111102D01*
X161121129Y-105143389D02*
X160776572Y-104828655D01*
X161478598Y-105147443D02*
X161270008Y-104634433D01*
X160852503Y-105091499D01*
X137675069Y-89481547D02*
X136884034Y-89151461D01*
X160664137Y-84747556D02*
X160620221Y-84656711D01*
X160610030Y-84599485D01*
X160623372Y-84518651D01*
X160646905Y-84495044D01*
X160727696Y-84481449D01*
X160784953Y-84491460D01*
X160875936Y-84535091D01*
X161010834Y-84669566D01*
X161054750Y-84760411D01*
X161064942Y-84817637D01*
X161051600Y-84898470D01*
X161028067Y-84922077D01*
X160947276Y-84935673D01*
X160890018Y-84925661D01*
X160799036Y-84882031D01*
X160664137Y-84747556D01*
X160573155Y-84703925D01*
X160515897Y-84693914D01*
X160435106Y-84707509D01*
X160340973Y-84801938D01*
X160327632Y-84882771D01*
X160337823Y-84939997D01*
X160381739Y-85030842D01*
X160516638Y-85165318D01*
X160607620Y-85208948D01*
X160664878Y-85218960D01*
X160745669Y-85205364D01*
X160839801Y-85110935D01*
X160853143Y-85030102D01*
X160842952Y-84972876D01*
X160799036Y-84882031D01*
X161584152Y-85241086D02*
X161651602Y-85308323D01*
X161695518Y-85399168D01*
X161705709Y-85456394D01*
X161692367Y-85537228D01*
X161631959Y-85665275D01*
X161514293Y-85783311D01*
X161386436Y-85844121D01*
X161305645Y-85857717D01*
X161248387Y-85847706D01*
X161157405Y-85804075D01*
X161089956Y-85736837D01*
X161046040Y-85645993D01*
X161035848Y-85588767D01*
X161049190Y-85507933D01*
X161109598Y-85379886D01*
X161227264Y-85261850D01*
X161355121Y-85201039D01*
X161435912Y-85187444D01*
X161493170Y-85197455D01*
X161584152Y-85241086D01*
D14*
X143667517Y-82221962D02*
X143381121Y-81727485D01*
D13*
X163695146Y-102518467D02*
X164431244Y-102957617D01*
X161447173Y-84793873D02*
X162052312Y-84186830D01*
D14*
X136254219Y-95413527D02*
X135682911Y-95425295D01*
X158289168Y-108164272D02*
X158563407Y-108665594D01*
D13*
X165506022Y-92533482D02*
X166349618Y-92381695D01*
D14*
X152187967Y-109946487D02*
X152228026Y-110516510D01*
X144754857Y-81653881D02*
X144509661Y-81137733D01*
X160061033Y-83181131D02*
X160404609Y-82724528D01*
D13*
X142121406Y-83630577D02*
X141591576Y-82956800D01*
X147128360Y-109126382D02*
X146894977Y-109951141D01*
X155470280Y-109039751D02*
X155724316Y-109858384D01*
D14*
X165418781Y-90879682D02*
X165966451Y-90716623D01*
D13*
X136788562Y-94567690D02*
X136849723Y-93951671D01*
X137082152Y-94309720D01*
X137096266Y-94167562D01*
X137138846Y-94076083D01*
X137176721Y-94031990D01*
X137247766Y-93991190D01*
X137413617Y-94007657D01*
X137475253Y-94061630D01*
X137503718Y-94112309D01*
X137527479Y-94210374D01*
X137499251Y-94494691D01*
X137456671Y-94586170D01*
X137418796Y-94630262D01*
X136939112Y-93051336D02*
X136892065Y-93525196D01*
X137219063Y-93605515D01*
X137190597Y-93554836D01*
X137166837Y-93456771D01*
X137190360Y-93219840D01*
X137232940Y-93128361D01*
X137270815Y-93084269D01*
X137341860Y-93043469D01*
X137507711Y-93059936D01*
X137569347Y-93113908D01*
X137597812Y-93164588D01*
X137621573Y-93262653D01*
X137598050Y-93499583D01*
X137555470Y-93591062D01*
X137517595Y-93635155D01*
X164779907Y-96084353D02*
X164826471Y-95514825D01*
X164803189Y-95799589D02*
X165500861Y-95856629D01*
X165408954Y-95753559D01*
X165350270Y-95653205D01*
X165324808Y-95555568D01*
X164702301Y-97033567D02*
X164748865Y-96464038D01*
X164725583Y-96748802D02*
X165423255Y-96805843D01*
X165331348Y-96702773D01*
X165272664Y-96602419D01*
X165247202Y-96504781D01*
X165680156Y-96321371D02*
X166534417Y-96391604D01*
D14*
X160502597Y-106675443D02*
X160861511Y-107120091D01*
D13*
X141011970Y-85316179D02*
X141342184Y-85645932D01*
X140655035Y-85296225D02*
X140840594Y-85818008D01*
X141278021Y-85379970D01*
X141553476Y-84443702D02*
X141216994Y-84780655D01*
X141419212Y-85049888D01*
X141429274Y-84992639D01*
X141472984Y-84901695D01*
X141641225Y-84733218D01*
X141732108Y-84689382D01*
X141789343Y-84679240D01*
X141870165Y-84692652D01*
X141988098Y-84810421D01*
X142001623Y-84891224D01*
X141991562Y-84948473D01*
X141947852Y-85039417D01*
X141779611Y-85207894D01*
X141688727Y-85251730D01*
X141631493Y-85261872D01*
D14*
X145489612Y-81320634D02*
X145272134Y-80792208D01*
X148045504Y-109662616D02*
X147926405Y-110221495D01*
X156094727Y-81056130D02*
X156286132Y-80517711D01*
X161746297Y-105559245D02*
X162153029Y-105960617D01*
M02*
